<svg width="42" height="43" viewBox="0 0 42 43" fill="none" xmlns="http://www.w3.org/2000/svg">
<g id="fi_1752801" clip-path="url(#clip0_345_9869)">
<path id="Vector" d="M3.20795 8.09545C4.04423 8.27848 4.69628 8.93978 4.86925 9.77807L5.39942 12.3521C5.46659 12.6791 5.7546 12.9136 6.08807 12.9136C6.42154 12.9136 6.70915 12.6791 6.77672 12.3521L7.30649 9.77847C7.47946 8.93978 8.13191 8.27848 8.96859 8.09505L11.6239 7.51259C11.9461 7.4418 12.1761 7.1562 12.1761 6.82595C12.1761 6.4957 11.9461 6.2101 11.6239 6.13931L8.96859 5.55685C8.96779 5.55685 8.96779 5.55685 8.96779 5.55685C8.13191 5.37342 7.47946 4.71212 7.30649 3.87423L6.77672 1.29982C6.70915 0.973196 6.42154 0.738281 6.08807 0.738281C5.7546 0.738281 5.46659 0.973196 5.39942 1.29982L4.86925 3.87343C4.69628 4.71252 4.04423 5.37342 3.20755 5.55685L0.551889 6.13931C0.229685 6.2101 0 6.4957 0 6.82595C0 7.1562 0.230088 7.4418 0.551889 7.51259L3.20795 8.09545ZM6.08767 4.70247C6.46619 5.70085 7.27552 6.48404 8.29241 6.82595C7.27552 7.16786 6.46619 7.95105 6.08767 8.94943C5.70955 7.95105 4.90022 7.16786 3.88333 6.82595C4.90022 6.48323 5.70955 5.70085 6.08767 4.70247Z" fill="#9E1256"/>
<path id="Vector_2" d="M8.40984 37.0714L6.64758 36.684H6.64677C6.18258 36.5826 5.82015 36.2162 5.72481 35.75L5.37244 34.0412C5.30527 33.7146 5.01766 33.4805 4.68419 33.4805C4.35032 33.4805 4.06271 33.7146 3.99554 34.0412L3.64316 35.7508C3.54783 36.2162 3.1854 36.5826 2.7208 36.684L0.958541 37.0714C0.636338 37.1422 0.40625 37.4278 0.40625 37.758C0.40625 38.0879 0.636338 38.3735 0.958541 38.4442L2.72121 38.8316C3.1854 38.933 3.54783 39.2998 3.64316 39.7656L3.99554 41.4744C4.06271 41.801 4.35032 42.0351 4.68419 42.0351C5.01766 42.0351 5.30527 41.801 5.37244 41.4744L5.72481 39.7648C5.82015 39.2998 6.18258 38.933 6.64758 38.8316L8.40984 38.4442C8.73164 38.3735 8.96173 38.0879 8.96173 37.758C8.96173 37.4278 8.73164 37.1422 8.40984 37.0714ZM4.68379 38.6357C4.46054 38.2753 4.15241 37.9732 3.78596 37.758C4.15241 37.542 4.46094 37.2403 4.68379 36.8799C4.90704 37.2403 5.21516 37.5424 5.58161 37.758C5.21516 37.9736 4.90704 38.2753 4.68379 38.6357Z" fill="#9E1256"/>
<path id="Vector_3" d="M41.4485 4.0327L39.6862 3.64534H39.6854C39.2216 3.54357 38.8592 3.17712 38.7635 2.71091L38.4115 1.00214C38.3443 0.675516 38.0563 0.441406 37.7229 0.441406C37.3894 0.441406 37.1018 0.675516 37.0342 1.00214L36.6822 2.71171C36.5865 3.17712 36.2245 3.54357 35.7595 3.64534L33.9972 4.0327C33.6754 4.1031 33.4453 4.3887 33.4453 4.71894C33.4453 5.04919 33.6754 5.33479 33.9972 5.40559L35.7603 5.79255C36.2245 5.89432 36.5865 6.26077 36.6822 6.72698L37.0342 8.43574C37.1018 8.76237 37.3894 8.99648 37.7229 8.99648C38.0563 8.99648 38.3443 8.76237 38.4115 8.43574L38.7635 6.72618C38.8592 6.26077 39.2216 5.89432 39.6862 5.79255L41.4485 5.40559C41.7703 5.33479 42.0004 5.04919 42.0004 4.71894C42.0004 4.3887 41.7703 4.1031 41.4485 4.0327ZM37.7229 5.59706C37.4996 5.23664 37.1915 4.93455 36.8246 4.71894C37.1915 4.50334 37.4996 4.20125 37.7229 3.84083C37.9461 4.20125 38.2538 4.50334 38.6207 4.71894C38.2542 4.93455 37.9461 5.23664 37.7229 5.59706Z" fill="#9E1256"/>
<path id="Vector_4" d="M22.9275 17.0794C24.2051 16.8115 25.0232 15.5585 24.7553 14.281C24.4874 13.0034 23.234 12.1852 21.9569 12.4531C20.6793 12.7214 19.8607 13.9745 20.129 15.2516C20.3969 16.5296 21.65 17.3477 22.9275 17.0794Z" fill="#9E1256"/>
<path id="Vector_5" d="M26.4916 19.678C26.9852 19.5746 27.3013 19.0903 27.1979 18.5968C27.0946 18.1032 26.6103 17.787 26.1167 17.8908C25.6227 17.9942 25.3066 18.4785 25.4103 18.9721C25.5137 19.4656 25.998 19.7818 26.4916 19.678Z" fill="#9E1256"/>
<path id="Vector_6" d="M16.0696 16.0386C15.3954 16.1802 14.9634 16.8415 15.105 17.5157C15.2462 18.1898 15.9075 18.6218 16.5817 18.4803C17.2558 18.3387 17.6879 17.6774 17.5467 17.0032C17.4051 16.329 16.7438 15.897 16.0696 16.0386Z" fill="#9E1256"/>
<path id="Vector_7" d="M34.2029 15.6943C33.8143 15.6979 33.5026 16.0157 33.5062 16.4034C33.5102 16.792 33.8405 17.1347 34.2154 17.1001C38.869 17.0378 40.036 17.8881 40.1039 18.2115C40.1695 18.5229 39.4579 19.716 35.437 21.4766C34.8224 21.7461 34.1651 22.0124 33.4748 22.2747C33.4865 21.339 33.3988 20.3958 33.2017 19.4577C32.499 16.1074 30.5332 13.2309 27.6671 11.3596C24.8019 9.48832 21.3775 8.84352 18.0272 9.54705C14.6764 10.2502 11.8003 12.2156 9.92907 15.082C8.05699 17.9481 7.41339 21.3716 8.11693 24.722C8.29593 25.5751 8.5594 26.3897 8.89126 27.1612C8.69939 27.164 8.50792 27.1669 8.32127 27.1673C8.31121 27.1673 8.30076 27.1673 8.2907 27.1673C3.92628 27.1673 2.80037 26.3648 2.73521 26.0542C2.68091 25.7948 3.21711 24.7932 6.31162 23.2912C6.66078 23.1214 6.80639 22.7015 6.63705 22.3519C6.4677 22.0024 6.04775 21.8575 5.69779 22.0265C2.49507 23.5808 1.07633 24.9927 1.35951 26.3426C1.67407 27.8434 3.94116 28.5731 8.28869 28.5731H8.32288C8.73277 28.5727 9.15835 28.5639 9.59279 28.5502C11.8679 32.4412 16.0847 34.9078 20.6567 34.9074C21.526 34.9074 22.4081 34.8181 23.2914 34.633C26.6422 33.9299 29.5183 31.9637 31.3896 29.0977C32.4479 27.477 33.1132 25.6781 33.365 23.8153C34.3031 23.4722 35.1876 23.121 36.001 22.7646C40.0038 21.0112 41.7958 19.4275 41.48 17.9231C41.1566 16.3813 38.7504 15.6371 34.2029 15.6943ZM9.49263 24.4336C8.86672 21.4505 9.43993 18.4026 11.1061 15.8507C12.773 13.2988 15.3329 11.5491 18.3156 10.9232C19.104 10.7574 19.896 10.6758 20.682 10.6758C22.8743 10.6758 25.0211 11.3101 26.8984 12.537C29.4503 14.2031 31.2001 16.7638 31.8264 19.7461C32.0416 20.7723 32.108 21.7948 32.046 22.794C29.139 23.806 25.7323 24.7365 22.1253 25.4935C17.8957 26.3805 13.8229 26.9392 10.409 27.1105C9.99866 26.2698 9.68973 25.3728 9.49263 24.4336ZM23.0034 33.2573C20.0195 33.8824 16.9725 33.3092 14.4206 31.6431C13.1246 30.7964 12.0369 29.7187 11.1966 28.473C14.5308 28.2602 18.4073 27.7099 22.4133 26.8692C25.8055 26.1572 29.0275 25.292 31.8421 24.3483C30.9616 28.6777 27.5943 32.2935 23.0034 33.2573Z" fill="#9E1256"/>
</g>
<defs>
<clipPath id="clip0_345_9869">
<rect width="42" height="42" fill="white" transform="translate(0 0.144531)"/>
</clipPath>
</defs>
</svg>
