<svg width="42" height="43" viewBox="0 0 42 43" fill="none" xmlns="http://www.w3.org/2000/svg">
<g id="fi_3776970" clip-path="url(#clip0_345_9882)">
<g id="Group">
<path id="Vector" d="M21 42.1445C19.57 42.1445 18.1409 41.9998 16.7523 41.7146C16.4195 41.6462 16.2051 41.3209 16.2735 40.9881C16.3418 40.6552 16.667 40.441 17 40.5093C18.3073 40.7779 19.6531 40.9141 21.0001 40.9141C26.2808 40.9141 31.2453 38.8578 34.9793 35.1237C38.7133 31.3898 40.7696 26.4252 40.7696 21.1446C40.7696 18.39 40.2142 15.7249 39.1187 13.223C38.0604 10.8059 36.5505 8.65355 34.6311 6.8258C34.385 6.59151 34.3754 6.20202 34.6098 5.95593C34.844 5.70975 35.2336 5.7004 35.4796 5.9346C37.5181 7.87572 39.1217 10.1618 40.2459 12.7295C41.4099 15.3879 42.0001 18.2191 42.0001 21.1446C42.0001 26.7539 39.8157 32.0275 35.8493 35.9939C31.8829 39.9603 26.6093 42.1445 21 42.1445ZM14.5269 41.0954C14.4622 41.0954 14.3964 41.0852 14.3316 41.0634C10.1913 39.6779 6.63352 37.0745 4.04262 33.5344C1.39799 29.9205 0 25.6362 0 21.1445C0 15.5352 2.18435 10.2616 6.15076 6.29521C10.1172 2.3288 15.3907 0.144531 21 0.144531C25.3632 0.144531 29.547 1.47017 33.0991 3.97814C33.3767 4.17419 33.4428 4.55802 33.2468 4.83562C33.0509 5.11321 32.667 5.17925 32.3894 4.98336C29.0461 2.6228 25.1076 1.37501 21 1.37501C15.7194 1.37501 10.7548 3.43139 7.02088 7.16533C3.28686 10.8993 1.23048 15.8638 1.23048 21.1445C1.23048 25.3732 2.54627 29.4062 5.03562 32.8076C7.47525 36.1411 10.8248 38.5925 14.722 39.8966C15.0443 40.0044 15.2181 40.353 15.1102 40.6753C15.0241 40.9328 14.7842 41.0954 14.5269 41.0954ZM20.7811 39.5019C20.0534 39.5019 19.3258 39.3262 18.7588 38.9747C18.4699 38.7957 18.3809 38.4165 18.5599 38.1277C18.7389 37.8389 19.1181 37.7497 19.407 37.9288C20.1519 38.3904 21.4104 38.3904 22.1552 37.9288C22.396 37.7796 22.4386 37.5747 22.3981 37.4326C22.3708 37.3368 22.2922 37.2225 22.0729 37.2225C21.7332 37.2225 21.4577 36.9471 21.4577 36.6073C21.4577 36.2674 21.7332 35.992 22.0729 35.992C22.7985 35.992 23.3906 36.4252 23.5815 37.0955C23.7837 37.8057 23.4711 38.5608 22.8034 38.9747C22.2363 39.3262 21.5087 39.5019 20.7811 39.5019ZM27.8489 37.8495C27.7445 37.8495 27.6387 37.823 27.5418 37.767C27.2476 37.5972 27.1467 37.2209 27.3166 36.9266C27.4036 36.7759 27.5035 36.6289 27.6149 36.4865L26.4838 34.5274C26.3049 34.5525 26.1276 34.5656 25.9537 34.5656C25.9536 34.5656 25.9536 34.5656 25.9535 34.5656C25.6138 34.5656 25.3383 34.2901 25.3383 33.9504C25.3383 33.6105 25.6138 33.3351 25.9535 33.3351C26.1649 33.3351 26.3868 33.3062 26.6117 33.2528C26.6363 33.245 26.6611 33.2388 26.6861 33.2342C27.3907 33.0505 28.1154 32.6321 28.6269 32.1137C28.6434 32.0944 28.6612 32.0758 28.6803 32.0584C28.8389 31.8904 28.9749 31.7127 29.0805 31.5297C29.2503 31.2354 29.6266 31.1344 29.9209 31.3045C30.2152 31.4743 30.3161 31.8506 30.1462 32.1448C30.0592 32.2956 29.9592 32.4426 29.8479 32.585L30.9791 34.5442C31.1578 34.519 31.3351 34.506 31.5089 34.506H31.5093C31.8491 34.506 32.1246 34.7814 32.1245 35.1213C32.1245 35.4611 31.849 35.7364 31.5092 35.7364C31.5092 35.7364 31.509 35.7364 31.5089 35.7364C30.3789 35.7364 28.9471 36.5631 28.3823 37.5417C28.2684 37.7391 28.0615 37.8495 27.8489 37.8495ZM27.7053 34.182L28.5246 35.6013C28.9016 35.3158 29.3217 35.0732 29.7575 34.8895L28.9381 33.4702C28.5612 33.7557 28.1411 33.9983 27.7053 34.182ZM13.1144 37.6264C12.7055 37.6264 12.2852 37.5201 11.8987 37.2968C11.3718 36.9927 10.9828 36.5168 10.8034 35.9569C10.6171 35.3757 10.6767 34.7747 10.9711 34.2647C11.3493 33.6096 11.9934 33.2414 12.511 32.9457C12.8437 32.7556 13.1877 32.5589 13.2968 32.3698C13.3932 32.2029 13.3572 32.1297 13.3454 32.1058C13.2994 32.0123 13.1451 31.9035 12.939 31.8761C12.6022 31.8314 12.3653 31.5221 12.4101 31.1852C12.4548 30.8485 12.7642 30.6106 13.1008 30.6564C13.6963 30.7354 14.213 31.0824 14.4492 31.5621C14.6673 32.005 14.6365 32.5104 14.3624 32.9851C14.087 33.4621 13.5962 33.7426 13.1215 34.014C12.6726 34.2705 12.2486 34.5128 12.0367 34.8799C11.9179 35.0857 11.8961 35.3348 11.9751 35.5815C12.061 35.8496 12.2523 36.0802 12.5138 36.2313C13.0337 36.5315 13.6657 36.4137 13.9226 35.9688C14.1397 35.5928 14.323 34.9346 14.3753 34.7126C14.4199 34.5233 14.5514 34.3661 14.7301 34.289C14.9087 34.2119 15.1133 34.2237 15.2817 34.321L15.7121 34.5694C16.0063 34.7392 16.1072 35.1155 15.9373 35.4098C15.8162 35.6196 15.5896 35.7311 15.3637 35.7162C15.2672 36.0007 15.1402 36.3207 14.9883 36.584C14.6001 37.2562 13.8771 37.6264 13.1144 37.6264ZM19.9271 37.2226C19.2016 37.2226 18.6095 36.7895 18.4185 36.1191C18.2163 35.409 18.529 34.6539 19.1966 34.24C20.3305 33.537 22.1071 33.537 23.2412 34.24C23.5301 34.4191 23.6191 34.7983 23.44 35.0871C23.261 35.3759 22.8818 35.4648 22.5929 35.2859C21.8481 34.8242 20.5896 34.8242 19.8449 35.2859C19.6041 35.4351 19.5615 35.64 19.602 35.7821C19.6293 35.8779 19.7079 35.9922 19.9271 35.9922C20.2669 35.9922 20.5424 36.2676 20.5424 36.6075C20.5424 36.9473 20.267 37.2226 19.9271 37.2226ZM7.46533 32.4157C7.3189 32.4157 7.1737 32.3635 7.05853 32.2621C6.98601 32.1983 6.34108 31.6221 6.01721 31.0611C5.49221 30.1518 5.70992 29.1953 6.05314 28.3684L4.73317 28.2866C4.39405 28.2656 4.13614 27.9737 4.15714 27.6345C4.17814 27.2953 4.47017 27.0378 4.80929 27.0586L6.6245 27.1711L7.43465 25.5427C7.58599 25.2385 7.9553 25.1144 8.25956 25.2659C8.56373 25.4173 8.68769 25.7867 8.53634 26.0909L7.95776 27.2537L9.25403 27.334C9.59315 27.355 9.85106 27.6469 9.83006 27.986C9.80898 28.3252 9.51728 28.5818 9.17791 28.562L7.36705 28.4499C6.93089 29.3775 6.79316 29.9442 7.08281 30.4459C7.19093 30.6331 7.38518 30.8555 7.55901 31.0358L10.1388 29.5465C10.4331 29.3767 10.8094 29.4773 10.9793 29.7716C11.1491 30.0659 11.0483 30.4422 10.7541 30.6121L7.77286 32.3332C7.67697 32.3886 7.5709 32.4157 7.46533 32.4157ZM21 32.3008C14.8484 32.3008 9.84368 27.2961 9.84368 21.1445C9.84368 20.8046 10.1191 20.5293 10.4589 20.5293C10.7987 20.5293 11.0742 20.8046 11.0742 21.1445C11.0742 26.6177 15.5269 31.0704 21 31.0704C26.4732 31.0704 30.9259 26.6177 30.9259 21.1445C30.9259 15.6713 26.4732 11.2186 21 11.2186C18.7236 11.2186 16.5825 11.9681 14.8083 13.3861C13.0855 14.7629 11.8559 16.6951 11.3462 18.8266C11.2672 19.157 10.935 19.3609 10.6047 19.2819C10.2743 19.2029 10.0704 18.8709 10.1494 18.5405C10.7226 16.1437 12.1044 13.9719 14.0401 12.4248C16.0063 10.8535 18.478 9.98813 21 9.98813C27.1517 9.98813 32.1564 14.9929 32.1564 21.1445C32.1564 27.2961 27.1516 32.3008 21 32.3008ZM35.7471 32.1939C35.6427 32.1939 35.5369 32.1673 35.44 32.1114C34.8727 31.7838 34.4996 31.2473 34.3615 30.6547C33.7792 30.8314 33.1281 30.7766 32.5608 30.449C31.4732 29.8211 31.0993 28.4254 31.7271 27.3377C32.355 26.2501 33.7506 25.8761 34.8383 26.5041C35.3652 26.8083 35.7421 27.2994 35.8995 27.887C35.906 27.9111 35.912 27.9352 35.9176 27.9593C35.9414 27.9522 35.9653 27.9454 35.9893 27.9389C36.5769 27.7815 37.1907 27.8622 37.7176 28.1664C38.0118 28.3362 38.1127 28.7125 37.9428 29.0068C37.7728 29.3011 37.3964 29.4017 37.1024 29.2319C36.8601 29.0921 36.5779 29.0549 36.3079 29.1274C36.0377 29.1998 35.8119 29.373 35.672 29.6153C35.3834 30.1153 35.5553 30.7569 36.0553 31.0457C36.3495 31.2156 36.4504 31.5918 36.2805 31.8861C36.1665 32.0836 35.9596 32.1939 35.7471 32.1939ZM33.7013 27.4298C33.3391 27.4298 32.9865 27.6176 32.7927 27.9531C32.504 28.4531 32.676 29.0947 33.176 29.3835C33.6759 29.6721 34.3176 29.5001 34.6064 29.0002C34.7462 28.758 34.7833 28.4758 34.711 28.2056C34.6386 27.9354 34.4653 27.7097 34.2231 27.5698C34.0586 27.4749 33.8788 27.4298 33.7013 27.4298ZM21 29.8399C20.6603 29.8399 20.3848 29.5645 20.3848 29.2246V26.5916C19.8308 26.5294 19.3014 26.3844 18.8095 26.169L17.4928 28.4498C17.3229 28.744 16.9466 28.8446 16.6523 28.675C16.3581 28.5051 16.2573 28.1288 16.4272 27.8345L17.7448 25.5522C17.3061 25.2273 16.9173 24.8385 16.5925 24.3997L14.3101 25.7174C14.0159 25.8871 13.6395 25.7865 13.4697 25.4922C13.2998 25.1979 13.4006 24.8217 13.6948 24.6518L15.9756 23.335C15.7602 22.8431 15.6152 22.3138 15.553 21.7597H12.9199C12.5801 21.7597 12.3046 21.4844 12.3046 21.1445C12.3046 20.8046 12.5801 20.5293 12.9199 20.5293H15.553C15.6152 19.9752 15.7602 19.4459 15.9756 18.9541L13.6948 17.6372C13.4006 17.4673 13.2998 17.091 13.4697 16.7968C13.6395 16.5025 14.0158 16.4017 14.3101 16.5716L16.5925 17.8894C16.9173 17.4506 17.3062 17.0618 17.7449 16.7368L16.4272 14.4545C16.2574 14.1603 16.3582 13.784 16.6524 13.6141C16.9466 13.4444 17.323 13.545 17.4928 13.8393L18.8096 16.1199C19.3015 15.9047 19.8308 15.7596 20.3849 15.6975V13.0643C20.3849 12.7245 20.6603 12.4491 21.0001 12.4491C21.3399 12.4491 21.6154 12.7245 21.6154 13.0643V15.6977C22.1592 15.7591 22.6909 15.9012 23.1911 16.1192L24.5074 13.8394C24.6773 13.545 25.0535 13.4444 25.3478 13.6142C25.6421 13.7841 25.7429 14.1604 25.573 14.4546L23.9691 17.2325C23.9647 17.2403 23.9601 17.2481 23.9552 17.2558C23.7775 17.5403 23.4042 17.6302 23.1164 17.4574C23.1135 17.4557 23.1106 17.4539 23.1079 17.4521C22.4693 17.0868 21.7409 16.8937 21 16.8937C18.6561 16.8937 16.7492 18.8006 16.7492 21.1445C16.7492 23.4885 18.6561 25.3954 21 25.3954C23.3439 25.3954 25.2509 23.4885 25.2509 21.1445C25.2509 20.404 25.058 19.676 24.693 19.0376C24.6882 19.03 24.6836 19.0223 24.6792 19.0145C24.5127 18.7205 24.614 18.3475 24.9065 18.1787L27.69 16.5716C27.9842 16.4018 28.3605 16.5025 28.5304 16.7968C28.7003 17.091 28.5995 17.4673 28.3052 17.6372L26.0254 18.9535C26.2434 19.4538 26.3854 19.9853 26.4467 20.5293H29.0801C29.4199 20.5293 29.6954 20.8046 29.6954 21.1445C29.6954 21.4844 29.4199 21.7597 29.0801 21.7597H26.447C26.3848 22.3138 26.2398 22.8431 26.0244 23.335L28.3052 24.6518C28.5994 24.8217 28.7002 25.1979 28.5303 25.4922C28.3604 25.7864 27.9842 25.887 27.6899 25.7174L25.4075 24.3997C25.0826 24.8385 24.6938 25.2273 24.2551 25.5522L25.5728 27.8345C25.7426 28.1288 25.6418 28.5051 25.3476 28.675C25.0533 28.8447 24.677 28.7441 24.5072 28.4498L23.1904 26.169C22.6984 26.3844 22.1692 26.5295 21.6151 26.5916V29.2246C21.6153 29.5645 21.3398 29.8399 21 29.8399ZM37.1214 24.2207C36.7816 24.2207 36.5061 23.9453 36.5061 23.6055C36.5061 23.2656 36.7816 22.9902 37.1214 22.9902C37.4607 22.9902 37.7366 22.7143 37.7366 22.375C37.7366 22.0357 37.4607 21.7597 37.1214 21.7597H34.8319C34.4921 21.7597 34.2166 21.4844 34.2166 21.1445C34.2166 20.8046 34.4921 20.5293 34.8319 20.5293H37.1214C37.4607 20.5293 37.7366 20.2533 37.7366 19.914C37.7366 19.5747 37.4607 19.2988 37.1214 19.2988C36.7816 19.2988 36.5061 19.0234 36.5061 18.6835C36.5061 18.3437 36.7816 18.0683 37.1214 18.0683C38.1392 18.0683 38.9671 18.8963 38.9671 19.914C38.9671 20.3863 38.7888 20.8178 38.496 21.1445C38.7888 21.4712 38.9671 21.9027 38.9671 22.375C38.9671 23.3927 38.1392 24.2207 37.1214 24.2207ZM7.25984 24.2207C6.92006 24.2207 6.6446 23.9453 6.6446 23.6055V18.5147C6.6446 18.1748 6.92006 17.8995 7.25984 17.8995C7.59961 17.8995 7.87508 18.1748 7.87508 18.5147V23.6055C7.87508 23.9453 7.59961 24.2207 7.25984 24.2207ZM4.79887 24.2207C4.4591 24.2207 4.18363 23.9453 4.18363 23.6055V22.8848C3.46749 22.6308 2.95315 21.9466 2.95315 21.1445C2.95315 20.3424 3.46749 19.6582 4.18363 19.4042V18.6835C4.18363 18.3437 4.4591 18.0683 4.79887 18.0683C5.13865 18.0683 5.41411 18.3437 5.41411 18.6835V19.914C5.41411 20.2539 5.13865 20.5293 4.79887 20.5293C4.45959 20.5293 4.18363 20.8052 4.18363 21.1445C4.18363 21.4838 4.45959 21.7597 4.79887 21.7597C5.13865 21.7597 5.41411 22.0351 5.41411 22.375V23.6055C5.41411 23.9453 5.13865 24.2207 4.79887 24.2207ZM7.98492 17.0876C7.88057 17.0876 7.77475 17.061 7.67787 17.0051L4.69666 15.2839C4.46796 15.1519 4.34901 14.8886 4.4011 14.6297C4.42013 14.535 4.59658 13.6884 4.92053 13.1273C5.37507 12.3402 6.01049 12.2373 6.46404 12.2895C6.95878 12.3465 7.45286 12.6126 7.9165 12.8803L8.88907 13.4419C8.97472 13.4913 9.05035 13.5071 9.11417 13.4889C9.17044 13.4729 9.22155 13.429 9.25822 13.3654C9.36954 13.1725 9.32253 12.9536 9.11835 12.7147L7.19995 10.4697C6.97929 10.2113 7.00972 9.823 7.26804 9.60225C7.52636 9.38159 7.91462 9.41202 8.13545 9.67034L10.0538 11.9153C10.6003 12.5549 10.7012 13.3269 10.3239 13.9805C10.1269 14.3219 9.81751 14.5674 9.45288 14.6718C9.06733 14.7822 8.64864 14.7238 8.27392 14.5075L7.30126 13.9459C6.94007 13.7374 6.57159 13.5404 6.32311 13.5118C6.22492 13.5004 6.13214 13.4898 5.98621 13.7426C5.87817 13.9298 5.7826 14.2093 5.71329 14.45L8.29311 15.9395C8.58736 16.1094 8.68818 16.4856 8.51829 16.7799C8.40435 16.9773 8.19754 17.0876 7.98492 17.0876ZM33.4685 16.8145C33.4069 16.8145 33.3442 16.8052 33.2824 16.7856C32.9584 16.6828 32.7792 16.3369 32.8819 16.0131C33.112 15.2875 33.5618 14.6669 34.138 14.205L33.5788 13.2364C32.8907 13.5044 32.1283 13.5837 31.3849 13.4202C31.0531 13.3472 30.8431 13.019 30.9162 12.6871C30.9892 12.3553 31.3177 12.1458 31.6492 12.2183C32.089 12.3152 32.5388 12.2872 32.9566 12.1586L32.6279 11.5893C32.458 11.2951 32.5588 10.9188 32.8531 10.7489C33.1473 10.5791 33.5236 10.6798 33.6935 10.9741L34.0222 11.5434C34.3425 11.2458 34.5914 10.8703 34.7276 10.441C34.8303 10.1171 35.1761 9.93776 35.5001 10.0406C35.824 10.1433 36.0033 10.4892 35.9005 10.813C35.6704 11.5386 35.2206 12.1592 34.6444 12.6211L35.2036 13.5897C35.8917 13.3215 36.6541 13.2423 37.3975 13.4058C37.7293 13.4788 37.9392 13.8071 37.8662 14.139C37.7932 14.4708 37.4649 14.6807 37.1332 14.6077C36.6933 14.5108 36.2436 14.5389 35.8258 14.6674L36.1545 15.2367C36.3244 15.531 36.2235 15.9072 35.9293 16.0771C35.635 16.2468 35.2588 16.1463 35.0889 15.8519L34.7602 15.2827C34.4398 15.5803 34.191 15.9557 34.0548 16.3851C33.9717 16.6471 33.7294 16.8145 33.4685 16.8145ZM12.49 11.2761C12.4372 11.2761 12.3836 11.2693 12.3303 11.255C12.0021 11.167 11.8074 10.8296 11.8952 10.5014L12.3764 8.70572L12.3251 8.69194C11.9969 8.60409 11.8021 8.26661 11.89 7.9384C11.9779 7.61019 12.3154 7.41503 12.6435 7.50338L12.695 7.51716L13.069 6.12122L12.7641 6.29726C12.4699 6.46707 12.0936 6.36633 11.9237 6.07209C11.7538 5.77784 11.8546 5.40156 12.1489 5.23167L13.74 4.31299C14.0241 4.14204 14.4196 4.24777 14.5805 4.53817L15.4991 6.12934C15.669 6.42359 15.5682 6.79987 15.274 6.96976C14.9797 7.13949 14.6034 7.03883 14.4335 6.74458L14.2575 6.43967L13.8834 7.83561L13.9348 7.84939C14.263 7.93725 14.4577 8.27473 14.3699 8.60294C14.2819 8.93115 13.9445 9.12638 13.6163 9.03795L13.5649 9.02417L13.0838 10.8199C13.0102 11.0948 12.7616 11.2761 12.49 11.2761ZM28.9766 10.4046C28.7439 10.4046 28.5294 10.2728 28.4253 10.062L27.9516 9.10407L26.8851 9.17282C26.6373 9.1893 26.4041 9.0542 26.294 8.83156L25.6385 7.50592C25.4879 7.20134 25.6128 6.83236 25.9174 6.68175C26.222 6.53122 26.591 6.65607 26.7415 6.96049L27.2152 7.91846L28.2817 7.84972C28.5299 7.83331 28.7627 7.96842 28.8728 8.19097L29.3465 9.14894L30.413 9.0802C30.7523 9.05772 31.0447 9.31547 31.0665 9.65459C31.0884 9.99371 30.8312 10.2862 30.4922 10.3081L29.0164 10.4033C29.003 10.4042 28.9898 10.4046 28.9766 10.4046ZM22.4276 8.7579C22.0634 8.7579 21.718 8.64133 21.4287 8.42091C21.1585 8.21484 21.1064 7.8288 21.3124 7.55859C21.5184 7.28846 21.9045 7.23628 22.1747 7.44227C22.2257 7.48115 22.3109 7.52742 22.4276 7.52742C22.6582 7.52742 22.8457 7.33989 22.8457 7.1093C22.8457 6.89954 22.775 6.37987 22.3334 5.18565H21.3785L20.3186 7.28468C20.214 7.4919 20.0015 7.62257 19.7694 7.62257C19.5372 7.62257 19.3249 7.4919 19.2202 7.28468L17.9897 4.84776C17.8366 4.5444 17.9583 4.17436 18.2616 4.0212C18.5649 3.86829 18.9349 3.98987 19.088 4.29306L19.7693 5.64232L20.4506 4.29306C20.5552 4.08584 20.7676 3.95517 20.9998 3.95517H22.4413L22.9605 3.23017C23.1583 2.95397 23.5426 2.89031 23.8189 3.08817C24.0952 3.28595 24.1588 3.67035 23.9609 3.94655L23.4503 4.65958C23.871 5.78095 24.0759 6.58421 24.0759 7.1093C24.0762 8.0183 23.3366 8.7579 22.4276 8.7579ZM30.2071 8.27342C29.9743 8.27342 29.7599 8.14159 29.6557 7.93085L29.1821 6.97288L28.1156 7.04162C27.8678 7.05893 27.6345 6.923 27.5245 6.70037L26.869 5.37473C26.7184 5.07015 26.8433 4.70108 27.1478 4.55055C27.4525 4.39994 27.8214 4.52488 27.972 4.8293L28.4457 5.78727L29.5122 5.71853C29.7604 5.70294 29.9932 5.83715 30.1033 6.05978L30.577 7.01775L31.6434 6.94901C31.9824 6.92653 32.2751 7.18428 32.297 7.5234C32.3189 7.86243 32.0617 8.15504 31.7227 8.17695L30.2469 8.2721C30.2335 8.27301 30.2203 8.27342 30.2071 8.27342Z" fill="#9E1256"/>
</g>
</g>
<defs>
<clipPath id="clip0_345_9882">
<rect width="42" height="42" fill="white" transform="translate(0 0.144531)"/>
</clipPath>
</defs>
</svg>
