<svg width="42" height="42" viewBox="0 0 42 42" fill="none" xmlns="http://www.w3.org/2000/svg">
<g id="fi_2442780" clip-path="url(#clip0_345_9890)">
<g id="Group">
<g id="Group_2">
<g id="Group_3">
<path id="Vector" d="M35.5245 15.5602L38.4312 14.2652C40.7293 13.2974 40.9188 9.98096 38.7247 8.77625C37.8535 8.29784 36.8324 8.27061 35.9567 8.6797C35.0416 6.27577 31.5911 6.06774 30.3984 8.3496C29.9708 9.16795 29.9321 10.1214 30.2918 10.967L31.3852 13.6914C30.1896 13.3678 28.9329 13.1941 27.6364 13.1941C27.3372 13.1941 27.0357 13.2046 26.7345 13.2233C24.1489 8.84745 19.4578 6.15092 14.3637 6.15092C12.801 6.15092 11.2453 6.41022 9.77066 6.90758L10.7188 4.18332C11.2038 2.87787 10.7187 1.3639 9.56353 0.587889C8.55438 -0.0900994 7.21629 -0.103224 6.19434 0.555733C5.61192 0.931272 5.16904 1.50385 4.95338 2.16256C4.67398 2.04763 4.38244 1.97594 4.0877 1.94747C3.43916 1.88472 2.77553 2.03156 2.19294 2.38806C1.17657 3.0097 0.632871 4.1729 0.758297 5.32355C0.882328 6.46436 1.66614 7.46227 2.74231 7.85742L5.74522 9.03071C2.15824 11.7239 0 15.9567 0 20.5146C0 28.4347 6.44356 34.8783 14.3637 34.8783C14.6632 34.8783 14.9648 34.8678 15.2657 34.8491C17.8515 39.2244 22.5425 41.9206 27.6364 41.9206C35.5565 41.9206 42.0001 35.4775 42.0001 27.5578C42 22.549 39.4223 18.1316 35.5245 15.5602ZM31.8524 9.10946C32.4562 7.95405 34.2365 8.22418 34.4901 9.49624C34.574 9.91763 34.8581 10.264 35.2502 10.423C35.6421 10.5817 36.0871 10.5309 36.4408 10.2869C36.8853 9.98014 37.4578 9.95217 37.9352 10.2143C38.9922 10.7948 38.8116 12.2922 37.7718 12.7629L33.9025 14.4869C33.7724 14.5448 33.658 14.5149 33.6013 14.492C33.5446 14.4691 33.4417 14.4108 33.3886 14.2787L31.8111 10.3476C31.8087 10.3415 31.8061 10.3354 31.8035 10.3293C31.6348 9.9365 31.6526 9.49189 31.8524 9.10946ZM3.33121 6.32606C2.48645 5.99695 2.09869 4.97689 2.62032 4.19931C2.84919 3.85601 3.23261 3.62912 3.64194 3.58408C4.06457 3.53757 4.35504 3.7269 4.72402 3.88308C5.47485 4.20219 6.33527 3.7132 6.4566 2.9097C6.53609 2.38142 6.91934 1.93591 7.42654 1.77127C8.04956 1.56841 8.74199 1.83312 9.07298 2.4007C9.29619 2.78288 9.31588 3.22265 9.17224 3.63502L7.77993 7.63544C7.70913 7.8383 7.47616 7.94535 7.27634 7.86742L3.33121 6.32606ZM1.64063 20.5146C1.64063 15.8494 4.1927 11.5666 8.30304 9.32996C10.2334 8.39447 12.197 7.79155 14.3637 7.79155C18.6342 7.79155 22.5858 9.93174 24.9391 13.4483C24.3456 13.5617 23.757 13.7134 23.1827 13.9012C21.1032 11.1288 17.8525 9.49205 14.3637 9.49205C8.28532 9.49205 3.34031 14.4367 3.34031 20.5146C3.34031 26.5925 8.28532 31.5371 14.3637 31.5371C20.3583 31.5371 25.3862 26.52 25.3862 20.5146C25.3862 19.8413 25.3252 19.172 25.2048 18.5161C25.8209 18.3584 26.3619 18.2596 26.8768 18.2113C27.0156 18.9676 27.0859 19.7396 27.0859 20.5147C27.0859 22.1046 26.795 23.656 26.2214 25.1257C26.0567 25.5478 26.2652 26.0235 26.6873 26.1882C27.1094 26.3531 27.585 26.1443 27.7497 25.7223C28.3978 24.0617 28.7265 22.3096 28.7265 20.5148C28.7265 19.7437 28.6634 18.9754 28.5414 18.219C33.2921 18.6758 37.0191 22.6896 37.0191 27.558C37.0191 32.7312 32.81 36.9399 27.6364 36.9399C24.8197 36.9399 22.1858 35.6854 20.4112 33.542C21.3957 33.0834 22.3264 32.5134 23.1885 31.8402C23.5457 31.5614 23.6091 31.0458 23.3303 30.6888C23.0514 30.3317 22.5359 30.2683 22.1789 30.5471C19.9569 32.2821 17.1832 33.2377 14.3637 33.2377C7.34811 33.2376 1.64063 27.5301 1.64063 20.5146ZM13.2736 27.5578C13.2736 28.3281 13.3366 29.0962 13.4584 29.8526C8.70795 29.3957 4.98094 25.3824 4.98094 20.5146C4.98094 15.3414 9.19004 11.1327 14.3637 11.1327C17.1803 11.1327 19.8139 12.387 21.5885 14.5302C19.3104 15.5889 17.3551 17.2219 15.8905 19.2992C14.1785 21.7277 13.2736 24.5834 13.2736 27.5578ZM18.2544 27.5578C18.2544 23.9058 20.3818 20.6057 23.6343 19.0702C23.7078 19.5456 23.7455 20.0286 23.7455 20.5146C23.7455 24.1667 21.618 27.4665 18.3654 29.0013C18.2922 28.5259 18.2544 28.0433 18.2544 27.5578ZM27.6363 40.28C23.3659 40.28 19.4144 38.1402 17.061 34.6241C17.6545 34.5106 18.243 34.3589 18.8173 34.1712C20.8968 36.9436 24.1475 38.5803 27.6363 38.5803C33.7147 38.5803 38.6597 33.6357 38.6597 27.5578C38.6597 21.4795 33.7147 16.5344 27.6363 16.5344C21.6278 16.5344 16.6138 21.5538 16.6138 27.5578C16.6138 28.2379 16.6757 28.9143 16.7985 29.577C16.2497 29.7241 15.6899 29.8195 15.1235 29.8646C14.9845 29.1069 14.9142 28.3336 14.9142 27.5578C14.9142 20.6285 20.7107 14.8347 27.6364 14.8347C34.6519 14.8347 40.3595 20.5423 40.3595 27.5578C40.3594 34.5729 34.6519 40.28 27.6363 40.28Z" fill="#9E1256"/>
<path id="Vector_2" d="M24.4785 28.8589C24.6504 29.2713 25.1362 29.474 25.5498 29.3027C25.9629 29.1317 26.1646 28.6441 25.9936 28.2314C25.8227 27.8187 25.3349 27.6163 24.9222 27.7876C24.5081 27.9595 24.3089 28.445 24.4785 28.8589Z" fill="#9E1256"/>
</g>
</g>
</g>
</g>
<defs>
<clipPath id="clip0_345_9890">
<rect width="42" height="42" fill="white"/>
</clipPath>
</defs>
</svg>
