<svg width="42" height="43" viewBox="0 0 42 43" fill="none" xmlns="http://www.w3.org/2000/svg">
<g id="fi_2859733" clip-path="url(#clip0_345_9901)">
<g id="XMLID_1348_">
<g id="XMLID_1737_">
<g id="XMLID_1738_">
<path id="XMLID_919_" d="M35.2655 7.70673C35.0498 7.70673 34.8382 7.61898 34.6856 7.46643C34.5331 7.31387 34.4453 7.10227 34.4453 6.88657C34.4453 6.67087 34.5331 6.45926 34.6856 6.30671C34.8382 6.15425 35.0498 6.06641 35.2655 6.06641C35.4812 6.06641 35.6928 6.15416 35.8453 6.30671C35.9979 6.45926 36.0856 6.67087 36.0856 6.88657C36.0856 7.10309 35.9979 7.31387 35.8453 7.46643C35.6928 7.61898 35.4812 7.70673 35.2655 7.70673Z" fill="#9E1256"/>
</g>
</g>
<g id="XMLID_1551_">
<path id="XMLID_918_" d="M20.9994 42.1444C16.6446 42.1445 12.3889 40.7948 8.84301 38.2732L3.42369 39.7253C3.14057 39.801 2.83867 39.7202 2.63142 39.513C2.42424 39.3058 2.34329 39.0038 2.41916 38.7208L3.87126 33.3015C1.06646 29.3573 -0.288447 24.5344 0.0513467 19.6745C0.404099 14.6306 2.56966 9.88148 6.14918 6.30188C13.3145 -0.863318 24.5617 -1.8973 32.8927 3.84344C33.2656 4.10048 33.3597 4.61111 33.1026 4.98412C32.8457 5.35729 32.3349 5.4512 31.9619 5.19416C24.2828 -0.0975306 13.9148 0.856155 7.30922 7.46175C0.582894 14.1881 -0.227673 25.0159 5.42383 32.6481C5.57261 32.849 5.62165 33.107 5.55694 33.3484L4.37131 37.7732L8.79601 36.5876C9.03747 36.5229 9.29541 36.5719 9.49635 36.7206C17.1288 42.3722 27.9566 41.5616 34.6828 34.8353C41.2885 28.2296 42.242 17.8614 36.9501 10.1822C36.6931 9.80914 36.787 9.29843 37.1601 9.04139C37.533 8.78443 38.0438 8.87842 38.3008 9.25135C44.0419 17.5824 43.0081 28.8299 35.8427 35.9952C32.2631 39.5748 27.514 41.7404 22.4701 42.0932C21.9794 42.1274 21.4885 42.1444 20.9994 42.1444Z" fill="#9E1256"/>
</g>
<g id="XMLID_1295_">
<g id="XMLID_2108_">
<g id="XMLID_2110_">
<path id="XMLID_915_" d="M20.862 27.5834C19.4332 27.5834 18.2763 26.4265 18.2763 25.0045C18.2763 22.2997 19.7909 19.8572 22.2292 18.6301C23.3067 18.0878 23.9671 16.957 23.9116 15.7492C23.8448 14.2954 22.4599 12.9106 21.0062 12.8437C20.1603 12.8053 19.3577 13.1036 18.7481 13.6859C18.3845 14.0331 18.1203 14.4453 17.9626 14.9107C17.6046 15.9679 16.6275 16.6854 15.5313 16.6963V16.6964C15.5226 16.6964 15.514 16.6964 15.5054 16.6964C14.6821 16.6964 13.9017 16.3011 13.4136 15.6353C12.9197 14.9616 12.7843 14.1224 13.0421 13.3328C13.4576 12.06 14.1973 10.8907 15.181 9.951C16.8206 8.38515 18.9729 7.58081 21.2435 7.68473C23.2332 7.77617 25.1458 8.64333 26.6289 10.1264C28.112 11.6095 28.9791 13.5221 29.0706 15.512C29.2197 18.7517 27.4456 21.7865 24.5508 23.2435C23.8661 23.588 23.4407 24.2629 23.4407 25.0046C23.4408 26.4265 22.284 27.5834 20.862 27.5834ZM20.8563 11.1999C20.9313 11.1999 21.0063 11.2017 21.0818 11.2052C23.3973 11.3117 25.4437 13.358 25.5501 15.6738C25.6354 17.527 24.6213 19.2626 22.9666 20.0954C21.0852 21.0421 19.9166 22.9232 19.9166 25.0044C19.9166 25.522 20.3376 25.943 20.8551 25.943C21.3794 25.943 21.8004 25.5219 21.8004 25.0044C21.8004 23.6392 22.5718 22.403 23.8135 21.7781C26.1311 20.6117 27.5514 18.1815 27.4321 15.5872C27.3594 14.0069 26.6623 12.4794 25.469 11.2863C24.2758 10.0931 22.7484 9.396 21.1682 9.32325C19.3504 9.24074 17.6264 9.88383 16.314 11.1372C15.5142 11.9011 14.938 12.8111 14.6015 13.8419C14.5097 14.123 14.559 14.4232 14.7365 14.6655C14.9188 14.9141 15.1984 15.0561 15.5049 15.0561C15.5082 15.0561 15.5109 15.0544 15.5149 15.056C15.9149 15.0521 16.2742 14.7822 16.4089 14.3845C16.6489 13.6759 17.066 13.0242 17.615 12.4997C18.4977 11.6568 19.6413 11.1999 20.8563 11.1999Z" fill="#9E1256"/>
</g>
</g>
<g id="XMLID_2161_">
<path id="XMLID_912_" d="M20.8596 34.6371C19.4357 34.6371 18.2773 33.4787 18.2773 32.0549C18.2773 30.6311 19.4357 29.4727 20.8596 29.4727C22.2835 29.4727 23.4419 30.6311 23.4419 32.0549C23.4419 33.4787 22.2835 34.6371 20.8596 34.6371ZM20.8596 31.113C20.3402 31.113 19.9177 31.5355 19.9177 32.0549C19.9177 32.5743 20.3402 32.9968 20.8596 32.9968C21.379 32.9968 21.8016 32.5743 21.8016 32.0549C21.8016 31.5355 21.379 31.113 20.8596 31.113Z" fill="#9E1256"/>
</g>
</g>
</g>
</g>
<defs>
<clipPath id="clip0_345_9901">
<rect width="42" height="42" fill="white" transform="translate(0 0.144531)"/>
</clipPath>
</defs>
</svg>
