<svg width="44" height="45" viewBox="0 0 44 45" fill="none" xmlns="http://www.w3.org/2000/svg">
<g id="fi_1163514" clip-path="url(#clip0_345_9920)">
<g id="surface1">
<path id="Vector" d="M42.0154 7.36328H33C32.6438 7.36328 32.3555 7.65164 32.3555 8.00781C32.3555 8.36398 32.6438 8.65234 33 8.65234H42.0154C42.3991 8.65234 42.7109 8.9642 42.7109 9.3479V34.1677C42.7109 34.5514 42.3991 34.8633 42.0154 34.8633H1.98462C1.60092 34.8633 1.28906 34.5514 1.28906 34.1677V9.3479C1.28906 8.9642 1.60092 8.65234 1.98462 8.65234H16.1455V9.94141H3.22266C2.86649 9.94141 2.57812 10.2298 2.57812 10.5859V27.616C2.57812 27.9718 2.86649 28.2605 3.22266 28.2605C3.57883 28.2605 3.86719 27.9718 3.86719 27.616V11.2305H16.1455V14.6881L13.3861 16.0064C13.1659 16.1118 13.0195 16.3394 13.0195 16.5881V27.0994C13.0195 27.3478 13.1622 27.574 13.3861 27.6811L21.722 31.6638C21.9026 31.7487 22.1064 31.7444 22.278 31.6638L26.9642 29.4247C27.2855 29.2713 27.4214 28.8863 27.268 28.5653C27.1146 28.2441 26.7292 28.1081 26.4083 28.2615L22.6445 30.0598V20.977L29.6914 17.6103V26.6932L28.734 27.1504C28.4128 27.3038 28.2768 27.6888 28.4302 28.0098C28.5836 28.331 28.9687 28.467 29.2896 28.3136L30.6139 27.6811C30.8378 27.574 30.9805 27.3478 30.9805 27.0994V16.5881C30.9805 16.3424 30.8375 16.1135 30.6139 16.0064L27.8545 14.6881V11.2305H40.1328V32.2852H3.86719V30.366C3.86719 30.0098 3.57883 29.7215 3.22266 29.7215C2.86649 29.7215 2.57812 30.0098 2.57812 30.366V32.9297C2.57812 33.2859 2.86649 33.5742 3.22266 33.5742H40.7773C41.1335 33.5742 41.4219 33.2859 41.4219 32.9297V10.5859C41.4219 10.2298 41.1335 9.94141 40.7773 9.94141H27.8545V8.65234H30.25C30.6062 8.65234 30.8945 8.36398 30.8945 8.00781C30.8945 7.65164 30.6062 7.36328 30.25 7.36328H27.8545V6.07422H33.6338C33.99 6.07422 34.2783 5.78586 34.2783 5.42969V3.90094C35.0286 3.63474 35.5674 2.91837 35.5674 2.07812C35.5674 1.01196 34.7 0.144531 33.6338 0.144531C32.5676 0.144531 31.7002 1.01196 31.7002 2.07812C31.7002 2.91837 32.239 3.63474 32.9893 3.90094V4.78516H27.21C26.8538 4.78516 26.5654 5.07352 26.5654 5.42969V7.36328H22.6445V3.90094C23.3948 3.63474 23.9336 2.91837 23.9336 2.07812C23.9336 1.01196 23.0662 0.144531 22 0.144531C20.9338 0.144531 20.0664 1.01196 20.0664 2.07812C20.0664 2.91837 20.6052 3.63474 21.3555 3.90094V7.36328H17.4346V5.42969C17.4346 5.07352 17.1462 4.78516 16.79 4.78516H11.0107V3.90094C11.761 3.63474 12.2998 2.91837 12.2998 2.07812C12.2998 1.01196 11.4324 0.144531 10.3662 0.144531C9.30005 0.144531 8.43262 1.01196 8.43262 2.07812C8.43262 2.91837 8.97141 3.63474 9.72168 3.90094V5.42969C9.72168 5.78586 10.01 6.07422 10.3662 6.07422H16.1455V7.36328H1.98462C0.890259 7.36328 0 8.25354 0 9.3479V34.1677C0 35.2621 0.890259 36.1523 1.98462 36.1523H15.9582C15.7088 38.5166 14.1454 39.8973 13.6526 40.2773H10.9141C9.8479 40.2773 8.98047 41.1448 8.98047 42.2109C8.98047 43.2771 9.8479 44.1445 10.9141 44.1445H33.0859C34.1521 44.1445 35.0195 43.2771 35.0195 42.2109C35.0195 41.1448 34.1521 40.2773 33.0859 40.2773H30.349C29.8626 39.8987 28.2939 38.5056 28.0425 36.1523H42.0154C43.1097 36.1523 44 35.2621 44 34.1677V9.3479C44 8.25354 43.1097 7.36328 42.0154 7.36328ZM33.6338 1.43359C33.9893 1.43359 34.2783 1.72263 34.2783 2.07812C34.2783 2.43362 33.9893 2.72266 33.6338 2.72266C33.2783 2.72266 32.9893 2.43362 32.9893 2.07812C32.9893 1.72263 33.2783 1.43359 33.6338 1.43359ZM22 1.43359C22.3555 1.43359 22.6445 1.72263 22.6445 2.07812C22.6445 2.43362 22.3555 2.72266 22 2.72266C21.6445 2.72266 21.3555 2.43362 21.3555 2.07812C21.3555 1.72263 21.6445 1.43359 22 1.43359ZM10.3662 1.43359C10.7217 1.43359 11.0107 1.72263 11.0107 2.07812C11.0107 2.43362 10.7217 2.72266 10.3662 2.72266C10.0107 2.72266 9.72168 2.43362 9.72168 2.07812C9.72168 1.72263 10.0107 1.43359 10.3662 1.43359ZM17.4346 11.2305H21.3555V12.1989L17.4346 14.0724V11.2305ZM28.8408 16.5881L22 19.8561L15.1592 16.5881L22 13.3198L28.8408 16.5881ZM14.3086 17.6103L21.3555 20.977V30.0598L14.3086 26.6932V17.6103ZM26.5654 14.0724L22.6445 12.1989V11.2305H26.5654V14.0724ZM26.5654 8.65234V9.94141H22.6445V8.65234H26.5654ZM21.3555 8.65234V9.94141H17.4346V8.65234H21.3555ZM33.7305 42.2109C33.7305 42.5664 33.4414 42.8555 33.0859 42.8555H10.9141C10.5586 42.8555 10.2695 42.5664 10.2695 42.2109C10.2695 41.8554 10.5586 41.5664 10.9141 41.5664H33.0859C33.4414 41.5664 33.7305 41.8554 33.7305 42.2109ZM28.5004 40.2773H15.4996C16.2553 39.3948 17.0935 38.0195 17.2543 36.1523H26.7457C26.9065 38.0195 27.7447 39.3948 28.5004 40.2773Z" fill="#9E1256"/>
</g>
</g>
<defs>
<clipPath id="clip0_345_9920">
<rect width="44" height="44" fill="white" transform="translate(0 0.144531)"/>
</clipPath>
</defs>
</svg>
