<svg width="42" height="43" viewBox="0 0 42 43" fill="none" xmlns="http://www.w3.org/2000/svg">
<g id="fi_9523830">
<path id="Vector" d="M20.2156 18.0215H21.4528V21.9231C21.4528 22.191 21.6156 22.4319 21.864 22.5319C21.9435 22.564 22.0265 22.5794 22.1089 22.5794C22.2842 22.5794 22.4561 22.5092 22.5823 22.3778L26.7671 18.0215H36.6041C38.1997 18.0215 39.4979 16.7233 39.4979 15.1277V3.91327C39.4979 2.31768 38.1997 1.01953 36.6041 1.01953H20.2156C18.6199 1.01953 17.3218 2.31768 17.3218 3.91327V15.1277C17.3218 16.7233 18.6199 18.0215 20.2156 18.0215ZM18.6343 3.91327C18.6343 3.04136 19.3436 2.33203 20.2156 2.33203H36.6041C37.4761 2.33203 38.1854 3.04136 38.1854 3.91327V15.1277C38.1854 15.9996 37.4761 16.709 36.6041 16.709H26.4876C26.3089 16.709 26.138 16.7818 26.0142 16.9106L22.7653 20.2928V17.3652C22.7653 17.0028 22.4715 16.709 22.1091 16.709H20.2156C19.3436 16.709 18.6343 15.9997 18.6343 15.1277V3.91327ZM19.5875 7.34266L21.7636 7.92074V12.018C21.7636 12.3349 21.9901 12.6066 22.3018 12.6636C23.2813 12.8427 24.0893 12.9989 24.7386 13.1244C26.4434 13.454 27.312 13.6188 28.1805 13.6188C29.0491 13.6188 29.9176 13.454 31.6225 13.1244C32.2718 12.9989 33.0798 12.8427 34.0592 12.6636C34.2298 12.6324 34.3745 12.5367 34.4708 12.4047V14.5704C34.4708 14.8191 34.6114 15.0464 34.834 15.1575C34.9268 15.2038 35.0271 15.2266 35.127 15.2266C35.2667 15.2266 35.4056 15.1821 35.5216 15.0949L36.0955 14.6632L36.6695 15.0949C36.8684 15.2444 37.1346 15.2686 37.357 15.1575C37.5796 15.0465 37.7202 14.8191 37.7202 14.5704V11.6167C37.7202 11.3823 37.5951 11.1656 37.3921 11.0484L36.7517 10.6788V7.34849L36.7736 7.34266C37.0612 7.26629 37.2614 7.00601 37.2614 6.7084C37.2614 6.41079 37.0612 6.1505 36.7736 6.07413L28.3491 3.83632C28.2387 3.80704 28.1225 3.80704 28.0122 3.83632L19.5877 6.07413C19.3001 6.1505 19.0999 6.41079 19.0999 6.7084C19.0999 7.00601 19.2999 7.26629 19.5875 7.34266ZM31.3734 11.8358C28.1804 12.453 28.1806 12.453 24.9876 11.8358C24.4582 11.7334 23.8238 11.6107 23.0761 11.4717V8.26937L28.012 9.58048C28.0672 9.59516 28.1238 9.60246 28.1805 9.60246C28.2372 9.60246 28.2938 9.59516 28.349 9.58048L33.2849 8.26937V11.4718C32.5374 11.6108 31.9029 11.7335 31.3734 11.8358ZM36.4076 13.2649C36.3103 13.2122 36.2029 13.1859 36.0954 13.1859C35.9879 13.1859 35.8806 13.2122 35.7833 13.2648V11.9956L36.0954 11.8154L36.4076 11.9956V13.2649ZM35.4392 10.6788L34.799 11.0484C34.7183 11.095 34.6505 11.1578 34.5974 11.2307V7.92074L35.4392 7.69712V10.6788ZM28.1805 5.14964L34.0489 6.70848L28.1805 8.26732L22.3122 6.70848L28.1805 5.14964ZM40.6875 25.6786H36.44C35.6856 23.6082 33.6974 22.1257 31.3692 22.1257C29.0409 22.1257 27.0528 23.6082 26.2983 25.6786H19.7941C19.0486 24.0021 17.8639 22.568 16.3452 21.5128C15.4871 20.9166 14.5523 20.4647 13.5699 20.1641C15.0468 19.2005 16.0258 17.5346 16.0258 15.6435C16.0258 12.6687 13.6056 10.2485 10.6308 10.2485C7.65598 10.2485 5.23581 12.6687 5.23581 15.6435C5.23581 17.5346 6.21469 19.2004 7.69158 20.1641C6.70909 20.4647 5.77434 20.9166 4.91621 21.5128C3.39757 22.5679 2.21296 24.002 1.46738 25.6786H1.3125C0.950086 25.6786 0.65625 25.9725 0.65625 26.3349V40.6232C0.65625 40.9856 0.950086 41.2795 1.3125 41.2795H40.6875C41.0499 41.2795 41.3438 40.9856 41.3438 40.6232V26.3349C41.3438 25.9725 41.0499 25.6786 40.6875 25.6786ZM40.0312 26.9911V36.5765C39.5162 35.6952 38.8652 34.8896 38.093 34.1912C36.9928 33.1963 35.6998 32.4679 34.3074 32.0419C35.7848 31.0784 36.7642 29.4123 36.7642 27.5206C36.7642 27.342 36.755 27.1654 36.7379 26.9911H40.0312ZM31.3692 32.9157C31.3699 32.9157 31.3706 32.9156 31.3713 32.9156C35.5888 32.9166 39.145 35.9 39.9261 39.967H22.8122C23.5932 35.9 27.1495 32.9166 31.367 32.9156C31.3678 32.9156 31.3684 32.9157 31.3692 32.9157ZM31.3692 23.4381C33.6203 23.4381 35.4517 25.2694 35.4517 27.5206C35.4517 29.7711 33.6215 31.6018 31.3714 31.6031C31.3706 31.6031 31.3699 31.6031 31.3692 31.6031C31.3686 31.6031 31.3678 31.6031 31.3671 31.6031C29.117 31.6019 27.2868 29.7711 27.2868 27.5206C27.2867 25.2695 29.1181 23.4381 31.3692 23.4381ZM6.54839 15.6435C6.54839 13.3925 8.37974 11.561 10.6309 11.561C12.8819 11.561 14.7134 13.3924 14.7134 15.6435C14.7134 17.8943 12.8825 19.7254 10.6318 19.7259C10.6315 19.7259 10.6312 19.7259 10.6308 19.7259C10.6306 19.7259 10.6303 19.7259 10.63 19.7259C8.37925 19.7254 6.54839 17.8943 6.54839 15.6435ZM10.6299 21.0384H10.6308H10.6317C13.9116 21.0388 16.8398 22.8309 18.3377 25.6786H2.92384C4.42173 22.831 7.35 21.0388 10.6299 21.0384ZM1.96875 26.9911H26.0005C25.9834 27.1654 25.9742 27.342 25.9742 27.5206C25.9742 29.4122 26.9536 31.0784 28.431 32.0419C27.0385 32.468 25.7454 33.1963 24.6451 34.1913C22.9605 35.7149 21.8506 37.748 21.4792 39.967H1.96875V26.9911Z" fill="#9E1256"/>
</g>
</svg>
