<svg width="42" height="43" viewBox="0 0 42 43" fill="none" xmlns="http://www.w3.org/2000/svg">
<g id="fi_11286502">
<path id="Vector" d="M20.9998 2.80084C6.90673 2.76902 -1.99186 18.3125 5.13974 30.3945C12.2251 42.564 29.9095 42.5056 36.9156 30.2982C43.9509 18.2138 35.0395 2.7665 20.9998 2.80084ZM38.0325 20.5057H32.77C32.6827 18.8818 32.2579 17.294 31.5229 15.8434L36.0769 13.2141C37.2694 15.4664 37.9378 17.959 38.0325 20.5057ZM35.4184 12.0797L30.8693 14.7061C29.9768 13.3465 28.8148 12.1845 27.4552 11.292L30.0816 6.74297C32.2342 8.10425 34.0571 9.92715 35.4184 12.0797ZM21.6556 4.12885C24.2023 4.22349 26.6948 4.89197 28.9472 6.08442L26.3179 10.6385C24.8673 9.90339 23.2795 9.47866 21.6556 9.39137V4.12885ZM20.3441 4.12885V9.39137C18.7202 9.47866 17.1324 9.9034 15.6818 10.6385L13.0525 6.08442C15.3049 4.89197 17.7973 4.22348 20.3441 4.12885ZM11.9181 6.74296L14.5445 11.292C13.1849 12.1845 12.0229 13.3465 11.1304 14.7061L6.58138 12.0797C7.94266 9.92715 9.76556 8.10425 11.9181 6.74296ZM5.92284 13.2141L10.4769 15.8434C9.7418 17.294 9.31708 18.8818 9.22979 20.5057H3.96727C4.06191 17.959 4.73039 15.4664 5.92284 13.2141ZM3.96727 21.8172H9.22979C9.31708 23.4411 9.7418 25.0289 10.4769 26.4795L5.92284 29.1088C4.73039 26.8565 4.06191 24.364 3.96727 21.8172ZM6.58138 30.2432L11.1304 27.6168C12.0229 28.9764 13.1849 30.1384 14.5445 31.0309L11.9181 35.5799C9.76556 34.2186 7.94266 32.3957 6.58138 30.2432ZM20.3441 38.1941C17.7974 38.0994 15.3049 37.4309 13.0525 36.2385L15.6819 31.6844C17.1324 32.4195 18.7203 32.8442 20.3442 32.9315L20.3441 38.1941ZM20.9999 31.6533C18.2182 31.6501 15.5515 30.5437 13.5845 28.5768C11.6176 26.6099 10.5112 23.9431 10.5081 21.1615C11.0845 7.24265 30.9174 7.24669 31.4917 21.1615C31.4885 23.9432 30.3821 26.6099 28.4152 28.5768C26.4483 30.5437 23.7815 31.6501 20.9999 31.6533ZM21.6556 38.1941V32.9315C23.2795 32.8442 24.8673 32.4195 26.3179 31.6844L28.9472 36.2385C26.6949 37.431 24.2024 38.0994 21.6556 38.1941ZM30.0816 35.58L27.4552 31.0309C28.8148 30.1384 29.9768 28.9764 30.8693 27.6168L35.4184 30.2432C34.0571 32.3957 32.2342 34.2187 30.0816 35.58ZM36.0769 29.1088L31.5229 26.4795C32.2579 25.0289 32.6827 23.4411 32.77 21.8172H38.0325C37.9378 24.364 37.2694 26.8565 36.0769 29.1088Z" fill="#9E1256"/>
<path id="Vector_2" d="M24.9053 24.146C25.161 23.8129 25.3726 23.4483 25.5349 23.061L28.4293 23.8367C28.5962 23.8786 28.773 23.8532 28.9213 23.766C29.0697 23.6787 29.1778 23.5367 29.2224 23.3704C29.2669 23.2042 29.2443 23.0271 29.1594 22.8773C29.0745 22.7276 28.9342 22.6172 28.7686 22.5701L25.8695 21.7931C25.9225 21.3772 25.9225 20.9562 25.8695 20.5404L28.7687 19.7634C28.852 19.7412 28.9301 19.7028 28.9986 19.6505C29.0671 19.5981 29.1246 19.5327 29.1678 19.4581C29.211 19.3835 29.239 19.3011 29.2503 19.2156C29.2616 19.1301 29.2559 19.0433 29.2336 18.96C29.2113 18.8767 29.1728 18.7986 29.1203 18.7303C29.0677 18.6619 29.0022 18.6046 28.9275 18.5615C28.8528 18.5185 28.7704 18.4906 28.6849 18.4795C28.5994 18.4684 28.5125 18.4742 28.4293 18.4967L25.5349 19.2724C25.3726 18.8852 25.161 18.5205 24.9053 18.1874L27.0263 16.0662C27.1492 15.9432 27.2183 15.7764 27.2183 15.6025C27.2183 15.4286 27.1492 15.2619 27.0263 15.1389C26.9033 15.0159 26.7365 14.9469 26.5626 14.9469C26.3887 14.9469 26.2219 15.0159 26.099 15.1389L23.978 17.2601C23.6449 17.0044 23.2802 16.7927 22.8928 16.6304L23.6682 13.7355C23.7093 13.5689 23.6835 13.3927 23.5962 13.2449C23.5089 13.097 23.3671 12.9893 23.2012 12.9449C23.0354 12.9005 22.8587 12.9228 22.7092 13.0072C22.5597 13.0916 22.4492 13.2313 22.4015 13.3962L21.6249 16.2959C21.2089 16.2429 20.7879 16.2429 20.372 16.2959L19.5954 13.3961C19.5504 13.2282 19.4405 13.0849 19.2899 12.998C19.1393 12.9111 18.9603 12.8875 18.7924 12.9325C18.6244 12.9775 18.4812 13.0874 18.3942 13.238C18.3073 13.3886 18.2837 13.5676 18.3287 13.7355L19.104 16.6304C18.7167 16.7927 18.352 17.0044 18.0189 17.2601L15.8979 15.1389C15.837 15.078 15.7647 15.0297 15.6852 14.9968C15.6056 14.9638 15.5203 14.9469 15.4342 14.9469C15.3481 14.9469 15.2629 14.9638 15.1833 14.9968C15.1038 15.0297 15.0315 15.078 14.9706 15.1389C14.9097 15.1998 14.8614 15.2721 14.8285 15.3516C14.7955 15.4312 14.7785 15.5164 14.7785 15.6025C14.7785 15.6886 14.7955 15.7739 14.8285 15.8535C14.8614 15.933 14.9097 16.0053 14.9706 16.0662L17.0916 18.1874C16.8359 18.5205 16.6243 18.8852 16.4619 19.2724L13.5676 18.4967C13.4006 18.4547 13.2238 18.4801 13.0754 18.5673C12.927 18.6546 12.8188 18.7967 12.7743 18.963C12.7297 19.1292 12.7524 19.3064 12.8373 19.4561C12.9222 19.6059 13.0626 19.7162 13.2282 19.7634L16.1274 20.5404C16.0744 20.9562 16.0744 21.3772 16.1274 21.7931L13.2282 22.5701C13.0602 22.6151 12.917 22.725 12.83 22.8756C12.7431 23.0262 12.7195 23.2051 12.7645 23.3731C12.8095 23.5411 12.9194 23.6843 13.07 23.7712C13.2206 23.8582 13.3996 23.8817 13.5676 23.8367L16.4619 23.061C16.6243 23.4483 16.8359 23.8129 17.0916 24.146L14.9706 26.2673C14.8517 26.391 14.7861 26.5565 14.7878 26.7281C14.7896 26.8998 14.8585 27.0639 14.9799 27.1852C15.1013 27.3066 15.2654 27.3755 15.437 27.3773C15.6086 27.379 15.7741 27.3134 15.8979 27.1945L18.0189 25.0733C18.352 25.329 18.7167 25.5407 19.104 25.703L18.3287 28.5979C18.2837 28.7659 18.3073 28.9448 18.3942 29.0954C18.4812 29.246 18.6244 29.3559 18.7924 29.4009C18.9603 29.4459 19.1393 29.4224 19.2899 29.3354C19.4405 29.2485 19.5504 29.1053 19.5954 28.9373L20.372 26.0375C20.7876 26.0956 21.2093 26.0956 21.6249 26.0375L22.4015 28.9373C22.4465 29.1053 22.5564 29.2485 22.707 29.3354C22.8576 29.4224 23.0365 29.4459 23.2045 29.4009C23.3725 29.3559 23.5157 29.246 23.6026 29.0954C23.6896 28.9448 23.7132 28.7659 23.6681 28.5979L22.8929 25.703C23.2802 25.5407 23.6449 25.3291 23.978 25.0733L26.099 27.1945C26.222 27.3175 26.3887 27.3866 26.5626 27.3866C26.7365 27.3866 26.9033 27.3175 27.0263 27.1945C27.1493 27.0716 27.2183 26.9048 27.2183 26.7309C27.2183 26.557 27.1493 26.3902 27.0263 26.2673L24.9053 24.146ZM18.4478 23.717C15.1855 20.238 20.0723 15.3545 23.5491 18.6165C26.811 22.0941 21.9256 26.9795 18.4478 23.717Z" fill="#9E1256"/>
</g>
</svg>
