<svg width="42" height="43" viewBox="0 0 42 43" fill="none" xmlns="http://www.w3.org/2000/svg">
<g id="fi_2108860" clip-path="url(#clip0_345_9943)">
<path id="Vector" d="M33.3027 0.144531H8.69336C6.09248 0.144531 3.97656 2.26045 3.97656 4.86133V37.4277C3.97656 40.0286 6.09248 42.1445 8.69336 42.1445H19.8496C20.1894 42.1445 20.4648 41.8692 20.4648 41.5293C20.4648 41.1894 20.1894 40.9141 19.8496 40.9141H8.69336C6.77096 40.9141 5.20703 39.3501 5.20703 37.4277V4.86133C5.20703 2.93893 6.77096 1.375 8.69336 1.375H33.3027C35.2251 1.375 36.7891 2.93893 36.7891 4.86133V37.4277C36.7891 39.3501 35.2251 40.9141 33.3027 40.9141H22.1465C21.8066 40.9141 21.5312 41.1894 21.5312 41.5293C21.5312 41.8692 21.8066 42.1445 22.1465 42.1445H33.3027C35.9036 42.1445 38.0195 40.0286 38.0195 37.4277V4.86133C38.0195 2.26045 35.9036 0.144531 33.3027 0.144531Z" fill="#9E1256"/>
<path id="Vector_2" d="M18.6521 6.5474C18.2261 6.12133 17.6595 5.88672 17.057 5.88672C16.4545 5.88672 15.888 6.12133 15.4619 6.5474L11.8366 10.1728L11.1116 9.44761C10.6855 9.02162 10.119 8.78693 9.51647 8.78693C8.91395 8.78693 8.34744 9.02154 7.92137 9.44761C7.04183 10.3272 7.04183 11.7584 7.92137 12.6379L10.2416 14.9582C10.6677 15.3842 11.2342 15.6189 11.8367 15.6189C12.4392 15.6189 13.0058 15.3843 13.4318 14.9582L18.6522 9.73768C19.0783 9.31169 19.313 8.7451 19.313 8.14258C19.313 7.54006 19.0782 6.97347 18.6521 6.5474ZM17.7821 8.86757L12.5617 14.0881C12.368 14.2817 12.1105 14.3884 11.8366 14.3884C11.5627 14.3884 11.3052 14.2817 11.1116 14.0882L8.7914 11.7679C8.39158 11.3681 8.39158 10.7175 8.7914 10.3178C8.98507 10.1241 9.24257 10.0175 9.51647 10.0175C9.79037 10.0175 10.0479 10.1241 10.2415 10.3177L11.4016 11.4779C11.517 11.5933 11.6735 11.6581 11.8366 11.6581C11.9998 11.6581 12.1563 11.5933 12.2717 11.478L16.332 7.41759C16.5256 7.22399 16.7831 7.11727 17.057 7.11727C17.3309 7.11727 17.5884 7.22399 17.7821 7.41759C17.9758 7.61118 18.0824 7.86876 18.0824 8.14266C18.0824 8.41656 17.9758 8.67398 17.7821 8.86757Z" fill="#9E1256"/>
<path id="Vector_3" d="M18.1541 28.9316C18.1541 28.329 17.9195 27.7625 17.4934 27.3365C17.0673 26.9105 16.5008 26.6758 15.8983 26.6758C15.2958 26.6758 14.7293 26.9104 14.3031 27.3365L13.288 28.3516L12.2728 27.3365C11.8468 26.9105 11.2803 26.6758 10.6777 26.6758C10.0752 26.6758 9.50871 26.9104 9.08264 27.3365C8.65657 27.7625 8.42188 28.3291 8.42188 28.9316C8.42188 29.5342 8.65648 30.1008 9.08264 30.5268L10.0977 31.5419L9.08264 32.5568C8.65657 32.9829 8.42188 33.5495 8.42188 34.152C8.42188 34.7545 8.65648 35.3211 9.08264 35.7472C9.50871 36.1732 10.0752 36.4079 10.6777 36.4079C11.2803 36.4079 11.8468 36.1733 12.2728 35.7472L13.288 34.7321L14.3031 35.7472C14.7292 36.1732 15.2957 36.4079 15.8982 36.4079C16.5007 36.4079 17.0672 36.1733 17.4933 35.7472C17.9194 35.3211 18.1541 34.7545 18.1541 34.152C18.1541 33.5495 17.9195 32.9829 17.4933 32.5568L16.4782 31.5418L17.4933 30.5268C17.9195 30.1008 18.1541 29.5342 18.1541 28.9316ZM16.6234 29.6567L15.1732 31.1068C15.0578 31.2222 14.993 31.3786 14.993 31.5419C14.993 31.7051 15.0578 31.8615 15.1732 31.977L16.6234 33.4271C16.817 33.6207 16.9237 33.8783 16.9237 34.1522C16.9237 34.4261 16.817 34.6837 16.6234 34.8773C16.4297 35.0709 16.1722 35.1776 15.8983 35.1776C15.6244 35.1776 15.3669 35.0709 15.1732 34.8773L13.7231 33.4271C13.6077 33.3118 13.4512 33.247 13.2881 33.247C13.1249 33.247 12.9684 33.3118 12.853 33.4271L11.403 34.8773C11.2093 35.0709 10.9518 35.1776 10.6779 35.1776C10.404 35.1776 10.1465 35.0709 9.95282 34.8773C9.75915 34.6837 9.65251 34.4261 9.65251 34.1522C9.65251 33.8783 9.75915 33.6207 9.95282 33.4271L11.403 31.9771C11.5184 31.8616 11.5832 31.7052 11.5832 31.542C11.5832 31.3787 11.5184 31.2224 11.403 31.1069L9.95282 29.6567C9.75915 29.4631 9.65251 29.2055 9.65251 28.9316C9.65251 28.6577 9.75915 28.4002 9.95282 28.2066C10.1465 28.013 10.404 27.9062 10.6779 27.9062C10.9518 27.9062 11.2093 28.013 11.403 28.2066L12.8531 29.6567C13.0934 29.8969 13.483 29.8969 13.7231 29.6567L15.1733 28.2066C15.367 28.0129 15.6245 27.9062 15.8984 27.9062C16.1723 27.9062 16.4298 28.0129 16.6234 28.2066C16.817 28.4002 16.9237 28.6577 16.9237 28.9316C16.9237 29.2055 16.817 29.4631 16.6234 29.6567Z" fill="#9E1256"/>
<path id="Vector_4" d="M18.6521 16.938C18.2261 16.512 17.6595 16.2773 17.057 16.2773C16.4545 16.2773 15.888 16.512 15.4619 16.938L11.8366 20.5633L11.1116 19.8382C10.6855 19.4123 10.119 19.1775 9.51647 19.1775C8.91395 19.1775 8.34744 19.4122 7.92137 19.8382C7.04183 20.7179 7.04183 22.149 7.92137 23.0286L10.2415 25.3488C10.6676 25.7748 11.2341 26.0094 11.8366 26.0094C12.4392 26.0094 13.0057 25.7748 13.4317 25.3488L18.6522 20.1283C19.5317 19.2488 19.5317 17.8176 18.6521 16.938ZM17.7821 19.2583L12.5616 24.4787C12.368 24.6724 12.1105 24.7791 11.8366 24.7791C11.5627 24.7791 11.3052 24.6724 11.1115 24.4787L8.79131 22.1586C8.39149 21.7588 8.39149 21.1082 8.79131 20.7085C8.98499 20.5148 9.24249 20.4081 9.51639 20.4081C9.79029 20.4081 10.0478 20.5148 10.2415 20.7085L11.4015 21.8686C11.6418 22.1088 12.0314 22.1088 12.2716 21.8686L16.332 17.8083C16.5256 17.6146 16.7831 17.508 17.057 17.508C17.3309 17.508 17.5884 17.6146 17.7821 17.8083C18.1818 18.2079 18.1818 18.8585 17.7821 19.2583Z" fill="#9E1256"/>
<path id="Vector_5" d="M21.9785 9.3125H34.1254C34.4652 9.3125 34.7406 9.03712 34.7406 8.69727C34.7406 8.35741 34.4652 8.08203 34.1254 8.08203H21.9785C21.6387 8.08203 21.3633 8.35741 21.3633 8.69727C21.3633 9.03712 21.6387 9.3125 21.9785 9.3125Z" fill="#9E1256"/>
<path id="Vector_6" d="M21.9785 13.4219H28.0519C28.3918 13.4219 28.6672 13.1465 28.6672 12.8066C28.6672 12.4668 28.3918 12.1914 28.0519 12.1914H21.9785C21.6387 12.1914 21.3633 12.4668 21.3633 12.8066C21.3633 13.1465 21.6387 13.4219 21.9785 13.4219Z" fill="#9E1256"/>
<path id="Vector_7" d="M21.9785 19.7109H34.1254C34.4652 19.7109 34.7406 19.4356 34.7406 19.0957C34.7406 18.7558 34.4652 18.4805 34.1254 18.4805H21.9785C21.6387 18.4805 21.3633 18.7558 21.3633 19.0957C21.3633 19.4356 21.6387 19.7109 21.9785 19.7109Z" fill="#9E1256"/>
<path id="Vector_8" d="M21.9785 23.8125H28.0519C28.3918 23.8125 28.6672 23.5371 28.6672 23.1973C28.6672 22.8574 28.3918 22.582 28.0519 22.582H21.9785C21.6387 22.582 21.3633 22.8574 21.3633 23.1973C21.3633 23.5371 21.6387 23.8125 21.9785 23.8125Z" fill="#9E1256"/>
<path id="Vector_9" d="M21.9785 30.1016H34.1254C34.4652 30.1016 34.7406 29.8262 34.7406 29.4863C34.7406 29.1465 34.4652 28.8711 34.1254 28.8711H21.9785C21.6387 28.8711 21.3633 29.1465 21.3633 29.4863C21.3633 29.8262 21.6387 30.1016 21.9785 30.1016Z" fill="#9E1256"/>
<path id="Vector_10" d="M21.9785 34.2031H28.0519C28.3918 34.2031 28.6672 33.9277 28.6672 33.5879C28.6672 33.248 28.3918 32.9727 28.0519 32.9727H21.9785C21.6387 32.9727 21.3633 33.248 21.3633 33.5879C21.3633 33.9277 21.6387 34.2031 21.9785 34.2031Z" fill="#9E1256"/>
</g>
<defs>
<clipPath id="clip0_345_9943">
<rect width="42" height="42" fill="white" transform="translate(0 0.144531)"/>
</clipPath>
</defs>
</svg>
