<svg width="29" height="29" viewBox="0 0 29 29" fill="none" xmlns="http://www.w3.org/2000/svg">
<g id="fi_103093" clip-path="url(#clip0_227_8964)">
<g id="Group">
<path id="Vector" d="M27.5547 17.7261L26.5916 17.17C26.7533 16.3655 26.8352 15.56 26.8352 14.7712C26.8352 13.9709 26.7546 13.1646 26.5956 12.3699L27.5547 11.8162C27.8517 11.6448 28.0642 11.3678 28.1529 11.0366C28.2417 10.7053 28.1961 10.3592 28.0246 10.0622L25.4019 5.51946C25.2304 5.22243 24.9535 5.00993 24.6222 4.9212C24.2909 4.83246 23.9449 4.87798 23.6478 5.04949L22.688 5.60366C21.4756 4.53702 20.0487 3.71151 18.5298 3.19789V2.0946C18.5298 1.38657 17.9538 0.810547 17.2458 0.810547H12.0003C11.2923 0.810547 10.7163 1.38657 10.7163 2.0946V3.19795C9.20546 3.70949 7.78055 4.53609 6.56365 5.60694L5.59822 5.04949C5.30114 4.87798 4.9551 4.83241 4.62381 4.9212C4.29253 5.00999 4.01567 5.22243 3.84415 5.51946L1.22141 10.0622C1.0499 10.3592 1.00438 10.7053 1.09312 11.0366C1.18186 11.3678 1.39435 11.6448 1.69138 11.8162L2.65447 12.3723C2.49284 13.1768 2.41093 13.9823 2.41093 14.7712C2.41093 15.5713 2.49147 16.3776 2.65048 17.1723L1.69143 17.7261C1.07826 18.0801 0.867455 18.8669 1.22141 19.4801L3.84415 24.0229C4.19817 24.636 4.98499 24.8469 5.59822 24.4928L6.55797 23.9387C7.77044 25.0053 9.19726 25.8308 10.7163 26.3445V27.4477C10.7163 28.1558 11.2923 28.7318 12.0003 28.7318H17.2458C17.9538 28.7318 18.5298 28.1558 18.5298 27.4477V26.3444C20.0407 25.8328 21.4656 25.0062 22.6825 23.9355L23.6479 24.4928C24.261 24.8469 25.0479 24.636 25.4019 24.0229L28.0247 19.4801C28.3786 18.8669 28.1678 18.0801 27.5547 17.7261ZM27.3149 19.0703L24.6921 23.613C24.5641 23.8349 24.2795 23.9111 24.0577 23.783L22.8342 23.0766C22.6787 22.9868 22.4828 23.0088 22.351 23.1307C21.1002 24.2876 19.5952 25.1604 17.9988 25.655C17.8272 25.7082 17.7102 25.8668 17.7102 26.0464V27.4477C17.7102 27.7038 17.5019 27.9122 17.2458 27.9122H12.0003C11.7442 27.9122 11.5359 27.7038 11.5359 27.4477V26.0465C11.5359 25.8669 11.4189 25.7082 11.2474 25.655C9.64116 25.1574 8.13429 24.2856 6.88953 23.134C6.81189 23.0621 6.71195 23.025 6.61114 23.025C6.54087 23.025 6.47022 23.043 6.40635 23.0799L5.18841 23.783C4.96657 23.911 4.68201 23.8348 4.55398 23.613L1.93125 19.0703C1.80323 18.8485 1.8795 18.5639 2.10123 18.4358L3.31818 17.7332C3.47358 17.6435 3.55254 17.4632 3.51303 17.2881C3.32556 16.4572 3.23054 15.6103 3.23054 14.7712C3.23054 13.9461 3.32698 13.1 3.51724 12.2565C3.55669 12.0815 3.47773 11.9011 3.32239 11.8115L2.10123 11.1064C1.99381 11.0444 1.91699 10.9443 1.88486 10.8244C1.85278 10.7046 1.86923 10.5794 1.93125 10.472L4.55398 5.92926C4.616 5.82184 4.71616 5.74496 4.83604 5.71288C4.95581 5.68075 5.08104 5.69726 5.18847 5.75927L6.41197 6.46566C6.56748 6.55549 6.76331 6.53353 6.8951 6.41162C8.14604 5.25472 9.651 4.38184 11.2474 3.88729C11.4189 3.83413 11.5359 3.67545 11.5359 3.49585V2.0946C11.5359 1.8385 11.7443 1.63015 12.0004 1.63015H17.2458C17.5019 1.63015 17.7103 1.8385 17.7103 2.0946V3.49585C17.7103 3.67545 17.8273 3.83413 17.9988 3.88729C19.6049 4.38485 21.1118 5.25664 22.3566 6.40835C22.4884 6.5303 22.6843 6.55221 22.8398 6.46244L24.0577 5.75927C24.1652 5.69726 24.2904 5.68075 24.4102 5.71288C24.53 5.74501 24.6302 5.82184 24.6922 5.92926L27.315 10.472C27.377 10.5794 27.3935 10.7046 27.3614 10.8244C27.3292 10.9443 27.2524 11.0444 27.145 11.1064L25.928 11.8091C25.7726 11.8988 25.6937 12.0791 25.7332 12.2542C25.9206 13.085 26.0157 13.9318 26.0157 14.7712C26.0157 15.5962 25.9192 16.4423 25.729 17.2858C25.6895 17.4608 25.7685 17.6411 25.9238 17.7308L27.145 18.4358C27.3667 18.5639 27.4429 18.8485 27.3149 19.0703Z" fill="#9E1256"/>
<path id="Vector_2" d="M14.6232 6.49414C10.0587 6.49414 6.34521 10.2077 6.34521 14.7722C6.34521 19.3367 10.0587 23.0502 14.6232 23.0502C19.1878 23.0502 22.9012 19.3367 22.9012 14.7722C22.9012 10.2077 19.1878 6.49414 14.6232 6.49414ZM14.6232 22.2306C10.5107 22.2306 7.16482 18.8847 7.16482 14.7722C7.16482 10.6596 10.5107 7.31375 14.6232 7.31375C18.7358 7.31375 22.0816 10.6596 22.0816 14.7722C22.0816 18.8847 18.7358 22.2306 14.6232 22.2306Z" fill="#9E1256"/>
<path id="Vector_3" d="M16.1531 12.6133H14.6232C14.3969 12.6133 14.2134 12.7968 14.2134 13.0231V16.5201C14.2134 16.7464 14.3969 16.9299 14.6232 16.9299C14.8495 16.9299 15.033 16.7464 15.033 16.5201V15.6185H16.1531C16.9817 15.6185 17.6557 14.9445 17.6557 14.1159C17.6557 13.2873 16.9817 12.6133 16.1531 12.6133ZM16.1531 14.7989H15.033V13.4329H16.1531C16.5297 13.4329 16.8361 13.7393 16.8361 14.1159C16.8361 14.4925 16.5297 14.7989 16.1531 14.7989Z" fill="#9E1256"/>
<path id="Vector_4" d="M12.3844 12.8792C12.3244 12.7193 12.1715 12.6133 12.0007 12.6133H11.5636C11.3927 12.6133 11.2398 12.7192 11.1799 12.8792L9.8685 16.3762C9.789 16.5881 9.89642 16.8243 10.1083 16.9038C10.3202 16.9833 10.5564 16.8759 10.6359 16.664L10.864 16.0556H12.7002L12.9283 16.6639C12.99 16.8285 13.1462 16.93 13.312 16.93C13.3599 16.93 13.4085 16.9216 13.4559 16.9038C13.6678 16.8244 13.7752 16.5881 13.6957 16.3762L12.3844 12.8792ZM11.1713 15.236L11.7821 13.6074L12.3929 15.236H11.1713Z" fill="#9E1256"/>
<path id="Vector_5" d="M18.5568 12.6133C18.3305 12.6133 18.147 12.7968 18.147 13.0231V16.5201C18.147 16.7464 18.3305 16.9299 18.5568 16.9299C18.7831 16.9299 18.9666 16.7464 18.9666 16.5201V13.0231C18.9666 12.7968 18.7831 12.6133 18.5568 12.6133Z" fill="#9E1256"/>
<path id="Vector_6" d="M17.5545 5.57963C17.8389 5.67028 18.1225 5.77557 18.3971 5.8925C18.4495 5.91479 18.5039 5.92534 18.5574 5.92534C18.7168 5.92534 18.8684 5.83179 18.9347 5.67596C19.0233 5.46772 18.9264 5.22703 18.7181 5.13841C18.4199 5.01148 18.1122 4.89717 17.8034 4.79876C17.5878 4.73002 17.3572 4.84914 17.2885 5.06475C17.2198 5.28036 17.3389 5.51089 17.5545 5.57963Z" fill="#9E1256"/>
<path id="Vector_7" d="M6.1505 19.3835C6.04209 19.1849 5.7931 19.1117 5.59448 19.2201C5.39581 19.3285 5.32259 19.5774 5.43099 19.7761C5.60104 20.0877 5.78927 20.3943 5.99046 20.6873C6.0699 20.803 6.19815 20.8652 6.32863 20.8652C6.40857 20.8652 6.48932 20.8418 6.56025 20.7932C6.74684 20.665 6.79422 20.4099 6.66609 20.2234C6.48069 19.9533 6.30721 19.6708 6.1505 19.3835Z" fill="#9E1256"/>
<path id="Vector_8" d="M13.7839 24.379C11.5879 24.1898 9.50349 23.2382 7.91461 21.6994C7.752 21.5419 7.49256 21.5461 7.33515 21.7087C7.17773 21.8713 7.18182 22.1307 7.34443 22.2882C9.06834 23.9577 11.3303 24.9902 13.7135 25.1956C13.7254 25.1966 13.7373 25.1971 13.7491 25.1971C13.9595 25.1971 14.1385 25.036 14.1569 24.8225C14.1763 24.597 14.0093 24.3985 13.7839 24.379Z" fill="#9E1256"/>
<path id="Vector_9" d="M20.5195 6.12618C20.3326 5.99849 20.0776 6.04646 19.9499 6.23328C19.8222 6.42015 19.8702 6.67515 20.057 6.80285C21.9609 8.104 23.3381 10.0402 23.9349 12.2546C23.9842 12.4375 24.1497 12.5579 24.3304 12.5579C24.3657 12.5579 24.4016 12.5533 24.4372 12.5437C24.6558 12.4848 24.7852 12.2599 24.7263 12.0414C24.0787 9.6383 22.5847 7.5376 20.5195 6.12618Z" fill="#9E1256"/>
</g>
</g>
<defs>
<clipPath id="clip0_227_8964">
<rect width="27.9212" height="27.9212" fill="white" transform="translate(0.662109 0.810547)"/>
</clipPath>
</defs>
</svg>
