<svg width="39" height="38" viewBox="0 0 39 38" fill="none" xmlns="http://www.w3.org/2000/svg">
<g id="fi_4330444">
<g id="Group">
<path id="Vector" d="M35.6973 38H3.63477C3.46184 38 3.2987 37.9196 3.19339 37.7825C3.088 37.6453 3.05245 37.467 3.0969 37.2999L3.54682 35.6129C3.83308 34.5396 4.72771 33.7518 5.79921 33.5813L6.14804 32.2731C6.41277 31.2804 7.19793 30.532 8.16196 30.2902C6.54882 28.8549 5.201 27.1173 4.22236 25.2007C2.97058 22.7494 2.33594 20.1013 2.33594 17.3301C2.33594 12.7011 4.13856 8.34909 7.41183 5.07589C10.685 1.80262 15.037 0 19.666 0C21.1494 0 22.6229 0.187848 24.0454 0.558273C24.3429 0.635684 24.5213 0.939758 24.4438 1.23723C24.3663 1.5347 24.0622 1.71297 23.7649 1.63563C22.4339 1.28903 21.0549 1.11328 19.666 1.11328C15.3344 1.11328 11.262 2.80013 8.199 5.86306C5.13599 8.92599 3.44922 12.9984 3.44922 17.3301C3.44922 19.9237 4.04289 22.4014 5.21377 24.6944C6.30731 26.8361 7.89366 28.7393 9.80717 30.207H11.7639C7.32648 27.4891 4.5625 22.6501 4.5625 17.3301C4.5625 13.8296 5.78741 10.4176 8.01167 7.72261C8.20731 7.48541 8.55821 7.45201 8.79527 7.64757C9.0324 7.84329 9.06595 8.19412 8.8703 8.43125C8.1204 9.33984 7.49332 10.3362 6.9988 11.3928C8.26475 10.162 9.9257 9.4145 11.7423 9.4145C15.0926 9.4145 17.8182 11.8925 17.8182 14.9385C17.8182 15.9104 17.5476 16.8143 17.0845 17.5644C17.9521 17.8509 18.6532 18.4991 19.0105 19.3315C19.9003 18.4817 21.1547 17.9513 22.5423 17.9513C23.924 17.9513 25.2327 18.4878 26.2627 19.4525C26.7256 18.377 27.7958 17.6221 29.039 17.6221C29.3647 17.6221 29.6873 17.6748 29.9938 17.7769C30.1632 17.3843 30.3091 16.9801 30.4301 16.568C29.6623 16.1973 29.1487 15.4119 29.1487 14.5244C29.1487 13.4769 29.8622 12.593 30.8288 12.3331C30.6515 10.2484 29.98 8.38204 29.3659 7.25748C26.849 4.8329 23.4285 3.33984 19.666 3.33984C16.2675 3.33984 12.9909 4.57321 10.44 6.81276C10.2091 7.01553 9.85734 6.99274 9.6545 6.7617C9.45166 6.53066 9.47452 6.17893 9.70556 5.97617C12.4597 3.5582 15.997 2.22656 19.666 2.22656C23.7513 2.22656 27.4626 3.85663 30.1842 6.50089C30.1959 6.51143 30.2074 6.52257 30.2184 6.53422C33.0252 9.27823 34.7695 13.1041 34.7695 17.3301C34.7695 19.7377 34.1889 22.1332 33.0905 24.2577C32.9492 24.5308 32.6133 24.6377 32.3404 24.4965C32.0673 24.3553 31.9604 24.0195 32.1016 23.7464C33.1332 21.7512 33.6562 19.5924 33.6562 17.3301C33.6562 14.6396 32.893 12.1244 31.5715 9.9891C31.7723 10.8132 31.9276 11.7555 31.9738 12.7874C31.9806 12.9391 31.9251 13.0871 31.8201 13.197C31.7151 13.3068 31.5697 13.3689 31.4177 13.3689C30.7805 13.3689 30.2621 13.8873 30.2621 14.5245C30.2621 15.0812 30.6584 15.5589 31.2044 15.6605C31.3546 15.6884 31.4868 15.7769 31.5698 15.9052C31.6529 16.0335 31.6796 16.1902 31.6436 16.3387C31.4411 17.1752 31.1466 17.9879 30.7681 18.7541C30.7 18.8921 30.5777 18.9957 30.4305 19.0403C30.2835 19.085 30.124 19.0666 29.9907 18.9897C29.7025 18.8233 29.3734 18.7354 29.039 18.7354C27.9871 18.7354 27.1313 19.5912 27.1313 20.6432C27.1313 20.8841 26.9763 21.0976 26.7474 21.1724C26.5184 21.2472 26.2673 21.1661 26.1252 20.9716C25.2396 19.7596 23.9337 19.0646 22.5423 19.0646C20.4638 19.0646 18.7728 20.5615 18.7728 22.4014C18.7728 23.8836 19.833 25.0894 21.1363 25.0894C22.1712 25.0894 23.0131 24.3567 23.0131 23.4559C23.0131 22.7565 22.526 22.1875 21.9272 22.1875C21.6197 22.1875 21.3705 21.9383 21.3705 21.6309C21.3705 21.3235 21.6197 21.0743 21.9272 21.0743C23.1398 21.0743 24.1264 22.1427 24.1264 23.4559C24.1264 24.9705 22.7851 26.2027 21.1363 26.2027C19.2192 26.2027 17.6595 24.4975 17.6595 22.4014C17.6595 21.7047 17.8362 21.0449 18.1506 20.4571C18.0865 19.443 17.2975 18.6298 16.2943 18.5278C15.5487 19.2181 14.5858 19.6345 13.536 19.6345C11.5172 19.6345 9.87478 18.1313 9.87478 16.2837C9.87478 14.6929 11.0646 13.3986 12.527 13.3986C12.8345 13.3986 13.0836 13.6479 13.0836 13.9553C13.0836 14.2627 12.8345 14.5119 12.527 14.5119C11.6784 14.5119 10.9881 15.3067 10.9881 16.2837C10.9881 17.5175 12.131 18.5212 13.536 18.5212C15.2833 18.5212 16.7048 16.914 16.7048 14.9385C16.7048 12.5064 14.4786 10.5278 11.7422 10.5278C8.39716 10.5278 5.67578 13.5793 5.67578 17.3302C5.67578 22.9577 9.01407 28.0041 14.1874 30.2071H25.1447C27.4627 29.2197 29.4752 27.62 30.9685 25.577C31.1499 25.3289 31.4982 25.2747 31.7463 25.4561C31.9945 25.6375 32.0486 25.9858 31.8672 26.234C30.6984 27.833 29.2344 29.1807 27.5636 30.207H29.5249C31.4379 28.7396 33.0239 26.8371 34.1174 24.6961C35.2889 22.4026 35.8829 19.9243 35.8829 17.3301C35.8829 14.068 34.9186 10.923 33.0943 8.23502C31.3131 5.61042 28.8302 3.57905 25.914 2.36045C25.6303 2.24193 25.4964 1.91588 25.615 1.63222C25.7335 1.34855 26.0594 1.21466 26.3433 1.33327C29.4596 2.63543 32.1126 4.80589 34.0155 7.6098C35.9655 10.483 36.9962 13.8442 36.9962 17.3301C36.9962 20.102 36.3612 22.7507 35.1089 25.2025C34.1304 27.1184 32.7828 28.8554 31.1703 30.2903C32.1343 30.532 32.9194 31.2805 33.1842 32.2731L33.533 33.5814C34.6045 33.7519 35.4991 34.5396 35.7854 35.613L36.2354 37.3C36.2799 37.467 36.2443 37.6454 36.1389 37.7825C36.0333 37.9196 35.8702 38 35.6973 38ZM4.35929 36.8867H34.9728L34.7096 35.8998C34.515 35.17 33.8514 34.6602 33.096 34.6602H15.3487C15.0412 34.6602 14.7921 34.4109 14.7921 34.1035C14.7921 33.7961 15.0412 33.5469 15.3487 33.5469H32.3714L32.1083 32.5599C31.9137 31.83 31.2502 31.3203 30.4948 31.3203H8.83728C8.08188 31.3203 7.41836 31.83 7.22376 32.56L6.96051 33.5469H13.1222C13.4297 33.5469 13.6789 33.7961 13.6789 34.1035C13.6789 34.4109 13.4297 34.6602 13.1222 34.6602H6.23606C5.48066 34.6602 4.81714 35.1699 4.62254 35.8998L4.35929 36.8867ZM22.0308 16.3052C21.7034 16.3052 21.437 16.0388 21.437 15.7114C21.437 15.3841 21.7034 15.1177 22.0308 15.1177C22.3582 15.1177 22.6245 15.3841 22.6245 15.7114C22.6245 16.0388 22.3582 16.3052 22.0308 16.3052ZM25.3948 15.0666C24.8365 15.0666 24.6618 14.4324 24.5778 14.1277C24.4853 13.7921 24.4021 13.3661 24.3217 12.9541C24.2544 12.6097 24.1572 12.1121 24.0874 11.8983C23.9312 11.8357 23.6118 11.7482 23.3882 11.6869C22.4777 11.4374 21.7585 11.2403 21.7585 10.6091C21.7585 9.97782 22.4776 9.7807 23.3882 9.53125C23.6117 9.47002 23.9311 9.38244 24.0874 9.31987C24.1572 9.1062 24.2544 8.60848 24.3217 8.26411C24.4021 7.85205 24.4853 7.42603 24.5778 7.09041C24.6618 6.78567 24.8364 6.15155 25.3948 6.15155C25.9532 6.15155 26.1279 6.78567 26.2118 7.09041C26.3043 7.42596 26.3875 7.85205 26.4679 8.26411C26.5352 8.60848 26.6324 9.10612 26.7022 9.31987C26.8584 9.38244 27.1779 9.46994 27.4014 9.53125C28.312 9.78077 29.0311 9.97782 29.0311 10.6091C29.0311 11.2403 28.3119 11.4374 27.4014 11.6869C27.1779 11.7482 26.8585 11.8357 26.7022 11.8983C26.6324 12.112 26.5352 12.6097 26.4679 12.9541C26.3875 13.3661 26.3043 13.7921 26.2118 14.1277C26.1279 14.4324 25.9532 15.0666 25.3948 15.0666ZM23.6673 10.6091C23.6723 10.6105 23.6775 10.6119 23.6825 10.6133C24.3379 10.7929 24.6898 10.8965 24.9016 11.1082C25.1156 11.3221 25.207 11.6849 25.3949 12.6409C25.5827 11.6849 25.6742 11.3221 25.8881 11.1082C26.0999 10.8965 26.4518 10.7929 27.1073 10.6133C27.1122 10.6119 27.1174 10.6105 27.1225 10.6091C27.1174 10.6077 27.1123 10.6064 27.1073 10.605C26.4518 10.4254 26.0999 10.3217 25.8881 10.11C25.6742 9.89603 25.5828 9.53325 25.3949 8.57724C25.207 9.53318 25.1156 9.89603 24.9017 10.1099C24.6899 10.3218 24.3379 10.4254 23.6824 10.6049C23.6775 10.6063 23.6723 10.6077 23.6673 10.6091ZM24.157 11.9309C24.1571 11.9309 24.1571 11.9309 24.157 11.9309V11.9309ZM27.9393 13.911C27.6119 13.911 27.3456 13.6446 27.3456 13.3172C27.3456 12.9898 27.6119 12.7235 27.9393 12.7235C28.2667 12.7235 28.5331 12.9898 28.5331 13.3172C28.5331 13.6446 28.2667 13.911 27.9393 13.911ZM13.1664 8.01422C12.839 8.01422 12.5726 7.74784 12.5726 7.42046C12.5726 7.09309 12.839 6.82671 13.1664 6.82671C13.4938 6.82671 13.7601 7.09309 13.7601 7.42046C13.7601 7.74784 13.4938 8.01422 13.1664 8.01422ZM22.0308 7.97711C21.11 7.97711 20.3609 7.22802 20.3609 6.30718C20.3609 5.38635 21.11 4.63726 22.0308 4.63726C22.9515 4.63726 23.7007 5.38635 23.7007 6.30718C23.7007 7.22802 22.9516 7.97711 22.0308 7.97711ZM22.0308 5.75054C21.7238 5.75054 21.4741 6.00022 21.4741 6.30718C21.4741 6.61415 21.7238 6.86382 22.0308 6.86382C22.3377 6.86382 22.5874 6.61415 22.5874 6.30718C22.5874 6.00022 22.3377 5.75054 22.0308 5.75054ZM18.2533 6.10264C17.9259 6.10264 17.6595 5.83627 17.6595 5.50889C17.6595 5.18151 17.9259 4.91514 18.2533 4.91514C18.5806 4.91514 18.847 5.18151 18.847 5.50889C18.847 5.83627 18.5806 6.10264 18.2533 6.10264Z" fill="#9E1256"/>
</g>
</g>
</svg>
