<svg width="39" height="38" viewBox="0 0 39 38" fill="none" xmlns="http://www.w3.org/2000/svg">
<g id="fi_4277080" clip-path="url(#clip0_1466_154)">
<g id="Group">
<g id="Group_2">
<path id="Vector" d="M13.1067 13.1535C13.3631 12.984 13.4336 12.6387 13.2641 12.3822C11.8286 10.277 11.6807 7.30363 12.8602 5.08099C12.9065 5.15253 12.9535 5.2257 13.0012 5.30303C13.2457 5.73715 13.3743 6.24838 13.5052 6.82291C13.6928 7.71869 14.0838 9.57332 15.6543 10.1253C15.6627 10.1282 15.6712 10.1309 15.6797 10.1335C16.2098 10.3014 16.8373 10.2394 17.2077 9.8378C17.5631 9.46475 17.645 8.90158 17.4326 8.29195C17.4103 8.22375 17.3859 8.15555 17.3615 8.08728C17.2935 7.89723 17.2292 7.71779 17.2368 7.58118C17.2456 7.42415 17.3538 7.23677 17.5585 7.02446C17.6337 6.94646 17.7158 6.86958 17.8027 6.78818C17.9843 6.61802 18.1721 6.44214 18.3381 6.21973C18.6943 5.74242 18.8082 5.1981 18.6505 4.72657C18.5655 4.47196 18.4142 4.27798 18.2926 4.12206C18.2208 4.02997 18.1529 3.94285 18.1204 3.87057C18.0306 3.67176 18.1177 3.34346 18.3535 2.99253C18.3552 2.98993 18.357 2.98733 18.3587 2.98473C18.4119 2.90251 18.4889 2.79951 18.5704 2.69042C18.873 2.28576 19.296 1.71991 19.2918 1.12171C20.3862 1.11503 21.4325 1.35651 22.3669 1.78915C22.1748 2.02261 22.0158 2.28516 21.9016 2.56597C21.6069 3.2901 21.5792 4.13987 21.8233 4.96003C21.9866 5.58102 22.4528 5.93366 22.9901 5.81359C22.9977 5.81188 23.0053 5.80988 23.0127 5.80787C23.2467 5.74368 23.396 5.59222 23.4853 5.50176C23.4992 5.48774 23.5129 5.47349 23.527 5.46043C23.7132 5.28744 24.1166 5.30704 24.5157 5.34303C25.1085 5.41649 25.543 5.34629 25.8612 5.2168C27.4571 8.3462 26.314 12.4497 23.4754 14.3403C23.4328 14.243 23.388 14.1491 23.3441 14.0569C23.2459 13.8509 23.1532 13.6563 23.1095 13.4703C22.9983 12.9958 23.1872 12.473 23.3653 12.1179C23.3668 12.115 23.3682 12.112 23.3696 12.1091C23.498 11.8417 23.6703 11.5776 23.8528 11.2981C24.2354 10.7121 24.6691 10.0478 24.7301 9.22662C24.7305 9.22098 24.7309 9.21526 24.7311 9.20962C24.7588 8.57187 24.4839 7.97641 24.0093 7.65271C23.2409 7.13926 22.3084 7.45517 21.8575 7.609C21.1017 7.85516 20.3461 8.10138 19.5907 8.34791C18.727 8.60207 17.89 9.01905 17.6028 10.3265C17.5021 10.7938 17.504 11.2485 17.5059 11.6886C17.5073 12.004 17.5096 12.532 17.8692 12.9281C18.0675 13.147 18.3088 13.2528 18.5026 13.3377C18.5989 13.3799 18.6899 13.4197 18.7431 13.4602C18.886 13.5687 18.9535 13.824 19.0317 14.1197C19.1244 14.4702 19.2294 14.8673 19.5136 15.2002C19.6678 15.3809 19.8432 15.5105 20.0239 15.6119C18.1887 15.7901 16.3519 15.267 14.8973 14.1385C14.6539 13.9509 14.3044 13.996 14.1166 14.2394C13.929 14.4829 13.9742 14.8323 14.2176 15.0201C19.6468 19.2566 27.735 15.2752 27.7019 8.38338C27.702 3.76527 23.945 0.00812867 19.3269 0.00812867C12.7309 -0.0485671 8.65418 7.53198 12.3355 12.9961C12.505 13.2525 12.8503 13.323 13.1067 13.1535ZM21.7372 15.1859C21.4934 15.0176 21.2286 14.916 20.995 14.8263C20.7262 14.7231 20.4941 14.6341 20.3604 14.4774C20.2408 14.3373 20.1763 14.0933 20.1079 13.835C19.9994 13.4246 19.8643 12.9137 19.4163 12.5735C19.2576 12.4531 19.0939 12.3813 18.9494 12.318C18.8477 12.2734 18.7325 12.223 18.6937 12.1803C18.6208 12.1 18.6196 11.8187 18.6189 11.6837C18.6173 11.2858 18.6157 10.9099 18.6904 10.563C18.8328 9.91483 19.1182 9.64627 19.9119 9.4137C19.9173 9.41214 19.9227 9.41043 19.928 9.40873C20.6872 9.16102 21.4464 8.9136 22.2059 8.66619L22.2132 8.66381C22.6622 8.51065 23.1157 8.39443 23.3865 8.57536C23.5348 8.67643 23.6278 8.90789 23.6194 9.15307C23.5768 9.68486 23.2581 10.173 22.9208 10.6896C22.7276 10.9856 22.5278 11.2916 22.3683 11.6232C21.991 12.3772 21.8757 13.0841 22.0258 13.7244C22.0969 14.0272 22.2257 14.2975 22.3394 14.5359C22.4011 14.6655 22.4595 14.7892 22.5067 14.9113C22.2713 15.0265 22.0288 15.1292 21.78 15.2187C21.7657 15.2077 21.7524 15.1965 21.7372 15.1859ZM25.2824 4.23271C25.1122 4.26618 24.894 4.26892 24.6451 4.23731C24.6388 4.23649 24.6323 4.23583 24.6259 4.23531C24.1708 4.19382 23.4265 4.12622 22.8674 4.56153C22.7199 4.00956 22.7424 3.45314 22.9328 2.98533C23.0304 2.74511 23.1791 2.52664 23.3615 2.34817C24.1125 2.8519 24.7646 3.49203 25.2824 4.23271ZM18.1694 1.21388C18.1125 1.44363 17.8191 1.83649 17.679 2.02387C17.587 2.14691 17.5 2.26327 17.4269 2.37577C16.9635 3.06755 16.8495 3.76104 17.1056 4.32822C17.1928 4.5219 17.3108 4.67314 17.4149 4.80664C17.4948 4.90905 17.5702 5.00582 17.5948 5.07936C17.6328 5.19312 17.5731 5.38392 17.4462 5.55393C17.3392 5.6973 17.1947 5.83266 17.0417 5.97596C16.9485 6.0633 16.8521 6.15361 16.7573 6.25194C16.362 6.66187 16.1495 7.08835 16.1255 7.51943C16.1053 7.88083 16.216 8.18991 16.3135 8.46263C16.3351 8.52267 16.3566 8.58248 16.376 8.64252C16.3774 8.64667 16.3788 8.65083 16.3802 8.65498C16.4628 8.88956 16.4384 9.03174 16.4018 9.07011C16.3675 9.10617 16.2353 9.13527 16.0107 9.07078C15.2051 8.77951 14.8613 7.86822 14.5937 6.59026C14.593 6.58707 14.5923 6.58395 14.5916 6.58076C14.4452 5.93774 14.287 5.31349 13.9644 4.74527C13.9612 4.73956 13.9578 4.73392 13.9544 4.72828C13.8818 4.61029 13.81 4.49964 13.7411 4.39345C13.6578 4.26499 13.5812 4.1467 13.5154 4.03368C14.6212 2.55974 16.2738 1.51888 18.1694 1.21388Z" fill="#9E1256"/>
<path id="Vector_2" d="M20.8431 22.1188L20.2115 20.964C19.8661 20.314 18.9004 20.3142 18.5551 20.964L17.9235 22.1188L16.7686 22.7505C16.1187 23.0959 16.1189 24.0616 16.7686 24.4068L17.9235 25.0385L18.5551 26.1934C18.9006 26.8433 19.8661 26.8431 20.2114 26.1934L20.8431 25.0385L21.9979 24.4068C22.648 24.0613 22.6477 23.0957 21.9979 22.7505L20.8431 22.1188ZM20.2652 24.0858C20.1066 24.1727 19.9769 24.3024 19.8902 24.4609L19.3832 25.3878L18.8763 24.4609C18.7896 24.3024 18.66 24.1727 18.5011 24.0856L17.5741 23.5787L18.5013 23.0715C18.6599 22.9846 18.7896 22.8549 18.8763 22.6964L19.3832 21.7695L19.8901 22.6964C19.9768 22.8549 20.1064 22.9846 20.2654 23.0717L21.1923 23.5787L20.2652 24.0858Z" fill="#9E1256"/>
<path id="Vector_3" d="M30.2836 5.94383L31.485 6.60088L32.1421 7.8024C32.4926 8.4619 33.4724 8.46175 33.8228 7.8024L34.4799 6.60096L35.6813 5.94383C36.3408 5.59334 36.3407 4.61363 35.6813 4.26322L34.4799 3.6061L33.8228 2.40472C33.4723 1.74523 32.4925 1.74537 32.1421 2.40472L31.485 3.60617L30.2836 4.26322C29.6241 4.61371 29.6244 5.59342 30.2836 5.94383ZM32.0591 4.5608C32.2201 4.47271 32.3518 4.34106 32.4399 4.18003L32.9826 3.18785L33.5252 4.18003C33.6133 4.34114 33.745 4.47278 33.9059 4.5608L34.8981 5.10349L33.9061 5.64611C33.745 5.73419 33.6133 5.86584 33.5252 6.02695L32.9825 7.01912L32.4399 6.02695C32.3518 5.86591 32.2201 5.73427 32.0592 5.64618L31.0669 5.10356L32.0591 4.5608Z" fill="#9E1256"/>
<path id="Vector_4" d="M2.91721 14.9747L4.07287 15.6069L4.70499 16.7627C5.05058 17.4127 6.01626 17.4125 6.36163 16.7626L6.99375 15.6069L8.14948 14.9747C8.7994 14.6291 8.79926 13.6635 8.14948 13.318L6.99375 12.6859L6.36163 11.5302C6.196 11.2273 5.87861 11.0391 5.53338 11.0391C5.18809 11.0391 4.8707 11.2273 4.70499 11.5302L4.07295 12.6859L2.91721 13.318C2.26707 13.6635 2.26729 14.6294 2.91721 14.9747ZM4.65059 13.6387C4.80933 13.5518 4.93904 13.422 5.02572 13.2634L5.53331 12.3353L6.04075 13.2632C6.12743 13.4219 6.2573 13.5518 6.41618 13.6388L7.34424 14.1464L6.4161 14.654C6.25722 14.741 6.12743 14.8709 6.04083 15.0294L5.53324 15.9575L5.02572 15.0294C4.93897 14.8708 4.80925 14.741 4.65037 14.654L3.72231 14.1464L4.65059 13.6387Z" fill="#9E1256"/>
<path id="Vector_5" d="M38.2722 30.1239C38.0552 29.285 37.2288 28.7593 36.3862 28.896L35.8189 26.9132C35.6906 26.4646 35.2204 26.2005 34.7707 26.3254L32.9137 26.8398C32.6175 26.9218 32.4439 27.2284 32.5259 27.5246C32.608 27.8209 32.9147 27.9945 33.2109 27.9125L34.8196 27.4669L35.3054 29.1649L20.7711 32.8777C20.73 32.8882 20.6898 32.9007 20.6502 32.914L20.0836 31.5484L30.7087 28.6056C31.0049 28.5236 31.1785 28.2169 31.0965 27.9207C31.0144 27.6245 30.7078 27.4508 30.4115 27.5329L25.0349 29.022L33.6693 24.8202C34.3207 24.4747 33.8557 23.5201 33.1823 23.8193L24.0413 28.2677L30.8391 23.1214C31.0842 22.9359 31.1325 22.5868 30.947 22.3418C30.7615 22.0967 30.4124 22.0485 30.1672 22.234L19.3282 30.4395L8.48925 22.234C8.24414 22.0484 7.89514 22.0967 7.70954 22.3418C7.52402 22.5868 7.57225 22.9359 7.81736 23.1214L14.6152 28.2677L5.47421 23.8192C4.80032 23.52 4.33606 24.4751 4.98717 24.8202L13.6215 29.022L3.88561 26.3254C3.43568 26.2009 2.96564 26.4645 2.83733 26.9132L2.27008 28.8961C1.42751 28.7599 0.600967 29.2852 0.384053 30.1238C0.141686 30.9883 0.713542 31.9477 1.58743 32.1516L2.9082 32.4889C3.20615 32.5652 3.50915 32.3853 3.58514 32.0875C3.66121 31.7896 3.48147 31.4865 3.18359 31.4105L1.86289 31.0731C1.71767 31.036 1.59604 30.9451 1.52042 30.8172C1.44599 30.6912 1.42506 30.5438 1.46164 30.4026C1.53808 30.1071 1.84345 29.9287 2.14237 30.005L17.6096 33.9561C17.856 34.0191 18.0282 34.2386 18.0282 34.4901C18.0996 36.2086 20.5568 36.2079 20.6279 34.4901C20.6279 34.2386 20.8 34.019 21.0464 33.9561L36.5136 30.005C36.8127 29.9287 37.118 30.107 37.1944 30.4026C37.231 30.5438 37.2101 30.6912 37.1356 30.8172C37.06 30.9452 36.9384 31.036 36.7932 31.0731L22.024 34.8458C21.8384 34.8932 21.6903 35.0328 21.6317 35.2153C20.9129 37.436 17.7424 37.4348 17.0242 35.2153C16.9657 35.0328 16.8175 34.8932 16.6319 34.8458L5.73498 32.0622C5.43748 31.9862 5.13411 32.1658 5.05804 32.4637C4.98198 32.7616 5.16172 33.0647 5.45952 33.1407L16.0745 35.8523C17.2693 38.7046 21.3881 38.7032 22.5819 35.8523L37.0689 32.1517C37.9427 31.9477 38.5147 30.9883 38.2722 30.1239ZM3.35101 29.1648L3.83678 27.4669L18.5728 31.5483L18.0062 32.9139C17.9665 32.9006 17.9264 32.888 17.8853 32.8776L3.35101 29.1648ZM19.3282 34.6723C19.2252 34.6723 19.1415 34.5905 19.1415 34.4901C19.1415 34.184 19.0566 33.8944 18.9083 33.6444L19.3282 32.6324L19.748 33.6444C19.5998 33.8944 19.5149 34.184 19.5149 34.4902C19.5149 34.5905 19.4311 34.6723 19.3282 34.6723Z" fill="#9E1256"/>
</g>
</g>
</g>
<defs>
<clipPath id="clip0_1466_154">
<rect width="38" height="38" fill="white" transform="translate(0.328125)"/>
</clipPath>
</defs>
</svg>
