<svg width="38" height="38" viewBox="0 0 38 38" fill="none" xmlns="http://www.w3.org/2000/svg">
<g id="fi_6666943" clip-path="url(#clip0_1466_171)">
<g id="Group">
<g id="Group_2">
<path id="Vector" d="M28.8118 15.8434C29.5278 14.4137 29.6233 12.7021 28.9797 11.1684L28.1625 9.22012C27.7159 8.15508 26.6598 7.5148 25.5417 7.57796L24.5266 4.65084C24.2281 3.78946 23.4153 3.24648 22.5371 3.26815L21.4714 1.13659C21.1208 0.435516 20.4161 0 19.6324 0H18.0694C17.1598 0 16.3698 0.584324 16.1034 1.45409L15.0212 4.98795C14.0814 5.24155 13.3337 5.9683 13.0587 6.90702L11.9371 10.7391C10.8359 11.0983 9.96848 11.9802 9.63836 13.1017L8.92727 15.5123C8.05795 18.4598 8.87717 21.6314 11.0652 23.7892L12.1868 24.8959C12.4368 25.1424 12.674 25.4055 12.8919 25.6778C13.084 25.9179 13.4343 25.9569 13.6743 25.7647C13.9143 25.5727 13.9532 25.2224 13.7612 24.9823C13.5161 24.676 13.2495 24.3803 12.9686 24.1034L11.847 22.9966C11.54 22.6938 11.2646 22.3677 11.0211 22.0234C11.403 21.5433 12.2811 20.5481 13.6308 19.6378C13.8857 19.4659 13.953 19.1199 13.7811 18.865C13.6092 18.6101 13.2634 18.5428 13.0083 18.7147C11.7884 19.5374 10.9257 20.4152 10.4185 21.0038C10.0759 20.2962 9.85233 19.5382 9.75525 18.7603C10.9666 17.3275 12.5634 16.107 14.5073 15.1317C14.7821 14.9938 14.893 14.6593 14.7551 14.3846C14.6172 14.1098 14.2827 13.9988 14.008 14.1367C12.3439 14.9716 10.9136 15.9799 9.73729 17.1427C9.78205 16.7021 9.86688 16.2618 9.99505 15.8271L10.7061 13.4163C10.9519 12.5816 11.6312 11.9396 12.479 11.7407L25.3292 8.72894C26.0784 8.55371 26.8383 8.94098 27.1359 9.65059L27.5795 10.7082C27.5589 10.9372 27.4486 11.6107 26.8597 12.5018C25.6114 14.3903 23.238 15.7609 21.4666 16.578C21.1875 16.7068 21.0655 17.0374 21.1944 17.3166C21.2883 17.5203 21.4897 17.6402 21.7002 17.6402C21.7782 17.6402 21.8575 17.6237 21.933 17.5889C25.8611 15.7768 27.5101 13.7903 28.2012 12.3958C28.545 14.0216 27.9567 15.7526 26.6296 16.8197L24.2084 18.7657C23.0319 19.6079 22.007 20.0708 21.1024 20.4792C19.1611 21.3556 17.6279 22.0478 16.1529 25.5059C16.0323 25.7886 16.1637 26.1156 16.4466 26.2363C16.5178 26.2666 16.5919 26.281 16.6647 26.281C16.8811 26.281 17.0868 26.1542 17.177 25.9426C18.2438 23.4414 19.2574 22.6158 20.6052 21.9402C19.0612 23.8068 18.2035 26.1565 18.2035 28.6357V34.2808C18.2035 34.9768 17.9325 35.6312 17.4403 36.1234C16.9482 36.6156 16.2936 36.8867 15.5976 36.8867C15.1694 36.8867 14.9044 36.5276 14.9044 36.195C14.9044 36.0902 14.9284 35.9883 14.9762 35.8912C15.3165 35.1957 15.5782 34.4591 15.7541 33.701C15.929 32.9431 16.0177 32.1663 16.0177 31.3924C16.0177 29.984 15.734 28.6158 15.1746 27.3257C15.0523 27.0436 14.7246 26.9142 14.4425 27.0365C14.1605 27.1587 14.031 27.4865 14.1533 27.7686C14.6517 28.9181 14.9045 30.1373 14.9045 31.3925C14.9045 32.0823 14.8254 32.7748 14.6695 33.4502C14.5128 34.1256 14.2796 34.7822 13.9767 35.4011C13.8535 35.6514 13.7911 35.9186 13.7911 36.1952C13.7911 37.1905 14.6015 38.0002 15.5976 38.0002C16.591 38.0002 17.525 37.6134 18.2274 36.9109C18.9298 36.2084 19.3167 35.2745 19.3167 34.2811V33.3212C20.0201 32.2948 21.2867 30.8123 23.4264 29.3344C24.1754 28.817 24.8631 28.2804 25.4702 27.7394C25.6997 27.5349 25.7199 27.183 25.5155 26.9535C25.3109 26.724 24.959 26.7038 24.7296 26.9082C24.1565 27.4189 23.5052 27.927 22.7937 28.4184C21.4445 29.3503 20.2658 30.3989 19.3167 31.503V28.6358C19.3167 25.7698 20.5976 23.0964 22.8308 21.3012L27.3271 17.6875C27.5611 17.4994 27.7763 17.2945 27.9728 17.076C28.1909 18.0602 28.3016 18.9754 28.3016 19.8068C28.3016 21.0472 28.1089 22.9448 26.4426 25.0945C26.2542 25.3375 26.2985 25.6872 26.5415 25.8755C26.643 25.9541 26.763 25.9922 26.8821 25.9922C27.0483 25.9922 27.2128 25.9181 27.3225 25.7765C29.198 23.3569 29.4148 21.2107 29.4148 19.8068C29.4149 18.6173 29.2118 17.2847 28.8118 15.8434ZM14.1271 7.21993C14.2983 6.63553 14.7727 6.18636 15.3654 6.04757L17.5467 5.5362C17.8461 5.46599 18.0318 5.16652 17.9616 4.86719C17.8914 4.56787 17.5921 4.3821 17.2926 4.45231L16.2767 4.69048L17.1679 1.78014C17.29 1.38121 17.6523 1.11328 18.0694 1.11328H19.6324C19.9918 1.11328 20.3149 1.313 20.4756 1.63445L21.4027 3.48865L19.8212 3.85915C19.5219 3.92929 19.3362 4.22876 19.4063 4.52809C19.4764 4.82741 19.7759 5.01303 20.0752 4.94304L22.3685 4.40577C22.8403 4.29511 23.3159 4.55733 23.4747 5.01548L23.6471 5.51282L22.176 5.88102C21.8777 5.95561 21.6965 6.2579 21.7711 6.55611C21.8344 6.80898 22.0613 6.97775 22.3107 6.97775C22.3554 6.97775 22.4009 6.97233 22.4463 6.9609L24.0133 6.56873L24.4384 7.7943L13.1871 10.4314L14.1271 7.21993Z" fill="#9E1256"/>
<path id="Vector_2" d="M16.463 14.2455C16.5257 14.2455 16.5894 14.2348 16.6518 14.2123C17.0632 14.064 17.4768 13.9302 17.8808 13.8147C18.1764 13.7301 18.3475 13.4221 18.2629 13.1265C18.1785 12.8309 17.8701 12.6595 17.5748 12.7444C17.1467 12.8667 16.7092 13.0083 16.2742 13.1651C15.9851 13.2694 15.8351 13.5884 15.9394 13.8775C16.0211 14.1044 16.235 14.2455 16.463 14.2455Z" fill="#9E1256"/>
<path id="Vector_3" d="M18.7595 7.86488C18.8041 7.86488 18.8496 7.85947 18.8949 7.84811L20.1185 7.54218C20.4168 7.46766 20.5981 7.16537 20.5235 6.86716C20.4489 6.56888 20.1465 6.38734 19.8485 6.46215L18.6249 6.76808C18.3266 6.84259 18.1453 7.14489 18.2199 7.4431C18.2831 7.69604 18.5101 7.86488 18.7595 7.86488Z" fill="#9E1256"/>
</g>
</g>
</g>
<defs>
<clipPath id="clip0_1466_171">
<rect width="38" height="38" fill="white"/>
</clipPath>
</defs>
</svg>
