<svg width="39" height="38" viewBox="0 0 39 38" fill="none" xmlns="http://www.w3.org/2000/svg">
<g id="fi_3498240" clip-path="url(#clip0_1466_186)">
<g id="Group">
<path id="Vector" d="M28.5578 7.69803C28.5578 7.06716 28.2216 6.51333 27.7189 6.20628C27.8735 5.94569 27.9627 5.64191 27.9627 5.31757C27.9627 4.35434 27.1791 3.57065 26.2158 3.57065C26.2026 3.57065 26.1896 3.57139 26.1763 3.57169C26.1766 3.55848 26.1773 3.54542 26.1773 3.53221C26.1773 2.56898 25.3936 1.78529 24.4304 1.78529C24.1877 1.78529 23.9564 1.83516 23.7462 1.92505C23.5587 1.16251 22.8695 0.595096 22.0499 0.595096C21.7256 0.595096 21.4218 0.684235 21.1613 0.838835C20.8543 0.336217 20.3005 0 19.6696 0C19.0387 0 18.4849 0.336217 18.1778 0.838909C17.9173 0.684309 17.6135 0.595171 17.2892 0.595171C16.4696 0.595171 15.7804 1.16258 15.5929 1.92512C15.3827 1.83524 15.1514 1.78536 14.9087 1.78536C13.9455 1.78536 13.1618 2.56905 13.1618 3.53228C13.1618 3.54549 13.1625 3.55855 13.1627 3.57177C13.1496 3.57147 13.1365 3.57073 13.1233 3.57073C12.16 3.57073 11.3763 4.35442 11.3763 5.31764C11.3763 5.64199 11.4655 5.94577 11.6202 6.20635C11.1175 6.5134 10.7812 7.06723 10.7812 7.6981C10.7812 8.15767 10.96 8.57613 11.2511 8.88837C10.96 9.20061 10.7812 9.61899 10.7812 10.0786C10.7812 10.7095 11.1175 11.2633 11.6202 11.5704C11.4656 11.831 11.3763 12.1348 11.3763 12.4591C11.3763 13.4223 12.16 14.206 13.1233 14.206C13.1365 14.206 13.1495 14.2053 13.1627 14.205C13.1625 14.2182 13.1618 14.2312 13.1618 14.2445C13.1618 14.8753 13.498 15.4292 14.0007 15.7362C13.8461 15.9968 13.757 16.3006 13.757 16.6249C13.757 17.0845 13.9356 17.5029 14.2268 17.8152C13.9357 18.1274 13.757 18.5458 13.757 19.0054C13.757 19.4649 13.9356 19.8834 14.2268 20.1956C13.9357 20.5079 13.757 20.9263 13.757 21.3859C13.757 22.0168 14.0932 22.5706 14.5959 22.8777C14.4413 23.1382 14.3521 23.4421 14.3521 23.7664C14.3521 24.7296 15.1357 25.5133 16.099 25.5133C16.1122 25.5133 16.1252 25.5125 16.1385 25.5123C16.1382 25.5255 16.1375 25.5385 16.1375 25.5517C16.1375 26.515 16.9212 27.2987 17.8844 27.2987C17.8976 27.2987 17.9107 27.2979 17.9239 27.2976C17.9236 27.3108 17.9229 27.3239 17.9229 27.3371C17.9229 27.7077 18.0393 28.0515 18.2369 28.3345C18.0428 28.5407 17.9229 28.8175 17.9229 29.1224V31.5028C17.9229 31.6342 17.9456 31.7602 17.9863 31.8777C17.9074 31.9402 17.8266 32.0101 17.7435 32.0901C17.2631 32.5531 16.8082 33.237 16.4625 34.0159C16.1168 34.7949 15.9148 35.5911 15.8937 36.2578C15.858 37.3886 16.3496 37.7779 16.6457 37.9094C16.7523 37.9566 16.9003 38.0003 17.0843 38.0003C17.412 38.0003 17.8532 37.8619 18.3749 37.359C18.8553 36.8961 19.3102 36.2122 19.6558 35.4332C19.6606 35.4223 19.6652 35.4114 19.6699 35.4005C19.6747 35.4114 19.6789 35.4223 19.6837 35.4332C20.0294 36.2122 20.4843 36.8961 20.9646 37.359C21.4863 37.8619 21.9276 38.0003 22.2552 38.0003C22.4391 38.0003 22.5874 37.9566 22.6938 37.9094C22.9899 37.7779 23.4815 37.3886 23.4458 36.2578C23.4247 35.5911 23.2228 34.7949 22.877 34.0159C22.7733 33.7822 22.6587 33.5547 22.5364 33.3398C22.3844 33.0725 22.0444 32.9792 21.7772 33.1312C21.5101 33.2832 21.4167 33.6231 21.5687 33.8904C21.6728 34.0733 21.7706 34.2675 21.8594 34.4676C22.4469 35.7914 22.372 36.7204 22.2402 36.8876C22.0278 36.8731 21.2887 36.3053 20.7011 34.9815C20.1838 33.8158 20.1801 32.9568 20.2766 32.6539C20.9062 32.6475 21.4165 32.1339 21.4165 31.5028V29.1223C21.4165 28.8174 21.2967 28.5407 21.1026 28.3344C21.3002 28.0514 21.4165 27.7076 21.4165 27.337C21.4165 27.3237 21.4158 27.3107 21.4156 27.2975C21.4287 27.2978 21.4418 27.2986 21.4551 27.2986C22.4183 27.2986 23.202 26.5149 23.202 25.5517C23.202 25.5385 23.2012 25.5254 23.201 25.5122C23.2141 25.5125 23.2272 25.5132 23.2405 25.5132C24.2037 25.5132 24.9874 24.7295 24.9874 23.7663C24.9874 23.442 24.8983 23.1382 24.7436 22.8777C25.2462 22.5705 25.5825 22.0168 25.5825 21.3858C25.5825 20.9263 25.4039 20.5078 25.1126 20.1956C25.4038 19.8833 25.5825 19.4649 25.5825 19.0053C25.5825 18.5457 25.4039 18.1273 25.1126 17.8151C25.4038 17.5029 25.5825 17.0845 25.5825 16.6248C25.5825 16.3005 25.4934 15.9967 25.3388 15.7361C25.8415 15.4291 26.1777 14.8753 26.1777 14.2444C26.1777 14.2311 26.1769 14.2181 26.1767 14.2049C26.1899 14.2052 26.2029 14.2059 26.2162 14.2059C27.1794 14.2059 27.9631 13.4222 27.9631 12.459C27.9631 12.1347 27.874 11.8309 27.7193 11.5703C28.2219 11.2633 28.5582 10.7094 28.5582 10.0786C28.5582 9.61899 28.3795 9.20054 28.0883 8.8883C28.3791 8.57605 28.5578 8.1576 28.5578 7.69803ZM27.4445 10.0785C27.4445 10.4278 27.1603 10.712 26.8109 10.712C26.4616 10.712 26.1774 10.4278 26.1774 10.0785C26.1774 9.72914 26.4616 9.44487 26.8109 9.44487C27.1603 9.44487 27.4445 9.72914 27.4445 10.0785ZM23.8354 17.2583C23.4861 17.2583 23.2018 16.9741 23.2018 16.6247C23.2018 16.2753 23.4861 15.9911 23.8354 15.9911C24.1848 15.9911 24.469 16.2753 24.469 16.6247C24.469 16.9741 24.1848 17.2583 23.8354 17.2583ZM24.469 19.0052C24.469 19.3545 24.1848 19.6388 23.8354 19.6388C23.4861 19.6388 23.2018 19.3545 23.2018 19.0052C23.2018 18.6558 23.4861 18.3716 23.8354 18.3716C24.1848 18.3716 24.469 18.6558 24.469 19.0052ZM24.469 21.3857C24.469 21.735 24.1848 22.0192 23.8354 22.0192C23.4861 22.0192 23.2018 21.735 23.2018 21.3857C23.2018 21.0363 23.4861 20.7521 23.8354 20.7521C24.1848 20.7521 24.469 21.0363 24.469 21.3857ZM24.4305 14.8779C24.0812 14.8779 23.7969 14.5937 23.7969 14.2443C23.7969 13.895 24.0812 13.6107 24.4305 13.6107C24.7799 13.6107 25.0642 13.895 25.0642 14.2443C25.0642 14.5937 24.7799 14.8779 24.4305 14.8779ZM24.4305 12.4974C23.4673 12.4974 22.6836 13.2811 22.6836 14.2443C22.6836 14.5687 22.7728 14.8724 22.9274 15.1329C22.4248 15.4401 22.0885 15.9938 22.0885 16.6248C22.0885 17.0843 22.2672 17.5028 22.5584 17.815C22.2672 18.1272 22.0885 18.5457 22.0885 19.0052C22.0885 19.4648 22.2672 19.8833 22.5584 20.1955C22.2672 20.5077 22.0885 20.9261 22.0885 21.3858C22.0885 21.7101 22.1777 22.0138 22.3323 22.2744C21.8296 22.5814 21.4934 23.1353 21.4934 23.7662C21.4934 23.7794 21.4942 23.7925 21.4944 23.8057C21.4813 23.8054 21.4682 23.8047 21.4549 23.8047C20.4917 23.8047 19.708 24.5884 19.708 25.5516C19.708 25.5648 19.7087 25.5779 19.709 25.5911C19.6958 25.5908 19.6828 25.59 19.6695 25.59C19.6562 25.59 19.6432 25.5908 19.63 25.5911C19.6303 25.5779 19.631 25.5648 19.631 25.5516C19.631 24.5884 18.8473 23.8047 17.884 23.8047C17.8708 23.8047 17.8578 23.8054 17.8445 23.8057C17.8448 23.7926 17.8455 23.7794 17.8455 23.7662C17.8455 23.1354 17.5092 22.5815 17.0066 22.2744C17.1612 22.0138 17.2504 21.71 17.2504 21.3858C17.2504 20.9262 17.0717 20.5077 16.7805 20.1955C17.0717 19.8833 17.2504 19.4649 17.2504 19.0052C17.2504 18.5456 17.0717 18.1272 16.7805 17.815C17.0717 17.5028 17.2504 17.0844 17.2504 16.6248C17.2504 15.9939 16.9142 15.4401 16.4115 15.1329C16.5661 14.8724 16.6553 14.5686 16.6553 14.2443C16.6553 13.281 15.8716 12.4974 14.9084 12.4974C14.8952 12.4974 14.8821 12.4981 14.8689 12.4984C14.8692 12.4853 14.8699 12.4722 14.8699 12.4589C14.8699 11.8281 14.5337 11.2742 14.031 10.9671C14.1856 10.7066 14.2747 10.4028 14.2747 10.0785C14.2747 9.61892 14.0961 9.20047 13.8048 8.88822C14.096 8.57598 14.2747 8.1576 14.2747 7.69796C14.2747 7.37361 14.1856 7.06983 14.031 6.80932C14.5337 6.50227 14.8699 5.94844 14.8699 5.31749C14.8699 5.30428 14.8691 5.29122 14.8689 5.27801C14.8821 5.27831 14.8951 5.27905 14.9084 5.27905C15.7279 5.27905 16.4171 4.71156 16.6046 3.9491C16.8149 4.03898 17.0462 4.08886 17.2889 4.08886C17.9198 4.08886 18.4736 3.75264 18.7806 3.24995C19.0412 3.40462 19.345 3.49376 19.6692 3.49376C19.9935 3.49376 20.2974 3.40462 20.5579 3.24995C20.8649 3.75264 21.4188 4.08886 22.0496 4.08886C22.2923 4.08886 22.5236 4.03898 22.7339 3.9491C22.9213 4.71164 23.6106 5.27905 24.4301 5.27905C24.4433 5.27905 24.4564 5.27831 24.4696 5.27801C24.4693 5.29115 24.4686 5.30428 24.4686 5.31749C24.4686 5.94837 24.8048 6.5022 25.3075 6.80932C25.1529 7.06983 25.0638 7.37369 25.0638 7.69796C25.0638 8.15753 25.2424 8.57598 25.5337 8.88822C25.2425 9.20047 25.0638 9.61884 25.0638 10.0785C25.0638 10.4028 25.1529 10.7066 25.3075 10.9671C24.8048 11.2742 24.4686 11.828 24.4686 12.4589C24.4686 12.4722 24.4694 12.4852 24.4696 12.4984C24.4568 12.4981 24.4438 12.4974 24.4305 12.4974ZM20.2647 29.0836C20.2859 29.0836 20.3032 29.1009 20.3032 29.1222V31.5026C20.3032 31.5239 20.286 31.5411 20.2647 31.5411H19.0745C19.0533 31.5411 19.036 31.5239 19.036 31.5026V29.1222C19.036 29.1009 19.0532 29.0836 19.0745 29.0836H20.2647ZM19.6696 27.9703C19.3203 27.9703 19.036 27.6862 19.036 27.3368C19.036 26.9874 19.3203 26.7032 19.6696 26.7032C20.019 26.7032 20.3032 26.9874 20.3032 27.3368C20.3032 27.6862 20.019 27.9703 19.6696 27.9703ZM15.5038 20.7521C15.8532 20.7521 16.1374 21.0363 16.1374 21.3857C16.1374 21.735 15.8532 22.0192 15.5038 22.0192C15.1544 22.0192 14.8703 21.735 14.8703 21.3857C14.8703 21.0363 15.1544 20.7521 15.5038 20.7521ZM14.8703 19.0052C14.8703 18.6558 15.1544 18.3716 15.5038 18.3716C15.8532 18.3716 16.1374 18.6558 16.1374 19.0052C16.1374 19.3545 15.8532 19.6388 15.5038 19.6388C15.1544 19.6388 14.8703 19.3545 14.8703 19.0052ZM14.8703 16.6248C14.8703 16.2754 15.1544 15.9912 15.5038 15.9912C15.8532 15.9912 16.1374 16.2754 16.1374 16.6248C16.1374 16.9741 15.8532 17.2584 15.5038 17.2584C15.1544 17.2584 14.8703 16.9741 14.8703 16.6248ZM14.2751 14.2443C14.2751 13.895 14.5593 13.6107 14.9087 13.6107C15.2581 13.6107 15.5423 13.895 15.5423 14.2443C15.5423 14.5937 15.2581 14.8779 14.9087 14.8779C14.5593 14.8779 14.2751 14.5937 14.2751 14.2443ZM12.5282 9.44487C12.8776 9.44487 13.1618 9.72914 13.1618 10.0785C13.1618 10.4278 12.8776 10.712 12.5282 10.712C12.1789 10.712 11.8946 10.4278 11.8946 10.0785C11.8946 9.72914 12.1789 9.44487 12.5282 9.44487ZM11.8946 7.69803C11.8946 7.34868 12.1789 7.06449 12.5282 7.06449C12.8776 7.06449 13.1618 7.34868 13.1618 7.69803C13.1618 8.04738 12.8776 8.33165 12.5282 8.33165C12.1789 8.33165 11.8946 8.04738 11.8946 7.69803ZM26.1774 7.69803C26.1774 7.34868 26.4616 7.06449 26.8109 7.06449C27.1603 7.06449 27.4445 7.34868 27.4445 7.69803C27.4445 8.04738 27.1603 8.33165 26.8109 8.33165C26.4616 8.33165 26.1774 8.04738 26.1774 7.69803ZM26.8494 5.31757C26.8494 5.66692 26.5652 5.95119 26.2158 5.95119C25.8665 5.95119 25.5822 5.66692 25.5822 5.31757C25.5822 4.96822 25.8665 4.68395 26.2158 4.68395C26.5652 4.68395 26.8494 4.96822 26.8494 5.31757ZM24.4305 2.89866C24.7799 2.89866 25.0642 3.18293 25.0642 3.53228C25.0642 3.88163 24.7799 4.1659 24.4305 4.1659C24.0812 4.1659 23.7969 3.88163 23.7969 3.53228C23.7969 3.18293 24.0812 2.89866 24.4305 2.89866ZM22.05 1.70847C22.3994 1.70847 22.6836 1.99266 22.6836 2.34201C22.6836 2.69137 22.3994 2.97563 22.05 2.97563C21.7007 2.97563 21.4165 2.69137 21.4165 2.34201C21.4165 1.99266 21.7007 1.70847 22.05 1.70847ZM19.6696 1.1133C20.019 1.1133 20.3032 1.39749 20.3032 1.74684C20.3032 2.0962 20.019 2.38046 19.6696 2.38046C19.3203 2.38046 19.036 2.0962 19.036 1.74684C19.036 1.39749 19.3203 1.1133 19.6696 1.1133ZM17.2892 1.70847C17.6385 1.70847 17.9227 1.99266 17.9227 2.34201C17.9227 2.69137 17.6385 2.97563 17.2892 2.97563C16.9398 2.97563 16.6555 2.69137 16.6555 2.34201C16.6555 1.99266 16.9398 1.70847 17.2892 1.70847ZM14.9087 2.89866C15.2581 2.89866 15.5423 3.18293 15.5423 3.53228C15.5423 3.88163 15.2581 4.1659 14.9087 4.1659C14.5593 4.1659 14.2751 3.88163 14.2751 3.53228C14.2751 3.18293 14.5593 2.89866 14.9087 2.89866ZM13.1233 4.68395C13.4727 4.68395 13.757 4.96822 13.757 5.31757C13.757 5.66692 13.4727 5.95119 13.1233 5.95119C12.774 5.95119 12.4897 5.66692 12.4897 5.31757C12.4897 4.96822 12.774 4.68395 13.1233 4.68395ZM12.4897 12.4589C12.4897 12.1096 12.774 11.8253 13.1233 11.8253C13.4727 11.8253 13.757 12.1096 13.757 12.4589C13.757 12.8083 13.4727 13.0926 13.1233 13.0926C12.774 13.0926 12.4897 12.8083 12.4897 12.4589ZM15.4654 23.7661C15.4654 23.4167 15.7496 23.1325 16.099 23.1325C16.4483 23.1325 16.7326 23.4167 16.7326 23.7661C16.7326 24.1154 16.4483 24.3997 16.099 24.3997C15.7496 24.3997 15.4654 24.1154 15.4654 23.7661ZM17.2506 25.5514C17.2506 25.2021 17.5349 24.9178 17.8843 24.9178C18.2336 24.9178 18.5179 25.2021 18.5179 25.5514C18.5179 25.9008 18.2336 26.1851 17.8843 26.1851C17.5349 26.1851 17.2506 25.9008 17.2506 25.5514ZM18.6381 34.9813C18.0506 36.3052 17.3114 36.8729 17.099 36.8874C16.9672 36.7202 16.8923 35.7911 17.4798 34.4673C18.0674 33.1436 18.8065 32.5758 19.0189 32.5613C19.1507 32.7284 19.2256 33.6575 18.6381 34.9813ZM21.4549 26.1851C21.1056 26.1851 20.8213 25.9008 20.8213 25.5514C20.8213 25.2021 21.1056 24.9178 21.4549 24.9178C21.8043 24.9178 22.0885 25.2021 22.0885 25.5514C22.0885 25.9008 21.8043 26.1851 21.4549 26.1851ZM23.2403 24.3997C22.8909 24.3997 22.6067 24.1154 22.6067 23.7661C22.6067 23.4167 22.8909 23.1325 23.2403 23.1325C23.5896 23.1325 23.8739 23.4167 23.8739 23.7661C23.8739 24.1154 23.5896 24.3997 23.2403 24.3997ZM26.2158 13.0925C25.8665 13.0925 25.5822 12.8082 25.5822 12.4589C25.5822 12.1095 25.8665 11.8253 26.2158 11.8253C26.5652 11.8253 26.8494 12.1095 26.8494 12.4589C26.8494 12.8082 26.5652 13.0925 26.2158 13.0925Z" fill="#9E1256"/>
</g>
</g>
<defs>
<clipPath id="clip0_1466_186">
<rect width="38" height="38" fill="white" transform="translate(0.664062)"/>
</clipPath>
</defs>
</svg>
