<svg width="48" height="49" viewBox="0 0 48 49" fill="none" xmlns="http://www.w3.org/2000/svg">
<g id="fi_2647425">
<g id="Outline">
<path id="Vector" d="M18.0444 23.899C17.5923 23.5985 17.0691 23.4224 16.5273 23.3887C15.9855 23.355 15.4444 23.4647 14.9586 23.7068L14.668 23.8521L15.3387 25.1939L15.6293 25.0485C15.8785 24.9242 16.156 24.8679 16.4339 24.8852C16.7118 24.9025 16.9802 24.9928 17.2121 25.147C17.5639 25.3809 17.9601 25.5401 18.376 25.6147C18.7918 25.6894 19.2186 25.6778 19.6299 25.5809C19.6504 25.6657 19.6728 25.7496 19.698 25.8326L19.5019 26.0972C19.4536 26.1669 19.3862 26.2213 19.3079 26.2537C19.2295 26.2861 19.1435 26.2953 19.0601 26.2802C18.7077 26.2247 18.3468 26.2676 18.0172 26.4042C17.6877 26.5408 17.4023 26.7657 17.1925 27.0542L16.7586 27.6399L17.9638 28.5328L18.3977 27.9471C18.446 27.8774 18.5133 27.823 18.5917 27.7906C18.6701 27.7581 18.7561 27.7489 18.8396 27.7641C19.1271 27.8097 19.4212 27.7896 19.6998 27.7054C19.9784 27.6212 20.2344 27.475 20.4486 27.2778C20.4659 27.3001 20.4832 27.3224 20.5009 27.3443C20.402 27.5855 20.245 27.7985 20.044 27.9645C19.8429 28.1304 19.604 28.2442 19.3484 28.2956C18.8163 28.4027 18.3218 28.6483 17.9148 29.0075C17.5079 29.3668 17.2029 29.827 17.0306 30.3418L16.9274 30.6501L18.3506 31.1243L18.4537 30.8162C18.542 30.552 18.6984 30.3158 18.9071 30.1315C19.1159 29.9471 19.3696 29.8211 19.6426 29.7661C20.0568 29.6825 20.4495 29.5148 20.7962 29.2732C21.1429 29.0316 21.4363 28.7215 21.6582 28.3619C21.7324 28.4074 21.808 28.4507 21.8851 28.4917L21.9338 28.8188C21.949 28.9022 21.9398 28.9883 21.9074 29.0666C21.8749 29.145 21.8206 29.2123 21.7509 29.2606C21.4623 29.4704 21.2373 29.7559 21.1008 30.0855C20.9642 30.4151 20.9214 30.7761 20.9771 31.1285L21.0843 31.8494L22.568 31.6286L22.4607 30.9077C22.4456 30.8243 22.4548 30.7383 22.4872 30.6599C22.5197 30.5815 22.574 30.5142 22.6437 30.4659C22.8789 30.2949 23.0725 30.073 23.21 29.8168C23.3474 29.5605 23.4252 29.2766 23.4376 28.9861C23.4657 28.9896 23.4939 28.9938 23.5227 28.9969C23.6226 29.2372 23.6618 29.4983 23.6368 29.7573C23.6118 30.0163 23.5234 30.2651 23.3794 30.4818C23.0788 30.9339 22.9028 31.4572 22.8691 31.9989C22.8353 32.5407 22.9451 33.0818 23.1872 33.5676L23.3325 33.8582L24.6743 33.1876L24.5289 32.8969C24.4047 32.6477 24.3484 32.3702 24.3657 32.0923C24.383 31.8144 24.4733 31.546 24.6274 31.3141C24.8611 30.9622 25.0201 30.5661 25.0944 30.1503C25.1688 29.7344 25.1571 29.3077 25.0599 28.8966C25.1452 28.876 25.2297 28.8536 25.313 28.8282L25.5777 29.0243C25.6474 29.0726 25.7017 29.1399 25.7342 29.2183C25.7666 29.2967 25.7758 29.3827 25.7606 29.4661C25.705 29.8186 25.7479 30.1794 25.8845 30.509C26.021 30.8386 26.246 31.124 26.5346 31.3338L27.1202 31.7677L28.0131 30.5625L27.4274 30.1286C27.3577 30.0803 27.3034 30.0129 27.2709 29.9346C27.2385 29.8562 27.2293 29.7702 27.2444 29.6867C27.2899 29.3992 27.2697 29.1052 27.1855 28.8265C27.1013 28.5479 26.9552 28.2919 26.7582 28.0777C26.7804 28.0604 26.8027 28.0431 26.8246 28.0254C27.0658 28.1243 27.2788 28.2813 27.4448 28.4823C27.6107 28.6834 27.7245 28.9223 27.7759 29.1779C27.883 29.71 28.1286 30.2045 28.4879 30.6115C28.8471 31.0184 29.3073 31.3234 29.8221 31.4957L30.1304 31.5989L30.6046 30.1757L30.2965 30.0726C30.0323 29.9844 29.7961 29.8279 29.6118 29.6192C29.4274 29.4104 29.3014 29.1567 29.2465 28.8837C29.1629 28.4695 28.9951 28.0768 28.7535 27.7301C28.512 27.3834 28.2018 27.09 27.8422 26.8681C27.8877 26.7939 27.931 26.7182 27.972 26.6412L28.2991 26.5925C28.3825 26.5774 28.4686 26.5865 28.5469 26.619C28.6253 26.6514 28.6926 26.7057 28.7409 26.7754C28.9204 27.0226 29.156 27.2236 29.4283 27.3621C29.7006 27.5005 30.0019 27.5724 30.3073 27.5717C30.4083 27.5716 30.509 27.5641 30.6088 27.5492L31.3297 27.442L31.1089 25.9583L30.3881 26.0656C30.3046 26.0808 30.2185 26.0717 30.1402 26.0392C30.0618 26.0068 29.9944 25.9524 29.9462 25.8826C29.7752 25.6474 29.5533 25.4538 29.2971 25.3163C29.0409 25.1789 28.7569 25.1011 28.4664 25.0887C28.4699 25.0606 28.4742 25.0324 28.4772 25.0037C28.7175 24.9037 28.9786 24.8644 29.2376 24.8894C29.4966 24.9144 29.7455 25.0028 29.9622 25.1469C30.4142 25.4475 30.9375 25.6235 31.4792 25.6572C32.021 25.691 32.5621 25.5812 33.0479 25.3391L33.3386 25.1938L32.6679 23.852L32.3772 23.9974C32.1281 24.1217 31.8505 24.178 31.5726 24.1607C31.2947 24.1434 31.0263 24.0531 30.7945 23.8989C30.4426 23.6652 30.0464 23.5062 29.6306 23.4319C29.2147 23.3575 28.788 23.3692 28.3769 23.4664C28.3564 23.3812 28.3339 23.2966 28.3085 23.2133L28.5046 22.9487C28.5529 22.8789 28.6202 22.8245 28.6986 22.792C28.7769 22.7596 28.863 22.7505 28.9465 22.7657C29.2989 22.8213 29.6598 22.7785 29.9894 22.6419C30.3189 22.5053 30.6044 22.2803 30.8142 21.9917L31.248 21.4061L30.0428 20.5132L29.6089 21.0989C29.5606 21.1686 29.4932 21.2229 29.4149 21.2553C29.3365 21.2878 29.2505 21.297 29.1671 21.2819C28.8796 21.2364 28.5855 21.2566 28.3069 21.3408C28.0282 21.425 27.7722 21.5711 27.558 21.7682C27.5407 21.7459 27.5234 21.7236 27.5057 21.7017C27.6046 21.4605 27.7616 21.2475 27.9626 21.0815C28.1637 20.9156 28.4026 20.8018 28.6582 20.7504C29.1903 20.6433 29.6848 20.3977 30.0918 20.0384C30.4987 19.6792 30.8038 19.219 30.9761 18.7042L31.0792 18.3959L29.6561 17.9217L29.5529 18.2298C29.4647 18.494 29.3083 18.7302 29.0995 18.9145C28.8907 19.0989 28.637 19.2249 28.364 19.2798C27.9498 19.3634 27.5572 19.5312 27.2104 19.7728C26.8637 20.0143 26.5703 20.3245 26.3484 20.6841C26.2742 20.6387 26.1986 20.5954 26.1215 20.5543L26.0728 20.2272C26.0577 20.1438 26.0668 20.0577 26.0993 19.9794C26.1317 19.901 26.186 19.8337 26.2557 19.7854C26.5443 19.5756 26.7693 19.2901 26.9058 18.9605C27.0424 18.6308 27.0852 18.2699 27.0296 17.9175L26.9223 17.1966L25.4386 17.4174L25.5459 18.1382C25.561 18.2217 25.5518 18.3077 25.5194 18.3861C25.4869 18.4644 25.4326 18.5318 25.3629 18.5801C25.1277 18.7511 24.9341 18.973 24.7967 19.2292C24.6592 19.4854 24.5814 19.7694 24.569 20.0599C24.5409 20.0564 24.5128 20.0522 24.484 20.0491C24.384 19.8088 24.3448 19.5477 24.3698 19.2887C24.3948 19.0297 24.4832 18.7808 24.6272 18.5642C24.9278 18.1121 25.1038 17.5888 25.1376 17.0471C25.1713 16.5053 25.0616 15.9642 24.8194 15.4784L24.6741 15.1877L23.3323 15.8584L23.4777 16.1491C23.6019 16.3982 23.6582 16.6758 23.6409 16.9537C23.6236 17.2316 23.5334 17.5 23.3792 17.7318C23.1455 18.0838 22.9866 18.4799 22.9122 18.8957C22.8378 19.3116 22.8496 19.7383 22.9467 20.1494C22.8614 20.17 22.777 20.1924 22.6936 20.2178L22.429 20.0217C22.3592 19.9734 22.3049 19.9061 22.2724 19.8277C22.24 19.7493 22.2308 19.6633 22.2461 19.5798C22.3016 19.2274 22.2587 18.8665 22.1222 18.537C21.9856 18.2074 21.7606 17.922 21.4721 17.7122L20.8864 17.2783L19.9935 18.4835L20.5792 18.9174C20.6489 18.9657 20.7032 19.033 20.7357 19.1114C20.7682 19.1898 20.7773 19.2758 20.7622 19.3592C20.7167 19.6468 20.7369 19.9408 20.8211 20.2194C20.9053 20.4981 21.0514 20.7541 21.2485 20.9683C21.2262 20.9856 21.2039 21.0029 21.182 21.0206C20.9408 20.9217 20.7278 20.7647 20.5618 20.5637C20.3959 20.3626 20.2821 20.1237 20.2307 19.8681C20.1236 19.336 19.878 18.8415 19.5188 18.4345C19.1595 18.0276 18.6993 17.7225 18.1845 17.5502L17.8762 17.4471L17.402 18.8702L17.7102 18.9734C17.9743 19.0616 18.2105 19.218 18.3949 19.4268C18.5792 19.6356 18.7052 19.8893 18.7602 20.1623C18.8438 20.5765 19.0115 20.9691 19.2531 21.3159C19.4947 21.6626 19.8048 21.956 20.1644 22.1779C20.119 22.2521 20.0757 22.3277 20.0346 22.4048L19.7075 22.4535C19.6241 22.4686 19.538 22.4595 19.4597 22.427C19.3814 22.3946 19.314 22.3403 19.2657 22.2706C19.0559 21.982 18.7704 21.757 18.4408 21.6204C18.1112 21.4839 17.7502 21.4411 17.3978 21.4967L16.6769 21.604L16.8977 23.0877L17.6186 22.9804C17.702 22.9653 17.788 22.9745 17.8664 23.0069C17.9448 23.0394 18.0121 23.0937 18.0604 23.1634C18.2314 23.3986 18.4533 23.5921 18.7095 23.7296C18.9658 23.867 19.2497 23.9448 19.5402 23.9572C19.5367 23.9853 19.5325 24.0135 19.5294 24.0423C19.2891 24.1423 19.0279 24.1816 18.7689 24.1566C18.5099 24.1316 18.261 24.0431 18.0444 23.899ZM24.0033 21.523C24.5967 21.523 25.1767 21.6989 25.67 22.0286C26.1634 22.3582 26.5479 22.8268 26.775 23.3749C27.002 23.9231 27.0614 24.5263 26.9457 25.1083C26.8299 25.6902 26.5442 26.2248 26.1246 26.6443C25.7051 27.0639 25.1705 27.3496 24.5886 27.4653C24.0066 27.5811 23.4034 27.5217 22.8553 27.2946C22.3071 27.0676 21.8385 26.6831 21.5089 26.1897C21.1793 25.6964 21.0033 25.1163 21.0033 24.523C21.0042 23.7276 21.3206 22.9651 21.883 22.4027C22.4454 21.8402 23.2079 21.5239 24.0033 21.523Z" fill="#9E1256"/>
<path id="Vector_2" d="M12 24.5156C12.0003 27.2201 12.9144 29.8452 14.5938 31.965C16.2733 34.0849 18.6197 35.5752 21.2524 36.1942C23.8851 36.8131 26.6498 36.5245 29.0979 35.3751C31.546 34.2257 33.534 32.2829 34.7394 29.8618C35.9447 27.4408 36.2969 24.6835 35.7386 22.0373C35.1803 19.391 33.7443 17.011 31.6637 15.2832C29.583 13.5555 26.9796 12.5813 24.2758 12.5188C21.572 12.4563 18.9264 13.3091 16.7681 14.9389L17.6729 16.1352C19.4921 14.7534 21.7155 14.0085 24 14.0156C26.3894 14.0158 28.7073 14.8309 30.5708 16.3264C32.4343 17.8219 33.732 19.9082 34.2495 22.2409C34.767 24.5736 34.4734 27.013 33.4172 29.1562C32.3609 31.2995 30.6052 33.0184 28.4401 34.029C26.275 35.0396 23.8299 35.2814 21.5087 34.7146C19.1875 34.1478 17.1291 32.8062 15.6734 30.9114C14.2177 29.0167 13.4519 26.682 13.5024 24.2932C13.5528 21.9043 14.4166 19.6042 15.951 17.7726L14.8016 16.8087C12.9926 18.9695 12.0009 21.6975 12 24.5156Z" fill="#9E1256"/>
<path id="Vector_3" d="M24.0001 45.5181C20.6339 45.5225 17.3162 44.7156 14.328 43.1658C11.3398 41.616 8.76902 39.3689 6.83348 36.6148C7.18295 36.2685 7.4092 35.8171 7.47754 35.3298C7.54589 34.8426 7.45256 34.3464 7.21187 33.9172C6.97117 33.4881 6.59639 33.1498 6.14498 32.954C5.69356 32.7583 5.19042 32.716 4.71267 32.8337C3.2765 29.4972 2.72954 25.8454 3.12513 22.2345C3.52073 18.6236 4.84538 15.1769 6.96989 12.2304C7.63152 12.544 8.3848 12.6055 9.08853 12.4034C9.79226 12.2013 10.3981 11.7495 10.7925 11.1326C11.1869 10.5157 11.3428 9.77617 11.2309 9.05259C11.1191 8.32901 10.7471 7.67108 10.1848 7.20213C9.62255 6.73317 8.90852 6.4854 8.17661 6.50526C7.44471 6.52512 6.74517 6.81124 6.20913 7.30999C5.6731 7.80874 5.33738 8.48588 5.26491 9.21446C5.19243 9.94304 5.38818 10.673 5.81545 11.2676C3.48649 14.4655 2.04115 18.2205 1.62496 22.1546C1.20877 26.0887 1.83641 30.063 3.4447 33.6774C3.19593 34.012 3.04506 34.4091 3.00895 34.8245C2.97283 35.2398 3.05288 35.657 3.24017 36.0295C3.42746 36.402 3.71461 36.715 4.06954 36.9338C4.42448 37.1525 4.83323 37.2682 5.25014 37.2681C5.31867 37.2681 5.38645 37.2645 5.45348 37.2587C7.23794 39.8559 9.54802 42.0494 12.2341 43.6971C14.9202 45.3448 17.9225 46.41 21.0464 46.8236C24.1703 47.2372 27.3463 46.9901 30.3686 46.0982C33.391 45.2063 36.1923 43.6896 38.5912 41.6462L37.618 40.5049C33.8185 43.7407 28.9909 45.5179 24.0001 45.5181ZM8.25014 8.01806C8.54681 8.01806 8.83682 8.10603 9.0835 8.27085C9.33017 8.43567 9.52243 8.66994 9.63596 8.94403C9.74949 9.21812 9.7792 9.51972 9.72132 9.81069C9.66344 10.1017 9.52058 10.3689 9.3108 10.5787C9.10102 10.7885 8.83375 10.9314 8.54278 10.9892C8.2518 11.0471 7.9502 11.0174 7.67612 10.9039C7.40203 10.7903 7.16776 10.5981 7.00294 10.3514C6.83811 10.1047 6.75014 9.81473 6.75014 9.51806C6.75061 9.12038 6.9088 8.73912 7.19 8.45792C7.4712 8.17672 7.85246 8.01853 8.25014 8.01806ZM4.50014 35.0181C4.50014 34.8697 4.54413 34.7247 4.62654 34.6014C4.70895 34.478 4.82608 34.3819 4.96313 34.3252C5.10017 34.2684 5.25097 34.2535 5.39646 34.2825C5.54194 34.3114 5.67558 34.3828 5.78047 34.4877C5.88536 34.5926 5.95679 34.7263 5.98573 34.8717C6.01467 35.0172 5.99982 35.168 5.94305 35.3051C5.88628 35.4421 5.79015 35.5593 5.66682 35.6417C5.54348 35.7241 5.39848 35.7681 5.25014 35.7681C5.0513 35.7678 4.86066 35.6887 4.72006 35.5481C4.57945 35.4075 4.50036 35.2169 4.50014 35.0181Z" fill="#9E1256"/>
<path id="Vector_4" d="M46.5027 24.5157C46.5081 21.2946 45.8192 18.1102 44.4829 15.1794C43.1466 12.2486 41.1943 9.64019 38.759 7.53194C39.003 7.05127 39.0662 6.49893 38.937 5.97557C38.8079 5.45221 38.495 4.99266 38.0554 4.68067C37.6158 4.36868 37.0788 4.225 36.5421 4.27583C36.0055 4.32665 35.5049 4.5686 35.1317 4.95757C31.5249 2.90728 27.4217 1.89335 23.275 2.02768C19.1283 2.16201 15.0994 3.43938 11.6328 5.71882L12.4584 6.97113C15.7137 4.83095 19.4998 3.63777 23.394 3.52481C27.2881 3.41186 31.137 4.38358 34.5109 6.33147C34.5059 6.39241 34.5028 6.45382 34.5028 6.51597C34.5025 6.89098 34.5961 7.2601 34.7749 7.58972C34.9538 7.91933 35.2122 8.19899 35.5267 8.40323C35.8412 8.60747 36.2018 8.72981 36.5757 8.7591C36.9495 8.7884 37.3248 8.72373 37.6673 8.57097C41.4065 11.7759 43.9007 16.1927 44.7142 21.0498C45.5277 25.9068 44.6087 30.8953 42.1179 35.1437C41.417 34.931 40.6626 34.9813 39.9962 35.2852C39.3298 35.589 38.7971 36.1256 38.4981 36.7942C38.199 37.4628 38.1542 38.2175 38.3719 38.9168C38.5896 39.6161 39.055 40.212 39.6807 40.5926C40.3064 40.9733 41.0495 41.1127 41.7706 40.9845C42.4918 40.8564 43.1414 40.4696 43.5977 39.8967C44.0539 39.3237 44.2855 38.604 44.249 37.8725C44.2125 37.141 43.9104 36.4479 43.3993 35.9233C45.4349 32.4665 46.5065 28.5273 46.5027 24.5157ZM36.0027 6.51569C36.0027 6.36736 36.0467 6.22235 36.1291 6.09901C36.2116 5.97568 36.3287 5.87955 36.4657 5.82278C36.6028 5.76602 36.7536 5.75116 36.8991 5.7801C37.0446 5.80904 37.1782 5.88047 37.2831 5.98536C37.388 6.09025 37.4594 6.22389 37.4883 6.36937C37.5173 6.51486 37.5024 6.66566 37.4457 6.8027C37.3889 6.93975 37.2928 7.05688 37.1694 7.13929C37.0461 7.2217 36.9011 7.26569 36.7527 7.26569C36.5539 7.26547 36.3633 7.18638 36.2227 7.04577C36.0821 6.90517 36.003 6.71454 36.0027 6.51569ZM41.2527 39.5157C40.9561 39.5157 40.6661 39.4277 40.4194 39.2629C40.1727 39.0981 39.9805 38.8638 39.8669 38.5897C39.7534 38.3156 39.7237 38.014 39.7816 37.7231C39.8394 37.4321 39.9823 37.1648 40.1921 36.955C40.4019 36.7453 40.6691 36.6024 40.9601 36.5445C41.2511 36.4866 41.5527 36.5163 41.8268 36.6299C42.1009 36.7434 42.3351 36.9357 42.5 37.1823C42.6648 37.429 42.7527 37.719 42.7527 38.0157C42.7523 38.4134 42.5941 38.7946 42.3129 39.0758C42.0317 39.357 41.6504 39.5152 41.2527 39.5157Z" fill="#9E1256"/>
<path id="Vector_5" d="M38.25 21.5156C38.25 21.9606 38.382 22.3956 38.6292 22.7657C38.8764 23.1357 39.2278 23.4241 39.639 23.5944C40.0501 23.7647 40.5025 23.8092 40.939 23.7224C41.3754 23.6356 41.7763 23.4213 42.091 23.1066C42.4057 22.7919 42.6199 22.391 42.7068 21.9546C42.7936 21.5181 42.749 21.0657 42.5787 20.6546C42.4084 20.2435 42.12 19.8921 41.75 19.6448C41.38 19.3976 40.945 19.2656 40.5 19.2656C40.4787 19.2656 40.4576 19.2667 40.4365 19.2672C39.3176 15.7859 37.124 12.7489 34.1707 10.5925C31.2175 8.4361 27.6567 7.27136 24 7.26562C14.4883 7.26563 6.75 15.0039 6.75 24.5156C6.75113 27.7614 7.66723 30.9412 9.39321 33.69C11.1192 36.4389 13.5851 38.6455 16.5081 40.0568C16.5033 40.1258 16.5 40.1953 16.5 40.2656C16.4999 40.9356 16.724 41.5863 17.1367 42.114C17.5495 42.6417 18.127 43.0161 18.7772 43.1774C19.4275 43.3386 20.113 43.2776 20.7245 43.004C21.336 42.7303 21.8383 42.2598 22.1512 41.6675C22.7653 41.7328 23.3825 41.7656 24 41.7656C28.4564 41.7655 32.7398 40.0409 35.9529 36.953C39.166 33.8651 41.0594 29.6536 41.2366 25.2008L39.7377 25.1422C39.5757 29.2076 37.8468 33.0527 34.9131 35.8718C31.9795 38.691 28.0687 40.2655 24 40.2656C23.4978 40.2656 22.9954 40.2398 22.4981 40.1929C22.483 39.5534 22.2637 38.9355 21.8723 38.4295C21.4809 37.9235 20.938 37.5559 20.3228 37.3806C19.7076 37.2052 19.0525 37.2312 18.4531 37.4547C17.8538 37.6782 17.3416 38.0876 16.9915 38.623C14.3667 37.317 12.1581 35.3049 10.6139 32.8128C9.06972 30.3207 8.25108 27.4474 8.25 24.5156C8.25 15.831 15.3154 8.76562 24 8.76562C27.3543 8.7708 30.6198 9.84414 33.323 11.83C36.0262 13.8159 38.0268 16.6112 39.0345 19.8105C38.7884 20.0213 38.5909 20.2828 38.4555 20.5771C38.3201 20.8715 38.25 21.1916 38.25 21.5156ZM19.5 38.7656C19.7967 38.7656 20.0867 38.8536 20.3334 39.0184C20.58 39.1832 20.7723 39.4175 20.8858 39.6916C20.9994 39.9657 21.0291 40.2673 20.9712 40.5583C20.9133 40.8492 20.7704 41.1165 20.5607 41.3263C20.3509 41.5361 20.0836 41.6789 19.7926 41.7368C19.5017 41.7947 19.2001 41.765 18.926 41.6514C18.6519 41.5379 18.4176 41.3457 18.2528 41.099C18.088 40.8523 18 40.5623 18 40.2656C18.0005 39.8679 18.1587 39.4867 18.4399 39.2055C18.7211 38.9243 19.1023 38.7661 19.5 38.7656ZM41.25 21.5156C41.25 21.664 41.206 21.809 41.1236 21.9323C41.0412 22.0556 40.9241 22.1518 40.787 22.2085C40.65 22.2653 40.4992 22.2802 40.3537 22.2512C40.2082 22.2223 40.0746 22.1508 39.9697 22.046C39.8648 21.9411 39.7934 21.8074 39.7644 21.6619C39.7355 21.5165 39.7503 21.3657 39.8071 21.2286C39.8639 21.0916 39.96 20.9744 40.0833 20.892C40.2067 20.8096 40.3517 20.7656 40.5 20.7656C40.6988 20.7658 40.8895 20.8449 41.0301 20.9855C41.1707 21.1261 41.2498 21.3168 41.25 21.5156Z" fill="#9E1256"/>
</g>
</g>
</svg>
