<svg width="38" height="38" viewBox="0 0 38 38" fill="none" xmlns="http://www.w3.org/2000/svg">
<g id="fi_706482">
<g id="Group">
<g id="Group_2">
<path id="Vector" d="M20.3511 12.1034L27.4046 5.54704C27.4104 5.54162 27.4156 5.53583 27.4212 5.53019C27.4251 5.52618 27.4291 5.52232 27.433 5.51824C27.4486 5.50154 27.4632 5.48417 27.4765 5.46606C27.4781 5.46376 27.4796 5.46131 27.4812 5.45901C27.4938 5.44127 27.5051 5.42302 27.5154 5.40424C27.5166 5.40209 27.5182 5.40023 27.5193 5.398C27.52 5.39674 27.5204 5.39533 27.5211 5.39407C27.5319 5.37344 27.5414 5.35228 27.5495 5.33061C27.5509 5.32683 27.5521 5.32297 27.5534 5.31918C27.5603 5.29981 27.566 5.28007 27.5707 5.26011C27.5715 5.25669 27.5726 5.25328 27.5733 5.24986C27.578 5.22804 27.5812 5.206 27.5833 5.18381C27.5837 5.17876 27.584 5.17379 27.5844 5.16874C27.5858 5.14781 27.5863 5.12681 27.5853 5.1058C27.5853 5.10395 27.5853 5.10217 27.5853 5.10031C27.5841 5.07768 27.5812 5.05511 27.5773 5.03262C27.5764 5.02802 27.5755 5.02342 27.5747 5.01882C27.5658 4.97422 27.5514 4.93043 27.5315 4.8882C27.5292 4.88337 27.5269 4.87862 27.5245 4.87387C27.514 4.85324 27.5027 4.8329 27.4896 4.81331L24.4269 0.252492C24.4236 0.247668 24.4197 0.243437 24.4164 0.238688C24.4077 0.226664 24.399 0.214937 24.3896 0.20373C24.3841 0.197199 24.3783 0.191039 24.3725 0.184805C24.3619 0.173301 24.3511 0.16202 24.3397 0.151406C24.3344 0.146582 24.3289 0.142129 24.3235 0.137527C24.3107 0.126617 24.2978 0.116004 24.2842 0.106281C24.2798 0.10309 24.275 0.10027 24.2704 0.0972266C24.2552 0.0870586 24.2399 0.0772617 24.2238 0.0686523C24.2209 0.0670938 24.218 0.0659062 24.2151 0.0644219C24.1357 0.0233047 24.0469 0 23.9545 0H14.0505C14.0253 0 14.0003 0.00170703 13.9756 0.00497266C13.8125 0.0247148 13.6647 0.114223 13.5718 0.252492L10.5092 4.81331C10.496 4.8329 10.4848 4.85331 10.4743 4.87395C10.4719 4.8787 10.4695 4.88337 10.4673 4.8882C10.4474 4.93043 10.433 4.97429 10.4241 5.01889C10.4232 5.02342 10.4223 5.02795 10.4215 5.03255C10.4176 5.05504 10.4147 5.0776 10.4135 5.10031C10.4134 5.10209 10.4135 5.10395 10.4134 5.1058C10.4125 5.12688 10.413 5.14789 10.4144 5.16882C10.4148 5.17379 10.4151 5.17869 10.4155 5.18373C10.4176 5.20593 10.4208 5.22804 10.4254 5.24986C10.4262 5.25328 10.4272 5.25669 10.428 5.26011C10.4327 5.28007 10.4385 5.29981 10.4453 5.31926C10.4467 5.32304 10.4478 5.32683 10.4493 5.33054C10.4574 5.35221 10.4669 5.37336 10.4778 5.39407C10.4784 5.39533 10.4788 5.39674 10.4796 5.398C10.4807 5.40016 10.4822 5.40201 10.4834 5.40424C10.4937 5.42302 10.5051 5.44127 10.5176 5.45901C10.5193 5.46131 10.5207 5.46376 10.5224 5.46606C10.5357 5.48417 10.5502 5.50154 10.5659 5.51824C10.5697 5.52232 10.5737 5.52625 10.5777 5.53019C10.5832 5.53583 10.5884 5.54162 10.5942 5.54704L17.6478 12.1034C11.9676 12.7744 7.54688 17.6182 7.54688 23.4758C7.54688 29.7908 12.6844 34.9284 18.9994 34.9284C25.3144 34.9284 30.452 29.7908 30.452 23.4758C30.452 17.6182 26.0313 12.7744 20.3511 12.1034ZM20.243 10.6505L21.8932 5.69918H25.5697L20.243 10.6505ZM19.0008 10.7801L17.3161 5.69926H20.6941L19.0008 10.7801ZM24.006 1.66643L25.9501 4.56156H22.4346L24.006 1.66643ZM22.9981 1.13844L21.4781 3.93894L19.9581 1.13844H22.9981ZM20.5216 4.56156H17.4834L19.0025 1.76284L20.5216 4.56156ZM18.047 1.13844L16.527 3.93901L15.007 1.13844H18.047ZM13.9962 1.66124L15.5704 4.56156H12.0487L13.9962 1.66124ZM12.429 5.69926H16.1174L17.7608 10.6553L12.429 5.69926ZM18.9993 33.7906C13.3117 33.7906 8.6845 29.1634 8.6845 23.4758C8.6845 17.7882 13.3117 13.1609 18.9993 13.1609C24.687 13.1609 29.3142 17.7882 29.3142 23.4758C29.3142 29.1634 24.687 33.7906 18.9993 33.7906Z" fill="#9E1256"/>
</g>
</g>
<g id="Group_3">
<g id="Group_4">
<path id="Vector_2" d="M24.7021 10.1139C24.4131 9.99047 24.0789 10.1248 23.9556 10.4136C23.8321 10.7025 23.9663 11.0367 24.2553 11.1602C29.1953 13.2705 32.3873 18.1044 32.3873 23.4751C32.3873 30.8565 26.3822 36.8617 19.0008 36.8617C11.6194 36.8617 5.61426 30.8564 5.61426 23.475C5.61426 18.0942 8.81465 13.2567 13.7676 11.1511C14.0566 11.0281 14.1914 10.6942 14.0685 10.4051C13.9455 10.1158 13.6115 9.98119 13.3225 10.1041C7.94874 12.3887 4.47656 17.6371 4.47656 23.475C4.47656 31.4838 10.9921 37.9993 19.0008 37.9993C27.0095 37.9993 33.525 31.4838 33.525 23.475C33.525 17.648 30.0618 12.4035 24.7021 10.1139Z" fill="#9E1256"/>
</g>
</g>
</g>
</svg>
