<svg width="39" height="38" viewBox="0 0 39 38" fill="none" xmlns="http://www.w3.org/2000/svg">
<g id="fi_7082402" clip-path="url(#clip0_1466_180)">
<g id="Group">
<path id="Vector" d="M26.9259 10.3662C27.99 10.3662 28.8556 9.50059 28.8556 8.43652C28.8556 7.37245 27.99 6.50683 26.9259 6.50683C25.8618 6.50683 24.9962 7.37245 24.9962 8.43652C24.9962 9.50059 25.8618 10.3662 26.9259 10.3662ZM26.9259 7.62011C27.376 7.62011 27.7423 7.98638 27.7423 8.43652C27.7423 8.88666 27.376 9.25293 26.9259 9.25293C26.4758 9.25293 26.1095 8.88666 26.1095 8.43652C26.1095 7.98638 26.4758 7.62011 26.9259 7.62011ZM19.3281 7.86719C20.3922 7.86719 21.2578 7.00157 21.2578 5.9375C21.2578 4.87343 20.3922 4.00781 19.3281 4.00781C18.2641 4.00781 17.3984 4.87343 17.3984 5.9375C17.3984 7.00157 18.2641 7.86719 19.3281 7.86719ZM19.3281 5.12109C19.7783 5.12109 20.1445 5.48736 20.1445 5.9375C20.1445 6.38764 19.7783 6.75391 19.3281 6.75391C18.878 6.75391 18.5117 6.38764 18.5117 5.9375C18.5117 5.48736 18.878 5.12109 19.3281 5.12109ZM19.3281 8.93586C13.7787 8.93586 9.26399 13.4506 9.26399 19C9.26399 24.5494 13.7787 29.0641 19.3281 29.0641C24.8775 29.0641 29.3923 24.5494 29.3923 19C29.3923 13.4506 24.8775 8.93586 19.3281 8.93586ZM19.3281 27.9509C14.3926 27.9509 10.3773 23.9355 10.3773 19C10.3773 14.0645 14.3926 10.0491 19.3281 10.0491C24.2636 10.0491 28.279 14.0645 28.279 19C28.279 23.9355 24.2636 27.9509 19.3281 27.9509ZM31.8711 21.135C30.807 21.135 29.9414 22.0007 29.9414 23.0647C29.9414 24.1288 30.807 24.9944 31.8711 24.9944C32.9352 24.9944 33.8008 24.1288 33.8008 23.0647C33.8008 22.0007 32.9352 21.135 31.8711 21.135ZM31.8711 23.8811C31.421 23.8811 31.0547 23.5149 31.0547 23.0647C31.0547 22.6146 31.421 22.2483 31.8711 22.2483C32.3212 22.2483 32.6875 22.6146 32.6875 23.0647C32.6875 23.5149 32.3212 23.8811 31.8711 23.8811ZM21.5333 14.6688C21.6805 14.816 21.8762 14.897 22.0844 14.897C22.2926 14.897 22.4884 14.8159 22.6354 14.6688L23.4751 13.8292L23.4753 13.829C23.7788 13.5252 23.7788 13.031 23.4751 12.727L22.6355 11.8873C22.3317 11.5837 21.8375 11.5835 21.5333 11.8873L20.6937 12.727C20.5465 12.8741 20.4655 13.0699 20.4655 13.2781C20.4655 13.4862 20.5465 13.6819 20.6937 13.8292L21.5333 14.6688ZM22.0844 12.9106L22.4518 13.278L22.0844 13.6453L21.7171 13.278L22.0844 12.9106ZM21.6144 16.6672C23.0631 16.9265 24.5582 16.2896 25.39 15.0306C25.5595 14.7741 25.4889 14.4288 25.2324 14.2593C24.9759 14.0898 24.6306 14.1604 24.4611 14.4169C23.8765 15.3018 22.8361 15.7549 21.8105 15.5712C20.8492 15.3992 20.0692 14.7024 19.7748 13.7529C19.6839 13.4593 19.3723 13.2953 19.0784 13.386C18.7848 13.4771 18.6205 13.789 18.7115 14.0826C19.1295 15.4311 20.2419 16.4215 21.6144 16.6672ZM21.3212 17.7145C20.8196 18.0006 20.4935 18.4354 20.2111 18.8343C20.2605 18.6276 20.2875 18.4123 20.2875 18.1906C20.2875 16.6643 19.0457 15.4224 17.5193 15.4224C15.993 15.4224 14.7512 16.6642 14.7512 18.1906C14.7512 18.4981 15.0004 18.7472 15.3078 18.7472C15.6153 18.7472 15.8645 18.4981 15.8645 18.1906C15.8645 17.278 16.6068 16.5357 17.5193 16.5357C18.4319 16.5357 19.1742 17.278 19.1742 18.1906C19.1742 19.1031 18.4319 19.8454 17.5193 19.8454C17.2119 19.8454 16.9627 20.0946 16.9627 20.4021C16.9627 20.7096 17.2119 20.9587 17.5193 20.9587C18.4319 20.9587 19.1742 21.7011 19.1742 22.6136C19.1742 23.5748 18.1784 24.1941 17.4596 24.2717C16.4009 24.3853 15.2961 23.3681 15.1334 22.4547C15.0798 22.1535 15.1351 21.8563 15.1937 21.5415C15.2857 21.0475 15.4002 20.4326 14.9932 19.837C14.7468 19.4765 14.374 19.2139 13.8848 19.0569C13.5921 18.9627 13.2786 19.1239 13.1846 19.4166C13.0906 19.7093 13.2516 20.0228 13.5443 20.1168C13.7923 20.1965 13.9705 20.3137 14.074 20.4652C14.215 20.6713 14.1796 20.9062 14.0992 21.3377C14.0319 21.6992 13.9481 22.1491 14.0374 22.65C14.1612 23.3454 14.6117 24.0754 15.2425 24.6024C15.9349 25.1809 16.759 25.4671 17.579 25.3787C18.2117 25.3104 18.8605 25.0198 19.3592 24.5815C19.9578 24.0553 20.2874 23.3565 20.2874 22.6137C20.2874 21.9536 20.0549 21.3471 19.6678 20.8708C20.3389 20.5849 20.7219 20.0421 21.0622 19.5592C21.3138 19.2021 21.5513 18.8649 21.8725 18.6818C22.5035 18.322 23.3817 18.4641 23.8302 18.9987C24.1828 19.419 24.385 20.0461 24.385 20.7195C24.385 21.8959 23.7504 22.8896 22.9994 22.8896C22.4764 22.8896 21.9863 22.4017 21.7508 21.6466C21.6593 21.3532 21.3472 21.1895 21.0536 21.281C20.7602 21.3726 20.5964 21.6846 20.688 21.9782C21.0717 23.2081 21.979 24.0029 22.9994 24.0029C24.4006 24.0029 25.4983 22.5606 25.4983 20.7195C25.4983 19.775 25.2088 18.9097 24.683 18.2832C23.8921 17.3402 22.4153 17.0907 21.3212 17.7145ZM32.7632 5.56492C29.1746 1.97637 24.4032 0 19.3281 0C14.253 0 9.48175 1.97637 5.89305 5.56492C2.3045 9.15355 0.328125 13.9249 0.328125 19C0.328125 29.3042 8.85668 38 19.3281 38C24.8663 38 30.2197 35.4973 33.7722 31.3442C33.972 31.1106 33.9446 30.7592 33.711 30.5594C33.4776 30.3596 33.1261 30.3869 32.9263 30.6206C32.3377 31.3087 31.7019 31.9446 31.0274 32.5282C30.9696 31.0751 31.3968 29.6456 32.2691 28.4217C33.1626 27.1681 34.4132 26.2771 35.8555 25.8491C35.4627 26.7966 34.9875 27.7123 34.432 28.5858C34.2669 28.8452 34.3435 29.1893 34.6029 29.3543C34.8623 29.5192 35.2064 29.4427 35.3714 29.1833C37.3078 26.1384 38.3281 22.6142 38.3281 19C38.3281 13.9249 36.3518 9.15355 32.7632 5.56492ZM31.0275 5.46918C31.3524 5.75091 31.6689 6.04504 31.976 6.35216C33.6656 8.04182 34.9756 10.01 35.863 12.1531C34.4175 11.7259 33.1642 10.8341 32.2691 9.5783C31.3963 8.35362 30.9691 6.9232 31.0275 5.46918ZM28.7785 3.80705C27.3334 4.33734 25.722 4.36844 24.2312 3.87452C22.7388 3.38007 21.5063 2.43193 20.6797 1.16345C23.5818 1.37884 26.3454 2.28712 28.7785 3.80705ZM6.68028 6.35216C6.98733 6.04512 7.30387 5.75091 7.62873 5.46925C7.68706 6.92327 7.25986 8.35369 6.38705 9.5783C5.49204 10.8341 4.23871 11.7259 2.79323 12.1531C3.68073 10.01 4.99069 8.04182 6.68028 6.35216ZM1.44141 19C1.44141 17.6236 1.59667 16.2711 1.89733 14.962C2.77794 16.1131 3.25427 17.5155 3.25427 19C3.25427 20.4845 2.77794 21.8869 1.89733 23.038C1.59667 21.7289 1.44141 20.3764 1.44141 19ZM7.62873 32.5308C7.30387 32.2491 6.98733 31.955 6.68028 31.6479C4.99062 29.9583 3.68066 27.9901 2.79323 25.847C4.23871 26.2742 5.49204 27.166 6.38705 28.4218C7.25993 29.6464 7.68714 31.0768 7.62873 32.5308ZM9.87778 34.1929C11.323 33.6627 12.9345 33.6317 14.4251 34.1254C15.9175 34.6199 17.15 35.5681 17.9765 36.8365C15.0745 36.6212 12.311 35.7129 9.87778 34.1929ZM20.681 36.8345C21.5076 35.567 22.7395 34.6196 24.2312 34.1255C25.7195 33.6322 27.3282 33.6624 28.7714 34.1904C26.3436 35.7006 23.5733 36.616 20.681 36.8345ZM36.3222 24.5918C34.3361 24.9725 32.5431 26.1194 31.3626 27.7756C30.1869 29.4251 29.7042 31.3966 29.987 33.3631C29.9487 33.3916 29.9101 33.4197 29.8715 33.4479C28.0218 32.554 25.8588 32.4134 23.881 33.0687C21.9264 33.7163 20.2971 35.0975 19.3616 36.8863C19.3522 36.8863 19.3428 36.8866 19.3335 36.8866H19.3222C19.313 36.8866 19.3039 36.8863 19.2947 36.8863C18.3592 35.0975 16.7299 33.7163 14.7753 33.0687C12.7971 32.4132 10.6337 32.554 8.78364 33.4485C8.74542 33.4205 8.70727 33.3923 8.66913 33.3639C8.9522 31.3971 8.46948 29.4253 7.2937 27.7756C6.11325 26.1194 4.3202 24.9725 2.33404 24.5918C2.30613 24.5068 2.27874 24.4217 2.25217 24.3366C3.61898 22.892 4.36755 21.0103 4.36755 19C4.36755 16.9897 3.61898 15.108 2.25225 13.6634C2.27882 13.5784 2.30613 13.4932 2.33411 13.4083C4.3202 13.0275 6.11325 11.8807 7.29378 10.2245C8.46955 8.57479 8.95227 6.60295 8.6692 4.63615C8.70735 4.6078 8.7455 4.57959 8.78372 4.55161C10.2924 5.28118 12.019 5.51505 13.6849 5.21045C13.9873 5.15509 14.1876 4.86511 14.1322 4.5626C14.0769 4.26008 13.7865 4.06051 13.4844 4.11528C12.2706 4.33764 11.0204 4.22616 9.87844 3.80668C12.3114 2.28705 15.0746 1.37891 17.9763 1.16345C17.4116 2.02714 16.6517 2.74988 15.7405 3.28129C15.4749 3.43618 15.3852 3.77699 15.5401 4.04255C15.6949 4.3081 16.0358 4.39791 16.3013 4.24294C17.5875 3.49288 18.6164 2.41567 19.2949 1.11365C19.304 1.11365 19.3131 1.11336 19.3221 1.11336H19.3341C19.3433 1.11336 19.3524 1.11365 19.3615 1.11365C20.2971 2.90255 21.9263 4.28368 23.8809 4.93132C25.859 5.58667 28.0225 5.44602 29.8725 4.55154C29.9108 4.57952 29.949 4.60772 29.9871 4.63607C29.7041 6.6028 30.1867 8.57464 31.3625 10.2244C32.543 11.8806 34.336 13.0275 36.3221 13.4082C36.3501 13.4932 36.3774 13.5783 36.404 13.6634C35.0373 15.108 34.2887 16.9897 34.2887 19C34.2887 21.0102 35.0372 22.8919 36.4039 24.3364C36.3772 24.4217 36.35 24.5069 36.3222 24.5918ZM36.7564 23.0348C35.8773 21.8843 35.402 20.4832 35.402 19C35.402 17.5155 35.8783 16.1132 36.7589 14.9621C37.0596 16.2712 37.2148 17.6236 37.2148 19C37.2148 20.3679 37.0595 21.7204 36.7564 23.0348ZM31.8711 12.8652C30.807 12.8652 29.9414 13.7308 29.9414 14.7948C29.9414 15.8589 30.807 16.7245 31.8711 16.7245C32.9352 16.7245 33.8008 15.8589 33.8008 14.7948C33.8008 13.7308 32.9352 12.8652 31.8711 12.8652ZM31.8711 15.6112C31.421 15.6112 31.0547 15.245 31.0547 14.7948C31.0547 14.3447 31.421 13.9784 31.8711 13.9784C32.3212 13.9784 32.6875 14.3447 32.6875 14.7948C32.6875 15.245 32.3212 15.6112 31.8711 15.6112ZM11.3521 27.7578C10.2881 27.7578 9.42237 28.6234 9.42237 29.6875C9.42237 30.7516 10.2881 31.6172 11.3521 31.6172C12.4161 31.6172 13.2817 30.7516 13.2817 29.6875C13.2817 28.6234 12.4161 27.7578 11.3521 27.7578ZM11.3521 30.5039C10.9019 30.5039 10.5357 30.1376 10.5357 29.6875C10.5357 29.2374 10.9019 28.8711 11.3521 28.8711C11.8022 28.8711 12.1685 29.2374 12.1685 29.6875C12.1685 30.1376 11.8023 30.5039 11.3521 30.5039ZM6.71094 16.5808C7.77494 16.5808 8.64062 15.7152 8.64062 14.6511C8.64062 13.587 7.77494 12.7214 6.71094 12.7214C5.64694 12.7214 4.78125 13.587 4.78125 14.6511C4.78125 15.7152 5.64694 16.5808 6.71094 16.5808ZM6.71094 13.8347C7.16107 13.8347 7.52734 14.2009 7.52734 14.6511C7.52734 15.1012 7.16107 15.4675 6.71094 15.4675C6.2608 15.4675 5.89453 15.1012 5.89453 14.6511C5.89453 14.2009 6.2608 13.8347 6.71094 13.8347ZM6.93359 21.3793C5.86959 21.3793 5.00391 22.2449 5.00391 23.309C5.00391 24.3731 5.86959 25.2387 6.93359 25.2387C7.99759 25.2387 8.86328 24.3731 8.86328 23.309C8.86328 22.2449 7.99759 21.3793 6.93359 21.3793ZM6.93359 24.1254C6.48346 24.1254 6.11719 23.7591 6.11719 23.309C6.11719 22.8589 6.48346 22.4926 6.93359 22.4926C7.38373 22.4926 7.75 22.8589 7.75 23.309C7.75 23.7591 7.38373 24.1254 6.93359 24.1254ZM19.3281 30.1328C18.2641 30.1328 17.3984 30.9984 17.3984 32.0625C17.3984 33.1266 18.2641 33.9922 19.3281 33.9922C20.3922 33.9922 21.2578 33.1266 21.2578 32.0625C21.2578 30.9984 20.3922 30.1328 19.3281 30.1328ZM19.3281 32.8789C18.878 32.8789 18.5117 32.5126 18.5117 32.0625C18.5117 31.6124 18.878 31.2461 19.3281 31.2461C19.7783 31.2461 20.1445 31.6124 20.1445 32.0625C20.1445 32.5126 19.7783 32.8789 19.3281 32.8789ZM11.4056 10.6875C12.4696 10.6875 13.3353 9.82189 13.3353 8.75781C13.3353 7.69374 12.4696 6.82812 11.4056 6.82812C10.3416 6.82812 9.47588 7.69374 9.47588 8.75781C9.47588 9.82189 10.3415 10.6875 11.4056 10.6875ZM11.4056 7.94141C11.8557 7.94141 12.222 8.30768 12.222 8.75781C12.222 9.20795 11.8557 9.57422 11.4056 9.57422C10.9554 9.57422 10.5892 9.20795 10.5892 8.75781C10.5892 8.30768 10.9554 7.94141 11.4056 7.94141ZM27.1211 27.7578C26.057 27.7578 25.1914 28.6234 25.1914 29.6875C25.1914 30.7516 26.057 31.6172 27.1211 31.6172C28.1852 31.6172 29.0508 30.7516 29.0508 29.6875C29.0508 28.6234 28.1852 27.7578 27.1211 27.7578ZM27.1211 30.5039C26.671 30.5039 26.3047 30.1376 26.3047 29.6875C26.3047 29.2374 26.671 28.8711 27.1211 28.8711C27.5712 28.8711 27.9375 29.2374 27.9375 29.6875C27.9375 30.1376 27.5712 30.5039 27.1211 30.5039Z" fill="#9E1256"/>
</g>
</g>
<defs>
<clipPath id="clip0_1466_180">
<rect width="38" height="38" fill="white" transform="translate(0.328125)"/>
</clipPath>
</defs>
</svg>
