<svg width="38" height="38" viewBox="0 0 38 38" fill="none" xmlns="http://www.w3.org/2000/svg">
<g id="fi_3825038" clip-path="url(#clip0_1466_148)">
<g id="Group">
<path id="Vector" d="M37.5918 28.0785L30.0498 20.5367C29.5191 20.0029 28.6082 20.001 28.0784 20.5366L20.5366 28.0785C19.9972 28.6115 19.9964 29.5149 20.5366 30.0499L24.3639 33.8772C24.5813 34.0945 24.9337 34.0945 25.1511 33.8772C25.3685 33.6598 25.3685 33.3074 25.1511 33.09L21.682 29.6209H24.9725C25.0234 29.7118 25.0864 29.7966 25.1621 29.8723L28.2561 32.9663C28.3318 33.042 28.4167 33.105 28.5076 33.1559V36.4465L26.9867 34.9256C26.7692 34.7083 26.4168 34.7083 26.1994 34.9256C25.9821 35.1431 25.9821 35.4955 26.1994 35.7129L28.0786 37.5919C28.621 38.134 29.5077 38.1337 30.0499 37.5919L37.5918 30.0499C38.1271 29.5135 38.1327 28.6173 37.5918 28.0785ZM24.9725 28.5076H21.682L28.5075 21.6821V24.9727C28.4166 25.0236 28.3317 25.0865 28.256 25.1622L25.162 28.2563C25.0865 28.3318 25.0234 28.4167 24.9725 28.5076ZM29.0849 32.179C29.0825 32.1814 29.0763 32.1875 29.0644 32.1876H29.0639C29.052 32.1875 29.0457 32.1813 29.0434 32.1789L25.9493 29.0849C25.9469 29.0825 25.9409 29.0763 25.9408 29.0644C25.9408 29.0644 25.9408 29.0643 25.9408 29.0642C25.9408 29.0641 25.9408 29.0641 25.9408 29.064C25.9409 29.052 25.947 29.0457 25.9494 29.0434L29.0434 25.9494C29.0457 25.947 29.052 25.9409 29.064 25.9408H29.0645C29.0764 25.9409 29.0826 25.9469 29.085 25.9494L32.179 29.0434C32.1814 29.0457 32.1876 29.052 32.1876 29.064V29.0642C32.1876 29.0642 32.1876 29.0644 32.1876 29.0644C32.1876 29.0763 32.1815 29.0825 32.1791 29.0849C32.1791 29.0849 32.1791 29.0849 32.179 29.0849L29.0849 32.179ZM29.6209 36.4463V33.1557C29.7118 33.1048 29.7965 33.0419 29.8722 32.9662L32.9663 29.8722C33.0419 29.7965 33.1049 29.7117 33.1557 29.6208H36.4463L29.6209 36.4463ZM33.1557 28.5076C33.1048 28.4167 33.0419 28.3319 32.9662 28.2562L29.8722 25.1622C29.7965 25.0865 29.7117 25.0235 29.6208 24.9726V21.6822L36.4464 28.5076H33.1557ZM28.9317 5.42799C30.7914 5.77979 32.2203 7.20872 32.5721 9.06834C32.6294 9.37175 32.8952 9.59203 33.2041 9.59203C33.5129 9.59203 33.7787 9.37175 33.836 9.06842C34.1879 7.20872 35.6168 5.77979 37.4765 5.42799C37.7799 5.37062 38.0001 5.10484 38.0001 4.79602C38.0001 4.48719 37.7798 4.22141 37.4765 4.16404C35.6168 3.81217 34.1879 2.38324 33.836 0.523687C33.7787 0.220281 33.5129 0 33.2041 0C32.8952 0 32.6295 0.220281 32.5721 0.523613C32.2203 2.38324 30.7914 3.81217 28.9317 4.16404C28.6283 4.22134 28.408 4.48719 28.408 4.79602C28.408 5.10484 28.6283 5.37062 28.9317 5.42799ZM33.2041 2.14411C33.7602 3.30674 34.6933 4.23982 35.856 4.79602C34.6933 5.35214 33.7603 6.28521 33.2041 7.44793C32.6479 6.28521 31.7149 5.35214 30.5521 4.79602C31.7148 4.23989 32.6479 3.30674 33.2041 2.14411ZM0.523613 5.42799C2.38324 5.77979 3.81217 7.20872 4.16404 9.06834C4.22134 9.37175 4.48719 9.59203 4.79602 9.59203C5.10484 9.59203 5.37062 9.37175 5.42799 9.06842C5.77979 7.20872 7.20872 5.77979 9.06842 5.42799C9.37182 5.37062 9.59203 5.10484 9.59203 4.79602C9.59203 4.48719 9.37175 4.22141 9.06842 4.16404C7.20872 3.81217 5.77979 2.38324 5.42799 0.523687C5.37069 0.220281 5.10484 0 4.79602 0C4.48719 0 4.22141 0.220281 4.16404 0.523613C3.8121 2.38324 2.38316 3.81217 0.523688 4.16412C0.220281 4.22141 0 4.48719 0 4.79602C0 5.10484 0.220281 5.37062 0.523613 5.42799ZM4.79594 2.14411C5.35206 3.30674 6.28514 4.23982 7.44785 4.79602C6.28514 5.35214 5.35206 6.28521 4.79594 7.44793C4.23982 6.28521 3.30667 5.35214 2.14403 4.79602C3.30667 4.23989 4.23975 3.30674 4.79594 2.14411ZM27.5276 13.3585L19.9856 5.81667C19.4526 5.27851 18.5469 5.27948 18.0143 5.8166L15.9101 7.92085C15.6926 8.13823 15.6926 8.4907 15.91 8.70809C16.1274 8.92532 16.4798 8.92547 16.6971 8.70809L18.4434 6.96202V10.2533C18.3533 10.3035 18.2684 10.3658 18.1919 10.4421L15.0979 13.5362C15.0222 13.6119 14.9593 13.6967 14.9084 13.7876H11.6178L14.8571 10.5483C15.0745 10.3308 15.0745 9.97841 14.8571 9.76103C14.6396 9.54379 14.2873 9.54364 14.0699 9.76103L10.4724 13.3586C9.93077 13.901 9.93937 14.7948 10.4724 15.3299L18.0144 22.8718C18.5548 23.4101 19.4458 23.4128 19.9857 22.8718L27.5277 15.3299C28.0629 14.7934 28.0685 13.8973 27.5276 13.3585ZM18.4434 21.7263L11.6179 14.9008H14.9085C14.9594 14.9917 15.0223 15.0765 15.098 15.1522L18.192 18.2462C18.2684 18.3226 18.3534 18.3849 18.4434 18.435V21.7263H18.4434ZM19.0208 17.4589C19.0151 17.4646 19.0077 17.4675 19.0003 17.4675C19.0002 17.4675 19.0001 17.4675 19 17.4675C18.9999 17.4675 18.9998 17.4675 18.9997 17.4675C18.9923 17.4675 18.9849 17.4646 18.9792 17.4589L15.8852 14.3649C15.8828 14.3625 15.8766 14.3563 15.8766 14.3442C15.8766 14.332 15.8829 14.3257 15.8853 14.3234L18.9791 11.2294C18.9849 11.2237 18.9925 11.2208 19 11.2208C19.0075 11.2208 19.0151 11.2237 19.0208 11.2294L22.1147 14.3234C22.1171 14.3257 22.1234 14.332 22.1234 14.3442C22.1234 14.3563 22.1172 14.3625 22.1148 14.3649L19.0208 17.4589ZM19.5566 21.7263V18.435C19.6467 18.3849 19.7316 18.3226 19.8081 18.2462L22.9021 15.1522V15.1521C22.9777 15.0765 23.0407 14.9917 23.0915 14.9008H26.3821L19.5566 21.7263ZM23.0915 13.7876C23.0406 13.6967 22.9777 13.6119 22.902 13.5362L19.8079 10.4421C19.7316 10.3658 19.6466 10.3035 19.5566 10.2533V6.96216L26.3822 13.7876H23.0915ZM9.92156 20.5366C9.39075 20.0031 8.47994 20.0009 7.95016 20.5366L0.408203 28.0786C-0.126617 28.6167 -0.133816 29.5103 0.408203 30.0499L7.95016 37.5919C8.49218 38.1355 9.38303 38.127 9.92156 37.5919L17.4634 30.0499C18.0026 29.5158 17.9996 28.6097 17.4634 28.0785L9.92156 20.5366ZM8.37915 21.6821V24.9727C8.28823 25.0236 8.20347 25.0865 8.12777 25.1622L5.03374 28.2563C4.95803 28.332 4.8951 28.4168 4.84418 28.5077H1.5537L8.37915 21.6821ZM8.37915 36.4463L1.5537 29.6209H4.84426C4.89517 29.7118 4.95811 29.7965 5.03381 29.8722L8.12784 32.9662C8.20355 33.0419 8.28831 33.1049 8.37922 33.1558L8.37915 36.4463ZM8.95665 32.1789C8.95434 32.1813 8.94804 32.1875 8.93609 32.1876H8.93557C8.92369 32.1875 8.91746 32.1814 8.91508 32.1789L5.82105 29.0849C5.81868 29.0825 5.81259 29.0763 5.81252 29.0644C5.81252 29.0644 5.81252 29.0643 5.81252 29.0642C5.81252 29.0641 5.81252 29.0641 5.81252 29.064C5.81259 29.052 5.81875 29.0457 5.82113 29.0434L8.91516 25.9494C8.91753 25.947 8.92377 25.9409 8.93564 25.9409H8.93616C8.94811 25.9409 8.95442 25.9471 8.95672 25.9495L12.0507 29.0435C12.0531 29.0458 12.0593 29.0521 12.0594 29.0641V29.0643C12.0594 29.0643 12.0594 29.0644 12.0594 29.0645C12.0593 29.0764 12.0532 29.0826 12.0508 29.085C12.0508 29.085 12.0508 29.085 12.0507 29.085L8.95665 32.1789ZM9.49243 36.4465V33.1557C9.58335 33.1048 9.66818 33.0419 9.74388 32.9662L12.8379 29.8722C12.9135 29.7965 12.9766 29.7117 13.0274 29.6208H16.3179L9.49243 36.4465ZM13.0275 28.5076C12.9766 28.4167 12.9136 28.3319 12.8379 28.2562L9.74388 25.1622C9.66818 25.0865 9.58335 25.0235 9.49243 24.9726V21.682L16.318 28.5076H13.0275V28.5076Z" fill="#9E1256"/>
</g>
</g>
<defs>
<clipPath id="clip0_1466_148">
<rect width="38" height="38" fill="white"/>
</clipPath>
</defs>
</svg>
