<svg width="39" height="38" viewBox="0 0 39 38" fill="none" xmlns="http://www.w3.org/2000/svg">
<g id="fi_8574958" clip-path="url(#clip0_1466_129)">
<g id="Group">
<g id="Group_2">
<path id="Vector" d="M31.8379 32.9708H29.898C31.149 31.4924 31.6859 29.583 31.3052 27.867C31.2583 27.6558 31.0935 27.491 30.8824 27.4442C30.4948 27.3582 30.0972 27.3196 29.697 27.3249L30.9208 24.146C31.0306 23.8605 30.9929 23.5397 30.8198 23.2876C30.6468 23.0355 30.3608 22.885 30.055 22.885H27.9417C28.1509 22.2002 28.2458 21.4722 28.2167 20.741C28.0968 17.7326 25.9878 15.3188 23.3109 15.1265C23.0755 15.1097 22.8551 15.2428 22.7608 15.459C22.6665 15.6753 22.7186 15.9275 22.8911 16.0885C23.6835 16.8284 24.1646 17.9216 24.2109 19.088C24.2302 19.5701 24.1767 20.0404 24.0548 20.4856C23.8617 20.081 23.64 19.673 23.388 19.2622C20.5054 14.5643 21.3055 13.3186 21.3618 13.243C21.5447 13.0966 21.6176 12.8491 21.5392 12.6248C21.4554 12.3855 21.2193 12.2331 20.968 12.2538C20.9535 12.255 20.8699 12.2628 20.7381 12.2866C21.5405 9.70389 21.4818 7.6867 20.5583 6.28196C19.4406 4.58191 17.497 4.47318 17.4148 4.46939C17.1762 4.45796 16.9584 4.60002 16.8712 4.82163C16.784 5.04325 16.8474 5.29582 17.029 5.4499C17.032 5.45242 17.021 5.45658 17.0229 5.45999C17.052 5.51343 17.1046 5.63515 17.1286 5.84942C17.1791 6.29918 17.1067 7.13533 16.4748 8.56508C16.3505 8.84629 16.4777 9.17494 16.7589 9.29925C17.04 9.42364 17.3687 9.29628 17.4931 9.01514C18.1608 7.50434 18.3018 6.47597 18.2427 5.79256C18.6998 5.97165 19.2427 6.30096 19.6357 6.90518C20.436 8.13572 20.3542 10.1591 19.4019 12.7647C18.9658 13.0043 18.5052 13.354 18.1141 13.8654C17.3671 14.8423 17.0646 16.1452 17.208 17.7456C16.9119 17.6646 16.6061 17.6103 16.2921 17.5878C16.0563 17.5708 15.8363 17.7041 15.742 17.9204C15.6477 18.1366 15.6999 18.3888 15.8723 18.5498C16.6646 19.2895 17.1457 20.3828 17.1922 21.5493C17.2103 22.0058 17.1619 22.4534 17.0497 22.8851H16.2885C15.3566 22.288 14.6893 21.3467 14.4493 20.2797C14.1729 19.0505 14.457 17.7746 15.2288 16.7791C15.3765 16.5886 15.3848 16.3246 15.2492 16.1252C15.1137 15.9257 14.8651 15.8364 14.6337 15.9034C14.2027 16.0284 13.7971 16.1994 13.4184 16.4073C13.7575 15.3409 14.3153 14.2453 15.0874 13.1345C15.5095 12.5273 15.8965 11.935 16.2381 11.3741C16.398 11.1115 16.3147 10.7691 16.0522 10.6092C15.7897 10.4493 15.4472 10.5325 15.2872 10.7951C14.9573 11.337 14.5825 11.9103 14.1732 12.4991C13.0032 14.1823 12.2811 15.8525 12.0223 17.4672C10.6668 18.8544 10.0162 20.8662 10.4309 22.8851H9.27732C8.97154 22.8851 8.68557 23.0357 8.5125 23.2877C8.33942 23.5398 8.30164 23.8607 8.41156 24.1461L8.77731 25.0962C8.88767 25.383 9.21 25.5262 9.49671 25.4157C9.78357 25.3053 9.92666 24.9832 9.81622 24.6962L9.54763 23.9983H29.7849L28.4429 27.4843C27.3231 27.7534 26.2416 28.3545 25.359 29.2371C24.9243 29.6719 24.5576 30.1542 24.2621 30.6755C24.1907 30.6439 24.1174 30.6143 24.041 30.5879C24.2732 30.1096 24.3508 29.6237 24.2605 29.1701C24.0941 28.3332 23.3949 27.771 22.5208 27.771C22.1783 27.771 21.8272 27.8576 21.4807 28.0254C21.4057 27.8105 21.3088 27.6137 21.19 27.436C20.8226 26.8862 20.2674 26.5708 19.6668 26.5708C19.0663 26.5708 18.5111 26.8862 18.1436 27.4359C18.0249 27.6136 17.928 27.8104 17.853 28.0253C17.5065 27.8575 17.1555 27.7709 16.8128 27.7709C15.9385 27.7709 15.2392 28.3332 15.0729 29.1701C14.9826 29.624 15.0604 30.1103 15.2931 30.589C15.2167 30.6156 15.143 30.6451 15.0714 30.6771C14.7757 30.1552 14.4087 29.6722 13.9735 29.237C13.0909 28.3544 12.0095 27.7533 10.8896 27.4843L10.7495 27.1204C10.6391 26.8335 10.317 26.6904 10.0301 26.8009C9.80739 26.8866 9.67202 27.1 9.67402 27.3254C9.26077 27.317 8.85019 27.3554 8.45 27.4442C8.23885 27.491 8.07409 27.6559 8.02718 27.867C7.64644 29.5831 8.18341 31.4924 9.43444 32.9708H7.49414C6.778 32.9708 6.19531 33.5535 6.19531 34.2696V36.7016C6.19531 37.4178 6.778 38.0005 7.49414 38.0005H31.8379C32.554 38.0005 33.1367 37.4178 33.1367 36.7016V34.2696C33.1367 33.5535 32.554 32.9708 31.8379 32.9708ZM25.3233 19.0436C25.2897 18.2008 25.0715 17.3858 24.6991 16.6669C25.1363 16.9007 25.5395 17.2237 25.8887 17.6252C26.6251 18.4717 27.0566 19.5939 27.1041 20.7852C27.133 21.5096 27.0164 22.2284 26.7663 22.8849H24.8592C24.8037 22.587 24.7294 22.2858 24.6381 21.982C25.1283 21.1035 25.3651 20.0936 25.3233 19.0436ZM18.9888 14.5539C19.3234 14.1114 19.7374 13.8311 20.1069 13.6546C20.0969 13.7824 20.0939 13.9214 20.1 14.0727C20.1559 15.4642 20.9427 17.4061 22.4389 19.8444C23.0828 20.8938 23.5121 21.9135 23.7223 22.8849H21.1767C21 20.8622 19.9211 19.1433 18.3905 18.2448C18.1388 16.654 18.3391 15.4128 18.9888 14.5539ZM18.3042 21.5047C18.2706 20.662 18.0524 19.8469 17.6801 19.1281C18.1173 19.362 18.5205 19.6849 18.8697 20.0864C19.5311 20.8467 19.9466 21.8295 20.0588 22.885H18.193C18.2855 22.4352 18.323 21.9734 18.3042 21.5047ZM11.546 22.7824C11.083 20.7822 11.9145 18.7713 13.5102 17.6568C13.2022 18.5691 13.1457 19.5578 13.3629 20.5238C13.5609 21.404 13.9871 22.2167 14.5852 22.885H11.5711C11.5622 22.8506 11.5538 22.8165 11.546 22.7824ZM26.1461 30.0242C27.1003 29.07 28.3222 28.5111 29.5185 28.4436L28.3026 29.6595C28.0852 29.8769 28.0852 30.2294 28.3026 30.4467C28.4113 30.5554 28.5537 30.6098 28.6962 30.6098C28.8386 30.6098 28.9811 30.5554 29.0899 30.4467L30.3059 29.2308C30.2385 30.427 29.6794 31.649 28.7252 32.6032C28.5982 32.7301 28.4624 32.8533 28.3198 32.9708H26.5658L27.253 32.2835C27.4704 32.0661 27.4704 31.7137 27.253 31.4964C27.0356 31.2791 26.6833 31.2789 26.4658 31.4964L25.4947 32.4674C25.5071 32.1497 25.4306 31.8298 25.2634 31.5399C25.2292 31.4807 25.1913 31.424 25.1511 31.3689C25.4097 30.8792 25.7426 30.4276 26.1461 30.0242ZM16.2514 31.5214C16.4597 31.5045 16.6409 31.3726 16.7209 31.1795C16.8007 30.9866 16.7658 30.765 16.6305 30.6059C16.2603 30.1705 16.0947 29.7378 16.1645 29.3872C16.2272 29.0722 16.4693 28.8842 16.8125 28.8842C17.1357 28.8842 17.5021 29.05 17.8722 29.3637C18.0316 29.4988 18.2533 29.5332 18.4462 29.4528C18.639 29.3725 18.7706 29.1908 18.787 28.9825C18.8167 28.6021 18.9117 28.2899 19.0689 28.0546C19.2263 27.8191 19.4441 27.6841 19.6665 27.6841C19.889 27.6841 20.1069 27.8191 20.2641 28.0545C20.4214 28.2898 20.5163 28.6021 20.5462 28.9825C20.5625 29.1908 20.6941 29.3725 20.8871 29.4528C21.0799 29.5332 21.3016 29.4988 21.4609 29.3636C21.831 29.0499 22.1975 28.8842 22.5205 28.8842C22.8635 28.8842 23.1058 29.0722 23.1684 29.3871C23.2381 29.7378 23.0726 30.1708 22.7022 30.606C22.567 30.7651 22.532 30.9865 22.6118 31.1795C22.6916 31.3724 22.8727 31.5045 23.0808 31.5215C23.6719 31.5699 24.1159 31.7795 24.2989 32.0965C24.4108 32.2904 24.4107 32.5126 24.299 32.7063C24.2417 32.8055 24.1594 32.8939 24.0535 32.9708H21.8706C21.9181 32.7868 21.943 32.5958 21.943 32.4013C21.943 31.146 20.9217 30.1247 19.6664 30.1247C18.4111 30.1247 17.3898 31.146 17.3898 32.4013C17.3898 32.5959 17.4148 32.7868 17.4622 32.9708H15.2863C15.0722 32.8146 14.9493 32.6121 14.9493 32.4012C14.9494 32.0157 15.3521 31.5941 16.2514 31.5214ZM20.83 32.4013C20.83 32.6036 20.7782 32.7986 20.6811 32.9708H18.6522C18.5551 32.7986 18.5033 32.6036 18.5033 32.4013C18.5033 31.7598 19.0251 31.238 19.6666 31.238C20.3081 31.238 20.83 31.7598 20.83 32.4013ZM14.1825 31.3715C13.9573 31.6768 13.8361 32.0316 13.8361 32.4012C13.8361 32.4241 13.8383 32.4465 13.8393 32.4692L9.81355 28.4435C11.0095 28.5109 12.2318 29.07 13.186 30.0242C13.5902 30.4284 13.9235 30.8808 14.1825 31.3715ZM9.02631 29.2308L12.7663 32.9708H11.0123C10.8697 32.8533 10.7339 32.7301 10.6069 32.6032C9.65279 31.649 9.0937 30.427 9.02631 29.2308ZM32.0234 36.7016C32.0234 36.8039 31.9402 36.8872 31.8379 36.8872H7.49414C7.39179 36.8872 7.30859 36.8039 7.30859 36.7016V34.2696C7.30859 34.1674 7.39179 34.0841 7.49414 34.0841H31.8379C31.9402 34.0841 32.0234 34.1674 32.0234 34.2696V36.7016Z" fill="#9E1256"/>
<path id="Vector_2" d="M28.5879 12.1466C28.8954 12.1466 29.1445 11.8974 29.1445 11.5899V11.0293C29.1445 10.7219 28.8954 10.4727 28.5879 10.4727C28.2804 10.4727 28.0312 10.7219 28.0312 11.0293V11.5899C28.0312 11.8974 28.2804 12.1466 28.5879 12.1466Z" fill="#9E1256"/>
<path id="Vector_3" d="M28.5879 15.4122C28.8954 15.4122 29.1445 15.163 29.1445 14.8556V14.2949C29.1445 13.9875 28.8954 13.7383 28.5879 13.7383C28.2804 13.7383 28.0312 13.9875 28.0312 14.2949V14.8556C28.0312 15.163 28.2804 15.4122 28.5879 15.4122Z" fill="#9E1256"/>
<path id="Vector_4" d="M26.6816 13.5H27.2423C27.5498 13.5 27.7989 13.2508 27.7989 12.9434C27.7989 12.6359 27.5498 12.3867 27.2423 12.3867H26.6816C26.3742 12.3867 26.125 12.6359 26.125 12.9434C26.125 13.2508 26.3742 13.5 26.6816 13.5Z" fill="#9E1256"/>
<path id="Vector_5" d="M29.9473 13.5H30.5079C30.8154 13.5 31.0646 13.2508 31.0646 12.9434C31.0646 12.6359 30.8154 12.3867 30.5079 12.3867H29.9473C29.6398 12.3867 29.3906 12.6359 29.3906 12.9434C29.3906 13.2508 29.6398 13.5 29.9473 13.5Z" fill="#9E1256"/>
<path id="Vector_6" d="M11.8379 6.95518C12.1454 6.95518 12.3945 6.70595 12.3945 6.39854V5.83789C12.3945 5.53048 12.1454 5.28125 11.8379 5.28125C11.5304 5.28125 11.2812 5.53048 11.2812 5.83789V6.39854C11.2812 6.70603 11.5304 6.95518 11.8379 6.95518Z" fill="#9E1256"/>
<path id="Vector_7" d="M11.8379 10.2208C12.1454 10.2208 12.3945 9.97158 12.3945 9.66416V9.10352C12.3945 8.7961 12.1454 8.54688 11.8379 8.54688C11.5304 8.54688 11.2812 8.7961 11.2812 9.10352V9.66416C11.2812 9.97158 11.5304 10.2208 11.8379 10.2208Z" fill="#9E1256"/>
<path id="Vector_8" d="M9.91602 8.30859H10.4767C10.7842 8.30859 11.0334 8.05937 11.0334 7.75195C11.0334 7.44454 10.7842 7.19531 10.4767 7.19531H9.91602C9.60853 7.19531 9.35938 7.44454 9.35938 7.75195C9.35938 8.05937 9.6086 8.30859 9.91602 8.30859Z" fill="#9E1256"/>
<path id="Vector_9" d="M13.1816 8.30859H13.7423C14.0498 8.30859 14.2989 8.05937 14.2989 7.75195C14.2989 7.44454 14.0498 7.19531 13.7423 7.19531H13.1816C12.8742 7.19531 12.625 7.44454 12.625 7.75195C12.625 8.05937 12.8742 8.30859 13.1816 8.30859Z" fill="#9E1256"/>
<path id="Vector_10" d="M23.7441 5.32911C24.0516 5.32911 24.3008 5.07989 24.3008 4.77247V4.06836C24.3008 3.76095 24.0516 3.51172 23.7441 3.51172C23.4367 3.51172 23.1875 3.76095 23.1875 4.06836V4.77247C23.1875 5.07989 23.4367 5.32911 23.7441 5.32911Z" fill="#9E1256"/>
<path id="Vector_11" d="M17.7129 1.81739C18.0204 1.81739 18.2695 1.56817 18.2695 1.26075V0.556641C18.2695 0.249227 18.0204 0 17.7129 0C17.4054 0 17.1562 0.249227 17.1562 0.556641V1.26075C17.1562 1.56817 17.4054 1.81739 17.7129 1.81739Z" fill="#9E1256"/>
<path id="Vector_12" d="M9.94727 13.3984C9.63978 13.3984 9.39062 13.6477 9.39062 13.9551V14.6592C9.39062 14.9666 9.63978 15.2158 9.94727 15.2158C10.2548 15.2158 10.5039 14.9666 10.5039 14.6592V13.9551C10.5039 13.6477 10.2548 13.3984 9.94727 13.3984Z" fill="#9E1256"/>
<path id="Vector_13" d="M23.7441 9.85752C24.0516 9.85752 24.3008 9.60829 24.3008 9.30087V7.49023C24.3008 7.18282 24.0516 6.93359 23.7441 6.93359C23.4367 6.93359 23.1875 7.18282 23.1875 7.49023V9.30087C23.1875 9.60829 23.4367 9.85752 23.7441 9.85752Z" fill="#9E1256"/>
</g>
</g>
</g>
<defs>
<clipPath id="clip0_1466_129">
<rect width="38" height="38" fill="white" transform="translate(0.664062)"/>
</clipPath>
</defs>
</svg>
