<svg width="24" height="25" viewBox="0 0 24 25" fill="none" xmlns="http://www.w3.org/2000/svg">
<g id="calendar-empty-alt">
<path id="calendar-empty-alt_2" d="M18 4.25H16.75V3.5C16.75 3.086 16.414 2.75 16 2.75C15.586 2.75 15.25 3.086 15.25 3.5V4.25H8.75V3.5C8.75 3.086 8.414 2.75 8 2.75C7.586 2.75 7.25 3.086 7.25 3.5V4.25H6C3.582 4.25 2.25 5.582 2.25 8V18.5C2.25 20.918 3.582 22.25 6 22.25H18C20.418 22.25 21.75 20.918 21.75 18.5V8C21.75 5.582 20.418 4.25 18 4.25ZM6 5.75H7.25V6.5C7.25 6.914 7.586 7.25 8 7.25C8.414 7.25 8.75 6.914 8.75 6.5V5.75H15.25V6.5C15.25 6.914 15.586 7.25 16 7.25C16.414 7.25 16.75 6.914 16.75 6.5V5.75H18C19.577 5.75 20.25 6.423 20.25 8V8.75H3.75V8C3.75 6.423 4.423 5.75 6 5.75ZM18 20.75H6C4.423 20.75 3.75 20.077 3.75 18.5V10.25H20.25V18.5C20.25 20.077 19.577 20.75 18 20.75Z" fill="url(#paint0_linear_1045_8345)"/>
</g>
<defs>
<linearGradient id="paint0_linear_1045_8345" x1="2.35833" y1="2.75023" x2="21.784" y2="2.78414" gradientUnits="userSpaceOnUse">
<stop stop-color="#9E1256"/>
<stop offset="0.265625" stop-color="#CE164F"/>
<stop offset="0.5" stop-color="#E74249"/>
<stop offset="0.770833" stop-color="#ED6E49"/>
<stop offset="1" stop-color="#F9B048"/>
</linearGradient>
</defs>
</svg>
