<svg width="19" height="18" viewBox="0 0 19 18" fill="none" xmlns="http://www.w3.org/2000/svg">
<g id="Huge-icon/communication/outline/call">
<path id="Rectangle 77" d="M16.5 14.25V13.0155C16.5 12.4022 16.1266 11.8506 15.5571 11.6228L14.0315 11.0126C13.3071 10.7229 12.4816 11.0367 12.1328 11.7345L12 12C12 12 10.125 11.625 8.625 10.125C7.125 8.625 6.75 6.75 6.75 6.75L7.01551 6.61724C7.71328 6.26836 8.02714 5.44285 7.73741 4.71852L7.12717 3.19291C6.89937 2.62343 6.34781 2.25 5.73445 2.25H4.5C3.67157 2.25 3 2.92157 3 3.75C3 10.3774 8.37258 15.75 15 15.75C15.8284 15.75 16.5 15.0784 16.5 14.25Z" stroke="white" stroke-width="1.5" stroke-linejoin="round"/>
</g>
</svg>
