<svg width="24" height="25" viewBox="0 0 24 25" fill="none" xmlns="http://www.w3.org/2000/svg">
<g id="fi_546394" clip-path="url(#clip0_972_48772)">
<g id="Group">
<g id="Group_2">
<path id="Vector" d="M22.7692 4.5H1.2308C0.553828 4.5 0 5.05383 0 5.73075V19.2692C0 19.9461 0.553828 20.5 1.2308 20.5H22.7692C23.4461 20.5 24 19.9462 24 19.2692V5.73075C24 5.05383 23.4462 4.5 22.7692 4.5ZM22.3073 5.42302L12.708 12.6231C12.5354 12.7545 12.2705 12.8366 12 12.8354C11.7295 12.8366 11.4646 12.7545 11.292 12.6231L1.69261 5.42302H22.3073ZM17.1797 13.0982L22.4105 19.5598C22.4157 19.5662 22.4221 19.5712 22.4277 19.577H1.57228C1.57781 19.5709 1.58428 19.5662 1.58953 19.5598L6.82031 13.0982C6.98058 12.9 6.9502 12.6096 6.75169 12.4489C6.55355 12.2887 6.26306 12.319 6.10275 12.5172L0.923062 18.9157V5.99995L10.7384 13.3615C11.1074 13.6363 11.5562 13.7572 11.9999 13.7584C12.443 13.7575 12.8922 13.6365 13.2614 13.3615L23.0767 5.99995V18.9156L17.8972 12.5172C17.7369 12.3191 17.4461 12.2886 17.2483 12.4489C17.0498 12.6092 17.0193 12.9 17.1797 13.0982Z" fill="#313131"/>
</g>
</g>
</g>
<defs>
<clipPath id="clip0_972_48772">
<rect width="24" height="24" fill="white" transform="translate(0 0.5)"/>
</clipPath>
</defs>
</svg>
