<svg width="54" height="54" viewBox="0 0 54 54" fill="none" xmlns="http://www.w3.org/2000/svg">
<g id="Group 688">
<path id="Vector" d="M54 27C54 34.1607 51.1552 41.0285 46.092 46.092C41.0285 51.1552 34.1607 54 27 54C19.8392 54 12.9716 51.1552 7.90813 46.092C2.84464 41.0285 0 34.1607 0 27C0 19.8392 2.84464 12.9716 7.90813 7.90813C12.9716 2.84464 19.8392 0 27 0C34.1607 0 41.0285 2.84464 46.092 7.90813C51.1552 12.9716 54 19.8392 54 27Z" fill="url(#paint0_linear_345_11189)"/>
<g id="Vector_2" filter="url(#filter0_d_345_11189)">
<path d="M17.5469 43.7019C17.5469 41.9199 21.7758 42.2034 26.9969 42.2034C32.2146 42.2034 36.4469 41.9199 36.4469 43.7019C36.4469 45.8484 32.2146 47.249 26.9969 47.249C21.7758 47.249 17.5469 45.8484 17.5469 43.7019Z" fill="#313131"/>
</g>
<path id="Vector_3" d="M17.5469 43.7019C17.5469 41.9199 21.7758 42.2034 26.9969 42.2034C32.2146 42.2034 36.4469 41.9199 36.4469 43.7019C36.4469 45.8484 32.2146 47.249 26.9969 47.249C21.7758 47.249 17.5469 45.8484 17.5469 43.7019Z" fill="url(#paint1_linear_345_11189)"/>
<path id="Vector_4" d="M12.1487 33.1802C12.1487 30.5106 13.9645 28.3506 16.1987 28.3506C18.4363 28.3506 20.2487 30.5106 20.2487 33.1802C20.2487 34.2906 19.9349 35.3166 19.3982 36.13C19.1475 36.5046 18.7639 36.7699 18.3249 36.8725C17.8187 36.994 17.0661 37.1256 16.1987 37.1256C15.3313 37.1256 14.5754 36.994 14.0725 36.8725C13.6331 36.7709 13.2492 36.5053 12.9992 36.13C12.4341 35.2508 12.1385 34.2255 12.1487 33.1802ZM33.7487 33.1802C33.7487 30.5106 35.5611 28.3506 37.7988 28.3506C40.033 28.3506 41.8488 30.5106 41.8488 33.1802C41.8488 34.2906 41.5315 35.3166 40.9983 36.13C40.7482 36.5053 40.3644 36.7709 39.925 36.8725C39.2284 37.0392 38.5149 37.1239 37.7988 37.1256C36.9314 37.1256 36.1788 36.994 35.6725 36.8725C35.2327 36.7699 34.848 36.5046 34.5959 36.13C34.0333 35.2498 33.7391 34.2248 33.7487 33.1802Z" fill="url(#paint2_linear_345_11189)"/>
<g id="Vector_5" filter="url(#filter1_i_345_11189)">
<path d="M12.1487 33.1802C12.1487 30.5106 13.9645 28.3506 16.1987 28.3506C18.4363 28.3506 20.2487 30.5106 20.2487 33.1802C20.2487 34.2906 19.9349 35.3166 19.3982 36.13C19.1475 36.5046 18.7639 36.7699 18.3249 36.8725C17.8187 36.994 17.0661 37.1256 16.1987 37.1256C15.3313 37.1256 14.5754 36.994 14.0725 36.8725C13.6331 36.7709 13.2492 36.5053 12.9992 36.13C12.4341 35.2508 12.1385 34.2255 12.1487 33.1802ZM33.7487 33.1802C33.7487 30.5106 35.5611 28.3506 37.7988 28.3506C40.033 28.3506 41.8488 30.5106 41.8488 33.1802C41.8488 34.2906 41.5315 35.3166 40.9983 36.13C40.7482 36.5053 40.3644 36.7709 39.925 36.8725C39.2284 37.0392 38.5149 37.1239 37.7988 37.1256C36.9314 37.1256 36.1788 36.994 35.6725 36.8725C35.2327 36.7699 34.848 36.5046 34.5959 36.13C34.0333 35.2498 33.7391 34.2248 33.7487 33.1802Z" fill="#313131"/>
</g>
<path id="Vector_6" d="M16.7692 31.4965C16.7858 31.5753 16.7937 31.6556 16.7928 31.7361C16.7928 32.4145 16.1988 32.9714 15.4631 32.9714C14.7307 32.9714 14.1367 32.4145 14.1367 31.7361C14.1367 31.456 14.238 31.1961 14.4067 30.9902C15.1627 31.1691 15.9558 31.3412 16.7692 31.4965ZM36.7695 32.9714C36.0574 32.9714 35.4769 32.455 35.4432 31.7969C36.3173 31.6686 37.1847 31.51 38.0284 31.3379C38.075 31.4665 38.0979 31.6026 38.0959 31.7395C38.0959 32.4145 37.5053 32.9714 36.7695 32.9714Z" fill="#4F4F67"/>
<g id="Vector_7" filter="url(#filter2_d_345_11189)">
<path d="M30.3736 25.1771C30.3736 26.6824 30.9237 27.2021 31.8755 27.2021C32.8205 27.2021 33.2727 26.2706 33.5832 23.6044C37.3903 23.6044 43.8365 25.4066 44.4575 25.4066C45.0583 25.4066 45.3924 25.1198 45.5274 24.5055C45.6455 23.9723 45.4498 23.466 44.7815 23.1555C42.6856 22.1869 36.5364 19.9999 31.3355 19.9999C30.7685 19.9999 30.3736 20.2901 30.3736 21.0158V25.1771ZM20.414 23.6044C20.7245 26.2706 21.1767 27.2021 22.1217 27.2021C23.0735 27.2021 23.6236 26.6824 23.6236 25.1771V21.0158C23.6236 20.2901 23.2287 19.9999 22.6617 19.9999C17.4609 19.9999 11.3116 22.1869 9.21573 23.1555C8.54748 23.466 8.35173 23.9723 8.46985 24.5055C8.60823 25.1198 8.94235 25.4066 9.53973 25.4066C10.1607 25.4066 16.607 23.6044 20.414 23.6044Z" fill="#313131"/>
</g>
<path id="Vector_8" d="M30.3736 25.1771C30.3736 26.6824 30.9237 27.2021 31.8755 27.2021C32.8205 27.2021 33.2727 26.2706 33.5832 23.6044C37.3903 23.6044 43.8365 25.4066 44.4575 25.4066C45.0583 25.4066 45.3924 25.1198 45.5274 24.5055C45.6455 23.9723 45.4498 23.466 44.7815 23.1555C42.6856 22.1869 36.5364 19.9999 31.3355 19.9999C30.7685 19.9999 30.3736 20.2901 30.3736 21.0158V25.1771ZM20.414 23.6044C20.7245 26.2706 21.1767 27.2021 22.1217 27.2021C23.0735 27.2021 23.6236 26.6824 23.6236 25.1771V21.0158C23.6236 20.2901 23.2287 19.9999 22.6617 19.9999C17.4609 19.9999 11.3116 22.1869 9.21573 23.1555C8.54748 23.466 8.35173 23.9723 8.46985 24.5055C8.60823 25.1198 8.94235 25.4066 9.53973 25.4066C10.1607 25.4066 16.607 23.6044 20.414 23.6044Z" fill="url(#paint3_linear_345_11189)"/>
</g>
<defs>
<filter id="filter0_d_345_11189" x="16.0469" y="42.1865" width="21.8984" height="8.0625" filterUnits="userSpaceOnUse" color-interpolation-filters="sRGB">
<feFlood flood-opacity="0" result="BackgroundImageFix"/>
<feColorMatrix in="SourceAlpha" type="matrix" values="0 0 0 0 0 0 0 0 0 0 0 0 0 0 0 0 0 0 127 0" result="hardAlpha"/>
<feOffset dy="1.5"/>
<feGaussianBlur stdDeviation="0.75"/>
<feColorMatrix type="matrix" values="0 0 0 0 1 0 0 0 0 0.509681 0 0 0 0 0 0 0 0 0.371207 0"/>
<feBlend mode="normal" in2="BackgroundImageFix" result="effect1_dropShadow_345_11189"/>
<feBlend mode="normal" in="SourceGraphic" in2="effect1_dropShadow_345_11189" result="shape"/>
</filter>
<filter id="filter1_i_345_11189" x="12.1484" y="28.3506" width="29.6992" height="8.77539" filterUnits="userSpaceOnUse" color-interpolation-filters="sRGB">
<feFlood flood-opacity="0" result="BackgroundImageFix"/>
<feBlend mode="normal" in="SourceGraphic" in2="BackgroundImageFix" result="shape"/>
<feColorMatrix in="SourceAlpha" type="matrix" values="0 0 0 0 0 0 0 0 0 0 0 0 0 0 0 0 0 0 127 0" result="hardAlpha"/>
<feOffset/>
<feGaussianBlur stdDeviation="0.75"/>
<feComposite in2="hardAlpha" operator="arithmetic" k2="-1" k3="1"/>
<feColorMatrix type="matrix" values="0 0 0 0 0.0387428 0 0 0 0 0.0406183 0 0 0 0 0.0875053 0 0 0 1 0"/>
<feBlend mode="normal" in2="shape" result="effect1_innerShadow_345_11189"/>
</filter>
<filter id="filter2_d_345_11189" x="8.2875" y="20" width="37.4211" height="8.25215" filterUnits="userSpaceOnUse" color-interpolation-filters="sRGB">
<feFlood flood-opacity="0" result="BackgroundImageFix"/>
<feColorMatrix in="SourceAlpha" type="matrix" values="0 0 0 0 0 0 0 0 0 0 0 0 0 0 0 0 0 0 127 0" result="hardAlpha"/>
<feOffset dy="0.9"/>
<feGaussianBlur stdDeviation="0.075"/>
<feColorMatrix type="matrix" values="0 0 0 0 0.565875 0 0 0 0 0.151272 0 0 0 0 0 0 0 0 0.15024 0"/>
<feBlend mode="normal" in2="BackgroundImageFix" result="effect1_dropShadow_345_11189"/>
<feBlend mode="normal" in="SourceGraphic" in2="effect1_dropShadow_345_11189" result="shape"/>
</filter>
<linearGradient id="paint0_linear_345_11189" x1="27" y1="0" x2="27" y2="36.2846" gradientUnits="userSpaceOnUse">
<stop stop-color="#E04300"/>
<stop offset="0.776042" stop-color="#FFA320"/>
</linearGradient>
<linearGradient id="paint1_linear_345_11189" x1="26.9962" y1="46.5639" x2="26.9962" y2="42.1865" gradientUnits="userSpaceOnUse">
<stop stop-color="#3D0D00"/>
<stop offset="1" stop-color="#661C04"/>
</linearGradient>
<linearGradient id="paint2_linear_345_11189" x1="26.9998" y1="28.3493" x2="26.9998" y2="37.1243" gradientUnits="userSpaceOnUse">
<stop stop-color="#191A33"/>
<stop offset="0.872" stop-color="#3B426A"/>
</linearGradient>
<linearGradient id="paint3_linear_345_11189" x1="39.2006" y1="19.3283" x2="39.2006" y2="27.2021" gradientUnits="userSpaceOnUse">
<stop stop-color="#9A2F00"/>
<stop offset="1" stop-color="#D44800"/>
</linearGradient>
</defs>
</svg>
