<svg width="54" height="54" viewBox="0 0 54 54" fill="none" xmlns="http://www.w3.org/2000/svg">
<g id="Group">
<path id="Vector" d="M54 27C54 34.1607 51.1552 41.0285 46.092 46.092C41.0285 51.1552 34.1607 54 27 54C19.8392 54 12.9716 51.1552 7.90813 46.092C2.84464 41.0285 0 34.1607 0 27C0 19.8392 2.84464 12.9716 7.90813 7.90813C12.9716 2.84464 19.8392 0 27 0C34.1607 0 41.0285 2.84464 46.092 7.90813C51.1552 12.9716 54 19.8392 54 27Z" fill="url(#paint0_linear_345_11198)"/>
<path id="Vector_2" d="M19.0455 36.747C18.5122 42.9739 21.4957 47.25 27.0003 47.25C32.5016 47.25 35.4885 42.9739 34.9552 36.747C34.4253 30.5167 31.1921 27 27.0003 27C22.8086 27 19.5753 30.5167 19.0455 36.747Z" fill="url(#paint1_linear_345_11198)"/>
<path id="Vector_3" d="M11.8125 18.5625C11.8125 15.768 13.6991 13.5 16.0312 13.5C18.3634 13.5 20.25 15.768 20.25 18.5625C20.25 21.3604 18.3634 23.625 16.0312 23.625C13.6991 23.625 11.8125 21.3604 11.8125 18.5625ZM33.75 18.5625C33.75 15.768 35.64 13.5 37.9688 13.5C40.3009 13.5 42.1875 15.768 42.1875 18.5625C42.1875 21.3604 40.3009 23.625 37.9688 23.625C35.64 23.625 33.75 21.3604 33.75 18.5625Z" fill="url(#paint2_linear_345_11198)"/>
<g id="Vector_4" filter="url(#filter0_i_345_11198)">
<path d="M11.8125 18.5625C11.8125 15.768 13.6991 13.5 16.0312 13.5C18.3634 13.5 20.25 15.768 20.25 18.5625C20.25 21.3604 18.3634 23.625 16.0312 23.625C13.6991 23.625 11.8125 21.3604 11.8125 18.5625ZM33.75 18.5625C33.75 15.768 35.64 13.5 37.9688 13.5C40.3009 13.5 42.1875 15.768 42.1875 18.5625C42.1875 21.3604 40.3009 23.625 37.9688 23.625C35.64 23.625 33.75 21.3604 33.75 18.5625Z" fill="#313131"/>
</g>
<path id="Vector_5" d="M15.1291 15.4153C15.7568 15.5571 16.1078 16.2658 15.9121 16.9982C15.7197 17.7339 15.0548 18.2132 14.4271 18.0714C13.7993 17.9297 13.4483 17.2209 13.6441 16.4852C13.8364 15.7562 14.5013 15.2702 15.1291 15.4153ZM37.6 15.6279C38.2952 15.7865 38.6867 16.5729 38.4707 17.3829C38.2547 18.203 37.519 18.7329 36.8203 18.5777C36.1251 18.4224 35.7336 17.6327 35.9496 16.8193C36.1622 16.0025 36.9013 15.4693 37.6033 15.6279H37.6Z" fill="#4E506A"/>
<g id="Vector_6" filter="url(#filter1_d_345_11198)">
<path d="M37.3523 5.72305C37.5278 5.70617 37.7033 5.69942 37.8821 5.69942C39.5258 5.69942 41.2234 6.38792 42.5126 7.59617C42.7452 7.81778 42.8829 8.12089 42.8967 8.44181C42.9105 8.76278 42.7995 9.07662 42.5869 9.31742C42.4843 9.43552 42.3584 9.53164 42.2177 9.59995C42.0769 9.66826 41.9237 9.70737 41.7671 9.71493C41.6108 9.72249 41.4546 9.69836 41.3078 9.64396C41.1609 9.58958 41.0266 9.50605 40.9129 9.39842C39.9848 8.5243 38.6989 8.04842 37.5649 8.15305C37.1717 8.18248 36.7893 8.29777 36.4454 8.49075C36.1015 8.68377 35.8038 8.94982 35.5736 9.27017C35.4812 9.39572 35.3644 9.5015 35.2304 9.58125C35.0964 9.661 34.9479 9.71311 34.7937 9.73451C34.6391 9.75587 34.4818 9.74612 34.3313 9.70579C34.1808 9.66545 34.0397 9.59539 33.9165 9.49967C33.6644 9.2994 33.4999 9.00902 33.4577 8.68981C33.4155 8.37057 33.4989 8.04745 33.6904 7.78855C34.1156 7.20042 34.6631 6.71128 35.2952 6.35475C35.9273 5.99821 36.629 5.78272 37.3523 5.72305ZM11.4829 7.59617C12.7343 6.40612 14.3868 5.72919 16.1134 5.69942C16.9291 5.68174 17.7369 5.86264 18.4671 6.2266C19.1974 6.59053 19.8282 7.12658 20.3052 7.78855C20.4962 8.04731 20.5797 8.36996 20.5382 8.68893C20.4966 9.0079 20.3333 9.29842 20.0824 9.49967C19.959 9.59546 19.8178 9.66562 19.6669 9.70599C19.516 9.74635 19.3585 9.75614 19.2038 9.73474C19.0491 9.71338 18.9002 9.66127 18.7659 9.58145C18.6316 9.50167 18.5147 9.39583 18.4219 9.27017C18.1916 8.94995 17.894 8.68404 17.55 8.49106C17.206 8.29807 16.824 8.18272 16.4307 8.15305C15.3 8.04842 14.0108 8.5243 13.0827 9.39842C12.969 9.50605 12.8347 9.58958 12.6879 9.64396C12.541 9.69836 12.3848 9.72249 12.2284 9.71493C12.072 9.70737 11.9188 9.66826 11.7779 9.59995C11.637 9.53164 11.5114 9.43552 11.4087 9.31742C11.196 9.07662 11.085 8.76278 11.0988 8.44181C11.1127 8.12089 11.2503 7.81778 11.4829 7.59617Z" fill="#313131"/>
</g>
<path id="Vector_7" d="M37.3523 5.72305C37.5278 5.70617 37.7033 5.69942 37.8821 5.69942C39.5258 5.69942 41.2234 6.38792 42.5126 7.59617C42.7452 7.81778 42.8829 8.12089 42.8967 8.44181C42.9105 8.76278 42.7995 9.07662 42.5869 9.31742C42.4843 9.43552 42.3584 9.53164 42.2177 9.59995C42.0769 9.66826 41.9237 9.70737 41.7671 9.71493C41.6108 9.72249 41.4546 9.69836 41.3078 9.64396C41.1609 9.58958 41.0266 9.50605 40.9129 9.39842C39.9848 8.5243 38.6989 8.04842 37.5649 8.15305C37.1717 8.18248 36.7893 8.29777 36.4454 8.49075C36.1015 8.68377 35.8038 8.94982 35.5736 9.27017C35.4812 9.39572 35.3644 9.5015 35.2304 9.58125C35.0964 9.661 34.9479 9.71311 34.7937 9.73451C34.6391 9.75587 34.4818 9.74612 34.3313 9.70579C34.1808 9.66545 34.0397 9.59539 33.9165 9.49967C33.6644 9.2994 33.4999 9.00902 33.4577 8.68981C33.4155 8.37057 33.4989 8.04745 33.6904 7.78855C34.1156 7.20042 34.6631 6.71128 35.2952 6.35475C35.9273 5.99821 36.629 5.78272 37.3523 5.72305ZM11.4829 7.59617C12.7343 6.40612 14.3868 5.72919 16.1134 5.69942C16.9291 5.68174 17.7369 5.86264 18.4671 6.2266C19.1974 6.59053 19.8282 7.12658 20.3052 7.78855C20.4962 8.04731 20.5797 8.36996 20.5382 8.68893C20.4966 9.0079 20.3333 9.29842 20.0824 9.49967C19.959 9.59546 19.8178 9.66562 19.6669 9.70599C19.516 9.74635 19.3585 9.75614 19.2038 9.73474C19.0491 9.71338 18.9002 9.66127 18.7659 9.58145C18.6316 9.50167 18.5147 9.39583 18.4219 9.27017C18.1916 8.94995 17.894 8.68404 17.55 8.49106C17.206 8.29807 16.824 8.18272 16.4307 8.15305C15.3 8.04842 14.0108 8.5243 13.0827 9.39842C12.969 9.50605 12.8347 9.58958 12.6879 9.64396C12.541 9.69836 12.3848 9.72249 12.2284 9.71493C12.072 9.70737 11.9188 9.66826 11.7779 9.59995C11.637 9.53164 11.5114 9.43552 11.4087 9.31742C11.196 9.07662 11.085 8.76278 11.0988 8.44181C11.1127 8.12089 11.2503 7.81778 11.4829 7.59617Z" fill="url(#paint3_linear_345_11198)"/>
</g>
<defs>
<filter id="filter0_i_345_11198" x="11.8125" y="13.5" width="30.375" height="10.125" filterUnits="userSpaceOnUse" color-interpolation-filters="sRGB">
<feFlood flood-opacity="0" result="BackgroundImageFix"/>
<feBlend mode="normal" in="SourceGraphic" in2="BackgroundImageFix" result="shape"/>
<feColorMatrix in="SourceAlpha" type="matrix" values="0 0 0 0 0 0 0 0 0 0 0 0 0 0 0 0 0 0 127 0" result="hardAlpha"/>
<feOffset/>
<feGaussianBlur stdDeviation="0.75"/>
<feComposite in2="hardAlpha" operator="arithmetic" k2="-1" k3="1"/>
<feColorMatrix type="matrix" values="0 0 0 0 0.0980392 0 0 0 0 0.101961 0 0 0 0 0.2 0 0 0 0.819684 0"/>
<feBlend mode="normal" in2="shape" result="effect1_innerShadow_345_11198"/>
</filter>
<filter id="filter1_d_345_11198" x="6.59766" y="2.69824" width="40.8008" height="13.0479" filterUnits="userSpaceOnUse" color-interpolation-filters="sRGB">
<feFlood flood-opacity="0" result="BackgroundImageFix"/>
<feColorMatrix in="SourceAlpha" type="matrix" values="0 0 0 0 0 0 0 0 0 0 0 0 0 0 0 0 0 0 127 0" result="hardAlpha"/>
<feOffset dy="1.5"/>
<feGaussianBlur stdDeviation="2.25"/>
<feColorMatrix type="matrix" values="0 0 0 0 0.803922 0 0 0 0 0.388235 0 0 0 0 0.00392157 0 0 0 0.145679 0"/>
<feBlend mode="normal" in2="BackgroundImageFix" result="effect1_dropShadow_345_11198"/>
<feBlend mode="normal" in="SourceGraphic" in2="effect1_dropShadow_345_11198" result="shape"/>
</filter>
<linearGradient id="paint0_linear_345_11198" x1="27" y1="5.535" x2="27" y2="54" gradientUnits="userSpaceOnUse">
<stop stop-color="#FEEA70"/>
<stop offset="1" stop-color="#F69B30"/>
</linearGradient>
<linearGradient id="paint1_linear_345_11198" x1="27" y1="27" x2="27" y2="47.25" gradientUnits="userSpaceOnUse">
<stop stop-color="#472315"/>
<stop offset="1" stop-color="#8B3A0E"/>
</linearGradient>
<linearGradient id="paint2_linear_345_11198" x1="27" y1="13.5" x2="27" y2="23.625" gradientUnits="userSpaceOnUse">
<stop stop-color="#191A33"/>
<stop offset="0.872" stop-color="#3B426A"/>
</linearGradient>
<linearGradient id="paint3_linear_345_11198" x1="26.9971" y1="5.69662" x2="26.9971" y2="9.74662" gradientUnits="userSpaceOnUse">
<stop stop-color="#E78E0D"/>
<stop offset="1" stop-color="#CB6000"/>
</linearGradient>
</defs>
</svg>
