<svg width="54" height="54" viewBox="0 0 54 54" fill="none" xmlns="http://www.w3.org/2000/svg">
<g id="Group 689">
<path id="Vector" d="M27 0C19.8392 0 12.9716 2.84464 7.90813 7.90813C2.84464 12.9716 0 19.8392 0 27C0 34.1607 2.84464 41.0285 7.90813 46.092C12.9716 51.1552 19.8392 54 27 54C34.1607 54 41.0285 51.1552 46.092 46.092C51.1552 41.0285 54 34.1607 54 27C54 19.8392 51.1552 12.9716 46.092 7.90813C41.0285 2.84464 34.1607 0 27 0Z" fill="url(#paint0_linear_345_11206)"/>
<path id="Vector_2" d="M35.3477 13.5C27.9295 13.5 27.0014 19.656 27.0014 19.656C27.0014 19.656 26.0766 13.5 18.6584 13.5C11.5236 13.5 9.44465 20.9992 10.3154 25.0087C12.6104 35.6063 27.0014 43.0312 27.0014 43.0312C27.0014 43.0312 41.3957 35.6063 43.6907 25.0087C44.558 20.9992 42.4757 13.5 35.3477 13.5Z" fill="white"/>
</g>
<defs>
<linearGradient id="paint0_linear_345_11206" x1="27" y1="0" x2="27" y2="54" gradientUnits="userSpaceOnUse">
<stop stop-color="#FF6680"/>
<stop offset="1" stop-color="#E61739"/>
</linearGradient>
</defs>
</svg>
