<svg width="28" height="29" viewBox="0 0 28 29" fill="none" xmlns="http://www.w3.org/2000/svg">
<g id="esoteric 1" clip-path="url(#clip0_227_8821)">
<g id="Group">
<g id="Group_2">
<path id="Vector" d="M26.4505 7.0658H17.6433L13.9867 0.732422L10.3301 7.0658H1.52295L5.92654 14.693L1.52295 22.3203H10.3301L13.9867 28.6537L17.6433 22.3203H26.4505L22.0469 14.693L26.4505 7.0658ZM25.035 7.88298L21.575 13.8759L18.115 7.88298H25.035ZM13.9867 2.36685L16.6997 7.0658H11.2738L13.9867 2.36685ZM2.93842 7.88298H9.85836L6.39836 13.8759L2.93842 7.88298ZM2.93842 21.5031L6.39842 15.5102L9.85841 21.5031H2.93842ZM13.9867 27.0192L11.2738 22.3203H16.6997L13.9867 27.0192ZM17.1715 21.5031H10.802L6.87013 14.693L10.802 7.88298H17.1715L21.1033 14.693L17.1715 21.5031ZM25.035 21.5031H18.1151L21.5751 15.5102L25.035 21.5031Z" fill="#9E1256"/>
</g>
</g>
<g id="Group_3">
<g id="Group_4">
<path id="Vector_2" d="M19.1193 14.1196C19.0248 13.9788 16.7694 10.6699 13.8768 10.6699C10.9843 10.6699 8.72903 13.9787 8.63441 14.1196L8.48145 14.3473L8.63441 14.5751C8.72897 14.7159 10.9843 18.0248 13.8768 18.0248C16.7694 18.0248 19.0247 14.716 19.1193 14.5751L19.2723 14.3473L19.1193 14.1196ZM13.8768 17.2076C11.8193 17.2076 10.0199 15.0608 9.47854 14.3471C10.0191 13.6326 11.8146 11.4871 13.8768 11.4871C15.9339 11.4871 17.7331 13.633 18.2749 14.3473C17.7331 15.0617 15.9339 17.2076 13.8768 17.2076Z" fill="#9E1256"/>
</g>
</g>
<g id="Group_5">
<g id="Group_6">
<path id="Vector_3" d="M13.8759 11.8975C12.5241 11.8975 11.4243 12.9972 11.4243 14.3491C11.4243 15.7009 12.5241 16.8007 13.8759 16.8007C15.2278 16.8007 16.3275 15.7009 16.3275 14.3491C16.3275 12.9972 15.2278 11.8975 13.8759 11.8975ZM13.8759 15.9835C12.9747 15.9835 12.2415 15.2503 12.2415 14.3491C12.2415 13.4479 12.9747 12.7146 13.8759 12.7146C14.7772 12.7146 15.5104 13.4479 15.5104 14.3491C15.5104 15.2503 14.7772 15.9835 13.8759 15.9835Z" fill="#9E1256"/>
</g>
</g>
<g id="Group_7">
<g id="Group_8">
<path id="Vector_4" d="M14.2864 13.9418V13.5332H13.4691V13.9418H13.0605V14.759H13.4691V15.1676H14.2864V14.759H14.6949V13.9418H14.2864Z" fill="#9E1256"/>
</g>
</g>
<g id="Group_9">
<g id="Group_10">
<path id="Vector_5" d="M14.285 4.95801H13.4678V5.77519H14.285V4.95801Z" fill="#9E1256"/>
</g>
</g>
<g id="Group_11">
<g id="Group_12">
<path id="Vector_6" d="M14.285 23.751H13.4678V24.5682H14.285V23.751Z" fill="#9E1256"/>
</g>
</g>
<g id="Group_13">
<g id="Group_14">
<path id="Vector_7" d="M22.0472 19.252H21.23V20.0691H22.0472V19.252Z" fill="#9E1256"/>
</g>
</g>
<g id="Group_15">
<g id="Group_16">
<path id="Vector_8" d="M6.52226 19.252H5.70508V20.0691H6.52226V19.252Z" fill="#9E1256"/>
</g>
</g>
<g id="Group_17">
<g id="Group_18">
<path id="Vector_9" d="M22.0491 9.4502H21.2319V10.2674H22.0491V9.4502Z" fill="#9E1256"/>
</g>
</g>
<g id="Group_19">
<g id="Group_20">
<path id="Vector_10" d="M6.52226 9.4502H5.70508V10.2674H6.52226V9.4502Z" fill="#9E1256"/>
</g>
</g>
<g id="Group_21">
<g id="Group_22">
<path id="Vector_11" d="M9.72053 3.865L9.14275 3.28711L8.56486 3.865L7.98702 3.28711L7.40918 3.865L7.98702 4.44284L7.40918 5.02063L7.98702 5.59852L8.56486 5.02063L9.14275 5.59852L9.72053 5.02063L9.14275 4.44284L9.72053 3.865Z" fill="#9E1256"/>
</g>
</g>
<g id="Group_23">
<g id="Group_24">
<path id="Vector_12" d="M20.3959 3.865L19.818 3.28711L19.2402 3.86495L18.6624 3.28711L18.0845 3.865L18.6623 4.44284L18.0845 5.02063L18.6624 5.59852L19.2402 5.02068L19.818 5.59852L20.3959 5.02063L19.8181 4.44284L20.3959 3.865Z" fill="#9E1256"/>
</g>
</g>
<g id="Group_25">
<g id="Group_26">
<path id="Vector_13" d="M9.72053 24.445L9.14275 23.8672L8.56486 24.445L7.98702 23.8672L7.40918 24.445L7.98702 25.0229L7.40918 25.6008L7.98702 26.1785L8.56486 25.6008L9.14275 26.1785L9.72053 25.6008L9.14275 25.0229L9.72053 24.445Z" fill="#9E1256"/>
</g>
</g>
<g id="Group_27">
<g id="Group_28">
<path id="Vector_14" d="M26.1166 14.029L25.5387 13.4512L24.9609 14.029L24.3831 13.4512L23.8052 14.029L24.3831 14.6069L23.8052 15.1847L24.3831 15.7626L24.9609 15.1847L25.5387 15.7626L26.1166 15.1847L25.5388 14.6069L26.1166 14.029Z" fill="#9E1256"/>
</g>
</g>
<g id="Group_29">
<g id="Group_30">
<path id="Vector_15" d="M4.45838 13.9265L3.88054 13.3486L3.30265 13.9265L2.72487 13.3486L2.14697 13.9265L2.72487 14.5043L2.14697 15.0822L2.72487 15.66L3.30265 15.0822L3.88054 15.66L4.45838 15.0822L3.88054 14.5043L4.45838 13.9265Z" fill="#9E1256"/>
</g>
</g>
<g id="Group_31">
<g id="Group_32">
<path id="Vector_16" d="M20.3973 24.445L19.8195 23.8672L19.2417 24.445L18.6638 23.8672L18.0859 24.445L18.6638 25.0229L18.0859 25.6008L18.6638 26.1785L19.2417 25.6008L19.8195 26.1785L20.3973 25.6008L19.8196 25.0229L20.3973 24.445Z" fill="#9E1256"/>
</g>
</g>
</g>
<defs>
<clipPath id="clip0_227_8821">
<rect width="27.9212" height="27.9212" fill="white" transform="translate(0.0268555 0.731445)"/>
</clipPath>
</defs>
</svg>
