<svg width="24" height="25" viewBox="0 0 24 25" fill="none" xmlns="http://www.w3.org/2000/svg">
<g id="esoteric 1" clip-path="url(#clip0_1045_10956)">
<g id="Group">
<g id="Group_2">
<path id="Vector" d="M22.7123 5.94392H15.1418L11.9987 0.5L8.8556 5.94392H1.28516L5.07038 12.5L1.28516 19.0561H8.8556L11.9987 24.5L15.1418 19.0561H22.7123L18.9271 12.5L22.7123 5.94392ZM21.4956 6.64634L18.5214 11.7976L15.5473 6.64634H21.4956ZM11.9987 1.90489L14.3307 5.94392H9.66674L11.9987 1.90489ZM2.50187 6.64634H8.45008L5.47595 11.7976L2.50187 6.64634ZM2.50187 18.3537L5.476 13.2024L8.45013 18.3537H2.50187ZM11.9987 23.0951L9.66674 19.0561H14.3307L11.9987 23.0951ZM14.7363 18.3537H9.26117L5.88147 12.5L9.26117 6.64634H14.7363L18.116 12.5L14.7363 18.3537ZM21.4956 18.3537H15.5474L18.5215 13.2024L21.4956 18.3537Z" fill="url(#paint0_linear_1045_10956)"/>
</g>
</g>
<g id="Group_3">
<g id="Group_4">
<path id="Vector_2" d="M16.4097 12.0081C16.3284 11.8871 14.3897 9.04297 11.9034 9.04297C9.41704 9.04297 7.47844 11.8871 7.39711 12.0081L7.26562 12.2039L7.39711 12.3997C7.47839 12.5208 9.41704 15.3649 11.9034 15.3649C14.3897 15.3649 16.3284 12.5208 16.4097 12.3997L16.5412 12.2039L16.4097 12.0081ZM11.9034 14.6625C10.1348 14.6625 8.58804 12.8172 8.1227 12.2037C8.58738 11.5895 10.1308 9.74539 11.9034 9.74539C13.6716 9.74539 15.2182 11.5899 15.6839 12.2039C15.2182 12.818 13.6716 14.6625 11.9034 14.6625Z" fill="url(#paint1_linear_1045_10956)"/>
</g>
</g>
<g id="Group_5">
<g id="Group_6">
<path id="Vector_3" d="M11.9081 10.0977C10.7461 10.0977 9.80078 11.043 9.80078 12.205C9.80078 13.367 10.7461 14.3123 11.9081 14.3123C13.0701 14.3123 14.0155 13.367 14.0155 12.205C14.0155 11.043 13.0701 10.0977 11.9081 10.0977ZM11.9081 13.6099C11.1335 13.6099 10.5032 12.9796 10.5032 12.205C10.5032 11.4303 11.1335 10.8001 11.9081 10.8001C12.6828 10.8001 13.313 11.4303 13.313 12.205C13.313 12.9796 12.6828 13.6099 11.9081 13.6099Z" fill="url(#paint2_linear_1045_10956)"/>
</g>
</g>
<g id="Group_7">
<g id="Group_8">
<path id="Vector_4" d="M12.2607 11.8551V11.5039H11.5582V11.8551H11.207V12.5576H11.5582V12.9088H12.2607V12.5576H12.6119V11.8551H12.2607Z" fill="url(#paint3_linear_1045_10956)"/>
</g>
</g>
<g id="Group_9">
<g id="Group_10">
<path id="Vector_5" d="M12.261 4.13281H11.5586V4.83523H12.261V4.13281Z" fill="url(#paint4_linear_1045_10956)"/>
</g>
</g>
<g id="Group_11">
<g id="Group_12">
<path id="Vector_6" d="M12.261 20.2871H11.5586V20.9895H12.261V20.2871Z" fill="url(#paint5_linear_1045_10956)"/>
</g>
</g>
<g id="Group_13">
<g id="Group_14">
<path id="Vector_7" d="M18.9329 16.4199H18.2305V17.1223H18.9329V16.4199Z" fill="url(#paint6_linear_1045_10956)"/>
</g>
</g>
<g id="Group_15">
<g id="Group_16">
<path id="Vector_8" d="M5.58915 16.4199H4.88672V17.1223H5.58915V16.4199Z" fill="url(#paint7_linear_1045_10956)"/>
</g>
</g>
<g id="Group_17">
<g id="Group_18">
<path id="Vector_9" d="M18.9329 7.99414H18.2305V8.69656H18.9329V7.99414Z" fill="url(#paint8_linear_1045_10956)"/>
</g>
</g>
<g id="Group_19">
<g id="Group_20">
<path id="Vector_10" d="M5.58915 7.99414H4.88672V8.69656H5.58915V7.99414Z" fill="url(#paint9_linear_1045_10956)"/>
</g>
</g>
<g id="Group_21">
<g id="Group_22">
<path id="Vector_11" d="M8.33835 3.194L7.8417 2.69727L7.34495 3.194L6.84826 2.69727L6.35156 3.194L6.84826 3.69069L6.35156 4.18733L6.84826 4.68406L7.34495 4.18733L7.8417 4.68406L8.33835 4.18733L7.8417 3.69069L8.33835 3.194Z" fill="url(#paint10_linear_1045_10956)"/>
</g>
</g>
<g id="Group_23">
<g id="Group_24">
<path id="Vector_12" d="M17.5142 3.194L17.0175 2.69727L16.5208 3.19395L16.0241 2.69727L15.5273 3.194L16.024 3.69069L15.5273 4.18733L16.0241 4.68406L16.5208 4.18737L17.0175 4.68406L17.5142 4.18733L17.0175 3.69069L17.5142 3.194Z" fill="url(#paint11_linear_1045_10956)"/>
</g>
</g>
<g id="Group_25">
<g id="Group_26">
<path id="Vector_13" d="M8.33835 20.8834L7.8417 20.3867L7.34495 20.8834L6.84826 20.3867L6.35156 20.8834L6.84826 21.3801L6.35156 21.8768L6.84826 22.3735L7.34495 21.8768L7.8417 22.3735L8.33835 21.8768L7.8417 21.3801L8.33835 20.8834Z" fill="url(#paint12_linear_1045_10956)"/>
</g>
</g>
<g id="Group_27">
<g id="Group_28">
<path id="Vector_14" d="M22.4283 11.9303L21.9315 11.4336L21.4348 11.9303L20.9382 11.4336L20.4414 11.9303L20.9381 12.427L20.4414 12.9237L20.9382 13.4204L21.4348 12.9237L21.9315 13.4204L22.4283 12.9237L21.9316 12.427L22.4283 11.9303Z" fill="url(#paint13_linear_1045_10956)"/>
</g>
</g>
<g id="Group_29">
<g id="Group_30">
<path id="Vector_15" d="M3.81105 11.8424L3.31435 11.3457L2.81761 11.8424L2.32096 11.3457L1.82422 11.8424L2.32096 12.3391L1.82422 12.8358L2.32096 13.3325L2.81761 12.8358L3.31435 13.3325L3.81105 12.8358L3.31435 12.3391L3.81105 11.8424Z" fill="url(#paint14_linear_1045_10956)"/>
</g>
</g>
<g id="Group_31">
<g id="Group_32">
<path id="Vector_16" d="M17.5142 20.8834L17.0175 20.3867L16.5208 20.8834L16.0241 20.3867L15.5273 20.8834L16.024 21.3801L15.5273 21.8768L16.0241 22.3735L16.5208 21.8768L17.0175 22.3735L17.5142 21.8768L17.0175 21.3801L17.5142 20.8834Z" fill="url(#paint15_linear_1045_10956)"/>
</g>
</g>
</g>
<defs>
<linearGradient id="paint0_linear_1045_10956" x1="1.4042" y1="0.50028" x2="22.7496" y2="0.53355" gradientUnits="userSpaceOnUse">
<stop stop-color="#9E1256"/>
<stop offset="0.265625" stop-color="#CE164F"/>
<stop offset="0.5" stop-color="#E74249"/>
<stop offset="0.770833" stop-color="#ED6E49"/>
<stop offset="1" stop-color="#F9B048"/>
</linearGradient>
<linearGradient id="paint1_linear_1045_10956" x1="7.31716" y1="9.04304" x2="16.5573" y2="9.06671" gradientUnits="userSpaceOnUse">
<stop stop-color="#9E1256"/>
<stop offset="0.265625" stop-color="#CE164F"/>
<stop offset="0.5" stop-color="#E74249"/>
<stop offset="0.770833" stop-color="#ED6E49"/>
<stop offset="1" stop-color="#F9B048"/>
</linearGradient>
<linearGradient id="paint2_linear_1045_10956" x1="9.8242" y1="10.0977" x2="14.0228" y2="10.105" gradientUnits="userSpaceOnUse">
<stop stop-color="#9E1256"/>
<stop offset="0.265625" stop-color="#CE164F"/>
<stop offset="0.5" stop-color="#E74249"/>
<stop offset="0.770833" stop-color="#ED6E49"/>
<stop offset="1" stop-color="#F9B048"/>
</linearGradient>
<linearGradient id="paint3_linear_1045_10956" x1="11.2148" y1="11.5039" x2="12.6143" y2="11.5064" gradientUnits="userSpaceOnUse">
<stop stop-color="#9E1256"/>
<stop offset="0.265625" stop-color="#CE164F"/>
<stop offset="0.5" stop-color="#E74249"/>
<stop offset="0.770833" stop-color="#ED6E49"/>
<stop offset="1" stop-color="#F9B048"/>
</linearGradient>
<linearGradient id="paint4_linear_1045_10956" x1="11.5625" y1="4.13282" x2="12.2623" y2="4.13404" gradientUnits="userSpaceOnUse">
<stop stop-color="#9E1256"/>
<stop offset="0.265625" stop-color="#CE164F"/>
<stop offset="0.5" stop-color="#E74249"/>
<stop offset="0.770833" stop-color="#ED6E49"/>
<stop offset="1" stop-color="#F9B048"/>
</linearGradient>
<linearGradient id="paint5_linear_1045_10956" x1="11.5625" y1="20.2871" x2="12.2623" y2="20.2883" gradientUnits="userSpaceOnUse">
<stop stop-color="#9E1256"/>
<stop offset="0.265625" stop-color="#CE164F"/>
<stop offset="0.5" stop-color="#E74249"/>
<stop offset="0.770833" stop-color="#ED6E49"/>
<stop offset="1" stop-color="#F9B048"/>
</linearGradient>
<linearGradient id="paint6_linear_1045_10956" x1="18.2344" y1="16.4199" x2="18.9341" y2="16.4212" gradientUnits="userSpaceOnUse">
<stop stop-color="#9E1256"/>
<stop offset="0.265625" stop-color="#CE164F"/>
<stop offset="0.5" stop-color="#E74249"/>
<stop offset="0.770833" stop-color="#ED6E49"/>
<stop offset="1" stop-color="#F9B048"/>
</linearGradient>
<linearGradient id="paint7_linear_1045_10956" x1="4.89062" y1="16.4199" x2="5.59038" y2="16.4212" gradientUnits="userSpaceOnUse">
<stop stop-color="#9E1256"/>
<stop offset="0.265625" stop-color="#CE164F"/>
<stop offset="0.5" stop-color="#E74249"/>
<stop offset="0.770833" stop-color="#ED6E49"/>
<stop offset="1" stop-color="#F9B048"/>
</linearGradient>
<linearGradient id="paint8_linear_1045_10956" x1="18.2344" y1="7.99415" x2="18.9341" y2="7.99537" gradientUnits="userSpaceOnUse">
<stop stop-color="#9E1256"/>
<stop offset="0.265625" stop-color="#CE164F"/>
<stop offset="0.5" stop-color="#E74249"/>
<stop offset="0.770833" stop-color="#ED6E49"/>
<stop offset="1" stop-color="#F9B048"/>
</linearGradient>
<linearGradient id="paint9_linear_1045_10956" x1="4.89062" y1="7.99415" x2="5.59038" y2="7.99537" gradientUnits="userSpaceOnUse">
<stop stop-color="#9E1256"/>
<stop offset="0.265625" stop-color="#CE164F"/>
<stop offset="0.5" stop-color="#E74249"/>
<stop offset="0.770833" stop-color="#ED6E49"/>
<stop offset="1" stop-color="#F9B048"/>
</linearGradient>
<linearGradient id="paint10_linear_1045_10956" x1="6.3626" y1="2.69729" x2="8.34181" y2="2.70074" gradientUnits="userSpaceOnUse">
<stop stop-color="#9E1256"/>
<stop offset="0.265625" stop-color="#CE164F"/>
<stop offset="0.5" stop-color="#E74249"/>
<stop offset="0.770833" stop-color="#ED6E49"/>
<stop offset="1" stop-color="#F9B048"/>
</linearGradient>
<linearGradient id="paint11_linear_1045_10956" x1="15.5384" y1="2.69729" x2="17.5176" y2="2.70074" gradientUnits="userSpaceOnUse">
<stop stop-color="#9E1256"/>
<stop offset="0.265625" stop-color="#CE164F"/>
<stop offset="0.5" stop-color="#E74249"/>
<stop offset="0.770833" stop-color="#ED6E49"/>
<stop offset="1" stop-color="#F9B048"/>
</linearGradient>
<linearGradient id="paint12_linear_1045_10956" x1="6.3626" y1="20.3867" x2="8.34181" y2="20.3902" gradientUnits="userSpaceOnUse">
<stop stop-color="#9E1256"/>
<stop offset="0.265625" stop-color="#CE164F"/>
<stop offset="0.5" stop-color="#E74249"/>
<stop offset="0.770833" stop-color="#ED6E49"/>
<stop offset="1" stop-color="#F9B048"/>
</linearGradient>
<linearGradient id="paint13_linear_1045_10956" x1="20.4524" y1="11.4336" x2="22.4317" y2="11.4371" gradientUnits="userSpaceOnUse">
<stop stop-color="#9E1256"/>
<stop offset="0.265625" stop-color="#CE164F"/>
<stop offset="0.5" stop-color="#E74249"/>
<stop offset="0.770833" stop-color="#ED6E49"/>
<stop offset="1" stop-color="#F9B048"/>
</linearGradient>
<linearGradient id="paint14_linear_1045_10956" x1="1.83526" y1="11.3457" x2="3.81451" y2="11.3492" gradientUnits="userSpaceOnUse">
<stop stop-color="#9E1256"/>
<stop offset="0.265625" stop-color="#CE164F"/>
<stop offset="0.5" stop-color="#E74249"/>
<stop offset="0.770833" stop-color="#ED6E49"/>
<stop offset="1" stop-color="#F9B048"/>
</linearGradient>
<linearGradient id="paint15_linear_1045_10956" x1="15.5384" y1="20.3867" x2="17.5176" y2="20.3902" gradientUnits="userSpaceOnUse">
<stop stop-color="#9E1256"/>
<stop offset="0.265625" stop-color="#CE164F"/>
<stop offset="0.5" stop-color="#E74249"/>
<stop offset="0.770833" stop-color="#ED6E49"/>
<stop offset="1" stop-color="#F9B048"/>
</linearGradient>
<clipPath id="clip0_1045_10956">
<rect width="24.0004" height="24" fill="white" transform="translate(0 0.5)"/>
</clipPath>
</defs>
</svg>
