<svg width="24" height="25" viewBox="0 0 24 25" fill="none" xmlns="http://www.w3.org/2000/svg">
<g id="experience 1" clip-path="url(#clip0_972_48833)">
<g id="g6492">
<g id="g6494">
<g id="Clip path group">
<mask id="mask0_972_48833" style="mask-type:luminance" maskUnits="userSpaceOnUse" x="-1" y="0" width="25" height="25">
<g id="clipPath6500">
<path id="path6498" d="M-0.0078125 0.500542H23.9922V24.5005H-0.0078125V0.500542Z" fill="white"/>
</g>
</mask>
<g mask="url(#mask0_972_48833)">
<g id="g6496">
<g id="g6502">
<path id="path6504" d="M1.01953 3.53516V2.17817C1.01953 1.44561 1.61334 0.85185 2.346 0.85185H16.9918C17.7244 0.85185 18.3183 1.44561 18.3183 2.17817V2.5828" stroke="#313131" stroke-width="0.703124" stroke-miterlimit="10" stroke-linecap="round" stroke-linejoin="round"/>
</g>
<g id="g6506">
<path id="path6508" d="M18.3183 15.7328V22.8226C18.3183 23.5552 17.7244 24.1489 16.9918 24.1489H2.346C1.61334 24.1489 1.01953 23.5552 1.01953 22.8226V5.08355" stroke="#313131" stroke-width="0.703124" stroke-miterlimit="10" stroke-linecap="round" stroke-linejoin="round"/>
</g>
<g id="g6510">
<path id="path6512" d="M8.8285 7.43106L8.19086 7.6621C7.67711 7.84838 7.29972 8.29159 7.19664 8.82798L7.05878 9.55013C6.95622 10.0837 7.36558 10.5786 7.90905 10.5786H9.6783H11.4273C11.9665 10.5786 12.375 10.0912 12.28 9.56049L12.1515 8.84251C12.0541 8.29768 11.6739 7.84651 11.1539 7.65784L10.4919 7.41789" stroke="#313131" stroke-width="0.703124" stroke-miterlimit="10" stroke-linecap="round" stroke-linejoin="round"/>
</g>
<g id="g6514">
<path id="path6516" d="M10.1505 6.53648H10.4954V7.41721V7.65102V7.65154C10.0187 8.06741 9.30823 8.06741 8.83203 7.65102V7.43038V6.53648H9.16564" stroke="#313131" stroke-width="0.703124" stroke-miterlimit="10" stroke-linecap="round" stroke-linejoin="round"/>
</g>
<g id="g6518">
<path id="path6520" d="M10.9865 4.33808V5.28294C10.9865 6.02385 10.3801 6.64784 9.63923 6.63355C8.92125 6.61972 8.34375 6.0335 8.34375 5.31247V4.33808C8.34375 3.60843 8.93536 3.01682 9.66516 3.01682C10.395 3.01682 10.9865 3.60843 10.9865 4.33808Z" stroke="#313131" stroke-width="0.703124" stroke-miterlimit="10" stroke-linecap="round" stroke-linejoin="round"/>
</g>
<g id="g6522">
<path id="path6524" d="M9.37891 4.52731C9.61295 4.69146 10.0973 4.68406 10.5927 4.48568C10.7012 4.44228 10.8031 4.3925 10.8964 4.3385" stroke="#313131" stroke-width="0.703124" stroke-miterlimit="10" stroke-linecap="round" stroke-linejoin="round"/>
</g>
<g id="g6526">
<path id="path6528" d="M4.12891 16.5977H15.0775" stroke="#313131" stroke-width="0.703124" stroke-miterlimit="10" stroke-linecap="round" stroke-linejoin="round"/>
</g>
<g id="g6530">
<path id="path6532" d="M4.12891 18.4927H15.0775" stroke="#313131" stroke-width="0.703124" stroke-miterlimit="10" stroke-linecap="round" stroke-linejoin="round"/>
</g>
<g id="g6534">
<path id="path6536" d="M4.12891 20.3887H15.0775" stroke="#313131" stroke-width="0.703124" stroke-miterlimit="10" stroke-linecap="round" stroke-linejoin="round"/>
</g>
<g id="g6538">
<path id="path6540" d="M4.12891 22.2842H15.0775" stroke="#313131" stroke-width="0.703124" stroke-miterlimit="10" stroke-linecap="round" stroke-linejoin="round"/>
</g>
<g id="g6542">
<path id="path6544" d="M4.12891 12.8062H15.0775" stroke="#313131" stroke-width="0.703124" stroke-miterlimit="10" stroke-linecap="round" stroke-linejoin="round"/>
</g>
<g id="g6546">
<path id="path6548" d="M4.12891 14.7017H15.0775" stroke="#313131" stroke-width="0.703124" stroke-miterlimit="10" stroke-linecap="round" stroke-linejoin="round"/>
</g>
<g id="g6550">
<path id="path6552" d="M3.18631 16.5973C3.18631 16.7922 3.0283 16.9502 2.83339 16.9502C2.63844 16.9502 2.48047 16.7922 2.48047 16.5973C2.48047 16.4025 2.63844 16.2445 2.83339 16.2445C3.0283 16.2445 3.18631 16.4025 3.18631 16.5973Z" fill="#313131"/>
</g>
<g id="g6554">
<path id="path6556" d="M3.18631 12.8064C3.18631 13.0012 3.0283 13.1592 2.83339 13.1592C2.63844 13.1592 2.48047 13.0012 2.48047 12.8064C2.48047 12.6114 2.63844 12.4535 2.83339 12.4535C3.0283 12.4535 3.18631 12.6114 3.18631 12.8064Z" fill="#313131"/>
</g>
<g id="g6558">
<path id="path6560" d="M3.18631 14.7018C3.18631 14.8967 3.0283 15.0547 2.83339 15.0547C2.63844 15.0547 2.48047 14.8967 2.48047 14.7018C2.48047 14.507 2.63844 14.349 2.83339 14.349C3.0283 14.349 3.18631 14.507 3.18631 14.7018Z" fill="#313131"/>
</g>
<g id="g6562">
<path id="path6564" d="M3.18631 18.4929C3.18631 18.6877 3.0283 18.8457 2.83339 18.8457C2.63844 18.8457 2.48047 18.6877 2.48047 18.4929C2.48047 18.298 2.63844 18.14 2.83339 18.14C3.0283 18.14 3.18631 18.298 3.18631 18.4929Z" fill="#313131"/>
</g>
<g id="g6566">
<path id="path6568" d="M3.18631 20.3888C3.18631 20.5837 3.0283 20.7417 2.83339 20.7417C2.63844 20.7417 2.48047 20.5837 2.48047 20.3888C2.48047 20.194 2.63844 20.036 2.83339 20.036C3.0283 20.036 3.18631 20.194 3.18631 20.3888Z" fill="#313131"/>
</g>
<g id="g6570">
<path id="path6572" d="M3.18631 22.2843C3.18631 22.4792 3.0283 22.6372 2.83339 22.6372C2.63844 22.6372 2.48047 22.4792 2.48047 22.2843C2.48047 22.0895 2.63844 21.9315 2.83339 21.9315C3.0283 21.9315 3.18631 22.0895 3.18631 22.2843Z" fill="#313131"/>
</g>
<g id="g6574">
<path id="path6576" d="M16.6992 10.9786V16.5637C16.6992 16.7209 16.8799 16.8089 17.0037 16.712L18.2031 15.7728C18.237 15.746 18.2783 15.7328 18.3194 15.7328C18.3603 15.7328 18.4017 15.746 18.4356 15.7728L19.635 16.712C19.7588 16.8089 19.9399 16.7209 19.9399 16.5637V12.6404" stroke="#313131" stroke-width="0.703124" stroke-miterlimit="10" stroke-linecap="round" stroke-linejoin="round"/>
</g>
<g id="g6578">
<path id="path6580" d="M22.9688 7.22855C22.9688 7.82021 22.308 8.27625 22.0946 8.79075C21.8734 9.3241 22.0099 10.1118 21.6079 10.5138C21.2059 10.9157 20.4181 10.7792 19.8847 11.0004C19.3702 11.2138 18.914 11.8745 18.3223 11.8745C17.7306 11.8745 17.2745 11.2138 16.7599 11.0004C16.2265 10.7792 15.4387 10.9157 15.0367 10.5137C14.6347 10.1118 14.7712 9.3241 14.55 8.79075C14.3367 8.27625 13.6758 7.82021 13.6758 7.22855C13.6758 6.6369 14.3367 6.18085 14.55 5.66635C14.7712 5.13301 14.6347 4.34528 15.0367 3.94333C15.4387 3.54142 16.2265 3.67787 16.7599 3.45672C17.2745 3.24334 17.7306 2.5826 18.3223 2.5826C18.9141 2.5826 19.3702 3.24334 19.8847 3.45672C20.4181 3.67792 21.206 3.54142 21.6079 3.94337C22.0099 4.34528 21.8734 5.13301 22.0946 5.66635C22.308 6.18085 22.9688 6.6369 22.9688 7.22855Z" stroke="#313131" stroke-width="0.703124" stroke-miterlimit="10" stroke-linecap="round" stroke-linejoin="round"/>
</g>
<g id="g6582">
<path id="path6584" d="M18.3994 4.93577L19.1441 6.04807C19.1563 6.0663 19.1746 6.07962 19.1958 6.08562L20.4839 6.45007C20.5472 6.46802 20.5721 6.54452 20.5314 6.59627L19.7035 7.64814C19.6899 7.66544 19.683 7.68696 19.6838 7.70894L19.7352 9.04642C19.7377 9.11228 19.6726 9.15953 19.6108 9.1368L18.3545 8.67466C18.3338 8.66706 18.3112 8.66706 18.2906 8.67466L17.0342 9.1368C16.9725 9.15953 16.9073 9.11228 16.9099 9.04642L16.9612 7.70894C16.9621 7.68696 16.9551 7.66544 16.9414 7.64814L16.1136 6.59627C16.0729 6.54452 16.0978 6.46802 16.1611 6.45007L17.4492 6.08562C17.4704 6.07962 17.4887 6.0663 17.5009 6.04807L18.2457 4.93577C18.2823 4.88107 18.3628 4.88107 18.3994 4.93577Z" stroke="#313131" stroke-width="0.703124" stroke-miterlimit="10" stroke-linecap="round" stroke-linejoin="round"/>
</g>
</g>
</g>
</g>
</g>
</g>
</g>
<defs>
<clipPath id="clip0_972_48833">
<rect width="24" height="23.9999" fill="white" transform="translate(0 0.5)"/>
</clipPath>
</defs>
</svg>
