<svg width="24" height="25" viewBox="0 0 24 25" fill="none" xmlns="http://www.w3.org/2000/svg">
<g id="fi_3504016">
<path id="Vector" d="M11.9514 8.02883C12.6602 8.02883 13.3394 7.67164 13.8639 7.02336C14.343 6.43133 14.6177 5.68461 14.6177 4.97398C14.6177 3.54242 13.4716 2.46289 11.9514 2.46289C10.4313 2.46289 9.28516 3.54102 9.28516 4.97398C9.28516 5.68461 9.55984 6.43133 10.0389 7.02336C10.5634 7.67211 11.2427 8.02883 11.9514 8.02883ZM11.9514 3.23633C13.0483 3.23633 13.8442 3.96711 13.8442 4.97398C13.8442 6.23961 12.8088 7.25539 11.9514 7.25539C10.9028 7.25539 10.0586 6.00711 10.0586 4.97398C10.0586 3.96898 10.8545 3.23633 11.9514 3.23633Z" fill="url(#paint0_linear_1045_11019)"/>
<path id="Vector_2" d="M8.79971 11.74L8.5283 15.6114C8.52473 15.6621 8.53117 15.713 8.54726 15.7611C8.56335 15.8093 8.58877 15.8538 8.62206 15.8922C8.65536 15.9305 8.69589 15.9619 8.74133 15.9846C8.78677 16.0073 8.83623 16.0208 8.8869 16.0244H8.91408C9.01191 16.0243 9.10607 15.9872 9.17764 15.9205C9.24921 15.8538 9.29288 15.7624 9.29986 15.6649L9.57127 11.7967C9.57484 11.7461 9.5684 11.6952 9.55231 11.647C9.53622 11.5989 9.5108 11.5543 9.4775 11.516C9.4442 11.4776 9.40368 11.4462 9.35824 11.4235C9.3128 11.4009 9.26334 11.3873 9.21268 11.3838C9.16202 11.3802 9.11115 11.3866 9.06298 11.4027C9.0148 11.4188 8.97027 11.4442 8.93193 11.4775C8.89358 11.5108 8.86216 11.5514 8.83948 11.5968C8.81679 11.6422 8.80328 11.6917 8.79971 11.7424V11.74Z" fill="url(#paint1_linear_1045_11019)"/>
<path id="Vector_3" d="M17.1971 16.0239C17.3021 16.0147 17.399 15.9641 17.4668 15.8835C17.5345 15.8028 17.5675 15.6986 17.5585 15.5936C17.5585 15.5936 17.1498 12.6625 17.0898 11.6791C16.9787 9.91332 15.9001 8.49676 14.2149 8.23895C13.6224 8.14801 12.5462 8.07957 11.9837 8.0791C11.2158 8.0924 10.4492 8.14544 9.68682 8.23801C8.89645 8.34621 8.17256 8.73865 7.65057 9.34191C7.10213 9.9752 6.85698 10.7847 6.80682 11.681C6.75057 12.6654 6.37792 15.5979 6.37792 15.5979C6.37164 15.6487 6.37552 15.7003 6.38934 15.7496C6.40317 15.7989 6.42665 15.845 6.45843 15.8852C6.49022 15.9254 6.52966 15.9588 6.57448 15.9836C6.61931 16.0084 6.66861 16.0241 6.71953 16.0297C6.77045 16.0352 6.82197 16.0307 6.8711 16.0162C6.92024 16.0017 6.966 15.9776 7.00574 15.9453C7.04548 15.9129 7.0784 15.873 7.1026 15.8279C7.12679 15.7827 7.14177 15.7332 7.14667 15.6822C7.14667 15.6822 7.52495 12.7179 7.57885 11.7236C7.65573 10.3146 8.48963 9.18207 9.79229 9.00488C10.5193 8.91658 11.2505 8.86588 11.9828 8.85301C12.5068 8.85301 13.547 8.91957 14.0973 9.00395C14.7023 9.09553 15.2556 9.39804 15.6592 9.85801C16.0885 10.3511 16.2746 11.0135 16.3154 11.726C16.3749 12.7216 16.7903 15.6864 16.7903 15.6864C16.8053 15.7826 16.8549 15.87 16.9299 15.9321C17.0048 15.9943 17.0998 16.0269 17.1971 16.0239Z" fill="url(#paint2_linear_1045_11019)"/>
<path id="Vector_4" d="M14.6844 11.3817C14.6335 11.3852 14.5838 11.3988 14.5381 11.4216C14.4925 11.4444 14.4518 11.476 14.4184 11.5146C14.385 11.5532 14.3596 11.598 14.3436 11.6465C14.3277 11.695 14.3215 11.7461 14.3253 11.797L14.5972 15.668C14.604 15.7656 14.6475 15.857 14.719 15.9238C14.7905 15.9906 14.8847 16.0278 14.9825 16.028H15.0102C15.1125 16.0206 15.2076 15.973 15.2749 15.8956C15.3421 15.8182 15.3759 15.7173 15.3688 15.615L15.0969 11.7436C15.0936 11.6927 15.0804 11.643 15.0578 11.5973C15.0353 11.5516 15.004 11.5107 14.9657 11.4771C14.9274 11.4435 14.8828 11.4178 14.8346 11.4014C14.7863 11.385 14.7353 11.3783 14.6844 11.3817Z" fill="url(#paint3_linear_1045_11019)"/>
<path id="Vector_5" d="M14.4195 19.5255L16.2795 17.7124C16.3312 17.662 16.3677 17.5982 16.385 17.5282C16.4023 17.4582 16.3996 17.3847 16.3773 17.3161C16.355 17.2475 16.314 17.1865 16.2589 17.1399C16.2037 17.0934 16.1367 17.0633 16.0653 17.0529L13.4952 16.6779L12.3458 14.3505C12.3139 14.2858 12.2645 14.2312 12.2032 14.1931C12.1418 14.155 12.0711 14.1348 11.9989 14.1348C11.9267 14.1348 11.856 14.155 11.7947 14.1931C11.7334 14.2312 11.6839 14.2858 11.652 14.3505L10.5027 16.6793L7.9325 17.0543C7.86112 17.0647 7.79407 17.0948 7.73893 17.1414C7.68379 17.1879 7.64276 17.2489 7.62048 17.3175C7.59819 17.3861 7.59554 17.4596 7.61283 17.5296C7.63011 17.5996 7.66663 17.6634 7.71828 17.7138L9.57828 19.5269L9.13953 22.0849C9.12711 22.1562 9.13496 22.2296 9.16218 22.2967C9.18941 22.3637 9.23491 22.4218 9.29352 22.4643C9.35213 22.5068 9.42149 22.532 9.49371 22.537C9.56593 22.542 9.63811 22.5267 9.70203 22.4927L11.9989 21.2843L14.2958 22.4927C14.3513 22.5218 14.4131 22.5371 14.4758 22.5372C14.5321 22.5372 14.5877 22.5248 14.6387 22.501C14.6898 22.4772 14.735 22.4426 14.7713 22.3995C14.8076 22.3565 14.834 22.306 14.8488 22.2516C14.8636 22.1973 14.8663 22.1404 14.8569 22.0849L14.4195 19.5255ZM11.8189 20.5052C11.3698 20.734 10.0339 21.4427 10.0339 21.4427L10.3747 19.4547C10.3853 19.393 10.3807 19.3295 10.3614 19.2699C10.342 19.2103 10.3084 19.1563 10.2636 19.1126L8.81937 17.7063L10.8153 17.4161C10.8773 17.4071 10.9362 17.3831 10.9869 17.3463C11.0376 17.3095 11.0786 17.2609 11.1064 17.2047L11.997 15.3958L12.8877 17.2047C12.9154 17.2609 12.9565 17.3095 13.0072 17.3463C13.0579 17.3831 13.1167 17.4071 13.1787 17.4161L15.1747 17.7063L13.7305 19.1126C13.6856 19.1563 13.6521 19.2103 13.6327 19.2699C13.6134 19.3295 13.6088 19.393 13.6194 19.4547L13.9602 21.4427C13.9602 21.4427 12.6242 20.733 12.1752 20.5052C12.1204 20.4757 12.0592 20.4602 11.997 20.4602C11.9348 20.4602 11.8736 20.4757 11.8189 20.5052Z" fill="url(#paint4_linear_1045_11019)"/>
<path id="Vector_6" d="M22.6237 18.2288L20.7445 17.9555L19.9041 16.253C19.8722 16.1882 19.8229 16.1336 19.7616 16.0955C19.7003 16.0573 19.6296 16.0371 19.5574 16.0371C19.4852 16.0371 19.4145 16.0573 19.3532 16.0955C19.292 16.1336 19.2426 16.1882 19.2108 16.253L18.3703 17.9555L16.4911 18.2288C16.4197 18.2392 16.3527 18.2693 16.2975 18.3158C16.2424 18.3624 16.2014 18.4234 16.1791 18.492C16.1568 18.5606 16.1541 18.6341 16.1714 18.7041C16.1887 18.7741 16.2252 18.8379 16.2769 18.8883L17.6362 20.2139L17.3152 22.0852C17.3027 22.1565 17.3106 22.2299 17.3378 22.2969C17.365 22.364 17.4105 22.4221 17.4691 22.4646C17.5278 22.5071 17.5971 22.5323 17.6693 22.5373C17.7416 22.5423 17.8137 22.527 17.8777 22.493L19.5581 21.6094L21.2391 22.493C21.2946 22.5221 21.3564 22.5373 21.4191 22.5375C21.4754 22.5374 21.531 22.5251 21.582 22.5013C21.6331 22.4775 21.6783 22.4429 21.7146 22.3998C21.7509 22.3567 21.7773 22.3063 21.7921 22.2519C21.8069 22.1976 21.8096 22.1407 21.8002 22.0852L21.4791 20.2139L22.8384 18.8883C22.8901 18.8379 22.9266 18.7741 22.9439 18.7041C22.9612 18.6341 22.9585 18.5606 22.9362 18.492C22.914 18.4234 22.8729 18.3624 22.8178 18.3158C22.7626 18.2693 22.6956 18.2392 22.6242 18.2288H22.6237ZM19.3777 20.8303C19.0828 20.9784 18.21 21.4439 18.21 21.4439L18.4331 20.1441C18.4437 20.0823 18.4391 20.0189 18.4198 19.9593C18.4004 19.8997 18.3669 19.8457 18.322 19.8019L17.3775 18.8813L18.6825 18.6938C18.7446 18.6848 18.8036 18.6608 18.8543 18.6239C18.905 18.5869 18.946 18.5382 18.9736 18.4819L19.5572 17.2997L20.1408 18.4819C20.1686 18.5382 20.2097 18.5869 20.2604 18.6238C20.3112 18.6607 20.3702 18.6847 20.4323 18.6938L21.7369 18.8813L20.7928 19.8019C20.7479 19.8456 20.7143 19.8996 20.6949 19.9592C20.6756 20.0189 20.671 20.0823 20.6817 20.1441L20.9067 21.4439C20.9067 21.4439 20.0344 20.9784 19.7395 20.8303C19.6839 20.8004 19.6217 20.7847 19.5586 20.7847C19.4954 20.7847 19.4333 20.8004 19.3777 20.8303Z" fill="url(#paint5_linear_1045_11019)"/>
<path id="Vector_7" d="M7.51047 18.2288L5.63125 17.9555L4.79078 16.253C4.75894 16.1882 4.70959 16.1336 4.64832 16.0955C4.58705 16.0573 4.51632 16.0371 4.44414 16.0371C4.37196 16.0371 4.30123 16.0573 4.23996 16.0955C4.17869 16.1336 4.12934 16.1882 4.0975 16.253L3.25703 17.9555L1.37781 18.2288C1.30643 18.2392 1.23938 18.2693 1.18424 18.3158C1.1291 18.3624 1.08807 18.4234 1.06579 18.492C1.04351 18.5606 1.04086 18.6341 1.05814 18.7041C1.07542 18.7741 1.11195 18.8379 1.16359 18.8883L2.52297 20.2139L2.20422 22.0852C2.1918 22.1565 2.19965 22.2299 2.22687 22.2969C2.2541 22.364 2.2996 22.4221 2.35821 22.4646C2.41682 22.5071 2.48618 22.5323 2.5584 22.5373C2.63062 22.5423 2.70279 22.527 2.76672 22.493L4.44765 21.6094L6.12812 22.493C6.18368 22.5221 6.24542 22.5373 6.30812 22.5375C6.36443 22.5374 6.42005 22.5251 6.47109 22.5013C6.52214 22.4775 6.56738 22.4429 6.60366 22.3998C6.63994 22.3567 6.66639 22.3063 6.68117 22.2519C6.69595 22.1976 6.69869 22.1407 6.68922 22.0852L6.36812 20.2139L7.7275 18.8883C7.77914 18.8379 7.81567 18.7741 7.83295 18.7041C7.85023 18.6341 7.84758 18.5606 7.8253 18.492C7.80301 18.4234 7.76198 18.3624 7.70685 18.3158C7.65171 18.2693 7.58466 18.2392 7.51328 18.2288H7.51047ZM4.26672 20.8303L3.09718 21.4439L3.31984 20.1441C3.33052 20.0823 3.32598 20.0189 3.30663 19.9592C3.28727 19.8996 3.25367 19.8456 3.20875 19.8019L2.26468 18.8813L3.56922 18.6938C3.63134 18.6847 3.69033 18.6607 3.74112 18.6238C3.7919 18.5869 3.83297 18.5382 3.86078 18.4819L4.44437 17.2997L5.02797 18.4819C5.0556 18.5382 5.09656 18.5869 5.14728 18.6239C5.198 18.6608 5.25697 18.6848 5.31906 18.6938L6.62406 18.8813L5.67953 19.8019C5.63467 19.8457 5.60112 19.8997 5.58177 19.9593C5.56241 20.0189 5.55784 20.0823 5.56843 20.1441L5.79156 21.4439L4.6239 20.8303C4.57014 20.7974 4.50834 20.78 4.44531 20.78C4.38228 20.78 4.32048 20.7974 4.26672 20.8303Z" fill="url(#paint6_linear_1045_11019)"/>
</g>
<defs>
<linearGradient id="paint0_linear_1045_11019" x1="9.31478" y1="2.46296" x2="14.627" y2="2.47184" gradientUnits="userSpaceOnUse">
<stop stop-color="#9E1256"/>
<stop offset="0.265625" stop-color="#CE164F"/>
<stop offset="0.5" stop-color="#E74249"/>
<stop offset="0.770833" stop-color="#ED6E49"/>
<stop offset="1" stop-color="#F9B048"/>
</linearGradient>
<linearGradient id="paint1_linear_1045_11019" x1="8.53315" y1="11.3829" x2="9.57405" y2="11.3833" gradientUnits="userSpaceOnUse">
<stop stop-color="#9E1256"/>
<stop offset="0.265625" stop-color="#CE164F"/>
<stop offset="0.5" stop-color="#E74249"/>
<stop offset="0.770833" stop-color="#ED6E49"/>
<stop offset="1" stop-color="#F9B048"/>
</linearGradient>
<linearGradient id="paint2_linear_1045_11019" x1="6.43714" y1="8.07919" x2="17.5794" y2="8.10655" gradientUnits="userSpaceOnUse">
<stop stop-color="#9E1256"/>
<stop offset="0.265625" stop-color="#CE164F"/>
<stop offset="0.5" stop-color="#E74249"/>
<stop offset="0.770833" stop-color="#ED6E49"/>
<stop offset="1" stop-color="#F9B048"/>
</linearGradient>
<linearGradient id="paint3_linear_1045_11019" x1="14.33" y1="11.3809" x2="15.3715" y2="11.3813" gradientUnits="userSpaceOnUse">
<stop stop-color="#9E1256"/>
<stop offset="0.265625" stop-color="#CE164F"/>
<stop offset="0.5" stop-color="#E74249"/>
<stop offset="0.770833" stop-color="#ED6E49"/>
<stop offset="1" stop-color="#F9B048"/>
</linearGradient>
<linearGradient id="paint4_linear_1045_11019" x1="7.65042" y1="14.1349" x2="16.4116" y2="14.1509" gradientUnits="userSpaceOnUse">
<stop stop-color="#9E1256"/>
<stop offset="0.265625" stop-color="#CE164F"/>
<stop offset="0.5" stop-color="#E74249"/>
<stop offset="0.770833" stop-color="#ED6E49"/>
<stop offset="1" stop-color="#F9B048"/>
</linearGradient>
<linearGradient id="paint5_linear_1045_11019" x1="16.1979" y1="16.0372" x2="22.967" y2="16.0495" gradientUnits="userSpaceOnUse">
<stop stop-color="#9E1256"/>
<stop offset="0.265625" stop-color="#CE164F"/>
<stop offset="0.5" stop-color="#E74249"/>
<stop offset="0.770833" stop-color="#ED6E49"/>
<stop offset="1" stop-color="#F9B048"/>
</linearGradient>
<linearGradient id="paint6_linear_1045_11019" x1="1.08464" y1="16.0372" x2="7.85606" y2="16.0495" gradientUnits="userSpaceOnUse">
<stop stop-color="#9E1256"/>
<stop offset="0.265625" stop-color="#CE164F"/>
<stop offset="0.5" stop-color="#E74249"/>
<stop offset="0.770833" stop-color="#ED6E49"/>
<stop offset="1" stop-color="#F9B048"/>
</linearGradient>
</defs>
</svg>
