<svg width="24" height="25" viewBox="0 0 24 25" fill="none" xmlns="http://www.w3.org/2000/svg">
<g id="fi_1322236" clip-path="url(#clip0_972_48892)">
<path id="Vector" d="M12.4688 19.5312C12.4688 19.7902 12.2589 20 12 20C11.7411 20 11.5312 19.7902 11.5312 19.5312C11.5312 19.2723 11.7411 19.0625 12 19.0625C12.2589 19.0625 12.4688 19.2723 12.4688 19.5312Z" fill="#313131"/>
<path id="Vector_2" d="M22.4531 15.3125C22.4531 13.7616 21.1915 12.5 19.6406 12.5C18.0897 12.5 16.8281 13.7616 16.8281 15.3125C16.8281 16.8634 18.0897 18.125 19.6406 18.125C21.1915 18.125 22.4531 16.8634 22.4531 15.3125ZM19.6406 17.1875C18.6068 17.1875 17.7656 16.3463 17.7656 15.3125C17.7656 14.2787 18.6068 13.4375 19.6406 13.4375C20.6744 13.4375 21.5156 14.2787 21.5156 15.3125C21.5156 16.3463 20.6744 17.1875 19.6406 17.1875Z" fill="#313131"/>
<path id="Vector_3" d="M19.6406 18.125C18.4594 18.125 17.2815 18.6154 16.4791 19.4104C15.423 18.0225 13.7944 17.1875 12 17.1875C10.2816 17.1875 8.61639 17.9716 7.52106 19.4104C6.71851 18.6155 5.54077 18.125 4.35938 18.125C1.9964 18.125 0 20.0569 0 22.3438V23.2812C0 23.5402 0.209839 23.75 0.46875 23.75H23.5312C23.7902 23.75 24 23.5402 24 23.2812V22.3438C24 20.0569 22.0036 18.125 19.6406 18.125ZM0.9375 22.3438C0.9375 20.5651 2.50452 19.0625 4.35938 19.0625C5.37433 19.0625 6.38086 19.5122 7.00397 20.2271C6.59198 21.0228 6.375 21.9098 6.375 22.8125H0.9375V22.3438ZM12 18.125C14.6083 18.125 16.6875 20.2413 16.6875 22.8125H7.3125C7.3125 20.2071 9.43414 18.125 12 18.125ZM23.0625 22.8125H17.625C17.625 21.9098 17.408 21.0228 16.996 20.2271C17.6191 19.5122 18.6257 19.0625 19.6406 19.0625C21.4955 19.0625 23.0625 20.5651 23.0625 22.3438V22.8125Z" fill="#313131"/>
<path id="Vector_4" d="M7.17188 15.3125C7.17188 13.7616 5.91028 12.5 4.35938 12.5C2.80847 12.5 1.54688 13.7616 1.54688 15.3125C1.54688 16.8634 2.80847 18.125 4.35938 18.125C5.91028 18.125 7.17188 16.8634 7.17188 15.3125ZM4.35938 17.1875C3.32556 17.1875 2.48438 16.3463 2.48438 15.3125C2.48438 14.2787 3.32556 13.4375 4.35938 13.4375C5.39319 13.4375 6.23438 14.2787 6.23438 15.3125C6.23438 16.3463 5.39319 17.1875 4.35938 17.1875Z" fill="#313131"/>
<path id="Vector_5" d="M15.75 13.4375C15.75 11.3697 14.0678 9.6875 12 9.6875C9.93219 9.6875 8.25 11.3697 8.25 13.4375C8.25 15.5053 9.93219 17.1875 12 17.1875C14.0678 17.1875 15.75 15.5053 15.75 13.4375ZM12 16.25C10.4491 16.25 9.1875 14.9884 9.1875 13.4375C9.1875 11.8866 10.4491 10.625 12 10.625C13.5509 10.625 14.8125 11.8866 14.8125 13.4375C14.8125 14.9884 13.5509 16.25 12 16.25Z" fill="#313131"/>
<path id="Vector_6" d="M15.7104 3.97626C15.6553 3.80652 15.5087 3.68292 15.332 3.65729L13.3101 3.36377L12.4048 1.51294C12.3263 1.35199 12.163 1.25 11.9839 1.25C11.8048 1.25 11.6415 1.35199 11.5627 1.51276L10.6577 3.36377L8.6358 3.6571C8.4591 3.68274 8.31244 3.80652 8.25732 3.97626C8.20221 4.146 8.24817 4.33221 8.37597 4.45673L9.84008 5.88367L9.49456 7.89874C9.46435 8.07452 9.53668 8.25232 9.68115 8.35706C9.8247 8.46143 10.0159 8.47626 10.1748 8.39276L11.9839 7.44153L13.7937 8.39276C13.9515 8.47589 14.1429 8.46198 14.2874 8.35706C14.4316 8.25214 14.504 8.07452 14.4738 7.89856L14.1279 5.88367L15.5918 4.45673C15.7196 4.33221 15.7656 4.146 15.7104 3.97626ZM13.2967 5.38434C13.1863 5.492 13.1358 5.64728 13.162 5.79926L13.3889 7.12109L12.202 6.49707C12.0654 6.42529 11.9022 6.42529 11.7656 6.49707L10.5791 7.12109L10.8058 5.79926C10.8318 5.64709 10.7812 5.492 10.6708 5.38434L9.71063 4.44849L11.0372 4.25586C11.1907 4.2337 11.3231 4.13702 11.391 3.99786L11.9839 2.78571L12.5766 3.99786C12.6447 4.13721 12.7771 4.2337 12.9304 4.25586L14.2571 4.44849L13.2967 5.38434Z" fill="#313131"/>
<path id="Vector_7" d="M22.7145 7.4895C22.6594 7.31976 22.5127 7.19617 22.336 7.17053L20.9662 6.9715L20.3537 5.73004C20.2748 5.57001 20.112 5.46875 19.9335 5.46875C19.9335 5.46875 19.9335 5.46875 19.9333 5.46875C19.755 5.46875 19.592 5.57001 19.5131 5.73004L18.9003 6.9715L17.5303 7.17053C17.3537 7.19617 17.2071 7.31976 17.152 7.4895C17.0967 7.65924 17.1426 7.84546 17.2704 7.96997L18.2616 8.93658L18.0276 10.3007C17.9975 10.4765 18.0697 10.6541 18.2142 10.759C18.3584 10.864 18.5498 10.8779 18.7076 10.7949L19.9333 10.1509L21.1587 10.7949C21.3165 10.8779 21.508 10.864 21.6523 10.759C21.7966 10.6543 21.8688 10.4765 21.8387 10.3007L21.6047 8.93658L22.5961 7.96997C22.7239 7.84546 22.7696 7.65924 22.7145 7.4895ZM20.774 8.43744C20.6634 8.5451 20.613 8.7002 20.6392 8.85217L20.7542 9.52307L20.1516 9.20648C20.015 9.1347 19.8519 9.1347 19.7154 9.20648L19.1123 9.52325L19.2275 8.85217C19.2535 8.7002 19.2031 8.5451 19.0927 8.43744L18.6049 7.96173L19.2789 7.86395C19.4316 7.8418 19.5636 7.74585 19.6319 7.6076L19.9333 6.99695L20.2345 7.60742C20.3028 7.74585 20.4349 7.8418 20.5876 7.86395L21.2616 7.96173L20.774 8.43744Z" fill="#313131"/>
<path id="Vector_8" d="M6.77703 7.4895C6.72191 7.31976 6.57525 7.19617 6.39855 7.17053L5.02874 6.9715L4.41625 5.73004C4.33733 5.57001 4.17455 5.46875 3.99602 5.46875C3.81749 5.46875 3.65453 5.57001 3.57561 5.73004L2.96276 6.9715L1.59276 7.17053C1.41625 7.19617 1.26958 7.31976 1.21447 7.4895C1.15917 7.65924 1.20513 7.84546 1.33294 7.96997L2.32409 8.93658L2.09026 10.3007C2.06005 10.4765 2.13237 10.6541 2.27666 10.759C2.42095 10.864 2.61229 10.8779 2.77031 10.7949L3.99584 10.1509L5.22118 10.7949C5.38012 10.8784 5.57128 10.8634 5.71483 10.759C5.85912 10.6543 5.93145 10.4765 5.90123 10.3007L5.66723 8.93658L6.65856 7.96997C6.78637 7.84546 6.83214 7.65924 6.77703 7.4895ZM4.83629 8.43744C4.72588 8.5451 4.67553 8.7002 4.70153 8.85217L4.8167 9.52307L4.21392 9.20648C4.0775 9.1347 3.91436 9.1347 3.77794 9.20648L3.17461 9.52325L3.28978 8.85217C3.31597 8.7002 3.26543 8.5451 3.15502 8.43744L2.66723 7.96173L3.34142 7.86395C3.49395 7.8418 3.62597 7.74585 3.69426 7.6076L3.99566 6.99695L4.29686 7.60742C4.36516 7.74585 4.49718 7.8418 4.64989 7.86395L5.3239 7.96173L4.83629 8.43744Z" fill="#313131"/>
<path id="Vector_9" d="M14.0543 19.6762C13.8379 19.534 13.5473 19.5942 13.4052 19.8106C13.263 20.0269 13.3232 20.3175 13.5396 20.4597C13.973 20.7445 14.3195 21.1414 14.5414 21.6076C14.6524 21.8411 14.9318 21.9409 15.166 21.8294C15.3998 21.7182 15.499 21.4384 15.3879 21.2048C15.0924 20.5837 14.6311 20.0551 14.0543 19.6762Z" fill="#313131"/>
</g>
<defs>
<clipPath id="clip0_972_48892">
<rect width="24" height="24" fill="white" transform="translate(0 0.5)"/>
</clipPath>
</defs>
</svg>
