<svg width="32" height="32" viewBox="0 0 32 32" fill="none" xmlns="http://www.w3.org/2000/svg">
<g id="fi_5968764" clip-path="url(#clip0_345_11517)">
<g id="Group">
<path id="Vector" d="M32 15.9995C32 23.9858 26.1488 30.6051 18.5 31.8051V20.6245H22.2281L22.9375 15.9995H18.5V12.9983C18.5 11.7326 19.12 10.4995 21.1075 10.4995H23.125V6.56201C23.125 6.56201 21.2938 6.24951 19.5431 6.24951C15.8888 6.24951 13.5 8.46451 13.5 12.4745V15.9995H9.4375V20.6245H13.5V31.8051C5.85125 30.6051 0 23.9858 0 15.9995C0 7.16326 7.16375 -0.000488281 16 -0.000488281C24.8363 -0.000488281 32 7.16326 32 15.9995Z" fill="#1877F2"/>
<path id="Vector_2" d="M22.2281 20.6245L22.9375 15.9995H18.5V12.9982C18.5 11.7329 19.1199 10.4995 21.1074 10.4995H23.125V6.56201C23.125 6.56201 21.294 6.24951 19.5434 6.24951C15.8887 6.24951 13.5 8.46451 13.5 12.4745V15.9995H9.4375V20.6245H13.5V31.8051C14.3146 31.9329 15.1495 31.9995 16 31.9995C16.8505 31.9995 17.6854 31.9329 18.5 31.8051V20.6245H22.2281Z" fill="white"/>
</g>
</g>
<defs>
<clipPath id="clip0_345_11517">
<rect width="32" height="32" fill="white" transform="translate(0 -0.000488281)"/>
</clipPath>
</defs>
</svg>
