<svg width="218" height="89" viewBox="0 0 218 89" fill="none" xmlns="http://www.w3.org/2000/svg">
<g id="Group">
<g id="Group_2">
<path id="Vector" d="M108.7 88.6988H108.666C108.093 88.6988 107.511 88.6942 106.933 88.6856L106.938 88.3971C107.514 88.4057 108.095 88.4103 108.666 88.4103H108.7V88.6988ZM110.432 88.685L110.427 88.3965C110.997 88.3873 111.579 88.3734 112.154 88.3561L112.163 88.644C111.586 88.6619 111.004 88.6758 110.432 88.685ZM105.2 88.6446C104.627 88.6267 104.045 88.6042 103.468 88.5771L103.481 88.2892C104.056 88.3163 104.637 88.3388 105.208 88.3567L105.2 88.6446ZM113.892 88.576L113.879 88.288C114.449 88.2615 115.029 88.2292 115.603 88.1934L115.621 88.4813C115.045 88.5171 114.463 88.5494 113.892 88.576ZM101.737 88.4825C101.169 88.4467 100.587 88.4057 100.009 88.3607L100.031 88.0728C100.608 88.1178 101.188 88.1594 101.755 88.1945L101.737 88.4825ZM117.348 88.3584L117.325 88.0705C117.897 88.0255 118.476 87.9753 119.046 87.9211L119.073 88.2084C118.502 88.2626 117.922 88.3134 117.348 88.3584ZM98.2823 88.2107C97.707 88.1565 97.1266 88.0965 96.5582 88.0336L96.59 87.7468C97.1566 87.8097 97.7353 87.8691 98.3094 87.9234L98.2823 88.2107ZM120.796 88.0313L120.764 87.7445C121.331 87.6816 121.908 87.6129 122.48 87.5402L122.516 87.8264C121.943 87.8997 121.364 87.9684 120.796 88.0313ZM94.8376 87.8293C94.2641 87.7566 93.6865 87.6781 93.1205 87.5974L93.1615 87.3118C93.7258 87.3925 94.3022 87.4704 94.874 87.5431L94.8376 87.8293ZM124.231 87.5945L124.19 87.3089C124.755 87.2281 125.33 87.141 125.898 87.0498L125.944 87.3348C125.374 87.426 124.799 87.5131 124.231 87.5945ZM91.4074 87.3383C90.8368 87.2471 90.2615 87.1508 89.6989 87.0515L89.7491 86.7677C90.3105 86.8663 90.8835 86.9627 91.453 87.0538L91.4074 87.3383ZM127.652 87.0481L127.602 86.7642C128.164 86.6649 128.735 86.5594 129.3 86.4503L129.355 86.7336C128.788 86.8427 128.216 86.9483 127.652 87.0481ZM87.9951 86.7365C87.4302 86.6274 86.859 86.5126 86.297 86.3949L86.3564 86.1128C86.9172 86.2305 87.4867 86.3453 88.0504 86.4538L87.9951 86.7365ZM131.053 86.3909L130.994 86.1087C131.554 85.991 132.122 85.867 132.681 85.74L132.745 86.0216C132.185 86.1485 131.615 86.2726 131.053 86.3909ZM84.6041 86.0256C84.0432 85.8981 83.4761 85.7648 82.9181 85.6293L82.9862 85.3488C83.543 85.4844 84.1084 85.6177 84.6681 85.7441L84.6041 86.0256ZM134.432 85.6246L134.363 85.3442C134.92 85.2086 135.483 85.0661 136.038 84.9213L136.111 85.2005C135.555 85.3459 134.989 85.4885 134.432 85.6246ZM81.2385 85.2057C80.6857 85.0615 80.1231 84.9097 79.5663 84.7551L79.6437 84.477C80.1993 84.631 80.7601 84.7828 81.3117 84.9265L81.2385 85.2057ZM137.784 84.7493L137.707 84.4712C138.261 84.3172 138.82 84.1568 139.368 83.9946L139.45 84.2716C138.9 84.4343 138.34 84.5947 137.784 84.7493ZM77.9011 84.2773C77.3449 84.1129 76.7875 83.9433 76.244 83.7731L76.33 83.4978C76.8718 83.6675 77.428 83.8365 77.9825 84.001L77.9011 84.2773ZM141.107 83.7667L141.021 83.4915C141.562 83.3224 142.115 83.1436 142.666 82.9618L142.756 83.2359C142.205 83.4182 141.65 83.5971 141.107 83.7667ZM74.5955 83.2422C74.0474 83.061 73.4958 82.8735 72.9557 82.6854L73.0509 82.4131C73.5893 82.6006 74.1397 82.7876 74.6861 82.9687L74.5955 83.2422ZM144.397 82.6779L144.302 82.4056C144.844 82.2163 145.391 82.0207 145.929 81.8234L146.028 82.094C145.49 82.2919 144.941 82.4881 144.397 82.6779ZM71.3257 82.1021C70.7839 81.9036 70.2387 81.6988 69.7049 81.4934L69.8088 81.2239C70.3414 81.4287 70.8855 81.633 71.4256 81.8315L71.3257 82.1021ZM147.651 81.4841L147.547 81.2147C148.082 81.0087 148.623 80.7952 149.155 80.5806L149.263 80.8483C148.729 81.0635 148.187 81.2776 147.651 81.4841ZM68.0934 80.8587C67.5556 80.6417 67.0167 80.4196 66.4923 80.198L66.6042 79.9326C67.1275 80.153 67.6647 80.3751 68.2013 80.5909L68.0934 80.8587ZM150.865 80.1876L150.753 79.9222L150.843 79.8841C151.344 79.6724 151.847 79.4548 152.34 79.2379L152.456 79.5016C151.963 79.7191 151.458 79.9372 150.955 80.1495L150.865 80.1876ZM64.9009 79.5125C64.3735 79.2806 63.8421 79.0411 63.3205 78.8017L63.4411 78.5392C63.9616 78.778 64.4918 79.0169 65.0175 79.2483L64.9009 79.5125ZM154.035 78.7907L153.915 78.5288C154.439 78.2876 154.965 78.0406 155.478 77.7948L155.603 78.0551C155.089 78.3014 154.561 78.549 154.035 78.7907ZM61.7517 78.066C61.2301 77.8168 60.7067 77.5606 60.1944 77.3055L60.323 77.0476C60.8337 77.3021 61.3559 77.5571 61.8757 77.8058L61.7517 78.066ZM157.159 77.2952L157.03 77.0372C157.546 76.7799 158.063 76.5168 158.569 76.2543L158.702 76.5104C158.195 76.773 157.676 77.0372 157.159 77.2952ZM58.6498 76.5202C58.1414 76.2566 57.6262 75.9842 57.1178 75.7107L57.2546 75.4569C57.7612 75.7298 58.2753 76.0015 58.7825 76.2646L58.6498 76.5202ZM160.233 75.6998L160.097 75.4459C160.602 75.1736 161.11 74.8937 161.611 74.6139L161.752 74.8654C161.25 75.1464 160.739 75.4274 160.233 75.6998ZM55.5992 74.8764C55.0955 74.5943 54.5889 74.3058 54.0944 74.0178L54.2392 73.7686C54.7326 74.0553 55.2374 74.3433 55.74 74.6243L55.5992 74.8764ZM163.255 74.0075L163.11 73.7582C163.607 73.4697 164.107 73.1731 164.597 72.8783L164.746 73.1252C164.255 73.4212 163.753 73.7184 163.255 74.0075ZM52.6035 73.1356C52.1096 72.8379 51.6128 72.5332 51.1269 72.2292L51.2798 71.9845C51.7645 72.2874 52.2601 72.5909 52.7523 72.8881L52.6035 73.1356ZM166.222 72.2188L166.069 71.9741C166.554 71.6706 167.045 71.3585 167.527 71.0463L167.684 71.2887C167.2 71.602 166.708 71.9147 166.222 72.2188ZM49.6654 71.2996C49.1784 70.984 48.6914 70.6632 48.2189 70.3464L48.3799 70.107C48.8513 70.4232 49.3365 70.7434 49.8223 71.0573L49.6654 71.2996ZM169.13 70.3355L168.969 70.096C169.443 69.7775 169.923 69.4498 170.395 69.1221L170.56 69.3592C170.087 69.6875 169.606 70.0164 169.13 70.3355ZM46.7879 69.3701C46.3154 69.0418 45.8394 68.706 45.3731 68.3714L45.5416 68.1371C46.0067 68.4712 46.4816 68.8064 46.953 69.1336L46.7879 69.3701ZM171.976 68.3593L171.807 68.125C172.272 67.7909 172.742 67.4482 173.203 67.1055L173.374 67.3368C172.912 67.6807 172.442 68.0246 171.976 68.3593ZM43.9739 67.3495C43.5152 67.0091 43.0502 66.6577 42.592 66.3057L42.7675 66.0767C43.225 66.4275 43.6889 66.7777 44.1459 67.1176L43.9739 67.3495ZM174.757 66.2925L174.581 66.064C175.039 65.712 175.497 65.3537 175.943 65L176.122 65.2262C175.676 65.5805 175.216 65.9394 174.757 66.2925ZM41.2269 65.2401C40.778 64.884 40.3245 64.5182 39.879 64.1524L40.0619 63.9291C40.5062 64.2938 40.9586 64.6584 41.4063 65.0139L41.2269 65.2401ZM177.471 64.138L177.288 63.9147C177.734 63.5483 178.181 63.1761 178.615 62.808L178.802 63.0278C178.366 63.3971 177.918 63.7704 177.471 64.138ZM38.5485 63.0434C38.1128 62.6747 37.6714 62.2945 37.2358 61.9137L37.4256 61.6967C37.8595 62.0764 38.3004 62.4555 38.7348 62.8236L38.5485 63.0434ZM180.114 61.8975L179.924 61.68C180.356 61.3026 180.791 60.9161 181.216 60.5318L181.41 60.7458C180.983 61.1313 180.547 61.519 180.114 61.8975ZM35.9416 60.7637C35.5146 60.3783 35.0854 59.9848 34.6659 59.593L34.8626 59.3818C35.2815 59.7719 35.7097 60.1648 36.1355 60.5491L35.9416 60.7637ZM182.686 59.574L182.489 59.3628C182.909 58.9716 183.33 58.5717 183.744 58.1742L183.944 58.3819C183.53 58.7812 183.107 59.1822 182.686 59.574ZM33.4086 58.4027C32.9932 58.0034 32.5766 57.596 32.1698 57.1927L32.3729 56.9879C32.7785 57.3906 33.1946 57.7968 33.6088 58.195L33.4086 58.4027ZM185.184 57.1714L184.981 56.9665C185.076 56.8719 185.172 56.7767 185.267 56.6815C185.579 56.3694 185.889 56.0555 186.198 55.7399L186.404 55.9412C186.095 56.2574 185.784 56.5724 185.471 56.8852C185.375 56.9804 185.28 57.0756 185.184 57.1714ZM30.9489 55.9626C30.5467 55.5506 30.1428 55.1305 29.7476 54.7134L29.957 54.5149C30.3511 54.9309 30.7545 55.3504 31.1555 55.7606L30.9489 55.9626ZM187.604 54.6926L187.395 54.4941C187.789 54.0775 188.185 53.6523 188.572 53.2305L188.785 53.4255C188.396 53.8485 187.999 54.2749 187.604 54.6926ZM28.5659 53.4457C28.1805 53.0257 27.7899 52.5929 27.4044 52.1596L27.6202 51.968C28.0045 52.4002 28.394 52.8318 28.7788 53.2507L28.5659 53.4457ZM189.944 52.14L189.728 51.9484C190.108 51.5215 190.49 51.0835 190.865 50.6479L191.084 50.836C190.708 51.2733 190.325 51.7119 189.944 52.14ZM26.2637 50.855C25.8892 50.42 25.5125 49.9751 25.1438 49.5326L25.3653 49.3479C25.7329 49.7893 26.1091 50.233 26.4824 50.6669L26.2637 50.855ZM192.203 49.5147L191.981 49.33C192.347 48.8909 192.715 48.4415 193.076 47.9943L193.301 48.1755C192.939 48.6244 192.57 49.075 192.203 49.5147ZM24.0452 48.1928C23.6828 47.7439 23.3205 47.2869 22.9679 46.8357L23.1953 46.658C23.5467 47.1086 23.9084 47.5639 24.2696 48.0116L24.0452 48.1928ZM194.377 46.8184L194.15 46.6407C194.501 46.19 194.855 45.729 195.202 45.2703L195.432 45.444C195.084 45.9044 194.73 46.3666 194.377 46.8184ZM21.9126 45.4613C21.5676 45.0043 21.2196 44.5364 20.8798 44.0702L21.1129 43.8999C21.4522 44.3644 21.7989 44.8318 22.1434 45.287L21.9126 45.4613ZM196.464 44.054L196.231 43.8838C196.57 43.4193 196.909 42.9473 197.238 42.4805L197.474 42.6467C197.144 43.1147 196.804 43.5884 196.464 44.054ZM19.8695 42.6635C19.5377 42.1932 19.2054 41.7143 18.8817 41.24L19.12 41.0773C19.4425 41.5504 19.7743 42.0282 20.1049 42.4967L19.8695 42.6635ZM198.462 41.2238L198.223 41.0611C198.545 40.5886 198.869 40.1062 199.185 39.6262L199.426 39.7848C199.109 40.2661 198.785 40.7501 198.462 41.2238ZM17.9169 39.8016C17.6007 39.3215 17.284 38.8322 16.9753 38.3475L17.2188 38.1923C17.5263 38.6759 17.8425 39.164 18.1575 39.6429L17.9169 39.8016ZM200.367 38.3302L200.124 38.1756C200.434 37.6886 200.741 37.1953 201.039 36.71L201.285 36.8606C200.986 37.3476 200.678 37.8421 200.367 38.3302ZM16.0573 36.8779C15.7567 36.3887 15.4561 35.8896 15.1635 35.3945L15.4116 35.2474C15.7036 35.7407 16.0036 36.2386 16.3031 36.7268L16.0573 36.8779ZM202.179 35.3772L201.93 35.2306C202.221 34.7384 202.513 34.2359 202.798 33.7362L203.049 33.8793C202.763 34.3796 202.471 34.8839 202.179 35.3772ZM14.2934 33.8966C14.0101 33.4004 13.7257 32.8915 13.4475 32.3855L13.7003 32.2464C13.9778 32.7513 14.2617 33.2585 14.5438 33.7541L14.2934 33.8966ZM203.895 32.3664L203.642 32.2274C203.919 31.7225 204.195 31.2107 204.461 30.7059L204.716 30.8403C204.448 31.3475 204.172 31.8604 203.895 32.3664ZM12.6259 30.8611C12.3576 30.3533 12.0893 29.8357 11.8285 29.3234L12.0858 29.1924C12.3455 29.7036 12.6132 30.2194 12.8809 30.726L12.6259 30.8611ZM205.514 29.3026L205.256 29.1716C205.518 28.6569 205.777 28.1365 206.027 27.6247L206.286 27.7511C206.035 28.2652 205.776 28.7868 205.514 29.3026ZM11.0565 27.7736C10.8032 27.2554 10.5516 26.7298 10.3087 26.2117L10.5701 26.0893C10.8124 26.6063 11.0634 27.1302 11.3156 27.6472L11.0565 27.7736ZM207.034 26.1886L206.773 26.0663C207.013 25.5533 207.256 25.0248 207.494 24.4957L207.757 24.614C207.518 25.1442 207.275 25.6745 207.034 26.1886ZM9.58572 24.6382C9.35089 24.116 9.11605 23.5829 8.88814 23.0532L9.15298 22.9389C9.38031 23.4669 9.61458 23.9983 9.84883 24.5193L9.58572 24.6382ZM208.455 23.0272L208.19 22.913C208.284 22.6949 208.377 22.4756 208.47 22.2569C208.602 21.9454 208.732 21.6332 208.861 21.3205L209.127 21.4301C208.998 21.7434 208.867 22.0567 208.735 22.3689C208.643 22.5893 208.549 22.8085 208.455 23.0272ZM8.21479 21.4561C7.99553 20.9235 7.77743 20.3829 7.56683 19.8486L7.83513 19.743C8.04516 20.2756 8.26268 20.815 8.48136 21.3465L8.21479 21.4561ZM209.775 19.8243L209.506 19.7188C209.718 19.1816 209.926 18.6392 210.126 18.1066L210.396 18.2082C210.196 18.7419 209.986 19.286 209.775 19.8243ZM6.94425 18.2312C6.74231 17.6941 6.54151 17.1465 6.34764 16.6041L6.6194 16.5066C6.8127 17.0478 7.01292 17.5937 7.21429 18.1297L6.94425 18.2312ZM210.992 16.5822L210.72 16.4853C210.912 15.9458 211.103 15.397 211.288 14.8541L211.562 14.947C211.376 15.4917 211.185 16.0415 210.992 16.5822ZM5.77757 14.9678C5.59236 14.4225 5.40945 13.8692 5.23347 13.3228L5.50812 13.2345C5.68352 13.7797 5.86643 14.3319 6.05106 14.8755L5.77757 14.9678ZM212.105 13.3026L211.83 13.2143C212.006 12.6685 212.18 12.114 212.346 11.5658L212.623 11.6501C212.455 12.1994 212.281 12.7556 212.105 13.3026ZM4.71533 11.6691C4.54858 11.121 4.38355 10.5619 4.2243 10.0074L4.50184 9.92773C4.66051 10.4805 4.82496 11.0385 4.99113 11.5849L4.71533 11.6691ZM213.113 9.98889L212.836 9.90927C212.994 9.35593 213.149 8.79626 213.298 8.24466L213.576 8.31967C213.428 8.873 213.271 9.4344 213.113 9.98889ZM3.76041 8.3387C3.61096 7.78307 3.46383 7.21877 3.32362 6.66254L3.60346 6.59215C3.74309 7.1472 3.89023 7.70978 4.03967 8.26427L3.76041 8.3387ZM214.013 6.64407L213.733 6.57368C213.873 6.01978 214.01 5.4549 214.142 4.89522L214.423 4.96098C214.291 5.5224 214.153 6.08842 214.013 6.64407ZM2.91338 4.97887C2.78182 4.41861 2.65315 3.85027 2.53083 3.28943L2.81298 3.22769C2.93473 3.7868 3.0634 4.35399 3.19495 4.91252L2.91338 4.97887ZM214.805 3.27098L214.523 3.20923C214.644 2.65186 214.764 2.08293 214.878 1.51807L215.16 1.57518C215.047 2.14178 214.927 2.71245 214.805 3.27098ZM2.1754 1.59424C2.06174 1.03052 1.95153 0.45813 1.84767 -0.106735L2.13155 -0.159256C2.23541 0.4039 2.34562 0.975113 2.45871 1.53711L2.1754 1.59424ZM215.488 -0.125214L215.204 -0.177719C215.309 -0.744904 215.41 -1.31728 215.504 -1.87927L215.788 -1.83196C215.694 -1.26824 215.593 -0.69413 215.488 -0.125214ZM1.54648 -1.81233C1.45185 -2.3772 1.35953 -2.95248 1.27356 -3.52254L1.5586 -3.56581C1.64457 -2.99689 1.73631 -2.42337 1.83094 -1.86022L1.54648 -1.81233ZM216.061 -3.54275L215.776 -3.58601C215.862 -4.15607 215.944 -4.73134 216.021 -5.29679L216.307 -5.25814C216.23 -4.69154 216.148 -4.11397 216.061 -3.54275ZM1.02834 -5.2368C0.95218 -5.80283 0.878321 -6.38097 0.810236 -6.9545L1.097 -6.98854C1.16509 -6.41616 1.23837 -5.83974 1.31453 -5.27487L1.02834 -5.2368ZM216.524 -6.97701L216.238 -7.01104C216.306 -7.58284 216.369 -8.16098 216.427 -8.72874L216.715 -8.69932C216.656 -8.13041 216.592 -7.55054 216.524 -6.97701ZM0.619831 -8.67625C0.560978 -9.24863 0.506161 -9.82907 0.45654 -10.4003L0.743883 -10.4251C0.792927 -9.85503 0.84774 -9.2769 0.906594 -8.70568L0.619831 -8.67625ZM216.877 -10.4251L216.59 -10.4499C216.639 -11.0234 216.685 -11.6033 216.725 -12.1728L217.013 -12.1526C216.973 -11.5814 216.927 -10.9998 216.877 -10.4251ZM0.320946 -12.1261C0.280556 -12.6985 0.244208 -13.2801 0.212474 -13.8542L0.500393 -13.8698C0.531551 -13.2968 0.5679 -12.7175 0.608289 -12.1463L0.320946 -12.1261ZM217.121 -13.8819L216.832 -13.8975C216.864 -14.4698 216.891 -15.0509 216.913 -15.6244L217.202 -15.6134C217.179 -15.0382 217.152 -14.456 217.121 -13.8819ZM0.131118 -15.584C0.108615 -16.1558 0.0907273 -16.738 0.0774564 -17.3144L0.365953 -17.3213C0.379224 -16.7467 0.397689 -16.1656 0.419615 -15.5955L0.131118 -15.584ZM217.255 -17.3456L216.967 -17.3525C216.98 -17.9254 216.989 -18.5071 216.993 -19.0812L217.282 -19.0789C217.277 -18.503 217.269 -17.9203 217.255 -17.3456ZM0.0503395 -19.0454C0.0480315 -19.3368 0.046875 -19.6287 0.046875 -19.9201C0.046875 -20.2063 0.0480315 -20.4925 0.0503395 -20.7787L0.338836 -20.7764C0.336528 -20.4913 0.335372 -20.2057 0.335372 -19.9201C0.335372 -19.6287 0.336528 -19.3379 0.338836 -19.0477L0.0503395 -19.0454ZM216.993 -20.8098C216.988 -21.3897 216.979 -21.9702 216.966 -22.5362L217.254 -22.5431C217.267 -21.9759 217.277 -21.3932 217.281 -20.8121L216.993 -20.8098ZM0.365376 -22.505L0.0768798 -22.512C0.0901506 -23.0861 0.108616 -23.6688 0.130541 -24.2447L0.418461 -24.2331C0.397113 -23.6585 0.378647 -23.0774 0.365376 -22.505ZM216.911 -24.262C216.889 -24.8378 216.861 -25.4183 216.83 -25.9872L217.118 -26.0028C217.149 -25.4327 217.177 -24.8511 217.199 -24.2735L216.911 -24.262ZM0.499817 -25.9595L0.211897 -25.9751C0.243054 -26.5498 0.27998 -27.1314 0.320369 -27.7049L0.608289 -27.6847C0.5679 -27.1129 0.531551 -26.5324 0.499817 -25.9595ZM216.722 -27.7107C216.681 -28.2859 216.636 -28.8652 216.587 -29.4324L216.874 -29.4572C216.923 -28.8883 216.969 -28.3079 217.01 -27.7309L216.722 -27.7107ZM0.743306 -29.4076L0.455963 -29.4324C0.505584 -30.0042 0.560401 -30.5847 0.619255 -31.1576L0.906017 -31.1282C0.847164 -30.557 0.792351 -29.9777 0.743306 -29.4076ZM216.423 -31.1513C216.365 -31.719 216.301 -32.2966 216.233 -32.8678L216.52 -32.9019C216.588 -32.3289 216.652 -31.7496 216.711 -31.1807L216.423 -31.1513ZM1.09585 -32.8459L0.809083 -32.88C0.876591 -33.45 0.949868 -34.0287 1.02718 -34.5988L1.3128 -34.5602C1.23664 -33.9912 1.16336 -33.4148 1.09585 -32.8459ZM216.015 -34.5815C215.939 -35.1464 215.857 -35.7216 215.77 -36.2911L216.056 -36.3344C216.142 -35.7632 216.225 -35.1862 216.302 -34.6202L216.015 -34.5815ZM1.5586 -36.2709L1.27356 -36.3142C1.35953 -36.882 1.45128 -37.4572 1.54648 -38.025L1.83094 -37.9771C1.73574 -37.4111 1.64399 -36.837 1.5586 -36.2709ZM215.498 -37.9967C215.403 -38.5593 215.302 -39.1317 215.198 -39.6977L215.482 -39.7502C215.587 -39.1824 215.688 -38.6089 215.782 -38.0446L215.498 -37.9967ZM2.1304 -39.6792L1.84652 -39.7317C1.95095 -40.2984 2.06174 -40.8707 2.17483 -41.4327L2.45755 -41.3756C2.34504 -40.8153 2.23483 -40.2441 2.1304 -39.6792ZM214.87 -41.3941C214.758 -41.9503 214.639 -42.5192 214.515 -43.0847L214.797 -43.1464C214.921 -42.5792 215.04 -42.0091 215.153 -41.4512L214.87 -41.3941ZM2.81183 -43.0668L2.53025 -43.1279C2.65258 -43.6882 2.78125 -44.2565 2.9128 -44.8174L3.1938 -44.7516C3.06224 -44.1919 2.93415 -43.6253 2.81183 -43.0668ZM214.134 -44.7701C214.001 -45.3338 213.863 -45.8987 213.725 -46.4485L214.005 -46.5189C214.144 -45.9673 214.282 -45.4013 214.415 -44.8358L214.134 -44.7701ZM3.60289 -46.4301L3.32304 -46.5005C3.46383 -47.059 3.61096 -47.6233 3.75982 -48.1766L4.03851 -48.1016C3.88965 -47.55 3.74309 -46.9874 3.60289 -46.4301ZM213.288 -48.1201C213.138 -48.6763 212.982 -49.236 212.825 -49.7847L213.102 -49.8643C213.26 -49.3144 213.416 -48.753 213.567 -48.1951L213.288 -48.1201ZM4.50126 -49.7662L4.22373 -49.8459C4.3824 -50.3992 4.54742 -50.9577 4.71475 -51.507L4.99055 -51.4228C4.8238 -50.8746 4.65936 -50.3173 4.50126 -49.7662ZM212.335 -51.4418C212.169 -51.9877 211.996 -52.5421 211.819 -53.0909L212.094 -53.1791C212.271 -52.6293 212.445 -52.0731 212.611 -51.5255L212.335 -51.4418ZM5.50638 -53.0707L5.23174 -53.159C5.40772 -53.7054 5.59063 -54.2587 5.77526 -54.8034L6.04818 -54.7105C5.86412 -54.1675 5.68179 -53.6159 5.50638 -53.0707ZM211.275 -54.7313C211.092 -55.2707 210.9 -55.82 210.706 -56.363L210.978 -56.4599C211.173 -55.9153 211.365 -55.3648 211.549 -54.8236L211.275 -54.7313ZM6.6171 -56.3416L6.34533 -56.4386C6.53805 -56.9775 6.73826 -57.5245 6.94136 -58.0646L7.2114 -57.963C7.00945 -57.4241 6.80924 -56.8788 6.6171 -56.3416ZM210.112 -57.9861C209.907 -58.5279 209.699 -59.0708 209.49 -59.5993L209.758 -59.7049C209.967 -59.1753 210.177 -58.6312 210.381 -58.0876L210.112 -57.9861ZM7.83167 -59.5745L7.56337 -59.6801C7.77397 -60.2144 7.9915 -60.7545 8.21075 -61.2859L8.47732 -61.1757C8.25864 -60.646 8.04169 -60.1071 7.83167 -59.5745ZM208.844 -61.2022C208.721 -61.5011 208.596 -61.7994 208.47 -62.0972C208.371 -62.3303 208.272 -62.5628 208.172 -62.7947L208.437 -62.909C208.538 -62.6765 208.637 -62.4433 208.736 -62.2097C208.862 -61.9108 208.987 -61.6119 209.111 -61.3124L208.844 -61.2022ZM9.14837 -62.7693L8.88353 -62.8836C9.11202 -63.4138 9.34685 -63.9476 9.58169 -64.4697L9.8448 -64.3515C9.61054 -63.8304 9.37628 -63.2979 9.14837 -62.7693ZM207.476 -64.3751C207.242 -64.8961 206.999 -65.4241 206.755 -65.9445L207.016 -66.0669C207.261 -65.5453 207.504 -65.0156 207.739 -64.4934L207.476 -64.3751ZM10.566 -65.9215L10.3047 -66.0438C10.5482 -66.5631 10.7997 -67.0887 11.0524 -67.6069L11.3115 -67.4805C11.0599 -66.9641 10.809 -66.4396 10.566 -65.9215ZM206.009 -67.5024C205.757 -68.0171 205.498 -68.537 205.238 -69.0482L205.495 -69.1792C205.756 -68.6668 206.016 -68.1452 206.268 -67.6294L206.009 -67.5024ZM12.083 -69.0274L11.8256 -69.1584C12.0864 -69.6719 12.3547 -70.1895 12.623 -70.6967L12.878 -70.5616C12.6109 -70.0556 12.3432 -69.5392 12.083 -69.0274ZM204.443 -70.5813C204.176 -71.0873 203.9 -71.5991 203.623 -72.1016L203.876 -72.2407C204.153 -71.737 204.429 -71.224 204.698 -70.7163L204.443 -70.5813ZM13.698 -72.0832L13.4452 -72.2222C13.7228 -72.7271 14.0072 -73.236 14.2911 -73.734L14.5415 -73.5909C14.2588 -73.0941 13.9749 -72.5869 13.698 -72.0832ZM202.78 -73.6087C202.495 -74.1073 202.203 -74.6098 201.911 -75.102L202.16 -75.2491C202.452 -74.7552 202.745 -74.2515 203.03 -73.7518L202.78 -73.6087ZM15.4099 -75.0847L15.1618 -75.2318C15.4549 -75.7269 15.7555 -76.226 16.0561 -76.7159L16.3019 -76.5653C16.0025 -76.0765 15.7024 -75.5786 15.4099 -75.0847ZM201.019 -76.582C200.721 -77.0678 200.413 -77.5606 200.104 -78.047L200.347 -78.2016C200.658 -77.7141 200.966 -77.2196 201.265 -76.7326L201.019 -76.582ZM17.217 -78.0302L16.9735 -78.1849C17.2822 -78.6701 17.599 -79.1594 17.9152 -79.6395L18.1558 -79.4808C17.8408 -79.0019 17.5252 -78.5143 17.217 -78.0302ZM199.165 -79.497C198.848 -79.9782 198.524 -80.4611 198.202 -80.9319L198.441 -81.0946C198.763 -80.6227 199.088 -80.1386 199.406 -79.6562L199.165 -79.497ZM19.1182 -80.9152L18.8799 -81.0779C19.2025 -81.5505 19.5348 -82.0294 19.8677 -82.5008L20.1037 -82.3346C19.7708 -81.8644 19.4396 -81.3866 19.1182 -80.9152ZM197.217 -82.3508C196.89 -82.8147 196.551 -83.2866 196.209 -83.754L196.442 -83.9242C196.784 -83.4557 197.125 -82.982 197.453 -82.5169L197.217 -82.3508ZM21.1106 -83.7379L20.8775 -83.9081C21.2162 -84.372 21.5635 -84.8399 21.9103 -85.2986L22.1405 -85.1249C21.7949 -84.6674 21.4487 -84.2006 21.1106 -83.7379ZM195.178 -85.1411C194.833 -85.5975 194.48 -86.0585 194.126 -86.5115L194.353 -86.6892C194.708 -86.2351 195.063 -85.7729 195.409 -85.3154L195.178 -85.1411ZM23.1924 -86.4947L22.965 -86.6724C23.3199 -87.1265 23.6817 -87.5835 24.0417 -88.029L24.2662 -87.8478C23.9073 -87.4029 23.5461 -86.9477 23.1924 -86.4947ZM193.052 -87.8651C192.691 -88.3117 192.322 -88.7612 191.956 -89.2014L192.178 -89.386C192.545 -88.9452 192.915 -88.494 193.277 -88.0463L193.052 -87.8651ZM25.3613 -89.1835L25.1397 -89.3682C25.5067 -89.8084 25.8835 -90.2533 26.2591 -90.6895L26.4778 -90.5014C26.1027 -90.0657 25.7271 -89.6226 25.3613 -89.1835ZM190.838 -90.5198C190.463 -90.9555 190.08 -91.3934 189.7 -91.8204L189.916 -92.0119C190.297 -91.5838 190.681 -91.1447 191.058 -90.7079L190.838 -90.5198ZM27.6145 -91.8013L27.3987 -91.9929C27.7806 -92.4228 28.1713 -92.8555 28.559 -93.2784L28.7713 -93.0834C28.3847 -92.6616 27.9953 -92.23 27.6145 -91.8013ZM188.542 -93.1036C188.156 -93.5237 187.76 -93.9489 187.363 -94.3678L187.573 -94.5663C187.97 -94.1462 188.368 -93.7198 188.754 -93.2986L188.542 -93.1036ZM29.949 -94.3465L29.7395 -94.5449C30.1342 -94.9615 30.5381 -95.3816 30.9397 -95.793L31.1462 -95.5916C30.7452 -95.1814 30.3425 -94.7625 29.949 -94.3465ZM186.165 -95.613C185.868 -95.917 185.568 -96.2199 185.267 -96.5211C185.16 -96.6279 185.054 -96.734 184.947 -96.8402L185.15 -97.045C185.257 -96.9389 185.364 -96.8321 185.471 -96.7254C185.772 -96.4236 186.072 -96.1201 186.371 -95.8149L186.165 -95.613ZM32.3631 -96.8183L32.16 -97.0231C32.5697 -97.4293 32.9863 -97.8367 33.4 -98.2342L33.6002 -98.0265C33.1871 -97.6301 32.771 -97.2239 32.3631 -96.8183ZM183.711 -98.0467C183.299 -98.4437 182.876 -98.843 182.457 -99.2336L182.654 -99.4448C183.074 -99.053 183.497 -98.6525 183.912 -98.2544L183.711 -98.0467ZM34.8546 -99.2151L34.6578 -99.4263C35.0784 -99.8187 35.5083 -100.213 35.9347 -100.598L36.128 -100.384C35.7027 -99.9993 35.274 -99.6063 34.8546 -99.2151ZM181.184 -100.401C180.758 -100.786 180.323 -101.172 179.893 -101.548L180.083 -101.766C180.514 -101.389 180.949 -101.002 181.377 -100.616L181.184 -100.401ZM37.4199 -101.532L37.23 -101.749C37.6622 -102.127 38.1042 -102.507 38.5433 -102.879L38.7297 -102.659C38.2917 -102.288 37.8509 -101.909 37.4199 -101.532ZM178.584 -102.675C178.147 -103.045 177.7 -103.417 177.256 -103.78L177.439 -104.004C177.884 -103.639 178.332 -103.266 178.77 -102.895L178.584 -102.675ZM40.0573 -103.766L39.8744 -103.989C40.3204 -104.355 40.7745 -104.721 41.2228 -105.077L41.4023 -104.851C40.9545 -104.496 40.5022 -104.131 40.0573 -103.766ZM175.912 -104.865C175.463 -105.222 175.004 -105.579 174.55 -105.928L174.726 -106.156C175.182 -105.807 175.641 -105.448 176.092 -105.091L175.912 -104.865ZM42.764 -105.915L42.5886 -106.143C43.0461 -106.494 43.5112 -106.846 43.9711 -107.187L44.143 -106.956C43.6843 -106.616 43.2204 -106.265 42.764 -105.915ZM173.173 -106.968C172.712 -107.31 172.242 -107.653 171.777 -107.987L171.945 -108.221C172.411 -107.887 172.882 -107.543 173.344 -107.2L173.173 -106.968ZM45.5382 -107.975L45.3697 -108.209C45.8359 -108.544 46.3119 -108.88 46.7851 -109.209L46.9495 -108.971C46.4781 -108.644 46.0032 -108.309 45.5382 -107.975ZM170.366 -108.983C169.895 -109.31 169.415 -109.637 168.939 -109.956L169.099 -110.196C169.576 -109.876 170.058 -109.547 170.53 -109.22L170.366 -108.983ZM48.377 -109.945L48.2166 -110.185C48.6932 -110.505 49.1801 -110.825 49.6631 -111.138L49.82 -110.896C49.3377 -110.584 48.8524 -110.265 48.377 -109.945ZM167.496 -110.907C167.017 -111.217 166.527 -111.529 166.038 -111.835L166.191 -112.079C166.681 -111.773 167.172 -111.461 167.652 -111.15L167.496 -110.907ZM51.2769 -111.824L51.124 -112.068C51.6133 -112.374 52.1095 -112.679 52.6006 -112.974L52.7494 -112.727C52.2601 -112.432 51.7645 -112.128 51.2769 -111.824ZM164.566 -112.738C164.077 -113.032 163.577 -113.328 163.079 -113.617L163.223 -113.867C163.723 -113.576 164.225 -113.28 164.715 -112.984L164.566 -112.738ZM54.2358 -113.607L54.0909 -113.856C54.5872 -114.145 55.0932 -114.433 55.5952 -114.714L55.736 -114.463C55.2357 -114.182 54.7308 -113.894 54.2358 -113.607ZM161.577 -114.473C161.078 -114.752 160.569 -115.032 160.063 -115.305L160.199 -115.558C160.707 -115.285 161.218 -115.005 161.718 -114.725L161.577 -114.473ZM57.2506 -115.294L57.1138 -115.548C57.621 -115.822 58.1362 -116.094 58.6451 -116.358L58.7779 -116.101C58.2701 -115.839 57.7566 -115.567 57.2506 -115.294ZM158.534 -116.112C158.026 -116.375 157.508 -116.639 156.994 -116.895L157.122 -117.154C157.638 -116.896 158.158 -116.633 158.667 -116.369L158.534 -116.112ZM60.3167 -116.884L60.188 -117.143C60.7021 -117.399 61.2255 -117.655 61.7442 -117.903L61.8688 -117.643C61.3518 -117.395 60.8296 -117.14 60.3167 -116.884ZM155.441 -117.654C154.924 -117.901 154.397 -118.147 153.876 -118.387L153.996 -118.649C154.519 -118.409 155.047 -118.161 155.566 -117.913L155.441 -117.654ZM63.4325 -118.376L63.3119 -118.638C63.8335 -118.878 64.3649 -119.117 64.8911 -119.349L65.0077 -119.084C64.4826 -118.854 63.9529 -118.615 63.4325 -118.376ZM152.3 -119.096C151.82 -119.307 151.33 -119.518 150.843 -119.724L150.712 -119.78L150.824 -120.046L150.956 -119.99C151.444 -119.784 151.935 -119.572 152.416 -119.36L152.3 -119.096ZM66.5938 -119.769L66.4819 -120.035C67.0104 -120.257 67.5493 -120.48 68.0842 -120.695L68.1921 -120.428C67.6589 -120.213 67.1212 -119.991 66.5938 -119.769ZM149.115 -120.438C148.583 -120.652 148.043 -120.865 147.508 -121.071L147.612 -121.34C148.148 -121.135 148.69 -120.921 149.223 -120.706L149.115 -120.438ZM69.8002 -121.061L69.6963 -121.331C70.2317 -121.537 70.7776 -121.742 71.3188 -121.941L71.4181 -121.669C70.8786 -121.471 70.3345 -121.267 69.8002 -121.061ZM145.891 -121.678C145.351 -121.876 144.803 -122.072 144.265 -122.26L144.359 -122.532C144.899 -122.344 145.448 -122.148 145.99 -121.949L145.891 -121.678ZM73.0452 -122.252L72.95 -122.524C73.4946 -122.714 74.0468 -122.901 74.5909 -123.081L74.6815 -122.807C74.1391 -122.628 73.5887 -122.441 73.0452 -122.252ZM142.629 -122.815C142.085 -122.995 141.532 -123.172 140.985 -123.344L141.071 -123.619C141.619 -123.448 142.174 -123.269 142.719 -123.088L142.629 -122.815ZM76.3265 -123.337L76.2405 -123.612C76.7898 -123.784 77.3472 -123.954 77.8983 -124.116L77.9802 -123.84C77.4303 -123.678 76.8741 -123.509 76.3265 -123.337ZM139.333 -123.846C138.785 -124.007 138.226 -124.168 137.672 -124.322L137.75 -124.6C138.305 -124.445 138.866 -124.285 139.415 -124.123L139.333 -123.846ZM79.6408 -124.317L79.5635 -124.595C80.1162 -124.749 80.6794 -124.9 81.2362 -125.045L81.3089 -124.766C80.7532 -124.621 80.1924 -124.47 79.6408 -124.317ZM136.004 -124.771C135.448 -124.916 134.884 -125.059 134.329 -125.194L134.397 -125.474C134.954 -125.338 135.519 -125.197 136.077 -125.051L136.004 -124.771ZM82.9845 -125.189L82.9164 -125.469C83.4749 -125.606 84.0427 -125.739 84.6029 -125.866L84.667 -125.584C84.1073 -125.458 83.5418 -125.325 82.9845 -125.189ZM132.647 -125.588C132.088 -125.715 131.521 -125.839 130.959 -125.956L131.019 -126.239C131.581 -126.121 132.151 -125.997 132.711 -125.869L132.647 -125.588ZM86.3541 -125.952L86.2947 -126.235C86.8584 -126.353 87.4296 -126.468 87.9928 -126.577L88.0476 -126.293C87.4856 -126.185 86.9161 -126.07 86.3541 -125.952ZM129.266 -126.297C128.702 -126.405 128.131 -126.511 127.566 -126.61L127.617 -126.894C128.182 -126.794 128.756 -126.689 129.32 -126.58L129.266 -126.297ZM89.7462 -126.607L89.696 -126.891C90.2615 -126.99 90.8362 -127.087 91.4039 -127.177L91.4495 -126.892C90.8835 -126.803 90.3105 -126.707 89.7462 -126.607ZM125.862 -126.896C125.295 -126.987 124.721 -127.073 124.153 -127.155L124.194 -127.44C124.763 -127.359 125.34 -127.272 125.908 -127.181L125.862 -126.896ZM93.1574 -127.152L93.1164 -127.438C93.6836 -127.519 94.2612 -127.597 94.833 -127.67L94.8694 -127.383C94.2993 -127.311 93.7234 -127.233 93.1574 -127.152ZM122.441 -127.386C121.872 -127.458 121.294 -127.526 120.725 -127.589L120.757 -127.876C121.328 -127.813 121.907 -127.744 122.477 -127.672L122.441 -127.386ZM96.5842 -127.587L96.5524 -127.874C97.1214 -127.937 97.7012 -127.996 98.2753 -128.051L98.3025 -127.764C97.7301 -127.709 97.1519 -127.65 96.5842 -127.587ZM119.006 -127.766C118.437 -127.82 117.857 -127.87 117.284 -127.915L117.306 -128.203C117.882 -128.158 118.463 -128.107 119.033 -128.053L119.006 -127.766ZM100.022 -127.912L100 -128.2C100.571 -128.245 101.152 -128.286 101.727 -128.322L101.745 -128.034C101.172 -127.998 100.592 -127.957 100.022 -127.912ZM115.559 -128.036C114.986 -128.072 114.406 -128.103 113.833 -128.13L113.847 -128.418C114.42 -128.391 115.002 -128.36 115.577 -128.324L115.559 -128.036ZM103.469 -128.129L103.456 -128.417C104.029 -128.444 104.611 -128.467 105.186 -128.485L105.195 -128.196C104.622 -128.178 104.041 -128.156 103.469 -128.129ZM112.106 -128.197C111.532 -128.215 110.95 -128.229 110.378 -128.237L110.382 -128.526C110.957 -128.517 111.539 -128.503 112.115 -128.485L112.106 -128.197ZM106.922 -128.237L106.917 -128.525C107.491 -128.534 108.074 -128.539 108.649 -128.539V-128.251C108.075 -128.251 107.494 -128.246 106.922 -128.237Z" fill="#EA2CEA"/>
</g>
<g id="Group_3">
<path id="Vector_2" d="M108.691 72.4239H108.665C108.09 72.4239 107.505 72.4187 106.927 72.4077L106.932 72.1192C107.509 72.1296 108.091 72.1354 108.665 72.1354H108.691V72.4239ZM110.429 72.4077L110.424 72.1192C110.999 72.1088 111.58 72.0927 112.154 72.0713L112.165 72.3593C111.59 72.3806 111.006 72.3968 110.429 72.4077ZM105.19 72.3598C104.616 72.3391 104.032 72.3119 103.454 72.2802L103.469 71.9923C104.045 72.024 104.627 72.0511 105.2 72.0719L105.19 72.3598ZM113.899 72.2791L113.883 71.9911C114.457 71.9588 115.039 71.9213 115.611 71.8786L115.632 72.1665C115.059 72.2092 114.475 72.2473 113.899 72.2791ZM101.72 72.1683C101.142 72.1256 100.559 72.0771 99.9881 72.024L100.015 71.7367C100.584 71.7898 101.165 71.8382 101.741 71.8809L101.72 72.1683ZM117.363 72.0217L117.337 71.7344C117.907 71.6813 118.486 71.6219 119.059 71.5578L119.091 71.8446C118.516 71.9092 117.934 71.9686 117.363 72.0217ZM98.2594 71.8469C97.6888 71.7828 97.1083 71.7124 96.5342 71.6374L96.5717 71.3512C97.1435 71.4263 97.7223 71.4961 98.2912 71.5595L98.2594 71.8469ZM120.815 71.6351L120.778 71.3489C121.35 71.2734 121.927 71.1926 122.493 71.1072L122.535 71.3928C121.968 71.4782 121.389 71.5595 120.815 71.6351ZM94.8136 71.3957C94.2453 71.3103 93.6683 71.218 93.0982 71.121L93.1467 70.8366C93.715 70.9335 94.2909 71.0253 94.8569 71.1101L94.8136 71.3957ZM124.25 71.1176L124.202 70.8331C124.768 70.7367 125.341 70.634 125.906 70.5267L125.96 70.81C125.393 70.9179 124.818 71.0212 124.25 71.1176ZM91.388 70.8141C90.8214 70.7067 90.2479 70.5925 89.6842 70.4748L89.743 70.1926C90.305 70.3103 90.8762 70.424 91.4417 70.5308L91.388 70.8141ZM127.664 70.4707L127.604 70.1886C128.169 70.0703 128.738 69.9451 129.296 69.8176L129.361 70.0986C128.801 70.2267 128.23 70.3519 127.664 70.4707ZM87.9872 70.1026C87.427 69.9745 86.8586 69.8384 86.2978 69.6987L86.3676 69.4189C86.9267 69.558 87.4939 69.6935 88.0518 69.8216L87.9872 70.1026ZM131.05 69.6947L130.98 69.4148C131.54 69.2752 132.104 69.1287 132.656 68.9798L132.731 69.2585C132.177 69.4073 131.611 69.5545 131.05 69.6947ZM84.6159 69.2625C84.0585 69.1125 83.4959 68.955 82.9431 68.7946L83.0233 68.5176C83.5744 68.6775 84.1352 68.8344 84.6909 68.9844L84.6159 69.2625ZM134.405 68.7894L134.324 68.5124C134.876 68.352 135.434 68.1847 135.983 68.0133L136.068 68.2891C135.518 68.4605 134.958 68.629 134.405 68.7894ZM81.2797 68.2949C80.7298 68.1241 80.1736 67.9453 79.626 67.7635L79.7172 67.4894C80.263 67.6706 80.8181 67.8489 81.3656 68.0191L81.2797 68.2949ZM137.723 67.7572L137.632 67.4831C138.178 67.3019 138.729 67.1132 139.271 66.9217L139.367 67.194C138.823 67.3867 138.269 67.576 137.723 67.7572ZM77.9822 67.2009C77.4415 67.0099 76.8928 66.8103 76.3498 66.6078L76.4508 66.3378C76.992 66.5403 77.5396 66.7393 78.0779 66.9292L77.9822 67.2009ZM141 66.6003L140.899 66.3303C141.431 66.1312 141.975 65.9217 142.515 65.7077L142.622 65.976C142.08 66.1906 141.534 66.4006 141 66.6003ZM74.7291 65.9841C74.1913 65.7711 73.6501 65.5513 73.1198 65.3297L73.2312 65.0638C73.7591 65.2842 74.2986 65.5034 74.8352 65.7158L74.7291 65.9841ZM144.231 65.3211L144.12 65.0551C144.247 65.002 144.374 64.9483 144.501 64.8947C144.906 64.7233 145.31 64.5491 145.712 64.3725L145.828 64.6368C145.425 64.8139 145.02 64.9887 144.613 65.1607C144.486 65.2143 144.358 65.268 144.231 65.3211ZM71.5227 64.646C70.9965 64.4146 70.4634 64.1746 69.9383 63.9323L70.0595 63.6703C70.5828 63.9121 71.1142 64.1515 71.6387 64.3823L71.5227 64.646ZM147.411 63.9225L147.29 63.6605C147.814 63.4187 148.341 63.1689 148.855 62.9196L148.981 63.1793C148.465 63.4297 147.937 63.6796 147.411 63.9225ZM68.3677 63.1885C67.8513 62.9381 67.3274 62.6785 66.8116 62.4159L66.9425 62.1586C67.4572 62.42 67.9788 62.679 68.4941 62.9289L68.3677 63.1885ZM150.537 62.4061L150.406 62.1488C150.915 61.8897 151.432 61.6208 151.942 61.3496L152.077 61.6041C151.566 61.8764 151.048 62.1465 150.537 62.4061ZM65.2698 61.6139C64.7604 61.3427 64.2468 61.0629 63.7437 60.783L63.8839 60.5309C64.3853 60.8102 64.8971 61.0888 65.4054 61.3595L65.2698 61.6139ZM153.603 60.7738L153.463 60.5217C153.964 60.2424 154.47 59.9545 154.967 59.6648L155.112 59.9141C154.613 60.2043 154.105 60.4934 153.603 60.7738ZM62.2343 59.9233C61.7363 59.6337 61.2344 59.3348 60.741 59.0353L60.8905 58.789C61.3821 59.0878 61.8829 59.3856 62.3791 59.6741L62.2343 59.9233ZM156.606 59.0261L156.456 58.7797C156.947 58.4814 157.442 58.1739 157.927 57.8663L158.082 58.1098C157.595 58.4185 157.098 58.7266 156.606 59.0261ZM59.2645 58.1196C58.7769 57.8109 58.2865 57.493 57.8059 57.1757L57.9651 56.9351C58.444 57.2513 58.9333 57.568 59.4191 57.8761L59.2645 58.1196ZM159.54 57.1653L159.38 56.9247C159.859 56.6079 160.342 56.2825 160.816 55.9559L160.98 56.1936C160.504 56.5214 160.02 56.8479 159.54 57.1653ZM56.3657 56.2046C55.8931 55.8797 55.4148 55.5434 54.944 55.2064L55.1119 54.9721C55.5816 55.3085 56.0581 55.6432 56.529 55.9674L56.3657 56.2046ZM162.401 55.1949L162.234 54.9606C162.699 54.6265 163.169 54.2826 163.632 53.9382L163.804 54.1695C163.34 54.5152 162.869 54.8602 162.401 55.1949ZM53.5419 54.1811C53.0791 53.836 52.6141 53.4823 52.1594 53.1298L52.336 52.9019C52.7895 53.2538 53.2534 53.6064 53.7144 53.9497L53.5419 54.1811ZM165.187 53.1177L165.009 52.8898C165.463 52.5378 165.92 52.1766 166.368 51.8154L166.549 52.0399C166.1 52.4022 165.641 52.7646 165.187 53.1177ZM50.7965 52.052C50.3471 51.6896 49.8959 51.3186 49.4545 50.9493L49.6397 50.7283C50.0793 51.0965 50.53 51.4663 50.9777 51.8275L50.7965 52.052ZM167.892 50.9361L167.706 50.7151C168.147 50.3464 168.59 49.9679 169.024 49.59L169.213 49.8075C168.778 50.1866 168.334 50.5662 167.892 50.9361ZM48.1331 49.8219C47.6981 49.4434 47.2607 49.0556 46.8332 48.6696L47.0265 48.4556C47.4523 48.8404 47.8885 49.227 48.3224 49.6044L48.1331 49.8219ZM170.513 48.6546L170.32 48.4406C170.745 48.0557 171.174 47.6611 171.594 47.2676L171.791 47.4781C171.37 47.8728 170.94 48.2686 170.513 48.6546ZM45.5557 47.4937C45.1357 47.1002 44.7133 46.6963 44.2996 46.2942L44.501 46.0876C44.9135 46.4886 45.3347 46.8908 45.753 47.2831L45.5557 47.4937ZM173.048 46.2774L172.846 46.0709C173.151 45.7743 173.454 45.4754 173.756 45.1742C173.863 45.0669 173.97 44.959 174.077 44.8511L174.282 45.0542C174.174 45.1627 174.067 45.27 173.959 45.3779C173.657 45.6797 173.354 45.9797 173.048 46.2774ZM43.0654 45.0715C42.6592 44.6613 42.2513 44.2424 41.8537 43.8258L42.0626 43.6267C42.459 44.0421 42.8658 44.4599 43.2708 44.8684L43.0654 45.0715ZM175.493 43.8091L175.284 43.61C175.683 43.1911 176.082 42.7664 176.468 42.3464L176.68 42.5414C176.293 42.9626 175.893 43.389 175.493 43.8091ZM40.6651 42.5581C40.2739 42.1329 39.8821 41.699 39.5002 41.2686L39.716 41.077C40.0962 41.5063 40.4868 41.9384 40.8769 42.3625L40.6651 42.5581ZM177.844 41.2524L177.628 41.0608C178.01 40.6304 178.392 40.1907 178.764 39.754L178.984 39.9415C178.61 40.3794 178.227 40.8202 177.844 41.2524ZM38.3595 39.9576C37.9833 39.5168 37.6082 39.0685 37.2436 38.6253L37.4663 38.4424C37.8292 38.8844 38.2031 39.331 38.5787 39.7701L38.3595 39.9576ZM180.098 38.6098L179.876 38.4268C180.24 37.9826 180.606 37.5285 180.962 37.0784L181.188 37.2573C180.832 37.7091 180.465 38.1638 180.098 38.6098ZM36.1536 37.2729C35.7953 36.8194 35.437 36.3578 35.0891 35.8996L35.3187 35.7248C35.6655 36.1812 36.0226 36.6416 36.3798 37.0934L36.1536 37.2729ZM182.253 35.884L182.023 35.7092C182.369 35.2545 182.717 34.7872 183.058 34.321L183.291 34.4912C182.949 34.9591 182.6 35.4282 182.253 35.884ZM34.0505 34.5068C33.7106 34.0417 33.3702 33.5663 33.0384 33.0949L33.2744 32.9287C33.605 33.3989 33.9443 33.8727 34.283 34.3365L34.0505 34.5068ZM184.302 33.0793L184.066 32.9137C184.398 32.4406 184.728 31.9611 185.048 31.4868L185.287 31.6478C184.967 32.1232 184.635 32.605 184.302 33.0793ZM32.0535 31.6633C31.7321 31.1868 31.4096 30.6986 31.0957 30.2139L31.338 30.057C31.6508 30.5405 31.9721 31.0269 32.2929 31.5018L32.0535 31.6633ZM186.244 30.1984L186.002 30.0414C186.313 29.5596 186.625 29.0674 186.928 28.5782L187.174 28.7305C186.869 29.2209 186.557 29.7148 186.244 30.1984ZM30.1662 28.7461C29.8615 28.2556 29.558 27.756 29.2643 27.2615L29.5124 27.1143C29.8055 27.6071 30.1079 28.1056 30.4114 28.5943L30.1662 28.7461ZM188.075 27.2453L187.827 27.0982C188.119 26.6083 188.412 26.1046 188.698 25.6009L188.949 25.7434C188.662 26.2488 188.368 26.7537 188.075 27.2453ZM28.3907 25.7601C28.1057 25.2593 27.8213 24.7487 27.5455 24.2426L27.7987 24.1047C28.0734 24.6096 28.3573 25.1185 28.6412 25.6176L28.3907 25.7601ZM189.794 24.2253L189.54 24.0874C189.816 23.582 190.089 23.0673 190.354 22.5584L190.61 22.6917C190.344 23.2017 190.069 23.7181 189.794 24.2253ZM26.7296 22.709C26.4636 22.1972 26.1987 21.6762 25.9426 21.1603L26.2011 21.0322C26.4561 21.5463 26.7204 22.0656 26.9858 22.5757L26.7296 22.709ZM191.397 21.1424L191.138 21.0144C191.394 20.498 191.648 19.9734 191.893 19.4553L192.154 19.5788C191.908 20.0981 191.653 20.6243 191.397 21.1424ZM25.185 19.5978C24.938 19.0757 24.6928 18.5448 24.4568 18.0209L24.7199 17.9021C24.9553 18.4242 25.1994 18.9533 25.4458 19.4738L25.185 19.5978ZM192.883 18.0007L192.62 17.8824C192.856 17.3568 193.091 16.8231 193.316 16.2963L193.581 16.41C193.355 16.9385 193.12 17.4733 192.883 18.0007ZM23.7575 16.4307C23.7004 16.298 23.6438 16.1647 23.5873 16.0314C23.4176 15.6304 23.2515 15.2294 23.0876 14.8273L23.3547 14.7188C23.518 15.1198 23.6836 15.5196 23.8527 15.9189C23.9092 16.0516 23.9658 16.1849 24.0223 16.3176L23.7575 16.4307ZM194.25 14.8059L193.983 14.6974C194.2 14.1626 194.415 13.6208 194.62 13.087L194.889 13.1909C194.683 13.7263 194.468 14.2693 194.25 14.8059ZM22.4489 13.2111C22.2417 12.6728 22.0369 12.1252 21.8401 11.5834L22.1113 11.4847C22.3075 12.0248 22.5118 12.5706 22.7183 13.1072L22.4489 13.2111ZM195.497 11.5644L195.226 11.4657C195.422 10.9274 195.615 10.3781 195.802 9.83279L196.075 9.92628C195.887 10.4733 195.693 11.0243 195.497 11.5644ZM21.2614 9.94531C21.0745 9.40005 20.891 8.84499 20.7144 8.29626L20.9891 8.20799C21.1651 8.75498 21.3485 9.30832 21.5343 9.85184L21.2614 9.94531ZM196.621 8.27781L196.347 8.18952C196.523 7.64138 196.695 7.08516 196.86 6.53587L197.136 6.61896C196.971 7.16941 196.798 7.72794 196.621 8.27781ZM20.1992 6.63685C20.033 6.08409 19.8703 5.52266 19.7151 4.96816L19.9926 4.89028C20.1472 5.44305 20.3094 6.00272 20.475 6.55375L20.1992 6.63685ZM197.62 4.95029L197.342 4.87239C197.496 4.32137 197.648 3.75879 197.792 3.20026L198.072 3.27238C197.926 3.83322 197.775 4.39754 197.62 4.95029ZM19.2627 3.29028C19.1179 2.7329 18.9765 2.16572 18.8427 1.6043L19.1231 1.53738C19.2569 2.09648 19.3977 2.66193 19.542 3.21757L19.2627 3.29028ZM198.491 1.58699L198.211 1.52007C198.345 0.958649 198.475 0.390892 198.597 -0.168213L198.879 -0.106476C198.756 0.454361 198.626 1.02443 198.491 1.58699ZM18.4549 -0.0885925C18.3314 -0.652313 18.212 -1.22412 18.0995 -1.789L18.3828 -1.84554C18.4947 -1.28239 18.6142 -0.712318 18.7371 -0.150322L18.4549 -0.0885925ZM199.234 -1.80688L198.952 -1.86343C199.064 -2.42773 199.172 -3.00009 199.274 -3.56497L199.558 -3.51421C199.455 -2.94702 199.347 -2.3729 199.234 -1.80688ZM17.7758 -3.49632C17.6743 -4.06235 17.5767 -4.63818 17.485 -5.20882L17.77 -5.25441C17.8612 -4.68549 17.9587 -4.1114 18.0597 -3.5471L17.7758 -3.49632ZM199.847 -5.22672L199.562 -5.2723C199.652 -5.8366 199.739 -6.41302 199.819 -6.98539L200.105 -6.94558C200.025 -6.37147 199.938 -5.79332 199.847 -5.22672ZM17.2271 -6.92654C17.1469 -7.49719 17.0707 -8.07648 17.0015 -8.64886L17.2877 -8.68348C17.3569 -8.11283 17.4325 -7.53528 17.5127 -6.96693L17.2271 -6.92654ZM200.331 -8.66847L200.045 -8.70311C200.113 -9.27087 200.178 -9.85016 200.237 -10.4249L200.524 -10.3954C200.465 -9.81901 200.4 -9.23797 200.331 -8.66847ZM16.8088 -10.3746C16.7499 -10.9476 16.6962 -11.5292 16.6484 -12.1039L16.9357 -12.1281C16.9836 -11.5552 17.0373 -10.9747 17.0955 -10.4041L16.8088 -10.3746ZM200.684 -12.1258L200.396 -12.1501C200.444 -12.7196 200.486 -13.3006 200.524 -13.8776L200.812 -13.8591C200.774 -13.2798 200.731 -12.6965 200.684 -12.1258ZM16.5197 -13.836C16.4822 -14.413 16.4499 -14.9964 16.4239 -15.5699L16.7118 -15.5832C16.7384 -15.0108 16.7701 -14.4292 16.8076 -13.8545L16.5197 -13.836ZM200.907 -15.5936L200.619 -15.6068C200.645 -16.1833 200.667 -16.7654 200.682 -17.3384L200.97 -17.3303C200.955 -16.7562 200.934 -16.1717 200.907 -15.5936ZM16.3599 -17.3049C16.3437 -17.8813 16.3333 -18.4658 16.3281 -19.0411L16.6166 -19.044C16.6218 -18.4705 16.6328 -17.8877 16.6484 -17.313L16.3599 -17.3049ZM201.002 -19.0682L200.714 -19.0705C200.716 -19.3527 200.718 -19.6348 200.718 -19.917C200.718 -20.213 200.717 -20.5084 200.714 -20.8032L201.002 -20.8061C201.005 -20.5101 201.006 -20.2135 201.006 -19.9164C201.006 -19.6337 201.005 -19.3509 201.002 -19.0682ZM16.6166 -20.7767L16.3281 -20.7796C16.3333 -21.3571 16.3443 -21.9416 16.3599 -22.5175L16.6484 -22.5094C16.6322 -21.9353 16.6218 -21.3525 16.6166 -20.7767ZM200.681 -22.5342C200.665 -23.1118 200.643 -23.6934 200.617 -24.264L200.905 -24.2773C200.932 -23.7049 200.953 -23.121 200.969 -22.5423L200.681 -22.5342ZM16.7112 -24.2404L16.4228 -24.2536C16.4493 -24.8301 16.4816 -25.414 16.5185 -25.9887L16.8065 -25.9702C16.7701 -25.3973 16.7378 -24.8151 16.7112 -24.2404ZM200.521 -25.9927C200.484 -26.5616 200.441 -27.1427 200.393 -27.7191L200.68 -27.7433C200.729 -27.1646 200.772 -26.5818 200.809 -26.0112L200.521 -25.9927ZM16.9345 -27.6983L16.6472 -27.7225C16.6951 -28.2961 16.7493 -28.8783 16.8076 -29.4529L17.0944 -29.4235C17.0367 -28.8505 16.9824 -28.2701 16.9345 -27.6983ZM200.233 -29.4437C200.174 -30.0132 200.11 -30.5919 200.04 -31.1643L200.326 -31.1989C200.396 -30.6248 200.461 -30.0444 200.519 -29.4726L200.233 -29.4437ZM17.2871 -31.1441L17.0009 -31.1787C17.0701 -31.75 17.1463 -32.3298 17.2265 -32.9016L17.5121 -32.8612C17.4319 -32.2917 17.3563 -31.7142 17.2871 -31.1441ZM199.815 -32.8809C199.735 -33.455 199.648 -34.0308 199.558 -34.5934L199.843 -34.6389C199.933 -34.0746 200.02 -33.4971 200.101 -32.9212L199.815 -32.8809ZM17.7695 -34.5749L17.4844 -34.6205C17.5756 -35.1911 17.6737 -35.7676 17.7752 -36.3336L18.0591 -36.2828C17.9581 -35.7179 17.8606 -35.1432 17.7695 -34.5749ZM199.268 -36.3001C199.166 -36.8684 199.057 -37.4408 198.945 -38.0017L199.228 -38.0582C199.34 -37.4962 199.449 -36.9215 199.552 -36.3515L199.268 -36.3001ZM18.3811 -37.9838L18.0978 -38.0403C18.2103 -38.6064 18.3303 -39.1787 18.4532 -39.7407L18.7348 -39.679C18.613 -39.1187 18.4936 -38.5481 18.3811 -37.9838ZM198.59 -39.6969C198.468 -40.2583 198.337 -40.8261 198.203 -41.3846L198.484 -41.4515C198.618 -40.8907 198.749 -40.3212 198.872 -39.758L198.59 -39.6969ZM19.1225 -41.3673L18.8421 -41.4342C18.9754 -41.9927 19.1167 -42.5599 19.2621 -43.1202L19.5414 -43.0475C19.396 -42.4889 19.2552 -41.9235 19.1225 -41.3673ZM197.784 -43.0648C197.641 -43.6187 197.489 -44.1813 197.334 -44.7369L197.612 -44.8148C197.768 -44.2574 197.92 -43.6926 198.064 -43.1375L197.784 -43.0648ZM19.9915 -44.7196L19.7139 -44.7975C19.8691 -45.3526 20.0318 -45.914 20.198 -46.4662L20.4744 -46.3831C20.3082 -45.832 20.1461 -45.2729 19.9915 -44.7196ZM196.851 -46.4004C196.685 -46.9508 196.513 -47.5071 196.337 -48.054L196.611 -48.1423C196.788 -47.5936 196.962 -47.0351 197.127 -46.4829L196.851 -46.4004ZM20.9873 -48.0362L20.7127 -48.1244C20.8893 -48.6737 21.0727 -49.2282 21.2591 -49.7729L21.532 -49.6794C21.3468 -49.1365 21.1633 -48.5837 20.9873 -48.0362ZM195.791 -49.6985C195.603 -50.2466 195.409 -50.7965 195.214 -51.3319L195.486 -51.4306C195.681 -50.8934 195.876 -50.3418 196.064 -49.792L195.791 -49.6985ZM22.1084 -51.3123L21.8373 -51.411C22.034 -51.9528 22.2388 -52.4998 22.446 -53.0375L22.7149 -52.9337C22.5089 -52.3982 22.3046 -51.8524 22.1084 -51.3123ZM194.607 -52.9544C194.4 -53.4928 194.186 -54.0346 193.97 -54.5654L194.237 -54.6739C194.453 -54.1413 194.669 -53.5978 194.877 -53.0583L194.607 -52.9544ZM23.3519 -54.5441L23.0847 -54.6525C23.2492 -55.0576 23.4171 -55.4621 23.5873 -55.8654C23.6427 -55.9958 23.6981 -56.1262 23.7534 -56.2566L24.0183 -56.1429C23.9629 -56.0131 23.9075 -55.8833 23.8527 -55.7534C23.6831 -55.3507 23.5157 -54.948 23.3519 -54.5441ZM193.302 -56.1637C193.076 -56.6905 192.841 -57.2236 192.605 -57.7487L192.868 -57.8675C193.105 -57.3407 193.34 -56.8059 193.567 -56.2774L193.302 -56.1637ZM24.7159 -57.7285L24.4528 -57.8468C24.6893 -58.3713 24.9346 -58.9021 25.1815 -59.4243L25.4423 -59.3008C25.1959 -58.7809 24.9513 -58.2518 24.7159 -57.7285ZM191.878 -59.3204C191.633 -59.8386 191.379 -60.3625 191.123 -60.8783L191.382 -61.007C191.638 -60.49 191.893 -59.9638 192.14 -59.4439L191.878 -59.3204ZM26.1976 -60.8604L25.9391 -60.9885C26.1953 -61.5049 26.4601 -62.0259 26.7261 -62.5377L26.9823 -62.4044C26.7175 -61.8944 26.4532 -61.3745 26.1976 -60.8604ZM190.338 -62.4218C190.074 -62.9295 189.8 -63.4442 189.525 -63.9502L189.778 -64.0881C190.054 -63.5804 190.329 -63.0645 190.594 -62.555L190.338 -62.4218ZM27.7959 -63.9335L27.5426 -64.0714C27.8178 -64.5768 28.1022 -65.0875 28.3879 -65.5894L28.6389 -65.4469C28.3538 -64.9467 28.0705 -64.4372 27.7959 -63.9335ZM188.682 -65.4631C188.397 -65.9639 188.104 -66.4676 187.811 -66.9598L188.059 -67.1075C188.353 -66.6136 188.647 -66.1087 188.933 -65.6062L188.682 -65.4631ZM29.5095 -66.9437L29.2614 -67.0914C29.5557 -67.5864 29.8592 -68.0861 30.1633 -68.5765L30.4085 -68.4242C30.1056 -67.9355 29.8026 -67.4376 29.5095 -66.9437ZM186.912 -68.4398C186.61 -68.9262 186.298 -69.4184 185.985 -69.9025L186.227 -70.0594C186.542 -69.5736 186.854 -69.0803 187.157 -68.5921L186.912 -68.4398ZM31.3357 -69.8869L31.0934 -70.0433C31.4078 -70.5297 31.7304 -71.0172 32.0512 -71.4927L32.2906 -71.3311C31.9704 -70.8574 31.649 -70.3716 31.3357 -69.8869ZM185.03 -71.3473C184.71 -71.8216 184.38 -72.3016 184.048 -72.7736L184.284 -72.9392C184.616 -72.4655 184.948 -71.9843 185.269 -71.5082L185.03 -71.3473ZM33.2715 -72.7586L33.0355 -72.9242C33.3667 -73.3956 33.7072 -73.8705 34.0476 -74.3361L34.2807 -74.1659C33.9408 -73.702 33.6016 -73.2283 33.2715 -72.7586ZM183.039 -74.1814C182.7 -74.6454 182.352 -75.1121 182.004 -75.5697L182.233 -75.7445C182.582 -75.2852 182.932 -74.8167 183.272 -74.3517L183.039 -74.1814ZM35.3152 -75.5547L35.0856 -75.729C35.4347 -76.1882 35.793 -76.6498 36.1501 -77.1016L36.3763 -76.9227C36.0203 -76.4727 35.6632 -76.0123 35.3152 -75.5547ZM180.941 -76.9383C180.586 -77.3878 180.22 -77.8413 179.854 -78.2868L180.077 -78.4697C180.444 -78.0231 180.811 -77.5678 181.168 -77.1172L180.941 -76.9383ZM37.4628 -78.2712L37.2401 -78.4541C37.6065 -78.9001 37.9821 -79.3484 38.3554 -79.7858L38.5747 -79.5983C38.2019 -79.1626 37.8281 -78.716 37.4628 -78.2712ZM178.742 -79.6144C178.37 -80.0506 177.987 -80.4903 177.605 -80.9213L177.82 -81.1129C178.204 -80.6807 178.588 -80.2393 178.961 -79.8019L178.742 -79.6144ZM39.7108 -80.9052L39.495 -81.0967C39.8775 -81.5283 40.2693 -81.9622 40.6588 -82.3857L40.8711 -82.1901C40.4822 -81.7678 40.0916 -81.335 39.7108 -80.9052ZM176.444 -82.2069C176.053 -82.6315 175.654 -83.0562 175.259 -83.4705L175.467 -83.6695C175.864 -83.2541 176.264 -82.8277 176.656 -82.4019L176.444 -82.2069ZM42.0551 -83.4532L41.8462 -83.6522C42.2432 -84.0677 42.6506 -84.4866 43.0568 -84.8974L43.2616 -84.6943C42.8565 -84.2852 42.4503 -83.868 42.0551 -83.4532ZM174.05 -84.7122C173.952 -84.8108 173.854 -84.9095 173.756 -85.0082C173.445 -85.3186 173.133 -85.6261 172.819 -85.9313L173.02 -86.1379C173.335 -85.8315 173.648 -85.5228 173.96 -85.2118C174.058 -85.1132 174.157 -85.0145 174.255 -84.9153L174.05 -84.7122ZM44.4929 -85.914L44.2915 -86.1206C44.7052 -86.5233 45.1282 -86.9272 45.5482 -87.3207L45.7455 -87.1101C45.3267 -86.7184 44.9054 -86.3156 44.4929 -85.914ZM171.568 -87.1269C171.149 -87.5192 170.72 -87.9139 170.294 -88.2993L170.487 -88.5134C170.915 -88.1268 171.345 -87.7316 171.765 -87.3375L171.568 -87.1269ZM47.0201 -88.2837L46.8268 -88.4978C47.255 -88.8844 47.6923 -89.2721 48.1274 -89.6506L48.3166 -89.4331C47.8833 -89.0563 47.4471 -88.6698 47.0201 -88.2837ZM168.997 -89.4475C168.565 -89.8232 168.122 -90.2011 167.68 -90.5715L167.865 -90.7925C168.309 -90.4209 168.753 -90.0418 169.186 -89.6651L168.997 -89.4475ZM49.6339 -90.5577L49.4487 -90.7787C49.8924 -91.1502 50.3436 -91.5213 50.7914 -91.8819L50.9725 -91.6574C50.5259 -91.298 50.0759 -90.9281 49.6339 -90.5577ZM166.342 -91.6701C165.895 -92.0302 165.438 -92.3919 164.984 -92.7439L165.161 -92.9718C165.616 -92.6187 166.075 -92.2563 166.523 -91.8946L166.342 -91.6701ZM52.3308 -92.7318L52.1542 -92.9597C52.61 -93.3134 53.0751 -93.6671 53.5373 -94.0116L53.7098 -93.7802C53.2488 -93.4369 52.7849 -93.0843 52.3308 -92.7318ZM163.605 -93.7917C163.145 -94.1345 162.675 -94.4783 162.207 -94.8136L162.375 -95.0484C162.845 -94.712 163.317 -94.367 163.778 -94.0237L163.605 -93.7917ZM55.1073 -94.8026L54.9394 -95.0369C55.4079 -95.3727 55.8862 -95.7085 56.3611 -96.0356L56.5249 -95.7979C56.0512 -95.4725 55.5746 -95.1373 55.1073 -94.8026ZM160.79 -95.8089C160.314 -96.136 159.832 -96.4615 159.354 -96.7771L159.512 -97.0177C159.991 -96.7015 160.476 -96.3743 160.953 -96.0466L160.79 -95.8089ZM57.9605 -96.7661L57.8012 -97.0067C58.2807 -97.3235 58.7717 -97.6408 59.2599 -97.9507L59.4145 -97.7072C58.9275 -97.3985 58.4388 -97.0823 57.9605 -96.7661ZM157.9 -97.717C157.415 -98.024 156.92 -98.3309 156.428 -98.6298L156.578 -98.8762C157.071 -98.5761 157.568 -98.268 158.054 -97.9605L157.9 -97.717ZM60.8859 -98.6206L60.7358 -98.867C61.228 -99.1658 61.7306 -99.4647 62.2291 -99.7549L62.3739 -99.5057C61.8771 -99.216 61.3763 -98.9183 60.8859 -98.6206ZM154.939 -99.5149C154.445 -99.8028 153.938 -100.091 153.434 -100.372L153.574 -100.624C154.08 -100.342 154.588 -100.053 155.084 -99.7648L154.939 -99.5149ZM63.8793 -100.362L63.7391 -100.614C64.2411 -100.893 64.754 -101.173 65.2646 -101.445L65.4002 -101.191C64.8913 -100.919 64.3795 -100.641 63.8793 -100.362ZM151.912 -101.2C151.405 -101.47 150.888 -101.739 150.376 -101.999L150.507 -102.256C151.021 -101.995 151.54 -101.725 152.048 -101.455L151.912 -101.2ZM66.9362 -101.99L66.8052 -102.247C67.3164 -102.507 67.8398 -102.767 68.3608 -103.02L68.4866 -102.76C67.9673 -102.508 67.4457 -102.249 66.9362 -101.99ZM148.824 -102.769C148.306 -103.02 147.779 -103.269 147.258 -103.509L147.379 -103.771C147.902 -103.53 148.431 -103.28 148.95 -103.028L148.824 -102.769ZM70.0514 -103.501L69.9302 -103.763C70.4518 -104.004 70.9844 -104.244 71.5135 -104.476L71.6295 -104.212C71.1027 -103.98 70.5718 -103.741 70.0514 -103.501ZM145.679 -104.221C145.288 -104.393 144.895 -104.562 144.501 -104.729C144.363 -104.787 144.224 -104.845 144.086 -104.903L144.197 -105.169C144.336 -105.111 144.474 -105.053 144.613 -104.994C145.009 -104.827 145.403 -104.657 145.795 -104.485L145.679 -104.221ZM73.2225 -104.894L73.1112 -105.161C73.642 -105.382 74.1838 -105.603 74.721 -105.815L74.8272 -105.547C74.2917 -105.335 73.7516 -105.115 73.2225 -104.894ZM142.483 -105.555C141.946 -105.767 141.403 -105.976 140.866 -106.176L140.967 -106.446C141.505 -106.245 142.05 -106.036 142.588 -105.823L142.483 -105.555ZM76.4439 -106.169L76.3429 -106.439C76.8824 -106.641 77.4317 -106.841 77.9764 -107.033L78.0727 -106.761C77.5292 -106.57 76.9817 -106.37 76.4439 -106.169ZM139.239 -106.768C138.698 -106.959 138.147 -107.147 137.601 -107.328L137.692 -107.602C138.239 -107.42 138.792 -107.232 139.335 -107.04L139.239 -106.768ZM79.7108 -107.322L79.6197 -107.596C80.1661 -107.777 80.7229 -107.956 81.2739 -108.128L81.3593 -107.852C80.81 -107.681 80.2555 -107.503 79.7108 -107.322ZM135.952 -107.857C135.405 -108.027 134.847 -108.195 134.294 -108.355L134.374 -108.632C134.929 -108.471 135.489 -108.303 136.038 -108.132L135.952 -107.857ZM83.0187 -108.35L82.9385 -108.627C83.4896 -108.787 84.0527 -108.945 84.6118 -109.096L84.6868 -108.817C84.1289 -108.667 83.568 -108.51 83.0187 -108.35ZM132.626 -108.822C132.07 -108.972 131.506 -109.118 130.95 -109.256L131.02 -109.536C131.578 -109.397 132.144 -109.251 132.701 -109.101L132.626 -108.822ZM86.363 -109.252L86.2932 -109.532C86.8534 -109.671 87.4218 -109.807 87.9826 -109.935L88.0467 -109.654C87.4875 -109.527 86.9209 -109.391 86.363 -109.252ZM129.265 -109.658C128.705 -109.787 128.136 -109.911 127.574 -110.029L127.632 -110.312C128.197 -110.194 128.767 -110.069 129.329 -109.94L129.265 -109.658ZM89.7384 -110.025L89.6796 -110.308C90.2433 -110.425 90.8168 -110.54 91.3828 -110.647L91.4365 -110.364C90.8722 -110.257 90.301 -110.143 89.7384 -110.025ZM125.875 -110.367C125.312 -110.474 124.738 -110.576 124.17 -110.673L124.219 -110.957C124.788 -110.861 125.364 -110.758 125.929 -110.65L125.875 -110.367ZM93.1415 -110.67L93.093 -110.954C93.6608 -111.051 94.2378 -111.143 94.8079 -111.229L94.8511 -110.944C94.2822 -110.858 93.707 -110.766 93.1415 -110.67ZM122.46 -110.946C121.892 -111.032 121.315 -111.112 120.745 -111.187L120.782 -111.473C121.354 -111.398 121.933 -111.317 122.503 -111.231L122.46 -110.946ZM96.566 -111.185L96.5285 -111.471C97.1008 -111.546 97.6807 -111.616 98.2525 -111.68L98.2848 -111.393C97.7147 -111.33 97.1366 -111.26 96.566 -111.185ZM119.025 -111.396C118.453 -111.46 117.873 -111.519 117.302 -111.572L117.328 -111.859C117.901 -111.806 118.483 -111.747 119.057 -111.683L119.025 -111.396ZM100.007 -111.57L99.9806 -111.857C100.554 -111.91 101.136 -111.96 101.712 -112.002L101.733 -111.714C101.159 -111.672 100.578 -111.623 100.007 -111.57ZM115.576 -111.715C115.002 -111.758 114.42 -111.795 113.847 -111.827L113.863 -112.115C114.438 -112.083 115.021 -112.045 115.598 -112.003L115.576 -111.715ZM103.46 -111.826L103.444 -112.114C104.017 -112.145 104.601 -112.172 105.179 -112.194L105.189 -111.905C104.613 -111.884 104.032 -111.857 103.46 -111.826ZM112.116 -111.906C111.541 -111.927 110.958 -111.943 110.384 -111.954L110.39 -112.242C110.965 -112.232 111.55 -112.216 112.126 -112.195L112.116 -111.906ZM106.92 -111.953L106.914 -112.242C107.49 -112.252 108.074 -112.258 108.652 -112.258V-111.969C108.076 -111.969 107.494 -111.964 106.92 -111.953Z" fill="#EA2CEA"/>
</g>
<g id="Group_4">
<path id="Vector_3" d="M108.683 56.1416V55.8531C109.255 55.8531 109.836 55.8462 110.409 55.8335L110.415 56.122C109.84 56.1353 109.257 56.1416 108.683 56.1416ZM106.952 56.1225C106.374 56.1098 105.792 56.0902 105.221 56.0649L105.235 55.7769C105.803 55.8023 106.383 55.8214 106.959 55.8346L106.952 56.1225ZM112.145 56.0637L112.133 55.7752C112.706 55.7492 113.285 55.7169 113.855 55.6783L113.875 55.9662C113.302 56.0048 112.721 56.0372 112.145 56.0637ZM103.493 55.9685C102.919 55.9298 102.338 55.8843 101.767 55.8329L101.793 55.5455C102.362 55.5969 102.94 55.6419 103.513 55.6806L103.493 55.9685ZM115.6 55.83L115.574 55.5427C116.145 55.4908 116.723 55.4325 117.29 55.3684L117.322 55.6552C116.753 55.7187 116.173 55.7781 115.6 55.83ZM100.045 55.6586C99.4768 55.5946 98.8987 55.5225 98.3263 55.4452L98.3649 55.159C98.935 55.2363 99.5108 55.3078 100.076 55.3719L100.045 55.6586ZM119.04 55.44L119.001 55.1538C119.567 55.0765 120.141 54.9917 120.707 54.9011L120.753 55.1861C120.184 55.2773 119.608 55.3627 119.04 55.44ZM96.6138 55.1924C96.0472 55.1024 95.473 55.0043 94.907 54.9011L94.9589 54.6172C95.5227 54.7199 96.0945 54.818 96.6593 54.9074L96.6138 55.1924ZM122.459 54.8936L122.407 54.6097C122.97 54.5064 123.539 54.3956 124.1 54.2796L124.158 54.5624C123.596 54.6789 123.024 54.7903 122.459 54.8936ZM93.2078 54.5699C92.6481 54.4545 92.0792 54.3304 91.516 54.2006L91.5806 53.9196C92.1415 54.0488 92.7081 54.1723 93.2655 54.2877L93.2078 54.5699ZM125.849 54.1919L125.785 53.9109C126.342 53.7823 126.906 53.6449 127.461 53.5036L127.533 53.7828C126.975 53.9254 126.409 54.0627 125.849 54.1919ZM89.8335 53.7926C89.2796 53.6513 88.7165 53.5013 88.1608 53.3461L88.2381 53.068C88.792 53.2226 89.3523 53.372 89.9045 53.5128L89.8335 53.7926ZM129.205 53.3357L129.127 53.0582C129.677 52.9041 130.234 52.7414 130.782 52.5746L130.866 52.8504C130.316 53.0177 129.757 53.181 129.205 53.3357ZM86.4985 52.8614C85.9498 52.6941 85.3918 52.5175 84.8414 52.3369L84.9314 52.0628C85.4795 52.2434 86.0352 52.4194 86.5822 52.5856L86.4985 52.8614ZM132.517 52.3265L132.427 52.0524C132.972 51.8718 133.522 51.6843 134.058 51.4928L134.155 51.7645C133.616 51.9567 133.065 52.1459 132.517 52.3265ZM83.1975 51.7738C82.6557 51.581 82.107 51.3791 81.5675 51.1737L81.6702 50.9042C82.208 51.1091 82.7544 51.3104 83.2939 51.502L83.1975 51.7738ZM135.779 51.1662L135.677 50.8967C136.212 50.6931 136.751 50.4796 137.281 50.2632L137.39 50.5303C136.858 50.7473 136.317 50.9613 135.779 51.1662ZM79.9519 50.5361C79.4234 50.3203 78.8851 50.0936 78.3519 49.8622L78.4667 49.5979C78.9976 49.8287 79.5342 50.0549 80.061 50.2695L79.9519 50.5361ZM138.98 49.8604L138.865 49.5962C139.387 49.3694 139.914 49.1329 140.434 48.8923L140.555 49.1542C140.033 49.3948 139.503 49.6325 138.98 49.8604ZM76.7681 49.1508C76.2476 48.9101 75.7208 48.6591 75.2015 48.4041L75.3285 48.1451C75.846 48.3989 76.3711 48.6493 76.8893 48.8888L76.7681 49.1508ZM142.113 48.4116L141.986 48.1525C142.5 47.9004 143.017 47.6396 143.521 47.3777L143.654 47.6338C143.147 47.8964 142.629 48.1583 142.113 48.4116ZM73.6523 47.6223C73.1405 47.3563 72.6253 47.0811 72.1221 46.8053L72.2606 46.5525C72.762 46.8278 73.275 47.1018 73.785 47.3667L73.6523 47.6223ZM145.178 46.8209L145.039 46.5675C145.539 46.2935 146.044 46.0096 146.538 45.7234L146.682 45.9732C146.186 46.2606 145.68 46.5456 145.178 46.8209ZM70.611 45.953C70.1165 45.6669 69.6145 45.3686 69.12 45.0674L69.2701 44.821C69.7628 45.1216 70.2625 45.4182 70.7552 45.7038L70.611 45.953ZM148.169 45.0916L148.019 44.8452C148.508 44.5475 148.999 44.2405 149.479 43.9336L149.635 44.1765C149.152 44.4846 148.659 44.7927 148.169 45.0916ZM67.6504 44.1476C67.1675 43.8378 66.6799 43.5175 66.2022 43.195L66.3632 42.9556C66.8398 43.2764 67.325 43.596 67.8062 43.9047L67.6504 44.1476ZM151.079 43.2273L150.918 42.9879C151.393 42.6688 151.87 42.3399 152.336 42.0105L152.502 42.2459C152.035 42.5765 151.555 42.9065 151.079 43.2273ZM64.7759 42.2101C64.3062 41.8777 63.8342 41.5356 63.3726 41.1929L63.5446 40.9615C64.0044 41.3031 64.4747 41.6435 64.9426 41.9747L64.7759 42.2101ZM153.903 41.2321L153.731 41.0001C154.189 40.6609 154.651 40.3106 155.104 39.9587L155.281 40.1866C154.827 40.5397 154.363 40.8917 153.903 41.2321ZM61.993 40.1445C61.5383 39.7908 61.0825 39.4278 60.6377 39.0655L60.82 38.8416C61.2625 39.2028 61.7172 39.5646 62.1702 39.9171L61.993 40.1445ZM156.635 39.1105L156.453 38.8866C156.895 38.5266 157.341 38.1556 157.777 37.784L157.964 38.0038C157.526 38.3771 157.079 38.7499 156.635 39.1105ZM59.3077 37.9559C58.8726 37.5843 58.4335 37.2012 58.0031 36.8169L58.1952 36.6017C58.624 36.9848 59.0613 37.3668 59.4946 37.7367L59.3077 37.9559ZM159.269 36.8666L159.077 36.6514C159.504 36.2711 159.932 35.8799 160.35 35.4893L160.547 35.7005C160.127 36.0922 159.697 36.4846 159.269 36.8666ZM56.7251 35.6479C56.3062 35.2562 55.885 34.8534 55.4741 34.4513L55.6761 34.2453C56.0858 34.6463 56.5052 35.0473 56.9224 35.4374L56.7251 35.6479ZM161.799 34.5055L161.598 34.2989C162.009 33.8974 162.42 33.4871 162.818 33.0803L163.024 33.2823C162.624 33.6902 162.212 34.1022 161.799 34.5055ZM54.2503 33.2269C53.8516 32.819 53.4495 32.3972 53.0548 31.9754L53.2654 31.7786C53.6583 32.1993 54.0588 32.6187 54.4563 33.0255L54.2503 33.2269ZM164.221 32.0314L164.01 31.834C164.4 31.4174 164.792 30.9887 165.174 30.5612L165.39 30.7533C165.005 31.1826 164.612 31.613 164.221 32.0314ZM51.8887 30.6968C51.5073 30.2692 51.1248 29.8307 50.7515 29.3928L50.9713 29.2058C51.3435 29.642 51.7243 30.0788 52.1045 30.5046L51.8887 30.6968ZM166.529 29.4493L166.31 29.2618C166.683 28.825 167.055 28.3796 167.415 27.937L167.639 28.1193C167.277 28.5636 166.904 29.0108 166.529 29.4493ZM49.6442 28.0634C49.2813 27.6174 48.9189 27.1621 48.5675 26.7098L48.7955 26.5326C49.1457 26.9832 49.5063 27.4368 49.8681 27.8811L49.6442 28.0634ZM168.719 26.7646L168.491 26.5874C168.841 26.1374 169.193 25.6752 169.536 25.2136L169.767 25.3856C169.423 25.8489 169.07 26.3134 168.719 26.7646ZM47.522 25.3325C47.1799 24.8709 46.8389 24.4001 46.5083 23.9321L46.7437 23.7654C47.0731 24.2316 47.413 24.7012 47.754 25.1605L47.522 25.3325ZM170.785 23.9823L170.55 23.8156C170.882 23.3465 171.212 22.8681 171.531 22.395L171.77 22.5566C171.45 23.0314 171.119 23.5115 170.785 23.9823ZM45.5262 22.5087C45.2066 22.0338 44.8875 21.548 44.5771 21.0645L44.82 20.9087C45.1292 21.391 45.4472 21.8751 45.7657 22.3477L45.5262 22.5087ZM172.723 21.1083L172.48 20.9525C172.791 20.4678 173.1 19.9751 173.397 19.4887L173.643 19.6387C173.345 20.1274 173.036 20.6213 172.723 21.1083ZM43.6614 19.5989C43.3636 19.1108 43.0671 18.6105 42.7791 18.1131L43.029 17.9683C43.3157 18.464 43.6117 18.9619 43.9077 19.4483L43.6614 19.5989ZM174.53 18.1478L174.28 18.0035C174.568 17.5056 174.854 16.9995 175.129 16.4987L175.382 16.6378C175.106 17.1397 174.819 17.6481 174.53 18.1478ZM41.931 16.6083C41.6552 16.1052 41.3817 15.5928 41.1174 15.0851L41.3736 14.9524C41.6367 15.4584 41.909 15.969 42.1837 16.4699L41.931 16.6083ZM176.2 15.107L175.943 14.9743C176.207 14.4665 176.47 13.9478 176.723 13.4314L176.982 13.5583C176.728 14.0765 176.464 14.5975 176.2 15.107ZM40.3396 13.5434C40.0869 13.0281 39.8371 12.5036 39.597 11.9855L39.859 11.8643C40.0979 12.3807 40.3471 12.9029 40.5987 13.4164L40.3396 13.5434ZM177.729 11.9918L177.467 11.8706C177.71 11.3456 177.948 10.8148 178.175 10.2932L178.439 10.4085C178.212 10.9319 177.973 11.4644 177.729 11.9918ZM38.8902 10.4108C38.6611 9.88463 38.4355 9.34977 38.2197 8.82124L38.4869 8.71217C38.7021 9.23897 38.9266 9.77155 39.155 10.2955L38.8902 10.4108ZM179.115 8.80855L178.847 8.6995C179.065 8.1652 179.28 7.62341 179.483 7.09026L179.752 7.19296C179.548 7.72841 179.333 8.27194 179.115 8.80855ZM37.5833 7.21085C37.3785 6.67424 37.1765 6.12783 36.9844 5.58661L37.2562 5.49026C37.4483 6.02917 37.6491 6.57384 37.8534 7.10814L37.5833 7.21085ZM180.353 5.56296L180.081 5.46659C180.273 4.92595 180.462 4.3755 180.642 3.82909L180.916 3.91967C180.735 4.46781 180.545 5.02058 180.353 5.56296ZM36.4224 3.94911C36.2424 3.40443 36.0664 2.84878 35.8985 2.2989L36.1743 2.21467C36.3416 2.76223 36.517 3.31557 36.6965 3.85852L36.4224 3.94911ZM181.442 2.26256L181.166 2.17889C181.333 1.6319 181.495 1.0751 181.649 0.523499L181.927 0.601395C181.772 1.15473 181.609 1.71384 181.442 2.26256ZM35.4121 0.637161C35.2569 0.0832443 35.1063 -0.479889 34.9643 -1.03554L35.2436 -1.10708C35.385 -0.553741 35.535 0.00709534 35.6896 0.55928L35.4121 0.637161ZM182.373 -1.0719L182.094 -1.14344C182.236 -1.69851 182.372 -2.26223 182.501 -2.8196L182.782 -2.75498C182.653 -2.1953 182.515 -1.62927 182.373 -1.0719ZM34.5553 -2.71748C34.426 -3.27543 34.3014 -3.84435 34.1843 -4.40864L34.467 -4.46749C34.5835 -3.90549 34.7076 -3.33833 34.8363 -2.78268L34.5553 -2.71748ZM183.152 -4.44614L182.87 -4.50442C182.986 -5.06756 183.096 -5.63706 183.199 -6.19733L183.483 -6.14539C183.38 -5.58282 183.269 -5.0116 183.152 -4.44614ZM33.8525 -6.10789C33.7486 -6.67277 33.6505 -7.24687 33.5594 -7.81406L33.8444 -7.85963C33.935 -7.29417 34.0331 -6.72239 34.1364 -6.15982L33.8525 -6.10789ZM183.775 -7.85213L183.49 -7.89772C183.58 -8.46375 183.665 -9.03786 183.742 -9.60389L184.028 -9.56524C183.95 -8.99632 183.866 -8.41989 183.775 -7.85213ZM33.3061 -9.52715C33.2288 -10.0949 33.1561 -10.6725 33.0914 -11.2449L33.3782 -11.2777C33.4428 -10.7071 33.5149 -10.1318 33.5923 -9.56638L33.3061 -9.52715ZM184.242 -11.2829L183.956 -11.3152C184.02 -11.8807 184.078 -12.4577 184.13 -13.0312L184.417 -13.0053C184.365 -12.43 184.306 -11.8507 184.242 -11.2829ZM32.9149 -12.9672C32.8629 -13.5378 32.8174 -14.1189 32.7781 -14.693L33.066 -14.7126C33.1047 -14.1402 33.1509 -13.5621 33.2022 -12.9931L32.9149 -12.9672ZM184.553 -14.731L184.265 -14.7507C184.303 -15.3202 184.336 -15.8995 184.362 -16.473L184.65 -16.4597C184.624 -15.8845 184.591 -15.3028 184.553 -14.731ZM32.6806 -16.4216C32.6546 -16.9975 32.635 -17.5797 32.6218 -18.152L32.9103 -18.1584C32.9229 -17.5878 32.9431 -17.0079 32.9691 -16.4343L32.6806 -16.4216ZM184.708 -18.1901L184.419 -18.1965C184.432 -18.7694 184.438 -19.3499 184.438 -19.9211V-19.995H184.727V-19.9211C184.727 -19.3476 184.721 -18.7648 184.708 -18.1901ZM32.8901 -19.8836H32.6016V-19.9211C32.6016 -20.4825 32.6079 -21.052 32.62 -21.6152L32.9085 -21.6088C32.8964 -21.0485 32.8901 -20.4808 32.8901 -19.9211V-19.8836ZM184.418 -21.7202C184.404 -22.2937 184.384 -22.8742 184.358 -23.4442L184.647 -23.4575C184.673 -22.8851 184.693 -22.3029 184.707 -21.7271L184.418 -21.7202ZM32.9651 -23.3323L32.6771 -23.345C32.7025 -23.9191 32.7348 -24.5007 32.7729 -25.0737L33.0608 -25.0546C33.0228 -24.484 32.9905 -23.9047 32.9651 -23.3323ZM184.26 -25.166C184.221 -25.7383 184.175 -26.3165 184.123 -26.8854L184.41 -26.9114C184.462 -26.3407 184.508 -25.7603 184.548 -25.1856L184.26 -25.166ZM33.1959 -26.774L32.9085 -26.8C32.9599 -27.3712 33.0182 -27.9511 33.0828 -28.5223L33.3695 -28.49C33.3049 -27.9205 33.2466 -27.3435 33.1959 -26.774ZM183.947 -28.6014C183.883 -29.1651 183.81 -29.741 183.732 -30.3128L184.018 -30.352C184.096 -29.7785 184.169 -29.2003 184.233 -28.6343L183.947 -28.6014ZM33.5813 -30.202L33.2957 -30.2406C33.3724 -30.809 33.4578 -31.3854 33.5478 -31.9537L33.8329 -31.9087C33.7429 -31.3421 33.658 -30.768 33.5813 -30.202ZM183.478 -32.0183C183.388 -32.5826 183.289 -33.1544 183.186 -33.7182L183.47 -33.7701C183.574 -33.2046 183.673 -32.6305 183.763 -32.0639L183.478 -32.0183ZM34.1231 -33.6085L33.8392 -33.6605C33.9425 -34.2259 34.0533 -34.7977 34.1693 -35.3603L34.452 -35.302C34.3366 -34.7412 34.2258 -34.1717 34.1231 -33.6085ZM182.855 -35.4105C182.739 -35.9684 182.615 -36.535 182.485 -37.0953L182.766 -37.1605C182.896 -36.5979 183.021 -36.029 183.137 -35.4693L182.855 -35.4105ZM34.8195 -36.9868L34.5385 -37.0514C34.6678 -37.6117 34.8045 -38.1777 34.9465 -38.734L35.2263 -38.663C35.0844 -38.1085 34.9476 -37.5448 34.8195 -36.9868ZM182.076 -38.7709C181.934 -39.3225 181.784 -39.8828 181.629 -40.4367L181.907 -40.5146C182.062 -39.9583 182.214 -39.3958 182.355 -38.8424L182.076 -38.7709ZM35.67 -40.3293L35.3919 -40.4067C35.5465 -40.9606 35.7092 -41.5203 35.876 -42.069L36.1518 -41.9853C35.9862 -41.4389 35.8241 -40.8815 35.67 -40.3293ZM181.144 -42.0921C180.978 -42.6367 180.802 -43.1895 180.621 -43.7359L180.895 -43.8265C181.076 -43.2784 181.253 -42.7233 181.42 -42.1763L181.144 -42.0921ZM36.6751 -43.6361L36.4011 -43.7261C36.5811 -44.2725 36.7703 -44.8259 36.9636 -45.3705L37.2354 -45.2742C37.0427 -44.7318 36.854 -44.1808 36.6751 -43.6361ZM180.061 -45.3671C179.869 -45.9066 179.667 -46.4512 179.463 -46.985L179.733 -47.0877C179.937 -46.5516 180.139 -46.0052 180.333 -45.4634L180.061 -45.3671ZM37.8326 -46.8978L37.5631 -47.0005C37.768 -47.5372 37.982 -48.0807 38.2001 -48.6161L38.4673 -48.5071C38.2497 -47.9745 38.0363 -47.4327 37.8326 -46.8978ZM178.828 -48.589C178.614 -49.1141 178.389 -49.6466 178.16 -50.1723L178.424 -50.2877C178.655 -49.7597 178.88 -49.2254 179.096 -48.6981L178.828 -48.589ZM39.1389 -50.1019L38.8741 -50.2167C39.1037 -50.7452 39.3426 -51.2784 39.5843 -51.8006L39.8463 -51.6794C39.6057 -51.1595 39.3674 -50.6281 39.1389 -50.1019ZM177.455 -51.74C177.215 -52.2569 176.966 -52.7791 176.714 -53.2921L176.973 -53.4196C177.226 -52.9049 177.476 -52.3804 177.716 -51.8617L177.455 -51.74ZM40.5895 -53.2407L40.3304 -53.3677C40.5843 -53.8858 40.8474 -54.4068 41.1122 -54.9169L41.3684 -54.7842C41.1047 -54.2758 40.8428 -53.7571 40.5895 -53.2407ZM175.938 -54.8269C175.676 -55.3312 175.403 -55.8418 175.127 -56.3444L175.38 -56.4834C175.657 -55.9791 175.93 -55.4668 176.194 -54.9602L175.938 -54.8269ZM42.182 -56.3086L41.9292 -56.4471C42.2062 -56.9519 42.493 -57.4603 42.7809 -57.9582L43.0307 -57.8134C42.7434 -57.3178 42.4583 -56.8117 42.182 -56.3086ZM174.282 -57.8428C173.995 -58.3379 173.699 -58.8358 173.402 -59.3222L173.649 -59.4722C173.946 -58.9841 174.244 -58.4844 174.531 -57.9871L174.282 -57.8428ZM43.9124 -59.2992L43.666 -59.4492C43.9654 -59.9402 44.2747 -60.4347 44.5851 -60.9194L44.828 -60.7636C44.5188 -60.2818 44.2107 -59.789 43.9124 -59.2992ZM172.489 -60.7815C172.18 -61.2632 171.862 -61.7473 171.543 -62.2199L171.782 -62.3815C172.102 -61.9066 172.422 -61.4208 172.732 -60.9372L172.489 -60.7815ZM45.7766 -62.2072L45.5372 -62.3682C45.8586 -62.8454 46.1898 -63.3248 46.5221 -63.7945L46.7575 -63.6278C46.4269 -63.1604 46.0969 -62.6821 45.7766 -62.2072ZM170.564 -63.6376C170.236 -64.1015 169.896 -64.5711 169.553 -65.0327L169.785 -65.2047C170.128 -64.7414 170.47 -64.2705 170.799 -63.8043L170.564 -63.6376ZM47.7707 -65.0264L47.5388 -65.1983C47.8803 -65.6588 48.2329 -66.1227 48.5872 -66.5779L48.8151 -66.4008C48.4625 -65.9473 48.1111 -65.4845 47.7707 -65.0264ZM168.511 -66.4042C168.161 -66.8543 167.8 -67.3084 167.438 -67.7521L167.662 -67.9344C168.025 -67.4884 168.388 -67.0332 168.739 -66.5814L168.511 -66.4042ZM49.89 -67.7509L49.6661 -67.9333C50.0296 -68.3793 50.403 -68.827 50.7757 -69.2638L50.9949 -69.0769C50.6239 -68.6413 50.2518 -68.1952 49.89 -67.7509ZM166.334 -69.0757C165.964 -69.5091 165.583 -69.9458 165.2 -70.3745L165.416 -70.5667C165.799 -70.1368 166.182 -69.6983 166.553 -69.2632L166.334 -69.0757ZM52.1299 -70.3763L51.9147 -70.5684C52.2966 -70.996 52.6896 -71.4258 53.0825 -71.847L53.2931 -71.6503C52.9013 -71.2308 52.5101 -70.8021 52.1299 -70.3763ZM164.038 -71.6474C163.648 -72.0645 163.247 -72.4834 162.846 -72.8937L163.053 -73.0956C163.456 -72.6837 163.858 -72.263 164.249 -71.8447L164.038 -71.6474ZM54.4852 -72.8966L54.2792 -73.0985C54.6819 -73.5105 55.0939 -73.9219 55.5036 -74.3223L55.7049 -74.1158C55.2964 -73.7165 54.8862 -73.3068 54.4852 -72.8966ZM161.626 -74.1134C161.218 -74.5127 160.798 -74.9132 160.38 -75.3049L160.576 -75.5155C160.997 -75.1226 161.418 -74.7199 161.828 -74.3194L161.626 -74.1134ZM56.9512 -75.3072L56.7545 -75.5179C57.1745 -75.9102 57.6044 -76.3031 58.0325 -76.6845L58.2247 -76.4693C57.7983 -76.0891 57.3701 -75.6979 56.9512 -75.3072ZM159.106 -76.4682C158.678 -76.8501 158.241 -77.2315 157.806 -77.6025L157.993 -77.8218C158.429 -77.4496 158.868 -77.0665 159.298 -76.6834L159.106 -76.4682ZM59.5235 -77.6025L59.3365 -77.8218C59.7727 -78.1939 60.2199 -78.5667 60.6654 -78.9296L60.8477 -78.7057C60.4034 -78.3445 59.958 -77.9735 59.5235 -77.6025ZM156.48 -78.7075C156.035 -79.0692 155.581 -79.4304 155.13 -79.7818L155.307 -80.0097C155.76 -79.6572 156.217 -79.2943 156.663 -78.9308L156.48 -78.7075ZM62.1955 -79.7789L62.0184 -80.0069C62.4713 -80.3594 62.9347 -80.7108 63.3957 -81.0529L63.5676 -80.821C63.1089 -80.4806 62.6473 -80.1298 62.1955 -79.7789ZM153.755 -80.8256C153.294 -81.1678 152.823 -81.5082 152.356 -81.8382L152.523 -82.0736C152.992 -81.7425 153.464 -81.4009 153.927 -81.057L153.755 -80.8256ZM64.9628 -81.8319L64.7961 -82.0673C65.2651 -82.3991 65.744 -82.7297 66.2189 -83.0493L66.3799 -82.8099C65.9073 -82.4914 65.4302 -82.1619 64.9628 -81.8319ZM150.935 -82.8191C150.459 -83.1394 149.974 -83.4584 149.492 -83.7677L149.647 -84.0106C150.132 -83.7002 150.619 -83.3805 151.096 -83.0586L150.935 -82.8191ZM67.8189 -83.7556L67.6631 -83.9985C68.1449 -84.3072 68.6377 -84.6153 69.1287 -84.9148L69.2787 -84.6684C68.79 -84.3701 68.299 -84.0631 67.8189 -83.7556ZM148.027 -84.6822C147.537 -84.9805 147.037 -85.2771 146.542 -85.5639L146.686 -85.8137C147.184 -85.5258 147.685 -85.2281 148.177 -84.9286L148.027 -84.6822ZM70.7587 -85.5477L70.6145 -85.7976C71.1089 -86.0837 71.615 -86.3694 72.1192 -86.6457L72.2583 -86.393C71.7552 -86.1172 71.2509 -85.8328 70.7587 -85.5477ZM145.036 -86.4121C144.533 -86.6873 144.02 -86.9614 143.511 -87.2256L143.643 -87.4818C144.155 -87.2164 144.67 -86.9417 145.174 -86.6654L145.036 -86.4121ZM73.7752 -87.2031L73.6425 -87.4593C74.1503 -87.7236 74.669 -87.9849 75.1837 -88.2377L75.3106 -87.9786C74.7976 -87.727 74.2812 -87.4662 73.7752 -87.2031ZM141.967 -88.004C141.451 -88.2573 140.926 -88.5071 140.406 -88.7471L140.528 -89.0091C141.049 -88.7685 141.577 -88.5175 142.095 -88.2631L141.967 -88.004ZM76.8621 -88.7189L76.741 -88.9808C77.2614 -89.222 77.7911 -89.4597 78.315 -89.6882L78.4304 -89.424C77.9082 -89.196 77.3808 -88.9595 76.8621 -88.7189ZM138.828 -89.454C138.302 -89.683 137.765 -89.9086 137.234 -90.125L137.343 -90.3922C137.876 -90.1752 138.415 -89.9484 138.944 -89.7188L138.828 -89.454ZM80.0137 -90.0921L79.9046 -90.3593C80.4366 -90.5768 80.9778 -90.7909 81.515 -90.9963L81.6177 -90.7268C81.0828 -90.522 80.5433 -90.3085 80.0137 -90.0921ZM135.624 -90.7591C135.088 -90.9634 134.542 -91.1642 134 -91.3563L134.096 -91.6281C134.64 -91.4354 135.189 -91.2334 135.727 -91.0286L135.624 -90.7591ZM83.2356 -91.3234L83.1387 -91.5952C83.6805 -91.7885 84.2315 -91.9772 84.7762 -92.1572L84.8668 -91.8831C84.3244 -91.7042 83.7757 -91.5156 83.2356 -91.3234ZM132.362 -91.9166C131.817 -92.096 131.261 -92.272 130.711 -92.4387L130.795 -92.7151C131.347 -92.5472 131.904 -92.3712 132.452 -92.1912L132.362 -91.9166ZM86.5112 -92.4059L86.4269 -92.6817C86.9768 -92.8496 87.5359 -93.0129 88.0887 -93.1681L88.1666 -92.8905C87.6156 -92.7359 87.0588 -92.5732 86.5112 -92.4059ZM129.055 -92.9205C128.504 -93.074 127.943 -93.2235 127.388 -93.3648L127.459 -93.6447C128.016 -93.5033 128.579 -93.3533 129.133 -93.1992L129.055 -92.9205ZM89.8324 -93.3371L89.7608 -93.6164C90.3182 -93.7589 90.8842 -93.8968 91.4427 -94.0261L91.5079 -93.7451C90.9517 -93.6164 90.388 -93.4791 89.8324 -93.3371ZM125.712 -93.7705C125.157 -93.898 124.59 -94.022 124.027 -94.138L124.085 -94.4207C124.65 -94.3042 125.219 -94.1801 125.777 -94.052L125.712 -93.7705ZM93.1928 -94.1149L93.1339 -94.3976C93.6976 -94.5142 94.2689 -94.6261 94.8332 -94.73L94.8851 -94.4461C94.3237 -94.3428 93.7542 -94.2315 93.1928 -94.1149ZM122.333 -94.4657C121.771 -94.5684 121.198 -94.6659 120.633 -94.7554L120.678 -95.0404C121.246 -94.9504 121.82 -94.8523 122.385 -94.7496L122.333 -94.4657ZM96.5855 -94.7381L96.5399 -95.0231C97.1077 -95.1143 97.6841 -95.1997 98.2524 -95.2776L98.2916 -94.9919C97.725 -94.9141 97.1509 -94.8287 96.5855 -94.7381ZM118.927 -95.0064C118.361 -95.0831 117.785 -95.1541 117.215 -95.2181L117.247 -95.5049C117.819 -95.4408 118.397 -95.3687 118.965 -95.292L118.927 -95.0064ZM100.002 -95.206L99.9696 -95.4928C100.541 -95.558 101.12 -95.6168 101.692 -95.6688L101.718 -95.3814C101.149 -95.3301 100.572 -95.2706 100.002 -95.206ZM115.499 -95.3918C114.93 -95.4426 114.352 -95.4876 113.78 -95.5257L113.799 -95.8136C114.374 -95.7755 114.955 -95.7299 115.525 -95.6791L115.499 -95.3918ZM103.438 -95.5182L103.418 -95.8061C103.99 -95.8453 104.572 -95.8782 105.147 -95.9042L105.16 -95.6157C104.587 -95.5897 104.007 -95.5568 103.438 -95.5182ZM112.058 -95.6209C111.484 -95.6463 110.904 -95.6653 110.334 -95.6774L110.34 -95.9659C110.912 -95.9538 111.494 -95.9342 112.07 -95.9094L112.058 -95.6209ZM106.884 -95.6751L106.877 -95.9636C107.45 -95.9769 108.033 -95.9838 108.609 -95.9844L108.609 -95.6959C108.035 -95.6953 107.455 -95.6884 106.884 -95.6751Z" fill="#EA2CEA"/>
</g>
<g id="Group_5">
<path id="Vector_4" d="M108.726 37.4029H108.667C108.089 37.4029 107.505 37.3942 106.933 37.3775L106.942 37.089C107.511 37.1057 108.092 37.1144 108.667 37.1144H108.726V37.4029ZM110.457 37.3752L110.448 37.0873C111.02 37.0694 111.598 37.0434 112.167 37.0094L112.184 37.2973C111.613 37.3313 111.032 37.3579 110.457 37.3752ZM105.201 37.3002C104.626 37.2661 104.044 37.2229 103.472 37.1721L103.498 36.8847C104.067 36.9355 104.645 36.9788 105.218 37.0123L105.201 37.3002ZM113.909 37.168L113.883 36.8807C114.455 36.8294 115.031 36.7682 115.595 36.7007L115.629 36.9874C115.062 37.055 114.484 37.1161 113.909 37.168ZM101.748 36.9921C101.177 36.924 100.599 36.8461 100.03 36.7607L100.073 36.4751C100.639 36.5605 101.214 36.6378 101.782 36.7053L101.748 36.9921ZM117.344 36.7543L117.3 36.4693C117.865 36.3839 118.436 36.2887 118.999 36.1866L119.05 36.4705C118.485 36.5732 117.911 36.669 117.344 36.7543ZM98.3202 36.4774C97.7548 36.3753 97.183 36.2622 96.6198 36.1422L96.6798 35.86C97.2401 35.9794 97.809 36.0914 98.3716 36.1935L98.3202 36.4774ZM120.748 36.1347L120.688 35.8525C121.249 35.7325 121.814 35.6032 122.366 35.4676L122.435 35.7475C121.879 35.8842 121.312 36.0146 120.748 36.1347ZM94.931 35.7561C94.373 35.6194 93.8093 35.4723 93.2548 35.3188L93.3316 35.0407C93.8832 35.1936 94.4446 35.3401 94.9996 35.4757L94.931 35.7561ZM124.11 35.3096L124.032 35.0314C124.584 34.878 125.14 34.7147 125.684 34.545L125.77 34.8208C125.223 34.991 124.664 35.1555 124.11 35.3096ZM91.5925 34.8301C91.0426 34.6593 90.4887 34.4781 89.9463 34.2912L90.0404 34.0182C90.5799 34.204 91.1315 34.3846 91.6785 34.5543L91.5925 34.8301ZM127.415 34.2813L127.32 34.0084C127.86 33.8221 128.405 33.6247 128.94 33.4216L129.042 33.6911C128.505 33.8959 127.957 34.0944 127.415 34.2813ZM88.3175 33.702C87.778 33.4978 87.2362 33.2826 86.7077 33.0633L86.8184 32.7967C87.3447 33.0148 87.883 33.2283 88.4202 33.432L88.3175 33.702ZM130.652 33.0529L130.541 32.7864C131.069 32.5677 131.601 32.3369 132.122 32.1015L132.241 32.3646C131.717 32.6012 131.182 32.8325 130.652 33.0529ZM85.1186 32.3767C84.593 32.1395 84.0656 31.892 83.5509 31.641L83.6773 31.382C84.1891 31.6318 84.7136 31.8782 85.2369 32.1136L85.1186 32.3767ZM133.809 31.6278L133.682 31.3687C134.198 31.1165 134.715 30.854 135.218 30.5886L135.353 30.8436C134.847 31.1102 134.327 31.3739 133.809 31.6278ZM82.0069 30.8575C81.4997 30.5903 80.9885 30.3111 80.4877 30.0277L80.6296 29.7768C81.1276 30.0589 81.6365 30.3364 82.1408 30.6024L82.0069 30.8575ZM136.873 30.0116L136.73 29.7606C137.227 29.479 137.728 29.1848 138.216 28.8876L138.366 29.134C137.875 29.4335 137.373 29.7283 136.873 30.0116ZM78.995 29.1525C78.5034 28.8541 78.0106 28.5443 77.5294 28.2321L77.6864 27.9904C78.1647 28.3014 78.6557 28.6095 79.1444 28.9067L78.995 29.1525ZM139.833 28.212L139.676 27.9702C140.156 27.6581 140.637 27.3343 141.107 27.0083L141.272 27.2455C140.8 27.5732 140.316 27.8986 139.833 28.212ZM76.0927 27.2674C75.6213 26.9403 75.1476 26.6016 74.686 26.26L74.8574 26.028C75.3167 26.3679 75.7881 26.7049 76.2572 27.0303L76.0927 27.2674ZM142.68 26.2358L142.508 26.0038C142.971 25.6611 143.432 25.3085 143.878 24.9571L144.057 25.1839C143.608 25.537 143.145 25.8907 142.68 26.2358ZM73.3105 25.211C72.8587 24.8556 72.4069 24.4892 71.9672 24.1211L72.1524 23.9001C72.5898 24.2659 73.0399 24.6311 73.4888 24.9843L73.3105 25.211ZM145.403 24.0905L145.218 23.8695C145.658 23.5002 146.098 23.1211 146.523 22.7421L146.715 22.9579C146.287 23.3381 145.845 23.7195 145.403 24.0905ZM70.6569 22.9925C70.2282 22.6117 69.7989 22.2193 69.3811 21.8252L69.579 21.6152C69.9951 22.0076 70.422 22.3982 70.8484 22.7767L70.6569 22.9925ZM147.993 21.7854L147.795 21.576C148.2 21.1928 148.604 20.8005 148.995 20.4093L149.032 20.3729L149.236 20.5772L149.199 20.6141C148.807 21.0065 148.401 21.4005 147.993 21.7854ZM68.2404 20.5172L68.1354 20.6164C67.7275 20.2091 67.323 19.7925 66.9301 19.3753L67.1401 19.1774C67.5313 19.5923 67.934 20.0071 68.3368 20.4099L68.2404 20.5172ZM150.441 19.3332L150.231 19.1353C150.622 18.7204 151.012 18.2929 151.392 17.8647L151.608 18.0557C151.226 18.4867 150.834 18.916 150.441 19.3332ZM65.7599 18.0961C65.3774 17.6657 64.9971 17.2243 64.6279 16.7829L64.8489 16.5977C65.2158 17.0368 65.5949 17.4758 65.9751 17.904L65.7599 18.0961ZM152.736 16.7454L152.514 16.5607C152.882 16.1205 153.246 15.6704 153.597 15.2233L153.824 15.4016C153.472 15.851 153.105 16.3034 152.736 16.7454ZM63.5362 15.4368C63.1796 14.9832 62.8259 14.5193 62.4855 14.0583L62.7174 13.8869C63.0561 14.3456 63.4081 14.8067 63.763 15.2585L63.5362 15.4368ZM154.872 14.0248L154.641 13.8535C154.979 13.3948 155.316 12.9234 155.642 12.4531L155.879 12.6176C155.551 13.0907 155.213 13.5638 154.872 14.0248ZM61.4763 12.6493C61.1486 12.1767 60.8238 11.6926 60.5104 11.2103L60.7522 11.0533C61.0638 11.5328 61.3869 12.0146 61.7129 12.4849L61.4763 12.6493ZM156.842 11.1797L156.6 11.0228C156.91 10.5444 157.218 10.054 157.515 9.56411L157.762 9.71355C157.463 10.2063 157.153 10.6996 156.842 11.1797ZM59.589 9.74299C59.2907 9.2514 58.9958 8.74825 58.7125 8.248L58.9635 8.10606C59.2451 8.60342 59.5382 9.10368 59.8354 9.59297L59.589 9.74299ZM158.636 8.22031L158.385 8.07836C158.665 7.58215 158.943 7.07323 159.209 6.56606L159.464 6.69992C159.196 7.2094 158.918 7.72121 158.636 8.22031ZM57.8828 6.72762C57.6151 6.21928 57.352 5.69941 57.0998 5.18243L57.3589 5.05607C57.6099 5.57017 57.8718 6.08773 58.1378 6.59318L57.8828 6.72762ZM160.247 5.15531L159.987 5.02895C160.238 4.51427 160.484 3.98978 160.718 3.46934L160.981 3.58763C160.746 4.11096 160.498 4.63832 160.247 5.15531ZM56.3642 3.61475C56.1282 3.09142 55.8974 2.55654 55.677 2.02513L55.9435 1.91492C56.1628 2.44402 56.3924 2.97601 56.6273 3.49645L56.3642 3.61475ZM161.667 1.99801L161.4 1.8878C161.618 1.36043 161.832 0.82151 162.034 0.285484L162.304 0.387611C162.1 0.925949 161.886 1.46833 161.667 1.99801ZM55.0388 0.415314C54.8351 -0.122444 54.6372 -0.670006 54.4503 -1.21296L54.7232 -1.30701C54.909 -0.766937 55.1057 -0.221687 55.3088 0.313187L55.0388 0.415314ZM162.892 -1.24181L162.619 -1.33586C162.804 -1.87535 162.984 -2.42638 163.154 -2.97394L163.429 -2.88856C163.259 -2.3381 163.078 -1.78419 162.892 -1.24181ZM53.9125 -2.85855C53.7429 -3.40554 53.579 -3.96407 53.425 -4.51913L53.7031 -4.59645C53.8566 -4.04369 54.0198 -3.48804 54.1883 -2.94394L53.9125 -2.85855ZM163.916 -4.55029L163.638 -4.62704C163.791 -5.17922 163.937 -5.74063 164.072 -6.29512L164.352 -6.22645C164.217 -5.66965 164.07 -5.10535 163.916 -4.55029ZM52.9882 -6.19414C52.8514 -6.75324 52.7216 -7.32101 52.6028 -7.88127L52.8849 -7.94128C53.0038 -7.38332 53.1324 -6.81845 53.2686 -6.26281L52.9882 -6.19414ZM164.737 -7.91705L164.455 -7.97706C164.573 -8.53271 164.685 -9.10218 164.788 -9.66879L165.071 -9.61745C164.969 -9.04795 164.856 -8.47558 164.737 -7.91705ZM52.2681 -9.57935C52.166 -10.1442 52.0708 -10.7183 51.9854 -11.2861L52.2704 -11.3288C52.3552 -10.7639 52.4498 -10.1927 52.552 -9.63072L52.2681 -9.57935ZM165.354 -11.3271L165.068 -11.3698C165.153 -11.9364 165.23 -12.5116 165.297 -13.0794L165.584 -13.0454C165.516 -12.4747 165.438 -11.8966 165.354 -11.3271ZM51.7546 -13.0004C51.6865 -13.5693 51.6259 -14.1486 51.5751 -14.7209L51.8625 -14.7463C51.9132 -14.1763 51.9732 -13.6004 52.0413 -13.0344L51.7546 -13.0004ZM165.762 -14.7694L165.475 -14.7948C165.525 -15.3643 165.568 -15.943 165.601 -16.5154L165.889 -16.4987C165.856 -15.9234 165.813 -15.3412 165.762 -14.7694ZM51.4465 -16.4456C51.4124 -17.0174 51.3864 -17.5984 51.3697 -18.1731L51.6582 -18.1818C51.6749 -17.61 51.7009 -17.0318 51.7349 -16.4629L51.4465 -16.4456ZM165.965 -18.2302L165.676 -18.2389C165.692 -18.7939 165.7 -19.3594 165.7 -19.9197V-19.9641H165.989V-19.9185C165.989 -19.3565 165.981 -18.7882 165.965 -18.2302ZM51.6322 -19.9047H51.3438V-19.9197C51.3438 -20.4897 51.3524 -21.0679 51.3691 -21.6385L51.6576 -21.6299C51.6409 -21.0621 51.6328 -20.4868 51.6328 -19.9197V-19.9047H51.6322ZM165.674 -21.687C165.656 -22.2588 165.631 -22.8375 165.596 -23.4058L165.884 -23.4232C165.919 -22.8514 165.945 -22.2703 165.962 -21.6956L165.674 -21.687ZM51.7332 -23.3539L51.4453 -23.3707C51.4793 -23.9442 51.522 -24.5264 51.5728 -25.0993L51.8602 -25.0739C51.81 -24.5033 51.7667 -23.9246 51.7332 -23.3539ZM165.468 -25.1224C165.416 -25.6936 165.356 -26.27 165.288 -26.8343L165.575 -26.869C165.643 -26.3018 165.703 -25.723 165.755 -25.1484L165.468 -25.1224ZM52.039 -26.7893L51.7528 -26.8234C51.8209 -27.394 51.8988 -27.9722 51.9842 -28.5411L52.2692 -28.4984C52.1839 -27.9324 52.1065 -27.3571 52.039 -26.7893ZM165.058 -28.5394C164.972 -29.1083 164.877 -29.6795 164.775 -30.2374L165.059 -30.2888C165.161 -29.728 165.257 -29.1539 165.343 -28.5821L165.058 -28.5394ZM52.5502 -30.1999L52.2664 -30.2513C52.3691 -30.8173 52.4816 -31.3891 52.601 -31.9517L52.8832 -31.8917C52.7643 -31.332 52.6524 -30.7631 52.5502 -30.1999ZM164.442 -31.9269C164.322 -32.4883 164.193 -33.0526 164.057 -33.6054L164.337 -33.674C164.474 -33.1189 164.603 -32.5512 164.724 -31.9869L164.442 -31.9269ZM53.2669 -33.5725L52.9864 -33.6411C53.1226 -34.1991 53.2698 -34.7634 53.4232 -35.3179L53.7013 -35.2411C53.549 -34.6884 53.403 -34.1275 53.2669 -33.5725ZM163.622 -35.2717C163.469 -35.8233 163.305 -36.379 163.136 -36.9236L163.412 -37.009C163.582 -36.4615 163.747 -35.9029 163.901 -35.3485L163.622 -35.2717ZM54.1878 -36.8942L53.9119 -36.9796C54.0822 -37.5283 54.2633 -38.0822 54.4503 -38.6258L54.7232 -38.5317C54.5368 -37.9911 54.3568 -37.4401 54.1878 -36.8942ZM162.6 -38.5606C162.414 -39.1001 162.216 -39.6453 162.013 -40.1802L162.283 -40.2823C162.487 -39.7446 162.685 -39.1964 162.872 -38.654L162.6 -38.5606ZM55.3088 -40.1525L55.0394 -40.2546C55.2431 -40.793 55.4577 -41.3348 55.6775 -41.8644L55.9441 -41.7542C55.7254 -41.2269 55.5114 -40.688 55.3088 -40.1525ZM161.378 -41.7813C161.159 -42.3087 160.929 -42.8407 160.693 -43.3623L160.956 -43.4812C161.193 -42.9567 161.424 -42.4218 161.644 -41.8921L161.378 -41.7813ZM56.6273 -43.3358L56.3642 -43.4541C56.6002 -43.9774 56.8471 -44.5048 57.0993 -45.0217L57.3583 -44.8954C57.1079 -44.3807 56.8615 -43.8562 56.6273 -43.3358ZM159.961 -44.9225C159.711 -45.4354 159.448 -45.9524 159.181 -46.459L159.436 -46.5935C159.704 -46.084 159.968 -45.5647 160.22 -45.0489L159.961 -44.9225ZM58.1373 -46.4313L57.8822 -46.5658C58.1494 -47.0729 58.4287 -47.5842 58.712 -48.085L58.9629 -47.9431C58.6808 -47.4451 58.4027 -46.9362 58.1373 -46.4313ZM158.354 -47.9713C158.072 -48.4687 157.778 -48.9689 157.482 -49.4582L157.728 -49.6083C158.026 -49.1167 158.322 -48.6141 158.605 -48.1138L158.354 -47.9713ZM59.833 -49.4288L59.5861 -49.5783C59.8838 -50.0687 60.1931 -50.562 60.5064 -51.0438L60.7482 -50.8869C60.4372 -50.4074 60.129 -49.917 59.833 -49.4288ZM156.564 -50.9175C156.253 -51.3969 155.929 -51.8787 155.603 -52.3484L155.84 -52.5128C156.168 -52.0403 156.493 -51.5568 156.807 -51.0744L156.564 -50.9175ZM61.7077 -52.3167L61.4706 -52.4811C61.7971 -52.9525 62.1358 -53.4256 62.4774 -53.8878L62.7094 -53.7164C62.3701 -53.2572 62.0331 -52.7858 61.7077 -52.3167ZM154.598 -53.7505C154.259 -54.2092 153.907 -54.6702 153.552 -55.1214L153.779 -55.2997C154.135 -54.8468 154.489 -54.3829 154.83 -53.9219L154.598 -53.7505ZM63.7531 -55.0857L63.5264 -55.2639C63.8812 -55.7151 64.2476 -56.1669 64.6157 -56.6078L64.8367 -56.4226C64.4709 -55.9846 64.1063 -55.5346 63.7531 -55.0857ZM152.465 -56.4601C152.098 -56.8974 151.719 -57.3371 151.338 -57.7664L151.554 -57.9579C151.937 -57.5269 152.318 -57.0849 152.686 -56.6453L152.465 -56.4601ZM65.9601 -57.7266L65.7444 -57.9181C66.124 -58.3462 66.5169 -58.7755 66.9116 -59.1944L67.1216 -58.9965C66.7287 -58.5793 66.3381 -58.1524 65.9601 -57.7266ZM150.172 -59.0381C149.788 -59.4454 149.392 -59.8528 148.996 -60.2492L148.97 -60.2757L149.174 -60.48L149.201 -60.4528C149.598 -60.0553 149.996 -59.6456 150.382 -59.2365L150.172 -59.0381ZM68.3212 -60.233L68.1169 -60.4373L68.1325 -60.4528C68.5335 -60.8539 68.9467 -61.2554 69.3604 -61.6455L69.5583 -61.4355C69.1469 -61.0471 68.7361 -60.6479 68.3368 -60.2486L68.3212 -60.233ZM147.732 -61.4747C147.317 -61.8665 146.889 -62.2565 146.462 -62.6356L146.654 -62.8514C147.083 -62.4706 147.512 -62.0782 147.93 -61.6847L147.732 -61.4747ZM70.8311 -62.601L70.6396 -62.8168C71.0711 -63.1999 71.5125 -63.5813 71.9522 -63.9488L72.1374 -63.7279C71.7001 -63.3615 71.2604 -62.9824 70.8311 -62.601ZM145.158 -63.7584C144.721 -64.1242 144.271 -64.4883 143.821 -64.842L143.999 -65.0688C144.451 -64.7134 144.903 -64.347 145.343 -63.98L145.158 -63.7584ZM73.4766 -64.8143L73.2983 -65.0411C73.7496 -65.3965 74.2135 -65.7502 74.6762 -66.0924L74.8476 -65.8604C74.3871 -65.52 73.9261 -65.168 73.4766 -64.8143ZM142.452 -65.8852C141.992 -66.2251 141.521 -66.562 141.051 -66.8869L141.216 -67.124C141.687 -66.7975 142.161 -66.4588 142.623 -66.1172L142.452 -65.8852ZM76.2497 -66.8644L76.0852 -67.1015C76.5572 -67.4287 77.0407 -67.7535 77.5237 -68.0674L77.6806 -67.8257C77.2006 -67.5135 76.7188 -67.1904 76.2497 -66.8644ZM139.621 -67.8453C139.142 -68.1563 138.651 -68.4638 138.163 -68.7604L138.312 -69.0073C138.804 -68.7096 139.297 -68.3998 139.778 -68.0876L139.621 -67.8453ZM79.1404 -68.7431L78.991 -68.9895C79.4826 -69.2878 79.9851 -69.5826 80.4854 -69.8659L80.6273 -69.6149C80.1299 -69.3333 79.6297 -69.0397 79.1404 -68.7431ZM136.677 -69.6311C136.179 -69.9126 135.67 -70.1902 135.165 -70.4556L135.3 -70.7112C135.807 -70.4441 136.319 -70.1654 136.82 -69.8821L136.677 -69.6311ZM82.1402 -70.4412L82.0058 -70.6962C82.5141 -70.9639 83.0334 -71.2276 83.5504 -71.4798L83.6767 -71.2207C83.1626 -70.9697 82.6456 -70.7072 82.1402 -70.4412ZM133.628 -71.234C133.115 -71.4844 132.59 -71.7302 132.069 -71.965L132.187 -72.2281C132.711 -71.9921 133.239 -71.7446 133.755 -71.4936L133.628 -71.234ZM85.2369 -71.9529L85.118 -72.216C85.6408 -72.4514 86.1757 -72.6828 86.7077 -72.9032L86.8179 -72.6366C86.2888 -72.4174 85.7568 -72.1872 85.2369 -71.9529ZM130.487 -72.6482C129.96 -72.8663 129.421 -73.0798 128.885 -73.2829L128.987 -73.5529C129.526 -73.3492 130.068 -73.1346 130.598 -72.9153L130.487 -72.6482ZM88.4196 -73.2719L88.3175 -73.5419C88.8552 -73.7456 89.4028 -73.9441 89.9458 -74.1305L90.0398 -73.8575C89.4997 -73.6718 88.9545 -73.475 88.4196 -73.2719ZM127.265 -73.8674C126.724 -74.0531 126.173 -74.2332 125.626 -74.4028L125.712 -74.6786C126.261 -74.5084 126.815 -74.3272 127.358 -74.1403L127.265 -73.8674ZM91.6767 -74.3936L91.5913 -74.6688C92.1377 -74.8384 92.6969 -75.0029 93.2519 -75.1569L93.3292 -74.8788C92.7765 -74.7259 92.2203 -74.5626 91.6767 -74.3936ZM123.973 -74.8881C123.421 -75.041 122.859 -75.1869 122.305 -75.3225L122.373 -75.6029C122.931 -75.4668 123.495 -75.3197 124.05 -75.1662L123.973 -74.8881ZM94.995 -75.3145L94.9264 -75.5949C95.4849 -75.7316 96.0527 -75.8614 96.6135 -75.9809L96.6735 -75.6987C96.1155 -75.5793 95.5507 -75.45 94.995 -75.3145ZM120.624 -75.7062C120.064 -75.8251 119.495 -75.9365 118.932 -76.0386L118.984 -76.3225C119.55 -76.2203 120.122 -76.1078 120.684 -75.9884L120.624 -75.7062ZM98.3629 -76.0317L98.3116 -76.3155C98.8765 -76.4182 99.4506 -76.5135 100.018 -76.5988L100.062 -76.3138C99.4961 -76.2284 98.9243 -76.1332 98.3629 -76.0317ZM117.231 -76.319C116.666 -76.4032 116.092 -76.4806 115.522 -76.5486L115.556 -76.8354C116.129 -76.7673 116.707 -76.6894 117.273 -76.6046L117.231 -76.319ZM101.767 -76.5434L101.732 -76.8302C102.301 -76.8983 102.88 -76.9589 103.453 -77.0102L103.479 -76.7229C102.909 -76.6715 102.333 -76.6115 101.767 -76.5434ZM113.806 -76.7269C113.236 -76.7777 112.657 -76.8198 112.086 -76.8539L112.102 -77.1418C112.676 -77.1083 113.257 -77.065 113.831 -77.0143L113.806 -76.7269ZM105.195 -76.851L105.177 -77.1389C105.751 -77.1729 106.332 -77.1995 106.905 -77.2162L106.913 -76.9277C106.344 -76.9104 105.766 -76.8845 105.195 -76.851ZM110.362 -76.9295C109.8 -76.9456 109.229 -76.9537 108.667 -76.9537H108.637V-77.2422H108.667C109.232 -77.2422 109.805 -77.2341 110.371 -77.2174L110.362 -76.9295Z" fill="#EA2CEA"/>
</g>
</g>
</svg>
