<svg width="31" height="31" viewBox="0 0 31 31" fill="none" xmlns="http://www.w3.org/2000/svg">
<g id="gemstone 1">
<path id="Vector" d="M28.0367 10.3701C27.7717 9.78439 27.4647 9.21774 27.1145 8.67895C26.9309 8.39641 26.7352 8.12154 26.5275 7.85622C25.6534 6.73971 24.6436 5.69959 23.4654 4.90319C21.6985 3.70913 19.6751 2.88546 17.553 2.61645C16.97 2.54252 16.3745 2.50488 15.7867 2.50488C14.2605 2.50488 12.7396 2.76348 11.3008 3.27318C9.93425 3.7573 8.64572 4.45618 7.51142 5.35741C6.43103 6.21579 5.4557 7.20604 4.68325 8.35275C3.50382 10.1035 2.6966 12.1186 2.43338 14.2183C2.36098 14.7957 2.32422 15.3853 2.32422 15.9674C2.32422 17.5133 2.58949 19.0547 3.11253 20.5097C3.59783 21.8596 4.29319 23.1528 5.1943 24.2688C5.89838 25.1409 6.68166 25.9568 7.57095 26.642C8.47287 27.337 9.4904 27.9303 10.5399 28.3695C11.599 28.8127 12.7179 29.1375 13.8565 29.2926C15.8538 29.5645 17.8732 29.4147 19.8008 28.8198C21.2574 28.3701 22.6799 27.6593 23.8808 26.721C25.0017 25.8451 26.0475 24.8344 26.8469 23.6524C28.0412 21.8862 28.8665 19.864 29.1362 17.7424C29.3853 15.781 29.2196 13.7736 28.6187 11.8884C28.4541 11.3722 28.2603 10.8644 28.0367 10.3701ZM28.6413 15.1979L25.442 11.7525L25.4379 11.5694C26.2132 11.5254 26.9612 11.3025 27.6316 10.9162C28.2159 12.2825 28.5544 13.7184 28.6413 15.1979ZM27.388 10.3804C26.7904 10.7351 26.1204 10.941 25.4249 10.9837L25.3439 7.3406C26.1612 8.24569 26.8512 9.26755 27.388 10.3804ZM24.8579 11.8131L23.4446 15.111L22.0607 10.498C22.8371 11.1154 23.8011 11.5059 24.8525 11.5685L24.8579 11.8131ZM15.7867 23.2711L10.1685 21.5856L8.48306 15.9674L10.1685 10.3492L15.7867 8.66379L21.4049 10.3492L23.0904 15.9674L21.4049 21.5856L15.7867 23.2711ZM21.2561 22.2413C20.638 23.0185 20.2474 23.984 20.1853 25.0364L19.9424 25.0393L16.6431 23.6253L21.2561 22.2413ZM14.9303 23.6253L11.6313 25.0391L11.388 25.0356C11.3258 23.9833 10.9352 23.0184 10.3173 22.2413L14.9303 23.6253ZM10.3173 9.69344C10.936 8.91542 11.3268 7.94864 11.3883 6.89482H11.6294L14.9303 8.30949L10.3173 9.69344ZM16.6431 8.30955L19.9441 6.89488H20.1852C20.2466 7.9487 20.6374 8.91548 21.2561 9.69349L16.6431 8.30955ZM24.8394 10.9812C22.6607 10.8272 20.9159 9.07615 20.7716 6.89488H24.7486L24.8394 10.9812ZM24.3006 6.30955H20.7715C20.8169 5.62104 21.0222 4.95816 21.3736 4.36627C22.4405 4.88078 23.4238 5.53628 24.3006 6.30955ZM20.838 4.12266C20.4527 4.79093 20.23 5.53652 20.1851 6.3095H19.9989L16.5562 3.11274C18.036 3.19972 19.4718 3.53816 20.838 4.12266ZM19.355 6.51044L15.7867 8.03972L12.2183 6.51044L15.7867 3.19697L19.355 6.51044ZM15.0171 3.11274L11.5745 6.3095H11.3883C11.3433 5.53652 11.1206 4.79087 10.7354 4.12266C12.1015 3.53816 13.5373 3.19972 15.0171 3.11274ZM10.1998 4.36622C10.5511 4.9581 10.7564 5.62104 10.8018 6.3095H7.27273C8.1496 5.53628 9.13294 4.88078 10.1998 4.36622ZM6.85246 6.89488H10.8018C10.6575 9.0744 8.9152 10.8244 6.73897 10.9808L6.85246 6.89488ZM6.72264 11.5685C7.77318 11.5054 8.7368 11.115 9.5127 10.498L8.12882 15.111L6.71579 11.814L6.72264 11.5685ZM6.25531 7.31204L6.15329 10.9841C5.45605 10.942 4.78434 10.736 4.18526 10.3804C4.72768 9.25602 5.42691 8.22398 6.25531 7.31204ZM3.94182 10.9161C4.6126 11.3027 5.36123 11.5257 6.13708 11.5695L6.13205 11.7518L2.93208 15.1979C3.01906 13.7184 3.35749 12.2825 3.94182 10.9161ZM2.93208 16.7369L6.13047 20.1813L6.13304 20.3655C5.35866 20.41 4.61143 20.6328 3.94182 21.0187C3.35749 19.6522 3.01906 18.2163 2.93208 16.7369ZM4.18532 21.5543C4.78094 21.2009 5.44839 20.9952 6.14129 20.9515L6.19204 24.5525C5.39114 23.6578 4.7138 22.6501 4.18532 21.5543ZM3.01625 15.9674L6.32971 12.399L7.85899 15.9674L6.32971 19.5358L3.01625 15.9674ZM6.71503 20.1228L8.12888 16.8239L9.51276 21.4369C8.73574 20.8189 7.77072 20.4284 6.71848 20.3661L6.71503 20.1228ZM6.72668 20.9532C8.90473 21.1033 10.6507 22.8493 10.8009 25.0274L6.78322 24.9708L6.72668 20.9532ZM7.20161 25.5621L10.8026 25.6128C10.7589 26.3056 10.5532 26.9729 10.1998 27.5686C9.10409 27.0401 8.09622 26.3627 7.20161 25.5621ZM10.7354 27.8121C11.1213 27.1425 11.3441 26.3954 11.3885 25.621L11.5728 25.6236L15.0171 28.822C13.5373 28.7351 12.1015 28.3966 10.7354 27.8121ZM12.2183 25.4243L15.7867 23.895L19.355 25.4243L15.7867 28.7378L12.2183 25.4243ZM16.5561 28.822L20.0002 25.6239L20.1849 25.6218C20.2293 26.396 20.4521 27.1427 20.8379 27.8121C19.4718 28.3966 18.036 28.7351 16.5561 28.822ZM21.3736 27.5686C21.0205 26.9736 20.8149 26.3071 20.7709 25.6152L24.3582 25.5742C23.4669 26.3696 22.4639 27.0426 21.3736 27.5686ZM24.7209 24.9846L20.7723 25.0298C20.9212 22.8549 22.6612 21.1101 24.8342 20.954L24.7209 24.9846ZM24.8507 20.3664C23.8001 20.4294 22.8366 20.8198 22.0607 21.4368L23.4446 16.8238L24.8576 20.1208L24.8507 20.3664ZM25.2436 19.5358L23.7143 15.9674L25.2436 12.399L28.557 15.9674L25.2436 19.5358ZM25.3165 24.6244L25.4198 20.9507C26.1171 20.9927 26.7889 21.1987 27.388 21.5543C26.8453 22.6795 26.1457 23.712 25.3165 24.6244ZM27.6315 21.0187C26.9608 20.6321 26.2121 20.4092 25.4362 20.3653L25.4413 20.183L28.6413 16.7369C28.5544 18.2163 28.2159 19.6522 27.6315 21.0187Z" fill="#9E1256"/>
</g>
</svg>
