<svg width="24" height="25" viewBox="0 0 24 25" fill="none" xmlns="http://www.w3.org/2000/svg">
<g id="fi_2556165">
<path id="Vector" d="M4.5764 13.4877L7.36115 10.7029C8.42641 11.5008 9.75437 11.8655 11.0777 11.7236C12.401 11.5817 13.6215 10.9437 14.4933 9.93812C15.3652 8.93254 15.8238 7.63401 15.7767 6.30392C15.7296 4.97383 15.1804 3.71096 14.2397 2.76953C13.2989 1.82809 12.0364 1.278 10.7064 1.22999C9.37631 1.18198 8.07745 1.63962 7.07126 2.51078C6.06506 3.38194 5.42624 4.60193 5.2834 5.92516C5.14056 7.24839 5.5043 8.57661 6.3014 9.64243L3.5159 12.4279L2.4554 11.3667C2.31467 11.226 2.12384 11.1471 1.92489 11.1472C1.72594 11.1472 1.53516 11.2263 1.39453 11.3671C1.2539 11.5078 1.17493 11.6986 1.175 11.8976C1.17507 12.0965 1.25417 12.2873 1.3949 12.4279L2.4554 13.4892L0.971154 14.9727C0.899521 15.0419 0.842384 15.1246 0.803078 15.2161C0.763771 15.3076 0.743081 15.406 0.742216 15.5056C0.74135 15.6052 0.760327 15.704 0.798037 15.7961C0.835748 15.8883 0.891438 15.9721 0.961857 16.0425C1.03228 16.1129 1.11602 16.1686 1.20819 16.2063C1.30036 16.244 1.39912 16.263 1.4987 16.2621C1.59829 16.2613 1.6967 16.2406 1.78821 16.2013C1.87971 16.1619 1.96247 16.1048 2.03165 16.0332L3.5159 14.5489L4.5764 15.6094C4.64559 15.6811 4.72835 15.7382 4.81985 15.7775C4.91135 15.8168 5.00977 15.8375 5.10935 15.8384C5.20894 15.8392 5.3077 15.8203 5.39987 15.7825C5.49204 15.7448 5.57578 15.6891 5.6462 15.6187C5.71662 15.5483 5.77231 15.4646 5.81002 15.3724C5.84773 15.2802 5.86671 15.1815 5.86584 15.0819C5.86498 14.9823 5.84429 14.8839 5.80498 14.7924C5.76567 14.7009 5.70854 14.6181 5.6369 14.5489L4.5764 13.4877ZM10.5014 2.75293C11.2431 2.75293 11.9681 2.97286 12.5848 3.38492C13.2015 3.79697 13.6821 4.38264 13.966 5.06787C14.2498 5.75309 14.324 6.50709 14.1793 7.23452C14.0347 7.96195 13.6775 8.63013 13.1531 9.15458C12.6286 9.67903 11.9604 10.0362 11.233 10.1809C10.5056 10.3256 9.75156 10.2513 9.06634 9.96748C8.38112 9.68365 7.79545 9.203 7.38339 8.58632C6.97134 7.96963 6.7514 7.24461 6.7514 6.50293C6.7514 5.50837 7.14649 4.55454 7.84975 3.85128C8.55301 3.14802 9.50684 2.75293 10.5014 2.75293Z" fill="#828282"/>
<path id="Vector_2" d="M22.4964 8.75H18.7464C18.5475 8.75 18.3567 8.82902 18.2161 8.96967C18.0754 9.11032 17.9964 9.30109 17.9964 9.5C17.9964 9.69891 18.0754 9.88968 18.2161 10.0303C18.3567 10.171 18.5475 10.25 18.7464 10.25H20.6859L16.6359 14.3C15.5703 13.5026 14.2423 13.1384 12.919 13.2809C11.5957 13.4233 10.3756 14.0617 9.5041 15.0676C8.63262 16.0735 8.17456 17.3722 8.22211 18.7022C8.26967 20.0323 8.81931 21.2949 9.7604 22.236C10.7015 23.1771 11.9641 23.7267 13.2942 23.7743C14.6242 23.8218 15.9229 23.3638 16.9288 22.4923C17.9347 21.6208 18.5731 20.4007 18.7155 19.0774C18.8579 17.7541 18.4938 16.4261 17.6964 15.3605L21.7464 11.3105V13.25C21.7464 13.4489 21.8254 13.6397 21.9661 13.7803C22.1067 13.921 22.2975 14 22.4964 14C22.6953 14 22.8861 13.921 23.0267 13.7803C23.1674 13.6397 23.2464 13.4489 23.2464 13.25V9.5C23.2464 9.30109 23.1674 9.11032 23.0267 8.96967C22.8861 8.82902 22.6953 8.75 22.4964 8.75ZM13.4964 22.25C12.7547 22.25 12.0297 22.0301 11.413 21.618C10.7963 21.206 10.3157 20.6203 10.0318 19.9351C9.74802 19.2498 9.67375 18.4958 9.81845 17.7684C9.96314 17.041 10.3203 16.3728 10.8447 15.8483C11.3692 15.3239 12.0374 14.9667 12.7648 14.8221C13.4922 14.6774 14.2462 14.7516 14.9315 15.0355C15.6167 15.3193 16.2023 15.7999 16.6144 16.4166C17.0265 17.0333 17.2464 17.7583 17.2464 18.5C17.2464 18.9925 17.1494 19.4801 16.9609 19.9351C16.7725 20.39 16.4963 20.8034 16.148 21.1517C15.7998 21.4999 15.3864 21.7761 14.9315 21.9645C14.4765 22.153 13.9889 22.25 13.4964 22.25Z" fill="#828282"/>
</g>
</svg>
