<svg width="24" height="25" viewBox="0 0 24 25" fill="none" xmlns="http://www.w3.org/2000/svg">
<g id="fi_2556165">
<path id="Vector" d="M4.5764 13.4877L7.36115 10.7029C8.42641 11.5008 9.75437 11.8655 11.0777 11.7236C12.401 11.5817 13.6215 10.9437 14.4933 9.93812C15.3652 8.93254 15.8238 7.63401 15.7767 6.30392C15.7296 4.97383 15.1804 3.71096 14.2397 2.76953C13.2989 1.82809 12.0364 1.278 10.7064 1.22999C9.37631 1.18198 8.07745 1.63962 7.07126 2.51078C6.06506 3.38194 5.42624 4.60193 5.2834 5.92516C5.14056 7.24839 5.5043 8.57661 6.3014 9.64243L3.5159 12.4279L2.4554 11.3667C2.31467 11.226 2.12384 11.1471 1.92489 11.1472C1.72594 11.1472 1.53516 11.2263 1.39453 11.3671C1.2539 11.5078 1.17493 11.6986 1.175 11.8976C1.17507 12.0965 1.25417 12.2873 1.3949 12.4279L2.4554 13.4892L0.971154 14.9727C0.899521 15.0419 0.842384 15.1246 0.803078 15.2161C0.763771 15.3076 0.743081 15.406 0.742216 15.5056C0.74135 15.6052 0.760327 15.704 0.798037 15.7961C0.835748 15.8883 0.891438 15.9721 0.961857 16.0425C1.03228 16.1129 1.11602 16.1686 1.20819 16.2063C1.30036 16.244 1.39912 16.263 1.4987 16.2621C1.59829 16.2613 1.6967 16.2406 1.78821 16.2013C1.87971 16.1619 1.96247 16.1048 2.03165 16.0332L3.5159 14.5489L4.5764 15.6094C4.64559 15.6811 4.72835 15.7382 4.81985 15.7775C4.91135 15.8168 5.00977 15.8375 5.10935 15.8384C5.20894 15.8392 5.3077 15.8203 5.39987 15.7825C5.49204 15.7448 5.57578 15.6891 5.6462 15.6187C5.71662 15.5483 5.77231 15.4646 5.81002 15.3724C5.84773 15.2802 5.86671 15.1815 5.86584 15.0819C5.86498 14.9823 5.84429 14.8839 5.80498 14.7924C5.76567 14.7009 5.70854 14.6181 5.6369 14.5489L4.5764 13.4877ZM10.5014 2.75293C11.2431 2.75293 11.9681 2.97286 12.5848 3.38492C13.2015 3.79697 13.6821 4.38264 13.966 5.06787C14.2498 5.75309 14.324 6.50709 14.1793 7.23452C14.0347 7.96195 13.6775 8.63013 13.1531 9.15458C12.6286 9.67903 11.9604 10.0362 11.233 10.1809C10.5056 10.3256 9.75156 10.2513 9.06634 9.96748C8.38112 9.68365 7.79545 9.203 7.38339 8.58632C6.97134 7.96963 6.7514 7.24461 6.7514 6.50293C6.7514 5.50837 7.14649 4.55454 7.84975 3.85128C8.55301 3.14802 9.50684 2.75293 10.5014 2.75293Z" fill="#313131"/>
<path id="Vector_2" d="M22.5003 8.75H18.7503C18.5514 8.75 18.3606 8.82902 18.22 8.96967C18.0793 9.11032 18.0003 9.30109 18.0003 9.5C18.0003 9.69891 18.0793 9.88968 18.22 10.0303C18.3606 10.171 18.5514 10.25 18.7503 10.25H20.6898L16.6398 14.3C15.5742 13.5026 14.2462 13.1384 12.9229 13.2809C11.5997 13.4233 10.3795 14.0617 9.508 15.0676C8.63653 16.0735 8.17847 17.3722 8.22602 18.7022C8.27358 20.0323 8.82322 21.2949 9.7643 22.236C10.7054 23.1771 11.968 23.7267 13.2981 23.7743C14.6281 23.8218 15.9268 23.3638 16.9327 22.4923C17.9386 21.6208 18.577 20.4007 18.7194 19.0774C18.8619 17.7541 18.4977 16.4261 17.7003 15.3605L21.7503 11.3105V13.25C21.7503 13.4489 21.8293 13.6397 21.97 13.7803C22.1106 13.921 22.3014 14 22.5003 14C22.6992 14 22.89 13.921 23.0306 13.7803C23.1713 13.6397 23.2503 13.4489 23.2503 13.25V9.5C23.2503 9.30109 23.1713 9.11032 23.0306 8.96967C22.89 8.82902 22.6992 8.75 22.5003 8.75ZM13.5003 22.25C12.7586 22.25 12.0336 22.0301 11.4169 21.618C10.8002 21.206 10.3196 20.6203 10.0358 19.9351C9.75192 19.2498 9.67766 18.4958 9.82235 17.7684C9.96705 17.041 10.3242 16.3728 10.8486 15.8483C11.3731 15.3239 12.0413 14.9667 12.7687 14.8221C13.4961 14.6774 14.2501 14.7516 14.9354 15.0355C15.6206 15.3193 16.2063 15.7999 16.6183 16.4166C17.0304 17.0333 17.2503 17.7583 17.2503 18.5C17.2503 18.9925 17.1533 19.4801 16.9648 19.9351C16.7764 20.39 16.5002 20.8034 16.1519 21.1517C15.8037 21.4999 15.3903 21.7761 14.9354 21.9645C14.4804 22.153 13.9928 22.25 13.5003 22.25Z" fill="#313131"/>
</g>
</svg>
