<svg width="24" height="24" viewBox="0 0 24 24" fill="none" xmlns="http://www.w3.org/2000/svg">
<g id="Group">
<g id="Group_2">
<path id="Vector" fill-rule="evenodd" clip-rule="evenodd" d="M5.40044 12.0001C5.40044 11.2206 5.5299 10.4734 5.76095 9.77245L1.71667 6.68408C0.928459 8.28445 0.484375 10.0877 0.484375 12.0001C0.484375 13.9108 0.927913 15.713 1.71503 17.3123L5.75713 14.2179C5.52826 13.5203 5.40044 12.7757 5.40044 12.0001Z" fill="#FBBC05"/>
<path id="Vector_2" fill-rule="evenodd" clip-rule="evenodd" d="M12.4996 4.90909C14.1929 4.90909 15.7224 5.50909 16.9241 6.49091L20.4199 3C18.2896 1.14545 15.5585 0 12.4996 0C7.75068 0 3.66925 2.71582 1.71484 6.684L5.75913 9.77236C6.69099 6.94364 9.34731 4.90909 12.4996 4.90909Z" fill="#EB4335"/>
<path id="Vector_3" fill-rule="evenodd" clip-rule="evenodd" d="M12.4996 19.0908C9.34731 19.0908 6.69099 17.0563 5.75913 14.2275L1.71484 17.3154C3.66925 21.2841 7.75068 23.9999 12.4996 23.9999C15.4307 23.9999 18.229 22.9592 20.3292 21.0092L16.4903 18.0414C15.4072 18.7237 14.0432 19.0908 12.4996 19.0908Z" fill="#34A853"/>
<path id="Vector_4" fill-rule="evenodd" clip-rule="evenodd" d="M23.9708 12.0002C23.9708 11.2911 23.8616 10.5275 23.6977 9.81836H12.5V14.4547H18.9455C18.6232 16.0354 17.746 17.2507 16.4908 18.0416L20.3297 21.0094C22.5359 18.9618 23.9708 15.9116 23.9708 12.0002Z" fill="#4285F4"/>
</g>
</g>
</svg>
