<svg width="24" height="24" viewBox="0 0 24 24" fill="none" xmlns="http://www.w3.org/2000/svg">
<g id="Group">
<path id="Vector" d="M5.625 11.9997C5.625 10.8106 5.95261 9.69672 6.52177 8.74295V4.69727H2.47608C0.870375 6.78264 0 9.32416 0 11.9997C0 14.6752 0.870375 17.2167 2.47608 19.3021H6.52177V15.2564C5.95261 14.3027 5.625 13.1888 5.625 11.9997Z" fill="#FBBD00"/>
<path id="Vector_2" d="M12 18.3749L9.1875 21.1874L12 23.9999C14.6756 23.9999 17.217 23.1295 19.3024 21.5238V17.4824H15.261C14.2989 18.0536 13.1804 18.3749 12 18.3749Z" fill="#0F9D58"/>
<path id="Vector_3" d="M6.52176 15.2559L2.47607 19.3015C2.79398 19.7144 3.14015 20.1098 3.51473 20.4844C5.78123 22.7509 8.79468 23.9991 12 23.9991V18.3741C9.67387 18.3741 7.63514 17.1216 6.52176 15.2559Z" fill="#31AA52"/>
<path id="Vector_4" d="M24 12.0004C24 11.2704 23.9339 10.5389 23.8035 9.82652L23.698 9.25H12V14.875H17.6931C17.1402 15.9747 16.2902 16.872 15.261 17.483L19.3024 21.5244C19.7153 21.2065 20.1106 20.8603 20.4853 20.4857C22.7518 18.2192 24 15.2057 24 12.0004Z" fill="#3C79E6"/>
<path id="Vector_5" d="M16.5078 7.49217L17.005 7.98933L20.9825 4.01189L20.4853 3.51473C18.2188 1.24823 15.2054 0 12 0L9.1875 2.8125L12 5.625C13.7028 5.625 15.3037 6.28809 16.5078 7.49217Z" fill="#CF2D48"/>
<path id="Vector_6" d="M12 5.625V0C8.79473 0 5.78128 1.24823 3.51473 3.51469C3.14015 3.88927 2.79398 4.28466 2.47607 4.69758L6.52176 8.74327C7.63518 6.8775 9.67392 5.625 12 5.625Z" fill="#EB4132"/>
</g>
</svg>
