<svg width="76" height="77" viewBox="0 0 76 77" fill="none" xmlns="http://www.w3.org/2000/svg">
<g id="Group" opacity="0.2">
<path id="Vector" d="M37.9503 76.1445C35.3696 76.1445 32.7907 75.8834 30.2849 75.3687C29.6842 75.2452 29.2973 74.6583 29.4208 74.0577C29.5441 73.457 30.1309 73.0703 30.7318 73.1936C33.0909 73.6783 35.5195 73.9242 37.9504 73.9242C47.4798 73.9242 56.4389 70.2132 63.1771 63.4748C69.9155 56.7366 73.6263 47.7776 73.6263 38.2481C73.6263 33.2773 72.624 28.4678 70.6471 23.9529C68.7373 19.591 66.0126 15.7069 62.5487 12.4085C62.1046 11.9857 62.0875 11.2829 62.5104 10.8388C62.933 10.3945 63.636 10.3776 64.08 10.8003C67.7587 14.3032 70.6524 18.4287 72.6813 23.0623C74.7817 27.8596 75.8468 32.9689 75.8468 38.2481C75.8468 48.3707 71.905 57.8874 64.7472 65.0452C57.5894 72.203 48.0727 76.1445 37.9503 76.1445ZM26.2689 74.2513C26.1521 74.2513 26.0333 74.2328 25.9164 74.1936C18.4449 71.6933 12.0245 66.9951 7.349 60.6067C2.57652 54.0852 0.0537109 46.3538 0.0537109 38.248C0.0537109 28.1255 3.99558 18.6088 11.1533 11.451C18.3111 4.29328 27.8277 0.351562 37.9503 0.351562C45.8241 0.351562 53.3741 2.7438 59.7842 7.26966C60.2851 7.62347 60.4044 8.31612 60.0508 8.81707C59.6971 9.31802 59.0043 9.43719 58.5034 9.08368C52.4701 4.82384 45.3628 2.57208 37.9503 2.57208C28.4208 2.57208 19.4618 6.28301 12.7235 13.0213C5.98516 19.7595 2.27423 28.7185 2.27423 38.248C2.27423 45.879 4.6487 53.157 9.14096 59.2952C13.5435 65.3108 19.5881 69.7345 26.621 72.0879C27.2025 72.2825 27.5162 72.9116 27.3215 73.4931C27.1661 73.9578 26.7332 74.2513 26.2689 74.2513ZM37.5552 71.3756C36.2419 71.3756 34.9289 71.0585 33.9057 70.4243C33.3844 70.1013 33.2238 69.417 33.5468 68.8957C33.8698 68.3746 34.5541 68.2137 35.0754 68.5369C36.4197 69.3699 38.6909 69.3699 40.0349 68.5369C40.4694 68.2676 40.5462 67.8978 40.4732 67.6414C40.4239 67.4685 40.2821 67.2623 39.8864 67.2623C39.2733 67.2623 38.7761 66.7654 38.7761 66.152C38.7761 65.5387 39.2733 65.0418 39.8864 65.0418C41.1958 65.0418 42.2643 65.8234 42.6088 67.0331C42.9737 68.3147 42.4095 69.6773 41.2047 70.4242C40.1813 71.0585 38.8682 71.3756 37.5552 71.3756ZM50.3097 68.3937C50.1214 68.3937 49.9304 68.3459 49.7556 68.2448C49.2246 67.9384 49.0425 67.2593 49.3491 66.7283C49.5061 66.4563 49.6864 66.191 49.8873 65.934L47.8462 62.3986C47.5234 62.4441 47.2035 62.4676 46.8896 62.4676C46.8895 62.4676 46.8895 62.4676 46.8893 62.4676C46.2762 62.4676 45.7791 61.9705 45.7791 61.3574C45.7791 60.744 46.2762 60.2471 46.8893 60.2471C47.2707 60.2471 47.6713 60.1948 48.077 60.0985C48.1214 60.0844 48.1663 60.0733 48.2113 60.065C49.4829 59.7336 50.7906 58.9784 51.7136 58.043C51.7434 58.0081 51.7755 57.9746 51.81 57.9431C52.0963 57.6399 52.3416 57.3193 52.5323 56.9892C52.8387 56.458 53.5177 56.2758 54.0489 56.5826C54.5799 56.8891 54.762 57.5681 54.4554 58.0991C54.2983 58.3712 54.118 58.6365 53.9171 58.8935L55.9584 62.429C56.2809 62.3835 56.6008 62.36 56.9145 62.36H56.9153C57.5284 62.3601 58.0255 62.8571 58.0254 63.4704C58.0254 64.0836 57.5283 64.5805 56.9151 64.5805C56.915 64.5804 56.9147 64.5804 56.9145 64.5805C54.8754 64.5805 52.2916 66.0723 51.2722 67.8383C51.0667 68.1945 50.6934 68.3937 50.3097 68.3937ZM50.0505 61.7754L51.529 64.3367C52.2094 63.8214 52.9675 63.3837 53.754 63.0521L52.2753 60.4909C51.5951 61.0061 50.837 61.4438 50.0505 61.7754ZM23.7199 67.9911C22.9819 67.9911 22.2235 67.7992 21.526 67.3964C20.5752 66.8475 19.8732 65.9888 19.5494 64.9784C19.2132 63.9295 19.3209 62.845 19.8522 61.9246C20.5346 60.7424 21.697 60.078 22.6309 59.5444C23.2313 59.2012 23.8522 58.8464 24.0491 58.5052C24.223 58.2039 24.158 58.0719 24.1367 58.0286C24.0537 57.86 23.7752 57.6636 23.4034 57.6142C22.7955 57.5335 22.3681 56.9754 22.4488 56.3674C22.5295 55.7597 23.0879 55.3304 23.6954 55.413C24.77 55.5557 25.7025 56.1819 26.1287 57.0475C26.5223 57.8467 26.4666 58.7588 25.972 59.6154C25.4751 60.4763 24.5893 60.9825 23.7327 61.4722C22.9227 61.9351 22.1575 62.3724 21.7751 63.0349C21.5608 63.4062 21.5214 63.8557 21.6639 64.3009C21.8189 64.7847 22.1642 65.2009 22.6361 65.4735C23.5743 66.0153 24.7148 65.8027 25.1784 64.9997C25.5701 64.3213 25.9008 63.1335 25.9953 62.7329C26.0758 62.3912 26.3131 62.1076 26.6355 61.9684C26.958 61.8293 27.327 61.8506 27.6311 62.0262L28.4077 62.4744C28.9387 62.7809 29.1206 63.4599 28.814 63.991C28.5955 64.3697 28.1866 64.5709 27.779 64.544C27.6049 65.0573 27.3757 65.635 27.1016 66.11C26.4011 67.323 25.0963 67.9911 23.7199 67.9911ZM36.0141 67.2625C34.7048 67.2625 33.6362 66.4808 33.2916 65.2711C32.9267 63.9896 33.491 62.6269 34.6957 61.8801C36.742 60.6114 39.9481 60.6114 41.9947 61.8801C42.5159 62.2032 42.6766 62.8876 42.3534 63.4087C42.0304 63.9299 41.346 64.0904 40.8248 63.7675C39.4806 62.9342 37.2096 62.9342 35.8656 63.7675C35.4312 64.0368 35.3543 64.4066 35.4273 64.663C35.4766 64.8359 35.6184 65.0421 36.0141 65.0421C36.6273 65.0421 37.1244 65.539 37.1244 66.1523C37.1244 66.7657 36.6274 67.2625 36.0141 67.2625ZM13.5256 58.5879C13.2614 58.5879 12.9993 58.4938 12.7915 58.3108C12.6606 58.1956 11.4968 57.1558 10.9123 56.1434C9.96492 54.5025 10.3578 52.7764 10.9772 51.2842L8.59516 51.1366C7.98318 51.0987 7.51776 50.5719 7.55566 49.9599C7.59356 49.3478 8.12056 48.8829 8.73253 48.9205L12.0082 49.1235L13.4702 46.185C13.7434 45.6361 14.4098 45.4121 14.9589 45.6855C15.5078 45.9587 15.7315 46.6253 15.4583 47.1742L14.4142 49.2726L16.7535 49.4175C17.3655 49.4554 17.8309 49.9822 17.793 50.5942C17.7549 51.2062 17.2285 51.6694 16.6161 51.6336L13.3483 51.4312C12.5612 53.1052 12.3126 54.1279 12.8353 55.0332C13.0304 55.371 13.381 55.7725 13.6947 56.0978L18.3502 53.4101C18.8812 53.1037 19.5602 53.2853 19.8668 53.8165C20.1734 54.3475 19.9914 55.0265 19.4605 55.3331L14.0806 58.439C13.9075 58.5391 13.7161 58.5879 13.5256 58.5879ZM37.9503 58.3807C26.849 58.3807 17.8176 49.3491 17.8176 38.248C17.8176 37.6347 18.3147 37.1377 18.9278 37.1377C19.541 37.1377 20.0381 37.6347 20.0381 38.248C20.0381 48.1248 28.0734 56.1602 37.9503 56.1602C47.8271 56.1602 55.8624 48.1248 55.8624 38.248C55.8624 28.3711 47.8271 20.3358 37.9503 20.3358C33.8423 20.3358 29.9785 21.6884 26.7768 24.2472C23.6677 26.7318 21.4489 30.2186 20.529 34.0651C20.3864 34.6614 19.787 35.0293 19.1909 34.8867C18.5946 34.7441 18.2267 34.145 18.3693 33.5488C19.4036 29.2236 21.8972 25.3044 25.3904 22.5125C28.9387 19.6769 33.3991 18.1153 37.9503 18.1153C49.0515 18.1153 58.083 27.1469 58.083 38.248C58.083 49.3491 49.0514 58.3807 37.9503 58.3807ZM64.5627 58.1876C64.3743 58.1876 64.1835 58.1397 64.0085 58.0387C62.9848 57.4476 62.3114 56.4795 62.0623 55.4101C61.0115 55.7289 59.8366 55.63 58.8128 55.0388C56.8501 53.9057 56.1752 51.3871 57.3083 49.4243C58.4414 47.4615 60.9599 46.7866 62.9228 47.92C63.8735 48.4689 64.5537 49.3552 64.8378 50.4155C64.8495 50.4589 64.8603 50.5024 64.8705 50.5459C64.9133 50.5331 64.9565 50.5208 64.9999 50.5091C66.0601 50.225 67.1678 50.3707 68.1187 50.9196C68.6497 51.2262 68.8316 51.9052 68.525 52.4362C68.2183 52.9674 67.5391 53.1488 67.0084 52.8426C66.5713 52.5902 66.062 52.5231 65.5747 52.654C65.0872 52.7845 64.6797 53.0972 64.4273 53.5343C63.9064 54.4366 64.2166 55.5945 65.1189 56.1156C65.6499 56.4222 65.8318 57.1012 65.5253 57.6322C65.3195 57.9887 64.9463 58.1876 64.5627 58.1876ZM60.8709 49.5904C60.2173 49.5904 59.5809 49.9292 59.2313 50.5347C58.7103 51.4371 59.0206 52.5949 59.9229 53.116C60.825 53.6368 61.9831 53.3265 62.5042 52.4244C62.7566 51.9872 62.8235 51.478 62.6929 50.9905C62.5623 50.5029 62.2495 50.0955 61.8125 49.8431C61.5157 49.6718 61.1912 49.5904 60.8709 49.5904ZM37.9503 53.9396C37.3371 53.9396 36.84 53.4427 36.84 52.8294V48.0778C35.8402 47.9656 34.8849 47.7038 33.9973 47.3152L31.621 51.431C31.3145 51.962 30.6354 52.1435 30.1044 51.8374C29.5734 51.5308 29.3915 50.8518 29.6981 50.3208L32.076 46.202C31.2841 45.6158 30.5826 44.9141 29.9964 44.1223L25.8776 46.5002C25.3468 46.8064 24.6676 46.625 24.361 46.0938C24.0544 45.5628 24.2363 44.8838 24.7673 44.5772L28.8831 42.2009C28.4946 41.3133 28.2328 40.3581 28.1206 39.3582H23.3689C22.7557 39.3582 22.2586 38.8613 22.2586 38.248C22.2586 37.6347 22.7557 37.1377 23.3689 37.1377H28.1206C28.2328 36.1379 28.4946 35.1828 28.8831 34.2952L24.7673 31.9188C24.2363 31.6122 24.0544 30.9331 24.361 30.4021C24.6676 29.871 25.3466 29.6892 25.8776 29.9958L29.9964 32.3738C30.5826 31.582 31.2844 30.8803 32.0761 30.2939L29.6982 26.1753C29.3916 25.6443 29.5736 24.9653 30.1046 24.6587C30.6354 24.3524 31.3146 24.5339 31.6212 25.065L33.9974 29.1807C34.8851 28.7923 35.8402 28.5304 36.8402 28.4183V23.6666C36.8402 23.0533 37.3373 22.5563 37.9504 22.5563C38.5636 22.5563 39.0607 23.0533 39.0607 23.6666V28.4188C40.0421 28.5295 41.0016 28.7859 41.9043 29.1794L44.2796 25.0652C44.5862 24.5339 45.2651 24.3524 45.7962 24.6588C46.3272 24.9654 46.5092 25.6445 46.2026 26.1755L43.3082 31.1884C43.3002 31.2026 43.2919 31.2166 43.2832 31.2304C42.9624 31.7439 42.2887 31.9062 41.7694 31.5943C41.7642 31.5912 41.759 31.5879 41.754 31.5848C40.6017 30.9254 39.2872 30.577 37.9503 30.577C33.7205 30.577 30.2793 34.0182 30.2793 38.248C30.2793 42.4779 33.7205 45.9191 37.9503 45.9191C42.1801 45.9191 45.6213 42.4779 45.6213 38.248C45.6213 36.9117 45.2732 35.598 44.6145 34.4459C44.6059 34.4322 44.5976 34.4183 44.5896 34.4043C44.2893 33.8737 44.4719 33.2006 44.9998 32.8959L50.0229 29.9958C50.5539 29.6894 51.233 29.871 51.5395 30.4021C51.8461 30.9331 51.6642 31.6122 51.1332 31.9188L47.019 34.2941C47.4123 35.197 47.6687 36.1561 47.7793 37.1377H52.5315C53.1447 37.1377 53.6418 37.6347 53.6418 38.248C53.6418 38.8613 53.1447 39.3582 52.5315 39.3582H47.7798C47.6676 40.3581 47.4058 41.3133 47.0172 42.2009L51.133 44.5772C51.664 44.8838 51.846 45.5628 51.5394 46.0938C51.2328 46.6248 50.5538 46.8063 50.0228 46.5002L45.9039 44.1223C45.3177 44.9141 44.616 45.6158 43.8243 46.202L46.2022 50.3208C46.5087 50.8518 46.3268 51.5308 45.7958 51.8374C45.2648 52.1437 44.5858 51.9622 44.2792 51.431L41.9029 47.3152C41.0152 47.7038 40.0601 47.9657 39.0602 48.0778V52.8294C39.0605 53.4427 38.5634 53.9396 37.9503 53.9396ZM67.0428 43.7993C66.4296 43.7993 65.9325 43.3023 65.9325 42.689C65.9325 42.0757 66.4296 41.5788 67.0428 41.5788C67.655 41.5788 68.153 41.0808 68.153 40.4685C68.153 39.8562 67.655 39.3582 67.0428 39.3582H62.9111C62.298 39.3582 61.8009 38.8613 61.8009 38.248C61.8009 37.6347 62.298 37.1377 62.9111 37.1377H67.0428C67.655 37.1377 68.153 36.6397 68.153 36.0275C68.153 35.4152 67.655 34.9172 67.0428 34.9172C66.4296 34.9172 65.9325 34.4202 65.9325 33.8069C65.9325 33.1936 66.4296 32.6967 67.0428 32.6967C68.8794 32.6967 70.3735 34.1909 70.3735 36.0275C70.3735 36.8797 70.0519 37.6584 69.5234 38.248C70.0519 38.8376 70.3735 39.6163 70.3735 40.4685C70.3735 42.305 68.8794 43.7993 67.0428 43.7993ZM13.1548 43.7993C12.5416 43.7993 12.0445 43.3023 12.0445 42.689V33.5023C12.0445 32.889 12.5416 32.392 13.1548 32.392C13.7679 32.392 14.265 32.889 14.265 33.5023V42.689C14.265 43.3023 13.7679 43.7993 13.1548 43.7993ZM8.71373 43.7993C8.10057 43.7993 7.60347 43.3023 7.60347 42.689V41.3885C6.31113 40.9302 5.38296 39.6955 5.38296 38.248C5.38296 36.8005 6.31113 35.5657 7.60347 35.1074V33.8069C7.60347 33.1936 8.10057 32.6967 8.71373 32.6967C9.32689 32.6967 9.82399 33.1936 9.82399 33.8069V36.0275C9.82399 36.6408 9.32689 37.1377 8.71373 37.1377C8.10146 37.1377 7.60347 37.6357 7.60347 38.248C7.60347 38.8602 8.10146 39.3582 8.71373 39.3582C9.32689 39.3582 9.82399 39.8552 9.82399 40.4685V42.689C9.82399 43.3023 9.32689 43.7993 8.71373 43.7993ZM14.4632 30.9269C14.2749 30.9269 14.084 30.879 13.9092 30.778L8.52928 27.6719C8.11656 27.4338 7.90191 26.9587 7.99591 26.4914C8.03026 26.3205 8.34868 24.7927 8.93327 23.7803C9.75353 22.3597 10.9002 22.1741 11.7187 22.2682C12.6115 22.3711 13.5031 22.8513 14.3398 23.3345L16.0949 24.348C16.2494 24.4371 16.3859 24.4655 16.5011 24.4328C16.6026 24.4038 16.6949 24.3246 16.761 24.2099C16.9619 23.8617 16.8771 23.4667 16.5086 23.0356L13.0467 18.9842C12.6485 18.5181 12.7034 17.8173 13.1696 17.4189C13.6357 17.0207 14.3364 17.0756 14.7349 17.5418L18.1968 21.593C19.183 22.7473 19.3651 24.1404 18.6842 25.32C18.3286 25.9359 17.7703 26.379 17.1123 26.5675C16.4166 26.7667 15.661 26.6613 14.9848 26.2709L13.2295 25.2575C12.5777 24.8812 11.9128 24.5258 11.4644 24.4741C11.2872 24.4535 11.1197 24.4343 10.8564 24.8905C10.6614 25.2283 10.489 25.7327 10.3639 26.1672L15.0194 28.855C15.5504 29.1616 15.7323 29.8406 15.4258 30.3716C15.2201 30.7278 14.847 30.9269 14.4632 30.9269ZM60.4508 30.4341C60.3396 30.4341 60.2265 30.4174 60.1149 30.3819C59.5303 30.1964 59.2068 29.5723 59.3922 28.9878C59.8074 27.6784 60.6191 26.5586 61.6589 25.725L60.6499 23.9771C59.408 24.4608 58.0323 24.6038 56.6907 24.3087C56.0919 24.177 55.7131 23.5847 55.8448 22.9858C55.9766 22.3871 56.5695 22.009 57.1677 22.1399C57.9614 22.3147 58.7731 22.2641 59.527 22.0321L58.9339 21.0048C58.6273 20.4738 58.8092 19.7947 59.3402 19.4881C59.8711 19.1817 60.5503 19.3635 60.8568 19.8945L61.45 20.9219C62.0279 20.3848 62.4772 19.7072 62.723 18.9326C62.9083 18.348 63.5323 18.0244 64.117 18.2099C64.7014 18.3954 65.025 19.0195 64.8396 19.6039C64.4243 20.9133 63.6127 22.0332 62.5729 22.8667L63.5819 24.6146C64.8237 24.1307 66.1996 23.9878 67.541 24.2828C68.1398 24.4146 68.5187 25.0069 68.3869 25.6058C68.2552 26.2046 67.6627 26.5834 67.0641 26.4517C66.2703 26.2769 65.4586 26.3275 64.7047 26.5595L65.2979 27.5868C65.6045 28.1178 65.4225 28.7969 64.8915 29.1034C64.3605 29.4097 63.6815 29.2282 63.3749 28.6971L62.7817 27.6699C62.2037 28.2068 61.7545 28.8843 61.5088 29.6592C61.3588 30.132 60.9217 30.4341 60.4508 30.4341ZM22.593 20.4396C22.4978 20.4396 22.4012 20.4273 22.3049 20.4014C21.7127 20.2427 21.3612 19.6338 21.5198 19.0415L22.3881 15.801L22.2955 15.7762C21.7032 15.6176 21.3517 15.0086 21.5103 14.4163C21.669 13.824 22.278 13.4719 22.8701 13.6313L22.9629 13.6562L23.638 11.1371L23.0877 11.4547C22.5567 11.7612 21.8777 11.5794 21.5711 11.0484C21.2645 10.5174 21.4465 9.83836 21.9775 9.53178L24.8489 7.87394C25.3616 7.56544 26.0752 7.75625 26.3655 8.2803L28.0234 11.1517C28.3299 11.6827 28.148 12.3618 27.617 12.6683C27.086 12.9746 26.407 12.793 26.1004 12.262L25.7827 11.7117L25.1077 14.2308L25.2003 14.2557C25.7926 14.4143 26.1441 15.0233 25.9855 15.6156C25.8268 16.2078 25.218 16.5602 24.6257 16.4006L24.5329 16.3757L23.6646 19.6163C23.5318 20.1124 23.0832 20.4396 22.593 20.4396ZM52.3447 18.8668C51.9247 18.8668 51.5378 18.629 51.3498 18.2486L50.495 16.5199L48.5704 16.644C48.1232 16.6737 47.7023 16.4299 47.5037 16.0281L46.3209 13.6359C46.0491 13.0862 46.2744 12.4204 46.824 12.1486C47.3738 11.8769 48.0397 12.1023 48.3114 12.6516L49.1661 14.3804L51.0907 14.2563C51.5387 14.2267 51.9588 14.4705 52.1574 14.8721L53.0122 16.6009L54.9368 16.4768C55.5492 16.4363 56.0768 16.9014 56.1162 17.5134C56.1557 18.1253 55.6916 18.6532 55.0798 18.6928L52.4165 18.8645C52.3924 18.8661 52.3685 18.8668 52.3447 18.8668ZM40.5265 15.8952C39.8692 15.8952 39.2459 15.6848 38.7239 15.2871C38.2363 14.9152 38.1423 14.2186 38.514 13.7309C38.8857 13.2435 39.5825 13.1493 40.0701 13.521C40.162 13.5912 40.3159 13.6747 40.5265 13.6747C40.9425 13.6747 41.2809 13.3363 41.2809 12.9201C41.2809 12.5416 41.1534 11.6038 40.3564 9.44873H38.6331L36.7205 13.2366C36.5318 13.6106 36.1484 13.8464 35.7295 13.8464C35.3105 13.8464 34.9272 13.6106 34.7384 13.2366L32.5178 8.83898C32.2415 8.29155 32.4611 7.62376 33.0084 7.34738C33.5559 7.07144 34.2235 7.29083 34.4999 7.83797L35.7293 10.2728L36.9587 7.83797C37.1475 7.46403 37.5309 7.22821 37.9498 7.22821H40.5512L41.4881 5.91988C41.8451 5.42145 42.5386 5.30658 43.0372 5.66364C43.5358 6.02055 43.6505 6.71424 43.2934 7.21267L42.3721 8.49939C43.1312 10.523 43.501 11.9726 43.501 12.9201C43.5016 14.5605 42.1669 15.8952 40.5265 15.8952ZM54.5652 15.0209C54.1451 15.0209 53.7583 14.783 53.5703 14.4027L52.7155 12.674L50.7909 12.798C50.3437 12.8293 49.9229 12.584 49.7242 12.1822L48.5414 9.78995C48.2696 9.2403 48.4949 8.57429 49.0446 8.30265C49.5944 8.03086 50.2601 8.25631 50.5319 8.80567L51.3866 10.5344L53.3112 10.4104C53.7592 10.3822 54.1793 10.6244 54.378 11.0262L55.2327 12.7549L57.1573 12.6309C57.769 12.5903 58.2972 13.0554 58.3367 13.6674C58.3762 14.2792 57.9121 14.8073 57.3003 14.8468L54.637 15.0185C54.6129 15.0202 54.5891 15.0209 54.5652 15.0209Z" fill="url(#paint0_linear_227_8758)"/>
</g>
<defs>
<linearGradient id="paint0_linear_227_8758" x1="0.474782" y1="0.352448" x2="75.9789" y2="0.484263" gradientUnits="userSpaceOnUse">
<stop stop-color="#9E1256"/>
<stop offset="0.265625" stop-color="#CE164F"/>
<stop offset="0.5" stop-color="#E74249"/>
<stop offset="0.770833" stop-color="#ED6E49"/>
<stop offset="1" stop-color="#F9B048"/>
</linearGradient>
</defs>
</svg>
