<svg width="100" height="88" viewBox="0 0 100 88" fill="none" xmlns="http://www.w3.org/2000/svg">
<g id="Group">
<path id="Vector" d="M50.7882 2.55561C50.0188 0.936686 48.1558 0.219807 46.4566 0.0415364C44.634 -0.150593 42.3831 0.328811 40.87 1.37576C40.2234 1.82427 39.7096 2.42206 39.2389 3.04128C38.8336 3.5742 38.4522 4.12412 38.0424 4.65264C37.0284 3.87152 36.0857 2.96947 34.9156 2.4082C34.0531 1.9937 33.1078 1.8671 32.1567 1.8419C30.1909 1.79277 28.1449 2.21669 26.6222 3.50931C25.9409 4.08696 25.3359 4.97897 25.1766 5.86717C24.7329 8.34532 25.4515 11.0452 26.9626 12.8493C29.5121 15.895 32.9659 17.3275 36.4697 19.3659C38.3636 20.4696 40.1585 22.0885 40.6633 24.0854C40.5875 22.0331 41.9181 20.0091 43.4568 18.4626C46.3037 15.6021 49.2495 13.3432 50.9083 9.75383C51.8902 7.62908 51.8722 4.83659 50.7882 2.55561Z" fill="#9E1256"/>
<path id="Vector_2" d="M68.2399 24.0049C50.7 24.0049 36.4805 38.2236 36.4805 55.7644C36.4805 73.3043 50.6991 87.5238 68.2399 87.5238C85.7799 87.5238 99.9994 73.3043 99.9994 55.7644C99.9986 38.2236 85.7799 24.0049 68.2399 24.0049ZM68.2399 81.4227C54.0686 81.4227 42.5807 69.9349 42.5807 55.7635C42.5807 41.5922 54.0686 30.1043 68.2399 30.1043C82.4113 30.1043 93.8992 41.5922 93.8992 55.7635C93.8992 69.9349 82.4113 81.4227 68.2399 81.4227Z" fill="url(#paint0_linear_972_37083)"/>
<path id="Vector_3" d="M28.3851 28.832C12.7088 28.832 0 41.54 0 57.2171C0 72.8933 12.708 85.6021 28.3851 85.6021C44.0613 85.6021 56.7701 72.8933 56.7701 57.2171C56.7693 41.5408 44.0613 28.832 28.3851 28.832ZM28.3851 79.6804C15.9786 79.6804 5.92169 69.6235 5.92169 57.2171C5.92169 44.8106 15.9786 34.7537 28.3851 34.7537C40.7915 34.7537 50.8484 44.8106 50.8484 57.2171C50.8484 69.6235 40.7907 79.6804 28.3851 79.6804Z" fill="url(#paint1_linear_972_37083)"/>
<path id="Vector_4" d="M54.8827 18.3737C55.2631 17.2141 54.6879 16.0024 53.9402 15.134C53.1389 14.2028 51.8141 13.4091 50.5854 13.2373C50.0595 13.1645 49.5286 13.2266 49.0092 13.3197C48.5618 13.3998 48.118 13.4986 47.6708 13.5744C47.5404 12.7199 47.5009 11.8382 47.1912 11.0219C46.9632 10.4198 46.5607 9.92311 46.107 9.47475C45.169 8.54894 43.9707 7.82221 42.6218 7.76804C42.0185 7.74382 41.3056 7.91052 40.8127 8.28043C39.4372 9.31218 38.5266 10.9875 38.4216 12.5795C38.2441 15.2669 39.2629 17.5645 40.0233 20.1874C40.4334 21.6059 40.5543 23.236 39.8672 24.4628C40.7896 23.405 42.3865 23.0063 43.8616 22.9413C46.5905 22.8207 49.0868 23.0461 51.5763 22.0174C53.0498 21.4079 54.3464 20.0078 54.8827 18.3737Z" fill="#FFCD1A"/>
</g>
<defs>
<linearGradient id="paint0_linear_972_37083" x1="36.8334" y1="24.0056" x2="100.11" y2="24.1161" gradientUnits="userSpaceOnUse">
<stop stop-color="#9E1256"/>
<stop offset="0.265625" stop-color="#CE164F"/>
<stop offset="0.5" stop-color="#E74249"/>
<stop offset="0.770833" stop-color="#ED6E49"/>
<stop offset="1" stop-color="#F9B048"/>
</linearGradient>
<linearGradient id="paint1_linear_972_37083" x1="0.315388" y1="28.8327" x2="56.869" y2="28.9314" gradientUnits="userSpaceOnUse">
<stop stop-color="#9E1256"/>
<stop offset="0.265625" stop-color="#CE164F"/>
<stop offset="0.5" stop-color="#E74249"/>
<stop offset="0.770833" stop-color="#ED6E49"/>
<stop offset="1" stop-color="#F9B048"/>
</linearGradient>
</defs>
</svg>
