<svg width="38" height="36" viewBox="0 0 38 36" fill="none" xmlns="http://www.w3.org/2000/svg">
<path id="icon" d="M1 1L2.53886 1.51295C3.49975 1.83325 4.37287 2.37287 5.08907 3.08907C6.31262 4.31262 7 5.9721 7 7.70246V8M7 22V8M7 8L10.2365 3.95434C10.7425 3.3219 11.343 2.77133 12.0169 2.32207C13.31 1.46001 14.8293 1 16.3834 1H17.3765C18.4442 1 19.4972 1.24858 20.4521 1.72605L20.9678 1.98388C22.269 2.63449 23.2585 3.77537 23.7185 5.15552C23.9049 5.71485 24 6.30057 24 6.89016V19.3379C24 19.7785 24.0364 20.2184 24.1088 20.6531L24.5943 23.5661C24.7061 24.2366 24.9054 24.8853 25.1843 25.4965M25.1843 25.4965L26.6308 23.5076C26.8766 23.1697 27.1484 22.8516 27.4438 22.5562L28.5063 21.4937C29.4627 20.5373 30.7599 20 32.1125 20H32.169C33.9254 20 35.5529 20.9215 36.4565 22.4275C37.4066 24.0109 37.4066 25.9891 36.4565 27.5725C35.5529 29.0785 33.9254 30 32.169 30H31.535C29.9119 30 28.3552 29.3552 27.2075 28.2075L26.7448 27.7448C26.0907 27.0907 25.5639 26.3283 25.1843 25.4965ZM25.1843 25.4965L19.6683 33.0812C19.2292 33.6849 18.6515 34.1743 17.9838 34.5081C17.3368 34.8316 16.6234 35 15.9001 35H12" stroke="#9E1256" stroke-linecap="round"/>
</svg>
