<svg width="29" height="29" viewBox="0 0 29 29" fill="none" xmlns="http://www.w3.org/2000/svg">
<g id="horoscope 1" clip-path="url(#clip0_227_8981)">
<g id="g1215">
<g id="g1217">
<g id="Clip path group">
<mask id="mask0_227_8981" style="mask-type:luminance" maskUnits="userSpaceOnUse" x="0" y="0" width="29" height="29">
<g id="clipPath1223">
<path id="path1221" d="M0.967773 0.811184H28.889V28.7324H0.967773V0.811184Z" fill="white"/>
</g>
</mask>
<g mask="url(#mask0_227_8981)">
<g id="g1219">
<g id="g1225">
<path id="path1227 (Stroke)" fill-rule="evenodd" clip-rule="evenodd" d="M12.1044 28.4466C13.0168 28.634 13.9612 28.7324 14.9283 28.7324C22.6385 28.7324 28.8888 22.4821 28.8888 14.7719C28.8888 10.7934 27.224 7.20293 24.554 4.66058C24.3905 4.50481 24.1316 4.51115 23.9758 4.67473C23.82 4.83832 23.8264 5.09721 23.99 5.25298C26.5045 7.64734 28.0708 11.0264 28.0708 14.7719C28.0708 22.0303 22.1867 27.9144 14.9283 27.9144C14.0168 27.9144 13.1275 27.8217 12.2691 27.6453C12.0478 27.5999 11.8316 27.7424 11.7861 27.9636C11.7407 28.1849 11.8832 28.4011 12.1044 28.4466ZM11.0129 27.7557C11.0846 27.5415 10.969 27.3097 10.7548 27.238C5.54179 25.4936 1.78578 20.5708 1.78578 14.7719C1.78578 7.51354 7.66991 1.62946 14.9283 1.62946C17.7482 1.62946 20.3595 2.51711 22.4997 4.02822C22.6843 4.15851 22.9395 4.11454 23.0697 3.93001C23.2 3.74548 23.1561 3.49028 22.9715 3.35999C20.6978 1.75462 17.9226 0.811457 14.9283 0.811457C7.21814 0.811457 0.967773 7.06177 0.967773 14.7719C0.967773 20.9331 4.9587 26.161 10.4952 28.0137C10.7094 28.0854 10.9412 27.9699 11.0129 27.7557ZM14.7827 26.1584C14.4316 26.1584 14.102 26.0742 13.8692 25.9299C13.6772 25.8109 13.4251 25.8701 13.3061 26.0621C13.1871 26.2541 13.2463 26.5062 13.4383 26.6252C13.829 26.8673 14.3166 26.9764 14.7827 26.9764C15.2488 26.9764 15.7365 26.8673 16.1271 26.6252C16.5753 26.3474 16.7555 25.8671 16.6593 25.4349C16.5614 24.9948 16.1818 24.6424 15.6415 24.6424C15.4156 24.6424 15.2325 24.8255 15.2325 25.0514C15.2325 25.2773 15.4156 25.4604 15.6415 25.4604C15.7241 25.4604 15.7713 25.4847 15.7984 25.5068C15.8277 25.5307 15.8506 25.5665 15.8608 25.6126C15.8802 25.6996 15.8536 25.8323 15.6962 25.9299C15.4634 26.0742 15.1338 26.1584 14.7827 26.1584ZM19.2773 25.8223C19.4729 25.9352 19.723 25.8682 19.8359 25.6725C20.0155 25.3614 20.3401 25.0568 20.7347 24.829C21.1293 24.6012 21.5554 24.4724 21.9146 24.4724C22.1405 24.4724 22.3237 24.2893 22.3237 24.0635C22.3237 23.8376 22.1406 23.6544 21.9147 23.6544C21.7982 23.6544 21.6803 23.6631 21.5622 23.6797L20.8103 22.3775C20.8838 22.2834 20.9503 22.1857 21.0085 22.0848C21.1214 21.8892 21.0544 21.639 20.8588 21.5261C20.6631 21.4132 20.413 21.4802 20.3001 21.6759C20.2302 21.797 20.1383 21.9171 20.0289 22.0321C20.0199 22.0405 20.0114 22.0493 20.0034 22.0584C19.8361 22.2288 19.6305 22.3871 19.4013 22.5194C19.1718 22.6519 18.9316 22.7509 18.7002 22.8106C18.6888 22.8129 18.6775 22.8157 18.6663 22.819C18.5117 22.8564 18.3614 22.876 18.2213 22.876C17.9954 22.876 17.8123 23.0591 17.8123 23.285C17.8123 23.5109 17.9954 23.694 18.2213 23.694C18.3378 23.694 18.4557 23.6853 18.5739 23.6687L19.3257 24.9709C19.2522 25.065 19.1857 25.1627 19.1275 25.2636C19.0146 25.4593 19.0816 25.7094 19.2773 25.8223ZM19.9305 24.3825L19.3858 23.4391C19.532 23.3774 19.6743 23.3063 19.8103 23.2278C19.9463 23.1493 20.079 23.0616 20.2055 22.9659L20.7502 23.9093C20.604 23.9709 20.4617 24.042 20.3257 24.1205C20.1897 24.1991 20.057 24.2867 19.9305 24.3825ZM10.2234 24.6269C10.0704 24.8917 9.66595 25.0203 9.28685 24.8014L9.28681 24.8013C8.90758 24.5824 8.81676 24.1678 8.96966 23.903C9.09078 23.6933 9.31224 23.5448 9.62636 23.3643C9.64638 23.3528 9.66698 23.341 9.68803 23.329C9.81712 23.2553 9.96263 23.1722 10.0906 23.0822C10.2413 22.9762 10.4042 22.8367 10.5157 22.6434M10.2234 24.6269C10.3033 24.4884 10.3788 24.2867 10.4371 24.1018C10.4651 24.0128 10.4872 23.934 10.5023 23.8777C10.5098 23.8496 10.5154 23.8273 10.5192 23.8125C10.521 23.805 10.5224 23.7995 10.5232 23.7959L10.5241 23.7922L10.5242 23.7918C10.5242 23.7918 10.5242 23.7917 10.5243 23.7917C10.5243 23.7917 10.5243 23.7917 10.5243 23.7917C10.5243 23.7917 10.5243 23.7917 10.5243 23.7916C10.5243 23.7916 10.5243 23.7916 10.5243 23.7916C10.5243 23.7916 10.5243 23.7916 10.5243 23.7916C10.554 23.6658 10.6414 23.5614 10.7601 23.5101C10.8788 23.4588 11.0148 23.4667 11.1268 23.5313L11.4129 23.6965C11.6085 23.8094 11.6756 24.0595 11.5627 24.2552C11.4821 24.3948 11.3316 24.4689 11.181 24.4589C11.1196 24.6404 11.0356 24.8561 10.9318 25.0359C10.5167 25.7547 9.58226 25.9165 8.87779 25.5097C8.17335 25.1031 7.84614 24.213 8.26126 23.494C8.50633 23.0695 8.92027 22.8266 9.21882 22.655C9.24237 22.6415 9.26518 22.6284 9.28731 22.6158C9.41882 22.5406 9.52619 22.4791 9.62005 22.4131C9.72781 22.3373 9.78127 22.2796 9.80734 22.2344C9.84649 22.1666 9.85114 22.1236 9.85063 22.1029C9.85013 22.0827 9.84432 22.0629 9.82859 22.0403C9.79175 21.9871 9.69971 21.9235 9.56948 21.9062C9.34556 21.8765 9.18812 21.6709 9.21785 21.447C9.24757 21.223 9.45319 21.0656 9.67711 21.0953C9.98854 21.1367 10.3078 21.2959 10.5007 21.5741C10.7119 21.8785 10.7316 22.2696 10.5157 22.6434M13.9957 24.4902C13.9764 24.4032 14.003 24.2705 14.1604 24.1729L14.1604 24.1729C14.3932 24.0286 14.7227 23.9444 15.0738 23.9444C15.4249 23.9444 15.7545 24.0286 15.9873 24.1729C16.1793 24.2919 16.4314 24.2327 16.5504 24.0408C16.6694 23.8488 16.6103 23.5966 16.4183 23.4776C16.0276 23.2355 15.5399 23.1264 15.0738 23.1264C14.6078 23.1264 14.1201 23.2355 13.7295 23.4776C13.2813 23.7554 13.1011 24.2357 13.1973 24.6679C13.2952 25.108 13.6748 25.4604 14.2151 25.4604C14.441 25.4604 14.6241 25.2773 14.6241 25.0514C14.6241 24.8255 14.441 24.6424 14.2151 24.6424C14.1325 24.6424 14.0853 24.6181 14.0582 24.596C14.0289 24.5721 14.006 24.5363 13.9957 24.4902ZM5.66019 22.1627C5.79192 22.2788 5.98301 22.2978 6.13504 22.21L8.1169 21.0659C8.31253 20.9529 8.37956 20.7028 8.26662 20.5072C8.15368 20.3115 7.90354 20.2445 7.70792 20.3575L5.99278 21.3476C5.99225 21.3471 5.99171 21.3465 5.99118 21.346C5.86795 21.2183 5.74452 21.0735 5.67634 20.9554M5.66019 22.1627L5.93055 21.8558L5.66019 22.1627ZM7.5117 14.7719C7.5117 18.868 10.8322 22.1885 14.9283 22.1885C19.0243 22.1885 22.3448 18.868 22.3448 14.7719C22.3448 10.6759 19.0244 7.35534 14.9283 7.35534C11.4279 7.35534 8.49479 9.77989 7.71493 13.0408C7.66239 13.2605 7.79789 13.4811 8.01758 13.5337C8.23727 13.5862 8.45796 13.4507 8.5105 13.231C9.20435 10.3298 11.815 8.17334 14.9283 8.17334C18.5726 8.17334 21.5268 11.1276 21.5268 14.7719C21.5268 18.4162 18.5726 21.3705 14.9283 21.3705C11.284 21.3705 8.3297 18.4162 8.3297 14.7719C8.3297 14.546 8.14658 14.3629 7.9207 14.3629C7.69481 14.3629 7.5117 14.546 7.5117 14.7719ZM5.93055 21.8558C5.66019 22.1627 5.66016 22.1627 5.66012 22.1627L5.93055 21.8558ZM5.66012 22.1627L5.66004 22.1626L5.66012 22.1627ZM5.66004 22.1626L5.65986 22.1624L5.66004 22.1626ZM5.65986 22.1624L5.65937 22.162L5.65986 22.1624ZM5.65937 22.162L5.65793 22.1607L5.65937 22.162ZM5.65793 22.1607C5.65727 22.1602 5.65648 22.1595 5.65556 22.1586L5.65793 22.1607ZM5.65556 22.1586L5.65329 22.1566L5.65556 22.1586ZM5.65329 22.1566C5.64942 22.1531 5.64404 22.1483 5.6373 22.1422L5.65329 22.1566ZM5.6373 22.1422C5.62383 22.13 5.6049 22.1126 5.5818 22.0909L5.6373 22.1422ZM5.5818 22.0909C5.53576 22.0476 5.47243 21.9864 5.40251 21.914L5.5818 22.0909ZM5.40251 21.914C5.26855 21.7751 5.08778 21.572 4.96793 21.3644L5.40251 21.914ZM25.0865 21.9128C25.1994 21.7172 25.1324 21.4671 24.9368 21.3541C24.6038 21.1619 24.4898 20.7362 24.682 20.4033C24.8742 20.0703 25.2999 19.9562 25.6328 20.1484C25.8284 20.2614 26.0786 20.1944 26.1915 19.9988C26.3045 19.8031 26.2375 19.553 26.0418 19.44C25.6643 19.2221 25.232 19.1852 24.8453 19.3024C24.7535 18.9089 24.5053 18.5529 24.1278 18.335C23.4036 17.9168 22.4776 18.165 22.0595 18.8891C21.6414 19.6133 21.8895 20.5393 22.6137 20.9575L22.6137 20.9575C22.9912 21.1754 23.4236 21.2123 23.8103 21.0951C23.9021 21.4886 24.1502 21.8446 24.5278 22.0625C24.7234 22.1755 24.9735 22.1084 25.0865 21.9128ZM23.9736 19.9943C23.7814 20.3272 23.3557 20.4413 23.0227 20.249C22.6898 20.0568 22.5757 19.6311 22.7679 19.2982C22.9601 18.9652 23.3859 18.8512 23.7188 19.0434C24.0517 19.2356 24.1658 19.6613 23.9736 19.9943ZM4.96793 21.3644L4.9679 21.3644L4.96793 21.3644ZM5.37164 18.7782C5.55566 18.4084 5.76118 17.9954 5.91021 17.6958C6.01082 17.4936 6.25633 17.4112 6.45857 17.5118C6.66082 17.6124 6.7432 17.8579 6.64259 18.0602C6.53425 18.2779 6.39607 18.5557 6.25799 18.8332L7.1197 18.8866C7.34515 18.9005 7.51659 19.0946 7.50263 19.3201C7.48866 19.5455 7.29457 19.717 7.06911 19.703L5.86491 19.6284C5.74124 19.89 5.64994 20.1154 5.60478 20.322C5.54971 20.5739 5.56942 20.7702 5.67631 20.9553M5.37164 18.7782L4.1649 18.7035C3.93945 18.6895 3.74536 18.861 3.73139 19.0864C3.71742 19.3119 3.88887 19.506 4.11432 19.5199L4.9931 19.5744C4.91414 19.7642 4.84741 19.9563 4.80564 20.1473C4.71912 20.5431 4.73404 20.9592 4.9679 21.3644M14.9283 20.5525C15.1542 20.5525 15.3373 20.3694 15.3373 20.1435V18.3932C15.7059 18.352 16.058 18.2558 16.385 18.113L17.2598 19.6283C17.3728 19.824 17.6229 19.891 17.8185 19.7781C18.0142 19.6651 18.0812 19.415 17.9683 19.2194L17.0931 17.7034C17.3851 17.4874 17.6437 17.2287 17.8597 16.9367L19.3757 17.8119C19.5713 17.9248 19.8215 17.8578 19.9344 17.6622C20.0474 17.4666 19.9803 17.2164 19.7847 17.1035L18.2693 16.2286C18.4121 15.9016 18.5083 15.5496 18.5495 15.1809H20.2998C20.5257 15.1809 20.7088 14.9978 20.7088 14.7719C20.7088 14.546 20.5257 14.3629 20.2998 14.3629H18.5494C18.5082 13.9945 18.4121 13.6424 18.2693 13.3153L19.7847 12.4403C19.9803 12.3274 20.0474 12.0772 19.9344 11.8816C19.8215 11.686 19.5713 11.619 19.3757 11.7319L17.5253 12.8003C17.3308 12.9126 17.2632 13.1607 17.3739 13.3561C17.3779 13.3631 17.382 13.3699 17.3863 13.3766C17.6204 13.7879 17.7541 14.2636 17.7541 14.7719C17.7541 15.2801 17.62 15.7569 17.3853 16.1689C17.3819 16.1741 17.3787 16.1794 17.3756 16.1849C17.3725 16.1901 17.3696 16.1954 17.3669 16.2007C17.1223 16.6173 16.774 16.9656 16.3575 17.2103C16.3521 17.2131 16.3466 17.2161 16.3412 17.2192C16.3356 17.2224 16.3302 17.2258 16.3248 17.2292C15.9129 17.4638 15.4362 17.5978 14.9283 17.5978C14.4203 17.5978 13.9437 17.4638 13.5317 17.2292C13.5264 17.2258 13.5209 17.2224 13.5153 17.2192C13.5099 17.2161 13.5045 17.2131 13.499 17.2103C13.0825 16.9656 12.7343 16.6173 12.4897 16.2007C12.4869 16.1954 12.484 16.1901 12.481 16.1849C12.4778 16.1794 12.4746 16.1741 12.4712 16.1689C12.2365 15.7569 12.1024 15.28 12.1024 14.7719C12.1024 14.2639 12.2365 13.7871 12.4712 13.3752C12.4745 13.3699 12.4778 13.3645 12.481 13.359C12.484 13.3537 12.4869 13.3484 12.4897 13.343C12.7345 12.9263 13.083 12.5778 13.4998 12.3331C13.505 12.3304 13.5102 12.3276 13.5153 12.3246C13.5206 12.3215 13.5259 12.3184 13.531 12.3151C13.9431 12.0802 14.42 11.946 14.9283 11.946C15.4369 11.946 15.9129 12.08 16.3245 12.3144C16.3279 12.3166 16.3314 12.3188 16.3349 12.3209C16.5261 12.4359 16.7741 12.3765 16.8924 12.1874L16.8927 12.187C16.896 12.1817 16.8991 12.1764 16.9022 12.1711L17.9683 10.3245C18.0812 10.1289 18.0142 9.87876 17.8185 9.76582C17.6229 9.65288 17.3728 9.7199 17.2598 9.91553L16.3849 11.4309C16.0577 11.2881 15.7057 11.1919 15.3373 11.1508V9.40035C15.3373 9.17446 15.1542 8.99134 14.9283 8.99134C14.7024 8.99134 14.5193 9.17446 14.5193 9.40035V11.1507C14.1506 11.1919 13.7986 11.2881 13.4716 11.4309L12.5967 9.91553C12.4838 9.7199 12.2336 9.65288 12.038 9.76582C11.8424 9.87876 11.7753 10.1289 11.8883 10.3245L12.7635 11.8405C12.4715 12.0565 12.2128 12.3151 11.9968 12.6072L10.4809 11.7319C10.2853 11.619 10.0351 11.686 9.92219 11.8816C9.80924 12.0772 9.87626 12.3274 10.0719 12.4403L11.5872 13.3152C11.4444 13.6423 11.3483 13.9943 11.3071 14.3629H9.55671C9.33082 14.3629 9.14771 14.546 9.14771 14.7719C9.14771 14.9978 9.33082 15.1809 9.55671 15.1809H11.3071C11.3483 15.5496 11.4444 15.9016 11.5872 16.2286L10.0719 17.1035C9.87626 17.2164 9.80924 17.4666 9.92218 17.6622C10.0351 17.8578 10.2853 17.9248 10.4809 17.8119L11.9968 16.9367C12.2128 17.2287 12.4714 17.4874 12.7635 17.7034L11.8883 19.2194C11.7753 19.415 11.8424 19.6651 12.038 19.7781C12.2336 19.891 12.4838 19.824 12.5967 19.6283L13.4715 18.113C13.7986 18.2558 14.1506 18.352 14.5193 18.3932V20.1435C14.5193 20.3694 14.7024 20.5525 14.9283 20.5525ZM4.15799 16.8169C4.38388 16.8169 4.56699 16.6338 4.56699 16.4079V15.5899C4.56699 15.364 4.38388 15.1809 4.15799 15.1809C3.93212 15.1809 3.74899 14.9978 3.74899 14.7719C3.74899 14.546 3.93212 14.3629 4.15799 14.3629C4.38388 14.3629 4.56699 14.1798 4.56699 13.9539V13.1359C4.56699 12.91 4.38388 12.7269 4.15799 12.7269C3.9321 12.7269 3.74899 12.91 3.74899 13.1359V13.6147C3.27243 13.7832 2.93098 14.2377 2.93098 14.7719C2.93098 15.3061 3.27243 15.7606 3.74899 15.9291V16.4079C3.74899 16.6338 3.9321 16.8169 4.15799 16.8169ZM5.794 16.8169C6.01988 16.8169 6.203 16.6338 6.203 16.4079V13.0237C6.203 12.7978 6.01988 12.6147 5.794 12.6147C5.56811 12.6147 5.385 12.7978 5.385 13.0237V16.4079C5.385 16.6338 5.56811 16.8169 5.794 16.8169ZM25.2365 16.4079C25.2365 16.6338 25.4197 16.8169 25.6455 16.8169C26.3233 16.8169 26.8725 16.2675 26.8725 15.5899C26.8725 15.2757 26.7544 14.989 26.5601 14.7719C26.7544 14.5548 26.8725 14.2682 26.8725 13.9539C26.8725 13.2763 26.3233 12.7269 25.6455 12.7269C25.4197 12.7269 25.2365 12.91 25.2365 13.1359C25.2365 13.3618 25.4197 13.5449 25.6455 13.5449C25.8714 13.5449 26.0545 13.728 26.0545 13.9539C26.0545 14.1798 25.8714 14.3629 25.6455 14.3629H24.1235C23.8976 14.3629 23.7145 14.546 23.7145 14.7719C23.7145 14.9978 23.8976 15.1809 24.1235 15.1809H25.6455C25.8714 15.1809 26.0545 15.364 26.0545 15.5899C26.0545 15.8158 25.8714 15.9989 25.6455 15.9989C25.4197 15.9989 25.2365 16.182 25.2365 16.4079ZM6.63061 11.8704C6.74355 11.6748 6.67653 11.4246 6.4809 11.3117L4.76578 10.3215C4.76599 10.3207 4.7662 10.32 4.76642 10.3192C4.81541 10.1487 4.87911 9.96933 4.94726 9.85124C5.00479 9.7516 5.05001 9.71995 5.06991 9.70941C5.08722 9.70025 5.11444 9.69128 5.17126 9.69783C5.3157 9.71448 5.5162 9.81015 5.82146 9.98642L6.02615 10.1046C6.19223 10.2005 6.37571 10.3064 6.46817 10.3598C6.71969 10.505 6.99614 10.5422 7.25195 10.469C7.50332 10.397 7.70559 10.2267 7.83099 10.0094C8.12813 9.49468 7.94275 8.97744 7.65146 8.63654C7.33255 8.26331 6.67912 7.49863 6.37614 7.14406C6.22939 6.97233 5.97122 6.95207 5.79949 7.09881C5.62776 7.24556 5.60751 7.50373 5.75425 7.67546L5.99617 7.95857C6.32705 8.34579 6.78041 8.87633 7.02957 9.16793C7.18271 9.34715 7.18786 9.48731 7.12256 9.6004L7.12249 9.60051C7.09411 9.6497 7.05744 9.67382 7.02676 9.6826C7.00052 9.69012 6.95181 9.69446 6.87711 9.65133C6.78803 9.59992 6.61443 9.49969 6.4533 9.40666L6.2305 9.27803C6.2305 9.27802 6.23051 9.27803 6.2305 9.27803C5.95117 9.11673 5.60561 8.92449 5.26496 8.88521C5.07923 8.86379 4.87913 8.88484 4.68715 8.98649C4.49777 9.08676 4.35175 9.24669 4.23885 9.44222L4.23883 9.44227C4.11901 9.64985 4.03346 9.90797 3.9802 10.0934C3.9524 10.1902 3.93106 10.2757 3.9166 10.3372C3.90935 10.368 3.90377 10.3931 3.89992 10.4109C3.89889 10.4156 3.89799 10.4198 3.89721 10.4235C3.89653 10.4267 3.89594 10.4296 3.89544 10.4319C3.89491 10.4345 3.89449 10.4365 3.89418 10.438L3.8938 10.4399L3.89362 10.4408L3.8936 10.4409C3.89359 10.4409 3.89358 10.441 4.29454 10.5217L3.89358 10.441C3.85894 10.6131 3.938 10.7881 4.09004 10.8759L6.0719 12.0201C6.26752 12.133 6.51767 12.066 6.63061 11.8704ZM23.0934 11.8742C23.3087 11.9424 23.5386 11.8232 23.6069 11.6079C23.6971 11.3235 23.8631 11.0743 24.0767 10.8765L24.2944 11.2535C24.4073 11.4491 24.6574 11.5162 24.8531 11.4032C25.0487 11.2903 25.1157 11.0401 25.0028 10.8445L24.7851 10.4674C25.0631 10.3814 25.362 10.3623 25.6534 10.4263C25.874 10.4749 26.0922 10.3353 26.1407 10.1147C26.1892 9.89412 26.0497 9.67594 25.8291 9.62743C25.3324 9.51819 24.8256 9.56953 24.3689 9.74666L24.0006 9.10872C24.3823 8.80181 24.6802 8.38857 24.8339 7.90381C24.9022 7.68849 24.783 7.45858 24.5677 7.39029C24.3524 7.322 24.1225 7.44118 24.0542 7.65649C23.964 7.94086 23.798 8.19012 23.5844 8.38793L23.3668 8.01088C23.2538 7.81526 23.0037 7.74823 22.808 7.86118C22.6124 7.97412 22.5454 8.22427 22.6583 8.41989L22.876 8.79694C22.598 8.88298 22.2991 8.90213 22.0077 8.83805C21.7871 8.78953 21.5689 8.92905 21.5204 9.14966C21.4719 9.37028 21.6114 9.58845 21.832 9.63696C22.3287 9.7462 22.8355 9.69486 23.2922 9.51773L23.6605 10.1557C23.2788 10.4626 22.9809 10.8759 22.8272 11.3607C22.7589 11.576 22.8781 11.8059 23.0934 11.8742ZM9.16476 8.19752C9.38295 8.25599 9.60722 8.1265 9.66569 7.90831L9.98555 6.71459L10.0197 6.72375C10.2379 6.78221 10.4622 6.65273 10.5207 6.43454C10.5791 6.21635 10.4496 5.99208 10.2315 5.93362L10.1973 5.92446L10.4459 4.99648L10.5629 5.19917C10.6759 5.3948 10.926 5.46183 11.1217 5.34889C11.3173 5.23595 11.3843 4.98581 11.2714 4.79018L10.6606 3.73234C10.6064 3.63839 10.5171 3.56984 10.4123 3.54177C10.3075 3.51369 10.1959 3.52839 10.1019 3.58264L9.04413 4.19342C8.84851 4.30637 8.7815 4.55651 8.89445 4.75213C9.0074 4.94775 9.25755 5.01476 9.45316 4.90181L9.65578 4.78482L9.40714 5.71274L9.37299 5.70359C9.1548 5.64513 8.93053 5.77461 8.87207 5.99281C8.81361 6.21099 8.94309 6.43526 9.16128 6.49372L9.19542 6.50287L8.87556 7.6966C8.81709 7.91479 8.94658 8.13906 9.16476 8.19752ZM19.8644 7.40447C19.9376 7.55248 20.0926 7.64198 20.2574 7.63135L21.2384 7.5681C21.4639 7.55356 21.6348 7.35904 21.6203 7.13362C21.6057 6.90821 21.4112 6.73725 21.1858 6.75178L20.4768 6.7975L20.162 6.16066C20.0888 6.01265 19.9338 5.92316 19.769 5.93378L19.06 5.97949L18.7451 5.34265C18.645 5.14017 18.3997 5.05718 18.1972 5.15729C17.9947 5.25741 17.9117 5.50272 18.0119 5.70521L18.4476 6.58647C18.5208 6.73448 18.6758 6.82397 18.8405 6.81335L19.5496 6.76763L19.8644 7.40447ZM15.2133 6.31349C15.3975 6.45386 15.6283 6.53749 15.8774 6.53749C16.4826 6.53749 16.9733 6.04679 16.9733 5.44153C16.9733 5.19124 16.9057 4.88581 16.8184 4.5853C16.7473 4.3404 16.6563 4.07659 16.5574 3.81297L16.8968 3.33896C17.0283 3.15531 16.9861 2.89981 16.8024 2.7683C16.6187 2.63679 16.3633 2.67906 16.2317 2.86271L15.8866 3.34471H14.9283C14.7739 3.34471 14.6327 3.43159 14.5632 3.56936L14.1103 4.46633L13.6574 3.56936C13.5555 3.36772 13.3095 3.2868 13.1079 3.38861C12.9063 3.49043 12.8253 3.73642 12.9272 3.93806L13.7452 5.55809C13.8147 5.69586 13.9559 5.78274 14.1103 5.78274C14.2646 5.78274 14.4058 5.69586 14.4754 5.55809L15.1799 4.16272H15.8148C15.8993 4.3911 15.9745 4.61222 16.0329 4.81346C16.1159 5.09935 16.1553 5.31248 16.1553 5.44153C16.1553 5.59506 16.0308 5.71949 15.8774 5.71949C15.8137 5.71949 15.7559 5.69852 15.7091 5.66286C15.5295 5.52595 15.2728 5.56061 15.1359 5.74027C14.999 5.91994 15.0337 6.17657 15.2133 6.31349ZM20.6824 5.98769C20.7556 6.1357 20.9106 6.22519 21.0754 6.21457L22.0564 6.15131C22.2819 6.13678 22.4528 5.94226 22.4383 5.71684C22.4237 5.49142 22.2292 5.32047 22.0038 5.335L21.2948 5.38071L20.98 4.74387C20.9068 4.59586 20.7518 4.50637 20.587 4.517L19.878 4.56271L19.5631 3.92587C19.463 3.72338 19.2177 3.64039 19.0152 3.74051C18.8127 3.84063 18.7298 4.08594 18.8299 4.28842L19.2656 5.16969C19.3388 5.3177 19.4938 5.40719 19.6585 5.39656L20.3676 5.35085L20.6824 5.98769Z" fill="#9E1256"/>
</g>
</g>
</g>
</g>
</g>
</g>
</g>
<defs>
<clipPath id="clip0_227_8981">
<rect width="27.9212" height="27.9212" fill="white" transform="translate(0.967773 0.810547)"/>
</clipPath>
</defs>
</svg>
