<svg width="25" height="26" viewBox="0 0 25 26" fill="none" xmlns="http://www.w3.org/2000/svg">
<path id="icon" d="M14.3153 3.28363C15.8139 1.51842 17.3024 0.773572 18.4832 0.48944C19.0685 0.348585 19.565 0.324157 19.9321 0.336186C20.1155 0.342199 20.2651 0.35727 20.3742 0.370714C20.4173 0.376022 20.4555 0.381284 20.4823 0.384963L20.4987 0.387222L20.5044 0.387989C21.3839 0.398112 22.396 0.800991 23.1888 1.45468C24.0018 2.12504 24.6667 3.13019 24.6667 4.38025C24.6667 5.44959 24.4786 6.42789 23.9379 7.24309C23.3908 8.06794 22.5388 8.64206 21.3762 9.00723C21.025 9.11757 20.6508 8.92225 20.5404 8.57098C20.4301 8.21971 20.6254 7.84551 20.9767 7.73518C21.9317 7.43519 22.4915 7.01157 22.8268 6.50611C23.1684 5.99099 23.3333 5.30639 23.3333 4.38025C23.3333 3.63484 22.9393 2.97709 22.3406 2.48342C21.7318 1.98149 20.9951 1.72113 20.4706 1.72113C20.4078 1.72113 20.3379 1.7111 20.3218 1.70878L20.319 1.70838L20.2971 1.70538C20.2708 1.70177 20.2439 1.69808 20.2111 1.69404C20.1305 1.6841 20.0221 1.67318 19.8884 1.6688C19.6212 1.66005 19.2464 1.67719 18.7951 1.78577C17.9027 2.00051 16.6566 2.58597 15.3317 4.14655C14.4135 5.22818 13.742 6.68729 13.3005 8.11881C12.859 9.55036 12.6667 10.891 12.6667 11.697V25.0002C12.6667 25.3684 12.3682 25.6668 12 25.6668C11.6318 25.6668 11.3333 25.3684 11.3333 25.0002V11.6668C11.3333 10.8541 11.1509 9.50663 10.7332 8.06966C10.3153 6.63163 9.68003 5.16738 8.81275 4.08329C7.56208 2.51995 6.39176 1.94062 5.56473 1.72943C5.14585 1.62247 4.79883 1.60577 4.55239 1.61434C4.42904 1.61863 4.32906 1.62931 4.25448 1.63906C4.22405 1.64304 4.19931 1.64665 4.17456 1.65026L4.15356 1.65331L4.15175 1.65359C4.13872 1.6556 4.06603 1.66683 4 1.66683C3.52682 1.66683 2.84394 1.91839 2.27234 2.41855C1.71334 2.90767 1.33333 3.56998 1.33333 4.33349C1.33333 5.26756 1.49042 5.9603 1.81533 6.48016C2.13177 6.98646 2.65515 7.40471 3.54415 7.70104C3.89345 7.81747 4.08222 8.19502 3.96579 8.54431C3.84936 8.89361 3.47181 9.08238 3.12251 8.96595C2.01151 8.59562 1.20157 8.01386 0.684668 7.18683C0.176249 6.37336 0 5.39943 0 4.33349C0 3.09701 0.619992 2.09266 1.39433 1.41511C2.14497 0.758297 3.11126 0.34563 3.96237 0.333758L5.89463 0.437556C7.02559 0.726362 8.43791 1.48037 9.85391 3.25036C10.8713 4.52214 11.5694 6.169 12.0136 7.69756C12.0171 7.70954 12.0206 7.72152 12.024 7.7335C12.0248 7.73095 12.0256 7.72841 12.0264 7.72586C12.4977 6.19751 13.238 4.55254 14.3153 3.28363Z" fill="#9E1256"/>
</svg>
