<svg width="36" height="20" viewBox="0 0 36 20" fill="none" xmlns="http://www.w3.org/2000/svg">
<g id="icon">
<path d="M17.2001 2.7335C17.6001 2.20016 18.4001 2.20016 18.8001 2.7335L21.6001 6.46683C22.8001 8.06683 25.2001 8.06683 26.4001 6.46683L29.05 2.93361C29.4715 2.37167 30.3258 2.40796 30.698 3.00361L34.1521 8.53016C34.4448 8.9985 35.0618 9.14087 35.5301 8.84816C35.9985 8.55545 36.1408 7.9385 35.8481 7.47016L32.394 1.94362C31.2772 0.156645 28.7144 0.0477885 27.45 1.73361L24.8001 5.26683C24.4001 5.80016 23.6001 5.80016 23.2001 5.26683L20.4001 1.5335C19.2001 -0.0665042 16.8001 -0.0665036 15.6001 1.5335L12.8001 5.26683C12.4001 5.80016 11.6001 5.80016 11.2001 5.26683L8.55022 1.73361C7.28585 0.047788 4.72308 0.156645 3.60623 1.94362L0.152136 7.47016C-0.140575 7.9385 0.00179839 8.55545 0.470135 8.84816C0.938471 9.14087 1.55542 8.9985 1.84813 8.53016L5.30222 3.00361C5.67451 2.40796 6.52877 2.37167 6.95022 2.93361L9.60013 6.46683C10.8001 8.06683 13.2001 8.06683 14.4001 6.46683L17.2001 2.7335Z" fill="#9E1256"/>
<path d="M17.2001 13.7335C17.6001 13.2002 18.4001 13.2002 18.8001 13.7335L21.6001 17.4668C22.8001 19.0668 25.2001 19.0668 26.4001 17.4668L29.05 13.9336C29.4715 13.3717 30.3258 13.408 30.698 14.0036L34.1521 19.5302C34.4448 19.9985 35.0618 20.1409 35.5301 19.8482C35.9985 19.5555 36.1408 18.9385 35.8481 18.4702L32.394 12.9436C31.2772 11.1566 28.7144 11.0478 27.45 12.7336L24.8001 16.2668C24.4001 16.8002 23.6001 16.8002 23.2001 16.2668L20.4001 12.5335C19.2001 10.9335 16.8001 10.9335 15.6001 12.5335L12.8001 16.2668C12.4001 16.8002 11.6001 16.8002 11.2001 16.2668L8.55022 12.7336C7.28585 11.0478 4.72308 11.1566 3.60623 12.9436L0.152136 18.4702C-0.140575 18.9385 0.00179839 19.5555 0.470135 19.8482C0.938471 20.1409 1.55542 19.9985 1.84813 19.5302L5.30222 14.0036C5.67451 13.408 6.52877 13.3717 6.95022 13.9336L9.60013 17.4668C10.8001 19.0668 13.2001 19.0668 14.4001 17.4668L17.2001 13.7335Z" fill="#9E1256"/>
</g>
</svg>
