<svg width="35" height="36" viewBox="0 0 35 36" fill="none" xmlns="http://www.w3.org/2000/svg">
<path id="icon" fill-rule="evenodd" clip-rule="evenodd" d="M17.1344 0C14.8623 0 12.6832 0.902616 11.0765 2.50928C9.76575 3.82004 8.91548 5.52057 8.65333 7.35564L8.38019 9.26758C8.11746 11.1067 8.21406 12.9794 8.66465 14.7817L9.59324 18.4961C8.79125 18.176 7.91618 18 7 18C3.13401 18 0 21.134 0 25C0 28.866 3.13401 32 7 32C10.866 32 14 28.866 14 25C14 23.0839 13.2301 21.3476 11.9828 20.0836C11.9603 19.8102 11.9155 19.5389 11.8489 19.2724L10.6049 14.2966C10.2171 12.7453 10.1339 11.1334 10.3601 9.55042L10.6332 7.63848C10.8342 6.23181 11.486 4.92826 12.4907 3.9235C13.7223 2.6919 15.3927 2 17.1344 2H18.5266C19.3727 2 20.211 2.16144 20.9966 2.47567L21.2726 2.58608C23.082 3.30985 24.4338 4.8585 24.9065 6.74913C25.594 9.49928 25.4831 12.3885 24.5866 15.0778L23.0392 19.7202L21.3926 26.3064C21.1179 27.4055 21.0906 28.5519 21.3128 29.6628L21.4119 30.1585C21.8572 32.3849 23.3967 34.2357 25.5048 35.0789C27.1066 35.7197 28.8934 35.7197 30.4952 35.0789L30.6867 35.0023C32.6625 34.212 34.1901 32.5919 34.863 30.5732L34.9487 30.3162C35.1233 29.7923 34.8402 29.226 34.3162 29.0513C33.7923 28.8767 33.226 29.1598 33.0513 29.6838L32.9657 29.9407C32.4788 31.4014 31.3735 32.5736 29.944 33.1454L29.7524 33.222C28.6275 33.672 27.3725 33.672 26.2476 33.222C24.7671 32.6298 23.6858 31.3299 23.3731 29.7663L23.2739 29.2706C23.1098 28.45 23.13 27.6033 23.3329 26.7914L24.9608 20.2798L26.484 15.7102C27.5007 12.6601 27.6266 9.38322 26.8468 6.26406C26.2184 3.7504 24.4211 1.69141 22.0154 0.729125L21.7394 0.618715C20.7176 0.209994 19.6272 0 18.5266 0H17.1344ZM12.25 25C12.25 27.8995 9.8995 30.25 7 30.25C4.1005 30.25 1.75 27.8995 1.75 25C1.75 22.1005 4.1005 19.75 7 19.75C9.8995 19.75 12.25 22.1005 12.25 25Z" fill="#9E1256"/>
</svg>
