<svg width="37" height="33" viewBox="0 0 37 33" fill="none" xmlns="http://www.w3.org/2000/svg">
<path id="icon" fill-rule="evenodd" clip-rule="evenodd" d="M0.375342 0.219168C0.806604 -0.125842 1.4359 -0.0559202 1.78091 0.375342L5.0182 4.42196L7.71184 1.2094C8.91321 -0.223403 11.1183 -0.220068 12.3154 1.21636L15 4.43799L17.6954 1.20358C18.8948 -0.235682 21.1053 -0.235678 22.3047 1.20358L25.3047 4.80358C25.754 5.34273 26 6.02233 26 6.72414V8.60604C26.6692 7.96459 27.2493 7.45025 27.7938 7.0613C28.8249 6.32479 29.7756 6.00004 31 6.00004C31.791 6.00004 32.6884 6.37328 33.4865 6.99C34.3079 7.62472 35.098 8.57066 35.6638 9.8439C36.8031 12.4072 36.9979 16.198 34.9285 21.3714C33.4183 25.1469 31.0137 27.6654 28.492 29.2987C29.5477 30.1279 31.0309 30.7751 33.1105 31.0062C33.6594 31.0671 34.0549 31.5616 33.9939 32.1105C33.9329 32.6594 33.4385 33.0549 32.8896 32.9939C30.0637 32.6799 28.0405 31.6732 26.6412 30.3393C24.0889 31.5733 21.61 32 20 32C19.4478 32 19 31.5523 19 31C19 30.4478 19.4478 30 20 30C21.2843 30 23.2562 29.6728 25.3353 28.7432C25.333 28.7395 25.3307 28.7358 25.3283 28.7321C24.0596 26.7133 23.8246 24.457 24 22.9401V6.72414C24 6.4902 23.918 6.26367 23.7683 6.08395L20.7683 2.48395C20.3685 2.0042 19.6316 2.0042 19.2318 2.48395L16 6.36208V27C16 27.5523 15.5523 28 15 28C14.4478 28 14 27.5523 14 27V6.36209L10.7789 2.49673C10.3799 2.01792 9.64486 2.01681 9.24441 2.49441L6.00004 6.3638V27C6.00004 27.5523 5.55232 28 5.00004 28C4.44775 28 4.00004 27.5523 4.00004 27V6.35082L0.219168 1.62473C-0.125842 1.19347 -0.0559202 0.564178 0.375342 0.219168ZM26 23.0127C26.0002 23.0034 26.0002 22.9941 26 22.9849L26 11.4144C27.3561 10.0598 28.2172 9.21666 28.9563 8.68877C29.6752 8.17528 30.2244 8.00004 31 8.00004C31.2091 8.00004 31.6867 8.12679 32.2636 8.57257C32.8172 9.00035 33.4021 9.67941 33.8362 10.6562C34.697 12.5929 35.0022 15.8021 33.0716 20.6286C31.6807 24.1057 29.4303 26.3729 27.1101 27.8048C27.0799 27.7593 27.0504 27.7137 27.0217 27.6679C26.2517 26.4427 25.9712 25.0845 25.9498 24H26V23.0127Z" fill="#9E1256"/>
</svg>
