<svg width="34" height="34" viewBox="0 0 34 34" fill="none" xmlns="http://www.w3.org/2000/svg">
<g id="icon">
<path d="M0.16008 0.457594C0.459499 -0.00602138 1.07784 -0.139361 1.54167 0.159451C1.54192 0.159612 1.54265 0.16008 1.00012 1.00012L0.457594 1.84016C-0.00634658 1.54053 -0.139548 0.921535 0.16008 0.457594Z" fill="#9E1256"/>
<path fill-rule="evenodd" clip-rule="evenodd" d="M10.0001 28.6769V5.32336C8.05756 4.94152 6.37281 4.44163 4.98359 3.94087C3.55253 3.42502 2.43317 2.90758 1.66606 2.5156C1.28241 2.31956 0.986558 2.15474 0.783545 2.03695C0.682028 1.97804 0.603691 1.93088 0.549166 1.89743L0.485299 1.85778L0.466898 1.84612L0.461105 1.84242L0.457594 1.84016C0.457251 1.83994 0.457594 1.84016 1.00012 1.00012L1.54167 0.159451L1.55107 0.165408L1.59498 0.192651C1.63596 0.217795 1.70027 0.256571 1.78726 0.307044C1.96126 0.408003 2.22589 0.555681 2.57611 0.734641C3.27675 1.09266 4.31868 1.57522 5.66181 2.05937C8.34867 3.02789 12.2333 4.00012 17.0001 4.00012C21.767 4.00012 25.6516 3.02789 28.3384 2.05937C29.6816 1.57522 30.7235 1.09266 31.4241 0.734641C31.7743 0.555681 32.039 0.408003 32.213 0.307044C32.3 0.256571 32.3643 0.217795 32.4053 0.192651L32.4492 0.165408L32.4576 0.16008C32.9215 -0.139112 33.5406 -0.0061729 33.8402 0.457594C34.1398 0.921535 34.0066 1.54053 33.5426 1.84016L33.0001 1.00012C33.5426 1.84016 33.543 1.83994 33.5426 1.84016L33.5391 1.84242L33.5333 1.84612L33.5149 1.85778L33.4511 1.89743C33.3965 1.93088 33.3182 1.97804 33.2167 2.03695C33.0137 2.15474 32.7178 2.31956 32.3342 2.5156C31.5671 2.90758 30.4477 3.42502 29.0166 3.94087C27.6274 4.44163 25.9427 4.94152 24.0001 5.32336V28.6769C25.9427 29.0587 27.6274 29.5586 29.0166 30.0594C30.4477 30.5752 31.5671 31.0927 32.3342 31.4846C32.7178 31.6807 33.0137 31.8455 33.2167 31.9633C33.3182 32.0222 33.3965 32.0694 33.4511 32.1028L33.5149 32.1425L33.5333 32.1541L33.5391 32.1578L33.5412 32.1591C33.5415 32.1594 33.5426 32.1601 33.0001 33.0001L33.5412 32.1591C34.0051 32.4588 34.1398 33.0787 33.8402 33.5426C33.5406 34.0064 32.922 34.1397 32.4581 33.8405L32.4492 33.8348L32.4053 33.8076C32.3643 33.7824 32.3 33.7437 32.213 33.6932C32.039 33.5922 31.7743 33.4446 31.4241 33.2656C30.7235 32.9076 29.6816 32.425 28.3384 31.9409C25.6516 30.9723 21.767 30.0001 17.0001 30.0001C12.2333 30.0001 8.34867 30.9723 5.66181 31.9409C4.31868 32.425 3.27675 32.9076 2.57611 33.2656C2.22589 33.4446 1.96126 33.5922 1.78726 33.6932C1.70027 33.7437 1.63596 33.7824 1.59498 33.8076L1.55107 33.8348L1.54265 33.8402L1.00012 33.0001C0.457594 32.1601 0.457914 32.1599 0.458258 32.1596L0.461105 32.1578L0.466898 32.1541L0.485299 32.1425L0.549166 32.1028C0.603691 32.0694 0.682028 32.0222 0.783545 31.9633C0.986558 31.8455 1.28241 31.6807 1.66606 31.4846C2.43317 31.0927 3.55253 30.5752 4.98359 30.0594C6.37281 29.5586 8.05756 29.0587 10.0001 28.6769ZM12.0001 28.3425C13.5407 28.1295 15.2122 28.0001 17.0001 28.0001C18.788 28.0001 20.4596 28.1295 22.0001 28.3425V5.65778C20.4596 5.87076 18.788 6.00012 17.0001 6.00012C15.2122 6.00012 13.5407 5.87076 12.0001 5.65778V28.3425Z" fill="#9E1256"/>
<path d="M1.54265 33.8402C1.54247 33.8403 1.54282 33.84 1.54265 33.8402V33.8402Z" fill="#9E1256"/>
<path d="M1.54265 33.8402C1.07876 34.1393 0.459596 34.0064 0.16008 33.5426C-0.139548 33.0787 -0.00568312 32.4593 0.458258 32.1596L1.00012 33.0001C1.54265 33.8402 1.54289 33.84 1.54265 33.8402Z" fill="#9E1256"/>
</g>
</svg>
