<svg width="26" height="36" viewBox="0 0 26 36" fill="none" xmlns="http://www.w3.org/2000/svg">
<path id="icon" d="M2.55279 0.105792C3.04676 -0.141197 3.64744 0.059027 3.89443 0.553005L5.985 4.73415C7.76303 8.29022 8.76871 12.1256 8.99657 16.0002H17.0034C17.2313 12.1256 18.237 8.29022 20.015 4.73415L22.1056 0.553005C22.3526 0.059027 22.9532 -0.141197 23.4472 0.105792C23.9412 0.352781 24.1414 0.953454 23.8944 1.44743L21.8039 5.62858C20.1664 8.90346 19.2325 12.4328 19.0071 16.0002H25C25.5523 16.0002 26 16.4479 26 17.0002C26 17.5525 25.5523 18.0002 25 18.0002H18.955C18.9949 21.6347 19.7683 25.2668 21.2805 28.6691L23.9138 34.5941C24.1381 35.0988 23.9108 35.6897 23.4061 35.914C22.9015 36.1383 22.3105 35.911 22.0862 35.4064L19.4529 29.4814C17.8257 25.8202 16.9949 21.9112 16.9549 18.0002H9.0451C9.00514 21.9112 8.17435 25.8202 6.54714 29.4814L3.91381 35.4064C3.68951 35.911 3.09855 36.1383 2.59386 35.914C2.08918 35.6897 1.86188 35.0988 2.08619 34.5941L4.71952 28.6691C6.23166 25.2668 7.00509 21.6347 7.04499 18.0002H1C0.447715 18.0002 0 17.5525 0 17.0002C0 16.4479 0.447715 16.0002 1 16.0002H6.99286C6.76746 12.4328 5.83359 8.90346 4.19615 5.62858L2.10557 1.44743C1.85858 0.953454 2.05881 0.352781 2.55279 0.105792Z" fill="#9E1256"/>
</svg>
