<svg width="24" height="25" viewBox="0 0 24 25" fill="none" xmlns="http://www.w3.org/2000/svg">
<g id="horoscope 2">
<g id="g1215">
<g id="g1217">
<g id="Clip path group">
<mask id="mask0_906_35561" style="mask-type:luminance" maskUnits="userSpaceOnUse" x="1" y="1" width="22" height="23">
<g id="clipPath1223">
<path id="path1221" d="M1 1.5H23V23.5H1V1.5Z" fill="white"/>
</g>
</mask>
<g mask="url(#mask0_906_35561)">
<g id="g1219">
<g id="g1225">
<path id="path1227" d="M11.998 16.7325V15.049M11.998 15.049C10.5903 15.049 9.4491 13.9078 9.4491 12.5001M11.998 15.049C13.4057 15.049 14.5468 13.9078 14.5468 12.5001M11.998 9.95122V8.26766M11.998 9.95122C12.4623 9.95122 12.8976 10.0754 13.2726 10.2924L13.2724 10.2927L14.1142 8.83472M11.998 9.95122C10.5903 9.95122 9.4491 11.0924 9.4491 12.5001M9.88175 16.1655L10.7235 14.7075M9.4491 12.5001H7.76554M14.5468 12.5001C14.5468 12.0357 14.4227 11.6004 14.2057 11.2255L14.2054 11.2257L15.6634 10.3839M14.5468 12.5001H16.2304M8.3326 14.6163L9.79057 13.7745M8.3326 10.3839L9.79057 11.2257M14.2054 13.7745L15.6634 14.6163M9.88175 8.83472L10.7235 10.2927M13.2724 14.7075L14.1142 16.1655M18.3678 7.334L19.6569 9.56669M20.5178 8.76133C19.6791 8.57687 18.7886 9.09099 18.529 9.90967M17.5069 8.13936C18.3457 8.32382 19.2361 7.8097 19.4958 6.99106M14.7165 5.21332L15.0598 5.90769L15.8329 5.85785L16.1762 6.55222L16.9492 6.50238M15.361 4.09699L15.7044 4.79136L16.4774 4.74152L16.8207 5.43589L17.5937 5.38605M12.4179 5.57911C12.5089 5.64846 12.6226 5.68967 12.7458 5.68967C13.0447 5.68967 13.287 5.44732 13.287 5.14839C13.287 4.8495 13.1186 4.33121 12.9187 3.81851M12.9187 3.81851L13.287 3.30409M12.9187 3.81851H11.998L11.3534 5.09498L10.7089 3.81851M7.53738 5.66616L8.21379 5.8474M8.83748 4.7963L8.35627 3.96279M8.35627 3.96279L7.52281 4.44404M8.35627 3.96279L7.54013 7.00863M4.80078 13.7891V11.1226M3.51172 11.211V11.8556C3.15577 11.8556 2.86719 12.1441 2.86719 12.5001C2.86719 12.856 3.15577 13.1446 3.51172 13.1446V13.7891M5.01447 6.69922C5.2532 6.9786 5.76805 7.58111 6.01933 7.87519C6.19443 8.0801 6.2695 8.33912 6.12667 8.58645C6.0055 8.79644 5.75013 8.8929 5.49309 8.74453C5.38731 8.68347 5.13027 8.53506 4.98357 8.45037C4.52295 8.18439 4.12308 7.99666 3.85452 8.4618C3.70641 8.71841 3.61931 9.15119 3.61931 9.15119L5.18088 10.0528M5.18088 14.9475C5.03685 15.237 4.82588 15.661 4.6613 15.9917C4.3744 16.5684 4.16046 17.0682 4.42897 17.5334C4.57713 17.7899 4.90838 18.0817 4.90838 18.0817L6.46995 17.1802M3.49724 15.9195L5.82541 16.0638M7.818 17.802C8.16601 17.8481 8.46615 18.1531 8.24211 18.5411C8.0252 18.9168 7.31243 19.0339 7.0239 19.5336C6.80012 19.9212 6.96482 20.4352 7.39175 20.6817C7.81865 20.9282 8.34613 20.8138 8.56991 20.4262C8.73221 20.1451 8.84156 19.681 8.84156 19.681L9.06698 19.8111M13.0022 19.6335C12.5109 19.329 11.7144 19.329 11.2231 19.6335C10.746 19.9292 10.8973 20.5996 11.436 20.5996M10.9937 21.5657C11.485 21.8702 12.2816 21.8702 12.7728 21.5657C13.2499 21.27 13.0987 20.5996 12.56 20.5996M15.8524 20.5664L15.0345 19.1498M17.0564 19.8712L16.2385 18.4547M14.5926 19.2078C15.2985 19.2079 16.1568 18.7123 16.5097 18.101M17.5028 19.8211C16.7969 19.8211 15.9386 20.3166 15.5858 20.9279M20.5936 16.4573C20.1771 16.2169 19.6446 16.3596 19.4041 16.7761M19.4041 16.7761C19.1637 17.1925 19.3063 17.725 19.7228 17.9655M19.4041 16.7761C19.6446 16.3596 19.5019 15.8271 19.0854 15.5866C18.6689 15.3462 18.1364 15.4889 17.896 15.9053C17.6555 16.3218 17.7982 16.8543 18.2147 17.0948C18.6312 17.3352 19.1637 17.1925 19.4041 16.7761ZM19.2432 12.5001H20.4424M20.4424 12.5001C20.7984 12.5001 21.087 12.2115 21.087 11.8556C21.087 11.4996 20.7984 11.211 20.4424 11.211M20.4424 12.5001C20.7984 12.5001 21.087 12.7887 21.087 13.1446C21.087 13.5006 20.7984 13.7891 20.4424 13.7891M6.47648 12.5001C6.47648 15.5495 8.94856 18.0216 11.998 18.0216C15.0474 18.0216 17.5194 15.5495 17.5194 12.5001C17.5194 9.45068 15.0474 6.9786 11.998 6.9786C9.39242 6.9786 7.20836 8.78337 6.62777 11.211M19.3602 4.76644C21.4027 6.71133 22.6756 9.45708 22.6756 12.5001C22.6756 18.3972 17.8951 23.1777 11.998 23.1777C11.2579 23.1777 10.5355 23.1025 9.83784 22.9591M8.6073 22.6281C4.37234 21.211 1.32031 17.212 1.32031 12.5001C1.32031 6.60301 6.10089 1.82248 11.998 1.82248C14.2886 1.82248 16.4107 2.54375 18.1496 3.77154" stroke="#313131" stroke-width="0.7" stroke-miterlimit="10" stroke-linecap="round" stroke-linejoin="round"/>
</g>
</g>
</g>
</g>
</g>
</g>
</g>
</svg>
