<svg width="38" height="34" viewBox="0 0 38 34" fill="none" xmlns="http://www.w3.org/2000/svg">
<path id="icon" fill-rule="evenodd" clip-rule="evenodd" d="M0 1C0 0.447715 0.447715 0 1 0H1.76606C4.73389 0 7.61336 1.01006 9.93085 2.86405C11.1439 3.83451 12.1743 5.01346 12.9735 6.34556L13.8409 7.79118C14.5541 8.97991 15.1351 10.2431 15.5735 11.5583L15.8712 12.4513C16.8629 12.1577 17.913 12 19 12C20.087 12 21.1371 12.1577 22.1288 12.4513L22.4265 11.5583C22.8649 10.2431 23.4459 8.97991 24.1591 7.79118L25.0265 6.34556C25.8257 5.01346 26.8561 3.83451 28.0692 2.86405C30.3866 1.01006 33.2661 0 36.2339 0H37C37.5523 0 38 0.447715 38 1C38 1.55228 37.5523 2 37 2H36.2339C33.7203 2 31.2814 2.8555 29.3185 4.42579C28.2911 5.24775 27.4184 6.24629 26.7415 7.37455L25.8741 8.82017C25.2359 9.88377 24.7161 11.014 24.3238 12.1907L23.9894 13.194C27.5568 15.0128 30 18.7211 30 23C30 29.0751 25.0751 34 19 34C12.9249 34 8 29.0751 8 23C8 18.7211 10.4432 15.0128 14.0106 13.194L13.6762 12.1907C13.2839 11.014 12.7641 9.88377 12.1259 8.82017L11.2585 7.37455C10.5816 6.24629 9.7089 5.24775 8.68146 4.42579C6.7186 2.8555 4.27975 2 1.76606 2H1C0.447715 2 0 1.55228 0 1ZM19 32C23.9706 32 28 27.9706 28 23C28 18.0294 23.9706 14 19 14C14.0294 14 10 18.0294 10 23C10 27.9706 14.0294 32 19 32Z" fill="#9E1256"/>
</svg>
