<svg width="38" height="38" viewBox="0 0 38 38" fill="none" xmlns="http://www.w3.org/2000/svg">
<g id="icon">
<path fill-rule="evenodd" clip-rule="evenodd" d="M19.0001 38C26.6279 38 33.2059 33.505 36.2298 27.0194C37.3371 25.6468 38 23.9008 38 22C38 17.5817 34.4183 14 30 14C25.5817 14 22 17.5817 22 22C22 26.4183 25.5817 30 30 30C30.7706 30 31.5159 29.891 32.2211 29.6876C29.1044 33.5382 24.3398 36 19.0001 36C14.987 36 11.2987 34.6095 8.39071 32.2839C7.97008 31.8084 7.44597 31.2567 7.21821 31.1725C7.02658 31.1017 6.82619 31.0627 6.65057 31.0627C6.09828 31.0627 5.65057 31.5105 5.65057 32.0627C5.65057 32.3855 5.80349 32.6726 6.04084 32.8554L6.00757 32.8635C9.40541 36.0492 13.9749 38 19.0001 38ZM34.5384 25.9248C35.449 24.8727 36 23.5007 36 22C36 18.6863 33.3137 16 30 16C26.6863 16 24 18.6863 24 22C24 25.3137 26.6863 28 30 28C31.804 28 33.4221 27.2038 34.522 25.9437L34.5294 25.927L34.5384 25.9248Z" fill="#9E1256"/>
<path fill-rule="evenodd" clip-rule="evenodd" d="M19.0001 0C26.4503 0 32.899 4.28807 36.0128 10.5308C36.0128 10.3473 36.0408 10.6531 36.0128 10.5308C36.0128 11.0831 36.1234 12 35 12C34.4477 12 34 11 34 11C34 10.9952 33.9988 10.9906 33.9966 10.9864C31.1327 5.63804 25.4912 2 19.0001 2C12.4611 2 6.78442 5.69186 3.94071 11.1049C5.13071 10.4028 6.51831 10 8 10C12.4183 10 16 13.5817 16 18C16 22.4183 12.4183 26 8 26C4.01213 26 0.70577 23.0821 0.0994317 19.2649L0.00223827 19.2885C0.000809288 19.1925 9.22726e-05 19.0963 9.22726e-05 19C9.22726e-05 18.7974 0.00326293 18.5956 0.00955732 18.3945C0.00321033 18.2638 0 18.1323 0 18C0 17.374 0.0719076 16.7647 0.207914 16.1801C1.57018 7.024 9.46487 0 19.0001 0ZM2.01143 18.3734C2.20419 21.5132 4.81167 24 8 24C11.3137 24 14 21.3137 14 18C14 14.6863 11.3137 12 8 12C5.18258 12 2.81873 13.9419 2.17385 16.5602C2.08835 17.1552 2.03365 17.7601 2.01143 18.3734Z" fill="#9E1256"/>
</g>
</svg>
