<svg width="34" height="34" viewBox="0 0 34 34" fill="none" xmlns="http://www.w3.org/2000/svg">
<path id="icon" d="M33.9241 0.617217C33.8753 0.499271 33.803 0.38877 33.7071 0.292893L33 0H17C16.4477 0 16 0.447715 16 1C16 1.55229 16.4477 2 17 2H30.5858L12 20.5858L5.70711 14.2929C5.31658 13.9024 4.68342 13.9024 4.29289 14.2929C3.90237 14.6834 3.90237 15.3166 4.29289 15.7071L10.5858 22L0.292893 32.2929C-0.097631 32.6834 -0.097631 33.3166 0.292893 33.7071C0.683417 34.0976 1.31658 34.0976 1.70711 33.7071L12 23.4142L18.2929 29.7071C18.6834 30.0976 19.3166 30.0976 19.7071 29.7071C20.0976 29.3166 20.0976 28.6834 19.7071 28.2929L13.4142 22L32 3.41421V16C32 16.5523 32.4477 17 33 17C33.5523 17 34 16.5523 34 16V1C34 0.86441 33.973 0.735124 33.9241 0.617217Z" fill="#9E1256"/>
</svg>
