<svg width="34" height="33" viewBox="0 0 34 33" fill="none" xmlns="http://www.w3.org/2000/svg">
<g id="icon">
<path d="M24 24C24 23.4477 24.4477 23 25 23H24.9375C27.4287 20.8012 29 17.5841 29 14C29 7.37259 23.6274 2 17 2C10.3726 2 5 7.37259 5 14C5 17.5841 6.57126 20.8012 9.06253 23H9C9.55228 23 10 23.4477 10 24C10 24.5523 9.55228 25 9 25H1C0.447723 25 0 24.5523 0 24C0 23.4477 0.447723 23 1 23H6.27579C4.23138 20.5665 3 17.427 3 14C3 6.26801 9.26801 0 17 0C24.732 0 31 6.26801 31 14C31 17.427 29.7686 20.5665 27.7242 23H33C33.5523 23 34 23.4477 34 24C34 24.5523 33.5523 25 33 25H25C24.4477 25 24 24.5523 24 24Z" fill="#9E1256"/>
<path d="M1 31C0.447723 31 0 31.4477 0 32C0 32.5523 0.447723 33 1 33H33C33.5523 33 34 32.5523 34 32C34 31.4477 33.5523 31 33 31H1Z" fill="#9E1256"/>
</g>
</svg>
