<svg width="35" height="35" viewBox="0 0 35 35" fill="none" xmlns="http://www.w3.org/2000/svg">
<path id="icon" d="M1.78091 0.375342C1.4359 -0.0559201 0.806604 -0.125842 0.375342 0.219168C-0.0559201 0.564178 -0.125842 1.19347 0.219168 1.62473L4.00004 6.35082V27H6.00004V6.3638L9.24441 2.49441C9.64486 2.01681 10.3799 2.01792 10.7789 2.49673L14 6.36209V27H16V6.36208L19.2318 2.48395C19.6316 2.0042 20.3685 2.0042 20.7683 2.48395L23.7683 6.08395C23.918 6.26367 24 6.4902 24 6.72414V21.9966L24 22V26.6973C24 27.7442 24.3099 28.7676 24.8906 29.6387C25.8741 31.1139 27.5298 32 29.3028 32H31V34.5172C31 34.6954 31.2155 34.7846 31.3415 34.6586L34.8586 31.1415C34.9367 31.0633 34.9367 30.9367 34.8586 30.8586L31.3415 27.3415C31.2155 27.2155 31 27.3047 31 27.4829V30H29.3028C28.1985 30 27.1673 29.4481 26.5547 28.5293C26.193 27.9868 26 27.3493 26 26.6973L26 6.72414C26 6.02233 25.754 5.34273 25.3047 4.80358L22.3047 1.20358C21.1053 -0.235678 18.8948 -0.235682 17.6954 1.20358L15 4.43799L12.3154 1.21636C11.1183 -0.220068 8.91321 -0.223403 7.71184 1.2094L5.0182 4.42196L1.78091 0.375342Z" fill="#9E1256"/>
</svg>
