<svg width="41" height="40" viewBox="0 0 41 40" fill="none" xmlns="http://www.w3.org/2000/svg">
<g id="icn_Play Store">
<g id="Group">
<g id="Group_2">
<path id="Vector" d="M26.3291 4C26.4035 4 26.478 4 26.5567 4C26.7394 6.25655 25.878 7.94264 24.8313 9.16365C23.8042 10.3762 22.3977 11.5523 20.1229 11.3738C19.9711 9.1496 20.8338 7.58856 21.8792 6.37036C22.8487 5.23506 24.6261 4.22481 26.3291 4Z" fill="white"/>
<path id="Vector_2" d="M33.2155 27.49C33.2155 27.5125 33.2155 27.5322 33.2155 27.5532C32.5762 29.4894 31.6643 31.1488 30.5515 32.6888C29.5356 34.0868 28.2907 35.9682 26.0679 35.9682C24.1472 35.9682 22.8714 34.7332 20.9028 34.6994C18.8205 34.6657 17.6754 35.7322 15.7715 36.0005C15.5537 36.0005 15.3359 36.0005 15.1224 36.0005C13.7243 35.7982 12.596 34.691 11.7741 33.6934C9.35033 30.7456 7.47736 26.9378 7.12891 22.065C7.12891 21.5873 7.12891 21.111 7.12891 20.6332C7.27644 17.1459 8.97096 14.3104 11.2233 12.9362C12.412 12.2056 14.0461 11.5832 15.8657 11.8614C16.6455 11.9822 17.4421 12.2492 18.1405 12.5133C18.8023 12.7676 19.6298 13.2187 20.4139 13.1948C20.945 13.1793 21.4733 12.9025 22.0086 12.7072C23.5767 12.141 25.1139 11.4918 27.14 11.7967C29.575 12.1649 31.3032 13.2468 32.3711 14.916C30.3112 16.2269 28.6827 18.2025 28.9609 21.576C29.2082 24.6405 30.9899 26.4334 33.2155 27.49Z" fill="white"/>
</g>
</g>
</g>
</svg>
