<svg width="41" height="40" viewBox="0 0 41 40" fill="none" xmlns="http://www.w3.org/2000/svg">
<g id="icn_Play Store">
<g id="_x34_2.Google_PLay">
<path id="Vector" d="M32.9477 17.5988L27.5285 14.4688L21.9805 20.0168L27.5281 25.5644L32.9661 22.4239C33.8141 21.9087 34.3201 21.0088 34.3201 20.0168C34.3201 19.0248 33.8137 18.1248 32.9477 17.5988Z" fill="#FFCE00"/>
<path id="Vector_2" d="M21.9798 20.0173L6.86824 4.79688C6.34264 5.32248 6.02344 6.03567 6.02344 6.82407V33.1641C6.02344 33.9525 6.34264 34.6657 6.86824 35.1917L21.9798 20.0173Z" fill="url(#paint0_linear_345_9147)"/>
<path id="Vector_3" d="M21.9866 20.0189L27.5346 14.4709L27.5434 14.4621L20.1098 10.1821L10.3106 4.4229C9.4282 3.8785 8.3582 3.8597 7.457 4.3665C7.2506 4.4977 7.0626 4.6293 6.875 4.7981L21.9866 20.0189Z" fill="#00F076"/>
<path id="Vector_4" d="M6.875 35.1896C7.0626 35.3584 7.2506 35.49 7.457 35.6212C7.9074 35.8652 8.377 35.9968 8.8462 35.9968C9.353 35.9968 9.841 35.8468 10.2918 35.584L20.1094 29.8524L27.543 25.5724L27.5342 25.5636L21.9866 20.0156L6.875 35.1896Z" fill="#F63448"/>
</g>
</g>
<defs>
<linearGradient id="paint0_linear_345_9147" x1="-0.730163" y1="27.5929" x2="14.467" y2="12.3953" gradientUnits="userSpaceOnUse">
<stop stop-color="#00E2FF"/>
<stop offset="1" stop-color="#00C5FF"/>
</linearGradient>
</defs>
</svg>
