<svg width="25" height="24" viewBox="0 0 25 24" fill="none" xmlns="http://www.w3.org/2000/svg">
<g id="instagram 1" clip-path="url(#clip0_345_3060)">
<path id="Vector" d="M1.98409 1.63231C0.098086 3.59131 0.484086 5.67231 0.484086 11.9943C0.484086 17.2443 -0.431914 22.5073 4.36209 23.7463C5.85909 24.1313 19.1231 24.1313 20.6181 23.7443C22.6141 23.2293 24.2381 21.6103 24.4601 18.7873C24.4911 18.3933 24.4911 5.60231 24.4591 5.20031C24.2231 2.19331 22.3721 0.460314 19.9331 0.109314C19.3741 0.028314 19.2621 0.00431397 16.3941 -0.000686027C6.22109 0.00431397 3.99109 -0.448686 1.98409 1.63231Z" fill="url(#paint0_linear_345_3060)"/>
<path id="Vector_2" d="M12.4822 3.13941C8.85119 3.13941 5.40319 2.81641 4.08619 6.19641C3.54219 7.59241 3.62119 9.40541 3.62119 12.0014C3.62119 14.2794 3.54819 16.4204 4.08619 17.8054C5.40019 21.1874 8.87619 20.8634 12.4802 20.8634C15.9572 20.8634 19.5422 21.2254 20.8752 17.8054C21.4202 16.3954 21.3402 14.6094 21.3402 12.0014C21.3402 8.53941 21.5312 6.30441 19.8522 4.62641C18.1522 2.92641 15.8532 3.13941 12.4782 3.13941H12.4822ZM11.6882 4.73641C19.2622 4.72441 20.2262 3.88241 19.6942 15.5794C19.5052 19.7164 16.3552 19.2624 12.4832 19.2624C5.42319 19.2624 5.22019 19.0604 5.22019 11.9974C5.22019 4.85241 5.78019 4.74041 11.6882 4.73441V4.73641ZM17.2122 6.20741C16.6252 6.20741 16.1492 6.68341 16.1492 7.27041C16.1492 7.85741 16.6252 8.33341 17.2122 8.33341C17.7992 8.33341 18.2752 7.85741 18.2752 7.27041C18.2752 6.68341 17.7992 6.20741 17.2122 6.20741ZM12.4822 7.45041C9.96919 7.45041 7.93219 9.48841 7.93219 12.0014C7.93219 14.5144 9.96919 16.5514 12.4822 16.5514C14.9952 16.5514 17.0312 14.5144 17.0312 12.0014C17.0312 9.48841 14.9952 7.45041 12.4822 7.45041ZM12.4822 9.04741C16.3872 9.04741 16.3922 14.9554 12.4822 14.9554C8.57819 14.9554 8.57219 9.04741 12.4822 9.04741Z" fill="white"/>
</g>
<defs>
<linearGradient id="paint0_linear_345_3060" x1="0.547779" y1="-0.0387812" x2="24.5252" y2="0.00307018" gradientUnits="userSpaceOnUse">
<stop stop-color="#9E1256"/>
<stop offset="0.265625" stop-color="#CE164F"/>
<stop offset="0.5" stop-color="#E74249"/>
<stop offset="0.770833" stop-color="#ED6E49"/>
<stop offset="1" stop-color="#F9B048"/>
</linearGradient>
<clipPath id="clip0_345_3060">
<rect width="24" height="24" fill="white" transform="translate(0.484375)"/>
</clipPath>
</defs>
</svg>
