<svg width="29" height="28" viewBox="0 0 29 28" fill="none" xmlns="http://www.w3.org/2000/svg">
<g id="kalasha 1" clip-path="url(#clip0_227_8884)">
<g id="Group">
<path id="Vector" d="M19.2533 7.33697C19.2898 7.10302 19.3083 6.86253 19.3083 6.61822C19.3083 4.39488 15.8422 1.32082 14.8791 0.509902C14.7368 0.389928 14.5296 0.389928 14.3872 0.509902C13.4242 1.32082 9.95801 4.39488 9.95801 6.61822C9.95801 6.86253 9.97655 7.10248 10.0131 7.33697" stroke="#9E1256" stroke-width="0.872538" stroke-miterlimit="10" stroke-linecap="round" stroke-linejoin="round"/>
<g id="Group_2">
<g id="Group_3">
<path id="Vector_2" d="M19.2285 6.00733C19.5088 5.4838 19.8709 4.993 20.3132 4.55182C21.6427 3.22611 23.4238 2.63169 25.1596 2.76421C25.3303 2.7773 25.4644 2.91199 25.477 3.08269C25.6035 4.81904 25.0031 6.59792 23.6736 7.92309C23.2449 8.35009 22.7699 8.70129 22.2639 8.97614" stroke="#9E1256" stroke-width="0.872538" stroke-miterlimit="10" stroke-linecap="round" stroke-linejoin="round"/>
<path id="Vector_3" d="M23.3971 4.83789L20.8848 7.34208" stroke="#9E1256" stroke-width="0.872538" stroke-miterlimit="10" stroke-linecap="round" stroke-linejoin="round"/>
</g>
<g id="Group_4">
<path id="Vector_4" d="M6.99965 8.97614C6.49358 8.70129 6.01859 8.35009 5.58996 7.92309C4.26043 6.59792 3.66001 4.81904 3.78653 3.08269C3.79908 2.91199 3.93323 2.7773 4.10392 2.76421C5.83972 2.63169 7.62079 3.22611 8.95032 4.55182C9.39259 4.993 9.75469 5.4838 10.035 6.00733" stroke="#9E1256" stroke-width="0.872538" stroke-miterlimit="10" stroke-linecap="round" stroke-linejoin="round"/>
<path id="Vector_5" d="M8.37857 7.34208L5.86621 4.83789" stroke="#9E1256" stroke-width="0.872538" stroke-miterlimit="10" stroke-linecap="round" stroke-linejoin="round"/>
</g>
</g>
<g id="Group_5">
<g id="Group_6">
<path id="Vector_6" d="M5.10322 19.1257C4.28086 16.4198 5.19211 13.4177 7.51143 11.6393L9.22378 10.3262H20.0422L21.7545 11.6393C23.9397 13.3146 24.8749 16.0767 24.2876 18.654" stroke="#9E1256" stroke-width="0.872538" stroke-miterlimit="10" stroke-linecap="round" stroke-linejoin="round"/>
<path id="Vector_7" d="M9.0459 26.7051L9.17351 26.9412C9.36819 27.3012 9.74447 27.5253 10.154 27.5253H19.1117C19.5213 27.5253 19.8975 27.3012 20.0922 26.9412L20.7712 25.6875" stroke="#9E1256" stroke-width="0.872538" stroke-miterlimit="10" stroke-linecap="round" stroke-linejoin="round"/>
<path id="Vector_8" d="M23.4907 20.6621L22.4033 22.6706" stroke="#9E1256" stroke-width="0.872538" stroke-miterlimit="10" stroke-linecap="round" stroke-linejoin="round"/>
<path id="Vector_9" d="M15.7906 7.33789H8.48918C7.66349 7.33789 6.99414 8.00724 6.99414 8.83293C6.99414 9.65863 7.66349 10.328 8.48918 10.328H20.7779C21.6036 10.328 22.273 9.65863 22.273 8.83293C22.273 8.00724 21.6036 7.33789 20.7779 7.33789H17.6993" stroke="#9E1256" stroke-width="0.872538" stroke-miterlimit="10" stroke-linecap="round" stroke-linejoin="round"/>
</g>
<path id="Vector_10" d="M20.087 23.8477H10.5562" stroke="#9E1256" stroke-width="0.872538" stroke-miterlimit="10" stroke-linecap="round" stroke-linejoin="round"/>
<path id="Vector_11" d="M23.3756 19.9316H8.8418" stroke="#9E1256" stroke-width="0.872538" stroke-miterlimit="10" stroke-linecap="round" stroke-linejoin="round"/>
<g id="Group_7">
<path id="Vector_12" d="M14.8213 23.847L17.2722 19.9316" stroke="#9E1256" stroke-width="0.872538" stroke-miterlimit="10" stroke-linecap="round" stroke-linejoin="round"/>
<path id="Vector_13" d="M14.445 23.847L11.9941 19.9316" stroke="#9E1256" stroke-width="0.872538" stroke-miterlimit="10" stroke-linecap="round" stroke-linejoin="round"/>
<path id="Vector_14" d="M11.6194 19.9316L10.2729 22.0824" stroke="#9E1256" stroke-width="0.872538" stroke-miterlimit="10" stroke-linecap="round" stroke-linejoin="round"/>
<path id="Vector_15" d="M17.647 19.9316L20.0979 23.847" stroke="#9E1256" stroke-width="0.872538" stroke-miterlimit="10" stroke-linecap="round" stroke-linejoin="round"/>
</g>
<path id="Vector_16" d="M23.9828 14.6001C23.3398 15.5037 22.2841 16.0921 21.0898 16.0921C19.7766 16.0921 18.6303 15.3788 18.0157 14.3192C17.947 14.2009 17.7763 14.2009 17.7076 14.3192C17.0925 15.3788 15.9462 16.0921 14.633 16.0921C13.3198 16.0921 12.1735 15.3788 11.5584 14.3192C11.4897 14.2009 11.319 14.2009 11.2503 14.3192C10.6357 15.3788 9.48938 16.0921 8.17621 16.0921C6.98193 16.0921 5.92615 15.5037 5.2832 14.6001" stroke="#9E1256" stroke-width="0.872538" stroke-miterlimit="10" stroke-linecap="round" stroke-linejoin="round"/>
<path id="Vector_17" d="M14.6325 14.6751C15.0842 14.6751 15.4505 14.3088 15.4505 13.8571C15.4505 13.4053 15.0842 13.0391 14.6325 13.0391C14.1807 13.0391 13.8145 13.4053 13.8145 13.8571C13.8145 14.3088 14.1807 14.6751 14.6325 14.6751Z" stroke="#9E1256" stroke-width="0.872538" stroke-miterlimit="10" stroke-linecap="round" stroke-linejoin="round"/>
<g id="Group_8">
<path id="Vector_18" d="M20.9581 14.6262C21.4099 14.6262 21.7761 14.26 21.7761 13.8082C21.7761 13.3565 21.4099 12.9902 20.9581 12.9902C20.5064 12.9902 20.1401 13.3565 20.1401 13.8082C20.1401 14.26 20.5064 14.6262 20.9581 14.6262Z" stroke="#9E1256" stroke-width="0.872538" stroke-miterlimit="10" stroke-linecap="round" stroke-linejoin="round"/>
<path id="Vector_19" d="M8.30629 14.6262C8.75806 14.6262 9.12429 14.26 9.12429 13.8082C9.12429 13.3565 8.75806 12.9902 8.30629 12.9902C7.85451 12.9902 7.48828 13.3565 7.48828 13.8082C7.48828 14.26 7.85451 14.6262 8.30629 14.6262Z" stroke="#9E1256" stroke-width="0.872538" stroke-miterlimit="10" stroke-linecap="round" stroke-linejoin="round"/>
</g>
</g>
<g id="Group_9">
<path id="Vector_20" d="M7.40649 27.1746L6.78067 27.3554C4.56704 27.9951 2.24723 26.7527 1.5528 24.5556C0.773188 22.089 2.36142 19.5044 4.91414 19.0855L5.51827 18.9863" stroke="#9E1256" stroke-width="0.872538" stroke-miterlimit="10" stroke-linecap="round" stroke-linejoin="round"/>
<path id="Vector_21" d="M3.41521 23.9452C2.74346 22.0118 3.32419 20.031 4.89203 19.2245C5.32536 19.0017 5.79724 18.8887 6.29464 18.8887C7.74599 18.8887 9.19468 19.8819 9.98531 21.419C10.4614 22.3446 10.6494 23.3715 10.5147 24.3104C10.352 25.443 9.7302 26.3645 8.80858 26.8386C8.37526 27.0615 7.90338 27.1745 7.40592 27.1745C6.28095 27.1745 5.15756 26.5777 4.34102 25.5935" stroke="#9E1256" stroke-width="0.872538" stroke-miterlimit="10" stroke-linecap="round" stroke-linejoin="round"/>
<path id="Vector_22" d="M7.40616 25.5392C6.57425 25.5392 5.6757 24.8791 5.17034 23.8966C4.50317 22.5995 4.71416 21.1567 5.64063 20.6801C5.84301 20.576 6.05705 20.5254 6.29493 20.5254C7.12689 20.5254 8.02539 21.1855 8.53081 22.1681C8.85299 22.7944 8.98251 23.4729 8.89558 24.0786C8.80926 24.6799 8.50485 25.156 8.06056 25.3845C7.85813 25.4886 7.64404 25.5392 7.40616 25.5392Z" stroke="#9E1256" stroke-width="0.872538" stroke-miterlimit="10" stroke-linecap="round" stroke-linejoin="round"/>
</g>
<g id="Group_10">
<path id="Vector_23" d="M24.2573 22.6703V21.0703" stroke="#9E1256" stroke-width="0.872538" stroke-miterlimit="10" stroke-linecap="round" stroke-linejoin="round"/>
<path id="Vector_24" d="M24.2834 27.5229H24.2301C21.9252 27.5229 20.0566 25.6543 20.0566 23.3494C20.0566 22.9742 20.3608 22.6699 20.7361 22.6699H27.7774C28.1526 22.6699 28.4569 22.9741 28.4569 23.3494C28.4569 25.6543 26.5883 27.5229 24.2834 27.5229Z" stroke="#9E1256" stroke-width="0.872538" stroke-miterlimit="10" stroke-linecap="round" stroke-linejoin="round"/>
<path id="Vector_25" d="M25.1793 20.1474C25.1793 20.6569 24.7662 21.07 24.2566 21.07C23.7471 21.07 23.334 20.6569 23.334 20.1474C23.334 19.7643 23.8554 19.0518 24.1143 18.7216C24.1867 18.6293 24.3267 18.6293 24.399 18.7216C24.6579 19.0518 25.1793 19.7643 25.1793 20.1474Z" stroke="#9E1256" stroke-width="0.872538" stroke-miterlimit="10" stroke-linecap="round" stroke-linejoin="round"/>
</g>
<path id="Vector_26" d="M24.256 25.9153C24.7078 25.9153 25.074 25.5491 25.074 25.0973C25.074 24.6455 24.7078 24.2793 24.256 24.2793C23.8042 24.2793 23.438 24.6455 23.438 25.0973C23.438 25.5491 23.8042 25.9153 24.256 25.9153Z" stroke="#9E1256" stroke-width="0.872538" stroke-miterlimit="10" stroke-linecap="round" stroke-linejoin="round"/>
</g>
</g>
<defs>
<clipPath id="clip0_227_8884">
<rect width="27.9212" height="27.9212" fill="white" transform="translate(0.944336 0.0117188)"/>
</clipPath>
</defs>
</svg>
