<svg width="20" height="13" viewBox="0 0 20 13" fill="none" xmlns="http://www.w3.org/2000/svg">
<g id="Kanan">
<path id="Vector" d="M19.7064 6.73447L14.707 11.7338C14.5184 11.9159 14.2658 12.0167 14.0036 12.0144C13.7414 12.0122 13.4906 11.907 13.3052 11.7216C13.1198 11.5362 13.0146 11.2854 13.0123 11.0232C13.01 10.761 13.1108 10.5084 13.293 10.3198L16.5859 7.02677H1C0.734784 7.02677 0.48043 6.92142 0.292893 6.73388C0.105357 6.54634 0 6.29199 0 6.02677C0 5.76156 0.105357 5.5072 0.292893 5.31967C0.48043 5.13213 0.734784 5.02677 1 5.02677H16.5859L13.293 1.73377C13.1108 1.54517 13.01 1.29257 13.0123 1.03037C13.0146 0.768176 13.1198 0.517364 13.3052 0.331956C13.4906 0.146548 13.7414 0.0413787 14.0036 0.0391003C14.2658 0.0368219 14.5184 0.137617 14.707 0.319775L19.7064 5.31907C19.8935 5.50709 19.9985 5.76153 19.9985 6.02677C19.9985 6.29201 19.8935 6.54646 19.7064 6.73447Z" fill="#9E1256"/>
</g>
</svg>
