<svg width="24" height="25" viewBox="0 0 24 25" fill="none" xmlns="http://www.w3.org/2000/svg">
<g id="fi_484633" clip-path="url(#clip0_1045_11007)">
<g id="Group">
<g id="Group_2">
<path id="Vector" d="M9.17392 13.0653C9.13543 12.8726 7.80971 6.24402 7.76767 6.03397C7.702 5.70533 7.41339 5.46875 7.07823 5.46875H5.67198C5.33682 5.46875 5.04822 5.70533 4.98254 6.03397C4.93984 6.24758 3.61276 12.8829 3.57629 13.0652C3.50012 13.446 3.74711 13.8164 4.12787 13.8926C4.50864 13.9687 4.87909 13.7218 4.95522 13.341L5.40465 11.0938H7.34556L7.795 13.341C7.87117 13.722 8.24176 13.9688 8.62234 13.8926C9.00311 13.8164 9.25009 13.446 9.17392 13.0653ZM5.6859 9.6875L6.2484 6.875H6.50181L7.06431 9.6875H5.6859Z" fill="url(#paint0_linear_1045_11007)"/>
</g>
</g>
<g id="Group_3">
<g id="Group_4">
<path id="Vector_2" d="M20.4375 11.0938H18.3281V10.3906C18.3281 10.0023 18.0133 9.6875 17.625 9.6875C17.2367 9.6875 16.9219 10.0023 16.9219 10.3906V11.0938H14.8125C14.4242 11.0938 14.1094 11.4086 14.1094 11.7969C14.1094 12.1852 14.4242 12.5 14.8125 12.5H14.9827C15.3833 13.7943 15.9865 14.7878 16.6502 15.5839C16.11 16.0781 15.5633 16.4833 15.0764 16.8728C14.7732 17.1154 14.724 17.5579 14.9666 17.8611C15.2093 18.1645 15.6518 18.2134 15.9549 17.9709C16.4445 17.5791 17.0315 17.1438 17.625 16.5991C18.219 17.1442 18.807 17.5803 19.2951 17.9709C19.5983 18.2135 20.0408 18.1643 20.2834 17.8611C20.526 17.5579 20.4768 17.1154 20.1736 16.8728C19.6879 16.4842 19.1406 16.0785 18.5998 15.5839C19.2635 14.7878 19.8667 13.7943 20.2673 12.5H20.4375C20.8258 12.5 21.1406 12.1852 21.1406 11.7969C21.1406 11.4086 20.8258 11.0938 20.4375 11.0938ZM17.625 14.5505C17.1762 13.9871 16.7724 13.3146 16.468 12.4953H18.782C18.4776 13.3146 18.0738 13.9871 17.625 14.5505Z" fill="url(#paint1_linear_1045_11007)"/>
</g>
</g>
<g id="Group_5">
<g id="Group_6">
<path id="Vector_3" d="M21.8906 4.76562H11.7468L11.4454 2.34772C11.3138 1.29434 10.4139 0.5 9.35236 0.5H2.10938C0.946266 0.5 0 1.44627 0 2.60938V18.125C0 19.2881 0.946266 20.2344 2.10938 20.2344H8.03827L8.33583 22.6523C8.46727 23.7035 9.36708 24.5 10.4289 24.5H21.8906C23.0537 24.5 24 23.5537 24 22.3906V6.875C24 5.71189 23.0537 4.76562 21.8906 4.76562ZM2.10938 18.8281C1.72167 18.8281 1.40625 18.5127 1.40625 18.125V2.60938C1.40625 2.22167 1.72167 1.90625 2.10938 1.90625H9.35236C9.70622 1.90625 10.0062 2.171 10.05 2.52191C10.1519 3.33922 11.9816 18.0174 12.0827 18.8281H2.10938ZM9.69019 22.1445L9.45511 20.2344H11.3415L9.69019 22.1445ZM22.5938 22.3906C22.5938 22.7783 22.2783 23.0938 21.8906 23.0938H10.7285L13.4052 19.9975C13.5422 19.843 13.6036 19.6378 13.5753 19.4339L11.9221 6.17188H21.8906C22.2783 6.17188 22.5938 6.4873 22.5938 6.875V22.3906Z" fill="url(#paint2_linear_1045_11007)"/>
</g>
</g>
</g>
<defs>
<linearGradient id="paint0_linear_1045_11007" x1="3.59375" y1="5.46885" x2="9.19752" y2="5.47537" gradientUnits="userSpaceOnUse">
<stop stop-color="#9E1256"/>
<stop offset="0.265625" stop-color="#CE164F"/>
<stop offset="0.5" stop-color="#E74249"/>
<stop offset="0.770833" stop-color="#ED6E49"/>
<stop offset="1" stop-color="#F9B048"/>
</linearGradient>
<linearGradient id="paint1_linear_1045_11007" x1="14.1484" y1="9.6876" x2="21.1529" y2="9.69779" gradientUnits="userSpaceOnUse">
<stop stop-color="#9E1256"/>
<stop offset="0.265625" stop-color="#CE164F"/>
<stop offset="0.5" stop-color="#E74249"/>
<stop offset="0.770833" stop-color="#ED6E49"/>
<stop offset="1" stop-color="#F9B048"/>
</linearGradient>
<linearGradient id="paint2_linear_1045_11007" x1="0.133333" y1="0.50028" x2="24.0418" y2="0.54202" gradientUnits="userSpaceOnUse">
<stop stop-color="#9E1256"/>
<stop offset="0.265625" stop-color="#CE164F"/>
<stop offset="0.5" stop-color="#E74249"/>
<stop offset="0.770833" stop-color="#ED6E49"/>
<stop offset="1" stop-color="#F9B048"/>
</linearGradient>
<clipPath id="clip0_1045_11007">
<rect width="24" height="24" fill="white" transform="translate(0 0.5)"/>
</clipPath>
</defs>
</svg>
