<svg width="32" height="32" viewBox="0 0 32 32" fill="none" xmlns="http://www.w3.org/2000/svg">
<g id="fi_4494497" clip-path="url(#clip0_345_11521)">
<g id="Layer 2">
<g id="10.linkedin">
<path id="background" d="M16 31.9995C24.8366 31.9995 32 24.8361 32 15.9995C32 7.16296 24.8366 -0.000488281 16 -0.000488281C7.16344 -0.000488281 0 7.16296 0 15.9995C0 24.8361 7.16344 31.9995 16 31.9995Z" fill="#0B69C7"/>
<g id="icon">
<path id="Vector" d="M12.4213 10.1827C12.4217 10.6151 12.2939 11.0378 12.0539 11.3975C11.8139 11.7572 11.4727 12.0376 11.0733 12.2033C10.6739 12.369 10.2343 12.4124 9.81024 12.3282C9.38614 12.2439 8.99657 12.0357 8.69083 11.73C8.38509 11.4242 8.17692 11.0347 8.09267 10.6106C8.00842 10.1865 8.05187 9.74693 8.21753 9.34754C8.38319 8.94815 8.6636 8.60688 9.02329 8.36692C9.38298 8.12696 9.80577 7.9991 10.2382 7.99951C10.817 8.00007 11.372 8.23026 11.7813 8.63956C12.1906 9.04886 12.4208 9.60383 12.4213 10.1827Z" fill="white"/>
<path id="Vector_2" d="M11.3869 13.2773H9.08793C8.78911 13.2773 8.54688 13.5196 8.54688 13.8184V23.4584C8.54688 23.7572 8.78911 23.9994 9.08793 23.9994H11.3869C11.6857 23.9994 11.9279 23.7572 11.9279 23.4584V13.8184C11.9279 13.5196 11.6857 13.2773 11.3869 13.2773Z" fill="white"/>
<path id="Vector_3" d="M23.95 18.8349V23.5023C23.95 23.6341 23.8976 23.7604 23.8045 23.8536C23.7113 23.9468 23.5849 23.9991 23.4531 23.9991H20.9858C20.854 23.9991 20.7276 23.9468 20.6344 23.8536C20.5413 23.7604 20.4889 23.6341 20.4889 23.5023V18.9802C20.4889 18.3044 20.6847 16.0328 18.7247 16.0328C17.2047 16.0328 16.8952 17.5949 16.83 18.296V23.5128C16.8272 23.642 16.7743 23.7651 16.6823 23.8559C16.5903 23.9467 16.4666 23.9981 16.3373 23.9991H13.95C13.8846 23.9994 13.8199 23.9868 13.7595 23.9619C13.6991 23.937 13.6442 23.9004 13.598 23.8542C13.5518 23.8081 13.5153 23.7532 13.4904 23.6928C13.4655 23.6324 13.4529 23.5676 13.4531 23.5023V13.776C13.4529 13.7106 13.4655 13.6457 13.4903 13.5852C13.5152 13.5247 13.5517 13.4697 13.5979 13.4233C13.6441 13.3769 13.6989 13.3402 13.7594 13.3151C13.8198 13.29 13.8845 13.277 13.95 13.277H16.3373C16.4036 13.2759 16.4694 13.288 16.5309 13.3126C16.5924 13.3371 16.6484 13.3737 16.6956 13.4202C16.7428 13.4666 16.7803 13.522 16.8059 13.5831C16.8315 13.6442 16.8447 13.7097 16.8447 13.776V14.6181C17.4089 13.776 18.2468 13.1191 20.03 13.1191C23.9731 13.117 23.95 16.8076 23.95 18.8349Z" fill="white"/>
</g>
</g>
</g>
</g>
<defs>
<clipPath id="clip0_345_11521">
<rect width="32" height="32" fill="white" transform="translate(0 -0.000488281)"/>
</clipPath>
</defs>
</svg>
