<svg width="24" height="25" viewBox="0 0 24 25" fill="none" xmlns="http://www.w3.org/2000/svg">
<g id="location-pin">
<path id="location-pin_2" d="M12 2.75C7.175 2.75 3.25 6.675 3.25 11.5C3.25 16.618 7.94699 19.7199 11.055 21.7729L11.584 22.124C11.71 22.208 11.855 22.25 12 22.25C12.145 22.25 12.29 22.208 12.416 22.124L12.945 21.7729C16.053 19.7199 20.75 16.618 20.75 11.5C20.75 6.675 16.825 2.75 12 2.75ZM12.119 20.521L12 20.6001L11.881 20.521C8.871 18.533 4.75 15.811 4.75 11.5C4.75 7.502 8.002 4.25 12 4.25C15.998 4.25 19.25 7.502 19.25 11.5C19.25 15.811 15.128 18.534 12.119 20.521ZM12 8.25C10.208 8.25 8.75 9.708 8.75 11.5C8.75 13.292 10.208 14.75 12 14.75C13.792 14.75 15.25 13.292 15.25 11.5C15.25 9.708 13.792 8.25 12 8.25ZM12 13.25C11.035 13.25 10.25 12.465 10.25 11.5C10.25 10.535 11.035 9.75 12 9.75C12.965 9.75 13.75 10.535 13.75 11.5C13.75 12.465 12.965 13.25 12 13.25Z" fill="#828282"/>
</g>
</svg>
