<svg width="72" height="72" viewBox="0 0 72 72" fill="none" xmlns="http://www.w3.org/2000/svg">
<path d="M47.7851 35.8295L35.8389 23.8833L23.8927 35.8295L35.8389 47.7757L47.7851 35.8295Z" fill="#E74249"/>
<path d="M59.731 23.8805L47.7858 35.8281L35.8369 23.8805L47.7858 11.9341C50.7411 12.5073 53.4575 13.951 55.5861 16.0798C57.7146 18.2086 59.1581 20.9251 59.731 23.8805Z" fill="#CE164F"/>
<path d="M71.679 35.8305C70.3199 36.4256 69.0228 37.153 67.8061 38.002C65.9256 39.3132 64.2516 40.898 62.8395 42.7039C61.6161 44.2663 60.578 45.9654 59.7462 47.767H59.74L47.7861 35.828L59.7313 23.8804C60.9105 26.4194 63.2824 30.5125 67.7987 33.6553C69.0173 34.5039 70.3161 35.2312 71.6765 35.8268H60.9587L71.679 35.8305Z" fill="#E73347"/>
<path d="M0 35.8257C1.36067 35.2312 2.65953 34.5043 3.87779 33.6554C5.75827 32.3442 7.4323 30.7594 8.84443 28.9535C10.0678 27.3911 11.1059 25.692 11.9378 23.8904H11.9439L23.8891 35.8356L11.9477 47.7733C10.7685 45.2343 8.39652 41.1412 3.88026 37.9984C2.66108 37.1499 1.36141 36.4234 0 35.8294H10.7202L0 35.8257Z" fill="#E73347"/>
<path d="M35.8405 0C36.4353 1.36072 37.1627 2.65958 38.012 3.87779C39.3232 5.75827 40.908 7.4323 42.7139 8.84443C44.2763 10.0678 45.9754 11.1059 47.777 11.9378V11.9439L35.8368 23.8928L23.8916 11.9477C26.4318 10.7685 30.5249 8.39652 33.6665 3.88026C34.5154 2.66113 35.2423 1.36146 35.8368 0V10.7202L35.8405 0Z" fill="#9E1256"/>
<path d="M47.7811 59.7234L35.8359 47.7782L47.7811 35.8306L59.73 47.7782C59.1566 50.7339 57.7125 53.4505 55.5833 55.5791C53.454 57.7077 50.7369 59.1509 47.7811 59.7234Z" fill="#ED6E49"/>
<path d="M35.834 71.6699C35.2391 70.3092 34.5118 69.0103 33.6625 67.7921C32.3513 65.9116 30.7665 64.2376 28.9606 62.8254C27.3982 61.6021 25.6991 60.564 23.8975 59.7321V59.7259L35.8426 47.7808L47.7878 59.7259C45.2488 60.9051 41.1557 63.2771 38.0129 67.7933C37.1642 69.012 36.4369 70.3107 35.8414 71.6711V60.9497L35.834 71.6699Z" fill="#F9B048"/>
<path d="M11.9561 47.7609L23.9012 35.8157L35.8489 47.7609L23.9012 59.7085C20.9458 59.1352 18.2292 57.6913 16.1007 55.5623C13.9721 53.4333 12.5287 50.7164 11.9561 47.7609Z" fill="#ED6E49"/>
<path d="M23.893 11.9463L35.8381 23.8915L23.893 35.8391L11.9453 23.8915C12.5186 20.936 13.9625 18.2195 16.0915 16.0909C18.2205 13.9623 20.9374 12.519 23.893 11.9463Z" fill="#CE164F"/>
</svg>
