<svg width="24" height="25" viewBox="0 0 24 25" fill="none" xmlns="http://www.w3.org/2000/svg">
<g id="map-pin">
<path id="map-pin_2" d="M11.25 12.1741V17.5C11.25 17.914 11.586 18.25 12 18.25C12.414 18.25 12.75 17.914 12.75 17.5V12.1741C15.012 11.8111 16.75 9.862 16.75 7.5C16.75 4.881 14.619 2.75 12 2.75C9.381 2.75 7.25 4.881 7.25 7.5C7.25 9.862 8.988 11.8121 11.25 12.1741ZM12 4.25C13.792 4.25 15.25 5.708 15.25 7.5C15.25 9.292 13.792 10.75 12 10.75C10.208 10.75 8.75 9.292 8.75 7.5C8.75 5.708 10.208 4.25 12 4.25ZM19.75 18.5C19.75 20.638 16.418 22.25 12 22.25C7.582 22.25 4.25 20.638 4.25 18.5C4.25 17.141 5.541 15.9851 7.79 15.3301C8.188 15.2161 8.604 15.4421 8.72 15.8401C8.836 16.2381 8.60701 16.654 8.21001 16.77C6.51101 17.265 5.75 17.996 5.75 18.5C5.75 19.417 8.185 20.75 12 20.75C15.815 20.75 18.25 19.417 18.25 18.5C18.25 17.996 17.489 17.265 15.79 16.77C15.393 16.654 15.164 16.2381 15.28 15.8401C15.396 15.4421 15.814 15.2161 16.21 15.3301C18.459 15.9851 19.75 17.141 19.75 18.5Z" fill="#313131"/>
</g>
</svg>
