<svg width="24" height="25" viewBox="0 0 24 25" fill="none" xmlns="http://www.w3.org/2000/svg">
<g id="vuesax/linear/messages">
<g id="messages">
<g id="Group">
<path id="Vector" d="M17.98 11.29V15.29C17.98 15.55 17.97 15.8 17.94 16.04C17.71 18.74 16.12 20.08 13.19 20.08H12.79C12.54 20.08 12.3 20.2 12.15 20.4L10.95 22C10.42 22.71 9.56 22.71 9.03 22L7.82999 20.4C7.69999 20.23 7.41 20.08 7.19 20.08H6.79001C3.60001 20.08 2 19.29 2 15.29V11.29C2 8.36001 3.35001 6.77001 6.04001 6.54001C6.28001 6.51001 6.53001 6.5 6.79001 6.5H13.19C16.38 6.5 17.98 8.10001 17.98 11.29Z" stroke="url(#paint0_linear_1045_11037)" stroke-miterlimit="10" stroke-linecap="round" stroke-linejoin="round"/>
</g>
<path id="Vector_2" d="M21.983 7.29001V11.29C21.983 14.23 20.633 15.81 17.943 16.04C17.973 15.8 17.983 15.55 17.983 15.29V11.29C17.983 8.10001 16.383 6.5 13.193 6.5H6.79297C6.53297 6.5 6.28297 6.51001 6.04297 6.54001C6.27297 3.85001 7.86297 2.5 10.793 2.5H17.193C20.383 2.5 21.983 4.10001 21.983 7.29001Z" stroke="url(#paint1_linear_1045_11037)" stroke-miterlimit="10" stroke-linecap="round" stroke-linejoin="round"/>
<path id="Vector_3" d="M13.4955 13.75H13.5045" stroke="url(#paint2_linear_1045_11037)" stroke-width="2" stroke-linecap="round" stroke-linejoin="round"/>
<path id="Vector_4" d="M9.9955 13.75H10.0045" stroke="url(#paint3_linear_1045_11037)" stroke-width="2" stroke-linecap="round" stroke-linejoin="round"/>
<path id="Vector_5" d="M6.4955 13.75H6.5045" stroke="url(#paint4_linear_1045_11037)" stroke-width="2" stroke-linecap="round" stroke-linejoin="round"/>
</g>
</g>
<defs>
<linearGradient id="paint0_linear_1045_11037" x1="2.08878" y1="6.50019" x2="18.0079" y2="6.52789" gradientUnits="userSpaceOnUse">
<stop stop-color="#9E1256"/>
<stop offset="0.265625" stop-color="#CE164F"/>
<stop offset="0.5" stop-color="#E74249"/>
<stop offset="0.770833" stop-color="#ED6E49"/>
<stop offset="1" stop-color="#F9B048"/>
</linearGradient>
<linearGradient id="paint1_linear_1045_11037" x1="6.13152" y1="2.50016" x2="22.0107" y2="2.53279" gradientUnits="userSpaceOnUse">
<stop stop-color="#9E1256"/>
<stop offset="0.265625" stop-color="#CE164F"/>
<stop offset="0.5" stop-color="#E74249"/>
<stop offset="0.770833" stop-color="#ED6E49"/>
<stop offset="1" stop-color="#F9B048"/>
</linearGradient>
<linearGradient id="paint2_linear_1045_11037" x1="13.0056" y1="13.25" x2="14.0017" y2="13.2518" gradientUnits="userSpaceOnUse">
<stop stop-color="#9E1256"/>
<stop offset="0.265625" stop-color="#CE164F"/>
<stop offset="0.5" stop-color="#E74249"/>
<stop offset="0.770833" stop-color="#ED6E49"/>
<stop offset="1" stop-color="#F9B048"/>
</linearGradient>
<linearGradient id="paint3_linear_1045_11037" x1="9.50556" y1="13.25" x2="10.5017" y2="13.2518" gradientUnits="userSpaceOnUse">
<stop stop-color="#9E1256"/>
<stop offset="0.265625" stop-color="#CE164F"/>
<stop offset="0.5" stop-color="#E74249"/>
<stop offset="0.770833" stop-color="#ED6E49"/>
<stop offset="1" stop-color="#F9B048"/>
</linearGradient>
<linearGradient id="paint4_linear_1045_11037" x1="6.00556" y1="13.25" x2="7.00174" y2="13.2518" gradientUnits="userSpaceOnUse">
<stop stop-color="#9E1256"/>
<stop offset="0.265625" stop-color="#CE164F"/>
<stop offset="0.5" stop-color="#E74249"/>
<stop offset="0.770833" stop-color="#ED6E49"/>
<stop offset="1" stop-color="#F9B048"/>
</linearGradient>
</defs>
</svg>
