<svg width="24" height="25" viewBox="0 0 24 25" fill="none" xmlns="http://www.w3.org/2000/svg">
<g id="Huge-icon/communication/outline/call">
<path id="Rectangle 77" d="M21 19.5V17.8541C21 17.0363 20.5021 16.3008 19.7428 15.9971L17.7086 15.1835C16.7429 14.7971 15.6422 15.2156 15.177 16.146L15 16.5C15 16.5 12.5 16 10.5 14C8.5 12 8 9.5 8 9.5L8.35402 9.32299C9.28438 8.85781 9.70285 7.75714 9.31654 6.79136L8.50289 4.75722C8.19916 3.9979 7.46374 3.5 6.64593 3.5H5C3.89543 3.5 3 4.39543 3 5.5C3 14.3366 10.1634 21.5 19 21.5C20.1046 21.5 21 20.6046 21 19.5Z" stroke="url(#paint0_linear_1045_11048)" stroke-linejoin="round"/>
</g>
<defs>
<linearGradient id="paint0_linear_1045_11048" x1="3.1" y1="3.50021" x2="21.0314" y2="3.53151" gradientUnits="userSpaceOnUse">
<stop stop-color="#9E1256"/>
<stop offset="0.265625" stop-color="#CE164F"/>
<stop offset="0.5" stop-color="#E74249"/>
<stop offset="0.770833" stop-color="#ED6E49"/>
<stop offset="1" stop-color="#F9B048"/>
</linearGradient>
</defs>
</svg>
