<svg width="18" height="19" viewBox="0 0 18 19" fill="none" xmlns="http://www.w3.org/2000/svg">
<g id="more-horizontal" clip-path="url(#clip0_1132_2399)">
<g id="Layer 2">
<g id="more-horizotnal">
<path id="Vector" d="M9 11C9.82843 11 10.5 10.3284 10.5 9.5C10.5 8.67157 9.82843 8 9 8C8.17157 8 7.5 8.67157 7.5 9.5C7.5 10.3284 8.17157 11 9 11Z" fill="#828282"/>
<path id="Vector_2" d="M14.25 11C15.0784 11 15.75 10.3284 15.75 9.5C15.75 8.67157 15.0784 8 14.25 8C13.4216 8 12.75 8.67157 12.75 9.5C12.75 10.3284 13.4216 11 14.25 11Z" fill="#828282"/>
<path id="Vector_3" d="M3.75 11C4.57843 11 5.25 10.3284 5.25 9.5C5.25 8.67157 4.57843 8 3.75 8C2.92157 8 2.25 8.67157 2.25 9.5C2.25 10.3284 2.92157 11 3.75 11Z" fill="#828282"/>
</g>
</g>
</g>
<defs>
<clipPath id="clip0_1132_2399">
<rect width="18" height="18" fill="white" transform="translate(0 0.5)"/>
</clipPath>
</defs>
</svg>
