<svg width="175" height="176" viewBox="0 0 175 176" fill="none" xmlns="http://www.w3.org/2000/svg">
<g id="Object" clip-path="url(#clip0_345_8940)">
<g id="Group">
<g id="Group_2">
<path id="Vector" d="M87.8516 87.5741C87.8516 87.5137 87.8351 87.4533 87.8021 87.3984L53.8335 33.3562C53.7347 33.2025 53.537 33.1585 53.3832 33.2519C53.2294 33.3507 53.1855 33.5485 53.2788 33.7022L87.2474 87.7444C87.3408 87.8982 87.544 87.9421 87.6978 87.8488C87.7966 87.7883 87.8516 87.6785 87.8516 87.5687V87.5741Z" fill="url(#paint0_linear_345_8940)"/>
<path id="Vector_2" d="M87.8516 87.5756C87.8516 87.5097 87.8296 87.4383 87.7857 87.3779L49.4618 36.3344C49.352 36.1916 49.1488 36.1587 49.006 36.2685C48.8632 36.3783 48.8302 36.5816 48.9401 36.7244L87.2639 87.7678C87.3737 87.9106 87.577 87.9436 87.7197 87.8337C87.8076 87.7678 87.8516 87.669 87.8516 87.5701V87.5756Z" fill="url(#paint1_linear_345_8940)"/>
<path id="Vector_3" d="M87.8516 87.5709C87.8516 87.494 87.8241 87.4172 87.7692 87.3513L45.3483 39.6579C45.2274 39.5206 45.0187 39.5097 44.8869 39.6305C44.7496 39.7513 44.7386 39.96 44.8595 40.0918L87.2804 87.7851C87.4012 87.9224 87.6099 87.9334 87.7417 87.8126C87.8131 87.7467 87.8516 87.6588 87.8516 87.5655V87.5709Z" fill="url(#paint2_linear_345_8940)"/>
<path id="Vector_4" d="M87.8516 87.5732C87.8516 87.4854 87.8186 87.403 87.7472 87.3371L41.5258 43.318C41.394 43.1916 41.1853 43.1971 41.0644 43.329C40.9381 43.4608 40.9436 43.6695 41.0754 43.7903L87.2969 87.8094C87.4287 87.9357 87.6374 87.9302 87.7582 87.7984C87.8186 87.7325 87.8461 87.6556 87.8461 87.5732H87.8516Z" fill="url(#paint3_linear_345_8940)"/>
<path id="Vector_5" d="M87.8516 87.5725C87.8516 87.4792 87.8076 87.3803 87.7307 87.3199L38.0218 47.2771C37.879 47.1617 37.6758 47.1837 37.5605 47.3265C37.4451 47.4693 37.4671 47.6725 37.6099 47.7878L87.3188 87.8307C87.4616 87.946 87.6648 87.924 87.7802 87.7812C87.8296 87.7208 87.8516 87.6494 87.8516 87.578V87.5725Z" fill="url(#paint4_linear_345_8940)"/>
<path id="Vector_6" d="M87.8516 87.5713C87.8516 87.4669 87.8021 87.3625 87.7088 87.3021L34.8584 51.5157C34.7101 51.4168 34.5069 51.4553 34.4025 51.6036C34.2982 51.7518 34.3421 51.955 34.4904 52.0594L87.3408 87.8459C87.4891 87.9447 87.6923 87.9063 87.7966 87.758C87.8351 87.7031 87.8516 87.6372 87.8516 87.5767V87.5713Z" fill="url(#paint5_linear_345_8940)"/>
<path id="Vector_7" d="M87.85 87.5689C87.85 87.4536 87.7896 87.3437 87.6852 87.2833L32.0503 55.9949C31.8911 55.907 31.6933 55.9619 31.6055 56.1212C31.5176 56.2805 31.5725 56.4782 31.7318 56.5661L87.3667 87.8545C87.5259 87.9424 87.7237 87.8875 87.8115 87.7282C87.839 87.6788 87.8555 87.6238 87.8555 87.5689H87.85Z" fill="url(#paint6_linear_345_8940)"/>
<path id="Vector_8" d="M87.8516 87.5747C87.8516 87.4484 87.7802 87.3331 87.6593 87.2782L29.6244 60.7019C29.4596 60.625 29.2674 60.7019 29.1905 60.8612C29.1137 61.026 29.1905 61.2182 29.3498 61.2951L87.3847 87.8713C87.5495 87.9482 87.7417 87.8713 87.8186 87.712C87.8406 87.6681 87.8461 87.6242 87.8461 87.5747H87.8516Z" fill="url(#paint7_linear_345_8940)"/>
<path id="Vector_9" d="M87.85 87.5719C87.85 87.4401 87.7676 87.3138 87.6358 87.2643L27.6017 65.5816C27.4315 65.5211 27.2447 65.609 27.1843 65.7793C27.1239 65.9495 27.2118 66.1363 27.3821 66.1967L87.4161 87.8794C87.5864 87.9399 87.7731 87.852 87.8335 87.6817C87.8445 87.6433 87.8555 87.6048 87.8555 87.5719H87.85Z" fill="url(#paint8_linear_345_8940)"/>
<path id="Vector_10" d="M87.8516 87.5757C87.8516 87.4329 87.7527 87.3011 87.6099 87.2572L25.9886 70.6217C25.8129 70.5722 25.6317 70.6766 25.5877 70.8523C25.5383 71.0281 25.6426 71.2093 25.8184 71.2532L87.4397 87.8888C87.6154 87.9382 87.7911 87.8339 87.8406 87.6581C87.8461 87.6307 87.8516 87.6032 87.8516 87.5703V87.5757Z" fill="url(#paint9_linear_345_8940)"/>
<path id="Vector_11" d="M87.8516 87.5657C87.8516 87.412 87.7417 87.2747 87.5824 87.2417L24.7914 75.7632C24.6156 75.7303 24.4454 75.8511 24.4124 76.0269C24.3795 76.2026 24.5003 76.3729 24.676 76.4058L87.4616 87.8843C87.6374 87.9172 87.8076 87.7964 87.8406 87.6207C87.8406 87.5987 87.8406 87.5822 87.8406 87.5602L87.8516 87.5657Z" fill="url(#paint10_linear_345_8940)"/>
<path id="Vector_12" d="M87.8516 87.5644C87.8516 87.3997 87.7252 87.2569 87.555 87.2404L24.0335 81.0014C23.8522 80.9849 23.6929 81.1167 23.6765 81.2925C23.66 81.4737 23.7918 81.633 23.9731 81.6495L87.4946 87.8885C87.6758 87.9049 87.8351 87.7731 87.8516 87.5974C87.8516 87.5864 87.8516 87.5754 87.8516 87.5644Z" fill="url(#paint11_linear_345_8940)"/>
<path id="Vector_13" d="M87.85 87.5719C87.85 87.3907 87.7072 87.2479 87.5259 87.2424L23.7023 86.2812C23.5211 86.2812 23.3728 86.4241 23.3728 86.6053C23.3728 86.7755 23.5156 86.9348 23.6969 86.9348L87.5205 87.8959C87.7017 87.8959 87.85 87.7531 87.8555 87.5719H87.85Z" fill="url(#paint12_linear_345_8940)"/>
<path id="Vector_14" d="M87.85 87.5754C87.85 87.5754 87.85 87.5589 87.85 87.5534C87.839 87.3722 87.6797 87.2349 87.504 87.2513L23.8232 91.5791C23.6419 91.5901 23.5046 91.7494 23.5211 91.9251C23.5321 92.1063 23.6914 92.2437 23.8671 92.2272L87.5479 87.8994C87.7182 87.8884 87.8555 87.7456 87.8555 87.5754H87.85Z" fill="url(#paint13_linear_345_8940)"/>
<path id="Vector_15" d="M87.85 87.5779C87.85 87.5779 87.85 87.545 87.85 87.5285C87.8225 87.3473 87.6578 87.2264 87.4765 87.2539L24.3724 96.8376C24.1911 96.865 24.0758 97.0298 24.0978 97.2111C24.1252 97.3923 24.29 97.5131 24.4713 97.4857L87.5754 87.9019C87.7346 87.88 87.8555 87.7372 87.8555 87.5779H87.85Z" fill="url(#paint14_linear_345_8940)"/>
<path id="Vector_16" d="M87.8516 87.5782C87.8516 87.5782 87.8516 87.5288 87.8406 87.5013C87.7966 87.3256 87.6209 87.2158 87.4451 87.2597L25.3516 102.033C25.1758 102.077 25.066 102.253 25.1099 102.429C25.1538 102.605 25.3296 102.714 25.5053 102.67L87.5989 87.8968C87.7472 87.8583 87.8516 87.7265 87.8516 87.5782Z" fill="url(#paint15_linear_345_8940)"/>
<path id="Vector_17" d="M87.8516 87.571C87.8516 87.538 87.8516 87.5051 87.8351 87.4666C87.7802 87.2964 87.5934 87.203 87.4232 87.2579L26.763 107.123C26.5928 107.178 26.4994 107.364 26.5543 107.535C26.6092 107.705 26.796 107.798 26.9662 107.743L87.6264 87.8785C87.7637 87.8346 87.8516 87.7028 87.8516 87.5655V87.571Z" fill="url(#paint16_linear_345_8940)"/>
<path id="Vector_18" d="M87.8516 87.5779C87.8516 87.534 87.8406 87.49 87.8241 87.4516C87.7527 87.2868 87.5605 87.2044 87.3957 87.2758L28.5919 112.095C28.4271 112.166 28.3503 112.358 28.4162 112.523C28.4876 112.688 28.6798 112.77 28.8445 112.699L87.6483 87.88C87.7747 87.825 87.8461 87.7042 87.8461 87.5779H87.8516Z" fill="url(#paint17_linear_345_8940)"/>
<path id="Vector_19" d="M87.8516 87.5779C87.8516 87.5284 87.8406 87.4735 87.8131 87.4241C87.7307 87.2648 87.533 87.2044 87.3737 87.2868L30.8217 116.889C30.6624 116.972 30.602 117.169 30.6844 117.329C30.7668 117.488 30.9645 117.548 31.1237 117.466L87.6758 87.8634C87.7857 87.803 87.8516 87.6932 87.8516 87.5724V87.5779Z" fill="url(#paint18_linear_345_8940)"/>
<path id="Vector_20" d="M87.85 87.5774C87.85 87.517 87.8335 87.4566 87.8005 87.4016C87.7017 87.2479 87.504 87.2039 87.3502 87.3028L33.4453 121.486C33.2916 121.584 33.2476 121.782 33.3465 121.936C33.4453 122.09 33.643 122.134 33.7968 122.035L87.7017 87.852C87.8005 87.7916 87.8555 87.6817 87.8555 87.5774H87.85Z" fill="url(#paint19_linear_345_8940)"/>
<path id="Vector_21" d="M87.8516 87.5688C87.8516 87.4974 87.8296 87.4315 87.7857 87.3711C87.6758 87.2283 87.4726 87.2009 87.3243 87.3052L36.4346 125.832C36.2918 125.942 36.2643 126.145 36.3687 126.294C36.4785 126.436 36.6817 126.464 36.83 126.359L87.7197 87.8324C87.8021 87.7665 87.8516 87.6677 87.8516 87.5688Z" fill="url(#paint20_linear_345_8940)"/>
<path id="Vector_22" d="M87.8516 87.5729C87.8516 87.496 87.8241 87.4192 87.7692 87.3533C87.6484 87.216 87.4397 87.205 87.3078 87.3258L39.7848 129.933C39.6475 130.054 39.6365 130.263 39.7573 130.395C39.8781 130.527 40.0868 130.543 40.2186 130.422L87.7417 87.8146C87.8131 87.7487 87.8516 87.6608 87.8516 87.5729Z" fill="url(#paint21_linear_345_8940)"/>
<path id="Vector_23" d="M87.8516 87.5776C87.8516 87.4897 87.8186 87.4018 87.7472 87.3414C87.6154 87.2151 87.4067 87.2206 87.2859 87.3524L43.4535 133.75C43.3272 133.881 43.3327 134.09 43.4645 134.211C43.5963 134.337 43.805 134.332 43.9258 134.2L87.7582 87.8027C87.8186 87.7423 87.8461 87.6599 87.8461 87.5776H87.8516Z" fill="url(#paint22_linear_345_8940)"/>
<path id="Vector_24" d="M87.8516 87.5725C87.8516 87.4792 87.8076 87.3803 87.7307 87.3144C87.5879 87.1991 87.3847 87.2265 87.2694 87.3638L47.4243 137.232C47.3144 137.375 47.3364 137.578 47.4737 137.693C47.6165 137.809 47.8197 137.781 47.935 137.644L87.7802 87.7757C87.8296 87.7153 87.8516 87.6439 87.8516 87.5725Z" fill="url(#paint23_linear_345_8940)"/>
<path id="Vector_25" d="M87.8516 87.5715C87.8516 87.4672 87.8021 87.3628 87.7088 87.2969C87.5605 87.1981 87.3573 87.2365 87.2529 87.3848L51.6751 140.378C51.5763 140.526 51.6147 140.729 51.763 140.834C51.9113 140.933 52.1145 140.894 52.2189 140.746L87.7966 87.7528C87.8351 87.6978 87.8516 87.6319 87.8516 87.5715Z" fill="url(#paint24_linear_345_8940)"/>
<path id="Vector_26" d="M87.8516 87.5773C87.8516 87.462 87.7911 87.3522 87.6813 87.2918C87.522 87.2039 87.3243 87.2588 87.2364 87.4181L56.1677 143.174C56.0798 143.333 56.1347 143.531 56.294 143.619C56.4533 143.707 56.651 143.652 56.7389 143.492L87.8076 87.7366C87.8351 87.6872 87.8516 87.6323 87.8516 87.5773Z" fill="url(#paint25_linear_345_8940)"/>
<path id="Vector_27" d="M87.8516 87.5765C87.8516 87.4502 87.7802 87.3349 87.6593 87.28C87.4946 87.2031 87.3023 87.28 87.2255 87.4447L60.8799 145.584C60.803 145.749 60.8799 145.941 61.0447 146.018C61.2094 146.095 61.4016 146.018 61.4785 145.853L87.8241 87.7138C87.8461 87.6699 87.8516 87.626 87.8516 87.5765Z" fill="url(#paint26_linear_345_8940)"/>
<path id="Vector_28" d="M87.8516 87.5688C87.8516 87.437 87.7692 87.3107 87.6319 87.2612C87.4616 87.2008 87.2749 87.2887 87.2145 87.459L65.7733 147.581C65.7129 147.751 65.8008 147.938 65.9711 147.998C66.1413 148.059 66.3281 147.971 66.3885 147.801L87.8296 87.6786C87.8406 87.6402 87.8461 87.6072 87.8461 87.5688H87.8516Z" fill="url(#paint27_linear_345_8940)"/>
<path id="Vector_29" d="M87.8516 87.5711C87.8516 87.4283 87.7527 87.2965 87.6099 87.2526C87.4342 87.2086 87.2584 87.3075 87.209 87.4832L70.8151 149.17C70.7712 149.346 70.87 149.522 71.0458 149.571C71.2215 149.615 71.3973 149.516 71.4467 149.341L87.8406 87.6535C87.8461 87.626 87.8516 87.5986 87.8516 87.5711Z" fill="url(#paint28_linear_345_8940)"/>
<path id="Vector_30" d="M87.8516 87.5638C87.8516 87.4101 87.7417 87.2728 87.5824 87.2398C87.4067 87.2068 87.2364 87.3277 87.2035 87.5034L75.9722 150.338C75.9392 150.514 76.06 150.684 76.2358 150.717C76.4115 150.75 76.5818 150.63 76.6147 150.454L87.8461 87.6188C87.8461 87.6188 87.8461 87.5803 87.8461 87.5583L87.8516 87.5638Z" fill="url(#paint29_linear_345_8940)"/>
<path id="Vector_31" d="M87.8516 87.5676C87.8516 87.4029 87.7252 87.2601 87.555 87.2436C87.3737 87.2271 87.2145 87.3589 87.198 87.5402L81.2116 151.089C81.1951 151.27 81.327 151.43 81.5082 151.446C81.6894 151.463 81.8487 151.331 81.8652 151.15L87.8516 87.6006C87.8516 87.6006 87.8516 87.5786 87.8516 87.5676Z" fill="url(#paint30_linear_345_8940)"/>
<path id="Vector_32" d="M87.8516 87.5717C87.8516 87.3905 87.7088 87.2477 87.5275 87.2422C87.3463 87.2422 87.198 87.385 87.198 87.5662L86.4895 151.39C86.4895 151.571 86.6323 151.719 86.8135 151.719C86.9948 151.719 87.1431 151.577 87.1431 151.395L87.8516 87.5717Z" fill="url(#paint31_linear_345_8940)"/>
<path id="Vector_33" d="M92.4297 151.24C92.4297 151.24 92.4297 151.223 92.4297 151.218L87.8493 87.5534C87.8383 87.3722 87.679 87.2349 87.4978 87.2513C87.3165 87.2678 87.1792 87.4216 87.1957 87.6028L91.7761 151.267C91.7871 151.448 91.9464 151.586 92.1276 151.569C92.2979 151.558 92.4297 151.415 92.4297 151.245V151.24Z" fill="url(#paint32_linear_345_8940)"/>
<path id="Vector_34" d="M97.6875 150.644C97.6875 150.644 97.6875 150.611 97.6875 150.594L87.8512 87.5285C87.8237 87.3473 87.6535 87.2264 87.4777 87.2539C87.2965 87.2813 87.1811 87.4516 87.2031 87.6273L97.0394 150.693C97.0669 150.874 97.2371 150.995 97.4129 150.968C97.5722 150.94 97.6875 150.803 97.6875 150.644Z" fill="url(#paint33_linear_345_8940)"/>
<path id="Vector_35" d="M102.871 149.601C102.871 149.601 102.871 149.552 102.86 149.524L87.8392 87.4857C87.7953 87.31 87.6196 87.2001 87.4438 87.2441C87.2681 87.288 87.1582 87.4637 87.2022 87.6395L102.223 149.678C102.267 149.854 102.443 149.964 102.618 149.92C102.767 149.881 102.871 149.75 102.871 149.601Z" fill="url(#paint34_linear_345_8940)"/>
<path id="Vector_36" d="M107.957 148.149C107.957 148.116 107.957 148.077 107.941 148.044L87.834 87.4666C87.7791 87.2964 87.5924 87.203 87.4221 87.2579C87.2518 87.3129 87.1585 87.4996 87.2134 87.6698L107.32 148.248C107.375 148.418 107.562 148.511 107.732 148.456C107.869 148.412 107.957 148.281 107.957 148.143V148.149Z" fill="url(#paint35_linear_345_8940)"/>
<path id="Vector_37" d="M112.898 146.278C112.898 146.234 112.887 146.19 112.871 146.152L87.8161 87.4469C87.7447 87.2822 87.5524 87.2053 87.3877 87.2767C87.2229 87.3481 87.146 87.5403 87.2174 87.7051L112.272 146.41C112.344 146.575 112.536 146.652 112.701 146.58C112.827 146.525 112.898 146.405 112.898 146.278Z" fill="url(#paint36_linear_345_8940)"/>
<path id="Vector_38" d="M117.68 144.009C117.68 143.96 117.669 143.905 117.641 143.855L87.8137 87.4241C87.7313 87.2648 87.5336 87.2044 87.3688 87.2868C87.2096 87.3692 87.1492 87.5669 87.2315 87.7316L117.059 144.163C117.141 144.322 117.339 144.383 117.504 144.3C117.614 144.24 117.68 144.13 117.68 144.009Z" fill="url(#paint37_linear_345_8940)"/>
<path id="Vector_39" d="M122.25 141.345C122.25 141.285 122.234 141.224 122.201 141.169L87.8036 87.4016C87.7047 87.2479 87.5015 87.2039 87.3533 87.3028C87.1995 87.4016 87.1555 87.6049 87.2544 87.7531L121.651 141.521C121.75 141.674 121.953 141.718 122.102 141.62C122.201 141.559 122.25 141.449 122.25 141.345Z" fill="url(#paint38_linear_345_8940)"/>
<path id="Vector_40" d="M126.582 138.311C126.582 138.24 126.56 138.174 126.516 138.114L87.7859 87.3778C87.6761 87.235 87.4729 87.2075 87.3246 87.3174C87.1818 87.4272 87.1543 87.6304 87.2642 87.7787L125.994 138.515C126.104 138.657 126.307 138.685 126.456 138.575C126.538 138.509 126.582 138.416 126.582 138.317V138.311Z" fill="url(#paint39_linear_345_8940)"/>
<path id="Vector_41" d="M130.643 134.926C130.643 134.849 130.615 134.767 130.561 134.707L87.7607 87.3483C87.6399 87.2165 87.4312 87.2055 87.2994 87.3263C87.1676 87.4472 87.1566 87.6559 87.2774 87.7877L130.077 135.146C130.198 135.278 130.407 135.289 130.539 135.168C130.61 135.102 130.648 135.014 130.648 134.926H130.643Z" fill="url(#paint40_linear_345_8940)"/>
<path id="Vector_42" d="M134.418 131.216C134.418 131.128 134.385 131.04 134.314 130.974L87.7407 87.3232C87.6089 87.1969 87.4002 87.2079 87.2793 87.3397C87.1585 87.4715 87.164 87.6802 87.2958 87.801L133.869 131.452C134.001 131.578 134.209 131.567 134.33 131.436C134.391 131.375 134.418 131.293 134.418 131.211V131.216Z" fill="url(#paint41_linear_345_8940)"/>
<path id="Vector_43" d="M137.875 127.22C137.875 127.121 137.831 127.027 137.749 126.961L87.7267 87.3195C87.5839 87.2096 87.3807 87.2316 87.2654 87.3744C87.1555 87.5172 87.1775 87.7204 87.3203 87.8357L137.342 127.483C137.485 127.593 137.688 127.571 137.804 127.428C137.853 127.368 137.875 127.296 137.875 127.225V127.22Z" fill="url(#paint42_linear_345_8940)"/>
<path id="Vector_44" d="M140.984 122.932C140.984 122.828 140.935 122.724 140.836 122.658L87.7001 87.2888C87.5518 87.19 87.3486 87.2284 87.2443 87.3822C87.1454 87.5305 87.1839 87.7337 87.3376 87.838L140.474 123.207C140.622 123.306 140.825 123.268 140.929 123.114C140.968 123.059 140.984 122.993 140.984 122.932Z" fill="url(#paint43_linear_345_8940)"/>
<path id="Vector_45" d="M143.734 118.417C143.734 118.302 143.674 118.192 143.564 118.132L87.6821 87.2828C87.5228 87.1949 87.3251 87.2553 87.2372 87.4091C87.1494 87.5684 87.2098 87.7661 87.3635 87.854L143.246 118.703C143.405 118.791 143.603 118.731 143.69 118.577C143.718 118.527 143.729 118.472 143.729 118.417H143.734Z" fill="url(#paint44_linear_345_8940)"/>
<path id="Vector_46" d="M146.094 113.689C146.094 113.563 146.022 113.442 145.902 113.392L87.6579 87.2776C87.4931 87.2062 87.3009 87.2776 87.224 87.4424C87.1526 87.6071 87.224 87.7993 87.3888 87.8762L145.632 113.991C145.797 114.063 145.989 113.991 146.066 113.826C146.088 113.782 146.094 113.738 146.094 113.695V113.689Z" fill="url(#paint45_linear_345_8940)"/>
<path id="Vector_47" d="M148.055 108.774C148.055 108.636 147.972 108.51 147.835 108.466L87.6307 87.2612C87.4604 87.2008 87.2737 87.2887 87.2133 87.459C87.1529 87.6292 87.2408 87.8159 87.411 87.8764L147.615 109.081C147.786 109.142 147.972 109.054 148.033 108.884C148.044 108.845 148.049 108.812 148.049 108.774H148.055Z" fill="url(#paint46_linear_345_8940)"/>
<path id="Vector_48" d="M149.602 103.71C149.602 103.567 149.503 103.43 149.354 103.391L87.6014 87.2444C87.4256 87.2005 87.2499 87.3048 87.2004 87.4806C87.1565 87.6563 87.2608 87.8321 87.4366 87.8815L149.19 104.028C149.365 104.072 149.541 103.968 149.591 103.792C149.596 103.765 149.602 103.737 149.602 103.71Z" fill="url(#paint47_linear_345_8940)"/>
<path id="Vector_49" d="M150.73 98.5425C150.73 98.3887 150.621 98.246 150.461 98.2185L87.5824 87.2398C87.4067 87.2068 87.2364 87.3277 87.2034 87.5034C87.1705 87.6792 87.2913 87.8494 87.4671 87.8824L150.346 98.8611C150.522 98.894 150.692 98.7732 150.725 98.5974C150.725 98.581 150.725 98.559 150.725 98.5425H150.73Z" fill="url(#paint48_linear_345_8940)"/>
<path id="Vector_50" d="M151.422 93.3092C151.422 93.1444 151.296 93.0016 151.125 92.9851L87.5543 87.2514C87.3731 87.2349 87.2138 87.3667 87.1974 87.548C87.1864 87.7292 87.3127 87.8885 87.4939 87.905L151.065 93.6387C151.246 93.6552 151.405 93.5234 151.422 93.3421C151.422 93.3311 151.422 93.3201 151.422 93.3147V93.3092Z" fill="url(#paint49_linear_345_8940)"/>
<path id="Vector_51" d="M151.68 88.0221C151.68 87.8408 151.537 87.698 151.356 87.6925L87.5266 87.2422C87.3453 87.2422 87.197 87.385 87.197 87.5662C87.197 87.7475 87.3398 87.8957 87.5211 87.8957L151.35 88.3461C151.531 88.3461 151.68 88.2033 151.68 88.0221Z" fill="url(#paint50_linear_345_8940)"/>
<path id="Vector_52" d="M151.492 82.7364C151.492 82.7364 151.492 82.7199 151.492 82.7089C151.476 82.5277 151.322 82.3959 151.141 82.4069L87.4929 87.2399C87.3116 87.2509 87.1743 87.4102 87.1908 87.5914C87.2073 87.7727 87.361 87.9045 87.5423 87.8935L151.19 83.0604C151.36 83.0495 151.492 82.9012 151.492 82.7364Z" fill="url(#paint51_linear_345_8940)"/>
<path id="Vector_53" d="M150.877 77.4802C150.877 77.4802 150.877 77.4473 150.877 77.4308C150.85 77.2495 150.68 77.1287 150.504 77.1617L87.4766 87.2451C87.2954 87.2726 87.1746 87.4429 87.2075 87.6186C87.235 87.7998 87.4052 87.9207 87.581 87.8877L150.608 77.8042C150.767 77.7768 150.883 77.6395 150.883 77.4802H150.877Z" fill="url(#paint52_linear_345_8940)"/>
<path id="Vector_54" d="M149.824 72.3031C149.824 72.3031 149.824 72.2481 149.813 72.2262C149.769 72.0504 149.594 71.9461 149.418 71.9845L87.4396 87.2525C87.2638 87.2965 87.154 87.4722 87.1979 87.648C87.2418 87.8237 87.4176 87.9281 87.5933 87.8896L149.572 72.6216C149.72 72.5831 149.819 72.4513 149.819 72.3031H149.824Z" fill="url(#paint53_linear_345_8940)"/>
<path id="Vector_55" d="M148.346 67.2194C148.346 67.1865 148.341 67.148 148.33 67.1151C148.269 66.9448 148.088 66.8514 147.912 66.9064L87.4113 87.2546C87.2411 87.315 87.1477 87.4962 87.2081 87.6665C87.2685 87.8367 87.4498 87.9301 87.6255 87.8697L148.126 67.5215C148.264 67.4775 148.352 67.3457 148.352 67.2084L148.346 67.2194Z" fill="url(#paint54_linear_345_8940)"/>
<path id="Vector_56" d="M146.457 62.2819C146.457 62.2379 146.446 62.194 146.43 62.1501C146.358 61.9853 146.166 61.9084 146.001 61.9798L87.3951 87.2654C87.2303 87.3368 87.1534 87.529 87.2248 87.6938C87.2962 87.8586 87.4884 87.9354 87.6532 87.864L146.259 62.5785C146.386 62.5235 146.457 62.4027 146.457 62.2764V62.2819Z" fill="url(#paint55_linear_345_8940)"/>
<path id="Vector_57" d="M144.16 57.5154C144.16 57.4659 144.149 57.411 144.122 57.3616C144.039 57.2023 143.836 57.1419 143.677 57.2243L87.3664 87.277C87.2072 87.3649 87.1468 87.5626 87.2291 87.7219C87.3115 87.8811 87.5147 87.9415 87.674 87.8592L143.984 57.8064C144.094 57.746 144.16 57.6362 144.16 57.5154Z" fill="url(#paint56_linear_345_8940)"/>
<path id="Vector_58" d="M141.48 52.9602C141.48 52.8998 141.464 52.8394 141.426 52.7845C141.327 52.6307 141.123 52.5867 140.975 52.6856L87.3449 87.2967C87.1911 87.3956 87.1472 87.5988 87.2461 87.7471C87.3449 87.9009 87.5481 87.9448 87.6964 87.846L141.327 53.2348C141.426 53.1744 141.475 53.0646 141.475 52.9602H141.48Z" fill="url(#paint57_linear_345_8940)"/>
<path id="Vector_59" d="M138.434 48.638C138.434 48.5666 138.412 48.5007 138.368 48.4403C138.258 48.2975 138.049 48.27 137.906 48.3799L87.3242 87.3133C87.1814 87.4232 87.1539 87.6264 87.2638 87.7747C87.3736 87.9174 87.5823 87.9449 87.7251 87.8351L138.307 48.9016C138.39 48.8357 138.434 48.7424 138.434 48.6435V48.638Z" fill="url(#paint58_linear_345_8940)"/>
<path id="Vector_60" d="M135.031 44.5914C135.031 44.5145 135.004 44.4322 134.943 44.3718C134.823 44.2399 134.614 44.229 134.482 44.3498L87.2995 87.3364C87.1677 87.4572 87.1567 87.6659 87.2775 87.7977C87.3983 87.9295 87.607 87.9405 87.7388 87.8197L134.921 44.8331C134.993 44.7672 135.026 44.6793 135.026 44.5914H135.031Z" fill="url(#paint59_linear_345_8940)"/>
<path id="Vector_61" d="M131.312 40.8283C131.312 40.7405 131.28 40.6526 131.208 40.5867C131.076 40.4659 130.868 40.4713 130.747 40.6032L87.2824 87.3464C87.1616 87.4782 87.1671 87.6869 87.2989 87.8077C87.4307 87.9285 87.6394 87.923 87.7602 87.7912L131.225 41.048C131.285 40.9876 131.312 40.9052 131.312 40.8228V40.8283Z" fill="url(#paint60_linear_345_8940)"/>
<path id="Vector_62" d="M127.297 37.3901C127.297 37.2912 127.253 37.1979 127.171 37.132C127.028 37.0221 126.825 37.0441 126.709 37.1869L87.265 87.3681C87.1552 87.5109 87.1772 87.7141 87.3199 87.8295C87.4627 87.9393 87.6659 87.9173 87.7813 87.7745L127.225 37.5933C127.275 37.5329 127.297 37.4615 127.297 37.3901Z" fill="url(#paint61_linear_345_8940)"/>
<path id="Vector_63" d="M123.008 34.29C123.008 34.1856 122.958 34.0813 122.86 34.0154C122.711 33.9165 122.508 33.955 122.404 34.1088L87.2488 87.382C87.15 87.5303 87.1884 87.7335 87.3422 87.8379C87.4905 87.9367 87.6937 87.8983 87.798 87.7445L122.953 34.4712C122.991 34.4163 123.008 34.3504 123.008 34.29Z" fill="url(#paint62_linear_345_8940)"/>
<path id="Vector_64" d="M118.477 31.5682C118.477 31.4529 118.416 31.3376 118.306 31.2826C118.147 31.1948 117.949 31.2552 117.861 31.4144L87.2375 87.4173C87.1497 87.5766 87.2101 87.7743 87.3694 87.8622C87.5286 87.95 87.7263 87.8896 87.8142 87.7304L118.438 31.7275C118.466 31.6781 118.477 31.6231 118.477 31.5682Z" fill="url(#paint63_linear_345_8940)"/>
<path id="Vector_65" d="M113.734 29.2203C113.734 29.094 113.663 28.9731 113.542 28.9182C113.377 28.8468 113.185 28.9182 113.108 29.083L87.224 87.431C87.1526 87.5957 87.224 87.7879 87.3888 87.8648C87.5536 87.9362 87.7458 87.8648 87.8227 87.7001L113.707 29.3521C113.723 29.3082 113.734 29.2642 113.734 29.2203Z" fill="url(#paint64_linear_345_8940)"/>
<path id="Vector_66" d="M108.812 27.2791C108.812 27.1418 108.73 27.0155 108.593 26.9716C108.423 26.9111 108.236 27.0045 108.175 27.1748L87.2121 87.4614C87.1517 87.6317 87.2451 87.8184 87.4153 87.8788C87.5856 87.9393 87.7723 87.8459 87.8327 87.6756L108.796 27.389C108.807 27.356 108.812 27.3176 108.812 27.2791Z" fill="url(#paint65_linear_345_8940)"/>
<path id="Vector_67" d="M103.75 25.7504C103.75 25.6022 103.651 25.4703 103.503 25.4319C103.327 25.388 103.151 25.4923 103.102 25.6681L87.2023 87.4871C87.1584 87.6628 87.2627 87.8385 87.4385 87.888C87.6142 87.9319 87.79 87.8276 87.8394 87.6518L103.739 25.8328C103.739 25.8328 103.75 25.7779 103.75 25.7504Z" fill="url(#paint66_linear_345_8940)"/>
<path id="Vector_68" d="M98.5781 24.6498C98.5781 24.4905 98.4628 24.3532 98.3035 24.3257C98.1278 24.2928 97.9575 24.4136 97.9246 24.5948L87.1985 87.5177C87.1656 87.6935 87.2864 87.8637 87.4676 87.8967C87.6434 87.9296 87.8136 87.8088 87.8466 87.6276L98.5726 24.7047C98.5726 24.7047 98.5726 24.6662 98.5726 24.6498H98.5781Z" fill="url(#paint67_linear_345_8940)"/>
<path id="Vector_69" d="M93.332 23.9739C93.332 23.8036 93.2057 23.6608 93.0355 23.6498C92.8542 23.6334 92.6949 23.7652 92.6785 23.9464L87.1974 87.5393C87.1809 87.7206 87.3127 87.8798 87.4939 87.8963C87.6752 87.9128 87.8344 87.781 87.8454 87.5997L93.3265 24.0068C93.3265 24.0068 93.3265 23.9903 93.3265 23.9794L93.332 23.9739Z" fill="url(#paint68_linear_345_8940)"/>
<path id="Vector_70" d="M88.0469 23.7436C88.0469 23.5624 87.8986 23.4141 87.7228 23.4141C87.5416 23.4141 87.3933 23.5623 87.3933 23.7381L87.1956 87.5672C87.1956 87.7484 87.3439 87.8967 87.5196 87.8967C87.7009 87.8967 87.8492 87.7484 87.8492 87.5727L88.0469 23.7436Z" fill="url(#paint69_linear_345_8940)"/>
<path id="Vector_71" d="M87.8516 87.5732C87.8516 87.5732 87.8516 87.5568 87.8516 87.5458L82.7659 23.9199C82.7494 23.7387 82.5956 23.6068 82.4144 23.6178C82.2331 23.6343 82.1013 23.7881 82.1123 23.9693L87.198 87.5952C87.2145 87.7764 87.3683 87.9082 87.5495 87.8973C87.7198 87.8808 87.8516 87.738 87.8516 87.5732Z" fill="url(#paint70_linear_345_8940)"/>
<path id="Vector_72" d="M87.85 87.5681C87.85 87.5681 87.85 87.5351 87.85 87.5131L77.5139 24.5244C77.4864 24.3486 77.3161 24.2223 77.1404 24.2552C76.9647 24.2827 76.8383 24.453 76.8713 24.6287L87.2074 87.6175C87.2349 87.7932 87.4051 87.9196 87.5809 87.8866C87.7401 87.8591 87.8555 87.7218 87.8555 87.5626L87.85 87.5681Z" fill="url(#paint71_linear_345_8940)"/>
<path id="Vector_73" d="M87.8516 87.569C87.8516 87.569 87.8516 87.5141 87.8406 87.4867L72.3254 25.5743C72.2815 25.3986 72.1057 25.2942 71.93 25.3382C71.7542 25.3821 71.6499 25.5578 71.6938 25.7336L87.209 87.6459C87.2529 87.8217 87.4287 87.926 87.6044 87.8821C87.7527 87.8437 87.8516 87.7118 87.8516 87.5636V87.569Z" fill="url(#paint72_linear_345_8940)"/>
<path id="Vector_74" d="M87.8516 87.5726C87.8516 87.5397 87.8461 87.5012 87.8351 87.4683L67.2452 27.0498C67.1848 26.8795 67.0036 26.7861 66.8278 26.8466C66.6576 26.907 66.5642 27.0882 66.6246 27.264L87.2145 87.6825C87.2749 87.8527 87.4561 87.9461 87.6319 87.8857C87.7692 87.8417 87.8516 87.7099 87.8516 87.5781V87.5726Z" fill="url(#paint73_linear_345_8940)"/>
<path id="Vector_75" d="M87.8516 87.5704C87.8516 87.5264 87.8406 87.4825 87.8241 87.4386L62.3024 28.9313C62.231 28.7666 62.0387 28.6897 61.874 28.7611C61.7092 28.8325 61.6323 29.0247 61.7037 29.1895L87.2255 87.6967C87.2969 87.8615 87.4891 87.9384 87.6538 87.867C87.7747 87.812 87.8516 87.6912 87.8516 87.5649V87.5704Z" fill="url(#paint74_linear_345_8940)"/>
<path id="Vector_76" d="M87.8516 87.5781C87.8516 87.5232 87.8406 87.4738 87.8131 87.4243L57.5352 31.2348C57.4473 31.0755 57.2496 31.0151 57.0904 31.1029C56.9311 31.1908 56.8707 31.3885 56.9585 31.5478L87.2364 87.7374C87.3243 87.8967 87.522 87.9571 87.6813 87.8692C87.7911 87.8088 87.8516 87.6989 87.8516 87.5781Z" fill="url(#paint75_linear_345_8940)"/>
</g>
<g id="Group_3">
<path id="Vector_77" d="M55.7538 119.337C38.2051 101.789 38.2051 73.3365 55.7538 55.7877C73.3026 38.239 101.755 38.239 119.303 55.7877C136.852 73.3365 136.852 101.789 119.303 119.337C101.755 136.886 73.3026 136.886 55.7538 119.337Z" fill="white"/>
<path id="Vector_78" d="M132.797 87.5627C132.797 62.6011 112.493 42.2969 87.5311 42.2969C62.5695 42.2969 42.2652 62.6011 42.2652 87.5627C42.2652 112.524 62.5695 132.829 87.5311 132.829C112.493 132.829 132.797 112.524 132.797 87.5627ZM42.9188 87.5627C42.9188 62.9636 62.932 42.9504 87.5311 42.9504C112.13 42.9504 132.143 62.9636 132.143 87.5627C132.143 112.162 112.13 132.175 87.5311 132.175C62.932 132.175 42.9188 112.162 42.9188 87.5627Z" fill="url(#paint76_linear_345_8940)"/>
</g>
<g id="Group_4">
<path id="Vector_79" d="M164.727 87.0568C164.727 76.5175 162.662 66.2967 158.592 56.669C154.66 47.3709 149.03 39.0229 141.863 31.8558C134.696 24.6886 126.348 19.0592 117.05 15.1269C107.428 11.0572 97.2013 8.99219 86.662 8.99219C76.1226 8.99219 65.9019 11.0572 56.2742 15.1269C46.9761 19.0592 38.6281 24.6886 31.461 31.8558C24.2938 39.0229 18.6644 47.3709 14.732 56.669C10.6624 66.2912 8.59738 76.5175 8.59738 87.0568C8.59738 97.5961 10.6624 107.817 14.732 117.445C18.6644 126.743 24.2938 135.091 31.461 142.258C38.6281 149.425 46.9761 155.054 56.2742 158.987C65.8964 163.056 76.1226 165.121 86.662 165.121C97.2013 165.121 107.422 163.056 117.05 158.987C126.348 155.054 134.696 149.425 141.863 142.258C149.03 135.091 154.66 126.743 158.592 117.445C162.662 107.822 164.727 97.5961 164.727 87.0568ZM9.25095 87.0568C9.25095 66.3791 17.3023 46.9425 31.9223 32.3171C46.5422 17.6972 65.9842 9.64575 86.662 9.64575C107.34 9.64575 126.776 17.6972 141.402 32.3171C156.022 46.937 164.073 66.3791 164.073 87.0568C164.073 107.735 156.022 127.171 141.402 141.796C126.782 156.416 107.34 164.468 86.662 164.468C65.9842 164.468 46.5477 156.416 31.9223 141.796C17.3023 127.177 9.25095 107.735 9.25095 87.0568Z" fill="url(#paint77_linear_345_8940)"/>
</g>
<g id="Group_5">
<path id="Vector_80" d="M86.8521 167.94C88.5876 168.214 90.2187 167.028 90.4878 165.292C90.7624 163.557 89.5762 161.926 87.8407 161.657C86.1052 161.382 84.474 162.568 84.2049 164.304C83.9303 166.039 85.1166 167.671 86.8521 167.94Z" fill="url(#paint78_linear_345_8940)"/>
<path id="Vector_81" d="M90.8555 164.786C90.8555 164.05 90.6248 163.336 90.1799 162.726C89.6252 161.968 88.8124 161.469 87.8897 161.326C86.9616 161.177 86.0334 161.403 85.2755 161.957C84.5176 162.512 84.0178 163.325 83.875 164.248C83.7267 165.176 83.9519 166.104 84.5066 166.862C85.0558 167.62 85.8741 168.119 86.7968 168.262C87.725 168.411 88.6531 168.185 89.4111 167.631C90.169 167.076 90.6687 166.263 90.8115 165.34C90.839 165.154 90.8555 164.973 90.8555 164.786ZM84.4901 164.797C84.4901 164.648 84.5011 164.495 84.5231 164.346C84.6439 163.594 85.0448 162.929 85.6654 162.479C86.2806 162.029 87.0385 161.847 87.7909 161.968C88.5433 162.089 89.2078 162.49 89.6582 163.111C90.1085 163.726 90.2898 164.484 90.169 165.236C90.0481 165.989 89.6472 166.653 89.0266 167.103C88.4115 167.554 87.6536 167.735 86.9012 167.614C86.1487 167.493 85.4842 167.092 85.0339 166.472C84.6769 165.978 84.4846 165.395 84.4846 164.797H84.4901Z" fill="url(#paint79_linear_345_8940)"/>
</g>
<path id="Vector_82" d="M86.8521 12.4631C88.5876 12.7377 90.2187 11.5514 90.4878 9.81589C90.7624 8.08039 89.5762 6.44924 87.8407 6.18013C86.1052 5.90553 84.474 7.09182 84.2049 8.82732C83.9303 10.5628 85.1166 12.194 86.8521 12.4631Z" fill="url(#paint80_linear_345_8940)"/>
<g id="Group_6">
<path id="Vector_83" d="M87.5268 109.368C75.482 109.368 65.7178 99.6039 65.7178 87.5591C65.7178 75.5143 75.482 65.75 87.5268 65.75C99.5717 65.75 109.336 75.5143 109.336 87.5591C109.336 99.6039 99.5717 109.368 87.5268 109.368Z" fill="url(#paint81_linear_345_8940)"/>
</g>
<g id="Group_7">
<path id="Vector_84" d="M166.146 89.9727C166.788 89.5058 167.206 88.8193 167.326 88.0395C167.348 87.8857 167.359 87.7319 167.359 87.5781H161.433C161.433 88.2042 161.631 88.8139 162.005 89.3246C162.471 89.9617 163.158 90.3846 163.938 90.5054C164.718 90.6262 165.503 90.4395 166.14 89.9727H166.146Z" fill="url(#paint82_linear_345_8940)"/>
<path id="Vector_85" d="M163.87 90.929C162.969 90.7917 162.184 90.3084 161.646 89.5724C161.113 88.8365 160.893 87.9413 161.036 87.0406C161.179 86.1453 161.662 85.3545 162.393 84.8163C163.129 84.2835 164.024 84.0638 164.925 84.2066C165.82 84.3439 166.611 84.8272 167.143 85.5632C167.572 86.1508 167.797 86.8428 167.797 87.5568C167.797 87.7326 167.786 87.9138 167.753 88.0896C167.61 88.9848 167.127 89.7756 166.396 90.3138C165.66 90.8466 164.765 91.0663 163.865 90.9235L163.87 90.929ZM166.144 89.9678C166.786 89.501 167.204 88.8145 167.325 88.0346C167.347 87.8808 167.358 87.7271 167.358 87.5733H161.432C161.432 88.1994 161.629 88.809 162.003 89.3198C162.47 89.9569 163.156 90.3798 163.936 90.5006C164.716 90.6214 165.501 90.4347 166.138 89.9678H166.144Z" fill="url(#paint83_linear_345_8940)"/>
</g>
<g id="Group_8">
<path id="Vector_86" d="M7.39326 85.1701C6.75069 85.6369 6.33329 86.3234 6.21246 87.1033C6.1905 87.2571 6.1795 87.4109 6.1795 87.5647H12.1055C12.1055 86.9386 11.9077 86.3289 11.5343 85.8182C11.0675 85.1811 10.381 84.7582 9.60108 84.6374C8.8212 84.5165 8.03582 84.7033 7.39874 85.1701H7.39326Z" fill="url(#paint84_linear_345_8940)"/>
<path id="Vector_87" d="M9.66647 84.209C10.5672 84.3463 11.3526 84.8296 11.8908 85.5655C12.4235 86.3014 12.6432 87.1967 12.5004 88.0974C12.3576 88.9926 11.8743 89.7834 11.1438 90.3217C10.4079 90.8544 9.5127 91.0741 8.612 90.9313C7.71679 90.794 6.92592 90.3107 6.39319 89.5747C5.96481 88.9871 5.73963 88.2951 5.73963 87.5811C5.73963 87.4054 5.75062 87.2241 5.78358 87.0484C5.92637 86.1532 6.40966 85.3623 7.14011 84.8241C7.87605 84.2913 8.77127 84.0717 9.67197 84.2144L9.66647 84.209ZM7.39276 85.1701C6.75018 85.6369 6.33279 86.3234 6.21196 87.1033C6.18999 87.2571 6.17899 87.4109 6.17899 87.5646H12.105C12.105 86.9385 11.9072 86.3289 11.5338 85.8181C11.067 85.1811 10.3804 84.7582 9.60057 84.6373C8.82069 84.5165 8.03532 84.7032 7.39824 85.1701H7.39276Z" fill="url(#paint85_linear_345_8940)"/>
</g>
<g id="Group_9">
<path id="Vector_88" d="M144.562 143.113C145.09 142.113 145.007 140.899 144.337 139.982C143.87 139.345 143.184 138.922 142.404 138.801C141.619 138.681 140.839 138.867 140.196 139.334C139.405 139.911 138.977 140.812 138.977 141.729C138.977 142.196 139.092 142.673 139.323 143.113C139.521 142.827 139.768 142.564 140.07 142.344C141.492 141.311 143.486 141.624 144.519 143.047C144.535 143.069 144.551 143.096 144.562 143.124V143.113Z" fill="url(#paint86_linear_345_8940)"/>
<path id="Vector_89" d="M141.411 145.088C140.516 144.945 139.725 144.461 139.193 143.731C139.127 143.638 139.061 143.539 138.995 143.429C138.122 141.919 138.528 140.007 139.94 138.98C140.675 138.448 141.571 138.228 142.471 138.371C143.367 138.508 144.157 138.991 144.696 139.727C145.13 140.32 145.344 141.023 145.344 141.726C145.344 142.309 145.195 142.896 144.888 143.429C144.652 143.841 144.333 144.192 143.943 144.478C143.356 144.906 142.658 145.131 141.944 145.131C141.768 145.131 141.593 145.12 141.411 145.088ZM144.339 139.98C143.872 139.343 143.185 138.92 142.405 138.799C141.62 138.678 140.84 138.865 140.198 139.332C139.407 139.908 138.978 140.809 138.978 141.726C138.978 142.193 139.094 142.671 139.324 143.11C139.522 142.825 139.769 142.561 140.071 142.341C141.494 141.309 143.487 141.622 144.52 143.044C144.536 143.066 144.553 143.094 144.564 143.121C145.091 142.122 145.009 140.908 144.339 139.991V139.98Z" fill="url(#paint87_linear_345_8940)"/>
</g>
<g id="Group_10">
<path id="Vector_90" d="M144.906 31.6829C145.433 32.6824 145.351 33.8962 144.681 34.8133C144.214 35.4504 143.528 35.8733 142.748 35.9942C141.962 36.115 141.183 35.9282 140.54 35.4614C139.749 34.8847 139.321 33.984 139.321 33.0669C139.321 32.6 139.436 32.1222 139.667 31.6829C139.864 31.9684 140.112 32.2321 140.414 32.4518C141.836 33.4843 143.83 33.1712 144.862 31.7488C144.879 31.7268 144.895 31.6993 144.906 31.6719V31.6829Z" fill="url(#paint88_linear_345_8940)"/>
<path id="Vector_91" d="M142.284 29.6641C142.998 29.6641 143.695 29.8892 144.283 30.3176C144.673 30.6032 144.992 30.9547 145.228 31.3666C145.535 31.8939 145.684 32.4815 145.684 33.0692C145.684 33.7776 145.464 34.4806 145.036 35.0683C144.503 35.8042 143.712 36.2875 142.811 36.4248C141.911 36.5676 141.015 36.3479 140.279 35.8152C138.868 34.7882 138.461 32.8769 139.335 31.3666C139.401 31.2568 139.461 31.1524 139.532 31.0645C140.065 30.3286 140.856 29.8508 141.751 29.708C141.932 29.6805 142.108 29.6641 142.284 29.6641ZM144.898 31.6852C144.898 31.6852 144.871 31.7346 144.854 31.762C143.822 33.1845 141.828 33.4975 140.406 32.465C140.104 32.2453 139.856 31.9817 139.659 31.6961C139.423 32.1355 139.313 32.6078 139.313 33.0801C139.313 33.9973 139.741 34.898 140.532 35.4747C141.175 35.9415 141.954 36.1283 142.74 36.0074C143.52 35.8811 144.206 35.4637 144.673 34.8266C145.343 33.9095 145.42 32.6957 144.898 31.6961V31.6852Z" fill="url(#paint89_linear_345_8940)"/>
</g>
<g id="Group_11">
<path id="Vector_92" d="M29.5747 141.386C29.0475 142.386 29.1298 143.599 29.7999 144.516C30.2667 145.154 30.9532 145.576 31.7331 145.697C32.5185 145.818 33.2983 145.631 33.9409 145.165C34.7318 144.588 35.1602 143.687 35.1602 142.77C35.1602 142.303 35.0448 141.825 34.8142 141.386C34.6164 141.672 34.3693 141.935 34.0672 142.155C32.6448 143.187 30.6512 142.874 29.6186 141.452C29.6022 141.43 29.5857 141.402 29.5747 141.375V141.386Z" fill="url(#paint90_linear_345_8940)"/>
<path id="Vector_93" d="M32.7266 139.411C33.6218 139.554 34.4126 140.037 34.9454 140.768C35.0113 140.861 35.0772 140.96 35.1431 141.07C36.0163 142.58 35.6099 144.491 34.1984 145.518C33.4625 146.051 32.5673 146.271 31.6666 146.128C30.7714 145.991 29.9805 145.507 29.4423 144.771C29.0084 144.178 28.7942 143.475 28.7942 142.772C28.7942 142.185 28.9425 141.602 29.2501 141.07C29.4862 140.658 29.8048 140.306 30.1947 140.021C30.7824 139.592 31.4799 139.367 32.1938 139.367C32.3696 139.367 32.5453 139.378 32.7266 139.411ZM29.7993 144.519C30.2661 145.156 30.9526 145.579 31.7325 145.7C32.5179 145.82 33.2977 145.634 33.9403 145.167C34.7312 144.59 35.1596 143.689 35.1596 142.772C35.1596 142.305 35.0442 141.828 34.8136 141.388C34.6158 141.674 34.3687 141.937 34.0666 142.157C32.6442 143.19 30.6506 142.877 29.618 141.454C29.6016 141.432 29.5851 141.405 29.5741 141.377C29.0469 142.377 29.1292 143.591 29.7993 144.508V144.519Z" fill="url(#paint91_linear_345_8940)"/>
</g>
<g id="Group_12">
<path id="Vector_94" d="M34.8203 33.5815C35.3475 32.5819 35.2651 31.3682 34.5951 30.451C34.1283 29.8139 33.4417 29.391 32.6619 29.2702C31.8765 29.1494 31.0966 29.3361 30.4541 29.8029C29.6632 30.3796 29.2348 31.2803 29.2348 32.1975C29.2348 32.6643 29.3501 33.1421 29.5808 33.5815C29.7785 33.2959 30.0257 33.0323 30.3277 32.8126C31.7502 31.7801 33.7438 32.0931 34.7763 33.5156C34.7928 33.5375 34.8093 33.565 34.8203 33.5925V33.5815Z" fill="url(#paint92_linear_345_8940)"/>
<path id="Vector_95" d="M31.6692 35.5563C30.774 35.4135 29.9832 34.9302 29.4504 34.1997C29.3845 34.1064 29.3186 34.0075 29.2527 33.8977C28.3795 32.3873 28.7859 30.4761 30.1973 29.4491C30.9333 28.9163 31.8285 28.6967 32.7292 28.8394C33.6244 28.9768 34.4153 29.4601 34.9535 30.196C35.3874 30.7891 35.6016 31.4921 35.6016 32.1951C35.6016 32.7828 35.4533 33.3649 35.1457 33.8977C34.9096 34.3096 34.591 34.6611 34.2011 34.9467C33.6134 35.375 32.9159 35.6002 32.202 35.6002C32.0262 35.6002 31.8505 35.5892 31.6692 35.5563ZM34.5965 30.4486C34.1297 29.8116 33.4432 29.3887 32.6633 29.2678C31.8779 29.147 31.0981 29.3337 30.4555 29.8006C29.6646 30.3772 29.2362 31.2779 29.2362 32.1951C29.2362 32.6619 29.3516 33.1398 29.5822 33.5791C29.78 33.2935 30.0271 33.0299 30.3292 32.8102C31.7516 31.7777 33.7452 32.0908 34.7777 33.5132C34.7942 33.5352 34.8107 33.5626 34.8217 33.5901C35.3489 32.5905 35.2666 31.3768 34.5965 30.4596V30.4486Z" fill="url(#paint93_linear_345_8940)"/>
</g>
<g id="Group_13">
<g id="Group_14">
<path id="Vector_96" d="M163.895 15.1049C163.302 17.818 161.83 24.6117 161.83 24.6117L159.749 15.0445C156.854 14.4184 150.484 13.0289 150.484 13.0289L159.793 11.0023C160.408 8.18488 161.83 1.63281 161.83 1.63281L163.851 10.9364C166.482 11.5076 173.457 13.0234 173.457 13.0234L163.895 15.1049Z" fill="url(#paint94_linear_345_8940)"/>
<path id="Vector_97" d="M175 13.0276L164.126 10.666L161.83 0.09375L159.518 10.7264L148.946 13.0276L159.474 15.3178L161.83 26.1537L164.17 15.3837L175 13.0276ZM161.83 3.17481L163.576 11.2097L171.919 13.0221L163.62 14.829L161.83 23.0672L160.023 14.7631L152.021 13.0221L160.067 11.2756L161.83 3.17481Z" fill="url(#paint95_linear_345_8940)"/>
</g>
<g id="Group_15">
<path id="Vector_98" d="M164.547 13.1545C165.947 15.3349 169.451 20.7885 169.451 20.7885L161.768 15.8511C159.445 17.345 154.326 20.6347 154.326 20.6347L159.132 13.16C157.676 10.8973 154.299 5.63583 154.299 5.63583L161.768 10.4359C163.882 9.07937 169.484 5.47656 169.484 5.47656L164.547 13.1545Z" fill="url(#paint96_linear_345_8940)"/>
<path id="Vector_99" d="M170.574 4.39062L161.77 10.0475L153.208 4.5444L158.744 13.156L153.241 21.7182L161.77 16.2371L170.547 21.8774L164.939 13.156L170.574 4.39062ZM155.389 6.72476L161.77 10.8274L168.394 6.57099L164.159 13.1615L168.366 19.7026L161.77 15.4627L155.422 19.5433L159.524 13.156L155.389 6.72476Z" fill="url(#paint97_linear_345_8940)"/>
</g>
</g>
<g id="Group_16">
<path id="Vector_100" d="M14.8312 165.187L13.0848 173.502L11.3383 165.187L7.22471 167.873L9.91033 163.759L1.59531 162.013L9.91033 160.266L7.22471 156.153C7.22471 156.153 9.33366 157.531 11.3383 158.838L13.0848 150.523C13.0848 150.523 14.1337 155.51 14.8312 158.838L18.9448 156.153C18.9448 156.153 17.5663 158.262 16.2592 160.266L24.5742 162.013C24.5742 162.013 19.5874 163.062 16.2592 163.759L18.9448 167.873L14.8312 165.187Z" fill="url(#paint98_linear_345_8940)"/>
<path id="Vector_101" d="M26.1602 162.014L16.7906 160.048L20.0639 155.034L15.0497 158.307L13.0835 148.938L11.1173 158.307L6.09755 155.034L9.37084 160.053L0.00131989 162.02L9.37084 163.986L6.09755 169L11.1173 165.727L13.0835 175.096L15.0497 165.727L20.0639 169L16.7906 163.986L26.1602 162.02V162.014ZM15.7197 160.493L22.9747 162.014L15.7197 163.541L17.8122 166.748L14.6048 164.656L13.0835 171.911L11.5622 164.656L8.3548 166.748L10.4473 163.541L3.19224 162.014L10.4473 160.493L8.3548 157.285L11.5622 159.378L13.0835 152.123L14.6048 159.378L17.8122 157.285L15.7197 160.493Z" fill="url(#paint99_linear_345_8940)"/>
</g>
</g>
<g id="Group_17">
<path id="Vector_102" d="M95.1513 75.0105L105.883 68.8594L96.1289 78.6133L95.1513 75.0105Z" fill="white"/>
<path id="Vector_103" d="M106.234 69.2109L100.083 79.9425L96.4804 78.9649L106.234 69.2109Z" fill="white"/>
<path id="Vector_104" d="M78.9287 78.6133L69.1747 68.8594L79.9062 75.0105L78.9287 78.6133Z" fill="white"/>
<path id="Vector_105" d="M90.2151 77.2717L87.7766 76.6072V49.7344L94.5703 74.7728L90.2151 77.2717Z" fill="white"/>
<path id="Vector_106" d="M96.3532 79.4531L99.8242 80.3923L97.6439 84.2038L96.3532 79.4531Z" fill="white"/>
<path id="Vector_107" d="M84.8349 77.2717L80.4852 74.7728L87.2734 49.7344V76.6072L84.8349 77.2717Z" fill="white"/>
<path id="Vector_108" d="M86.9219 87.3224H79.4801L82.1932 82.5938L86.9219 87.3224Z" fill="white"/>
<path id="Vector_109" d="M100.325 80.5234L125.363 87.3172H98.4905L97.8259 84.8787L100.325 80.5234Z" fill="white"/>
<path id="Vector_110" d="M78.625 87.3132H77.0817L77.576 85.4844L78.625 87.3132Z" fill="white"/>
<path id="Vector_111" d="M97.9727 87.3132H96.4294L97.4784 85.4844L97.9727 87.3132Z" fill="white"/>
<path id="Vector_112" d="M95.5703 87.3224H88.1285L92.8627 82.5938L95.5703 87.3224Z" fill="white"/>
<path id="Vector_113" d="M77.764 84.8043L79.1809 79.5703L81.8281 82.2175L79.0546 87.0615L77.764 84.8043Z" fill="white"/>
<path id="Vector_114" d="M74.973 79.9425L68.8219 69.2109L78.5703 78.9649L74.973 79.9425Z" fill="white"/>
<path id="Vector_115" d="M95.6445 78.7366L90.8939 77.446L94.7054 75.2656L95.6445 78.7366Z" fill="white"/>
<path id="Vector_116" d="M87.2734 78.6683L85.4501 77.6193L87.2734 77.125V78.6683Z" fill="white"/>
<path id="Vector_117" d="M84.1562 77.446L79.4056 78.7366L80.3502 75.2656L84.1562 77.446Z" fill="white"/>
<path id="Vector_118" d="M77.4102 84.2038L75.2243 80.3923L78.6953 79.4531L77.4102 84.2038Z" fill="white"/>
<path id="Vector_119" d="M82.1849 81.8665L79.5322 79.2193L84.7717 77.7969L87.0234 79.0875L82.1849 81.8665Z" fill="white"/>
<path id="Vector_120" d="M77.2266 84.8787L76.5675 87.3172H49.6947L74.7331 80.5234L77.2266 84.8787Z" fill="white"/>
<path id="Vector_121" d="M82.5447 82.231L87.2734 79.5234V86.9652L82.5447 82.231Z" fill="white"/>
<path id="Vector_122" d="M92.8723 81.8665L88.0283 79.0875L90.2856 77.7969L95.5195 79.2193L92.8723 81.8665Z" fill="white"/>
<path id="Vector_123" d="M96.0023 87.0615L93.2233 82.2175L95.8705 79.5703L97.293 84.8043L96.0023 87.0615Z" fill="white"/>
<path id="Vector_124" d="M87.7752 79.5234L92.5039 82.231L87.7752 86.9652V79.5234Z" fill="white"/>
<path id="Vector_125" d="M89.6016 77.6193L87.7727 78.6683V77.125L89.6016 77.6193Z" fill="white"/>
<path id="Vector_126" d="M88.1285 87.8125H95.5703L92.8627 92.5412L88.1285 87.8125Z" fill="white"/>
<path id="Vector_127" d="M96.4294 87.8125H97.9727L97.4784 89.6359L96.4294 87.8125Z" fill="white"/>
<path id="Vector_128" d="M97.6439 90.9375L99.8242 94.7435L96.3532 95.6882L97.6439 90.9375Z" fill="white"/>
<path id="Vector_129" d="M74.7331 94.6007L49.6947 87.8125H76.5675L77.2266 90.251L74.7331 94.6007Z" fill="white"/>
<path id="Vector_130" d="M79.9062 100.121L69.1747 106.272L78.9287 96.5234L79.9062 100.121Z" fill="white"/>
<path id="Vector_131" d="M79.4801 87.8125H86.9219L82.1932 92.5412L79.4801 87.8125Z" fill="white"/>
<path id="Vector_132" d="M98.4905 87.8125H125.363L100.325 94.6007L97.8259 90.251L98.4905 87.8125Z" fill="white"/>
<path id="Vector_133" d="M100.083 95.1875L106.234 105.919L96.4804 96.1651L100.083 95.1875Z" fill="white"/>
<path id="Vector_134" d="M84.8349 97.8672L87.2734 98.5262V125.399L80.4852 100.361L84.8349 97.8672Z" fill="white"/>
<path id="Vector_135" d="M96.1289 96.5234L105.883 106.272L95.1513 100.121L96.1289 96.5234Z" fill="white"/>
<path id="Vector_136" d="M90.2151 97.8672L94.5703 100.361L87.7766 125.399V98.5262L90.2151 97.8672Z" fill="white"/>
<path id="Vector_137" d="M77.0817 87.8125H78.625L77.576 89.6359L77.0817 87.8125Z" fill="white"/>
<path id="Vector_138" d="M97.293 90.3222L95.8705 95.5616L93.2233 92.909L96.0023 88.0704L97.293 90.3222Z" fill="white"/>
<path id="Vector_139" d="M92.5039 92.9006L87.7752 95.6137V88.1719L92.5039 92.9006Z" fill="white"/>
<path id="Vector_140" d="M84.7717 97.3298L79.5322 95.9128L82.1849 93.2656L87.0234 96.0391L84.7717 97.3298Z" fill="white"/>
<path id="Vector_141" d="M87.2734 95.6137L82.5447 92.9006L87.2734 88.1719V95.6137Z" fill="white"/>
<path id="Vector_142" d="M79.0546 88.0703L81.8281 92.9088L79.1809 95.5615L77.764 90.3221L79.0546 88.0703Z" fill="white"/>
<path id="Vector_143" d="M78.6953 95.6882L75.2243 94.7435L77.4102 90.9375L78.6953 95.6882Z" fill="white"/>
<path id="Vector_144" d="M85.4501 97.5177L87.2734 96.4688V98.012L85.4501 97.5177Z" fill="white"/>
<path id="Vector_145" d="M68.8219 105.919L74.973 95.1875L78.5703 96.1651L68.8219 105.919Z" fill="white"/>
<path id="Vector_146" d="M79.4056 96.3906L84.1562 97.6758L80.3502 99.8616L79.4056 96.3906Z" fill="white"/>
<path id="Vector_147" d="M90.2856 97.3298L88.0283 96.0391L92.8723 93.2656L95.5195 95.9128L90.2856 97.3298Z" fill="white"/>
<path id="Vector_148" d="M90.8939 97.6758L95.6445 96.3906L94.7054 99.8616L90.8939 97.6758Z" fill="white"/>
<path id="Vector_149" d="M87.7727 96.4688L89.6016 97.5177L87.7727 98.012V96.4688Z" fill="white"/>
<path id="Vector_150" d="M87.2862 127.339L80.0366 100.62L67.7947 107.633C67.6959 107.688 67.5751 107.672 67.4927 107.595C67.4158 107.518 67.3993 107.392 67.4542 107.293L74.4676 95.0509L47.7486 87.8013C47.6388 87.7739 47.5674 87.675 47.5674 87.5597C47.5674 87.4444 47.6443 87.351 47.7486 87.3181L74.4676 80.0685L67.4487 67.8266C67.3938 67.7278 67.4103 67.6069 67.4872 67.5245C67.5641 67.4422 67.6904 67.4257 67.7892 67.4861L80.0311 74.4995L87.2807 47.7805C87.3081 47.6706 87.407 47.5938 87.5223 47.5938C87.6377 47.5938 87.731 47.6706 87.764 47.775L95.0135 74.494L107.255 67.4806C107.354 67.4257 107.475 67.4422 107.557 67.5191C107.634 67.5959 107.651 67.7223 107.596 67.8211L100.583 80.063L127.302 87.3126C127.411 87.34 127.488 87.4389 127.488 87.5542C127.488 87.6695 127.411 87.7629 127.302 87.7959L100.583 95.0454L107.596 107.287C107.651 107.381 107.634 107.507 107.557 107.589C107.481 107.666 107.354 107.683 107.255 107.628L95.0135 100.614L87.764 127.333C87.7365 127.443 87.6377 127.52 87.5223 127.52C87.407 127.52 87.3136 127.443 87.2807 127.333L87.2862 127.339ZM75.2255 80.3925L77.4059 84.1985L78.6965 79.4479L75.2255 80.3925ZM84.1557 77.4543L80.3497 75.2684L79.405 78.7394L84.1557 77.4488V77.4543ZM79.5313 79.2282L82.1785 81.8754L87.0226 79.1019L84.7653 77.8112L79.5313 79.2337V79.2282ZM85.4463 77.6245L87.2752 78.6735V77.1302L85.4463 77.6245ZM87.7695 78.6735L89.5983 77.6245L87.7695 77.1302V78.6735ZM95.6396 78.7504L94.695 75.2794L90.889 77.4652L95.6396 78.7559V78.7504ZM90.2794 77.8112L88.0221 79.1019L92.8661 81.8754L95.5133 79.2282L90.2794 77.8057V77.8112ZM93.2176 82.2324L95.9911 87.0764L97.2818 84.8191L95.8593 79.5852L93.2121 82.2324H93.2176ZM87.7695 79.5357V86.9775L92.4982 82.2488L87.7695 79.5357ZM87.2697 79.5357L82.541 82.2488L87.2697 86.9775V79.5357ZM81.8215 82.2324L79.1744 79.5852L77.7519 84.8191L79.0425 87.0764L81.8161 82.2324H81.8215ZM74.9619 79.9532L78.5647 78.9756L68.8108 69.2216L74.9619 79.9532ZM69.1623 68.8701L78.9162 78.6241L79.8938 75.0212L69.1623 68.8701ZM80.476 74.7796L84.8312 77.273L87.2697 76.614V49.7412L80.476 74.7796ZM87.7695 49.7412V76.614L90.208 77.273L94.5632 74.7796L87.7695 49.7412ZM95.1454 75.0212L96.123 78.6241L105.877 68.8701L95.1454 75.0212ZM106.228 69.2216L96.4744 78.9756L100.077 79.9532L106.228 69.2216ZM96.3481 79.4589L97.6388 84.2095L99.8191 80.4035L96.3481 79.4589ZM125.357 87.329L100.319 80.5353L97.8255 84.8905L98.4845 87.329H125.357ZM97.9683 87.329L97.474 85.5002L96.425 87.329H97.9683ZM95.5628 87.329L92.8497 82.6003L88.121 87.329H95.5628ZM86.9182 87.329L82.1895 82.6003L79.4764 87.329H86.9182ZM78.6142 87.329L77.5652 85.5002L77.0709 87.329H78.6142ZM76.5546 87.329L77.2137 84.8905L74.7203 80.5353L49.6818 87.329H76.5546ZM79.8938 100.137L78.9162 96.5338L69.1623 106.288L79.8938 100.137ZM81.8215 92.9255L79.048 88.0815L77.7574 90.3387L79.1798 95.5727L81.827 92.9255H81.8215ZM79.5259 95.9242L84.7598 97.3466L87.0171 96.056L82.173 93.2825L79.5259 95.9296V95.9242ZM87.2697 95.6221V88.1803L82.541 92.909L87.2697 95.6221ZM87.7695 95.6221L92.4982 92.909L87.7695 88.1803V95.6221ZM93.2176 92.9255L95.8648 95.5727L97.2873 90.3387L95.9966 88.0815L93.2231 92.9255H93.2176ZM92.8661 93.277L88.0221 96.0505L90.2794 97.3411L95.5133 95.9187L92.8661 93.2715V93.277ZM90.889 97.6981L94.695 99.8785L95.6396 96.4075L90.889 97.6981ZM89.5983 97.5333L87.7695 96.4843V98.0276L89.5983 97.5333ZM87.2752 96.4843L85.4463 97.5333L87.2752 98.0276V96.4843ZM79.405 96.4075L80.3497 99.8785L84.1557 97.6981L79.405 96.4075ZM68.8163 105.936L78.5702 96.1823L74.9674 95.2047L68.8163 105.936ZM78.6965 95.699L77.4059 90.9483L75.2201 94.7543L78.6911 95.699H78.6965ZM49.6873 87.8288L74.7258 94.6225L77.2192 90.2673L76.5601 87.8288H49.6873ZM77.0764 87.8288L77.5707 89.6577L78.6197 87.8288H77.0764ZM79.4819 87.8288L82.195 92.5575L86.9237 87.8288H79.4819ZM88.1265 87.8288L92.8552 92.5575L95.5682 87.8288H88.1265ZM96.4305 87.8288L97.4795 89.6577L97.9738 87.8288H96.4305ZM125.363 87.8288H98.49L97.831 90.2673L100.324 94.6225L125.363 87.8288ZM99.8246 94.7543L97.6443 90.9483L96.3536 95.699L99.8246 94.7543ZM100.083 95.1992L96.4799 96.1768L106.234 105.931L100.083 95.1992ZM105.882 106.282L96.1284 96.5283L95.1508 100.131L105.882 106.282ZM94.5687 100.373L90.2135 97.8793L87.775 98.5384V125.411L94.5687 100.373ZM87.2752 98.5384L84.8367 97.8793L80.4815 100.373L87.2752 125.411V98.5384Z" fill="url(#paint100_linear_345_8940)"/>
</g>
</g>
<defs>
<linearGradient id="paint0_linear_345_8940" x1="87.6592" y1="33.2038" x2="53.1697" y2="33.2419" gradientUnits="userSpaceOnUse">
<stop stop-color="#9E1256"/>
<stop offset="0.265625" stop-color="#CE164F"/>
<stop offset="0.5" stop-color="#E74249"/>
<stop offset="0.770833" stop-color="#ED6E49"/>
<stop offset="1" stop-color="#F9B048"/>
</linearGradient>
<linearGradient id="paint1_linear_345_8940" x1="87.635" y1="36.2037" x2="48.8067" y2="36.2548" gradientUnits="userSpaceOnUse">
<stop stop-color="#9E1256"/>
<stop offset="0.265625" stop-color="#CE164F"/>
<stop offset="0.5" stop-color="#E74249"/>
<stop offset="0.770833" stop-color="#ED6E49"/>
<stop offset="1" stop-color="#F9B048"/>
</linearGradient>
<linearGradient id="paint2_linear_345_8940" x1="87.6123" y1="39.5474" x2="44.7008" y2="39.6142" gradientUnits="userSpaceOnUse">
<stop stop-color="#9E1256"/>
<stop offset="0.265625" stop-color="#CE164F"/>
<stop offset="0.5" stop-color="#E74249"/>
<stop offset="0.770833" stop-color="#ED6E49"/>
<stop offset="1" stop-color="#F9B048"/>
</linearGradient>
<linearGradient id="paint3_linear_345_8940" x1="87.5911" y1="43.2271" x2="40.8914" y2="43.3126" gradientUnits="userSpaceOnUse">
<stop stop-color="#9E1256"/>
<stop offset="0.265625" stop-color="#CE164F"/>
<stop offset="0.5" stop-color="#E74249"/>
<stop offset="0.770833" stop-color="#ED6E49"/>
<stop offset="1" stop-color="#F9B048"/>
</linearGradient>
<linearGradient id="paint4_linear_345_8940" x1="87.5718" y1="47.2036" x2="37.3989" y2="47.312" gradientUnits="userSpaceOnUse">
<stop stop-color="#9E1256"/>
<stop offset="0.265625" stop-color="#CE164F"/>
<stop offset="0.5" stop-color="#E74249"/>
<stop offset="0.770833" stop-color="#ED6E49"/>
<stop offset="1" stop-color="#F9B048"/>
</linearGradient>
<linearGradient id="paint5_linear_345_8940" x1="87.5543" y1="51.4614" x2="34.2523" y2="51.598" gradientUnits="userSpaceOnUse">
<stop stop-color="#9E1256"/>
<stop offset="0.265625" stop-color="#CE164F"/>
<stop offset="0.5" stop-color="#E74249"/>
<stop offset="0.770833" stop-color="#ED6E49"/>
<stop offset="1" stop-color="#F9B048"/>
</linearGradient>
<linearGradient id="paint6_linear_345_8940" x1="87.5427" y1="55.9535" x2="31.466" y2="56.126" gradientUnits="userSpaceOnUse">
<stop stop-color="#9E1256"/>
<stop offset="0.265625" stop-color="#CE164F"/>
<stop offset="0.5" stop-color="#E74249"/>
<stop offset="0.770833" stop-color="#ED6E49"/>
<stop offset="1" stop-color="#F9B048"/>
</linearGradient>
<linearGradient id="paint7_linear_345_8940" x1="87.5255" y1="60.6722" x2="29.0589" y2="60.8922" gradientUnits="userSpaceOnUse">
<stop stop-color="#9E1256"/>
<stop offset="0.265625" stop-color="#CE164F"/>
<stop offset="0.5" stop-color="#E74249"/>
<stop offset="0.770833" stop-color="#ED6E49"/>
<stop offset="1" stop-color="#F9B048"/>
</linearGradient>
<linearGradient id="paint8_linear_345_8940" x1="87.5183" y1="65.5628" x2="27.0607" y2="65.8495" gradientUnits="userSpaceOnUse">
<stop stop-color="#9E1256"/>
<stop offset="0.265625" stop-color="#CE164F"/>
<stop offset="0.5" stop-color="#E74249"/>
<stop offset="0.770833" stop-color="#ED6E49"/>
<stop offset="1" stop-color="#F9B048"/>
</linearGradient>
<linearGradient id="paint9_linear_345_8940" x1="87.5056" y1="70.6096" x2="25.4692" y2="70.9996" gradientUnits="userSpaceOnUse">
<stop stop-color="#9E1256"/>
<stop offset="0.265625" stop-color="#CE164F"/>
<stop offset="0.5" stop-color="#E74249"/>
<stop offset="0.770833" stop-color="#ED6E49"/>
<stop offset="1" stop-color="#F9B048"/>
</linearGradient>
<linearGradient id="paint10_linear_345_8940" x1="87.4991" y1="75.758" x2="24.3015" y2="76.3349" gradientUnits="userSpaceOnUse">
<stop stop-color="#9E1256"/>
<stop offset="0.265625" stop-color="#CE164F"/>
<stop offset="0.5" stop-color="#E74249"/>
<stop offset="0.770833" stop-color="#ED6E49"/>
<stop offset="1" stop-color="#F9B048"/>
</linearGradient>
<linearGradient id="paint11_linear_345_8940" x1="87.495" y1="81.0001" x2="23.5799" y2="82.0394" gradientUnits="userSpaceOnUse">
<stop stop-color="#9E1256"/>
<stop offset="0.265625" stop-color="#CE164F"/>
<stop offset="0.5" stop-color="#E74249"/>
<stop offset="0.770833" stop-color="#ED6E49"/>
<stop offset="1" stop-color="#F9B048"/>
</linearGradient>
<linearGradient id="paint12_linear_345_8940" x1="87.4972" y1="86.2813" x2="23.571" y2="90.7381" gradientUnits="userSpaceOnUse">
<stop stop-color="#9E1256"/>
<stop offset="0.265625" stop-color="#CE164F"/>
<stop offset="0.5" stop-color="#E74249"/>
<stop offset="0.770833" stop-color="#ED6E49"/>
<stop offset="1" stop-color="#F9B048"/>
</linearGradient>
<linearGradient id="paint13_linear_345_8940" x1="87.498" y1="87.2501" x2="23.4401" y2="88.6952" gradientUnits="userSpaceOnUse">
<stop stop-color="#9E1256"/>
<stop offset="0.265625" stop-color="#CE164F"/>
<stop offset="0.5" stop-color="#E74249"/>
<stop offset="0.770833" stop-color="#ED6E49"/>
<stop offset="1" stop-color="#F9B048"/>
</linearGradient>
<linearGradient id="paint14_linear_345_8940" x1="87.5012" y1="87.2501" x2="23.9913" y2="87.9405" gradientUnits="userSpaceOnUse">
<stop stop-color="#9E1256"/>
<stop offset="0.265625" stop-color="#CE164F"/>
<stop offset="0.5" stop-color="#E74249"/>
<stop offset="0.770833" stop-color="#ED6E49"/>
<stop offset="1" stop-color="#F9B048"/>
</linearGradient>
<linearGradient id="paint15_linear_345_8940" x1="87.5029" y1="87.2502" x2="24.9938" y2="87.694" gradientUnits="userSpaceOnUse">
<stop stop-color="#9E1256"/>
<stop offset="0.265625" stop-color="#CE164F"/>
<stop offset="0.5" stop-color="#E74249"/>
<stop offset="0.770833" stop-color="#ED6E49"/>
<stop offset="1" stop-color="#F9B048"/>
</linearGradient>
<linearGradient id="paint16_linear_345_8940" x1="87.5109" y1="87.2424" x2="26.4332" y2="87.5611" gradientUnits="userSpaceOnUse">
<stop stop-color="#9E1256"/>
<stop offset="0.265625" stop-color="#CE164F"/>
<stop offset="0.5" stop-color="#E74249"/>
<stop offset="0.770833" stop-color="#ED6E49"/>
<stop offset="1" stop-color="#F9B048"/>
</linearGradient>
<linearGradient id="paint17_linear_345_8940" x1="87.5212" y1="87.2503" x2="28.2898" y2="87.4917" gradientUnits="userSpaceOnUse">
<stop stop-color="#9E1256"/>
<stop offset="0.265625" stop-color="#CE164F"/>
<stop offset="0.5" stop-color="#E74249"/>
<stop offset="0.770833" stop-color="#ED6E49"/>
<stop offset="1" stop-color="#F9B048"/>
</linearGradient>
<linearGradient id="paint18_linear_345_8940" x1="87.5338" y1="87.2504" x2="30.5484" y2="87.4385" gradientUnits="userSpaceOnUse">
<stop stop-color="#9E1256"/>
<stop offset="0.265625" stop-color="#CE164F"/>
<stop offset="0.5" stop-color="#E74249"/>
<stop offset="0.770833" stop-color="#ED6E49"/>
<stop offset="1" stop-color="#F9B048"/>
</linearGradient>
<linearGradient id="paint19_linear_345_8940" x1="87.5523" y1="87.2504" x2="33.1988" y2="87.399" gradientUnits="userSpaceOnUse">
<stop stop-color="#9E1256"/>
<stop offset="0.265625" stop-color="#CE164F"/>
<stop offset="0.5" stop-color="#E74249"/>
<stop offset="0.770833" stop-color="#ED6E49"/>
<stop offset="1" stop-color="#F9B048"/>
</linearGradient>
<linearGradient id="paint20_linear_345_8940" x1="87.5652" y1="87.2426" x2="36.216" y2="87.3606" gradientUnits="userSpaceOnUse">
<stop stop-color="#9E1256"/>
<stop offset="0.265625" stop-color="#CE164F"/>
<stop offset="0.5" stop-color="#E74249"/>
<stop offset="0.770833" stop-color="#ED6E49"/>
<stop offset="1" stop-color="#F9B048"/>
</linearGradient>
<linearGradient id="paint21_linear_345_8940" x1="87.5839" y1="87.2427" x2="39.5898" y2="87.336" gradientUnits="userSpaceOnUse">
<stop stop-color="#9E1256"/>
<stop offset="0.265625" stop-color="#CE164F"/>
<stop offset="0.5" stop-color="#E74249"/>
<stop offset="0.770833" stop-color="#ED6E49"/>
<stop offset="1" stop-color="#F9B048"/>
</linearGradient>
<linearGradient id="paint22_linear_345_8940" x1="87.6044" y1="87.2505" x2="43.2845" y2="87.3237" gradientUnits="userSpaceOnUse">
<stop stop-color="#9E1256"/>
<stop offset="0.265625" stop-color="#CE164F"/>
<stop offset="0.5" stop-color="#E74249"/>
<stop offset="0.770833" stop-color="#ED6E49"/>
<stop offset="1" stop-color="#F9B048"/>
</linearGradient>
<linearGradient id="paint23_linear_345_8940" x1="87.6266" y1="87.2428" x2="47.2838" y2="87.2992" gradientUnits="userSpaceOnUse">
<stop stop-color="#9E1256"/>
<stop offset="0.265625" stop-color="#CE164F"/>
<stop offset="0.5" stop-color="#E74249"/>
<stop offset="0.770833" stop-color="#ED6E49"/>
<stop offset="1" stop-color="#F9B048"/>
</linearGradient>
<linearGradient id="paint24_linear_345_8940" x1="87.6503" y1="87.2428" x2="51.5572" y2="87.2854" gradientUnits="userSpaceOnUse">
<stop stop-color="#9E1256"/>
<stop offset="0.265625" stop-color="#CE164F"/>
<stop offset="0.5" stop-color="#E74249"/>
<stop offset="0.770833" stop-color="#ED6E49"/>
<stop offset="1" stop-color="#F9B048"/>
</linearGradient>
<linearGradient id="paint25_linear_345_8940" x1="87.6753" y1="87.2507" x2="56.0706" y2="87.2817" gradientUnits="userSpaceOnUse">
<stop stop-color="#9E1256"/>
<stop offset="0.265625" stop-color="#CE164F"/>
<stop offset="0.5" stop-color="#E74249"/>
<stop offset="0.770833" stop-color="#ED6E49"/>
<stop offset="1" stop-color="#F9B048"/>
</linearGradient>
<linearGradient id="paint26_linear_345_8940" x1="87.7016" y1="87.2507" x2="60.8028" y2="87.2723" gradientUnits="userSpaceOnUse">
<stop stop-color="#9E1256"/>
<stop offset="0.265625" stop-color="#CE164F"/>
<stop offset="0.5" stop-color="#E74249"/>
<stop offset="0.770833" stop-color="#ED6E49"/>
<stop offset="1" stop-color="#F9B048"/>
</linearGradient>
<linearGradient id="paint27_linear_345_8940" x1="87.7288" y1="87.2429" x2="65.7157" y2="87.2569" gradientUnits="userSpaceOnUse">
<stop stop-color="#9E1256"/>
<stop offset="0.265625" stop-color="#CE164F"/>
<stop offset="0.5" stop-color="#E74249"/>
<stop offset="0.770833" stop-color="#ED6E49"/>
<stop offset="1" stop-color="#F9B048"/>
</linearGradient>
<linearGradient id="paint28_linear_345_8940" x1="87.7569" y1="87.2429" x2="70.7749" y2="87.251" gradientUnits="userSpaceOnUse">
<stop stop-color="#9E1256"/>
<stop offset="0.265625" stop-color="#CE164F"/>
<stop offset="0.5" stop-color="#E74249"/>
<stop offset="0.770833" stop-color="#ED6E49"/>
<stop offset="1" stop-color="#F9B048"/>
</linearGradient>
<linearGradient id="paint29_linear_345_8940" x1="87.7855" y1="87.2351" x2="75.946" y2="87.239" gradientUnits="userSpaceOnUse">
<stop stop-color="#9E1256"/>
<stop offset="0.265625" stop-color="#CE164F"/>
<stop offset="0.5" stop-color="#E74249"/>
<stop offset="0.770833" stop-color="#ED6E49"/>
<stop offset="1" stop-color="#F9B048"/>
</linearGradient>
<linearGradient id="paint30_linear_345_8940" x1="87.8147" y1="87.2429" x2="81.1986" y2="87.2441" gradientUnits="userSpaceOnUse">
<stop stop-color="#9E1256"/>
<stop offset="0.265625" stop-color="#CE164F"/>
<stop offset="0.5" stop-color="#E74249"/>
<stop offset="0.770833" stop-color="#ED6E49"/>
<stop offset="1" stop-color="#F9B048"/>
</linearGradient>
<linearGradient id="paint31_linear_345_8940" x1="87.844" y1="87.2429" x2="86.4871" y2="87.243" gradientUnits="userSpaceOnUse">
<stop stop-color="#9E1256"/>
<stop offset="0.265625" stop-color="#CE164F"/>
<stop offset="0.5" stop-color="#E74249"/>
<stop offset="0.770833" stop-color="#ED6E49"/>
<stop offset="1" stop-color="#F9B048"/>
</linearGradient>
<linearGradient id="paint32_linear_345_8940" x1="92.4006" y1="87.2508" x2="87.1852" y2="87.2515" gradientUnits="userSpaceOnUse">
<stop stop-color="#9E1256"/>
<stop offset="0.265625" stop-color="#CE164F"/>
<stop offset="0.5" stop-color="#E74249"/>
<stop offset="0.770833" stop-color="#ED6E49"/>
<stop offset="1" stop-color="#F9B048"/>
</linearGradient>
<linearGradient id="paint33_linear_345_8940" x1="97.6292" y1="87.2507" x2="87.1821" y2="87.2537" gradientUnits="userSpaceOnUse">
<stop stop-color="#9E1256"/>
<stop offset="0.265625" stop-color="#CE164F"/>
<stop offset="0.5" stop-color="#E74249"/>
<stop offset="0.770833" stop-color="#ED6E49"/>
<stop offset="1" stop-color="#F9B048"/>
</linearGradient>
<linearGradient id="paint34_linear_345_8940" x1="102.784" y1="87.2351" x2="87.1651" y2="87.2419" gradientUnits="userSpaceOnUse">
<stop stop-color="#9E1256"/>
<stop offset="0.265625" stop-color="#CE164F"/>
<stop offset="0.5" stop-color="#E74249"/>
<stop offset="0.770833" stop-color="#ED6E49"/>
<stop offset="1" stop-color="#F9B048"/>
</linearGradient>
<linearGradient id="paint35_linear_345_8940" x1="107.842" y1="87.2429" x2="87.1614" y2="87.2551" gradientUnits="userSpaceOnUse">
<stop stop-color="#9E1256"/>
<stop offset="0.265625" stop-color="#CE164F"/>
<stop offset="0.5" stop-color="#E74249"/>
<stop offset="0.770833" stop-color="#ED6E49"/>
<stop offset="1" stop-color="#F9B048"/>
</linearGradient>
<linearGradient id="paint36_linear_345_8940" x1="112.756" y1="87.2507" x2="87.1459" y2="87.2701" gradientUnits="userSpaceOnUse">
<stop stop-color="#9E1256"/>
<stop offset="0.265625" stop-color="#CE164F"/>
<stop offset="0.5" stop-color="#E74249"/>
<stop offset="0.770833" stop-color="#ED6E49"/>
<stop offset="1" stop-color="#F9B048"/>
</linearGradient>
<linearGradient id="paint37_linear_345_8940" x1="117.51" y1="87.2507" x2="87.1416" y2="87.279" gradientUnits="userSpaceOnUse">
<stop stop-color="#9E1256"/>
<stop offset="0.265625" stop-color="#CE164F"/>
<stop offset="0.5" stop-color="#E74249"/>
<stop offset="0.770833" stop-color="#ED6E49"/>
<stop offset="1" stop-color="#F9B048"/>
</linearGradient>
<linearGradient id="paint38_linear_345_8940" x1="122.055" y1="87.2506" x2="87.1405" y2="87.2899" gradientUnits="userSpaceOnUse">
<stop stop-color="#9E1256"/>
<stop offset="0.265625" stop-color="#CE164F"/>
<stop offset="0.5" stop-color="#E74249"/>
<stop offset="0.770833" stop-color="#ED6E49"/>
<stop offset="1" stop-color="#F9B048"/>
</linearGradient>
<linearGradient id="paint39_linear_345_8940" x1="126.363" y1="87.2506" x2="87.1281" y2="87.3031" gradientUnits="userSpaceOnUse">
<stop stop-color="#9E1256"/>
<stop offset="0.265625" stop-color="#CE164F"/>
<stop offset="0.5" stop-color="#E74249"/>
<stop offset="0.770833" stop-color="#ED6E49"/>
<stop offset="1" stop-color="#F9B048"/>
</linearGradient>
<linearGradient id="paint40_linear_345_8940" x1="130.407" y1="87.2427" x2="87.1175" y2="87.3112" gradientUnits="userSpaceOnUse">
<stop stop-color="#9E1256"/>
<stop offset="0.265625" stop-color="#CE164F"/>
<stop offset="0.5" stop-color="#E74249"/>
<stop offset="0.770833" stop-color="#ED6E49"/>
<stop offset="1" stop-color="#F9B048"/>
</linearGradient>
<linearGradient id="paint41_linear_345_8940" x1="134.156" y1="87.2349" x2="87.1104" y2="87.3224" gradientUnits="userSpaceOnUse">
<stop stop-color="#9E1256"/>
<stop offset="0.265625" stop-color="#CE164F"/>
<stop offset="0.5" stop-color="#E74249"/>
<stop offset="0.770833" stop-color="#ED6E49"/>
<stop offset="1" stop-color="#F9B048"/>
</linearGradient>
<linearGradient id="paint42_linear_345_8940" x1="137.593" y1="87.2505" x2="87.1077" y2="87.3613" gradientUnits="userSpaceOnUse">
<stop stop-color="#9E1256"/>
<stop offset="0.265625" stop-color="#CE164F"/>
<stop offset="0.5" stop-color="#E74249"/>
<stop offset="0.770833" stop-color="#ED6E49"/>
<stop offset="1" stop-color="#F9B048"/>
</linearGradient>
<linearGradient id="paint43_linear_345_8940" x1="140.686" y1="87.2348" x2="87.0963" y2="87.3745" gradientUnits="userSpaceOnUse">
<stop stop-color="#9E1256"/>
<stop offset="0.265625" stop-color="#CE164F"/>
<stop offset="0.5" stop-color="#E74249"/>
<stop offset="0.770833" stop-color="#ED6E49"/>
<stop offset="1" stop-color="#F9B048"/>
</linearGradient>
<linearGradient id="paint44_linear_345_8940" x1="143.42" y1="87.2426" x2="87.0985" y2="87.419" gradientUnits="userSpaceOnUse">
<stop stop-color="#9E1256"/>
<stop offset="0.265625" stop-color="#CE164F"/>
<stop offset="0.5" stop-color="#E74249"/>
<stop offset="0.770833" stop-color="#ED6E49"/>
<stop offset="1" stop-color="#F9B048"/>
</linearGradient>
<linearGradient id="paint45_linear_345_8940" x1="145.767" y1="87.2503" x2="87.0945" y2="87.4757" gradientUnits="userSpaceOnUse">
<stop stop-color="#9E1256"/>
<stop offset="0.265625" stop-color="#CE164F"/>
<stop offset="0.5" stop-color="#E74249"/>
<stop offset="0.770833" stop-color="#ED6E49"/>
<stop offset="1" stop-color="#F9B048"/>
</linearGradient>
<linearGradient id="paint46_linear_345_8940" x1="147.717" y1="87.2424" x2="87.0894" y2="87.5371" gradientUnits="userSpaceOnUse">
<stop stop-color="#9E1256"/>
<stop offset="0.265625" stop-color="#CE164F"/>
<stop offset="0.5" stop-color="#E74249"/>
<stop offset="0.770833" stop-color="#ED6E49"/>
<stop offset="1" stop-color="#F9B048"/>
</linearGradient>
<linearGradient id="paint47_linear_345_8940" x1="149.255" y1="87.2346" x2="87.0841" y2="87.6377" gradientUnits="userSpaceOnUse">
<stop stop-color="#9E1256"/>
<stop offset="0.265625" stop-color="#CE164F"/>
<stop offset="0.5" stop-color="#E74249"/>
<stop offset="0.770833" stop-color="#ED6E49"/>
<stop offset="1" stop-color="#F9B048"/>
</linearGradient>
<linearGradient id="paint48_linear_345_8940" x1="150.378" y1="87.2345" x2="87.0929" y2="87.8379" gradientUnits="userSpaceOnUse">
<stop stop-color="#9E1256"/>
<stop offset="0.265625" stop-color="#CE164F"/>
<stop offset="0.5" stop-color="#E74249"/>
<stop offset="0.770833" stop-color="#ED6E49"/>
<stop offset="1" stop-color="#F9B048"/>
</linearGradient>
<linearGradient id="paint49_linear_345_8940" x1="151.065" y1="87.2501" x2="87.1043" y2="88.3724" gradientUnits="userSpaceOnUse">
<stop stop-color="#9E1256"/>
<stop offset="0.265625" stop-color="#CE164F"/>
<stop offset="0.5" stop-color="#E74249"/>
<stop offset="0.770833" stop-color="#ED6E49"/>
<stop offset="1" stop-color="#F9B048"/>
</linearGradient>
<linearGradient id="paint50_linear_345_8940" x1="151.321" y1="87.2422" x2="87.7456" y2="93.7254" gradientUnits="userSpaceOnUse">
<stop stop-color="#9E1256"/>
<stop offset="0.265625" stop-color="#CE164F"/>
<stop offset="0.5" stop-color="#E74249"/>
<stop offset="0.770833" stop-color="#ED6E49"/>
<stop offset="1" stop-color="#F9B048"/>
</linearGradient>
<linearGradient id="paint51_linear_345_8940" x1="151.135" y1="82.4063" x2="87.104" y2="83.7161" gradientUnits="userSpaceOnUse">
<stop stop-color="#9E1256"/>
<stop offset="0.265625" stop-color="#CE164F"/>
<stop offset="0.5" stop-color="#E74249"/>
<stop offset="0.770833" stop-color="#ED6E49"/>
<stop offset="1" stop-color="#F9B048"/>
</linearGradient>
<linearGradient id="paint52_linear_345_8940" x1="150.529" y1="77.1564" x2="87.0977" y2="77.8132" gradientUnits="userSpaceOnUse">
<stop stop-color="#9E1256"/>
<stop offset="0.265625" stop-color="#CE164F"/>
<stop offset="0.5" stop-color="#E74249"/>
<stop offset="0.770833" stop-color="#ED6E49"/>
<stop offset="1" stop-color="#F9B048"/>
</linearGradient>
<linearGradient id="paint53_linear_345_8940" x1="149.476" y1="71.9767" x2="87.0818" y2="72.4053" gradientUnits="userSpaceOnUse">
<stop stop-color="#9E1256"/>
<stop offset="0.265625" stop-color="#CE164F"/>
<stop offset="0.5" stop-color="#E74249"/>
<stop offset="0.770833" stop-color="#ED6E49"/>
<stop offset="1" stop-color="#F9B048"/>
</linearGradient>
<linearGradient id="paint54_linear_345_8940" x1="148.012" y1="66.8909" x2="87.0845" y2="67.2007" gradientUnits="userSpaceOnUse">
<stop stop-color="#9E1256"/>
<stop offset="0.265625" stop-color="#CE164F"/>
<stop offset="0.5" stop-color="#E74249"/>
<stop offset="0.770833" stop-color="#ED6E49"/>
<stop offset="1" stop-color="#F9B048"/>
</linearGradient>
<linearGradient id="paint55_linear_345_8940" x1="146.128" y1="61.9534" x2="87.0956" y2="62.1889" gradientUnits="userSpaceOnUse">
<stop stop-color="#9E1256"/>
<stop offset="0.265625" stop-color="#CE164F"/>
<stop offset="0.5" stop-color="#E74249"/>
<stop offset="0.770833" stop-color="#ED6E49"/>
<stop offset="1" stop-color="#F9B048"/>
</linearGradient>
<linearGradient id="paint56_linear_345_8940" x1="143.844" y1="57.1879" x2="87.0935" y2="57.3717" gradientUnits="userSpaceOnUse">
<stop stop-color="#9E1256"/>
<stop offset="0.265625" stop-color="#CE164F"/>
<stop offset="0.5" stop-color="#E74249"/>
<stop offset="0.770833" stop-color="#ED6E49"/>
<stop offset="1" stop-color="#F9B048"/>
</linearGradient>
<linearGradient id="paint57_linear_345_8940" x1="141.179" y1="52.6332" x2="87.0989" y2="52.7786" gradientUnits="userSpaceOnUse">
<stop stop-color="#9E1256"/>
<stop offset="0.265625" stop-color="#CE164F"/>
<stop offset="0.5" stop-color="#E74249"/>
<stop offset="0.770833" stop-color="#ED6E49"/>
<stop offset="1" stop-color="#F9B048"/>
</linearGradient>
<linearGradient id="paint58_linear_345_8940" x1="138.149" y1="48.313" x2="87.1072" y2="48.4283" gradientUnits="userSpaceOnUse">
<stop stop-color="#9E1256"/>
<stop offset="0.265625" stop-color="#CE164F"/>
<stop offset="0.5" stop-color="#E74249"/>
<stop offset="0.770833" stop-color="#ED6E49"/>
<stop offset="1" stop-color="#F9B048"/>
</linearGradient>
<linearGradient id="paint59_linear_345_8940" x1="134.765" y1="44.2661" x2="87.11" y2="44.3573" gradientUnits="userSpaceOnUse">
<stop stop-color="#9E1256"/>
<stop offset="0.265625" stop-color="#CE164F"/>
<stop offset="0.5" stop-color="#E74249"/>
<stop offset="0.770833" stop-color="#ED6E49"/>
<stop offset="1" stop-color="#F9B048"/>
</linearGradient>
<linearGradient id="paint60_linear_345_8940" x1="131.067" y1="40.5006" x2="87.1188" y2="40.572" gradientUnits="userSpaceOnUse">
<stop stop-color="#9E1256"/>
<stop offset="0.265625" stop-color="#CE164F"/>
<stop offset="0.5" stop-color="#E74249"/>
<stop offset="0.770833" stop-color="#ED6E49"/>
<stop offset="1" stop-color="#F9B048"/>
</linearGradient>
<linearGradient id="paint61_linear_345_8940" x1="127.074" y1="37.0631" x2="87.1256" y2="37.1181" gradientUnits="userSpaceOnUse">
<stop stop-color="#9E1256"/>
<stop offset="0.265625" stop-color="#CE164F"/>
<stop offset="0.5" stop-color="#E74249"/>
<stop offset="0.770833" stop-color="#ED6E49"/>
<stop offset="1" stop-color="#F9B048"/>
</linearGradient>
<linearGradient id="paint62_linear_345_8940" x1="122.809" y1="33.9616" x2="87.1319" y2="34.0029" gradientUnits="userSpaceOnUse">
<stop stop-color="#9E1256"/>
<stop offset="0.265625" stop-color="#CE164F"/>
<stop offset="0.5" stop-color="#E74249"/>
<stop offset="0.770833" stop-color="#ED6E49"/>
<stop offset="1" stop-color="#F9B048"/>
</linearGradient>
<linearGradient id="paint63_linear_345_8940" x1="118.303" y1="31.2428" x2="87.1425" y2="31.2729" gradientUnits="userSpaceOnUse">
<stop stop-color="#9E1256"/>
<stop offset="0.265625" stop-color="#CE164F"/>
<stop offset="0.5" stop-color="#E74249"/>
<stop offset="0.770833" stop-color="#ED6E49"/>
<stop offset="1" stop-color="#F9B048"/>
</linearGradient>
<linearGradient id="paint64_linear_345_8940" x1="113.587" y1="28.8913" x2="87.1501" y2="28.9121" gradientUnits="userSpaceOnUse">
<stop stop-color="#9E1256"/>
<stop offset="0.265625" stop-color="#CE164F"/>
<stop offset="0.5" stop-color="#E74249"/>
<stop offset="0.770833" stop-color="#ED6E49"/>
<stop offset="1" stop-color="#F9B048"/>
</linearGradient>
<linearGradient id="paint65_linear_345_8940" x1="108.692" y1="26.9538" x2="87.1559" y2="26.9672" gradientUnits="userSpaceOnUse">
<stop stop-color="#9E1256"/>
<stop offset="0.265625" stop-color="#CE164F"/>
<stop offset="0.5" stop-color="#E74249"/>
<stop offset="0.770833" stop-color="#ED6E49"/>
<stop offset="1" stop-color="#F9B048"/>
</linearGradient>
<linearGradient id="paint66_linear_345_8940" x1="103.658" y1="25.4226" x2="87.1634" y2="25.4302" gradientUnits="userSpaceOnUse">
<stop stop-color="#9E1256"/>
<stop offset="0.265625" stop-color="#CE164F"/>
<stop offset="0.5" stop-color="#E74249"/>
<stop offset="0.770833" stop-color="#ED6E49"/>
<stop offset="1" stop-color="#F9B048"/>
</linearGradient>
<linearGradient id="paint67_linear_345_8940" x1="98.5149" y1="24.3211" x2="87.1732" y2="24.3246" gradientUnits="userSpaceOnUse">
<stop stop-color="#9E1256"/>
<stop offset="0.265625" stop-color="#CE164F"/>
<stop offset="0.5" stop-color="#E74249"/>
<stop offset="0.770833" stop-color="#ED6E49"/>
<stop offset="1" stop-color="#F9B048"/>
</linearGradient>
<linearGradient id="paint68_linear_345_8940" x1="93.2979" y1="23.6492" x2="87.1853" y2="23.6502" gradientUnits="userSpaceOnUse">
<stop stop-color="#9E1256"/>
<stop offset="0.265625" stop-color="#CE164F"/>
<stop offset="0.5" stop-color="#E74249"/>
<stop offset="0.770833" stop-color="#ED6E49"/>
<stop offset="1" stop-color="#F9B048"/>
</linearGradient>
<linearGradient id="paint69_linear_345_8940" x1="88.0421" y1="23.4148" x2="87.1941" y2="23.4148" gradientUnits="userSpaceOnUse">
<stop stop-color="#9E1256"/>
<stop offset="0.265625" stop-color="#CE164F"/>
<stop offset="0.5" stop-color="#E74249"/>
<stop offset="0.770833" stop-color="#ED6E49"/>
<stop offset="1" stop-color="#F9B048"/>
</linearGradient>
<linearGradient id="paint70_linear_345_8940" x1="87.8197" y1="23.6179" x2="82.1017" y2="23.6188" gradientUnits="userSpaceOnUse">
<stop stop-color="#9E1256"/>
<stop offset="0.265625" stop-color="#CE164F"/>
<stop offset="0.5" stop-color="#E74249"/>
<stop offset="0.770833" stop-color="#ED6E49"/>
<stop offset="1" stop-color="#F9B048"/>
</linearGradient>
<linearGradient id="paint71_linear_345_8940" x1="87.7944" y1="24.2507" x2="76.8469" y2="24.254" gradientUnits="userSpaceOnUse">
<stop stop-color="#9E1256"/>
<stop offset="0.265625" stop-color="#CE164F"/>
<stop offset="0.5" stop-color="#E74249"/>
<stop offset="0.770833" stop-color="#ED6E49"/>
<stop offset="1" stop-color="#F9B048"/>
</linearGradient>
<linearGradient id="paint72_linear_345_8940" x1="87.7617" y1="25.3289" x2="71.6556" y2="25.3361" gradientUnits="userSpaceOnUse">
<stop stop-color="#9E1256"/>
<stop offset="0.265625" stop-color="#CE164F"/>
<stop offset="0.5" stop-color="#E74249"/>
<stop offset="0.770833" stop-color="#ED6E49"/>
<stop offset="1" stop-color="#F9B048"/>
</linearGradient>
<linearGradient id="paint73_linear_345_8940" x1="87.7335" y1="26.8288" x2="66.5691" y2="26.8417" gradientUnits="userSpaceOnUse">
<stop stop-color="#9E1256"/>
<stop offset="0.265625" stop-color="#CE164F"/>
<stop offset="0.5" stop-color="#E74249"/>
<stop offset="0.770833" stop-color="#ED6E49"/>
<stop offset="1" stop-color="#F9B048"/>
</linearGradient>
<linearGradient id="paint74_linear_345_8940" x1="87.7061" y1="28.7351" x2="61.6313" y2="28.7552" gradientUnits="userSpaceOnUse">
<stop stop-color="#9E1256"/>
<stop offset="0.265625" stop-color="#CE164F"/>
<stop offset="0.5" stop-color="#E74249"/>
<stop offset="0.770833" stop-color="#ED6E49"/>
<stop offset="1" stop-color="#F9B048"/>
</linearGradient>
<linearGradient id="paint75_linear_345_8940" x1="87.6797" y1="31.0632" x2="56.8641" y2="31.0924" gradientUnits="userSpaceOnUse">
<stop stop-color="#9E1256"/>
<stop offset="0.265625" stop-color="#CE164F"/>
<stop offset="0.5" stop-color="#E74249"/>
<stop offset="0.770833" stop-color="#ED6E49"/>
<stop offset="1" stop-color="#F9B048"/>
</linearGradient>
<linearGradient id="paint76_linear_345_8940" x1="132.294" y1="42.2979" x2="42.1075" y2="42.4554" gradientUnits="userSpaceOnUse">
<stop stop-color="#9E1256"/>
<stop offset="0.265625" stop-color="#CE164F"/>
<stop offset="0.5" stop-color="#E74249"/>
<stop offset="0.770833" stop-color="#ED6E49"/>
<stop offset="1" stop-color="#F9B048"/>
</linearGradient>
<linearGradient id="paint77_linear_345_8940" x1="163.859" y1="8.99401" x2="8.32529" y2="9.26554" gradientUnits="userSpaceOnUse">
<stop stop-color="#9E1256"/>
<stop offset="0.265625" stop-color="#CE164F"/>
<stop offset="0.5" stop-color="#E74249"/>
<stop offset="0.770833" stop-color="#ED6E49"/>
<stop offset="1" stop-color="#F9B048"/>
</linearGradient>
<linearGradient id="paint78_linear_345_8940" x1="90.492" y1="161.617" x2="84.1543" y2="161.628" gradientUnits="userSpaceOnUse">
<stop stop-color="#9E1256"/>
<stop offset="0.265625" stop-color="#CE164F"/>
<stop offset="0.5" stop-color="#E74249"/>
<stop offset="0.770833" stop-color="#ED6E49"/>
<stop offset="1" stop-color="#F9B048"/>
</linearGradient>
<linearGradient id="paint79_linear_345_8940" x1="87.346" y1="161.282" x2="87.346" y2="168.306" gradientUnits="userSpaceOnUse">
<stop stop-color="#AB8D60"/>
<stop offset="0.07" stop-color="#B19465"/>
<stop offset="0.51" stop-color="#DBC087"/>
<stop offset="1" stop-color="#AB8D60"/>
</linearGradient>
<linearGradient id="paint80_linear_345_8940" x1="87.3464" y1="6.1307" x2="87.3464" y2="12.496" gradientUnits="userSpaceOnUse">
<stop stop-color="#AB8D60"/>
<stop offset="0.07" stop-color="#B19465"/>
<stop offset="0.51" stop-color="#DBC087"/>
<stop offset="1" stop-color="#AB8D60"/>
</linearGradient>
<linearGradient id="paint81_linear_345_8940" x1="109.094" y1="65.7505" x2="65.6417" y2="65.8264" gradientUnits="userSpaceOnUse">
<stop stop-color="#9E1256"/>
<stop offset="0.265625" stop-color="#CE164F"/>
<stop offset="0.5" stop-color="#E74249"/>
<stop offset="0.770833" stop-color="#ED6E49"/>
<stop offset="1" stop-color="#F9B048"/>
</linearGradient>
<linearGradient id="paint82_linear_345_8940" x1="167.326" y1="87.5782" x2="161.423" y2="87.5988" gradientUnits="userSpaceOnUse">
<stop stop-color="#9E1256"/>
<stop offset="0.265625" stop-color="#CE164F"/>
<stop offset="0.5" stop-color="#E74249"/>
<stop offset="0.770833" stop-color="#ED6E49"/>
<stop offset="1" stop-color="#F9B048"/>
</linearGradient>
<linearGradient id="paint83_linear_345_8940" x1="166.803" y1="85.1623" x2="161.992" y2="89.9733" gradientUnits="userSpaceOnUse">
<stop stop-color="#AB8D60"/>
<stop offset="0.07" stop-color="#B19465"/>
<stop offset="0.51" stop-color="#DBC087"/>
<stop offset="1" stop-color="#AB8D60"/>
</linearGradient>
<linearGradient id="paint84_linear_345_8940" x1="12.0725" y1="84.6016" x2="6.16922" y2="84.6222" gradientUnits="userSpaceOnUse">
<stop stop-color="#9E1256"/>
<stop offset="0.265625" stop-color="#CE164F"/>
<stop offset="0.5" stop-color="#E74249"/>
<stop offset="0.770833" stop-color="#ED6E49"/>
<stop offset="1" stop-color="#F9B048"/>
</linearGradient>
<linearGradient id="paint85_linear_345_8940" x1="6.7337" y1="89.9702" x2="11.5448" y2="85.1591" gradientUnits="userSpaceOnUse">
<stop stop-color="#AB8D60"/>
<stop offset="0.07" stop-color="#B19465"/>
<stop offset="0.51" stop-color="#DBC087"/>
<stop offset="1" stop-color="#AB8D60"/>
</linearGradient>
<linearGradient id="paint86_linear_345_8940" x1="144.873" y1="138.766" x2="138.967" y2="138.78" gradientUnits="userSpaceOnUse">
<stop stop-color="#9E1256"/>
<stop offset="0.265625" stop-color="#CE164F"/>
<stop offset="0.5" stop-color="#E74249"/>
<stop offset="0.770833" stop-color="#ED6E49"/>
<stop offset="1" stop-color="#F9B048"/>
</linearGradient>
<linearGradient id="paint87_linear_345_8940" x1="144.35" y1="139.321" x2="139.539" y2="144.132" gradientUnits="userSpaceOnUse">
<stop stop-color="#AB8D60"/>
<stop offset="0.07" stop-color="#B19465"/>
<stop offset="0.51" stop-color="#DBC087"/>
<stop offset="1" stop-color="#AB8D60"/>
</linearGradient>
<linearGradient id="paint88_linear_345_8940" x1="145.217" y1="31.6719" x2="139.31" y2="31.686" gradientUnits="userSpaceOnUse">
<stop stop-color="#9E1256"/>
<stop offset="0.265625" stop-color="#CE164F"/>
<stop offset="0.5" stop-color="#E74249"/>
<stop offset="0.770833" stop-color="#ED6E49"/>
<stop offset="1" stop-color="#F9B048"/>
</linearGradient>
<linearGradient id="paint89_linear_345_8940" x1="144.69" y1="35.4692" x2="139.878" y2="30.6581" gradientUnits="userSpaceOnUse">
<stop stop-color="#AB8D60"/>
<stop offset="0.07" stop-color="#B19465"/>
<stop offset="0.51" stop-color="#DBC087"/>
<stop offset="1" stop-color="#AB8D60"/>
</linearGradient>
<linearGradient id="paint90_linear_345_8940" x1="35.1272" y1="141.375" x2="29.2206" y2="141.389" gradientUnits="userSpaceOnUse">
<stop stop-color="#9E1256"/>
<stop offset="0.265625" stop-color="#CE164F"/>
<stop offset="0.5" stop-color="#E74249"/>
<stop offset="0.770833" stop-color="#ED6E49"/>
<stop offset="1" stop-color="#F9B048"/>
</linearGradient>
<linearGradient id="paint91_linear_345_8940" x1="29.7883" y1="145.178" x2="34.5994" y2="140.367" gradientUnits="userSpaceOnUse">
<stop stop-color="#AB8D60"/>
<stop offset="0.07" stop-color="#B19465"/>
<stop offset="0.51" stop-color="#DBC087"/>
<stop offset="1" stop-color="#AB8D60"/>
</linearGradient>
<linearGradient id="paint92_linear_345_8940" x1="35.1311" y1="29.2344" x2="29.2245" y2="29.2485" gradientUnits="userSpaceOnUse">
<stop stop-color="#9E1256"/>
<stop offset="0.265625" stop-color="#CE164F"/>
<stop offset="0.5" stop-color="#E74249"/>
<stop offset="0.770833" stop-color="#ED6E49"/>
<stop offset="1" stop-color="#F9B048"/>
</linearGradient>
<linearGradient id="paint93_linear_345_8940" x1="34.6075" y1="29.7951" x2="29.7964" y2="34.6061" gradientUnits="userSpaceOnUse">
<stop stop-color="#AB8D60"/>
<stop offset="0.07" stop-color="#B19465"/>
<stop offset="0.51" stop-color="#DBC087"/>
<stop offset="1" stop-color="#AB8D60"/>
</linearGradient>
<linearGradient id="paint94_linear_345_8940" x1="173.329" y1="1.63308" x2="150.444" y2="1.67303" gradientUnits="userSpaceOnUse">
<stop stop-color="#9E1256"/>
<stop offset="0.265625" stop-color="#CE164F"/>
<stop offset="0.5" stop-color="#E74249"/>
<stop offset="0.770833" stop-color="#ED6E49"/>
<stop offset="1" stop-color="#F9B048"/>
</linearGradient>
<linearGradient id="paint95_linear_345_8940" x1="161.973" y1="0.09375" x2="161.973" y2="26.1482" gradientUnits="userSpaceOnUse">
<stop stop-color="#AB8D60"/>
<stop offset="0.07" stop-color="#B19465"/>
<stop offset="0.51" stop-color="#DBC087"/>
<stop offset="1" stop-color="#AB8D60"/>
</linearGradient>
<linearGradient id="paint96_linear_345_8940" x1="169.4" y1="5.47674" x2="154.272" y2="5.50293" gradientUnits="userSpaceOnUse">
<stop stop-color="#9E1256"/>
<stop offset="0.265625" stop-color="#CE164F"/>
<stop offset="0.5" stop-color="#E74249"/>
<stop offset="0.770833" stop-color="#ED6E49"/>
<stop offset="1" stop-color="#F9B048"/>
</linearGradient>
<linearGradient id="paint97_linear_345_8940" x1="161.891" y1="4.38513" x2="161.891" y2="21.8774" gradientUnits="userSpaceOnUse">
<stop stop-color="#AB8D60"/>
<stop offset="0.07" stop-color="#B19465"/>
<stop offset="0.51" stop-color="#DBC087"/>
<stop offset="1" stop-color="#AB8D60"/>
</linearGradient>
<linearGradient id="paint98_linear_345_8940" x1="24.4466" y1="150.524" x2="1.55527" y2="150.564" gradientUnits="userSpaceOnUse">
<stop stop-color="#9E1256"/>
<stop offset="0.265625" stop-color="#CE164F"/>
<stop offset="0.5" stop-color="#E74249"/>
<stop offset="0.770833" stop-color="#ED6E49"/>
<stop offset="1" stop-color="#F9B048"/>
</linearGradient>
<linearGradient id="paint99_linear_345_8940" x1="13.0835" y1="148.932" x2="13.0835" y2="175.096" gradientUnits="userSpaceOnUse">
<stop stop-color="#AB8D60"/>
<stop offset="0.07" stop-color="#B19465"/>
<stop offset="0.51" stop-color="#DBC087"/>
<stop offset="1" stop-color="#AB8D60"/>
</linearGradient>
<linearGradient id="paint100_linear_345_8940" x1="127.044" y1="47.5947" x2="47.4281" y2="47.7337" gradientUnits="userSpaceOnUse">
<stop stop-color="#9E1256"/>
<stop offset="0.265625" stop-color="#CE164F"/>
<stop offset="0.5" stop-color="#E74249"/>
<stop offset="0.770833" stop-color="#ED6E49"/>
<stop offset="1" stop-color="#F9B048"/>
</linearGradient>
<clipPath id="clip0_345_8940">
<rect width="175" height="175" fill="white" transform="matrix(-1 0 0 1 175 0.09375)"/>
</clipPath>
</defs>
</svg>
