<svg width="18" height="18" viewBox="0 0 18 18" fill="none" xmlns="http://www.w3.org/2000/svg">
<g id="grid / 24 / Outline">
<path id="Vector" d="M7.54474 9.72754H2.45384C2.26095 9.72754 2.07597 9.80416 1.93958 9.94055C1.80319 10.0769 1.72656 10.2619 1.72656 10.4548V15.5457C1.72656 15.7386 1.80319 15.9236 1.93958 16.06C2.07597 16.1964 2.26095 16.273 2.45384 16.273H7.54474C7.73763 16.273 7.92261 16.1964 8.059 16.06C8.19539 15.9236 8.27202 15.7386 8.27202 15.5457V10.4548C8.27202 10.2619 8.19539 10.0769 8.059 9.94055C7.92261 9.80416 7.73763 9.72754 7.54474 9.72754ZM6.81747 14.8184H3.18111V11.1821H6.81747V14.8184ZM15.5447 1.72754H10.4538C10.261 1.72754 10.076 1.80416 9.93958 1.94055C9.80319 2.07694 9.72656 2.26193 9.72656 2.45481V7.54572C9.72656 7.73861 9.80319 7.92359 9.93958 8.05998C10.076 8.19637 10.261 8.27299 10.4538 8.27299H15.5447C15.7376 8.27299 15.9226 8.19637 16.059 8.05998C16.1954 7.92359 16.272 7.73861 16.272 7.54572V2.45481C16.272 2.26193 16.1954 2.07694 16.059 1.94055C15.9226 1.80416 15.7376 1.72754 15.5447 1.72754ZM14.8175 6.81845H11.1811V3.18208H14.8175V6.81845ZM15.5447 9.72754H10.4538C10.261 9.72754 10.076 9.80416 9.93958 9.94055C9.80319 10.0769 9.72656 10.2619 9.72656 10.4548V15.5457C9.72656 15.7386 9.80319 15.9236 9.93958 16.06C10.076 16.1964 10.261 16.273 10.4538 16.273H15.5447C15.7376 16.273 15.9226 16.1964 16.059 16.06C16.1954 15.9236 16.272 15.7386 16.272 15.5457V10.4548C16.272 10.2619 16.1954 10.0769 16.059 9.94055C15.9226 9.80416 15.7376 9.72754 15.5447 9.72754ZM14.8175 14.8184H11.1811V11.1821H14.8175V14.8184ZM7.54474 1.72754H2.45384C2.26095 1.72754 2.07597 1.80416 1.93958 1.94055C1.80319 2.07694 1.72656 2.26193 1.72656 2.45481V7.54572C1.72656 7.73861 1.80319 7.92359 1.93958 8.05998C2.07597 8.19637 2.26095 8.27299 2.45384 8.27299H7.54474C7.73763 8.27299 7.92261 8.19637 8.059 8.05998C8.19539 7.92359 8.27202 7.73861 8.27202 7.54572V2.45481C8.27202 2.26193 8.19539 2.07694 8.059 1.94055C7.92261 1.80416 7.73763 1.72754 7.54474 1.72754ZM6.81747 6.81845H3.18111V3.18208H6.81747V6.81845Z" fill="url(#paint0_linear_345_11897)"/>
</g>
<defs>
<linearGradient id="paint0_linear_345_11897" x1="1.80737" y1="1.72771" x2="16.2974" y2="1.75301" gradientUnits="userSpaceOnUse">
<stop stop-color="#9E1256"/>
<stop offset="0.265625" stop-color="#CE164F"/>
<stop offset="0.5" stop-color="#E74249"/>
<stop offset="0.770833" stop-color="#ED6E49"/>
<stop offset="1" stop-color="#F9B048"/>
</linearGradient>
</defs>
</svg>
