<svg width="29" height="29" viewBox="0 0 29 29" fill="none" xmlns="http://www.w3.org/2000/svg">
<g id="pooja 1" clip-path="url(#clip0_227_8927)">
<g id="Group">
<path id="Vector" d="M4.22082 19.8111C4.01414 19.6933 3.80588 19.6309 3.60552 19.6309C3.20873 19.6309 2.90411 19.8735 2.82945 20.2491C2.76074 20.5946 2.89974 20.9794 3.21168 21.3462C2.40338 21.4115 2.03271 21.8599 2.03271 22.2787C2.03271 22.4239 2.07809 22.5722 2.17009 22.7072" stroke="#9E1256" stroke-width="0.698031" stroke-miterlimit="10" stroke-linecap="round" stroke-linejoin="round"/>
<path id="Vector_2" d="M25.3094 19.8159C25.3445 19.8159 25.3778 19.8231 25.4086 19.8352C25.5252 19.7784 25.6258 19.704 25.7067 19.6121C25.8928 19.4006 25.95 19.115 25.8598 18.8481C25.74 18.4935 25.3906 18.2174 24.8876 18.0732C25.2761 17.7666 25.4938 17.4067 25.4943 17.0446C25.4948 16.6511 25.2369 16.3451 24.8371 16.265C24.5343 16.2044 24.1854 16.2811 23.827 16.4793C23.8649 16.164 23.8357 15.8835 23.7386 15.6482C23.6183 15.3567 23.3947 15.1585 23.1251 15.1045C22.8556 15.0505 22.5729 15.1472 22.3495 15.37C22.1693 15.5498 22.0344 15.7973 21.9479 16.1029C21.6936 15.782 21.4011 15.5768 21.0983 15.5161C20.7172 15.4398 20.3763 15.6029 20.2144 15.9331" stroke="#9E1256" stroke-width="0.698031" stroke-miterlimit="10" stroke-linecap="round" stroke-linejoin="round"/>
<g id="Group_2">
<path id="Vector_3" d="M18.6391 7.84678C18.9987 7.39715 19.0969 6.74689 18.7684 6.17789L17.5897 4.13642C17.5433 4.05609 17.4274 4.05609 17.381 4.13642L16.2023 6.17789C15.8738 6.74689 15.972 7.39715 16.3316 7.84678H18.6391Z" stroke="#9E1256" stroke-width="0.698031" stroke-miterlimit="10" stroke-linecap="round" stroke-linejoin="round"/>
<path id="Vector_4" d="M17.4844 6.71875V7.84651" stroke="#9E1256" stroke-width="0.698031" stroke-miterlimit="10" stroke-linecap="round" stroke-linejoin="round"/>
<g id="Group_3">
<path id="Vector_5" d="M20.7393 7.84766H14.2295C14.1158 7.84766 14.0239 7.94205 14.0285 8.05565C14.0939 9.65681 14.9105 11.0634 16.135 11.9346C16.436 12.1488 16.6333 12.476 16.6793 12.8372H18.2894C18.3354 12.476 18.5327 12.1488 18.8338 11.9346C20.0582 11.0634 20.8749 9.65681 20.9402 8.05565C20.9449 7.942 20.853 7.84766 20.7393 7.84766Z" stroke="#9E1256" stroke-width="0.698031" stroke-miterlimit="10" stroke-linecap="round" stroke-linejoin="round"/>
</g>
<path id="Vector_6" d="M20.807 17.1443C20.5372 16.1125 19.7992 15.2702 18.8336 14.8574C18.5909 14.7537 18.412 14.5507 18.3298 14.3086H16.6401C16.5579 14.5507 16.379 14.7537 16.1363 14.8574C15.6743 15.0549 15.2646 15.351 14.9331 15.7189" stroke="#9E1256" stroke-width="0.698031" stroke-miterlimit="10" stroke-linecap="round" stroke-linejoin="round"/>
<path id="Vector_7" d="M18.5057 14.3084H16.4628C16.2439 14.3084 16.0664 14.1309 16.0664 13.9121V13.2323C16.0664 13.0134 16.2439 12.8359 16.4628 12.8359H18.5057C18.7246 12.8359 18.9021 13.0134 18.9021 13.2323V13.9121C18.902 14.131 18.7246 14.3084 18.5057 14.3084Z" stroke="#9E1256" stroke-width="0.698031" stroke-miterlimit="10" stroke-linecap="round" stroke-linejoin="round"/>
</g>
<g id="Group_4">
<path id="Vector_8" d="M22.038 18.6675V17.6899C22.038 17.3887 21.7938 17.1445 21.4926 17.1445H18.7114" stroke="#9E1256" stroke-width="0.698031" stroke-miterlimit="10" stroke-linecap="round" stroke-linejoin="round"/>
<path id="Vector_9" d="M16.8024 17.1445H15.4443" stroke="#9E1256" stroke-width="0.698031" stroke-miterlimit="10" stroke-linecap="round" stroke-linejoin="round"/>
<path id="Vector_10" d="M13.1729 22.7071H13.3713C13.3307 22.6485 13.2939 22.5872 13.2611 22.5234L13.1729 22.7071Z" stroke="#9E1256" stroke-width="0.698031" stroke-miterlimit="10" stroke-linecap="round" stroke-linejoin="round"/>
</g>
<g id="Group_5">
<g id="Group_6">
<path id="Vector_11" d="M3.4248 18.0422C3.46898 18.2092 3.52902 18.3738 3.6058 18.5336L5.61073 22.7078H13.1732L13.2615 22.5241C13.1454 22.2988 13.0794 22.0433 13.0794 21.7723V20.0902C13.0794 19.9396 13.2015 19.8175 13.352 19.8175H13.945L14.6539 18.9659C14.7979 18.793 14.9713 18.662 15.1597 18.5721L15.1782 18.5336C15.6834 17.4818 15.4753 16.2262 14.6577 15.3936L12.6277 13.3262H6.15623L4.12622 15.3936C3.90945 15.6144 3.73603 15.865 3.60689 16.1336" stroke="#9E1256" stroke-width="0.698031" stroke-miterlimit="10" stroke-linecap="round" stroke-linejoin="round"/>
<path id="Vector_12" d="M17.6669 19.8155L16.958 18.9639C16.3586 18.2438 15.253 18.2438 14.6537 18.9639L13.9448 19.8155H17.6669Z" stroke="#9E1256" stroke-width="0.698031" stroke-miterlimit="10" stroke-linecap="round" stroke-linejoin="round"/>
<path id="Vector_13" d="M24.7167 19.8155L24.0078 18.9639C23.4085 18.2438 22.3028 18.2438 21.7035 18.9639L20.9946 19.8155H24.7167Z" stroke="#9E1256" stroke-width="0.698031" stroke-miterlimit="10" stroke-linecap="round" stroke-linejoin="round"/>
<path id="Vector_14" d="M18.2402 22.7067C18.4243 22.4411 18.5325 22.1188 18.5325 21.7712V20.0891C18.5325 19.9385 18.4104 19.8164 18.2598 19.8164H13.3518C13.2012 19.8164 13.0791 19.9385 13.0791 20.0891V21.7712C13.0791 22.1188 13.1873 22.4411 13.3714 22.7067H18.2402Z" stroke="#9E1256" stroke-width="0.698031" stroke-miterlimit="10" stroke-linecap="round" stroke-linejoin="round"/>
<path id="Vector_15" d="M25.29 22.7067C25.4741 22.4411 25.5823 22.1188 25.5823 21.7712V20.0891C25.5823 19.9385 25.4602 19.8164 25.3096 19.8164H20.4016C20.251 19.8164 20.1289 19.9385 20.1289 20.0891V21.7712C20.1289 22.1188 20.2371 22.4411 20.4212 22.7067H25.29Z" stroke="#9E1256" stroke-width="0.698031" stroke-miterlimit="10" stroke-linecap="round" stroke-linejoin="round"/>
<path id="Vector_16" d="M7.2591 11.7031H5.80916C5.6082 11.7031 5.47628 11.9131 5.56348 12.0941L6.15626 13.3248H12.6277L13.2205 12.0941C13.3077 11.9131 13.1758 11.7031 12.9748 11.7031H9.16777" stroke="#9E1256" stroke-width="0.698031" stroke-miterlimit="10" stroke-linecap="round" stroke-linejoin="round"/>
</g>
<g id="Group_7">
<path id="Vector_17" d="M11.7428 20.2183C11.905 19.7201 11.7968 19.1809 11.5307 18.8416C11.9588 18.7898 12.4166 18.4851 12.6542 18.018C12.6741 17.9788 12.6741 17.9321 12.6542 17.8929C12.4166 17.4259 11.9588 17.1211 11.5307 17.0693C11.7969 16.73 11.905 16.1908 11.7428 15.6926C11.7291 15.6508 11.6961 15.6178 11.6543 15.6041C11.156 15.4419 10.6169 15.5501 10.2775 15.8162C10.2258 15.3881 9.92106 14.9303 9.45398 14.6927C9.41477 14.6727 9.36809 14.6727 9.32888 14.6927C8.86185 14.9303 8.55707 15.3881 8.50531 15.8162C8.16595 15.55 7.62678 15.4418 7.12856 15.6041C7.08673 15.6178 7.05374 15.6508 7.04011 15.6926C6.87787 16.1909 6.98606 16.73 7.25224 17.0693C6.8241 17.1211 6.36634 17.4258 6.12874 17.8929C6.10878 17.9321 6.10878 17.9788 6.12874 18.018C6.36634 18.485 6.8241 18.7898 7.25224 18.8416C6.98606 19.1809 6.87787 19.7201 7.04016 20.2183C7.05379 20.2602 7.08679 20.2931 7.12861 20.3068C7.62689 20.469 8.16606 20.3608 8.50537 20.0947C8.55712 20.5228 8.86186 20.9806 9.32894 21.2182C9.36815 21.2382 9.41483 21.2382 9.45404 21.2182C9.92106 20.9806 10.2258 20.5228 10.2776 20.0947C10.6169 20.3609 11.1561 20.4691 11.6544 20.3068C11.6961 20.2932 11.7291 20.2602 11.7428 20.2183Z" stroke="#9E1256" stroke-width="0.698031" stroke-miterlimit="10" stroke-linecap="round" stroke-linejoin="round"/>
<path id="Vector_18" d="M10.2779 15.8164L8.60352 19.9195" stroke="#9E1256" stroke-width="0.698031" stroke-miterlimit="10" stroke-linecap="round" stroke-linejoin="round"/>
<path id="Vector_19" d="M11.5304 17.0684L7.25195 18.8405" stroke="#9E1256" stroke-width="0.698031" stroke-miterlimit="10" stroke-linecap="round" stroke-linejoin="round"/>
<path id="Vector_20" d="M7.25195 17.0684L11.5304 18.8405" stroke="#9E1256" stroke-width="0.698031" stroke-miterlimit="10" stroke-linecap="round" stroke-linejoin="round"/>
<path id="Vector_21" d="M10.2771 20.0948L8.50488 15.8164" stroke="#9E1256" stroke-width="0.698031" stroke-miterlimit="10" stroke-linecap="round" stroke-linejoin="round"/>
</g>
</g>
<path id="Vector_22" d="M24.8915 25.4623H3.91295C3.65076 25.4623 3.40443 25.3366 3.25053 25.1243L1.49902 22.707H27.3054L25.5539 25.1243C25.4 25.3366 25.1537 25.4623 24.8915 25.4623Z" stroke="#9E1256" stroke-width="0.698031" stroke-miterlimit="10" stroke-linecap="round" stroke-linejoin="round"/>
<path id="Vector_23" d="M0.851562 22.707H27.9548" stroke="#9E1256" stroke-width="0.698031" stroke-miterlimit="10" stroke-linecap="round" stroke-linejoin="round"/>
</g>
</g>
<defs>
<clipPath id="clip0_227_8927">
<rect width="27.9212" height="27.9212" fill="white" transform="translate(0.442383 0.810547)"/>
</clipPath>
</defs>
</svg>
