<svg width="24" height="24" viewBox="0 0 24 24" fill="none" xmlns="http://www.w3.org/2000/svg">
<g id="profile">
<g id="vuesax/linear/profile">
<g id="profile_2">
<path id="Vector" d="M12.1625 10.87C12.0625 10.86 11.9425 10.86 11.8325 10.87C9.4525 10.79 7.5625 8.84 7.5625 6.44C7.5625 3.99 9.5425 2 12.0025 2C14.4525 2 16.4425 3.99 16.4425 6.44C16.4325 8.84 14.5425 10.79 12.1625 10.87Z" stroke="url(#paint0_linear_227_8692)" stroke-width="1.5" stroke-linecap="round" stroke-linejoin="round"/>
<path id="Vector_2" d="M7.15875 14.56C4.73875 16.18 4.73875 18.82 7.15875 20.43C9.90875 22.27 14.4188 22.27 17.1688 20.43C19.5888 18.81 19.5888 16.17 17.1688 14.56C14.4288 12.73 9.91875 12.73 7.15875 14.56Z" stroke="url(#paint1_linear_227_8692)" stroke-width="1.5" stroke-linecap="round" stroke-linejoin="round"/>
</g>
</g>
</g>
<defs>
<linearGradient id="paint0_linear_227_8692" x1="7.61183" y1="2.0001" x2="16.458" y2="2.01556" gradientUnits="userSpaceOnUse">
<stop stop-color="#9E1256"/>
<stop offset="0.265625" stop-color="#CE164F"/>
<stop offset="0.5" stop-color="#E74249"/>
<stop offset="0.770833" stop-color="#ED6E49"/>
<stop offset="1" stop-color="#F9B048"/>
</linearGradient>
<linearGradient id="paint1_linear_227_8692" x1="5.41953" y1="13.1876" x2="19.0075" y2="13.2251" gradientUnits="userSpaceOnUse">
<stop stop-color="#9E1256"/>
<stop offset="0.265625" stop-color="#CE164F"/>
<stop offset="0.5" stop-color="#E74249"/>
<stop offset="0.770833" stop-color="#ED6E49"/>
<stop offset="1" stop-color="#F9B048"/>
</linearGradient>
</defs>
</svg>
