<svg width="24" height="25" viewBox="0 0 24 25" fill="none" xmlns="http://www.w3.org/2000/svg">
<g id="fi_8912558">
<g id="Group">
<path id="Vector" d="M23.3815 7.3727L12.1087 3.95452C12.036 3.91816 11.9633 3.91816 11.8906 3.95452L0.617827 7.3727C0.472372 7.40906 0.363281 7.55452 0.363281 7.73634C0.363281 7.91816 0.472372 8.02725 0.617827 8.09997L3.12692 8.86361V13.6636C3.12692 13.8091 3.19965 13.9182 3.30874 13.9909C3.3451 14.0272 6.69055 15.9545 11.8178 15.9545C13.3815 15.9545 15.1269 15.7727 17.0178 15.3V17.5545C16.3269 17.7 15.8178 18.3182 15.8178 19.0091V20.7909C15.8178 21.0091 15.9633 21.1545 16.1815 21.1545H18.5451C18.7633 21.1545 18.9087 21.0091 18.9087 20.7909V19.0091C18.9087 18.2818 18.3996 17.7 17.7087 17.5545V15.0454C18.6542 14.7545 19.636 14.4272 20.6542 13.9545C20.7996 13.8818 20.8724 13.7727 20.8724 13.6272V8.82725L23.3815 8.06361C23.5269 8.02725 23.636 7.88179 23.636 7.69997C23.636 7.51815 23.5269 7.40906 23.3815 7.3727ZM3.85419 13.4091V9.04543L11.8906 11.4818H11.9996C11.9996 11.4818 12.0724 11.4818 12.1087 11.4818L17.0178 9.99088V14.4636C10.036 16.3182 4.83601 13.9182 3.85419 13.4091ZM18.1815 18.9727V20.3182H16.5451V18.9727C16.5451 18.5 16.9087 18.1363 17.3815 18.1363C17.8542 18.1363 18.1815 18.5363 18.1815 18.9727ZM20.1451 13.3727C19.3087 13.7363 18.5087 14.0272 17.7087 14.2818V9.7727L20.1451 9.04543V13.3727ZM17.3815 9.11816L12.1451 7.19088C11.9633 7.11816 11.7451 7.22725 11.6724 7.40906C11.5996 7.59088 11.7087 7.80906 11.8906 7.88179L16.2542 9.48179L11.9996 10.7545L1.96328 7.73634L11.9996 4.68179L22.036 7.73634C19.9269 8.35452 18.7996 8.71816 17.3815 9.11816Z" fill="#313131"/>
</g>
</g>
</svg>
