<svg width="18" height="18" viewBox="0 0 18 18" fill="none" xmlns="http://www.w3.org/2000/svg">
<g id="search 1">
<g id="find,-glass,-magnify,-search">
<path id="Shape" d="M2.13842 2.13261C5.14788 -0.768389 9.62657 -0.652763 12.4119 2.13261C15.0755 4.79612 15.2383 9.01336 12.9004 11.8669L17.035 16.0019L16.0077 17.0292L11.8727 12.8946C9.01918 15.2325 4.80194 15.0696 2.13842 12.4061C-0.646947 9.62075 -0.777917 4.94385 2.13842 2.13261ZM11.3846 3.15996C9.11503 0.890398 5.43534 0.890398 3.16578 3.15996C0.896214 5.42952 0.896214 9.10921 3.16578 11.3788C5.43534 13.6483 9.11503 13.6483 11.3846 11.3788C13.6542 9.10921 13.6542 5.42952 11.3846 3.15996Z" fill="#9E1256"/>
</g>
</g>
</svg>
