<svg width="24" height="24" viewBox="0 0 24 24" fill="none" xmlns="http://www.w3.org/2000/svg">
<g id="shopping-cart">
<path id="shopping-cart_2" d="M10.27 20.999C10.27 21.689 9.71002 22.249 9.02002 22.249C8.33102 22.249 7.76501 21.689 7.76501 20.999C7.76501 20.309 8.32001 19.749 9.01001 19.749H9.02002C9.71002 19.749 10.27 20.309 10.27 20.999ZM17.02 19.749H17.01C16.32 19.749 15.765 20.309 15.765 20.999C15.765 21.689 16.33 22.249 17.02 22.249C17.71 22.249 18.27 21.689 18.27 20.999C18.27 20.309 17.71 19.749 17.02 19.749ZM21.705 8.491L20.691 14.657C20.428 16.103 19.774 17.749 17 17.749H8.73401C7.37501 17.749 6.20396 16.734 6.01196 15.388L4.50195 4.823C4.41395 4.211 3.88301 3.75 3.26501 3.75H3C2.586 3.75 2.25 3.414 2.25 3C2.25 2.586 2.586 2.25 3 2.25H3.26599C4.62499 2.25 5.79604 3.26499 5.98804 4.61099L6.07996 5.25H19C19.818 5.25 20.5881 5.60999 21.1121 6.23799C21.6351 6.86499 21.852 7.687 21.705 8.491ZM19.213 14.402L19.3199 13.749H13C12.586 13.749 12.25 13.413 12.25 12.999C12.25 12.585 12.586 12.249 13 12.249H19.567L20.2271 8.23499C20.2961 7.85699 20.198 7.483 19.959 7.198C19.72 6.913 19.371 6.74899 18.999 6.74899H6.29297L7.49695 15.176C7.58495 15.788 8.11601 16.249 8.73401 16.249H17C18.597 16.249 18.986 15.653 19.213 14.402Z" fill="white"/>
</g>
</svg>
