<svg width="63" height="63" viewBox="0 0 63 63" fill="none" xmlns="http://www.w3.org/2000/svg">
<g id="Group" opacity="0.2">
<path id="Vector" d="M31.6146 44.5522C38.8791 44.5522 44.7682 38.6625 44.7682 31.3972C44.7682 24.1319 38.8791 18.2422 31.6146 18.2422C24.35 18.2422 18.4609 24.1319 18.4609 31.3972C18.4609 38.6625 24.35 44.5522 31.6146 44.5522Z" stroke="url(#paint0_linear_345_4558)" stroke-width="0.612182" stroke-miterlimit="10" stroke-linecap="round" stroke-linejoin="round"/>
<g id="Group_2">
<path id="Vector_2" d="M39.5165 29.6704C39.5165 29.6704 39.0084 29.501 38.7638 29.1434C38.5192 28.7858 37.6535 28.3906 36.9008 28.3906C36.1481 28.3906 35.2825 28.7858 35.0379 29.1434C34.7932 29.501 34.2852 29.6704 34.2852 29.6704" stroke="url(#paint1_linear_345_4558)" stroke-width="0.612182" stroke-miterlimit="10" stroke-linecap="round" stroke-linejoin="round"/>
<path id="Vector_3" d="M37.7121 29.1764C37.7121 29.6281 37.3545 29.9857 36.9029 29.9857C36.4513 29.9857 36.0938 29.6281 36.0938 29.1764C36.0938 28.7248 36.4513 28.3672 36.9029 28.3672C37.3545 28.3672 37.7121 28.7436 37.7121 29.1764Z" stroke="url(#paint2_linear_345_4558)" stroke-width="0.612182" stroke-miterlimit="10" stroke-linecap="round" stroke-linejoin="round"/>
<path id="Vector_4" d="M34.0391 28.8811C34.0391 28.8811 35.0176 27.9965 35.4692 27.7331C35.9208 27.4696 37.1816 27.3378 37.6897 27.5825C38.1978 27.8272 39.1575 28.8811 39.1575 28.8811" stroke="url(#paint3_linear_345_4558)" stroke-width="0.612182" stroke-miterlimit="10" stroke-linecap="round" stroke-linejoin="round"/>
<path id="Vector_5" d="M33.6256 33.7656C33.6256 33.7656 34.2466 34.2926 34.096 35.0265C33.9643 35.7417 33.2492 35.6664 32.7412 35.6852C32.2331 35.7041 31.9696 36.3439 31.4051 36.3251C30.8406 36.3439 30.5771 35.7041 30.069 35.6852C29.561 35.6664 28.8459 35.7417 28.7142 35.0265C28.5824 34.3114 29.1846 33.7656 29.1846 33.7656" stroke="url(#paint4_linear_345_4558)" stroke-width="0.612182" stroke-miterlimit="10" stroke-linecap="round" stroke-linejoin="round"/>
<path id="Vector_6" d="M30.8056 35.1987C30.8056 35.1987 30.2787 34.9541 30.4857 33.9943C30.6927 33.0345 30.9938 33.2415 30.9938 31.7359C30.9938 30.2115 30.9938 28.3672 30.9938 28.3672" stroke="url(#paint5_linear_345_4558)" stroke-width="0.612182" stroke-miterlimit="10" stroke-linecap="round" stroke-linejoin="round"/>
<path id="Vector_7" d="M34.4201 38.4209C34.4201 38.4209 33.7615 38.4961 33.3287 38.4773C32.8959 38.4585 32.7077 38.3456 32.3878 38.3456C31.748 38.3644 31.7856 38.5902 31.4093 38.5902C31.0329 38.5714 31.0706 38.3644 30.4308 38.3456C30.1109 38.3268 29.9227 38.4585 29.4899 38.4773C29.0571 38.4961 28.3984 38.4209 28.3984 38.4209" stroke="url(#paint6_linear_345_4558)" stroke-width="0.612182" stroke-miterlimit="10" stroke-linecap="round" stroke-linejoin="round"/>
<path id="Vector_8" d="M33.0257 37.9525C33.0257 37.9525 32.3671 37.6137 32.1789 37.6514C31.9907 37.7078 31.4074 38.1219 31.4074 38.1219C31.4074 38.1219 30.824 37.689 30.6359 37.6514C30.4477 37.6137 29.7891 37.9525 29.7891 37.9525" stroke="url(#paint7_linear_345_4558)" stroke-width="0.612182" stroke-miterlimit="10" stroke-linecap="round" stroke-linejoin="round"/>
<path id="Vector_9" d="M33.4396 38.8516C33.4396 38.8516 32.2353 39.642 31.4073 39.642C30.5793 39.642 29.375 38.8516 29.375 38.8516" stroke="url(#paint8_linear_345_4558)" stroke-width="0.612182" stroke-miterlimit="10" stroke-linecap="round" stroke-linejoin="round"/>
<path id="Vector_10" d="M33.4414 26.0735C33.4414 26.0735 35.6995 23.8339 39.7454 26.0735" stroke="url(#paint9_linear_345_4558)" stroke-width="0.612182" stroke-miterlimit="10" stroke-linecap="round" stroke-linejoin="round"/>
<path id="Vector_11" d="M23.7109 29.6704C23.7109 29.6704 24.219 29.501 24.4636 29.1434C24.7083 28.7858 25.5739 28.3906 26.3266 28.3906C27.0793 28.3906 27.9449 28.7858 28.1896 29.1434C28.4342 29.501 28.9423 29.6704 28.9423 29.6704" stroke="url(#paint10_linear_345_4558)" stroke-width="0.612182" stroke-miterlimit="10" stroke-linecap="round" stroke-linejoin="round"/>
<path id="Vector_12" d="M25.5 29.1764C25.5 29.6281 25.8575 29.9857 26.3092 29.9857C26.7608 29.9857 27.1183 29.6281 27.1183 29.1764C27.1183 28.7248 26.7608 28.3672 26.3092 28.3672C25.8764 28.386 25.5 28.7436 25.5 29.1764Z" stroke="url(#paint11_linear_345_4558)" stroke-width="0.612182" stroke-miterlimit="10" stroke-linecap="round" stroke-linejoin="round"/>
<path id="Vector_13" d="M29.1653 28.8811C29.1653 28.8811 28.1868 27.9965 27.7352 27.7331C27.2835 27.4696 26.0227 27.3378 25.5147 27.5825C25.0066 27.8272 24.0469 28.8811 24.0469 28.8811" stroke="url(#paint12_linear_345_4558)" stroke-width="0.612182" stroke-miterlimit="10" stroke-linecap="round" stroke-linejoin="round"/>
<path id="Vector_14" d="M29.7883 26.0735C29.7883 26.0735 27.5302 23.8339 23.4844 26.0735" stroke="url(#paint13_linear_345_4558)" stroke-width="0.612182" stroke-miterlimit="10" stroke-linecap="round" stroke-linejoin="round"/>
</g>
<g id="Group_3">
<g id="Group_4">
<g id="Group_5">
<path id="Vector_15" d="M33.4216 18.3777C33.2334 13.4469 32.763 8.53498 32.0479 3.67949L31.6151 0.78125L31.1823 3.67949C30.4484 8.53498 29.9968 13.4281 29.8086 18.3777C30.4108 18.3024 31.0129 18.246 31.6339 18.246C32.2173 18.246 32.8383 18.3024 33.4216 18.3777Z" stroke="url(#paint14_linear_345_4558)" stroke-width="0.612182" stroke-miterlimit="10" stroke-linecap="round" stroke-linejoin="round"/>
<path id="Vector_16" d="M29.7891 44.4375C29.9772 49.3683 30.4477 54.2802 31.1628 59.1357L31.5956 62.0339L32.0284 59.1357C32.7623 54.2802 33.2139 49.3871 33.4021 44.4375C32.7999 44.5128 32.1977 44.5692 31.5768 44.5692C30.9934 44.5504 30.3912 44.5128 29.7891 44.4375Z" stroke="url(#paint15_linear_345_4558)" stroke-width="0.612182" stroke-miterlimit="10" stroke-linecap="round" stroke-linejoin="round"/>
</g>
<g id="Group_6">
<path id="Vector_17" d="M44.6406 33.2228C49.5709 33.0346 54.4823 32.5641 59.3373 31.8489L62.2352 31.4161L59.3373 30.9832C54.4823 30.2492 49.5897 29.7976 44.6406 29.6094C44.7159 30.2116 44.7723 30.8138 44.7723 31.4349C44.7723 32.0183 44.7159 32.6205 44.6406 33.2228Z" stroke="url(#paint16_linear_345_4558)" stroke-width="0.612182" stroke-miterlimit="10" stroke-linecap="round" stroke-linejoin="round"/>
<path id="Vector_18" d="M18.5946 29.5938C13.6644 29.7819 8.75292 30.2524 3.89794 30.9676L1 31.4004L3.89794 31.8333C8.75292 32.5673 13.6455 33.0189 18.5946 33.2071C18.5193 32.6049 18.4629 32.0027 18.4629 31.3816C18.4629 30.7982 18.5005 30.1772 18.5946 29.5938Z" stroke="url(#paint17_linear_345_4558)" stroke-width="0.612182" stroke-miterlimit="10" stroke-linecap="round" stroke-linejoin="round"/>
</g>
</g>
<g id="Group_7">
<g id="Group_8">
<path id="Vector_19" d="M26.3083 14.3969C24.4454 13.4935 22.6389 11.4986 22.2437 9.56021C21.8485 7.62178 21.2463 4.79882 18.5742 4.89292C18.5742 4.89292 20.8512 6.37968 20.7571 8.8827C20.7006 10.6329 19.9291 12.7784 21.3216 14.2651C22.7141 15.7519 24.0126 17.1257 24.0126 18.7442C24.0126 20.1745 23.448 21.0402 23.448 21.0402H23.4668C25.2545 19.6288 27.4186 18.6878 29.7708 18.349C29.7896 18.3678 28.6794 15.5449 26.3083 14.3969Z" stroke="url(#paint18_linear_345_4558)" stroke-width="0.612182" stroke-miterlimit="10" stroke-linecap="round" stroke-linejoin="round"/>
<path id="Vector_20" d="M36.9041 14.3969C38.7671 13.4935 40.5736 11.4986 40.9688 9.56021C41.3639 7.62178 41.9661 4.79882 44.6382 4.89292C44.6382 4.89292 42.3613 6.37968 42.4554 8.8827C42.5118 10.6329 43.2833 12.7784 41.8908 14.2651C40.4983 15.7519 39.1999 17.1257 39.1999 18.7442C39.1999 20.1745 39.7644 21.0402 39.7644 21.0402H39.7456C37.9579 19.6288 35.7939 18.6878 33.4416 18.349C33.4228 18.3678 34.5331 15.5449 36.9041 14.3969Z" stroke="url(#paint19_linear_345_4558)" stroke-width="0.612182" stroke-miterlimit="10" stroke-linecap="round" stroke-linejoin="round"/>
</g>
<g id="Group_9">
<path id="Vector_21" d="M36.9041 48.3699C38.7671 49.2733 40.5736 51.2682 40.9688 53.2066C41.3639 55.145 41.9661 57.968 44.6382 57.8739C44.6382 57.8739 42.3613 56.3871 42.4554 53.8841C42.5118 52.1339 43.2833 49.9884 41.8908 48.5017C40.4983 47.0149 39.1999 45.6411 39.1999 44.0226C39.1999 42.5923 39.7644 41.7266 39.7644 41.7266H39.7456C37.9579 43.138 35.7939 44.079 33.4416 44.4178C33.4228 44.399 34.5331 47.2407 36.9041 48.3699Z" stroke="url(#paint20_linear_345_4558)" stroke-width="0.612182" stroke-miterlimit="10" stroke-linecap="round" stroke-linejoin="round"/>
<path id="Vector_22" d="M26.3083 48.3699C24.4454 49.2733 22.6389 51.2682 22.2437 53.2066C21.8485 55.145 21.2463 57.968 18.5742 57.8739C18.5742 57.8739 20.8512 56.3871 20.7571 53.8841C20.7006 52.1339 19.9291 49.9884 21.3216 48.5017C22.7141 47.0149 24.0126 45.6411 24.0126 44.0226C24.0126 42.5923 23.448 41.7266 23.448 41.7266H23.4668C25.2545 43.138 27.4186 44.079 29.7708 44.4178C29.7896 44.399 28.6794 47.2407 26.3083 48.3699Z" stroke="url(#paint21_linear_345_4558)" stroke-width="0.612182" stroke-miterlimit="10" stroke-linecap="round" stroke-linejoin="round"/>
</g>
</g>
<g id="Group_10">
<g id="Group_11">
<path id="Vector_23" d="M23.694 20.9101C20.0622 17.5602 16.261 14.4173 12.3281 11.5002L9.95703 9.75L11.7071 12.1213C14.6238 16.0546 17.7664 19.8562 21.116 23.4884C21.4735 23.0179 21.8687 22.5474 22.3015 22.1146C22.7531 21.6629 23.2047 21.2677 23.694 20.9101Z" stroke="url(#paint22_linear_345_4558)" stroke-width="0.612182" stroke-miterlimit="10" stroke-linecap="round" stroke-linejoin="round"/>
<path id="Vector_24" d="M39.5391 41.8986C43.1709 45.2485 46.9721 48.3914 50.905 51.3085L53.276 53.0587L51.526 50.6874C48.6092 46.7541 45.4667 42.9525 42.1171 39.3203C41.7596 39.7908 41.3644 40.2613 40.9316 40.6942C40.48 41.1458 40.0095 41.541 39.5391 41.8986Z" stroke="url(#paint23_linear_345_4558)" stroke-width="0.612182" stroke-miterlimit="10" stroke-linecap="round" stroke-linejoin="round"/>
</g>
<g id="Group_12">
<path id="Vector_25" d="M42.0976 23.4728C45.4471 19.8406 48.5897 16.039 51.5065 12.1057L53.2565 9.73438L50.8855 11.4846C46.9525 14.4017 43.1514 17.5446 39.5195 20.8945C39.99 21.252 40.4604 21.6473 40.8932 22.0801C41.3449 22.5318 41.74 23.0023 42.0976 23.4728Z" stroke="url(#paint24_linear_345_4558)" stroke-width="0.612182" stroke-miterlimit="10" stroke-linecap="round" stroke-linejoin="round"/>
<path id="Vector_26" d="M21.116 39.3359C17.7664 42.9681 14.6238 46.7697 11.7071 50.703L9.95703 53.0743L12.3281 51.3241C16.261 48.407 20.0622 45.2642 23.694 41.9142C23.2236 41.5567 22.7531 41.1615 22.3203 40.7286C21.8687 40.2581 21.4735 39.8064 21.116 39.3359Z" stroke="url(#paint25_linear_345_4558)" stroke-width="0.612182" stroke-miterlimit="10" stroke-linecap="round" stroke-linejoin="round"/>
</g>
</g>
<g id="Group_13">
<g id="Group_14">
<path id="Vector_27" d="M48.588 26.0865C49.4912 24.2233 51.4859 22.4166 53.4242 22.0214C55.3624 21.6262 58.1851 21.024 58.091 18.3516C58.091 18.3516 56.6044 20.6287 54.1016 20.5347C52.3515 20.4782 50.2063 19.7066 48.7197 21.0992C47.2331 22.4919 45.8594 23.7905 44.2411 23.7905C42.8109 23.7905 41.9453 23.2259 41.9453 23.2259V23.2447C43.3566 25.0326 44.2975 27.1968 44.6363 29.5493C44.6174 29.5681 47.4589 28.4578 48.588 26.0865Z" stroke="url(#paint26_linear_345_4558)" stroke-width="0.612182" stroke-miterlimit="10" stroke-linecap="round" stroke-linejoin="round"/>
<path id="Vector_28" d="M48.588 36.6818C49.4912 38.545 51.4859 40.3517 53.4242 40.7469C55.3624 41.1421 58.1851 41.7443 58.091 44.4167C58.091 44.4167 56.6044 42.1395 54.1016 42.2336C52.3515 42.2901 50.2063 43.0617 48.7197 41.669C47.2331 40.2764 45.8594 38.9778 44.2411 38.9778C42.8109 38.9778 41.9453 39.5424 41.9453 39.5424V39.5236C43.3566 37.7357 44.2975 35.5715 44.6363 33.219C44.6174 33.2002 47.4589 34.3105 48.588 36.6818Z" stroke="url(#paint27_linear_345_4558)" stroke-width="0.612182" stroke-miterlimit="10" stroke-linecap="round" stroke-linejoin="round"/>
</g>
<g id="Group_15">
<path id="Vector_29" d="M14.6225 36.6818C13.7192 38.545 11.7245 40.3517 9.78629 40.7469C7.84806 41.1421 5.02539 41.7443 5.11948 44.4167C5.11948 44.4167 6.60609 42.1395 9.10885 42.2336C10.8589 42.2901 13.0041 43.0617 14.4907 41.669C15.9773 40.2764 17.351 38.9778 18.9694 38.9778C20.3995 38.9778 21.2651 39.5424 21.2651 39.5424V39.5236C19.8538 37.7357 18.9129 35.5715 18.5742 33.219C18.593 33.2002 15.7703 34.3105 14.6225 36.6818Z" stroke="url(#paint28_linear_345_4558)" stroke-width="0.612182" stroke-miterlimit="10" stroke-linecap="round" stroke-linejoin="round"/>
<path id="Vector_30" d="M14.6225 26.0865C13.7192 24.2233 11.7245 22.4166 9.78629 22.0214C7.84806 21.6262 5.02539 21.024 5.11948 18.3516C5.11948 18.3516 6.60609 20.6287 9.10885 20.5347C10.8589 20.4782 13.0041 19.7066 14.4907 21.0992C15.9773 22.4919 17.351 23.7905 18.9694 23.7905C20.3995 23.7905 21.2651 23.2259 21.2651 23.2259V23.2447C19.8538 25.0326 18.9129 27.1968 18.5742 29.5493C18.593 29.5681 15.7703 28.4578 14.6225 26.0865Z" stroke="url(#paint29_linear_345_4558)" stroke-width="0.612182" stroke-miterlimit="10" stroke-linecap="round" stroke-linejoin="round"/>
</g>
</g>
</g>
</g>
<defs>
<linearGradient id="paint0_linear_345_4558" x1="18.6071" y1="18.2425" x2="44.814" y2="18.2882" gradientUnits="userSpaceOnUse">
<stop stop-color="#9E1256"/>
<stop offset="0.265625" stop-color="#CE164F"/>
<stop offset="0.5" stop-color="#E74249"/>
<stop offset="0.770833" stop-color="#ED6E49"/>
<stop offset="1" stop-color="#F9B048"/>
</linearGradient>
<linearGradient id="paint1_linear_345_4558" x1="34.3142" y1="28.3906" x2="39.5254" y2="28.4278" gradientUnits="userSpaceOnUse">
<stop stop-color="#9E1256"/>
<stop offset="0.265625" stop-color="#CE164F"/>
<stop offset="0.5" stop-color="#E74249"/>
<stop offset="0.770833" stop-color="#ED6E49"/>
<stop offset="1" stop-color="#F9B048"/>
</linearGradient>
<linearGradient id="paint2_linear_345_4558" x1="36.1027" y1="28.3672" x2="37.7149" y2="28.37" gradientUnits="userSpaceOnUse">
<stop stop-color="#9E1256"/>
<stop offset="0.265625" stop-color="#CE164F"/>
<stop offset="0.5" stop-color="#E74249"/>
<stop offset="0.770833" stop-color="#ED6E49"/>
<stop offset="1" stop-color="#F9B048"/>
</linearGradient>
<linearGradient id="paint3_linear_345_4558" x1="34.0675" y1="27.4531" x2="39.1662" y2="27.485" gradientUnits="userSpaceOnUse">
<stop stop-color="#9E1256"/>
<stop offset="0.265625" stop-color="#CE164F"/>
<stop offset="0.5" stop-color="#E74249"/>
<stop offset="0.770833" stop-color="#ED6E49"/>
<stop offset="1" stop-color="#F9B048"/>
</linearGradient>
<linearGradient id="paint4_linear_345_4558" x1="28.7254" y1="33.7657" x2="34.129" y2="33.7856" gradientUnits="userSpaceOnUse">
<stop stop-color="#9E1256"/>
<stop offset="0.265625" stop-color="#CE164F"/>
<stop offset="0.5" stop-color="#E74249"/>
<stop offset="0.770833" stop-color="#ED6E49"/>
<stop offset="1" stop-color="#F9B048"/>
</linearGradient>
<linearGradient id="paint5_linear_345_4558" x1="30.4406" y1="28.3673" x2="30.9947" y2="28.3673" gradientUnits="userSpaceOnUse">
<stop stop-color="#9E1256"/>
<stop offset="0.265625" stop-color="#CE164F"/>
<stop offset="0.5" stop-color="#E74249"/>
<stop offset="0.770833" stop-color="#ED6E49"/>
<stop offset="1" stop-color="#F9B048"/>
</linearGradient>
<linearGradient id="paint6_linear_345_4558" x1="28.4319" y1="38.3438" x2="34.4197" y2="38.5991" gradientUnits="userSpaceOnUse">
<stop stop-color="#9E1256"/>
<stop offset="0.265625" stop-color="#CE164F"/>
<stop offset="0.5" stop-color="#E74249"/>
<stop offset="0.770833" stop-color="#ED6E49"/>
<stop offset="1" stop-color="#F9B048"/>
</linearGradient>
<linearGradient id="paint7_linear_345_4558" x1="29.807" y1="37.6484" x2="33.0309" y2="37.6869" gradientUnits="userSpaceOnUse">
<stop stop-color="#9E1256"/>
<stop offset="0.265625" stop-color="#CE164F"/>
<stop offset="0.5" stop-color="#E74249"/>
<stop offset="0.770833" stop-color="#ED6E49"/>
<stop offset="1" stop-color="#F9B048"/>
</linearGradient>
<linearGradient id="paint8_linear_345_4558" x1="29.3976" y1="38.8516" x2="33.4464" y2="38.8879" gradientUnits="userSpaceOnUse">
<stop stop-color="#9E1256"/>
<stop offset="0.265625" stop-color="#CE164F"/>
<stop offset="0.5" stop-color="#E74249"/>
<stop offset="0.770833" stop-color="#ED6E49"/>
<stop offset="1" stop-color="#F9B048"/>
</linearGradient>
<linearGradient id="paint9_linear_345_4558" x1="33.4764" y1="25.0781" x2="39.7556" y2="25.1476" gradientUnits="userSpaceOnUse">
<stop stop-color="#9E1256"/>
<stop offset="0.265625" stop-color="#CE164F"/>
<stop offset="0.5" stop-color="#E74249"/>
<stop offset="0.770833" stop-color="#ED6E49"/>
<stop offset="1" stop-color="#F9B048"/>
</linearGradient>
<linearGradient id="paint10_linear_345_4558" x1="23.74" y1="28.3906" x2="28.9511" y2="28.4278" gradientUnits="userSpaceOnUse">
<stop stop-color="#9E1256"/>
<stop offset="0.265625" stop-color="#CE164F"/>
<stop offset="0.5" stop-color="#E74249"/>
<stop offset="0.770833" stop-color="#ED6E49"/>
<stop offset="1" stop-color="#F9B048"/>
</linearGradient>
<linearGradient id="paint11_linear_345_4558" x1="25.509" y1="28.3672" x2="27.1211" y2="28.37" gradientUnits="userSpaceOnUse">
<stop stop-color="#9E1256"/>
<stop offset="0.265625" stop-color="#CE164F"/>
<stop offset="0.5" stop-color="#E74249"/>
<stop offset="0.770833" stop-color="#ED6E49"/>
<stop offset="1" stop-color="#F9B048"/>
</linearGradient>
<linearGradient id="paint12_linear_345_4558" x1="24.0753" y1="27.4531" x2="29.174" y2="27.485" gradientUnits="userSpaceOnUse">
<stop stop-color="#9E1256"/>
<stop offset="0.265625" stop-color="#CE164F"/>
<stop offset="0.5" stop-color="#E74249"/>
<stop offset="0.770833" stop-color="#ED6E49"/>
<stop offset="1" stop-color="#F9B048"/>
</linearGradient>
<linearGradient id="paint13_linear_345_4558" x1="23.5194" y1="25.0781" x2="29.7986" y2="25.1476" gradientUnits="userSpaceOnUse">
<stop stop-color="#9E1256"/>
<stop offset="0.265625" stop-color="#CE164F"/>
<stop offset="0.5" stop-color="#E74249"/>
<stop offset="0.770833" stop-color="#ED6E49"/>
<stop offset="1" stop-color="#F9B048"/>
</linearGradient>
<linearGradient id="paint14_linear_345_4558" x1="29.8287" y1="0.781456" x2="33.4279" y2="0.782746" gradientUnits="userSpaceOnUse">
<stop stop-color="#9E1256"/>
<stop offset="0.265625" stop-color="#CE164F"/>
<stop offset="0.5" stop-color="#E74249"/>
<stop offset="0.770833" stop-color="#ED6E49"/>
<stop offset="1" stop-color="#F9B048"/>
</linearGradient>
<linearGradient id="paint15_linear_345_4558" x1="29.8091" y1="44.4377" x2="33.4084" y2="44.439" gradientUnits="userSpaceOnUse">
<stop stop-color="#9E1256"/>
<stop offset="0.265625" stop-color="#CE164F"/>
<stop offset="0.5" stop-color="#E74249"/>
<stop offset="0.770833" stop-color="#ED6E49"/>
<stop offset="1" stop-color="#F9B048"/>
</linearGradient>
<linearGradient id="paint16_linear_345_4558" x1="44.7384" y1="29.6094" x2="62.2647" y2="29.7584" gradientUnits="userSpaceOnUse">
<stop stop-color="#9E1256"/>
<stop offset="0.265625" stop-color="#CE164F"/>
<stop offset="0.5" stop-color="#E74249"/>
<stop offset="0.770833" stop-color="#ED6E49"/>
<stop offset="1" stop-color="#F9B048"/>
</linearGradient>
<linearGradient id="paint17_linear_345_4558" x1="1.09775" y1="29.5938" x2="18.6241" y2="29.7428" gradientUnits="userSpaceOnUse">
<stop stop-color="#9E1256"/>
<stop offset="0.265625" stop-color="#CE164F"/>
<stop offset="0.5" stop-color="#E74249"/>
<stop offset="0.770833" stop-color="#ED6E49"/>
<stop offset="1" stop-color="#F9B048"/>
</linearGradient>
<linearGradient id="paint18_linear_345_4558" x1="18.6364" y1="4.89081" x2="29.7906" y2="4.90431" gradientUnits="userSpaceOnUse">
<stop stop-color="#9E1256"/>
<stop offset="0.265625" stop-color="#CE164F"/>
<stop offset="0.5" stop-color="#E74249"/>
<stop offset="0.770833" stop-color="#ED6E49"/>
<stop offset="1" stop-color="#F9B048"/>
</linearGradient>
<linearGradient id="paint19_linear_345_4558" x1="33.5036" y1="4.89081" x2="44.6578" y2="4.90431" gradientUnits="userSpaceOnUse">
<stop stop-color="#9E1256"/>
<stop offset="0.265625" stop-color="#CE164F"/>
<stop offset="0.5" stop-color="#E74249"/>
<stop offset="0.770833" stop-color="#ED6E49"/>
<stop offset="1" stop-color="#F9B048"/>
</linearGradient>
<linearGradient id="paint20_linear_345_4558" x1="33.5036" y1="41.7268" x2="44.6578" y2="41.7403" gradientUnits="userSpaceOnUse">
<stop stop-color="#9E1256"/>
<stop offset="0.265625" stop-color="#CE164F"/>
<stop offset="0.5" stop-color="#E74249"/>
<stop offset="0.770833" stop-color="#ED6E49"/>
<stop offset="1" stop-color="#F9B048"/>
</linearGradient>
<linearGradient id="paint21_linear_345_4558" x1="18.6364" y1="41.7268" x2="29.7906" y2="41.7403" gradientUnits="userSpaceOnUse">
<stop stop-color="#9E1256"/>
<stop offset="0.265625" stop-color="#CE164F"/>
<stop offset="0.5" stop-color="#E74249"/>
<stop offset="0.770833" stop-color="#ED6E49"/>
<stop offset="1" stop-color="#F9B048"/>
</linearGradient>
<linearGradient id="paint22_linear_345_4558" x1="10.0333" y1="9.75016" x2="23.7179" y2="9.77405" gradientUnits="userSpaceOnUse">
<stop stop-color="#9E1256"/>
<stop offset="0.265625" stop-color="#CE164F"/>
<stop offset="0.5" stop-color="#E74249"/>
<stop offset="0.770833" stop-color="#ED6E49"/>
<stop offset="1" stop-color="#F9B048"/>
</linearGradient>
<linearGradient id="paint23_linear_345_4558" x1="39.6154" y1="39.3205" x2="53.3" y2="39.3444" gradientUnits="userSpaceOnUse">
<stop stop-color="#9E1256"/>
<stop offset="0.265625" stop-color="#CE164F"/>
<stop offset="0.5" stop-color="#E74249"/>
<stop offset="0.770833" stop-color="#ED6E49"/>
<stop offset="1" stop-color="#F9B048"/>
</linearGradient>
<linearGradient id="paint24_linear_345_4558" x1="39.5958" y1="9.73454" x2="53.2804" y2="9.75842" gradientUnits="userSpaceOnUse">
<stop stop-color="#9E1256"/>
<stop offset="0.265625" stop-color="#CE164F"/>
<stop offset="0.5" stop-color="#E74249"/>
<stop offset="0.770833" stop-color="#ED6E49"/>
<stop offset="1" stop-color="#F9B048"/>
</linearGradient>
<linearGradient id="paint25_linear_345_4558" x1="10.0333" y1="39.3361" x2="23.7179" y2="39.36" gradientUnits="userSpaceOnUse">
<stop stop-color="#9E1256"/>
<stop offset="0.265625" stop-color="#CE164F"/>
<stop offset="0.5" stop-color="#E74249"/>
<stop offset="0.770833" stop-color="#ED6E49"/>
<stop offset="1" stop-color="#F9B048"/>
</linearGradient>
<linearGradient id="paint26_linear_345_4558" x1="42.035" y1="18.3517" x2="58.1214" y2="18.3922" gradientUnits="userSpaceOnUse">
<stop stop-color="#9E1256"/>
<stop offset="0.265625" stop-color="#CE164F"/>
<stop offset="0.5" stop-color="#E74249"/>
<stop offset="0.770833" stop-color="#ED6E49"/>
<stop offset="1" stop-color="#F9B048"/>
</linearGradient>
<linearGradient id="paint27_linear_345_4558" x1="42.035" y1="33.2189" x2="58.1214" y2="33.2594" gradientUnits="userSpaceOnUse">
<stop stop-color="#9E1256"/>
<stop offset="0.265625" stop-color="#CE164F"/>
<stop offset="0.5" stop-color="#E74249"/>
<stop offset="0.770833" stop-color="#ED6E49"/>
<stop offset="1" stop-color="#F9B048"/>
</linearGradient>
<linearGradient id="paint28_linear_345_4558" x1="5.2069" y1="33.2189" x2="21.2932" y2="33.2594" gradientUnits="userSpaceOnUse">
<stop stop-color="#9E1256"/>
<stop offset="0.265625" stop-color="#CE164F"/>
<stop offset="0.5" stop-color="#E74249"/>
<stop offset="0.770833" stop-color="#ED6E49"/>
<stop offset="1" stop-color="#F9B048"/>
</linearGradient>
<linearGradient id="paint29_linear_345_4558" x1="5.2069" y1="18.3517" x2="21.2932" y2="18.3922" gradientUnits="userSpaceOnUse">
<stop stop-color="#9E1256"/>
<stop offset="0.265625" stop-color="#CE164F"/>
<stop offset="0.5" stop-color="#E74249"/>
<stop offset="0.770833" stop-color="#ED6E49"/>
<stop offset="1" stop-color="#F9B048"/>
</linearGradient>
</defs>
</svg>
