<svg width="59" height="188" viewBox="0 0 59 188" fill="none" xmlns="http://www.w3.org/2000/svg">
<path id="sun" d="M186.743 85.7147C186.276 84.9193 185.645 84.2409 184.945 83.6327C184.268 83.0479 183.474 82.5566 182.586 82.3929C181.278 82.1589 179.994 82.2993 178.733 82.7204C177.752 83.0479 176.841 83.5157 175.86 83.8432C175.393 84.007 174.903 84.1473 174.389 84.1006C173.408 84.007 172.52 83.6795 171.82 82.9777C171.213 82.3695 170.605 81.7613 170.465 80.8489C170.348 80.0302 170.232 79.2348 170.045 78.4394C169.765 77.2698 169.554 76.0767 169.204 74.9071C169.087 74.5328 169.134 74.486 169.531 74.3457C169.835 74.2287 170.162 74.2521 170.465 74.1585C172.03 73.6673 173.314 72.7549 174.225 71.3981C175.019 70.2519 175.953 69.2928 177.191 68.6378C178.849 67.7488 180.601 67.2342 182.469 67.164C182.726 67.164 183.053 67.281 183.193 67.0003C183.333 66.6961 183.006 66.509 182.82 66.3219C181.745 65.2926 180.531 64.5206 179.083 64.1931C178.429 64.0527 177.728 64.0293 177.074 64.1931C175.93 64.4738 174.856 64.9651 173.875 65.6435C173.221 66.0879 172.567 66.5324 171.913 66.9535C171.236 67.3979 170.465 67.6085 169.671 67.5383C168.924 67.4681 168.2 67.2342 167.569 66.8131C166.962 66.4154 166.355 65.971 166.075 65.2692C165.257 63.2808 164.44 61.2924 163.436 59.3741C163.296 59.1168 163.342 59.0232 163.622 58.9531C164.837 58.5554 165.864 57.8536 166.682 56.8477C167.149 56.2862 167.499 55.678 167.78 55.023C168.083 54.3212 168.41 53.6428 168.854 53.058C170.489 50.976 172.661 49.7362 175.23 49.1748C175.393 49.128 175.58 49.1514 175.627 48.9408C175.673 48.7537 175.533 48.6367 175.416 48.5198C175.323 48.4496 175.23 48.4028 175.136 48.3326C174.506 47.9115 173.828 47.6074 173.128 47.3735C171.563 46.8589 170.022 46.8588 168.527 47.7244C167.733 48.1923 166.986 48.7303 166.355 49.3853C165.794 49.9701 165.257 50.5549 164.697 51.1398C164.16 51.7012 163.506 52.0755 162.758 52.1925C161.918 52.3094 161.077 52.3094 160.283 51.9585C159.465 51.6076 158.718 51.1866 158.228 50.3912C157.644 49.4555 157.013 48.5432 156.336 47.6776C155.822 46.9992 155.308 46.2974 154.795 45.619C154.561 45.3149 154.561 45.3149 154.888 45.081C155.192 44.8704 155.519 44.6833 155.799 44.426C157.13 43.2797 157.854 41.7826 158.158 40.0749C158.438 38.5075 159.162 37.1975 160.189 36.0279C161.264 34.788 162.595 33.8289 164.066 33.1271C164.206 33.057 164.417 33.0336 164.417 32.823C164.417 32.5891 164.23 32.5189 164.066 32.4254C163.996 32.3786 163.926 32.3786 163.856 32.3318C162.992 31.9575 162.058 31.8171 161.124 31.7703C160.049 31.7236 158.998 31.8873 158.064 32.4955C156.896 33.2441 156.009 34.2734 155.262 35.4431C154.818 36.1448 154.421 36.87 153.954 37.525C153.417 38.297 152.669 38.7415 151.735 38.8818C151.128 38.9754 150.521 38.9754 149.89 38.8818C149.073 38.7649 148.326 38.5075 147.788 37.8759C147.672 37.7356 147.531 37.6186 147.391 37.4782C146.154 36.3788 144.963 35.2091 143.678 34.1564C143.071 33.6418 143.094 33.6184 143.631 33.057C144.449 32.2148 144.963 31.2089 145.266 30.1094C145.5 29.2439 145.546 28.3784 145.5 27.4894C145.453 26.4133 145.733 25.4074 146.13 24.4483C146.691 23.0447 147.555 21.8283 148.652 20.799C149.073 20.4247 149.447 20.0037 149.914 19.6995C150.077 19.606 150.171 19.4656 150.124 19.2785C150.077 19.0679 149.914 19.0211 149.75 18.9978C149.703 18.9978 149.633 18.9744 149.587 18.9744C148.746 18.951 147.928 18.834 147.064 18.951C145.803 19.1147 144.682 19.5124 143.748 20.4247C143.094 21.0797 142.604 21.8517 142.207 22.6705C141.74 23.653 141.413 24.6823 141.039 25.7116C140.595 26.9514 139.778 27.7935 138.47 28.1444C137.816 28.3316 137.186 28.2848 136.532 28.3082C136.041 28.3316 135.598 28.1912 135.2 27.9339C133.402 26.8344 131.604 25.7116 129.712 24.7524C129.409 24.5887 129.409 24.5185 129.595 24.2378C130.39 23.1149 130.833 21.8985 130.787 20.5183C130.763 19.8399 130.763 19.1849 130.623 18.5065C130.506 17.9451 130.366 17.3836 130.343 16.7988C130.296 16.0034 130.46 15.2315 130.623 14.4595C130.903 13.1027 131.487 11.8395 132.305 10.6932C132.608 10.2722 132.888 9.82768 133.262 9.45339C133.566 9.12589 133.472 8.91536 133.029 8.86857C132.772 8.84518 132.515 8.86857 132.258 8.89196C131.534 9.00893 130.833 9.14929 130.133 9.40661C128.778 9.94465 127.68 10.7634 127.003 12.1436C126.232 13.7109 126.046 15.3952 125.859 17.0795C125.719 18.2024 125.275 19.1147 124.388 19.7931C123.523 20.4481 122.496 20.6353 121.468 20.8224C121.235 20.8692 121.025 20.799 120.814 20.7054C118.806 19.9335 116.751 19.2551 114.649 18.6936C114.252 18.6001 114.228 18.5299 114.392 18.1556C114.696 17.407 114.882 16.6351 114.929 15.8163C114.976 14.5531 114.649 13.3834 114.088 12.2606C113.668 11.4184 113.458 10.5061 113.364 9.57036C113.178 7.86267 113.528 6.22516 114.135 4.63443C114.345 4.073 114.602 3.53496 114.906 3.02031C114.976 2.90335 115.046 2.7396 114.952 2.59924C114.859 2.43549 114.696 2.52906 114.532 2.52906C113.995 2.59924 113.481 2.80977 112.991 3.02031C110.819 3.95603 109.394 5.49997 109.137 7.90946C108.997 9.17268 108.974 10.4593 109.231 11.7225C109.394 12.5413 109.254 13.3132 108.927 14.0618C108.39 15.2783 107.362 15.9099 106.195 16.3777C105.611 16.6117 105.027 16.6818 104.443 16.5415C104.023 16.4479 103.602 16.4245 103.182 16.3543C102.294 16.2374 101.407 16.1204 100.52 16.097C100.426 16.097 100.333 16.0736 100.239 16.0268C99.9357 15.9333 99.6088 15.9099 99.3052 15.9099C99.1417 15.9099 98.9782 15.9099 98.7914 15.9099C98.1374 15.8865 98.1141 15.8631 98.2542 15.2315C98.3009 15.0443 98.3476 14.8572 98.3476 14.67C98.4644 12.8688 97.9506 11.2781 96.8296 9.87447C95.4517 8.11999 94.9379 6.0848 95.008 3.88585C95.0547 2.76299 95.1014 1.61673 95.5451 0.540651C95.6152 0.376899 95.6385 0.189755 95.4751 0.0727899C95.3116 -0.0675682 95.1715 0.026004 95.008 0.0961831C94.2139 0.493865 93.4433 0.985118 92.7893 1.61673C91.8318 2.50567 91.1779 3.55835 90.9444 4.86836C90.7342 5.96783 90.9444 7.02052 91.2013 8.07321C91.4114 8.98553 91.7617 9.85108 91.9719 10.7634C92.1354 11.4418 92.1354 12.1202 91.9252 12.822C91.5983 13.8747 90.8509 14.5999 89.9868 15.2081C89.5198 15.5122 89.0293 15.8397 88.4688 15.8865C87.6748 15.9333 86.8807 16.0268 86.0867 16.097C84.8256 16.214 83.5644 16.3309 82.3267 16.5415C81.9297 16.6117 81.8362 16.5181 81.8129 16.097C81.7895 15.7461 81.8362 15.3952 81.7428 15.0443C81.4159 13.6174 80.7619 12.3775 79.6877 11.395C79.3607 11.0909 79.0337 10.7634 78.7301 10.4593C77.2822 9.03232 76.5582 7.25445 76.2312 5.28944C76.0678 4.26014 75.9043 3.20746 76.1612 2.15477C76.2079 1.99102 76.2079 1.80387 76.0211 1.7103C75.8576 1.61673 75.6941 1.7103 75.554 1.80387C75.4839 1.85066 75.4372 1.89745 75.3671 1.94423C74.433 2.7396 73.6156 3.62853 73.0784 4.7514C72.7515 5.42979 72.588 6.15498 72.4946 6.90356C72.4245 7.48838 72.6347 8.04981 72.7515 8.61125C73.0084 9.7575 73.5689 10.8102 74.1527 11.8395C74.4096 12.284 74.6899 12.7518 74.8767 13.2431C75.0869 13.8045 75.2037 14.3893 75.1336 14.9975C74.9935 16.3076 74.2928 17.2901 73.3353 18.1322C72.985 18.4363 72.5646 18.6001 72.1443 18.717C70.9999 19.0211 69.8556 19.372 68.7346 19.7463C67.9639 20.0037 67.1698 20.261 66.4225 20.5651C66.1189 20.7054 66.0722 20.6587 65.9788 20.3078C65.8386 19.7463 65.6285 19.2083 65.3716 18.6936C64.6709 17.3602 63.5733 16.4245 62.2655 15.6993C61.3313 15.1847 60.5139 14.5297 59.86 13.7109C58.5989 12.0968 57.8048 10.2488 57.5479 8.19017C57.5246 7.97963 57.5012 7.7691 57.4545 7.58195C57.3844 7.34802 57.221 7.27784 57.0341 7.39481C56.9407 7.44159 56.8706 7.53517 56.8006 7.62874C56.3102 8.19017 55.8898 8.82178 55.5628 9.50018C54.6987 11.3248 54.6287 13.1261 55.6095 14.9274C56.1233 15.8631 56.7305 16.7286 57.4545 17.524C57.8749 17.9685 58.2485 18.4129 58.5989 18.9042C58.9258 19.3486 59.0893 19.8633 59.1594 20.4247C59.3228 21.7347 58.8324 22.8576 58.1084 23.8869C57.8282 24.2846 57.4779 24.5653 57.0341 24.7758C56.7539 24.8928 56.497 25.0332 56.2401 25.1969C54.7688 26.0391 53.2741 26.8578 51.8495 27.7935C51.4291 28.0509 51.4291 28.0509 51.2189 27.583C50.9854 27.1151 50.7285 26.6473 50.4016 26.2496C49.4207 25.0799 48.1596 24.3548 46.7116 23.9103C44.89 23.3722 43.4654 22.2728 42.321 20.799C41.5036 19.7697 40.8731 18.6235 40.4293 17.3836C40.3593 17.1731 40.3359 16.8456 40.0323 16.8456C39.7521 16.8456 39.682 17.1497 39.5652 17.3602C39.1215 18.2024 38.8412 19.1147 38.6778 20.0738C38.5844 20.7288 38.561 21.3838 38.7011 22.0388C38.958 23.3021 39.682 24.3314 40.5695 25.2437C41.3869 26.0624 42.3444 26.7408 43.2552 27.4426C44.563 28.4485 45.1002 29.7352 44.7498 31.3727C44.7265 31.4662 44.7265 31.5598 44.7031 31.6534C44.493 32.5657 44.1894 33.4079 43.4187 34.0161C42.718 34.5775 42.0641 35.2091 41.3869 35.7706C40.5461 36.4723 39.8221 37.2677 39.0047 37.9695C38.7011 38.2268 38.7011 38.2268 38.4209 37.9227C38.1173 37.5952 37.837 37.2443 37.5101 36.9402C36.2022 35.7706 34.6141 35.3495 32.956 35.1857C32.3721 35.1389 31.8116 35.022 31.2745 34.8348C28.869 33.9693 27.0941 32.3552 25.7629 30.203C25.6929 30.086 25.6228 29.9457 25.5294 29.8287C25.3192 29.6182 25.0156 29.665 24.9689 29.9457C24.8755 30.4135 24.6886 30.8346 24.6886 31.3025C24.6653 31.9809 24.6186 32.6827 24.6653 33.3611C24.712 33.9459 24.8521 34.5073 25.0623 35.0454C25.6228 36.3554 26.6737 37.2209 27.8414 37.9461C28.7289 38.5075 29.7098 38.8818 30.6439 39.3497C31.5314 39.7942 32.2087 40.4258 32.5823 41.3615C32.956 42.2504 32.9093 43.2095 32.8159 44.1219C32.7692 44.5897 32.629 45.0576 32.3021 45.4553C31.041 46.9758 29.8966 48.6133 28.799 50.2508C28.3085 50.976 28.3786 50.8591 27.7947 50.3912C26.7905 49.5724 25.6228 49.1748 24.3617 48.9876C23.6143 48.894 22.8437 48.894 22.073 49.1046C21.9095 49.1514 21.6993 49.1514 21.5125 49.1514C20.4148 49.128 19.3639 48.9408 18.3363 48.5431C16.5847 47.8881 15.0901 46.8589 13.829 45.5021C13.7589 45.4319 13.7122 45.3617 13.6421 45.3149C13.4786 45.1979 13.3619 45.2447 13.2918 45.4319C13.2451 45.5254 13.2451 45.6424 13.2217 45.7594C13.1283 46.7419 13.2217 47.701 13.4553 48.6367C13.8056 50.0871 14.623 51.21 15.8841 52.0053C16.5147 52.403 17.1686 52.6837 17.8692 52.9176C18.78 53.2218 19.7376 53.4089 20.6951 53.6428C22.1664 53.9937 23.1005 54.8827 23.5443 56.333C23.7778 57.1284 23.7078 57.9238 23.7311 58.7191C23.7311 58.8829 23.6377 59.0466 23.5676 59.187C22.6335 61.035 21.8394 62.9533 21.022 64.8715C20.8118 65.3393 20.8118 65.3627 20.3448 65.1054C19.6208 64.7077 18.8734 64.4504 18.0794 64.3568C17.0752 64.2399 16.0709 64.3334 15.0901 64.6609C14.4128 64.8949 13.7355 65.1288 13.0349 65.199C11.4935 65.3393 9.97551 65.2224 8.5042 64.6843C7.45327 64.2867 6.44904 63.8188 5.53823 63.1404C5.37475 63.0234 5.21127 62.9299 5.02443 63.0468C4.81425 63.1638 4.86095 63.3743 4.90766 63.5615C5.07114 64.3334 5.23462 65.082 5.53823 65.8306C6.42568 68.0061 8.10718 69.1758 10.3725 69.5033C11.6337 69.6904 12.8948 69.8074 14.1793 69.7606C14.4362 69.7606 14.6931 69.7372 14.9499 69.8308C16.0009 70.1817 16.7949 70.8367 17.2854 71.7958C17.8225 72.8251 18.1261 73.9012 17.7291 75.0942C17.589 75.4919 17.5423 75.9364 17.4488 76.3575C17.262 77.1528 17.0985 77.9716 16.9351 78.7669C16.7949 79.422 16.7015 80.077 16.5614 80.732C16.468 81.1296 16.4913 81.153 16.1177 81.0361C14.623 80.5682 13.175 80.6384 11.7271 81.1998C11.0965 81.4337 10.5127 81.7846 9.92881 82.1355C8.90122 82.7204 7.80358 83.0479 6.63587 83.0947C5.91189 83.118 5.18791 83.0947 4.44058 83.0947C4.25375 83.0947 4.06691 83.0713 3.88008 83.0479C2.87585 82.8139 1.87162 82.6268 0.937458 82.1589C0.797333 82.0888 0.657207 82.0186 0.517083 82.1355C0.353603 82.2759 0.400312 82.4397 0.470374 82.6034C0.937458 83.8198 1.54467 84.9427 2.50219 85.855C3.10939 86.4399 3.83337 86.8843 4.65077 87.1417C5.93525 87.5393 7.24308 87.4692 8.52756 87.2586C9.64856 87.0715 10.7462 86.744 11.9139 86.8609C12.2175 86.8843 12.4978 86.9545 12.778 87.0715C13.6888 87.4691 14.3661 88.1242 14.8565 88.9663C15.3003 89.7149 15.5104 90.4868 15.4637 91.3992C15.3236 93.3408 15.3703 95.2824 15.4637 97.224C15.4871 97.5282 15.4404 97.5749 15.1601 97.5048C14.3194 97.2474 13.5253 97.5282 12.7313 97.7153C11.5402 98.0194 10.5127 98.6744 9.6252 99.54C9.0647 100.078 8.45749 100.522 7.75687 100.873C5.49152 102.02 3.08604 102.183 0.6105 101.762C0.423666 101.739 0.190124 101.575 0.0499995 101.786C-0.0901254 101.996 0.096708 102.207 0.213479 102.394C0.680562 103.189 1.33448 103.844 2.01175 104.452C2.80579 105.154 3.76331 105.622 4.81425 105.809C5.81848 105.973 6.8227 105.763 7.80358 105.505C8.85452 105.224 9.83539 104.78 10.8396 104.336C11.8906 103.891 12.9415 103.868 13.9924 104.312C15.02 104.757 15.7907 105.529 16.3278 106.511C16.468 106.768 16.538 107.049 16.5614 107.353C16.6314 107.915 16.7249 108.499 16.865 109.061C17.0051 109.599 17.0752 110.16 17.2153 110.698C17.4488 111.541 17.589 112.406 17.7758 113.272C17.8692 113.716 17.8926 113.716 17.4722 113.763C16.4913 113.903 15.5572 114.254 14.7164 114.792C13.7822 115.377 13.0816 116.219 12.4744 117.108C11.3301 118.722 9.76533 119.681 7.92035 120.313C6.70593 120.734 5.44481 120.874 4.18368 120.968C4.02021 120.991 3.83337 120.968 3.76331 121.179C3.7166 121.342 3.85673 121.459 3.95014 121.553C4.58071 122.231 5.30468 122.793 6.09873 123.237C7.66345 124.126 9.29824 124.29 11.0031 123.588C12.1007 123.144 13.1283 122.559 14.0625 121.834C14.5062 121.506 14.9499 121.202 15.4404 120.968C16.1877 120.57 17.0051 120.43 17.8225 120.64C18.8267 120.898 19.6675 121.412 20.4148 122.138C20.6484 122.372 20.8118 122.629 20.9286 122.933C21.3723 123.986 21.8161 125.038 22.2598 126.068C22.6568 126.933 23.0772 127.799 23.4742 128.664C23.6377 129.015 23.591 129.062 23.2407 129.202C22.9371 129.319 22.6568 129.436 22.3766 129.577C20.8585 130.372 19.831 131.635 19.177 133.203C18.6866 134.396 17.986 135.448 17.0285 136.314C16.0709 137.179 14.9499 137.834 13.7589 138.349C13.105 138.63 12.4043 138.77 11.7504 139.004C11.2833 139.168 11.26 139.331 11.6337 139.636C11.6804 139.682 11.7271 139.706 11.7738 139.729C12.9415 140.501 14.2493 140.946 15.6272 141.156C15.8841 141.203 16.141 141.18 16.3979 141.133C17.4956 140.946 18.4531 140.478 19.3405 139.846C20.3681 139.121 21.1855 138.209 22.0263 137.296C22.3532 136.945 22.6802 136.618 23.0772 136.384C23.8012 135.963 24.5952 135.706 25.436 135.823C25.9731 135.916 26.5336 136.033 27.0474 136.29C27.5612 136.524 28.075 136.735 28.4253 137.226C29.1026 138.209 29.7798 139.191 30.4805 140.174C31.0643 140.969 31.6715 141.764 32.2787 142.536C32.4422 142.747 32.4422 142.887 32.1853 143.004C31.7182 143.238 31.3212 143.589 30.9475 143.963C29.8733 144.969 29.2193 146.232 28.9624 147.659C28.6822 149.18 28.1217 150.584 27.1408 151.753C26.0198 153.11 24.6886 154.209 23.0538 154.911C22.9604 154.958 22.8437 155.005 22.7502 155.075C22.4233 155.309 22.47 155.519 22.8437 155.66C24.0347 156.128 25.2491 156.408 26.557 156.338C27.7013 156.268 28.7055 155.917 29.5696 155.169C30.3637 154.49 31.041 153.742 31.6015 152.853C32.0218 152.151 32.4889 151.472 32.9093 150.747C33.2363 150.209 33.68 149.835 34.2171 149.554C35.5016 148.852 36.8094 149.04 38.1173 149.461C38.4676 149.578 38.7478 149.765 39.0047 150.022C40.476 151.379 41.924 152.759 43.4654 154.046C43.9558 154.467 43.9558 154.467 43.5121 154.911C43.4654 154.958 43.442 154.981 43.3953 155.028C42.2743 156.245 41.597 157.672 41.597 159.356C41.597 160.479 41.527 161.578 41.2 162.678C40.6862 164.456 39.7287 165.929 38.4209 167.216C38.0005 167.637 37.5801 168.082 37.0663 168.386C36.9496 168.456 36.8094 168.549 36.8561 168.737C36.9029 168.924 37.043 168.947 37.1831 168.994C37.2298 168.994 37.2532 169.017 37.2999 169.017C38.888 169.415 40.406 169.228 41.8773 168.573C43.2085 167.965 44.0025 166.842 44.6564 165.602C45.2169 164.526 45.5439 163.356 45.9876 162.21C46.408 161.134 47.1553 160.409 48.2296 160.011C49.0704 159.683 49.9111 159.8 50.7752 159.8C51.0788 159.8 51.3591 159.894 51.616 160.058C52.2232 160.432 52.8304 160.806 53.4376 161.157C54.6754 161.859 55.9131 162.561 57.1509 163.263C57.5713 163.496 57.5713 163.52 57.3144 163.871C56.5904 164.877 56.2868 166.023 56.1 167.216C56.0299 167.614 56.0533 168.011 56.1467 168.386C56.3102 168.947 56.4036 169.532 56.4503 170.093C56.5904 171.427 56.6371 172.784 56.2167 174.094C55.7029 175.731 54.9089 177.228 53.7412 178.491C53.6011 178.632 53.4843 178.772 53.5544 178.983C53.6478 179.24 53.8813 179.17 54.0915 179.17C54.1382 179.17 54.1616 179.17 54.2083 179.17C54.9323 178.983 55.6796 178.983 56.4036 178.772C57.9449 178.304 59.1827 177.439 59.93 175.965C60.6073 174.655 60.8876 173.251 61.0043 171.824C61.051 171.193 61.1678 170.561 61.3546 169.953C61.6582 169.017 62.2888 168.315 63.1996 167.871C64.4374 167.263 65.7219 167.076 67.0297 167.637C67.38 167.777 67.7303 167.894 68.0807 168.011C69.5987 168.573 71.1634 169.017 72.7748 169.485C72.5179 170.047 72.3077 170.538 72.2143 171.076C72.0041 172.479 72.0509 173.883 72.6347 175.193C73.1251 176.269 73.4988 177.369 73.5922 178.562C73.6623 179.497 73.6156 180.41 73.4521 181.299C73.2419 182.538 72.8449 183.731 72.191 184.808C72.1209 184.925 72.0508 185.041 72.0041 185.158C71.9341 185.369 72.0275 185.533 72.261 185.556C72.3778 185.58 72.4946 185.556 72.588 185.533C73.8024 185.158 74.9701 184.644 75.9743 183.825C76.5348 183.381 76.9552 182.796 77.2588 182.164C77.7726 181.158 77.866 180.059 77.9828 178.959C78.0062 178.608 78.0295 178.234 77.9595 177.907C77.7493 177.041 77.796 176.152 77.7726 175.287C77.7726 174.398 78.0996 173.649 78.7068 173.017C79.3373 172.316 80.1547 171.895 81.0422 171.614C81.4159 171.497 81.8129 171.497 82.2099 171.52C82.8872 171.567 83.5411 171.754 84.195 171.801C85.3394 171.871 86.4837 172.129 87.6514 172.082C87.8616 172.082 88.0484 172.129 88.2586 172.175C88.679 172.245 88.7257 172.316 88.7257 172.713C88.7257 173.181 88.7491 173.649 88.7257 174.117C88.679 175.216 89.076 176.199 89.5898 177.158C89.9168 177.79 90.4072 178.304 90.7809 178.913C91.5516 180.223 91.9719 181.65 91.9953 183.17C92.0187 184.129 92.042 185.065 91.8085 186.024C91.6683 186.562 91.5516 187.1 91.4114 187.638C91.318 187.966 91.4348 188.059 91.7384 187.966C91.8318 187.942 91.9252 187.919 91.9953 187.872C92.7193 187.521 93.3965 187.077 94.0038 186.562C94.5876 186.071 95.078 185.463 95.4517 184.784C96.2691 183.31 96.129 181.743 95.8721 180.176C95.7086 179.24 95.3583 178.351 95.1248 177.415C94.7511 176.105 94.9146 174.866 95.7553 173.743C96.1523 173.228 96.6194 172.807 97.1566 172.456C97.3901 172.292 97.647 172.222 97.9506 172.199C99.0249 172.105 100.099 171.988 101.197 171.941C101.874 171.895 102.551 171.754 103.252 171.731C103.345 171.731 103.439 171.707 103.532 171.684C103.929 171.544 104.326 171.544 104.747 171.52C105.144 171.52 105.144 171.52 105.167 171.895C105.26 172.994 105.494 174.047 106.055 175.006C106.545 175.871 107.246 176.573 107.993 177.252C109.815 178.866 110.585 180.995 110.865 183.334C110.959 184.153 111.006 184.971 110.889 185.79C110.865 185.977 110.865 186.188 111.052 186.281C111.239 186.375 111.379 186.235 111.496 186.141C112.15 185.65 112.734 185.065 113.224 184.41C113.808 183.638 114.275 182.796 114.392 181.837C114.532 180.831 114.415 179.825 114.088 178.842C113.715 177.673 113.084 176.62 112.5 175.567C111.893 174.491 111.613 173.392 112.057 172.199C112.454 171.076 113.154 170.21 114.158 169.579C114.299 169.485 114.462 169.462 114.625 169.415C115.279 169.228 115.957 169.041 116.611 168.83C117.942 168.386 119.273 167.941 120.581 167.497C120.954 167.38 120.978 167.38 121.071 167.754C121.165 168.199 121.281 168.62 121.492 169.041C122.169 170.397 123.15 171.474 124.504 172.199C126.303 173.158 127.61 174.561 128.451 176.409C129.035 177.626 129.409 178.912 129.549 180.269C129.572 180.433 129.572 180.573 129.736 180.644C129.922 180.714 130.063 180.62 130.179 180.48C130.226 180.433 130.249 180.386 130.273 180.339C131.043 179.38 131.651 178.351 131.954 177.135C132.258 175.988 132.188 174.889 131.744 173.789C131.254 172.55 130.46 171.52 129.595 170.538C129.105 169.976 128.545 169.462 128.241 168.76C127.657 167.497 127.774 166.233 128.381 165.04C128.685 164.432 128.988 163.824 129.619 163.473C131.511 162.444 133.379 161.415 135.2 160.245C135.574 160.011 135.574 160.034 135.784 160.409C135.808 160.455 135.831 160.502 135.854 160.549C136.742 162.35 138.213 163.45 140.105 164.035C141.366 164.432 142.534 164.994 143.515 165.906C144.963 167.263 146.013 168.877 146.644 170.748C146.667 170.819 146.691 170.889 146.737 170.959C146.901 171.24 147.181 171.24 147.368 170.982C147.485 170.795 147.578 170.585 147.648 170.374C148.209 169.017 148.629 167.66 148.349 166.14C148.209 165.345 147.882 164.643 147.438 163.988C146.737 162.958 145.827 162.14 144.822 161.391C144.285 160.993 143.725 160.619 143.258 160.128C142.721 159.566 142.37 158.911 142.277 158.163C142.137 157.087 142.347 156.034 142.814 155.052C142.977 154.701 143.211 154.42 143.491 154.186C144.822 153.087 146.154 151.94 147.391 150.724C147.648 150.467 147.905 150.233 148.162 149.999C148.326 149.835 148.419 149.858 148.559 150.022C148.909 150.467 149.283 150.864 149.727 151.239C150.824 152.174 152.109 152.666 153.557 152.782C154.468 152.853 155.355 153.016 156.219 153.367C158.158 154.163 159.676 155.496 160.89 157.157C161.124 157.484 161.31 157.812 161.521 158.14C161.731 158.444 161.941 158.42 162.104 158.093C162.175 157.952 162.221 157.812 162.268 157.672C162.548 156.432 162.665 155.192 162.361 153.905C162.104 152.829 161.591 151.964 160.82 151.239C160.026 150.513 159.139 149.929 158.181 149.484C157.527 149.18 156.85 148.876 156.219 148.525C155.192 147.94 154.514 147.098 154.328 145.905C154.234 145.273 154.281 144.642 154.328 144.01C154.374 143.402 154.608 142.887 154.981 142.419C156.196 140.922 157.27 139.331 158.391 137.764C158.788 137.203 158.788 137.203 159.325 137.624C160.633 138.676 162.151 139.144 163.809 139.074C164.673 139.027 165.514 139.027 166.378 138.981C167.056 138.957 167.686 139.121 168.293 139.308C170.208 139.893 171.82 140.969 173.198 142.443C173.268 142.513 173.338 142.607 173.431 142.677C173.688 142.84 173.898 142.77 173.968 142.443C173.992 142.349 173.992 142.256 173.992 142.162C174.062 140.992 173.898 139.846 173.501 138.747C173.174 137.881 172.684 137.109 171.96 136.524C170.746 135.565 169.321 135.074 167.85 134.7C167.242 134.559 166.612 134.466 166.005 134.232C165.234 133.928 164.58 133.53 164.136 132.805C163.599 131.916 163.412 130.933 163.412 129.904C163.412 129.343 163.576 128.851 163.833 128.36C164.627 126.816 165.304 125.249 165.958 123.658C166.075 123.401 166.168 123.144 166.262 122.886C166.332 122.699 166.448 122.676 166.612 122.769C166.682 122.816 166.775 122.863 166.845 122.91C168.48 123.775 170.185 123.962 171.937 123.377C173.198 122.956 174.459 122.769 175.79 122.793C177.145 122.816 178.406 123.167 179.62 123.728C180.344 124.056 181.021 124.43 181.652 124.898C181.792 124.992 181.956 125.085 182.119 125.015C182.329 124.921 182.236 124.734 182.236 124.571C182.189 123.494 181.815 122.535 181.325 121.6C180.905 120.781 180.297 120.079 179.527 119.564C178.429 118.839 177.191 118.605 175.93 118.442C174.996 118.325 174.062 118.348 173.128 118.348C172.217 118.348 171.376 118.02 170.746 117.389C169.508 116.126 168.994 114.652 169.484 112.874C169.695 112.102 169.905 111.33 170.045 110.535C170.208 109.552 170.512 108.616 170.559 107.611C170.559 107.494 170.629 107.4 170.675 107.283C170.769 107.049 170.956 106.956 171.166 107.073C171.633 107.283 172.147 107.236 172.661 107.33C173.361 107.447 174.038 107.283 174.716 107.143C175.37 107.002 176 106.722 176.561 106.347C177.869 105.505 179.316 105.131 180.811 104.92C181.839 104.78 182.866 105.037 183.871 105.201C184.665 105.341 185.459 105.575 186.206 105.926C186.369 105.996 186.533 106.067 186.673 105.926C186.837 105.786 186.72 105.622 186.673 105.458C186.299 104.499 185.832 103.634 185.202 102.838C183.964 101.248 182.282 100.663 180.367 100.686C179.2 100.71 178.032 100.944 176.888 101.201C175.58 101.482 174.365 101.318 173.314 100.406C172.614 99.7973 172.193 99.0253 171.82 98.1832C171.703 97.9258 171.656 97.6919 171.656 97.4112C171.68 96.3819 171.61 95.3526 171.726 94.3233C171.75 94.0426 171.726 93.7619 171.703 93.4812C171.633 92.6624 171.68 91.8437 171.656 91.0015C171.656 90.7208 171.796 90.6038 172.077 90.6038C172.474 90.6038 172.871 90.6038 173.244 90.6038C173.455 90.6038 173.665 90.6038 173.852 90.557C174.996 90.2997 176.047 89.8318 176.934 89.0599C177.285 88.7792 177.612 88.4517 177.939 88.1709C179.176 87.165 180.601 86.5568 182.189 86.2995C183.52 86.089 184.828 86.0188 186.136 86.2995C186.253 86.3229 186.393 86.3229 186.533 86.3229C186.696 86.3229 186.883 86.3697 187 86.2059C186.977 86.0188 186.837 85.8784 186.743 85.7147ZM15.9308 104.242C15.744 104.312 15.6739 104.148 15.5805 104.078C15.0667 103.727 14.5763 103.353 13.9924 103.166C12.778 102.745 11.5636 102.792 10.3959 103.283C9.39166 103.681 8.41079 104.148 7.35985 104.452C5.44481 105.014 3.69325 104.757 2.24529 103.283C2.19858 103.236 2.17523 103.189 2.12852 103.166C2.12852 103.142 2.12852 103.119 2.10516 103.096C2.17523 103.002 2.24529 102.979 2.31535 103.002C3.31958 103.072 4.32381 102.955 5.32804 102.745C6.37898 102.534 7.3832 102.207 8.31737 101.669C9.08806 101.224 9.76533 100.686 10.4192 100.078C11.4702 99.1189 12.6846 98.5808 14.0858 98.4873C14.4595 98.4639 14.8332 98.5107 15.2068 98.5808C15.3937 98.6042 15.4637 98.6978 15.4637 98.8849C15.4404 100.148 15.7907 101.365 15.7673 102.628C15.7673 102.885 15.8374 103.142 15.9075 103.4C15.9542 103.681 15.9775 103.961 15.9308 104.242ZM16.141 82.7438C15.9075 83.5391 16.0242 84.3813 15.7673 85.1766C15.7206 85.3404 15.7206 85.5509 15.7206 85.7381C15.744 86.4866 15.5338 87.2118 15.4637 87.937C15.347 87.9838 15.3003 87.9136 15.2536 87.8668C14.4362 86.6504 13.2451 85.9954 11.8438 85.6913C11.4235 85.5977 10.9797 85.6211 10.5594 85.7147C10.2558 85.7849 9.92881 85.8082 9.6252 85.8784C9.04135 86.0188 8.43414 86.0422 7.87364 86.1825C6.776 86.4399 5.67835 86.3463 4.60406 86.0188C3.73996 85.7615 3.08604 85.1766 2.52554 84.4515C2.36206 84.2409 2.22194 83.9836 1.98839 83.6561C2.82914 83.8666 3.55312 83.9602 4.30046 84.0538C5.16456 84.1941 6.00531 84.1707 6.86941 84.0538C7.82693 83.9134 8.7611 83.6795 9.67191 83.3052C10.1623 83.0947 10.6294 82.8139 11.0965 82.5332C11.9139 82.042 12.8247 81.8782 13.7589 81.7379C14.4362 81.6443 15.0901 81.8782 15.744 82.042C16.1644 82.1589 16.2578 82.3461 16.141 82.7438ZM167.499 67.8892C169.344 68.9419 171.143 68.7781 172.847 67.5851C173.478 67.1406 174.109 66.7195 174.739 66.2985C175.627 65.7136 176.607 65.3627 177.635 65.1522C178.289 65.0118 178.943 65.199 179.55 65.4095C180.04 65.5733 180.508 65.8072 180.975 66.1581C180.718 66.2985 180.484 66.392 180.251 66.4388C177.962 66.8833 176 67.8892 174.389 69.5735C173.992 69.9946 173.665 70.4858 173.338 70.9537C172.544 72.0765 171.469 72.7783 170.185 73.1526C169.858 73.2462 169.484 73.2696 169.134 73.293C168.877 73.3164 168.784 73.176 168.714 72.9421C168.41 71.866 168.083 70.7899 167.756 69.7372C167.569 69.1056 167.359 68.4974 167.126 67.8658C167.312 67.7722 167.406 67.8424 167.499 67.8892ZM160.096 52.9176C160.423 53.0346 160.797 53.1282 161.147 53.1984C162.642 53.4791 163.973 53.1048 165.094 52.0989C165.794 51.4673 166.448 50.7421 167.102 50.0637C167.78 49.3619 168.55 48.7537 169.461 48.3794C170.325 48.0051 171.213 47.8881 172.147 48.1455C172.544 48.2624 172.941 48.3092 173.338 48.5431C173.198 48.7303 172.964 48.7771 172.777 48.8473C171.283 49.4555 169.975 50.3444 168.854 51.4673C167.943 52.3796 167.359 53.5025 166.822 54.6721C166.238 55.9587 165.374 57.0348 164.043 57.643C162.805 58.1811 162.945 58.1577 162.408 57.1752C161.661 55.8418 160.937 54.485 160.119 53.1984C160.073 53.1282 160.003 53.058 160.096 52.9176ZM152.226 39.8643C153.23 39.5836 154.071 39.069 154.725 38.2736C155.355 37.4782 155.799 36.5659 156.359 35.7238C156.92 34.8582 157.527 34.0395 158.415 33.478C159.092 33.0336 159.839 32.7295 160.68 32.7762C161.147 32.7996 161.637 32.7061 162.104 32.8464C162.081 33.0804 161.894 33.1271 161.778 33.2207C160.213 34.3436 158.882 35.677 157.971 37.4081C157.62 38.0865 157.364 38.8116 157.223 39.5602C156.967 41.0106 156.476 42.3674 155.355 43.4201C155.005 43.7476 154.608 44.0283 154.164 44.2388C154.001 44.3324 153.86 44.3324 153.72 44.1687C152.553 42.8353 151.408 41.4785 150.194 40.1918C150.171 40.1684 150.171 40.1217 150.147 40.0047C150.871 40.0983 151.548 40.0515 152.226 39.8643ZM140.315 28.4251C141.343 27.7234 141.903 26.7175 142.3 25.5712C142.627 24.5887 142.954 23.5828 143.445 22.6705C144.005 21.6412 144.682 20.7522 145.827 20.3312C146.481 20.0738 147.181 19.9101 147.882 19.9335C147.952 20.1206 147.812 20.1908 147.718 20.261C146.481 21.571 145.523 23.0447 144.963 24.7524C144.636 25.7817 144.542 26.8344 144.542 27.9105C144.519 29.0801 144.355 30.203 143.748 31.2557C143.444 31.7937 143.047 32.2148 142.604 32.6359C142.394 32.8464 142.183 32.8464 141.973 32.6593C140.922 31.7937 139.801 30.9984 138.704 30.203C138.33 29.9223 137.956 29.665 137.466 29.3141C138.61 29.2907 139.498 28.9866 140.315 28.4251ZM123.757 21.3371C125.298 20.7522 126.373 19.6761 126.816 18.0854C127.027 17.3368 127.12 16.5415 127.213 15.7695C127.33 14.7402 127.564 13.7577 127.961 12.7986C128.498 11.512 129.502 10.7868 130.787 10.3657C130.997 10.2955 131.207 10.2488 131.511 10.1552C131.324 10.5061 131.16 10.7868 130.997 11.0675C130.436 12.0032 130.039 13.0091 129.736 14.0618C129.409 15.2315 129.362 16.4713 129.479 17.6643C129.525 18.1088 129.642 18.5533 129.759 18.9744C130.156 20.6821 129.829 22.226 128.895 23.6764C128.638 24.074 128.591 24.074 128.171 23.8635C126.583 23.0681 124.971 22.343 123.29 21.6412C123.43 21.4774 123.593 21.4072 123.757 21.3371ZM108.086 16.5649C109.791 15.3484 110.562 13.7109 110.328 11.6289C110.258 10.9505 110.165 10.2488 110.118 9.57036C110.095 8.72821 110.212 7.93285 110.375 7.13749C110.632 5.94444 111.403 5.12569 112.407 4.49407C112.64 4.35371 112.874 4.18996 113.178 4.09639C113.154 4.54086 112.944 4.86836 112.827 5.24265C112.337 6.7632 112.29 8.33053 112.383 9.89786C112.43 10.6464 112.664 11.3716 112.944 12.05C113.107 12.4477 113.294 12.8454 113.458 13.2431C114.042 14.67 114.112 16.097 113.598 17.5474C113.551 17.6643 113.504 17.7813 113.434 17.8983C113.248 18.2492 113.201 18.2492 112.804 18.1556C111.473 17.8281 110.141 17.4538 108.764 17.2433C108.39 17.1731 108.016 17.0093 107.526 17.0327C107.713 16.752 107.923 16.6818 108.086 16.5649ZM92.3923 14.2958C92.9061 13.5238 93.1163 12.6582 93.163 11.7459C93.1864 11.2547 93.0462 10.74 92.9295 10.2722C92.6959 9.38322 92.369 8.54107 92.1821 7.62874C92.0186 6.85677 91.9486 6.06141 92.0187 5.24265C92.1121 3.81567 92.9295 2.87995 93.9337 2.01441C93.9804 1.96763 94.0271 1.94423 94.0972 1.99102C94.1906 2.08459 94.1439 2.20156 94.1205 2.29513C93.887 3.25424 93.9103 4.23675 94.0038 5.19586C94.2139 7.02052 94.681 8.775 95.8487 10.2488C96.3859 10.9272 96.8296 11.6523 97.0632 12.4945C97.3201 13.4302 97.32 14.3659 97.1799 15.325C97.1566 15.559 97.0164 15.6993 96.7595 15.6993C96.6661 15.6993 96.5727 15.6993 96.4793 15.6993C94.9379 15.6993 93.4199 15.6993 91.8785 15.6993C91.6917 15.6993 91.5049 15.7461 91.248 15.6058C91.6683 15.1379 92.0887 14.7636 92.3923 14.2958ZM76.0444 15.7929C76.3247 14.7636 76.2546 13.7577 75.8109 12.7986C75.3204 11.7459 74.7599 10.74 74.2695 9.68733C73.8725 8.82178 73.5922 7.90946 73.6156 6.92695C73.6389 5.7339 74.1527 4.77479 74.8767 3.93264C75.0168 3.93264 75.0402 4.00282 75.0402 4.09639C75.0869 5.03211 75.2737 5.94444 75.5306 6.85677C75.9743 8.4241 76.6983 9.85108 77.8193 11.0441C78.3331 11.5822 78.917 12.05 79.4074 12.6115C80.0613 13.36 80.5051 14.2022 80.6685 15.1847C80.7386 15.559 80.8554 15.9099 80.8554 16.2842C80.832 16.7286 80.7853 16.7754 80.3416 16.8456C79.711 16.9392 79.0571 17.0561 78.4265 17.1965C77.3289 17.4304 76.2079 17.6643 74.9935 17.9217C75.5073 17.1731 75.8342 16.5181 76.0444 15.7929ZM58.9492 17.7111C58.4587 17.1029 57.9216 16.5181 57.4312 15.9099C56.7539 15.0677 56.2167 14.132 55.9832 13.0793C55.7029 11.8863 56.0065 10.7634 56.6838 9.73411C57.1275 10.9973 57.6413 12.2138 58.342 13.3132C59.2528 14.7402 60.4672 15.8631 61.9619 16.6818C63.1529 17.3368 64.1104 18.2492 64.6242 19.5124C64.7644 19.8165 64.8578 20.144 64.9512 20.4715C65.0446 20.8692 64.9512 21.0797 64.5775 21.2435C62.9661 21.9219 61.3313 22.5769 59.7666 23.3489C59.6031 23.2319 59.6965 23.1383 59.7432 23.0447C60.3037 21.8049 60.3271 20.5417 59.93 19.2785C59.7199 18.6936 59.3462 18.2024 58.9492 17.7111ZM43.7223 26.4367C43.045 25.9221 42.3677 25.4308 41.7372 24.8928C41.0599 24.308 40.4994 23.6062 40.0557 22.8108C39.7054 22.1792 39.6353 21.454 39.6353 20.7522C39.6353 20.3545 39.7287 19.9803 39.7754 19.5826C39.7988 19.4656 39.7988 19.3486 39.9155 19.3019C40.0557 19.2551 40.1024 19.3954 40.1491 19.489C40.4527 19.9803 40.7563 20.4715 41.0832 20.9628C42.2977 22.6705 43.839 24.0039 45.8241 24.729C46.5481 24.9864 47.2721 25.1735 47.9494 25.5712C49.0237 26.2028 49.8177 27.0683 50.3081 28.1912C50.4716 28.5655 50.4716 28.6123 50.1213 28.8462C48.6266 29.8521 47.1553 30.9282 45.6607 32.0043C45.7074 31.5598 45.8475 31.1621 45.8475 30.7411C45.9176 28.893 45.1469 27.5128 43.7223 26.4367ZM31.4146 38.6245C30.6439 38.18 29.8032 37.8291 29.0091 37.4315C28.1918 37.0104 27.4444 36.5191 26.7905 35.8407C25.7162 34.7413 25.436 33.4079 25.6228 31.9107C26.3234 32.7061 27.0474 33.4079 27.8414 34.0629C28.9858 34.9752 30.2469 35.6302 31.6715 35.9811C32.3021 36.1214 32.956 36.215 33.6099 36.2852C35.2681 36.449 36.646 37.1741 37.6268 38.5543C37.8837 38.9286 37.8837 38.9988 37.6035 39.2795C36.4124 40.4959 35.2681 41.7592 34.1471 43.0224C34.1004 43.0692 34.0303 43.116 33.9135 43.2329C33.9602 42.7417 33.7967 42.344 33.75 41.9463C33.5165 40.4492 32.6991 39.3497 31.4146 38.6245ZM20.8585 52.6135C19.7376 52.3328 18.5932 52.1223 17.5189 51.7012C16.8883 51.4673 16.3045 51.1398 15.7673 50.7187C14.9967 50.1339 14.5996 49.2683 14.3427 48.356C14.2727 48.0519 14.1793 47.7478 14.1092 47.4437C14.2727 47.3033 14.3194 47.4671 14.3894 47.5139C15.6739 48.5431 17.0985 49.3151 18.6866 49.7596C19.3172 49.9233 19.9477 50.0871 20.6017 50.0637C21.4891 50.0403 22.3999 50.0169 23.2874 49.9701C24.8288 49.8766 26.1833 50.3678 27.3277 51.4205C27.5378 51.6076 27.6079 51.7714 27.4211 52.0521C26.9306 52.8007 26.4869 53.596 26.0198 54.3446C25.5994 55.0464 25.1791 55.7716 24.8054 56.4968C24.7587 56.567 24.7587 56.6839 24.6186 56.7073C24.385 56.0757 24.2449 55.3739 23.8712 54.8125C23.1706 53.713 22.1897 52.941 20.8585 52.6135ZM17.5656 70.5092C16.8183 69.5735 15.8841 68.9887 14.6697 68.7547C13.6421 68.5442 12.6145 68.6144 11.6103 68.591C10.4426 68.5676 9.34495 68.3103 8.34072 67.7722C7.26643 67.1874 6.65922 66.2049 6.2622 64.965C6.93947 65.2458 7.47662 65.5031 8.06047 65.6902C8.97129 65.9943 9.90545 66.2517 10.8863 66.2985C11.6103 66.3219 12.3343 66.2985 13.0583 66.2751C13.7822 66.2283 14.4595 65.9476 15.1601 65.7604C16.1644 65.5031 17.1452 65.2224 18.2195 65.5265C18.8034 65.6902 19.4106 65.854 19.9477 66.1581C20.298 66.3452 20.298 66.392 20.1579 66.7897C19.7142 68.1231 19.2471 69.4331 18.8267 70.7665C18.71 71.1408 18.6166 71.5151 18.4297 71.983C18.1261 71.3747 17.8926 70.9069 17.5656 70.5092ZM18.4998 119.752C16.8883 119.26 15.417 119.471 14.0391 120.407C13.3385 120.898 12.6612 121.412 11.9139 121.857C10.6995 122.605 9.41502 122.98 7.96706 122.816C7.3365 122.746 6.30891 122.278 5.88854 121.834C5.91189 121.74 5.98195 121.717 6.05202 121.717C8.5042 121.366 10.6061 120.336 12.3576 118.605C12.9415 118.044 13.3385 117.342 13.8523 116.734C14.6697 115.751 15.6973 115.096 16.9351 114.862C17.1219 114.816 17.3087 114.769 17.4722 114.745C17.9159 114.652 17.986 114.675 18.1261 115.12C18.4064 115.962 18.6399 116.827 18.8968 117.693C19.1771 118.558 19.4573 119.424 19.7609 120.383C19.3405 120.126 18.9669 119.892 18.4998 119.752ZM25.2958 134.723C23.8012 134.63 22.54 135.121 21.4891 136.173C20.7885 136.875 20.1112 137.6 19.4106 138.302C18.7567 138.957 17.9626 139.425 17.1219 139.799C16.7716 139.963 16.3746 139.94 16.0242 139.963C15.2068 139.987 14.3894 139.94 13.6655 139.542C13.7122 139.331 13.8757 139.308 14.0158 139.261C15.4871 138.63 16.8416 137.788 17.9626 136.665C18.8267 135.799 19.4807 134.77 19.9477 133.647C20.5783 132.15 21.5592 130.957 23.0772 130.302C23.1706 130.255 23.2874 130.208 23.3808 130.185C23.988 130.021 24.0114 130.044 24.315 130.583C25.0857 131.963 25.8096 133.39 26.6737 134.723C26.7438 134.84 26.7905 134.957 26.8839 135.144C26.3001 134.98 25.8096 134.746 25.2958 134.723ZM35.8753 148.057C35.1046 148.034 34.404 148.174 33.7033 148.502C32.8392 148.923 32.1853 149.578 31.6715 150.373C31.111 151.239 30.6439 152.151 30.0134 152.97C29.3595 153.812 28.6355 154.56 27.6313 154.958C26.8372 155.262 26.0198 155.403 25.1557 155.192C25.0389 155.169 24.8988 155.169 24.8054 154.981C25.109 154.748 25.436 154.49 25.7629 154.256C27.2109 153.133 28.3552 151.777 29.1026 150.116C29.4295 149.414 29.6164 148.689 29.7798 147.94C30.1068 146.326 30.8308 144.946 32.2554 144.034C32.3721 143.963 32.5123 143.893 32.6524 143.823C32.8859 143.683 33.0728 143.753 33.2362 143.94C33.4464 144.174 33.68 144.408 33.8668 144.642C34.7543 145.741 35.7351 146.794 36.6927 147.823C36.7394 147.87 36.7394 147.917 36.8094 148.01C36.5058 148.127 36.1789 148.08 35.8753 148.057ZM48.5099 158.818C47.3655 159.005 46.4547 159.543 45.6607 160.385C45.1702 160.9 44.9133 161.555 44.6564 162.186C44.3061 163.029 44.0959 163.918 43.7223 164.76C43.3953 165.508 42.9516 166.187 42.4144 166.772C41.7839 167.473 40.9898 167.824 40.079 167.965C39.8688 167.988 39.6353 168.058 39.4251 168.082C39.2383 168.105 39.0748 168.199 38.8412 168.082C39.0281 167.871 39.2149 167.66 39.4017 167.45C40.5928 166.117 41.5036 164.643 41.9941 162.912C42.2042 162.21 42.3444 161.508 42.3444 160.76C42.321 159.941 42.321 159.122 42.5312 158.303C42.8115 157.157 43.3486 156.198 44.2361 155.403C44.563 155.098 44.5864 155.098 44.9367 155.379C46.0343 156.198 47.1086 157.017 48.2063 157.835C48.5099 158.069 48.8368 158.28 49.1871 158.514C48.9536 158.724 48.7434 158.771 48.5099 158.818ZM62.8493 166.772C61.5181 167.356 60.6073 168.339 60.1402 169.672C59.9534 170.21 59.8366 170.772 59.7899 171.357C59.6965 172.713 59.463 174.07 58.8791 175.31C58.3653 176.409 57.5012 177.158 56.3569 177.556C56.1 177.649 55.8431 177.86 55.5395 177.719C55.4928 177.556 55.5862 177.462 55.6329 177.392C56.3335 176.292 56.8473 175.123 57.1509 173.86C57.4311 172.69 57.6413 171.497 57.3844 170.257C57.2443 169.579 57.1042 168.9 57.0341 168.222C56.9174 166.865 57.1743 165.625 57.9216 164.479C58.2485 163.964 58.342 163.941 58.8791 164.222C60.3271 164.923 61.775 165.602 63.2463 166.233C63.3398 166.28 63.4332 166.35 63.5733 166.421C63.3631 166.655 63.0829 166.678 62.8493 166.772ZM78.917 171.357C77.866 172.058 77.0953 172.971 76.7217 174.164C76.5582 174.655 76.5115 175.193 76.5582 175.708C76.6516 177.228 76.8151 178.725 76.6283 180.246C76.4648 181.462 75.9276 182.492 74.9234 183.217C74.5731 183.474 74.2228 183.755 73.8024 183.848C73.6856 183.661 73.8024 183.544 73.8258 183.427C74.2695 182.071 74.6198 180.69 74.5965 179.263C74.5731 177.93 74.3162 176.643 73.7323 175.427C73.2186 174.374 72.8682 173.275 72.9617 172.082C73.0084 171.403 73.1952 170.772 73.4521 170.14C73.5455 169.883 73.7324 169.766 74.036 169.836C74.503 169.953 74.9701 170.047 75.4606 170.164C76.3247 170.351 77.1888 170.585 78.0762 170.748C78.4032 170.819 78.7301 170.842 79.0571 170.959C79.1272 170.982 79.1972 171.006 79.2206 171.099C79.1739 171.263 79.0337 171.286 78.917 171.357ZM94.3541 173.789C93.5834 175.123 93.49 176.503 94.0271 177.93C94.3774 178.889 94.681 179.895 94.8212 180.901C95.1014 182.702 94.7744 184.363 93.3265 185.65C93.2331 185.743 93.1397 185.837 93.0229 185.907C92.9061 186.001 92.7893 185.93 92.7893 185.79C92.7893 185.533 92.7893 185.275 92.8127 185.018C93.0229 183.076 92.8127 181.182 92.042 179.38C91.7851 178.749 91.4114 178.187 91.0144 177.649C90.5707 177.018 90.127 176.409 89.8934 175.661C89.6132 174.819 89.473 173.953 89.5665 173.064C89.6365 172.409 89.8 172.269 90.4539 172.269C91.9486 172.269 93.4433 172.269 94.9379 172.269C95.1014 172.269 95.2649 172.222 95.4984 172.362C95.078 172.83 94.6577 173.251 94.3541 173.789ZM110.912 171.965C110.562 173.134 110.562 174.281 111.122 175.404C111.566 176.269 112.033 177.111 112.454 177.977C112.967 179.029 113.341 180.129 113.271 181.322C113.201 182.421 112.664 183.31 111.986 184.129C111.94 184.129 111.893 184.106 111.846 184.106C111.8 183.825 111.73 183.521 111.73 183.24C111.73 182.305 111.449 181.439 111.169 180.573C110.632 178.889 109.674 177.486 108.367 176.339C107.759 175.801 107.199 175.216 106.802 174.515C106.358 173.719 106.078 172.877 106.101 171.965C106.101 171.38 106.171 171.286 106.732 171.169C107.292 171.052 107.876 170.959 108.437 170.842C109.488 170.631 110.515 170.444 111.543 170.164C111.613 170.14 111.683 170.14 111.823 170.234C111.473 170.772 111.099 171.333 110.912 171.965ZM128.218 170.631C129.058 171.637 129.946 172.596 130.506 173.789C130.81 174.444 131.067 175.123 131.02 175.825C130.973 176.503 130.833 177.181 130.506 177.813C130.436 177.953 130.366 178.117 130.296 178.234C130.086 178.211 130.109 178.047 130.063 177.953C129.689 176.807 129.222 175.684 128.568 174.655C127.797 173.462 126.84 172.456 125.625 171.707C124.995 171.31 124.317 170.982 123.757 170.491C122.799 169.649 122.192 168.62 121.959 167.356C121.912 167.076 121.982 166.912 122.262 166.795C123.85 166.163 125.415 165.462 126.98 164.736C127.05 164.713 127.12 164.69 127.213 164.76C127.073 165.204 126.91 165.649 126.77 166.117C126.419 167.263 126.723 168.292 127.213 169.298C127.47 169.813 127.867 170.21 128.218 170.631ZM143.024 161.485C143.655 161.976 144.309 162.467 144.939 162.958C145.616 163.497 146.154 164.152 146.644 164.877C147.158 165.672 147.298 166.538 147.228 167.45C147.181 167.918 147.181 168.386 146.948 168.807C146.761 168.83 146.761 168.69 146.714 168.596C145.78 166.795 144.495 165.321 142.814 164.198C142.02 163.684 141.132 163.333 140.222 163.029C138.61 162.491 137.326 161.578 136.602 159.988C136.392 159.52 136.415 159.403 136.812 159.145C138.213 158.233 139.544 157.251 140.876 156.245C140.946 156.198 140.992 156.151 141.132 156.198C141.132 156.455 141.132 156.736 141.086 156.993C140.922 158.186 141.179 159.262 141.833 160.245C142.137 160.736 142.557 161.11 143.024 161.485ZM155.705 149.554C156.476 149.952 157.247 150.279 158.018 150.677C158.975 151.168 159.886 151.8 160.516 152.689C161.217 153.671 161.38 154.771 161.31 155.941C161.31 155.964 161.264 155.987 161.217 156.081C160.82 155.66 160.47 155.262 160.073 154.888C158.788 153.578 157.27 152.666 155.519 152.127C154.911 151.94 154.257 151.847 153.604 151.777C151.829 151.613 150.287 150.958 149.236 149.414C149.003 149.063 149.003 148.993 149.26 148.736C150.404 147.589 151.525 146.396 152.576 145.156C152.669 145.039 152.763 144.922 152.926 144.876C153.113 144.993 153.02 145.18 153.043 145.32C153.066 146.256 153.347 147.121 153.837 147.917C154.304 148.619 154.935 149.157 155.705 149.554ZM165.701 135.308C166.542 135.589 167.429 135.752 168.293 135.963C169.414 136.267 170.465 136.735 171.376 137.507C171.82 137.881 172.053 138.396 172.287 138.91C172.427 139.215 172.52 139.542 172.614 139.87C172.684 140.08 172.684 140.314 172.637 140.595C172.053 140.197 171.54 139.846 171.026 139.519C169.905 138.817 168.69 138.326 167.406 138.092C166.565 137.928 165.678 137.834 164.79 137.951C163.716 138.115 162.642 138.138 161.591 137.788C160.797 137.507 160.096 137.109 159.489 136.548C159.255 136.361 159.325 136.173 159.465 135.963C159.862 135.331 160.236 134.676 160.61 134.045C161.03 133.366 161.451 132.688 161.824 131.963C161.941 131.752 162.034 131.518 162.268 131.354C162.431 131.682 162.455 132.009 162.572 132.314C163.109 133.811 164.136 134.817 165.701 135.308ZM171.913 119.284C172.1 119.33 172.287 119.354 172.474 119.354C173.828 119.33 175.159 119.424 176.491 119.611C178.125 119.822 179.48 120.547 180.227 122.114C180.367 122.395 180.578 122.676 180.601 123.073C180.064 122.956 179.643 122.676 179.176 122.512C177.658 121.95 176.094 121.6 174.482 121.717C173.688 121.787 172.894 121.904 172.147 122.208C171.002 122.676 169.811 122.676 168.62 122.559C168.013 122.489 167.453 122.208 166.915 121.88C166.682 121.74 166.635 121.553 166.729 121.319C167.196 119.939 167.639 118.558 168.13 117.178C168.247 116.874 168.2 116.5 168.48 116.243C168.667 116.266 168.644 116.43 168.714 116.523C169.391 117.88 170.419 118.839 171.913 119.284ZM170.372 97.8089C170.325 97.9726 170.302 98.1364 170.325 98.3001C170.395 99.2358 170.092 100.148 170.092 101.084C170.092 101.341 169.951 101.458 169.718 101.458C169.718 101.458 169.695 101.458 169.671 101.458C169.671 101.528 169.648 101.599 169.648 101.669C169.625 101.949 169.601 102.23 169.578 102.487C169.905 102.534 169.905 102.675 169.881 103.213C169.858 103.47 169.835 103.727 169.811 103.985C169.648 105.224 169.554 106.464 169.321 107.704C169.157 108.64 168.994 109.576 168.76 110.511C168.574 111.33 168.387 112.149 168.177 112.944C167.966 113.763 167.686 114.582 167.429 115.4C167.289 115.845 167.149 116.289 166.985 116.734C166.799 117.248 166.729 117.295 166.215 117.132C166.145 117.108 166.098 117.085 166.028 117.061C165.888 117.389 165.771 117.716 165.631 118.02C165.771 118.067 165.888 118.114 166.028 118.137C166.238 118.208 166.425 118.278 166.355 118.605C166.332 118.675 166.308 118.769 166.285 118.886C165.491 121.483 164.557 124.009 163.389 126.465C162.548 128.243 161.567 129.928 160.61 131.635C160.376 132.033 160.353 132.056 159.979 131.846C159.862 131.776 159.722 131.705 159.606 131.635C159.465 131.939 159.302 132.267 159.162 132.571C159.232 132.618 159.302 132.664 159.395 132.711C159.816 132.969 159.839 133.015 159.606 133.46C158.461 135.448 157.294 137.437 155.939 139.285C154.561 141.18 153.043 142.934 151.478 144.689C151.408 144.782 151.315 144.852 151.245 144.922C151.081 145.086 150.941 145.11 150.778 144.993C150.544 145.25 150.311 145.507 150.077 145.765C150.147 145.835 150.217 145.928 150.241 146.045C150.217 146.209 150.1 146.303 150.007 146.42C149.447 147.004 148.886 147.613 148.326 148.221C146.247 150.56 143.888 152.595 141.366 154.443C140.759 154.911 140.128 155.356 139.521 155.8C139.264 155.987 139.147 156.034 138.984 155.87C138.704 156.081 138.423 156.268 138.143 156.479C138.283 156.713 138.213 156.783 137.863 157.017C137.442 157.321 137.022 157.625 136.602 157.952C133.729 160.081 130.67 161.812 127.424 163.286C126.84 163.543 126.256 163.801 125.672 164.058C125.579 164.105 125.509 164.128 125.438 164.175C125.205 164.198 125.158 164.011 125.088 163.871C124.971 163.613 124.855 163.38 124.761 163.122C124.714 163.146 124.668 163.146 124.621 163.169C124.341 163.309 124.084 163.45 123.804 163.59C123.897 163.824 123.99 164.035 124.084 164.268C124.271 164.69 124.247 164.713 123.874 164.9C123.15 165.228 122.402 165.508 121.678 165.883C120.137 166.655 118.502 167.146 116.867 167.684C115.91 168.011 114.906 168.269 113.925 168.503C113.037 168.713 112.15 168.877 111.262 169.134C110.936 169.228 110.609 169.251 110.282 169.321C110.048 169.345 109.931 169.204 109.908 168.994C109.885 168.783 109.838 168.596 109.791 168.386C109.441 168.456 109.114 168.503 108.764 168.573C108.81 168.737 108.834 168.924 108.88 169.087C108.997 169.509 108.904 169.602 108.483 169.696C107.526 169.906 106.568 170.164 105.587 170.327C104.91 170.444 104.233 170.538 103.556 170.655C102.575 170.795 101.571 170.772 100.613 171.006C100.239 171.099 99.8657 171.099 99.492 171.029C99.2818 170.982 99.0483 170.982 98.8147 170.982C97.4602 170.982 96.0823 170.982 94.7277 170.982C94.0505 170.982 94.0271 170.935 94.0271 170.304C94.0271 170.234 94.0271 170.164 94.0271 170.093C93.6768 170.093 93.3265 170.093 92.9995 170.093C92.9995 170.21 92.9995 170.351 92.9995 170.468C92.9995 170.935 92.9295 170.982 92.4857 171.006C91.7851 171.029 91.1078 171.006 90.4072 171.006C89.9635 171.006 89.5198 170.959 89.076 171.146C88.9826 171.193 88.8658 171.169 88.7491 171.169C88.3988 171.146 88.0484 171.123 87.6981 171.123C87.0909 171.123 86.4604 171.099 85.8532 170.959C85.643 170.912 85.4094 170.889 85.1759 170.889C84.6854 170.889 84.2184 170.865 83.7279 170.725C83.6112 170.702 83.5177 170.678 83.401 170.678C82.5369 170.631 81.7195 170.421 80.8787 170.257C80.0613 170.117 79.2439 169.906 78.4265 169.766C78.0295 169.696 78.0295 169.696 78.0762 169.298C78.0996 169.134 78.1229 168.994 78.1463 168.854C77.796 168.783 77.4457 168.713 77.1187 168.643C77.0953 168.76 77.072 168.854 77.0486 168.97C76.9552 169.415 76.9319 169.392 76.4881 169.345C75.8576 169.298 75.2504 169.064 74.6432 168.947C74.106 168.83 73.5455 168.737 73.0084 168.596C71.5604 168.222 70.1358 167.777 68.7346 167.31C66.8195 166.701 64.9979 165.812 63.1529 165.017C62.6858 164.83 62.6858 164.76 62.8727 164.315C62.896 164.245 62.9194 164.198 62.9427 164.128C62.6391 163.988 62.3122 163.847 62.0086 163.707C61.9852 163.754 61.9619 163.801 61.9619 163.824C61.9385 163.847 61.9385 163.894 61.9152 163.918C61.705 164.268 61.7517 164.362 61.2379 164.152C57.5246 162.608 54.0448 160.689 50.7752 158.373C50.1914 157.952 49.5842 157.531 49.0003 157.087C48.6733 156.853 48.6733 156.829 48.9069 156.502C49.1171 156.221 49.3273 155.941 49.5374 155.636C49.2572 155.426 48.977 155.215 48.6967 154.981C48.4865 155.262 48.2763 155.566 48.0661 155.847C47.8326 156.151 47.8092 156.174 47.4823 155.941C45.8475 154.724 44.166 153.554 42.648 152.198C40.8264 150.56 39.0748 148.852 37.4634 147.004C37.2765 146.794 37.0897 146.583 36.9029 146.373C36.6927 146.162 36.716 145.999 36.9262 145.811C37.043 145.718 37.1364 145.624 37.2532 145.507C37.0196 145.25 36.7861 145.016 36.5525 144.759C36.4825 144.829 36.3891 144.899 36.319 144.969C35.992 145.25 35.922 145.273 35.6417 144.946C34.5441 143.683 33.3764 142.513 32.3721 141.18C31.0643 139.472 29.8265 137.717 28.7289 135.869C28.2618 135.074 27.8181 134.279 27.351 133.483C27.1408 133.109 27.1642 133.062 27.4911 132.852C27.5145 132.828 27.5378 132.828 27.5612 132.805C27.3744 132.501 27.2109 132.197 27.024 131.916C26.627 132.15 26.5803 132.15 26.3701 131.776C25.5294 130.278 24.5952 128.828 23.8946 127.261C23.2407 125.857 22.5634 124.454 22.0496 123.003C21.5592 121.623 21.0921 120.219 20.6484 118.816C20.5316 118.465 20.5783 118.395 20.9053 118.278C20.9286 118.278 20.952 118.254 20.952 118.254C20.8352 117.927 20.7418 117.576 20.625 117.248C20.5549 117.272 20.4849 117.272 20.4382 117.295C20.2046 117.342 20.0879 117.272 20.0178 117.038C19.6675 115.892 19.2705 114.769 18.9202 113.623C18.71 112.874 18.4998 112.125 18.383 111.33C18.3363 110.956 18.1962 110.605 18.1261 110.254C17.9626 109.459 17.8225 108.64 17.659 107.844C17.3788 106.511 17.2387 105.154 17.1452 103.797C17.1219 103.517 17.0518 103.236 17.0051 102.979C16.9584 102.745 17.0518 102.628 17.2854 102.604C17.4255 102.581 17.589 102.581 17.7291 102.581C17.8692 102.581 18.0093 102.581 18.1495 102.558C18.1028 102.207 18.0561 101.856 18.0093 101.505C17.9626 101.505 17.9393 101.505 17.8926 101.528C17.4784 101.67 16.9584 101.552 16.7482 100.686C16.7015 100.499 16.7249 100.289 16.7015 100.078C16.7015 99.5867 16.6782 99.0955 16.538 98.6276C16.468 98.3703 16.468 98.113 16.468 97.8557C16.468 96.5924 16.468 95.3526 16.468 94.0894C16.468 92.8028 16.468 91.5161 16.468 90.2061C16.468 90.019 16.468 89.8318 16.5147 89.6447C16.6782 89.1301 16.7015 88.6154 16.6782 88.1008C16.6782 87.9136 16.7015 87.7265 16.7249 87.5393C16.9584 82.042 17.9626 76.7785 19.7843 71.7256C19.831 71.5619 19.901 71.3981 19.9477 71.211C19.9944 71.0472 20.0412 70.9537 20.0879 70.8835C20.228 70.4858 20.3915 70.0881 20.5549 69.6905C20.5082 69.6203 20.5082 69.5033 20.5549 69.3629C21.5125 66.2049 22.6568 63.1404 24.1748 60.2163C24.6886 59.2104 25.2725 58.2045 25.833 57.222C28.7523 50.5783 32.9794 44.6833 38.4909 39.5602C42.648 35.0688 47.2954 31.4662 52.4567 28.6825C52.6903 28.5421 52.9238 28.3784 53.1573 28.238C55.4694 26.811 57.8282 25.5244 60.3271 24.4717C60.6307 24.3314 60.9343 24.191 61.2379 24.0506C61.6349 23.8869 61.705 23.9103 61.8918 24.308C61.9151 24.3781 61.9619 24.4483 61.9852 24.5419C62.2888 24.3781 62.5924 24.2378 62.9194 24.074C62.896 24.0273 62.8727 23.9571 62.8493 23.9103C62.6391 23.4658 62.6391 23.419 63.0829 23.2553C64.6009 22.6003 66.0722 21.8283 67.6603 21.3137C69.0148 20.8692 70.346 20.4247 71.7005 20.027C72.915 19.6528 74.1527 19.4422 75.3905 19.1381C75.7642 19.0445 76.1612 19.0211 76.5349 18.9042C76.8385 18.8106 76.9552 18.9042 77.0486 19.2551C77.0486 19.2785 77.072 19.3253 77.072 19.3486C77.4223 19.2551 77.7493 19.1849 78.0996 19.1147C78.0762 18.6936 78.0762 18.6702 78.4966 18.5065C78.8703 18.3661 79.2673 18.3427 79.641 18.2726C80.1314 18.1556 80.6218 18.0854 81.1123 17.9451C81.8596 17.7345 82.6303 17.7345 83.3776 17.5942C84.1483 17.4538 84.919 17.3836 85.713 17.3135C86.6472 17.2199 87.5814 17.1497 88.4922 17.0561C89.8467 16.9158 91.2246 17.0093 92.5792 16.986C92.9762 16.986 93.0229 17.0561 93.0229 17.4538C93.0229 17.5708 93.0229 17.6643 93.0229 17.7813C93.3732 17.7813 93.7001 17.7813 94.0505 17.8047C94.0505 17.7111 94.0505 17.6176 94.0505 17.524C94.0505 17.0561 94.1205 16.986 94.5643 16.986C96.1523 17.0093 97.7404 16.8924 99.3052 17.1497C99.889 17.2433 100.496 17.2433 101.08 17.2901C101.314 17.3135 101.571 17.3135 101.804 17.3602C102.224 17.4538 102.645 17.4772 103.089 17.524C103.812 17.5942 104.513 17.7345 105.237 17.8749C105.774 17.9919 106.335 18.062 106.872 18.179C107.386 18.296 107.899 18.3661 108.413 18.4831C108.904 18.6001 108.974 18.7404 108.88 19.2083C109.207 19.2785 109.558 19.3486 109.885 19.4188C109.885 19.372 109.885 19.3486 109.908 19.3019C109.955 18.9744 110.048 18.9042 110.375 18.9042C110.702 18.951 111.052 19.0913 111.426 19.1381C111.94 19.2083 112.454 19.3486 112.944 19.489C113.364 19.606 113.785 19.6294 114.205 19.7463C117.264 20.6353 120.301 21.5944 123.173 23.0214C123.383 23.1383 123.617 23.2085 123.85 23.3021C124.341 23.5126 124.341 23.5126 124.131 24.0039C124.107 24.0506 124.084 24.0974 124.061 24.1442C124.388 24.2846 124.691 24.4483 125.018 24.5887C125.041 24.5419 125.065 24.4951 125.088 24.4483C125.275 24.0506 125.368 24.0039 125.789 24.191C127.797 25.0565 129.782 25.9455 131.674 27.045C132.865 27.7467 134.056 28.4485 135.2 29.2205C136.158 29.8755 137.092 30.5773 138.026 31.2557C138.12 31.3259 138.26 31.3961 138.26 31.5598C138.237 31.7002 138.143 31.8171 138.05 31.9575C137.91 32.168 137.746 32.3786 137.606 32.5891C137.863 32.7996 138.143 33.0102 138.4 33.2207C138.54 33.0102 138.68 32.823 138.844 32.6125C139.147 32.1914 139.217 32.168 139.661 32.4721C141.319 33.6652 142.977 34.8816 144.519 36.2618C145.92 37.5016 147.251 38.8116 148.536 40.1684C149.049 40.7299 149.563 41.3147 150.077 41.8761C150.171 41.9697 150.264 42.0633 150.287 42.2036C150.287 42.3206 150.241 42.3908 150.171 42.461C150.404 42.7183 150.661 42.9522 150.894 43.2095C150.941 43.1628 151.011 43.1394 151.081 43.116C151.245 43.1394 151.315 43.2329 151.408 43.3499C152.926 45.0108 154.421 46.7185 155.752 48.5431C156.85 50.0403 157.831 51.6076 158.788 53.1984C162.735 59.2572 165.724 65.854 167.733 73.0357L167.803 73.5269C167.943 73.948 168.06 74.3691 168.2 74.7901C168.433 75.6089 168.644 76.451 168.784 77.2932C168.854 77.7143 168.947 78.1353 169.064 78.5564C169.204 79.1178 169.274 79.7027 169.391 80.2641C169.508 80.8255 169.601 81.4104 169.648 81.9718C169.695 82.8139 169.881 83.6327 169.951 84.4748C169.975 84.6386 169.975 84.8024 169.998 84.8725C170.022 85.5275 170.022 85.5041 169.438 85.6445L169.578 86.7206C169.695 86.7206 169.811 86.7206 169.905 86.7206C170.092 86.7206 170.208 86.8141 170.185 86.9779C170.138 87.7733 170.465 88.5218 170.419 89.3172C170.395 89.7383 170.442 90.136 170.535 90.5336C170.605 90.8611 170.629 91.1886 170.629 91.5395C170.629 92.4051 170.629 93.2706 170.629 94.1128C170.629 94.7912 170.629 95.4696 170.629 96.1246C170.535 96.5924 170.559 97.2007 170.372 97.8089ZM171.656 100.289C172.334 101.177 173.174 101.832 174.249 102.16C174.459 102.23 174.669 102.277 174.903 102.3C175.743 102.371 176.561 102.324 177.401 102.113C178.779 101.762 180.181 101.762 181.582 101.856C182.096 101.879 182.563 102.09 182.983 102.371C183.73 102.815 184.291 103.447 184.711 104.195C184.595 104.312 184.501 104.312 184.408 104.289C183.1 103.938 181.769 103.797 180.414 103.891C179.036 104.008 177.752 104.406 176.537 105.084C175.837 105.482 175.113 105.879 174.319 106.113C173.828 106.254 173.314 106.23 172.824 106.23C172.264 106.254 171.703 106.23 171.166 106.02C170.909 105.926 170.792 105.809 170.816 105.529C170.839 105.107 170.816 104.663 170.956 104.242C171.002 104.148 171.026 104.031 171.026 103.914C171.002 102.768 171.376 101.669 171.306 100.522C171.306 100.382 171.283 100.218 171.376 100.101C171.516 100.031 171.586 100.195 171.656 100.289ZM184.711 85.1532C184.151 85.0363 183.59 85.1532 183.03 85.1766C180.741 85.2468 178.686 86.0188 176.958 87.5393C176.421 88.0306 175.883 88.5218 175.23 88.8493C174.202 89.3874 173.104 89.6681 171.937 89.5511C171.563 89.5277 171.493 89.4576 171.446 89.0833C171.329 88.2411 171.259 87.4224 171.213 86.5802C171.166 85.5977 170.979 84.6152 170.909 83.5625C171.376 83.9836 171.796 84.3345 172.287 84.5918C173.548 85.2702 174.856 85.4106 176.21 84.8491C177.191 84.4515 178.149 83.9836 179.176 83.6561C180.087 83.3754 181.021 83.1882 181.979 83.3052C182.796 83.3988 183.497 83.7964 184.127 84.2877C184.408 84.4982 184.641 84.7556 184.875 84.9661C184.875 85.1532 184.781 85.1766 184.711 85.1532Z" fill="url(#paint0_linear_345_8939)" fill-opacity="0.1"/>
<defs>
<linearGradient id="paint0_linear_345_8939" x1="1.03888" y1="0.00219648" x2="187.326" y2="0.325686" gradientUnits="userSpaceOnUse">
<stop stop-color="#9E1256"/>
<stop offset="1" stop-color="#F9B048"/>
</linearGradient>
</defs>
</svg>
