<svg width="103" height="103" viewBox="0 0 103 103" fill="none" xmlns="http://www.w3.org/2000/svg">
<g id="Group" opacity="0.2">
<path id="Vector" d="M51.0099 73.1571C62.8766 73.1571 72.4964 63.5363 72.4964 51.6684C72.4964 39.8005 62.8766 30.1797 51.0099 30.1797C39.1433 30.1797 29.5234 39.8005 29.5234 51.6684C29.5234 63.5363 39.1433 73.1571 51.0099 73.1571Z" stroke="url(#paint0_linear_345_10015)" stroke-width="2" stroke-miterlimit="10" stroke-linecap="round" stroke-linejoin="round"/>
<g id="Group_2">
<g id="Group_3">
<g id="Group_4">
<path id="Vector_2" d="M53.9604 30.3923C53.6531 22.3378 52.8846 14.3142 51.7165 6.38271L51.0095 1.64844L50.3025 6.38271C49.1037 14.3142 48.366 22.3071 48.0586 30.3923C49.0422 30.2693 50.0259 30.1771 51.0403 30.1771C51.9932 30.1771 53.0075 30.2693 53.9604 30.3923Z" stroke="url(#paint1_linear_345_10015)" stroke-width="2" stroke-miterlimit="10" stroke-linecap="round" stroke-linejoin="round"/>
<path id="Vector_3" d="M48.0273 72.9688C48.3347 81.0232 49.1032 89.0468 50.2713 96.9783L50.9783 101.713L51.6853 96.9783C52.8841 89.0468 53.6218 81.0539 53.9292 72.9688C52.9456 73.0917 51.9619 73.1839 50.9475 73.1839C49.9946 73.1532 49.011 73.0917 48.0273 72.9688Z" stroke="url(#paint2_linear_345_10015)" stroke-width="2" stroke-miterlimit="10" stroke-linecap="round" stroke-linejoin="round"/>
</g>
<g id="Group_5">
<path id="Vector_4" d="M72.2852 54.6525C80.3387 54.3451 88.3616 53.5765 96.2922 52.4083L101.026 51.7012L96.2922 50.9942C88.3616 49.7952 80.3695 49.0574 72.2852 48.75C72.4081 49.7337 72.5003 50.7175 72.5003 51.732C72.5003 52.685 72.4081 53.6687 72.2852 54.6525Z" stroke="url(#paint3_linear_345_10015)" stroke-width="2" stroke-miterlimit="10" stroke-linecap="round" stroke-linejoin="round"/>
<path id="Vector_5" d="M29.7408 48.7188C21.6873 49.0262 13.6644 49.7947 5.73378 50.9629L1 51.67L5.73378 52.3771C13.6644 53.576 21.6565 54.3138 29.7408 54.6212C29.6179 53.6375 29.5257 52.6537 29.5257 51.6392C29.5257 50.6862 29.5871 49.6718 29.7408 48.7188Z" stroke="url(#paint4_linear_345_10015)" stroke-width="2" stroke-miterlimit="10" stroke-linecap="round" stroke-linejoin="round"/>
</g>
</g>
<g id="Group_6">
<g id="Group_7">
<path id="Vector_6" d="M42.3407 23.9035C39.2976 22.4279 36.3466 19.1692 35.7011 16.0028C35.0556 12.8363 34.0719 8.22504 29.707 8.37875C29.707 8.37875 33.4264 10.8074 33.2727 14.8961C33.1805 17.7551 31.9202 21.2597 34.1949 23.6883C36.4696 26.1169 38.5906 28.3611 38.5906 31.0049C38.5906 33.3413 37.6684 34.7554 37.6684 34.7554H37.6991C40.6193 32.4498 44.1543 30.9127 47.9967 30.3593C48.0274 30.3901 46.2138 25.7787 42.3407 23.9035Z" stroke="url(#paint5_linear_345_10015)" stroke-width="2" stroke-miterlimit="10" stroke-linecap="round" stroke-linejoin="round"/>
<path id="Vector_7" d="M59.6485 23.9035C62.6917 22.4279 65.6426 19.1692 66.2881 16.0028C66.9336 12.8363 67.9173 8.22504 72.2822 8.37875C72.2822 8.37875 68.5628 10.8074 68.7165 14.8961C68.8087 17.7551 70.069 21.2597 67.7943 23.6883C65.5196 26.1169 63.3987 28.3611 63.3987 31.0049C63.3987 33.3413 64.3208 34.7554 64.3208 34.7554H64.2901C61.3699 32.4498 57.8349 30.9127 53.9926 30.3593C53.9618 30.3901 55.7754 25.7787 59.6485 23.9035Z" stroke="url(#paint6_linear_345_10015)" stroke-width="2" stroke-miterlimit="10" stroke-linecap="round" stroke-linejoin="round"/>
</g>
<g id="Group_8">
<path id="Vector_8" d="M59.6485 79.391C62.6917 80.8666 65.6426 84.1253 66.2881 87.2917C66.9336 90.4581 67.9173 95.0694 72.2822 94.9157C72.2822 94.9157 68.5628 92.4871 68.7165 88.3984C68.8087 85.5394 70.069 82.0348 67.7943 79.6062C65.5196 77.1776 63.3987 74.9334 63.3987 72.2896C63.3987 69.9532 64.3208 68.5391 64.3208 68.5391H64.2901C61.3699 70.8447 57.8349 72.3818 53.9926 72.9352C53.9618 72.9044 55.7754 77.5465 59.6485 79.391Z" stroke="url(#paint7_linear_345_10015)" stroke-width="2" stroke-miterlimit="10" stroke-linecap="round" stroke-linejoin="round"/>
<path id="Vector_9" d="M42.3407 79.391C39.2976 80.8666 36.3466 84.1253 35.7011 87.2917C35.0556 90.4581 34.0719 95.0694 29.707 94.9157C29.707 94.9157 33.4264 92.4871 33.2727 88.3984C33.1805 85.5394 31.9202 82.0348 34.1949 79.6062C36.4696 77.1776 38.5906 74.9334 38.5906 72.2896C38.5906 69.9532 37.6684 68.5391 37.6684 68.5391H37.6991C40.6193 70.8447 44.1543 72.3818 47.9967 72.9352C48.0274 72.9044 46.2138 77.5465 42.3407 79.391Z" stroke="url(#paint8_linear_345_10015)" stroke-width="2" stroke-miterlimit="10" stroke-linecap="round" stroke-linejoin="round"/>
</g>
</g>
<g id="Group_9">
<g id="Group_10">
<path id="Vector_10" d="M38.0683 34.5428C32.1357 29.0707 25.9264 23.9368 19.502 19.1718L15.6289 16.3127L18.4876 20.1862C23.2521 26.6113 28.3855 32.8212 33.857 38.7544C34.4411 37.9859 35.0866 37.2173 35.7936 36.5103C36.5313 35.7725 37.2691 35.1269 38.0683 34.5428Z" stroke="url(#paint9_linear_345_10015)" stroke-width="2" stroke-miterlimit="10" stroke-linecap="round" stroke-linejoin="round"/>
<path id="Vector_11" d="M63.9531 68.8213C69.8857 74.2934 76.095 79.4273 82.5194 84.1923L86.3925 87.0513L83.5338 83.1778C78.7693 76.7527 73.6359 70.5428 68.1644 64.6096C67.5803 65.3782 66.9348 66.1467 66.2278 66.8538C65.4901 67.5916 64.7216 68.2372 63.9531 68.8213Z" stroke="url(#paint10_linear_345_10015)" stroke-width="2" stroke-miterlimit="10" stroke-linecap="round" stroke-linejoin="round"/>
</g>
<g id="Group_11">
<path id="Vector_12" d="M68.1292 38.7229C73.6007 32.7897 78.7341 26.5798 83.4986 20.1547L86.3573 16.2812L82.4842 19.1403C76.0598 23.9053 69.8506 29.0392 63.918 34.5113C64.6864 35.0954 65.4549 35.741 66.1619 36.448C66.8996 37.1858 67.5452 37.9544 68.1292 38.7229Z" stroke="url(#paint11_linear_345_10015)" stroke-width="2" stroke-miterlimit="10" stroke-linecap="round" stroke-linejoin="round"/>
<path id="Vector_13" d="M33.857 64.6328C28.3855 70.566 23.2521 76.7759 18.4876 83.201L15.6289 87.0745L19.502 84.2155C25.9264 79.4505 32.1357 74.3166 38.0683 68.8445C37.2998 68.2604 36.5313 67.6148 35.8243 66.9077C35.0866 66.1392 34.4411 65.4014 33.857 64.6328Z" stroke="url(#paint12_linear_345_10015)" stroke-width="2" stroke-miterlimit="10" stroke-linecap="round" stroke-linejoin="round"/>
</g>
</g>
<g id="Group_12">
<g id="Group_13">
<path id="Vector_14" d="M78.7376 43.0022C80.213 39.9587 83.4713 37.0075 86.6374 36.3619C89.8035 35.7163 94.4144 34.7326 94.2607 30.3672C94.2607 30.3672 91.8323 34.087 87.744 33.9333C84.8853 33.841 81.3811 32.5806 78.9527 34.8555C76.5243 37.1304 74.2804 39.2516 71.6369 39.2516C69.3007 39.2516 67.8867 38.3294 67.8867 38.3294V38.3601C70.1921 41.2806 71.7291 44.8159 72.2824 48.6587C72.2517 48.6894 76.8932 46.8757 78.7376 43.0022Z" stroke="url(#paint13_linear_345_10015)" stroke-width="2" stroke-miterlimit="10" stroke-linecap="round" stroke-linejoin="round"/>
<path id="Vector_15" d="M78.7376 60.3054C80.213 63.3488 83.4713 66.3001 86.6374 66.9456C89.8035 67.5912 94.4144 68.575 94.2607 72.9403C94.2607 72.9403 91.8323 69.2206 87.744 69.3743C84.8853 69.4665 81.3811 70.7269 78.9527 68.452C76.5243 66.1771 74.2804 64.0559 71.6369 64.0559C69.3007 64.0559 67.8867 64.9782 67.8867 64.9782V64.9474C70.1921 62.0269 71.7291 58.4916 72.2824 54.6488C72.2517 54.6181 76.8932 56.4319 78.7376 60.3054Z" stroke="url(#paint14_linear_345_10015)" stroke-width="2" stroke-miterlimit="10" stroke-linecap="round" stroke-linejoin="round"/>
</g>
<g id="Group_14">
<path id="Vector_16" d="M23.2534 60.3054C21.778 63.3488 18.5197 66.3001 15.3536 66.9456C12.1874 67.5912 7.57661 68.575 7.73031 72.9403C7.73031 72.9403 10.1587 69.2206 14.2469 69.3743C17.1057 69.4665 20.6099 70.7269 23.0383 68.452C25.4666 66.1771 27.7106 64.0559 30.3541 64.0559C32.6903 64.0559 34.1043 64.9782 34.1043 64.9782V64.9474C31.7988 62.0269 30.2619 58.4916 29.7086 54.6488C29.7393 54.6181 25.1285 56.4319 23.2534 60.3054Z" stroke="url(#paint15_linear_345_10015)" stroke-width="2" stroke-miterlimit="10" stroke-linecap="round" stroke-linejoin="round"/>
<path id="Vector_17" d="M23.2534 43.0022C21.778 39.9587 18.5197 37.0075 15.3536 36.3619C12.1874 35.7163 7.57661 34.7326 7.73031 30.3672C7.73031 30.3672 10.1587 34.087 14.2469 33.9333C17.1057 33.841 20.6099 32.5806 23.0383 34.8555C25.4666 37.1304 27.7106 39.2516 30.3541 39.2516C32.6903 39.2516 34.1043 38.3294 34.1043 38.3294V38.3601C31.7988 41.2806 30.2619 44.8159 29.7086 48.6587C29.7393 48.6894 25.1285 46.8757 23.2534 43.0022Z" stroke="url(#paint16_linear_345_10015)" stroke-width="2" stroke-miterlimit="10" stroke-linecap="round" stroke-linejoin="round"/>
</g>
</g>
</g>
</g>
<defs>
<linearGradient id="paint0_linear_345_10015" x1="29.7622" y1="30.1802" x2="72.5713" y2="30.2549" gradientUnits="userSpaceOnUse">
<stop stop-color="#9E1256"/>
<stop offset="0.265625" stop-color="#CE164F"/>
<stop offset="0.5" stop-color="#E74249"/>
<stop offset="0.770833" stop-color="#ED6E49"/>
<stop offset="1" stop-color="#F9B048"/>
</linearGradient>
<linearGradient id="paint1_linear_345_10015" x1="48.0914" y1="1.64877" x2="53.9708" y2="1.65088" gradientUnits="userSpaceOnUse">
<stop stop-color="#9E1256"/>
<stop offset="0.265625" stop-color="#CE164F"/>
<stop offset="0.5" stop-color="#E74249"/>
<stop offset="0.770833" stop-color="#ED6E49"/>
<stop offset="1" stop-color="#F9B048"/>
</linearGradient>
<linearGradient id="paint2_linear_345_10015" x1="48.0601" y1="72.9691" x2="53.9395" y2="72.9712" gradientUnits="userSpaceOnUse">
<stop stop-color="#9E1256"/>
<stop offset="0.265625" stop-color="#CE164F"/>
<stop offset="0.5" stop-color="#E74249"/>
<stop offset="0.770833" stop-color="#ED6E49"/>
<stop offset="1" stop-color="#F9B048"/>
</linearGradient>
<linearGradient id="paint3_linear_345_10015" x1="72.4448" y1="48.7501" x2="101.074" y2="48.9934" gradientUnits="userSpaceOnUse">
<stop stop-color="#9E1256"/>
<stop offset="0.265625" stop-color="#CE164F"/>
<stop offset="0.5" stop-color="#E74249"/>
<stop offset="0.770833" stop-color="#ED6E49"/>
<stop offset="1" stop-color="#F9B048"/>
</linearGradient>
<linearGradient id="paint4_linear_345_10015" x1="1.15967" y1="48.7188" x2="29.7889" y2="48.9622" gradientUnits="userSpaceOnUse">
<stop stop-color="#9E1256"/>
<stop offset="0.265625" stop-color="#CE164F"/>
<stop offset="0.5" stop-color="#E74249"/>
<stop offset="0.770833" stop-color="#ED6E49"/>
<stop offset="1" stop-color="#F9B048"/>
</linearGradient>
<linearGradient id="paint5_linear_345_10015" x1="29.8086" y1="8.37531" x2="48.0289" y2="8.39736" gradientUnits="userSpaceOnUse">
<stop stop-color="#9E1256"/>
<stop offset="0.265625" stop-color="#CE164F"/>
<stop offset="0.5" stop-color="#E74249"/>
<stop offset="0.770833" stop-color="#ED6E49"/>
<stop offset="1" stop-color="#F9B048"/>
</linearGradient>
<linearGradient id="paint6_linear_345_10015" x1="54.0938" y1="8.37531" x2="72.3141" y2="8.39736" gradientUnits="userSpaceOnUse">
<stop stop-color="#9E1256"/>
<stop offset="0.265625" stop-color="#CE164F"/>
<stop offset="0.5" stop-color="#E74249"/>
<stop offset="0.770833" stop-color="#ED6E49"/>
<stop offset="1" stop-color="#F9B048"/>
</linearGradient>
<linearGradient id="paint7_linear_345_10015" x1="54.0938" y1="68.5394" x2="72.3141" y2="68.5614" gradientUnits="userSpaceOnUse">
<stop stop-color="#9E1256"/>
<stop offset="0.265625" stop-color="#CE164F"/>
<stop offset="0.5" stop-color="#E74249"/>
<stop offset="0.770833" stop-color="#ED6E49"/>
<stop offset="1" stop-color="#F9B048"/>
</linearGradient>
<linearGradient id="paint8_linear_345_10015" x1="29.8086" y1="68.5394" x2="48.0289" y2="68.5614" gradientUnits="userSpaceOnUse">
<stop stop-color="#9E1256"/>
<stop offset="0.265625" stop-color="#CE164F"/>
<stop offset="0.5" stop-color="#E74249"/>
<stop offset="0.770833" stop-color="#ED6E49"/>
<stop offset="1" stop-color="#F9B048"/>
</linearGradient>
<linearGradient id="paint9_linear_345_10015" x1="15.7536" y1="16.313" x2="38.1074" y2="16.352" gradientUnits="userSpaceOnUse">
<stop stop-color="#9E1256"/>
<stop offset="0.265625" stop-color="#CE164F"/>
<stop offset="0.5" stop-color="#E74249"/>
<stop offset="0.770833" stop-color="#ED6E49"/>
<stop offset="1" stop-color="#F9B048"/>
</linearGradient>
<linearGradient id="paint10_linear_345_10015" x1="64.0778" y1="64.6099" x2="86.4316" y2="64.6489" gradientUnits="userSpaceOnUse">
<stop stop-color="#9E1256"/>
<stop offset="0.265625" stop-color="#CE164F"/>
<stop offset="0.5" stop-color="#E74249"/>
<stop offset="0.770833" stop-color="#ED6E49"/>
<stop offset="1" stop-color="#F9B048"/>
</linearGradient>
<linearGradient id="paint11_linear_345_10015" x1="64.0426" y1="16.2815" x2="86.3964" y2="16.3205" gradientUnits="userSpaceOnUse">
<stop stop-color="#9E1256"/>
<stop offset="0.265625" stop-color="#CE164F"/>
<stop offset="0.5" stop-color="#E74249"/>
<stop offset="0.770833" stop-color="#ED6E49"/>
<stop offset="1" stop-color="#F9B048"/>
</linearGradient>
<linearGradient id="paint12_linear_345_10015" x1="15.7536" y1="64.6331" x2="38.1074" y2="64.6721" gradientUnits="userSpaceOnUse">
<stop stop-color="#9E1256"/>
<stop offset="0.265625" stop-color="#CE164F"/>
<stop offset="0.5" stop-color="#E74249"/>
<stop offset="0.770833" stop-color="#ED6E49"/>
<stop offset="1" stop-color="#F9B048"/>
</linearGradient>
<linearGradient id="paint13_linear_345_10015" x1="68.0333" y1="30.3674" x2="94.3103" y2="30.4336" gradientUnits="userSpaceOnUse">
<stop stop-color="#9E1256"/>
<stop offset="0.265625" stop-color="#CE164F"/>
<stop offset="0.5" stop-color="#E74249"/>
<stop offset="0.770833" stop-color="#ED6E49"/>
<stop offset="1" stop-color="#F9B048"/>
</linearGradient>
<linearGradient id="paint14_linear_345_10015" x1="68.0333" y1="54.6487" x2="94.3103" y2="54.7148" gradientUnits="userSpaceOnUse">
<stop stop-color="#9E1256"/>
<stop offset="0.265625" stop-color="#CE164F"/>
<stop offset="0.5" stop-color="#E74249"/>
<stop offset="0.770833" stop-color="#ED6E49"/>
<stop offset="1" stop-color="#F9B048"/>
</linearGradient>
<linearGradient id="paint15_linear_345_10015" x1="7.8731" y1="54.6487" x2="34.1501" y2="54.7148" gradientUnits="userSpaceOnUse">
<stop stop-color="#9E1256"/>
<stop offset="0.265625" stop-color="#CE164F"/>
<stop offset="0.5" stop-color="#E74249"/>
<stop offset="0.770833" stop-color="#ED6E49"/>
<stop offset="1" stop-color="#F9B048"/>
</linearGradient>
<linearGradient id="paint16_linear_345_10015" x1="7.8731" y1="30.3674" x2="34.1501" y2="30.4336" gradientUnits="userSpaceOnUse">
<stop stop-color="#9E1256"/>
<stop offset="0.265625" stop-color="#CE164F"/>
<stop offset="0.5" stop-color="#E74249"/>
<stop offset="0.770833" stop-color="#ED6E49"/>
<stop offset="1" stop-color="#F9B048"/>
</linearGradient>
</defs>
</svg>
