<svg width="24" height="24" viewBox="0 0 24 24" fill="none" xmlns="http://www.w3.org/2000/svg">
<g id="fi_10994569">
<path id="Vector" d="M20.5 20.33C20.263 20.33 20.026 20.263 19.819 20.128L18.501 19.273C17.973 18.931 17.361 18.751 16.732 18.751H9C7.483 18.751 6.25 17.518 6.25 16.001V14.001C6.25 13.587 6.586 13.251 7 13.251C7.414 13.251 7.75 13.587 7.75 14.001V16.001C7.75 16.69 8.311 17.251 9 17.251H16.732C17.651 17.251 18.544 17.516 19.316 18.015L20.25 18.62V10.001C20.25 9.31198 19.689 8.75098 19 8.75098H17C16.586 8.75098 16.25 8.41498 16.25 8.00098C16.25 7.58698 16.586 7.25098 17 7.25098H19C20.517 7.25098 21.75 8.48398 21.75 10.001V19.081C21.75 19.539 21.5 19.96 21.098 20.179C20.91 20.281 20.705 20.33 20.5 20.33Z" fill="white"/>
<path id="Vector_2" d="M3.5 16.33C3.295 16.33 3.09 16.279 2.902 16.178C2.5 15.959 2.25 15.538 2.25 15.08V6C2.25 4.483 3.483 3.25 5 3.25H15C16.517 3.25 17.75 4.483 17.75 6V12C17.75 13.517 16.517 14.75 15 14.75H6.676C6.434 14.75 6.199 14.819 5.997 14.951L4.181 16.128C3.974 16.263 3.738 16.33 3.5 16.33ZM5 4.75C4.311 4.75 3.75 5.311 3.75 6V14.62L5.18 13.693C5.625 13.403 6.143 13.25 6.676 13.25H15C15.689 13.25 16.25 12.689 16.25 12V6C16.25 5.311 15.689 4.75 15 4.75H5Z" fill="white"/>
</g>
</svg>
