<svg width="25" height="24" viewBox="0 0 25 24" fill="none" xmlns="http://www.w3.org/2000/svg">
<g id="mdi:twitter">
<path id="Vector" d="M22.9434 6C22.1734 6.35 21.3434 6.58 20.4834 6.69C21.3634 6.16 22.0434 5.32 22.3634 4.31C21.5334 4.81 20.6134 5.16 19.6434 5.36C18.8534 4.5 17.7434 4 16.4834 4C14.1334 4 12.2134 5.92 12.2134 8.29C12.2134 8.63 12.2534 8.96 12.3234 9.27C8.76344 9.09 5.59344 7.38 3.48344 4.79C3.11344 5.42 2.90344 6.16 2.90344 6.94C2.90344 8.43 3.65344 9.75 4.81344 10.5C4.10344 10.5 3.44344 10.3 2.86344 10V10.03C2.86344 12.11 4.34344 13.85 6.30344 14.24C5.67416 14.4122 5.01353 14.4362 4.37344 14.31C4.64504 15.1625 5.17697 15.9084 5.89445 16.4429C6.61193 16.9775 7.47888 17.2737 8.37344 17.29C6.85707 18.4904 4.97743 19.1393 3.04344 19.13C2.70344 19.13 2.36344 19.11 2.02344 19.07C3.92344 20.29 6.18344 21 8.60344 21C16.4834 21 20.8134 14.46 20.8134 8.79C20.8134 8.6 20.8134 8.42 20.8034 8.23C21.6434 7.63 22.3634 6.87 22.9434 6Z" fill="#1D9BF0"/>
</g>
</svg>
