<svg width="32" height="32" viewBox="0 0 32 32" fill="none" xmlns="http://www.w3.org/2000/svg">
<g id="fi_4494477" clip-path="url(#clip0_345_11512)">
<g id="Layer 2">
<g id="02.twitter">
<path id="background" d="M16 31.9995C24.8366 31.9995 32 24.8361 32 15.9995C32 7.16296 24.8366 -0.000488281 16 -0.000488281C7.16344 -0.000488281 0 7.16296 0 15.9995C0 24.8361 7.16344 31.9995 16 31.9995Z" fill="#00A6DE"/>
<path id="icon" d="M23.9679 11.1575C23.5897 11.7256 23.1276 12.2332 22.5974 12.6628C22.5305 12.7185 22.4769 12.7884 22.4405 12.8675C22.4041 12.9465 22.3858 13.0326 22.3868 13.1196V13.1723C22.3807 14.3132 22.1711 15.4439 21.7679 16.5112C21.3525 17.6315 20.7352 18.6661 19.9468 19.5639C18.8874 20.77 17.5244 21.6706 15.9995 22.1723C14.9974 22.4975 13.9498 22.6603 12.8963 22.6544C11.225 22.6542 9.58353 22.2118 8.13842 21.3723C8.08663 21.3428 8.04587 21.2973 8.02231 21.2426C7.99875 21.1879 7.99369 21.127 8.00789 21.0691C8.02246 21.0122 8.05567 20.9618 8.10221 20.9259C8.14876 20.8901 8.20597 20.8708 8.26473 20.8712H8.66473C9.93483 20.8743 11.1768 20.4975 12.231 19.7891C11.6028 19.6874 11.0148 19.4142 10.5319 18.9996C10.049 18.5851 9.6899 18.0453 9.4942 17.4396C9.48418 17.4093 9.48237 17.3769 9.48893 17.3456C9.4955 17.3144 9.51022 17.2854 9.5316 17.2617C9.55298 17.2379 9.58026 17.2203 9.61067 17.2105C9.64107 17.2007 9.67352 17.1992 9.70473 17.206C9.89632 17.242 10.0908 17.2603 10.2858 17.2607H10.3595C9.75226 16.9817 9.23886 16.5329 8.88132 15.9683C8.52377 15.4038 8.3374 14.7478 8.34473 14.0796C8.34495 14.0484 8.35326 14.0177 8.36885 13.9906C8.38445 13.9635 8.40679 13.9409 8.43371 13.925C8.46064 13.9091 8.49122 13.9005 8.52248 13.8999C8.55374 13.8993 8.58462 13.9068 8.6121 13.9218C8.85908 14.0596 9.12409 14.1624 9.39947 14.227C8.85516 13.6885 8.50504 12.9845 8.40407 12.2255C8.3031 11.4665 8.45698 10.6954 8.84157 10.0333C8.85612 10.0079 8.87663 9.98639 8.90132 9.97062C8.92602 9.95486 8.95418 9.94533 8.98337 9.94285C9.01256 9.94036 9.04192 9.945 9.06893 9.95636C9.09593 9.96772 9.11978 9.98547 9.13842 10.0081C9.8988 10.9495 10.8405 11.7287 11.9077 12.2994C12.9749 12.8701 14.1458 13.2206 15.351 13.3302H15.3679C15.3856 13.3297 15.403 13.3256 15.4191 13.3181C15.4351 13.3106 15.4495 13.3 15.4613 13.2868C15.4732 13.2736 15.4822 13.2581 15.4878 13.2413C15.4935 13.2245 15.4956 13.2068 15.4942 13.1891C15.4472 12.7666 15.4743 12.3392 15.5742 11.926C15.71 11.3643 15.9889 10.8473 16.3836 10.4253C16.7783 10.0033 17.2755 9.69058 17.8268 9.51754C18.1806 9.40705 18.5489 9.35028 18.9195 9.34912C19.7597 9.34815 20.5714 9.65439 21.2016 10.2102C21.2832 10.2832 21.3889 10.3237 21.4984 10.3239C21.534 10.3231 21.5693 10.3182 21.6037 10.3091C22.1958 10.1595 22.7631 9.92477 23.2879 9.61228C23.3193 9.59291 23.3559 9.58372 23.3927 9.58597C23.4296 9.58822 23.4648 9.6018 23.4936 9.62485C23.5224 9.6479 23.5434 9.67929 23.5537 9.71473C23.564 9.75017 23.5631 9.78792 23.551 9.82281C23.3759 10.3739 23.0637 10.8716 22.6437 11.2691C23.022 11.1789 23.3913 11.0542 23.7468 10.8965C23.7819 10.8829 23.8204 10.8807 23.8568 10.89C23.8933 10.8993 23.9259 10.9197 23.9502 10.9484C23.9745 10.9771 23.9893 11.0127 23.9924 11.0501C23.9956 11.0876 23.987 11.1252 23.9679 11.1575Z" fill="white"/>
</g>
</g>
</g>
<defs>
<clipPath id="clip0_345_11512">
<rect width="32" height="32" fill="white" transform="translate(0 -0.000488281)"/>
</clipPath>
</defs>
</svg>
