<svg width="18" height="18" viewBox="0 0 18 18" fill="none" xmlns="http://www.w3.org/2000/svg">
<g id="u:list-ul">
<rect x="0.273438" y="0.272949" width="17.4545" height="17.4545" rx="8.72727" fill="white"/>
<path id="Vector" d="M2.97037 12.1204C2.9012 12.0541 2.81964 12.0022 2.73037 11.9676C2.55331 11.8949 2.3547 11.8949 2.17764 11.9676C2.08837 12.0022 2.00681 12.0541 1.93764 12.1204C1.87143 12.1895 1.81953 12.2711 1.78491 12.3604C1.72922 12.4928 1.714 12.6388 1.74118 12.7799C1.76837 12.9209 1.83673 13.0508 1.93764 13.1531C2.00833 13.2173 2.08951 13.269 2.17764 13.3058C2.2647 13.3443 2.35883 13.3642 2.454 13.3642C2.54918 13.3642 2.64331 13.3443 2.73037 13.3058C2.8185 13.269 2.89968 13.2173 2.97037 13.1531C3.07128 13.0508 3.13964 12.9209 3.16682 12.7799C3.19401 12.6388 3.17879 12.4928 3.1231 12.3604C3.08848 12.2711 3.03658 12.1895 2.97037 12.1204ZM5.3631 6.09126H15.5449C15.7378 6.09126 15.9228 6.01464 16.0592 5.87825C16.1956 5.74186 16.2722 5.55688 16.2722 5.36399C16.2722 5.17111 16.1956 4.98612 16.0592 4.84973C15.9228 4.71334 15.7378 4.63672 15.5449 4.63672H5.3631C5.17021 4.63672 4.98523 4.71334 4.84884 4.84973C4.71245 4.98612 4.63582 5.17111 4.63582 5.36399C4.63582 5.55688 4.71245 5.74186 4.84884 5.87825C4.98523 6.01464 5.17021 6.09126 5.3631 6.09126ZM2.97037 8.48399C2.8681 8.38308 2.73822 8.31472 2.59714 8.28753C2.45606 8.26035 2.31008 8.27557 2.17764 8.33126C2.08951 8.36809 2.00833 8.41975 1.93764 8.48399C1.87143 8.55316 1.81953 8.63472 1.78491 8.72399C1.74644 8.81105 1.72656 8.90518 1.72656 9.00035C1.72656 9.09553 1.74644 9.18966 1.78491 9.27672C1.82174 9.36485 1.8734 9.44603 1.93764 9.51672C2.00833 9.58096 2.08951 9.63262 2.17764 9.66945C2.2647 9.70792 2.35883 9.7278 2.454 9.7278C2.54918 9.7278 2.64331 9.70792 2.73037 9.66945C2.8185 9.63262 2.89968 9.58096 2.97037 9.51672C3.03461 9.44603 3.08626 9.36485 3.1231 9.27672C3.16157 9.18966 3.18145 9.09553 3.18145 9.00035C3.18145 8.90518 3.16157 8.81105 3.1231 8.72399C3.08848 8.63472 3.03658 8.55316 2.97037 8.48399ZM15.5449 8.27308H5.3631C5.17021 8.27308 4.98523 8.34971 4.84884 8.4861C4.71245 8.62249 4.63582 8.80747 4.63582 9.00035C4.63582 9.19324 4.71245 9.37822 4.84884 9.51461C4.98523 9.651 5.17021 9.72763 5.3631 9.72763H15.5449C15.7378 9.72763 15.9228 9.651 16.0592 9.51461C16.1956 9.37822 16.2722 9.19324 16.2722 9.00035C16.2722 8.80747 16.1956 8.62249 16.0592 8.4861C15.9228 8.34971 15.7378 8.27308 15.5449 8.27308ZM2.97037 4.84763C2.9012 4.78142 2.81964 4.72951 2.73037 4.6949C2.59792 4.63921 2.45195 4.62399 2.31087 4.65117C2.16978 4.67835 2.03991 4.74671 1.93764 4.84763C1.8734 4.91832 1.82174 4.99949 1.78491 5.08763C1.74644 5.17468 1.72656 5.26881 1.72656 5.36399C1.72656 5.45917 1.74644 5.5533 1.78491 5.64036C1.82174 5.72849 1.8734 5.80966 1.93764 5.88036C2.00833 5.9446 2.08951 5.99625 2.17764 6.03308C2.31008 6.08878 2.45606 6.10399 2.59714 6.07681C2.73822 6.04963 2.8681 5.98127 2.97037 5.88036C3.03461 5.80966 3.08626 5.72849 3.1231 5.64036C3.16157 5.5533 3.18145 5.45917 3.18145 5.36399C3.18145 5.26881 3.16157 5.17468 3.1231 5.08763C3.08626 4.99949 3.03461 4.91832 2.97037 4.84763ZM15.5449 11.9094H5.3631C5.17021 11.9094 4.98523 11.9861 4.84884 12.1225C4.71245 12.2588 4.63582 12.4438 4.63582 12.6367C4.63582 12.8296 4.71245 13.0146 4.84884 13.151C4.98523 13.2874 5.17021 13.364 5.3631 13.364H15.5449C15.7378 13.364 15.9228 13.2874 16.0592 13.151C16.1956 13.0146 16.2722 12.8296 16.2722 12.6367C16.2722 12.4438 16.1956 12.2588 16.0592 12.1225C15.9228 11.9861 15.7378 11.9094 15.5449 11.9094Z" fill="#FFCD1A"/>
</g>
</svg>
