<svg width="40" height="22" viewBox="0 0 40 22" fill="none" xmlns="http://www.w3.org/2000/svg">
<path id="Vector" opacity="0.2" d="M1.61833 23.4191C0.168971 26.0662 2.50712 27.9897 5.99984 27.0177C8.63878 26.2833 10.7754 24.1607 10.7348 22.2999C10.6991 20.8645 10.7807 19.479 11.1879 19.3382C13.476 18.5638 17.3152 17.2476 18.3242 16.9668L23.1558 15.6222C24.0678 15.3684 24.9577 14.8867 25.632 14.2723L33.127 7.47879L38.6069 1.50755C38.6069 1.50755 38.6952 0.712106 36.916 1.73034C35.1369 2.7623 33.3885 4.79058 33.3885 4.79058C33.3885 4.79058 33.5624 2.9527 33.3652 2.73226C33.1682 2.52553 31.6289 0.668838 30.9664 0.605436C30.3038 0.542034 29.7365 2.00764 30.1733 2.76707C30.6296 3.52109 31.1648 4.37701 31.1648 4.37701L30.5335 7.07176L29.9952 5.9414C29.9952 5.9414 30.5551 5.5378 30.5517 5.23591C30.5481 4.9203 30.2921 4.66117 29.6117 4.74039C29.3202 4.78022 29.2036 4.7989 29.1454 4.8151C29.027 4.66911 28.3764 3.94164 27.8493 3.81299C27.2442 3.66478 25.3665 2.86585 24.9587 2.9518C24.5509 3.03776 24.2458 3.59071 24.7809 4.43291C25.316 5.27511 26.488 5.63722 26.488 5.63722L25.7322 5.93015C25.7322 5.93015 23.5569 4.63588 22.9942 4.79248C22.4314 4.94908 22.0892 5.66378 22.6007 6.14088C23.1122 6.61798 23.3685 6.90455 23.3685 6.90455C23.3685 6.90455 18.7168 8.66709 17.5137 9.00188C16.2913 9.34208 12.1294 11.3813 11.1067 12.1752C10.0841 12.9691 6.82049 15.2676 6.05118 16.0874C5.26261 16.9263 3.31559 20.3176 1.61833 23.4191ZM26.8812 7.70273L27.4051 7.55693C27.4051 7.55693 27.5078 8.02392 27.608 8.28509C27.6889 8.55165 26.9143 8.90488 26.9143 8.90488C26.9143 8.90488 27.084 8.41717 27.1023 8.31571C27.082 8.23878 26.8812 7.70273 26.8812 7.70273ZM21.2629 10.0509L24.4402 8.72617L24.5449 9.37155L23.9497 10.1016C22.532 10.386 21.2629 10.0509 21.2629 10.0509Z" stroke="url(#paint0_linear_345_8747)" stroke-miterlimit="10" stroke-linecap="round" stroke-linejoin="round"/>
<defs>
<linearGradient id="paint0_linear_345_8747" x1="1.20874" y1="8.8562" x2="38.7193" y2="8.55806" gradientUnits="userSpaceOnUse">
<stop stop-color="#9E1256"/>
<stop offset="0.265625" stop-color="#CE164F"/>
<stop offset="0.5" stop-color="#E74249"/>
<stop offset="0.770833" stop-color="#ED6E49"/>
<stop offset="1" stop-color="#F9B048"/>
</linearGradient>
</defs>
</svg>
