<svg width="25" height="24" viewBox="0 0 25 24" fill="none" xmlns="http://www.w3.org/2000/svg">
<g id="mdi:youtube" clip-path="url(#clip0_345_3086)">
<path id="Vector" d="M10.0844 15.4286L16.3124 12L10.0844 8.57143V15.4286ZM23.9564 6.48C24.1124 7.01714 24.2204 7.73714 24.2924 8.65143C24.3764 9.56571 24.4124 10.3543 24.4124 11.04L24.4844 12C24.4844 14.5029 24.2924 16.3429 23.9564 17.52C23.6564 18.5486 22.9604 19.2114 21.8804 19.4971C21.3164 19.6457 20.2844 19.7486 18.7004 19.8171C17.1404 19.8971 15.7124 19.9314 14.3924 19.9314L12.4844 20C7.45638 20 4.32438 19.8171 3.08838 19.4971C2.00838 19.2114 1.31238 18.5486 1.01238 17.52C0.856375 16.9829 0.748375 16.2629 0.676375 15.3486C0.592375 14.4343 0.556375 13.6457 0.556375 12.96L0.484375 12C0.484375 9.49714 0.676375 7.65714 1.01238 6.48C1.31238 5.45143 2.00838 4.78857 3.08838 4.50286C3.65238 4.35429 4.68438 4.25143 6.26838 4.18286C7.82838 4.10286 9.25638 4.06857 10.5764 4.06857L12.4844 4C17.5124 4 20.6444 4.18286 21.8804 4.50286C22.9604 4.78857 23.6564 5.45143 23.9564 6.48Z" fill="#FF1A1A"/>
</g>
<defs>
<clipPath id="clip0_345_3086">
<rect width="24" height="24" fill="white" transform="translate(0.484375)"/>
</clipPath>
</defs>
</svg>
